<?xml version="1.0" standalone="no"?>
<!DOCTYPE svg PUBLIC "-//W3C//DTD SVG 1.1//EN" "http://www.w3.org/Graphics/SVG/1.1/DTD/svg11.dtd">
<svg width="43" height="24" viewBox="-40 -11 43 24" xmlns="http://www.w3.org/2000/svg" version="1.1">
<title>OpenSCAD Model</title>
<path d="
M -3.86411,12.2354 L -3.79088,12.1622 L -2.79089,10.4301 L -2.7641,10.3301 L -2.7641,9.38373 L -1.8177,7.74449
 L -0.178452,6.79807 L 0.767944,6.79807 L 0.86795,6.77127 L 2.59999,5.77127 L 2.6732,5.69806 L 2.7,5.59807
 L 2.7,3.59807 L 2.6732,3.49806 L 2.2,2.67845 L 2.2,1.73204 L 2.1732,1.63203 L 1.1732,-0.0999908
 L 1.09999,-0.173203 L 1,-0.199997 L 0,-0.199997 L -0.0999908,-0.173203 L -0.173203,-0.0999908 L -0.199997,-0
 L -0.173203,0.0999908 L -0.0999908,0.173203 L 0,0.199997 L 0.884537,0.199997 L 1.8,1.78564 L 1.8,2.73204
 L 1.8268,2.83203 L 2.3,3.65167 L 2.3,5.4826 L 0.71434,6.39807 L -0.23204,6.39807 L -0.332031,6.42487
 L -2.06409,7.42487 L -2.1373,7.49808 L -3.1373,9.23013 L -3.16409,9.33012 L -3.16409,10.2765 L -4.07956,11.8622
 L -5.91051,11.8622 L -6.73013,11.389 L -6.83012,11.3622 L -7.77654,11.3622 L -9.36217,10.4467 L -9.36217,8.61575
 L -8.88896,7.79614 L -8.86217,7.69615 L -8.86217,5.69615 L -8.88896,5.59616 L -9.88896,3.86411 L -9.96217,3.79089
 L -11.6942,2.79089 L -11.7942,2.7641 L -12.0478,2.7641 L -10.9622,2.1373 L -10.889,2.06409 L -10.8622,1.9641
 L -10.8622,-0.0358887 L -10.889,-0.135895 L -11.3622,-0.955505 L -11.3622,-1.90192 L -11.389,-2.00192 L -12.389,-3.73396
 L -12.4622,-3.80717 L -12.5622,-3.83397 L -13.8158,-3.83397 L -13.5962,-3.96077 L -13.5229,-4.03398 L -12.5229,-5.76602
 L -12.4962,-5.86601 L -12.4962,-7.86601 L -12.5229,-7.966 L -13.5229,-9.69806 L -13.5962,-9.77127 L -15.3282,-10.7713
 L -15.4282,-10.7981 L -17.4282,-10.7981 L -17.5282,-10.7713 L -19.2602,-9.77127 L -19.3335,-9.69806 L -20.3335,-7.966
 L -20.3602,-7.86601 L -20.3602,-5.86601 L -20.3335,-5.76602 L -20.2066,-5.54637 L -21.2923,-6.17319 L -21.3923,-6.19998
 L -21.4923,-6.17319 L -23.2243,-5.17319 L -23.2976,-5.09999 L -23.7707,-4.2804 L -24.5904,-3.80717 L -24.6636,-3.73396
 L -25.6636,-2.00191 L -25.6904,-1.90192 L -25.6636,-1.80191 L -25.0368,-0.716263 L -25.2564,-0.843063 L -25.3564,-0.869858
 L -27.3564,-0.869858 L -27.4564,-0.843063 L -29.1884,0.156921 L -29.2617,0.230133 L -30.2617,1.96217 L -30.2885,2.06216
 L -30.2885,3.00858 L -31.2039,4.59422 L -33.0349,4.59422 L -33.8545,4.12102 L -33.9545,4.09422 L -34.9009,4.09422
 L -36.4865,3.17874 L -36.4865,1.34781 L -36.0133,0.528183 L -35.9865,0.428192 L -35.9865,-1.57179 L -36.0133,-1.67178
 L -37.0133,-3.40382 L -37.0865,-3.47704 L -37.9062,-3.95026 L -38.8216,-5.5359 L -37.9061,-7.12155 L -37.0865,-7.59474
 L -37.0133,-7.66795 L -36.5401,-8.48758 L -34.9545,-9.40303 L -34.1884,-8.96075 L -34.0885,-8.93396 L -33.9884,-8.96075
 L -33.9152,-9.03397 L -33.8884,-9.13397 L -33.9152,-9.23396 L -33.9884,-9.30719 L -34.8545,-9.80717 L -34.9545,-9.83397
 L -35.0545,-9.80717 L -36.7865,-8.80717 L -36.8597,-8.73396 L -37.3329,-7.91437 L -38.1525,-7.44115 L -38.2258,-7.36794
 L -39.2258,-5.63588 L -39.2525,-5.53589 L -39.2258,-5.43588 L -38.2258,-3.70384 L -38.1525,-3.63062 L -37.3329,-3.15742
 L -36.3865,-1.5182 L -36.3865,0.374588 L -36.8597,1.19423 L -36.8865,1.29422 L -36.8865,3.29422 L -36.8597,3.39421
 L -36.7865,3.46744 L -35.0545,4.46742 L -34.9545,4.49422 L -34.0081,4.49422 L -33.1884,4.96742 L -33.0885,4.99422
 L -31.0885,4.99422 L -30.9885,4.96742 L -30.9152,4.89421 L -29.9153,3.16216 L -29.8885,3.06216 L -29.8885,2.11578
 L -28.9421,0.476547 L -27.3028,-0.469864 L -25.41,-0.469864 L -23.7708,0.476517 L -22.8243,2.11575 L -22.8243,4.00856
 L -23.2975,4.8282 L -23.3243,4.92819 L -23.3243,6.92819 L -23.2975,7.02818 L -23.2243,7.10141 L -21.4923,8.10139
 L -21.3923,8.12819 L -20.4459,8.12819 L -19.6263,8.60139 L -19.5263,8.62819 L -17.5263,8.62819 L -17.4263,8.60139
 L -17.3531,8.52818 L -16.3531,6.79614 L -16.3263,6.69615 L -16.3263,5.74976 L -15.3799,4.11052 L -13.7406,3.16409
 L -11.8478,3.16409 L -10.2086,4.11049 L -9.26216,5.74974 L -9.26216,7.64253 L -9.73537,8.46217 L -9.76216,8.56216
 L -9.76216,10.5622 L -9.73537,10.6622 L -9.66217,10.7354 L -7.93011,11.7354 L -7.83012,11.7622 L -6.88373,11.7622
 L -6.06409,12.2354 L -5.9641,12.2622 L -3.9641,12.2622 z
M -17.3746,-3.33397 L -19.0138,-4.28038 L -19.9603,-5.9196 L -19.9603,-7.81241 L -19.0139,-9.45164 L -17.3746,-10.3981
 L -15.4818,-10.3981 L -13.8426,-9.45168 L -12.8961,-7.81242 L -12.8961,-5.91962 L -13.8426,-4.28038 L -15.4818,-3.33397
 z
M -19.4727,8.2282 L -20.2923,7.75499 L -20.3923,7.7282 L -21.3387,7.7282 L -22.9243,6.81271 L -22.9243,4.98178
 L -22.4511,4.16216 L -22.4243,4.06216 L -22.4243,2.06216 L -22.4511,1.96217 L -23.4511,0.230133 L -23.5244,0.156921
 L -24.344,-0.316284 L -25.2594,-1.90193 L -24.3439,-3.48758 L -23.5244,-3.96077 L -23.4511,-4.03398 L -22.9779,-4.85358
 L -21.3923,-5.76904 L -19.8066,-4.85356 L -19.3335,-4.03398 L -19.2602,-3.96077 L -17.5282,-2.96077 L -17.4282,-2.93398
 L -15.4282,-2.93398 L -15.3282,-2.96077 L -14.5086,-3.43398 L -12.6776,-3.43398 L -11.7622,-1.84831 L -11.7622,-0.901917
 L -11.7354,-0.801926 L -11.2622,0.0177002 L -11.2622,1.84863 L -12.8478,2.7641 L -13.7942,2.7641 L -13.8942,2.79089
 L -15.6263,3.79089 L -15.6995,3.86411 L -16.6995,5.59616 L -16.7263,5.69615 L -16.7263,6.64256 L -17.6418,8.2282
 z
" stroke="black" fill="lightgray" stroke-width="0.5"/></svg>
