<?xml version="1.0" standalone="no"?>
<!DOCTYPE svg PUBLIC "-//W3C//DTD SVG 1.1//EN" "http://www.w3.org/Graphics/SVG/1.1/DTD/svg11.dtd">
<svg width="4" height="8" viewBox="-1 -1 4 8" xmlns="http://www.w3.org/2000/svg" version="1.1">
<title>OpenSCAD Model</title>
<path d="
M 1.63397,6.29807 L 1.73398,6.27127 L 2.59999,5.77127 L 2.6732,5.69806 L 2.7,5.59807 L 2.7,3.59807
 L 2.6732,3.49806 L 2.2,2.67845 L 2.2,1.73204 L 2.1732,1.63203 L 1.1732,-0.0999908 L 1.09999,-0.173203
 L 1,-0.199997 L 0,-0.199997 L -0.0999908,-0.173203 L -0.173203,-0.0999908 L -0.199997,-0 L -0.173203,0.0999908
 L -0.0999908,0.173203 L 0,0.199997 L 0.884537,0.199997 L 1.8,1.78564 L 1.8,2.73204 L 1.8268,2.83203
 L 2.3,3.65167 L 2.3,5.4826 L 1.53397,5.92487 L 1.46075,5.99806 L 1.43396,6.09807 L 1.46075,6.19807
 L 1.53397,6.27127 z
" stroke="black" fill="lightgray" stroke-width="0.5"/></svg>
