<?xml version="1.0" standalone="no"?>
<!DOCTYPE svg PUBLIC "-//W3C//DTD SVG 1.1//EN" "http://www.w3.org/Graphics/SVG/1.1/DTD/svg11.dtd">
<svg width="29" height="20" viewBox="-26 -7 29 20" xmlns="http://www.w3.org/2000/svg" version="1.1">
<title>OpenSCAD Model</title>
<path d="
M -3.86411,12.2354 L -3.79088,12.1622 L -2.79089,10.4301 L -2.7641,10.3301 L -2.7641,9.38373 L -1.8177,7.74449
 L -0.178452,6.79807 L 0.767944,6.79807 L 0.86795,6.77127 L 2.59999,5.77127 L 2.6732,5.69806 L 2.7,5.59807
 L 2.7,3.59807 L 2.6732,3.49806 L 2.2,2.67845 L 2.2,1.73204 L 2.1732,1.63203 L 1.1732,-0.0999908
 L 1.09999,-0.173203 L 1,-0.199997 L 0,-0.199997 L -0.0999908,-0.173203 L -0.173203,-0.0999908 L -0.199997,-0
 L -0.173203,0.0999908 L -0.0999908,0.173203 L 0,0.199997 L 0.884537,0.199997 L 1.8,1.78564 L 1.8,2.73204
 L 1.8268,2.83203 L 2.3,3.65167 L 2.3,5.4826 L 0.71434,6.39807 L -0.23204,6.39807 L -0.332031,6.42487
 L -2.06409,7.42487 L -2.1373,7.49808 L -3.1373,9.23013 L -3.16409,9.33012 L -3.16409,10.2765 L -4.07956,11.8622
 L -5.91051,11.8622 L -6.73013,11.389 L -6.83012,11.3622 L -7.77654,11.3622 L -9.36217,10.4467 L -9.36217,8.61575
 L -8.88896,7.79614 L -8.86217,7.69615 L -8.86217,5.69615 L -8.88896,5.59616 L -9.88896,3.86411 L -9.96217,3.79089
 L -11.6942,2.79089 L -11.7942,2.7641 L -13.7942,2.7641 L -13.8942,2.79089 L -15.6263,3.79089 L -15.6995,3.86411
 L -16.6995,5.59616 L -16.7263,5.69615 L -16.7263,6.64256 L -17.6418,8.2282 L -19.4727,8.2282 L -20.2923,7.75499
 L -20.3923,7.7282 L -21.3387,7.7282 L -22.9243,6.81271 L -22.9243,4.98178 L -22.4511,4.16216 L -22.4243,4.06216
 L -22.4243,2.06216 L -22.4511,1.96217 L -23.4511,0.230133 L -23.5244,0.156921 L -24.344,-0.316284 L -25.2594,-1.90193
 L -24.3439,-3.48758 L -23.5244,-3.96077 L -23.4511,-4.03398 L -22.9779,-4.85358 L -21.3923,-5.76904 L -20.6263,-5.32678
 L -20.5263,-5.29999 L -20.4263,-5.32678 L -20.3531,-5.39999 L -20.3263,-5.49998 L -20.3531,-5.59999 L -20.4263,-5.6732
 L -21.2923,-6.17319 L -21.3923,-6.19998 L -21.4923,-6.17319 L -23.2243,-5.17319 L -23.2976,-5.09999 L -23.7707,-4.2804
 L -24.5904,-3.80717 L -24.6636,-3.73396 L -25.6636,-2.00191 L -25.6904,-1.90192 L -25.6636,-1.80191 L -24.6636,-0.06987
 L -24.5904,0.00334167 L -23.7708,0.476517 L -22.8243,2.11575 L -22.8243,4.00856 L -23.2975,4.8282 L -23.3243,4.92819
 L -23.3243,6.92819 L -23.2975,7.02818 L -23.2243,7.10141 L -21.4923,8.10139 L -21.3923,8.12819 L -20.4459,8.12819
 L -19.6263,8.60139 L -19.5263,8.62819 L -17.5263,8.62819 L -17.4263,8.60139 L -17.3531,8.52818 L -16.3531,6.79614
 L -16.3263,6.69615 L -16.3263,5.74976 L -15.3799,4.11052 L -13.7406,3.16409 L -11.8478,3.16409 L -10.2086,4.11049
 L -9.26216,5.74974 L -9.26216,7.64253 L -9.73537,8.46217 L -9.76216,8.56216 L -9.76216,10.5622 L -9.73537,10.6622
 L -9.66217,10.7354 L -7.93011,11.7354 L -7.83012,11.7622 L -6.88373,11.7622 L -6.06409,12.2354 L -5.9641,12.2622
 L -3.9641,12.2622 z
" stroke="black" fill="lightgray" stroke-width="0.5"/></svg>
