<?xml version="1.0" standalone="no"?>
<!DOCTYPE svg PUBLIC "-//W3C//DTD SVG 1.1//EN" "http://www.w3.org/Graphics/SVG/1.1/DTD/svg11.dtd">
<svg width="43" height="43" viewBox="-40 -20 43 43" xmlns="http://www.w3.org/2000/svg" version="1.1">
<title>OpenSCAD Model</title>
<path d="
M -19.6636,20.5904 L -19.5904,20.6636 L -17.8583,21.6636 L -17.7583,21.6904 L -16.8119,21.6904 L -15.9923,22.1636
 L -15.8923,22.1904 L -13.8923,22.1904 L -13.7923,22.1636 L -13.7191,22.0904 L -12.7191,20.3583 L -12.6923,20.2583
 L -12.6923,19.3119 L -11.7459,17.6727 L -10.1067,16.7263 L -9.16025,16.7263 L -9.06024,16.6995 L -7.3282,15.6995
 L -7.25499,15.6263 L -7.2282,15.5263 L -7.2282,13.5263 L -7.25499,13.4263 L -7.7282,12.6067 L -7.7282,11.7622
 L -6.88373,11.7622 L -6.06409,12.2354 L -5.9641,12.2622 L -3.9641,12.2622 L -3.86411,12.2354 L -3.79088,12.1622
 L -2.79089,10.4301 L -2.7641,10.3301 L -2.7641,9.38373 L -1.8177,7.74449 L -0.178452,6.79807 L 0.767944,6.79807
 L 0.86795,6.77127 L 2.59999,5.77127 L 2.6732,5.69806 L 2.7,5.59807 L 2.7,3.59807 L 2.6732,3.49806
 L 2.2,2.67845 L 2.2,1.73204 L 2.1732,1.63203 L 1.1732,-0.0999908 L 1.09999,-0.173203 L 1,-0.199997
 L 0,-0.199997 L -0.0999908,-0.173203 L -0.173203,-0.0999908 L -0.199997,-0 L -0.173203,0.0999908 L -0.0999908,0.173203
 L 0,0.199997 L 0.884537,0.199997 L 1.8,1.78564 L 1.8,2.73204 L 1.8268,2.83203 L 2.3,3.65167
 L 2.3,5.4826 L 0.71434,6.39807 L -0.23204,6.39807 L -0.332031,6.42487 L -2.06409,7.42487 L -2.1373,7.49808
 L -3.1373,9.23013 L -3.16409,9.33012 L -3.16409,10.2765 L -4.07956,11.8622 L -5.91051,11.8622 L -6.73013,11.389
 L -6.83012,11.3622 L -7.77654,11.3622 L -7.91576,11.2818 L -8.75499,9.8282 L -8.8282,9.75499 L -8.92819,9.7282
 L -9.36217,9.7282 L -9.36217,8.61575 L -8.88896,7.79614 L -8.86217,7.69615 L -8.86217,5.69615 L -8.88896,5.59616
 L -9.88896,3.86411 L -9.96217,3.79089 L -11.6942,2.79089 L -11.7942,2.7641 L -12.0478,2.7641 L -10.9622,2.1373
 L -10.889,2.06409 L -10.8622,1.9641 L -10.8622,-0.0358887 L -10.889,-0.135895 L -11.3622,-0.955505 L -11.3622,-1.90192
 L -11.389,-2.00192 L -12.389,-3.73396 L -12.4622,-3.80717 L -12.5622,-3.83397 L -13.8158,-3.83397 L -13.5962,-3.96077
 L -13.5229,-4.03398 L -12.5229,-5.76602 L -12.4962,-5.86601 L -12.4962,-7.86601 L -12.5229,-7.966 L -13.5229,-9.69806
 L -13.5962,-9.77127 L -15.3282,-10.7713 L -15.4282,-10.7981 L -15.6818,-10.7981 L -14.5962,-11.4249 L -14.5229,-11.4981
 L -14.4962,-11.5981 L -14.4962,-13.5981 L -14.5229,-13.6981 L -14.9962,-14.5177 L -14.9962,-15.4641 L -15.0229,-15.5641
 L -16.0229,-17.2961 L -16.0962,-17.3694 L -16.1962,-17.3961 L -18.1962,-17.3961 L -18.2961,-17.3694 L -19.1158,-16.8961
 L -21.0086,-16.8961 L -22.6478,-17.8426 L -23.121,-18.6622 L -23.1942,-18.7354 L -24.9263,-19.7354 L -25.0263,-19.7622
 L -25.1263,-19.7354 L -26.8583,-18.7354 L -26.9315,-18.6622 L -27.4047,-17.8426 L -28.2243,-17.3694 L -28.2976,-17.2961
 L -29.2975,-15.5641 L -29.3243,-15.4641 L -29.2975,-15.3641 L -28.6707,-14.2784 L -28.8904,-14.4052 L -28.9904,-14.432
 L -30.9904,-14.432 L -31.0904,-14.4052 L -32.8224,-13.4052 L -32.8956,-13.332 L -33.8956,-11.6 L -33.9224,-11.5
 L -33.9224,-9.49998 L -33.8956,-9.39999 L -33.7688,-9.18037 L -34.8545,-9.80717 L -34.9545,-9.83397 L -35.0545,-9.80717
 L -36.7865,-8.80717 L -36.8597,-8.73396 L -37.3329,-7.91437 L -38.1525,-7.44115 L -38.2258,-7.36794 L -39.2258,-5.63588
 L -39.2525,-5.53589 L -39.2258,-5.43588 L -38.2258,-3.70384 L -38.1525,-3.63062 L -37.3329,-3.15742 L -36.3865,-1.5182
 L -36.3865,0.374588 L -36.8597,1.19423 L -36.8865,1.29422 L -36.8865,3.29422 L -36.8597,3.39421 L -36.7865,3.46744
 L -35.0545,4.46742 L -34.9545,4.49422 L -34.0081,4.49422 L -33.1884,4.96742 L -33.0885,4.99422 L -31.0885,4.99422
 L -30.9885,4.96742 L -30.9152,4.89421 L -30.2885,3.80856 L -30.2885,4.06216 L -30.2617,4.16216 L -29.2617,5.89421
 L -29.1884,5.96742 L -27.4564,6.96742 L -27.3564,6.99422 L -25.3564,6.99422 L -25.2564,6.96742 L -23.5244,5.96742
 L -23.4511,5.89421 L -23.3243,5.67459 L -23.3243,6.92819 L -23.2975,7.02818 L -23.2243,7.10141 L -21.4923,8.10139
 L -21.3923,8.12819 L -20.4459,8.12819 L -19.6263,8.60139 L -19.5263,8.62819 L -17.5263,8.62819 L -17.4263,8.60139
 L -17.3531,8.52818 L -16.7263,7.44255 L -16.7263,7.69615 L -16.6995,7.79614 L -15.6995,9.52818 L -15.6263,9.60139
 L -13.8942,10.6014 L -13.7942,10.6282 L -11.7942,10.6282 L -11.6942,10.6014 L -10.8746,10.1282 L -9.76216,10.1282
 L -9.76216,10.5622 L -9.73537,10.6622 L -9.66217,10.7354 L -8.20859,11.5746 L -8.12819,11.7139 L -8.12819,12.6602
 L -8.10139,12.7602 L -7.62819,13.5799 L -7.62819,15.4108 L -9.21385,16.3263 L -10.1602,16.3263 L -10.2602,16.3531
 L -11.9923,17.3531 L -12.0655,17.4263 L -13.0655,19.1583 L -13.0923,19.2583 L -13.0923,20.2047 L -14.0078,21.7904
 L -15.8387,21.7904 L -16.6583,21.3172 L -16.7583,21.2904 L -17.7047,21.2904 L -19.2904,20.3749 L -19.2904,19.4904
 L -19.3172,19.3904 L -19.3904,19.3172 L -19.4904,19.2904 L -19.5904,19.3172 L -19.6636,19.3904 L -19.6904,19.4904
 L -19.6904,20.4904 z
M -33.0349,4.59422 L -33.8545,4.12102 L -33.9545,4.09422 L -34.9009,4.09422 L -36.4865,3.17874 L -36.4865,1.34781
 L -36.0133,0.528183 L -35.9865,0.428192 L -35.9865,-1.57179 L -36.0133,-1.67178 L -37.0133,-3.40382 L -37.0865,-3.47704
 L -37.9062,-3.95026 L -38.8216,-5.5359 L -37.9061,-7.12155 L -37.0865,-7.59474 L -37.0133,-7.66795 L -36.5401,-8.48758
 L -34.9545,-9.40303 L -33.3688,-8.48756 L -32.8956,-7.66795 L -32.8224,-7.59474 L -31.0904,-6.59474 L -30.9904,-6.56795
 L -28.9904,-6.56795 L -28.8904,-6.59474 L -27.1583,-7.59474 L -27.0851,-7.66795 L -26.0851,-9.39999 L -26.0583,-9.49998
 L -26.0583,-11.5 L -26.0851,-11.6 L -27.0851,-13.332 L -27.1583,-13.4052 L -27.9779,-13.8784 L -28.8934,-15.4641
 L -27.9779,-17.0498 L -27.1583,-17.5229 L -27.0851,-17.5962 L -26.6119,-18.4158 L -25.0263,-19.3312 L -23.4406,-18.4157
 L -22.9674,-17.5962 L -22.8942,-17.5229 L -21.1622,-16.5229 L -21.0622,-16.4962 L -19.0622,-16.4962 L -18.9622,-16.5229
 L -18.1425,-16.9962 L -16.3116,-16.9962 L -15.3961,-15.4105 L -15.3961,-14.4641 L -15.3694,-14.3641 L -14.8961,-13.5445
 L -14.8961,-11.7135 L -16.4818,-10.7981 L -17.4282,-10.7981 L -17.5282,-10.7713 L -19.2602,-9.77127 L -19.3335,-9.69806
 L -20.3335,-7.966 L -20.3602,-7.86601 L -20.3602,-5.86601 L -20.3335,-5.76602 L -20.2066,-5.54639 L -21.2923,-6.17319
 L -21.3923,-6.19998 L -21.4923,-6.17319 L -23.2243,-5.17319 L -23.2976,-5.09999 L -23.7707,-4.2804 L -24.5904,-3.80717
 L -24.6636,-3.73396 L -25.6636,-2.00191 L -25.6904,-1.90192 L -25.6636,-1.80191 L -25.0368,-0.716263 L -25.2564,-0.843063
 L -25.3564,-0.869858 L -27.3564,-0.869858 L -27.4564,-0.843063 L -29.1884,0.156921 L -29.2617,0.230133 L -30.2617,1.96217
 L -30.2885,2.06216 L -30.2885,3.00858 L -31.2039,4.59422 z
M -30.9368,-6.96794 L -32.576,-7.91434 L -33.5224,-9.55357 L -33.5224,-11.4464 L -32.576,-13.0856 L -30.9368,-14.032
 L -29.044,-14.032 L -27.4047,-13.0856 L -26.4583,-11.4464 L -26.4583,-9.5536 L -27.4047,-7.91437 L -29.044,-6.96794
 z
M -17.3746,-3.33397 L -19.0138,-4.28038 L -19.9603,-5.9196 L -19.9603,-7.81241 L -19.0139,-9.45164 L -17.3746,-10.3981
 L -15.4818,-10.3981 L -13.8426,-9.45168 L -12.8961,-7.81242 L -12.8961,-5.91962 L -13.8426,-4.28038 L -15.4818,-3.33397
 z
M -19.4727,8.2282 L -20.2923,7.75499 L -20.3923,7.7282 L -21.3387,7.7282 L -22.9243,6.81271 L -22.9243,4.98178
 L -22.4511,4.16216 L -22.4243,4.06216 L -22.4243,2.06216 L -22.4511,1.96217 L -23.4511,0.230133 L -23.5244,0.156921
 L -24.344,-0.316284 L -25.2594,-1.90193 L -24.3439,-3.48758 L -23.5244,-3.96077 L -23.4511,-4.03398 L -22.9779,-4.85358
 L -21.3923,-5.76904 L -19.8066,-4.85356 L -19.3335,-4.03398 L -19.2602,-3.96077 L -17.5282,-2.96077 L -17.4282,-2.93398
 L -15.4282,-2.93398 L -15.3282,-2.96077 L -14.5086,-3.43398 L -12.6776,-3.43398 L -11.7622,-1.84831 L -11.7622,-0.901917
 L -11.7354,-0.801926 L -11.2622,0.0177002 L -11.2622,1.84863 L -12.8478,2.7641 L -13.7942,2.7641 L -13.8942,2.79089
 L -15.6263,3.79089 L -15.6995,3.86411 L -16.6995,5.59616 L -16.7263,5.69615 L -16.7263,6.64256 L -17.6418,8.2282
 z
M -27.3028,6.59422 L -28.942,5.64783 L -29.8885,4.00858 L -29.8885,2.11578 L -28.9421,0.476547 L -27.3028,-0.469864
 L -25.41,-0.469864 L -23.7708,0.476517 L -22.8243,2.11575 L -22.8243,4.00856 L -23.7707,5.6478 L -25.41,6.59422
 z
M -13.7406,10.2282 L -15.3799,9.2818 L -16.3263,7.64256 L -16.3263,5.74976 L -15.3799,4.11052 L -13.7406,3.16409
 L -11.8478,3.16409 L -10.2086,4.11049 L -9.26216,5.74974 L -9.26216,7.64253 L -9.73537,8.46217 L -9.76216,8.56216
 L -9.76216,9.7282 L -10.9282,9.7282 L -11.0282,9.75499 L -11.8478,10.2282 z
M -9.36217,10.4467 L -9.36217,10.1282 L -9.04366,10.1282 L -8.60857,10.8818 z
" stroke="black" fill="lightgray" stroke-width="0.5"/></svg>
