<?xml version="1.0" standalone="no"?>
<!DOCTYPE svg PUBLIC "-//W3C//DTD SVG 1.1//EN" "http://www.w3.org/Graphics/SVG/1.1/DTD/svg11.dtd">
<svg width="13" height="14" viewBox="-10 -1 13 14" xmlns="http://www.w3.org/2000/svg" version="1.1">
<title>OpenSCAD Model</title>
<path d="
M -3.86411,12.2354 L -3.79088,12.1622 L -2.79089,10.4301 L -2.7641,10.3301 L -2.7641,9.38373 L -1.8177,7.74449
 L -0.178452,6.79807 L 0.767944,6.79807 L 0.86795,6.77127 L 2.59999,5.77127 L 2.6732,5.69806 L 2.7,5.59807
 L 2.7,3.59807 L 2.6732,3.49806 L 2.2,2.67845 L 2.2,1.73204 L 2.1732,1.63203 L 1.1732,-0.0999908
 L 1.09999,-0.173203 L 1,-0.199997 L 0,-0.199997 L -0.0999908,-0.173203 L -0.173203,-0.0999908 L -0.199997,-0
 L -0.173203,0.0999908 L -0.0999908,0.173203 L 0,0.199997 L 0.884537,0.199997 L 1.8,1.78564 L 1.8,2.73204
 L 1.8268,2.83203 L 2.3,3.65167 L 2.3,5.4826 L 0.71434,6.39807 L -0.23204,6.39807 L -0.332031,6.42487
 L -2.06409,7.42487 L -2.1373,7.49808 L -3.1373,9.23013 L -3.16409,9.33012 L -3.16409,10.2765 L -4.07956,11.8622
 L -5.91051,11.8622 L -6.73013,11.389 L -6.83012,11.3622 L -7.77654,11.3622 L -9.36217,10.4467 L -9.36217,9.56216
 L -9.38896,9.46217 L -9.46217,9.38896 L -9.56216,9.36217 L -9.66217,9.38896 L -9.73538,9.46217 L -9.76216,9.56223
 L -9.76216,10.5622 L -9.73537,10.6622 L -9.66217,10.7354 L -7.93011,11.7354 L -7.83012,11.7622 L -6.88373,11.7622
 L -6.06409,12.2354 L -5.9641,12.2622 L -3.9641,12.2622 z
" stroke="black" fill="lightgray" stroke-width="0.5"/></svg>
