<?xml version="1.0" standalone="no"?>
<!DOCTYPE svg PUBLIC "-//W3C//DTD SVG 1.1//EN" "http://www.w3.org/Graphics/SVG/1.1/DTD/svg11.dtd">
<svg width="54" height="97" viewBox="-40 -20 54 97" xmlns="http://www.w3.org/2000/svg" version="1.1">
<title>OpenSCAD Model</title>
<path d="
M 0.743576,76.4123 L 0.816803,76.3391 L 1.81679,74.607 L 1.84358,74.507 L 1.84358,73.5606 L 2.78998,71.9214
 L 4.42923,70.975 L 5.37564,70.975 L 5.47565,70.9482 L 7.20767,69.9482 L 7.28088,69.875 L 7.30768,69.775
 L 7.30768,67.775 L 7.28088,67.675 L 6.80768,66.8554 L 6.80768,65.909 L 6.78088,65.809 L 5.78088,64.0769
 L 5.70767,64.0037 L 5.60768,63.9769 L 4.35408,63.9769 L 4.5737,63.8501 L 4.64691,63.7769 L 5.64691,62.0448
 L 5.67371,61.9449 L 5.67371,59.9449 L 5.64691,59.8449 L 4.64691,58.1128 L 4.5737,58.0396 L 2.84166,57.0396
 L 2.74167,57.0128 L 2.48805,57.0128 L 3.5737,56.386 L 3.64691,56.3128 L 3.67371,56.2128 L 3.67371,54.2128
 L 3.64691,54.1128 L 3.17371,53.2932 L 3.17371,52.3468 L 3.14691,52.2468 L 2.14691,50.5147 L 2.0737,50.4415
 L 1.97371,50.4147 L 0.720108,50.4147 L 0.939728,50.2879 L 1.01294,50.2147 L 2.01294,48.4827 L 2.03973,48.3827
 L 2.03973,46.3827 L 2.01294,46.2827 L 1.01294,44.5506 L 0.939728,44.4774 L 0.120102,44.0042 L -0.436081,43.0408
 L -0.060257,42.8238 L 0.0129395,42.7506 L 0.0397339,42.6506 L 0.0397339,40.9722 L 0.120132,40.8329 L 0.939728,40.3597
 L 1.01294,40.2865 L 1.48616,39.4669 L 1.62537,39.3865 L 3.30383,39.3865 L 3.40382,39.3597 L 3.47705,39.2865
 L 3.69403,38.9107 L 4.65742,39.4669 L 5.13063,40.2865 L 5.20384,40.3597 L 6.9359,41.3597 L 7.03589,41.3865
 L 9.03589,41.3865 L 9.13588,41.3597 L 9.95552,40.8865 L 11.7865,40.8865 L 12.7019,42.4722 L 12.7019,43.4186
 L 12.7287,43.5186 L 13.2019,44.3382 L 13.2019,46.1691 L 12.4359,46.6114 L 12.3627,46.6846 L 12.3359,46.7846
 L 12.3627,46.8846 L 12.4359,46.9578 L 12.5359,46.9846 L 12.6359,46.9578 L 13.5019,46.4578 L 13.5751,46.3846
 L 13.6019,46.2846 L 13.6019,44.2846 L 13.5751,44.1846 L 13.1019,43.365 L 13.1019,42.4186 L 13.0751,42.3186
 L 12.0751,40.5865 L 12.0019,40.5133 L 11.9019,40.4865 L 9.90192,40.4865 L 9.80191,40.5133 L 8.9823,40.9865
 L 7.08949,40.9865 L 5.45026,40.0401 L 4.97704,39.2205 L 4.90384,39.1473 L 3.89403,38.5643 L 4.47704,37.5545
 L 4.50383,37.4545 L 4.50383,36.5081 L 5.45023,34.8689 L 7.08948,33.9224 L 8.03589,33.9224 L 8.13589,33.8956
 L 9.86794,32.8956 L 9.94115,32.8224 L 9.96794,32.7224 L 9.96794,30.7224 L 9.94115,30.6224 L 9.46794,29.8028
 L 9.46794,28.8564 L 9.44115,28.7564 L 8.44115,27.0244 L 8.36794,26.9511 L 8.26794,26.9243 L 7.01434,26.9243
 L 7.23396,26.7975 L 7.30717,26.7243 L 8.30717,24.9923 L 8.33397,24.8923 L 8.33397,22.8923 L 8.30717,22.7923
 L 7.30717,21.0603 L 7.23396,20.987 L 5.50191,19.987 L 5.40192,19.9603 L 5.14832,19.9603 L 6.23396,19.3335
 L 6.30717,19.2602 L 6.33397,19.1602 L 6.33397,17.1602 L 6.30717,17.0602 L 5.83397,16.2406 L 5.83397,15.2942
 L 5.80717,15.1942 L 4.80717,13.4622 L 4.73396,13.389 L 4.63397,13.3622 L 2.63397,13.3622 L 2.53397,13.389
 L 1.71436,13.8622 L -0.178436,13.8622 L -1.81769,12.9158 L -2.29089,12.0962 L -2.36411,12.0229 L -3.3739,11.4399
 L -2.79089,10.4301 L -2.7641,10.3301 L -2.7641,9.38373 L -1.8177,7.74449 L -0.178452,6.79807 L 0.767944,6.79807
 L 0.86795,6.77127 L 2.59999,5.77127 L 2.6732,5.69806 L 2.7,5.59807 L 2.7,3.59807 L 2.6732,3.49806
 L 2.2,2.67845 L 2.2,1.73204 L 2.1732,1.63203 L 1.1732,-0.0999908 L 1.09999,-0.173203 L 1,-0.199997
 L 0,-0.199997 L -0.0999908,-0.173203 L -0.173203,-0.0999908 L -0.199997,-0 L -0.173203,0.0999908 L -0.0999908,0.173203
 L 0,0.199997 L 0.884537,0.199997 L 1.8,1.78564 L 1.8,2.73204 L 1.8268,2.83203 L 2.3,3.65167
 L 2.3,5.4826 L 0.71434,6.39807 L -0.23204,6.39807 L -0.332031,6.42487 L -2.06409,7.42487 L -2.1373,7.49808
 L -3.1373,9.23013 L -3.16409,9.33012 L -3.16409,10.2765 L -3.72032,11.2399 L -4.09616,11.0229 L -4.19615,10.9962
 L -4.29614,11.0229 L -5.74969,11.8622 L -5.91051,11.8622 L -6.73013,11.389 L -6.83012,11.3622 L -7.77654,11.3622
 L -7.91576,11.2818 L -8.75499,9.8282 L -8.8282,9.75499 L -8.92819,9.7282 L -9.36217,9.7282 L -9.36217,8.61575
 L -8.88896,7.79614 L -8.86217,7.69615 L -8.86217,5.69615 L -8.88896,5.59616 L -9.88896,3.86411 L -9.96217,3.79089
 L -11.6942,2.79089 L -11.7942,2.7641 L -12.0478,2.7641 L -10.9622,2.1373 L -10.889,2.06409 L -10.8622,1.9641
 L -10.8622,-0.0358887 L -10.889,-0.135895 L -11.3622,-0.955505 L -11.3622,-1.90192 L -11.389,-2.00192 L -12.389,-3.73396
 L -12.4622,-3.80717 L -12.5622,-3.83397 L -13.8158,-3.83397 L -13.5962,-3.96077 L -13.5229,-4.03398 L -12.5229,-5.76602
 L -12.4962,-5.86601 L -12.4962,-7.86601 L -12.5229,-7.966 L -13.5229,-9.69806 L -13.5962,-9.77127 L -15.3282,-10.7713
 L -15.4282,-10.7981 L -15.6818,-10.7981 L -14.5962,-11.4249 L -14.5229,-11.4981 L -14.4962,-11.5981 L -14.4962,-13.5981
 L -14.5229,-13.6981 L -14.9962,-14.5177 L -14.9962,-15.4641 L -15.0229,-15.5641 L -16.0229,-17.2961 L -16.0962,-17.3694
 L -16.1962,-17.3961 L -18.1962,-17.3961 L -18.2961,-17.3694 L -19.1158,-16.8961 L -21.0086,-16.8961 L -22.6478,-17.8426
 L -23.121,-18.6622 L -23.1942,-18.7354 L -24.9263,-19.7354 L -25.0263,-19.7622 L -25.1263,-19.7354 L -26.8583,-18.7354
 L -26.9315,-18.6622 L -27.4047,-17.8426 L -28.2243,-17.3694 L -28.2976,-17.2961 L -29.2975,-15.5641 L -29.3243,-15.4641
 L -29.2975,-15.3641 L -28.6707,-14.2784 L -28.8904,-14.4052 L -28.9904,-14.432 L -30.9904,-14.432 L -31.0904,-14.4052
 L -32.8224,-13.4052 L -32.8956,-13.332 L -33.8956,-11.6 L -33.9224,-11.5 L -33.9224,-9.49998 L -33.8956,-9.39999
 L -33.7688,-9.18037 L -34.8545,-9.80717 L -34.9545,-9.83397 L -35.0545,-9.80717 L -36.7865,-8.80717 L -36.8597,-8.73396
 L -37.3329,-7.91437 L -38.1525,-7.44115 L -38.2258,-7.36794 L -39.2258,-5.63588 L -39.2525,-5.53589 L -39.2258,-5.43588
 L -38.2258,-3.70384 L -38.1525,-3.63062 L -37.3329,-3.15742 L -36.3865,-1.5182 L -36.3865,0.374588 L -36.8597,1.19423
 L -36.8865,1.29422 L -36.8865,3.29422 L -36.8597,3.39421 L -36.7865,3.46744 L -35.0545,4.46742 L -34.9545,4.49422
 L -34.0081,4.49422 L -33.1884,4.96742 L -33.0885,4.99422 L -31.0885,4.99422 L -30.9885,4.96742 L -30.9152,4.89421
 L -30.2885,3.80856 L -30.2885,4.06216 L -30.2617,4.16216 L -29.2617,5.89421 L -29.1884,5.96742 L -27.4564,6.96742
 L -27.3564,6.99422 L -25.3564,6.99422 L -25.2564,6.96742 L -23.5244,5.96742 L -23.4511,5.89421 L -23.3243,5.67459
 L -23.3243,6.92819 L -23.2975,7.02818 L -23.2243,7.10141 L -21.4923,8.10139 L -21.3923,8.12819 L -20.4459,8.12819
 L -19.7145,8.55043 L -20.1368,9.28177 L -20.9564,9.75499 L -21.0296,9.8282 L -22.0296,11.5603 L -22.0564,11.6602
 L -22.0296,11.7603 L -21.4028,12.8459 L -21.6224,12.7191 L -21.7224,12.6923 L -23.7224,12.6923 L -23.8224,12.7191
 L -25.5545,13.7191 L -25.6277,13.7923 L -26.6277,15.5244 L -26.6545,15.6243 L -26.6545,17.6243 L -26.6277,17.7243
 L -26.5009,17.944 L -27.5865,17.3172 L -27.6865,17.2904 L -27.7865,17.3172 L -29.5186,18.3172 L -29.5918,18.3904
 L -30.065,19.21 L -30.8846,19.6832 L -30.9578,19.7564 L -31.9578,21.4885 L -31.9846,21.5885 L -31.9578,21.6884
 L -30.9578,23.4205 L -30.8846,23.4937 L -30.065,23.9669 L -29.1186,25.6061 L -29.1186,27.4989 L -29.5918,28.3186
 L -29.6186,28.4186 L -29.6186,30.4186 L -29.5918,30.5186 L -29.5186,30.5918 L -27.7865,31.5918 L -27.6865,31.6186
 L -26.7401,31.6186 L -26.0088,32.0408 L -26.431,32.7722 L -27.2506,33.2454 L -27.3239,33.3186 L -28.3238,35.0506
 L -28.3506,35.1506 L -28.3238,35.2506 L -27.3238,36.9827 L -27.2506,37.0559 L -26.431,37.5291 L -25.4846,39.1683
 L -25.4846,41.0611 L -25.9578,41.8808 L -25.9846,41.9808 L -25.9846,43.9808 L -25.9578,44.0807 L -25.8846,44.154
 L -24.1525,45.154 L -24.0526,45.1808 L -23.1062,45.1808 L -22.2865,45.654 L -22.1865,45.6808 L -20.1865,45.6808
 L -20.0865,45.654 L -20.0133,45.5807 L -19.3865,44.4951 L -19.3865,44.7487 L -19.3597,44.8487 L -18.3597,46.5807
 L -18.2865,46.654 L -16.5545,47.654 L -16.4545,47.6808 L -14.4545,47.6808 L -14.3545,47.654 L -12.6224,46.654
 L -12.5492,46.5807 L -12.4224,46.3611 L -12.4224,47.6147 L -12.3956,47.7147 L -12.3224,47.7879 L -10.5904,48.7879
 L -10.4904,48.8147 L -9.54398,48.8147 L -8.81262,49.237 L -9.23486,49.9683 L -10.0545,50.4415 L -10.1277,50.5147
 L -11.1277,52.2468 L -11.1545,52.3468 L -11.1277,52.4468 L -10.5009,53.5324 L -10.7205,53.4056 L -10.8205,53.3788
 L -12.8205,53.3788 L -12.9205,53.4056 L -14.6525,54.4056 L -14.7258,54.4788 L -15.7258,56.2109 L -15.7525,56.3109
 L -15.7525,58.3109 L -15.7258,58.4109 L -15.599,58.6305 L -16.6846,58.0037 L -16.7846,57.9769 L -16.8846,58.0037
 L -18.6166,59.0037 L -18.6899,59.0769 L -19.163,59.8965 L -19.9827,60.3697 L -20.0559,60.4429 L -21.0559,62.175
 L -21.0827,62.275 L -21.0559,62.375 L -20.0559,64.107 L -19.9827,64.1803 L -19.1631,64.6534 L -18.2166,66.2927
 L -18.2166,68.1855 L -18.6898,69.0051 L -18.7166,69.1051 L -18.7166,71.1051 L -18.6898,71.2051 L -18.6167,71.2783
 L -16.8846,72.2783 L -16.7846,72.3051 L -15.8382,72.3051 L -15.0186,72.7783 L -14.9186,72.8051 L -12.9186,72.8051
 L -12.8186,72.7783 L -12.7454,72.7051 L -12.1186,71.6195 L -12.1186,71.8731 L -12.0918,71.9731 L -11.0918,73.7051
 L -11.0186,73.7783 L -9.28651,74.7783 L -9.18652,74.8051 L -7.18652,74.8051 L -7.08653,74.7783 L -5.35448,73.7783
 L -5.28127,73.7051 L -5.15446,73.4855 L -5.15446,74.7391 L -5.12767,74.8391 L -5.05447,74.9123 L -3.32242,75.9123
 L -3.22243,75.9391 L -2.27603,75.9391 L -1.45639,76.4123 L -1.3564,76.4391 L 0.643585,76.4391 z
M -33.0349,4.59422 L -33.8545,4.12102 L -33.9545,4.09422 L -34.9009,4.09422 L -36.4865,3.17874 L -36.4865,1.34781
 L -36.0133,0.528183 L -35.9865,0.428192 L -35.9865,-1.57179 L -36.0133,-1.67178 L -37.0133,-3.40382 L -37.0865,-3.47704
 L -37.9062,-3.95026 L -38.8216,-5.5359 L -37.9061,-7.12155 L -37.0865,-7.59474 L -37.0133,-7.66795 L -36.5401,-8.48758
 L -34.9545,-9.40303 L -33.3688,-8.48756 L -32.8956,-7.66795 L -32.8224,-7.59474 L -31.0904,-6.59474 L -30.9904,-6.56795
 L -28.9904,-6.56795 L -28.8904,-6.59474 L -27.1583,-7.59474 L -27.0851,-7.66795 L -26.0851,-9.39999 L -26.0583,-9.49998
 L -26.0583,-11.5 L -26.0851,-11.6 L -27.0851,-13.332 L -27.1583,-13.4052 L -27.9779,-13.8784 L -28.8934,-15.4641
 L -27.9779,-17.0498 L -27.1583,-17.5229 L -27.0851,-17.5962 L -26.6119,-18.4158 L -25.0263,-19.3312 L -23.4406,-18.4157
 L -22.9674,-17.5962 L -22.8942,-17.5229 L -21.1622,-16.5229 L -21.0622,-16.4962 L -19.0622,-16.4962 L -18.9622,-16.5229
 L -18.1425,-16.9962 L -16.3116,-16.9962 L -15.3961,-15.4105 L -15.3961,-14.4641 L -15.3694,-14.3641 L -14.8961,-13.5445
 L -14.8961,-11.7135 L -16.4818,-10.7981 L -17.4282,-10.7981 L -17.5282,-10.7713 L -19.2602,-9.77127 L -19.3335,-9.69806
 L -20.3335,-7.966 L -20.3602,-7.86601 L -20.3602,-5.86601 L -20.3335,-5.76602 L -20.2066,-5.54639 L -21.2923,-6.17319
 L -21.3923,-6.19998 L -21.4923,-6.17319 L -23.2243,-5.17319 L -23.2976,-5.09999 L -23.7707,-4.2804 L -24.5904,-3.80717
 L -24.6636,-3.73396 L -25.6636,-2.00191 L -25.6904,-1.90192 L -25.6636,-1.80191 L -25.0368,-0.716263 L -25.2564,-0.843063
 L -25.3564,-0.869858 L -27.3564,-0.869858 L -27.4564,-0.843063 L -29.1884,0.156921 L -29.2617,0.230133 L -30.2617,1.96217
 L -30.2885,2.06216 L -30.2885,3.00858 L -31.2039,4.59422 z
M -30.9368,-6.96794 L -32.576,-7.91434 L -33.5224,-9.55357 L -33.5224,-11.4464 L -32.576,-13.0856 L -30.9368,-14.032
 L -29.044,-14.032 L -27.4047,-13.0856 L -26.4583,-11.4464 L -26.4583,-9.5536 L -27.4047,-7.91437 L -29.044,-6.96794
 z
M -17.3746,-3.33397 L -19.0138,-4.28038 L -19.9603,-5.9196 L -19.9603,-7.81241 L -19.0139,-9.45164 L -17.3746,-10.3981
 L -15.4818,-10.3981 L -13.8426,-9.45168 L -12.8961,-7.81242 L -12.8961,-5.91962 L -13.8426,-4.28038 L -15.4818,-3.33397
 z
M -19.4727,8.2282 L -20.2923,7.75499 L -20.3923,7.7282 L -21.3387,7.7282 L -22.9243,6.81271 L -22.9243,4.98178
 L -22.4511,4.16216 L -22.4243,4.06216 L -22.4243,2.06216 L -22.4511,1.96217 L -23.4511,0.230133 L -23.5244,0.156921
 L -24.344,-0.316284 L -25.2594,-1.90193 L -24.3439,-3.48758 L -23.5244,-3.96077 L -23.4511,-4.03398 L -22.9779,-4.85358
 L -21.3923,-5.76904 L -19.8066,-4.85356 L -19.3335,-4.03398 L -19.2602,-3.96077 L -17.5282,-2.96077 L -17.4282,-2.93398
 L -15.4282,-2.93398 L -15.3282,-2.96077 L -14.5086,-3.43398 L -12.6776,-3.43398 L -11.7622,-1.84831 L -11.7622,-0.901917
 L -11.7354,-0.801926 L -11.2622,0.0177002 L -11.2622,1.84863 L -12.8478,2.7641 L -13.7942,2.7641 L -13.8942,2.79089
 L -15.6263,3.79089 L -15.6995,3.86411 L -16.6995,5.59616 L -16.7263,5.69615 L -16.7263,6.64256 L -17.2825,7.60594
 L -17.6583,7.38896 L -17.7583,7.36217 L -17.8583,7.38896 L -19.3119,8.2282 z
M -27.3028,6.59422 L -28.942,5.64783 L -29.8885,4.00858 L -29.8885,2.11578 L -28.9421,0.476547 L -27.3028,-0.469864
 L -25.41,-0.469864 L -23.7708,0.476517 L -22.8243,2.11575 L -22.8243,4.00856 L -23.7707,5.6478 L -25.41,6.59422
 z
M -13.7406,10.2282 L -15.3799,9.2818 L -16.3263,7.64256 L -16.3263,5.74976 L -15.3799,4.11052 L -13.7406,3.16409
 L -11.8478,3.16409 L -10.2086,4.11049 L -9.26216,5.74974 L -9.26216,7.64253 L -9.73537,8.46217 L -9.76216,8.56216
 L -9.76216,9.7282 L -10.9282,9.7282 L -11.0282,9.75499 L -11.8478,10.2282 z
M -16.9361,7.80595 L -16.7263,7.44255 L -16.7263,7.69615 L -16.6995,7.79614 L -16.5727,8.01575 z
M -18.5119,8.2282 L -17.7583,7.79311 L -17.4825,7.95235 L -17.6418,8.2282 z
M -15.8387,21.7904 L -16.6583,21.3172 L -16.7583,21.2904 L -17.7047,21.2904 L -19.2904,20.3749 L -19.2904,18.544
 L -18.8172,17.7243 L -18.7904,17.6243 L -18.7904,15.6243 L -18.8172,15.5244 L -19.8172,13.7923 L -19.8904,13.7191
 L -20.71,13.2459 L -21.6255,11.6602 L -20.71,10.0746 L -19.8904,9.60139 L -19.8172,9.52818 L -19.3439,8.70856
 L -19.2047,8.62819 L -17.5263,8.62819 L -17.4263,8.60139 L -17.3531,8.52818 L -17.1361,8.15236 L -16.1727,8.70859
 L -15.6995,9.52818 L -15.6263,9.60139 L -13.8942,10.6014 L -13.7942,10.6282 L -11.7942,10.6282 L -11.6942,10.6014
 L -10.8746,10.1282 L -9.76216,10.1282 L -9.76216,10.5622 L -9.73537,10.6622 L -9.66217,10.7354 L -8.20859,11.5746
 L -8.12819,11.7139 L -8.12819,12.6602 L -8.10139,12.7602 L -7.62819,13.5799 L -7.62819,13.7406 L -8.46742,15.1942
 L -8.49422,15.2942 L -8.46742,15.3942 L -8.25043,15.7701 L -9.21385,16.3263 L -10.1602,16.3263 L -10.2602,16.3531
 L -11.9923,17.3531 L -12.0655,17.4263 L -13.0655,19.1583 L -13.0923,19.2583 L -13.0923,20.2047 L -13.6485,21.1681
 L -14.0244,20.9511 L -14.1243,20.9243 L -14.2243,20.9511 L -15.6779,21.7904 z
M -9.36217,10.4467 L -9.36217,10.1282 L -9.04366,10.1282 L -8.60857,10.8818 z
M -4.94971,11.8622 L -4.19614,11.4271 L -3.92032,11.5863 L -4.07956,11.8622 z
M -7.7282,12.6067 L -7.7282,11.7622 L -6.88373,11.7622 L -6.15236,12.1844 L -6.57458,12.9157 L -7.30595,13.338
 z
M 1.35742,38.9865 L 0.537811,38.5133 L 0.43782,38.4865 L -0.508575,38.4865 L -0.647827,38.4061 L -1.48705,36.9526
 L -1.56026,36.8793 L -1.66025,36.8526 L -2.09422,36.8526 L -2.09422,35.7401 L -1.62102,34.9205 L -1.59422,34.8205
 L -1.59422,32.8205 L -1.62102,32.7205 L -2.62102,30.9885 L -2.69423,30.9153 L -4.42628,29.9153 L -4.52628,29.8885
 L -4.77988,29.8885 L -3.69423,29.2617 L -3.62102,29.1884 L -3.59422,29.0885 L -3.59422,27.0885 L -3.62102,26.9884
 L -4.09422,26.1688 L -4.09422,25.2224 L -4.12102,25.1224 L -5.12102,23.3904 L -5.19423,23.3172 L -5.29422,23.2904
 L -6.54782,23.2904 L -6.3282,23.1636 L -6.25499,23.0904 L -5.25499,21.3583 L -5.2282,21.2583 L -5.2282,19.2583
 L -5.25499,19.1583 L -6.25499,17.4263 L -6.3282,17.3531 L -7.14783,16.8799 L -7.70403,15.9165 L -7.3282,15.6995
 L -7.25499,15.6263 L -7.2282,15.5263 L -7.2282,13.8478 L -7.1478,13.7086 L -6.3282,13.2354 L -6.25499,13.1622
 L -5.78178,12.3426 L -5.64253,12.2622 L -3.9641,12.2622 L -3.86411,12.2354 L -3.79088,12.1622 L -3.5739,11.7863
 L -2.61049,12.3426 L -2.1373,13.1622 L -2.06409,13.2354 L -0.332031,14.2354 L -0.23204,14.2622 L 1.76794,14.2622
 L 1.86794,14.2354 L 2.68758,13.7622 L 4.51851,13.7622 L 5.43398,15.3478 L 5.43398,16.2942 L 5.46077,16.3942
 L 5.93398,17.2139 L 5.93398,19.0448 L 4.34831,19.9603 L 3.40192,19.9603 L 3.30193,19.987 L 1.56987,20.987
 L 1.49666,21.0603 L 0.496658,22.7923 L 0.469864,22.8923 L 0.469864,24.8923 L 0.496658,24.9923 L 1.49666,26.7243
 L 1.56987,26.7975 L 3.30193,27.7975 L 3.40192,27.8243 L 5.40192,27.8243 L 5.50191,27.7975 L 6.32153,27.3243
 L 8.15248,27.3243 L 9.06795,28.91 L 9.06795,29.8564 L 9.09474,29.9564 L 9.56795,30.776 L 9.56795,32.607
 L 7.98228,33.5224 L 7.03589,33.5224 L 6.9359,33.5492 L 5.20384,34.5492 L 5.13063,34.6224 L 4.13063,36.3545
 L 4.10384,36.4545 L 4.10384,37.4009 L 3.54761,38.3643 L 3.17178,38.1473 L 3.07179,38.1205 L 2.97179,38.1473
 L 1.5182,38.9865 z
M -23.6688,20.1564 L -25.308,19.21 L -26.2545,17.5708 L -26.2545,15.6779 L -25.3081,14.0387 L -23.6688,13.0923
 L -21.776,13.0923 L -20.1368,14.0387 L -19.1904,15.6779 L -19.1904,17.5707 L -20.1368,19.21 L -21.776,20.1564
 z
M -8.06328,15.2942 L -7.62819,14.5406 L -7.62819,15.4108 L -7.90402,15.5701 z
M -8.06026,16.3531 L -8.16025,16.3263 L -8.41383,16.3263 L -8.05043,16.1165 L -7.84061,16.4799 z
M -10.1066,23.7904 L -11.7459,22.844 L -12.6923,21.2047 L -12.6923,19.3119 L -11.7459,17.6727 L -10.1067,16.7263
 L -8.21385,16.7263 L -6.57462,17.6727 L -5.62819,19.3119 L -5.62819,21.2047 L -6.57458,22.8439 L -8.21384,23.7904
 z
M -25.7669,31.7186 L -26.5865,31.2454 L -26.6865,31.2186 L -27.6329,31.2186 L -29.2186,30.3031 L -29.2186,28.4722
 L -28.7454,27.6525 L -28.7186,27.5526 L -28.7186,25.5526 L -28.7454,25.4526 L -29.7454,23.7205 L -29.8186,23.6473
 L -30.6382,23.1741 L -31.5537,21.5884 L -30.6382,20.0028 L -29.8186,19.5296 L -29.7454,19.4564 L -29.2722,18.6368
 L -27.6865,17.7213 L -26.1009,18.6368 L -25.6277,19.4564 L -25.5545,19.5296 L -23.8224,20.5296 L -23.7224,20.5564
 L -21.7224,20.5564 L -21.6224,20.5296 L -19.8904,19.5296 L -19.8172,19.4564 L -19.6904,19.2368 L -19.6904,20.4904
 L -19.6636,20.5904 L -19.5904,20.6636 L -17.8583,21.6636 L -17.7583,21.6904 L -16.8119,21.6904 L -16.0806,22.1126
 L -16.5028,22.8439 L -17.3224,23.3172 L -17.3956,23.3904 L -18.3956,25.1224 L -18.4224,25.2224 L -18.3956,25.3224
 L -17.7688,26.4081 L -17.9885,26.2813 L -18.0885,26.2545 L -20.0885,26.2545 L -20.1884,26.2813 L -21.9205,27.2813
 L -21.9937,27.3545 L -22.9937,29.0865 L -23.0205,29.1865 L -23.0205,30.1329 L -23.5767,31.0963 L -23.9526,30.8793
 L -24.0526,30.8526 L -24.1526,30.8793 L -25.6061,31.7186 z
M 3.45552,27.4243 L 1.81628,26.478 L 0.869858,24.8387 L 0.869858,22.9459 L 1.81625,21.3067 L 3.45551,20.3602
 L 5.34831,20.3602 L 6.98755,21.3066 L 7.93398,22.9459 L 7.93398,24.8387 L 6.98758,26.4779 L 5.34833,27.4243
 z
M -13.3021,21.3681 L -13.0923,21.0047 L -13.0923,21.2583 L -13.0655,21.3583 L -12.9387,21.5779 z
M -14.8779,21.7904 L -14.1243,21.3553 L -13.8485,21.5145 L -14.0078,21.7904 z
M -12.2047,35.3526 L -13.0244,34.8793 L -13.1243,34.8526 L -14.0708,34.8526 L -15.6564,33.9371 L -15.6564,32.1061
 L -15.1832,31.2865 L -15.1564,31.1865 L -15.1564,29.1865 L -15.1832,29.0865 L -16.1832,27.3545 L -16.2564,27.2813
 L -17.076,26.808 L -17.9915,25.2224 L -17.076,23.6368 L -16.2564,23.1636 L -16.1832,23.0904 L -15.71,22.2707
 L -15.5708,22.1904 L -13.8923,22.1904 L -13.7923,22.1636 L -13.7191,22.0904 L -13.5021,21.7145 L -12.5387,22.2708
 L -12.0655,23.0904 L -11.9923,23.1636 L -10.2602,24.1636 L -10.1602,24.1904 L -8.16025,24.1904 L -8.06026,24.1636
 L -7.24062,23.6904 L -5.40968,23.6904 L -4.49422,25.276 L -4.49422,26.2224 L -4.46742,26.3224 L -3.99422,27.1421
 L -3.99422,28.973 L -5.57988,29.8885 L -6.52628,29.8885 L -6.62627,29.9153 L -8.35831,30.9153 L -8.43152,30.9885
 L -9.43152,32.7205 L -9.45831,32.8205 L -9.45831,33.7669 L -10.0145,34.7303 L -10.3904,34.5133 L -10.4904,34.4865
 L -10.5904,34.5133 L -12.044,35.3526 z
M -20.0348,33.7186 L -21.6741,32.7722 L -22.6205,31.1329 L -22.6205,29.2401 L -21.6741,27.6009 L -20.0349,26.6545
 L -18.1421,26.6545 L -16.5028,27.6009 L -15.5564,29.2401 L -15.5564,31.1329 L -16.5028,32.7722 L -18.142,33.7186
 z
M -6.47267,37.3526 L -8.11189,36.4062 L -9.05832,34.7669 L -9.05832,32.8741 L -8.11191,31.2349 L -6.47269,30.2885
 L -4.57988,30.2885 L -2.94063,31.2349 L -1.99422,32.8741 L -1.99422,34.7669 L -2.94061,36.4061 L -4.57986,37.3526
 z
M -23.2303,31.2963 L -23.0205,30.9329 L -23.0205,31.1865 L -22.9937,31.2865 L -22.8669,31.5061 z
M -24.8062,31.7186 L -24.0525,31.2835 L -23.7767,31.4427 L -23.936,31.7186 z
M -22.1329,45.2808 L -22.9526,44.8076 L -23.0526,44.7808 L -23.999,44.7808 L -25.5846,43.8653 L -25.5846,42.0343
 L -25.1114,41.2147 L -25.0846,41.1147 L -25.0846,39.1147 L -25.1114,39.0147 L -26.1114,37.2827 L -26.1846,37.2095
 L -27.0042,36.7363 L -27.9197,35.1506 L -27.0042,33.565 L -26.1846,33.0918 L -26.1114,33.0186 L -25.6382,32.1989
 L -25.499,32.1186 L -23.8205,32.1186 L -23.7205,32.0918 L -23.6473,32.0186 L -23.4303,31.6427 L -22.4669,32.199
 L -21.9937,33.0186 L -21.9205,33.0918 L -20.1884,34.0918 L -20.0885,34.1186 L -18.0885,34.1186 L -17.9885,34.0918
 L -16.2564,33.0918 L -16.1832,33.0186 L -16.0564,32.799 L -16.0564,34.0526 L -16.0296,34.1525 L -15.9564,34.2258
 L -14.2243,35.2258 L -14.1243,35.2525 L -13.1779,35.2525 L -12.4466,35.6748 L -12.8688,36.4061 L -13.6884,36.8793
 L -13.7617,36.9526 L -14.7617,38.6846 L -14.7885,38.7846 L -14.7617,38.8846 L -14.1349,39.9702 L -14.3545,39.8434
 L -14.4545,39.8167 L -16.4545,39.8167 L -16.5545,39.8434 L -18.2865,40.8434 L -18.3597,40.9167 L -19.3597,42.6487
 L -19.3865,42.7487 L -19.3865,43.6951 L -20.302,45.2808 z
M -9.66812,34.9303 L -9.45831,34.5669 L -9.45831,34.8205 L -9.43152,34.9205 L -9.30472,35.1401 z
M -11.244,35.3526 L -10.4904,34.9175 L -10.2145,35.0767 L -10.3738,35.3526 z
M -8.57076,48.9147 L -9.39038,48.4415 L -9.49037,48.4147 L -10.4368,48.4147 L -12.0224,47.4993 L -12.0224,45.6683
 L -11.5492,44.8487 L -11.5224,44.7487 L -11.5224,42.7487 L -11.5492,42.6487 L -12.5492,40.9167 L -12.6224,40.8434
 L -13.442,40.3702 L -14.3575,38.7846 L -13.442,37.1989 L -12.6224,36.7258 L -12.5492,36.6525 L -12.076,35.8329
 L -11.9368,35.7525 L -10.2583,35.7525 L -10.1583,35.7258 L -10.0851,35.6525 L -9.86812,35.2767 L -8.90471,35.8329
 L -8.43152,36.6525 L -8.35831,36.7258 L -6.62627,37.7258 L -6.52628,37.7525 L -4.52628,37.7525 L -4.42628,37.7258
 L -3.60664,37.2525 L -2.49422,37.2525 L -2.49422,37.6865 L -2.46742,37.7865 L -2.39421,37.8597 L -0.940659,38.6989
 L -0.860245,38.8382 L -0.860245,39.7846 L -0.83345,39.8846 L -0.360245,40.7042 L -0.360245,40.865 L -1.19948,42.3186
 L -1.22627,42.4186 L -1.19948,42.5186 L -0.982483,42.8944 L -1.94591,43.4506 L -2.8923,43.4506 L -2.99229,43.4774
 L -4.72433,44.4774 L -4.79755,44.5506 L -5.79755,46.2827 L -5.82434,46.3827 L -5.82434,47.3291 L -6.38057,48.2925
 L -6.75641,48.0755 L -6.8564,48.0487 L -6.95641,48.0755 L -8.40999,48.9147 z
M -2.91385,36.8526 L -2.69423,36.7258 L -2.62102,36.6525 L -2.49422,36.4329 L -2.49422,36.8526 z
M -2.09422,37.571 L -2.09422,37.2525 L -1.77571,37.2525 L -1.34064,38.0061 z
M 2.31819,38.9865 L 3.07181,38.5514 L 3.34761,38.7107 L 3.18835,38.9865 z
M -0.460251,39.731 L -0.460251,38.8865 L 0.384201,38.8865 L 1.11557,39.3088 L 0.693344,40.0401 L -0.0380249,40.4624
 z
M -16.4009,47.2808 L -18.0401,46.3344 L -18.9865,44.6951 L -18.9865,42.8023 L -18.0401,41.1631 L -16.4009,40.2166
 L -14.5081,40.2166 L -12.8689,41.163 L -11.9224,42.8023 L -11.9224,44.6951 L -12.8688,46.3343 L -14.5081,47.2808
 z
M -0.795334,42.4186 L -0.360245,41.665 L -0.360245,42.5352 L -0.636078,42.6944 z
M -2.83868,50.9147 L -4.47792,49.9683 L -5.42435,48.3291 L -5.42435,46.4363 L -4.47795,44.7971 L -2.83871,43.8506
 L -1.8923,43.8506 L -1.7923,43.8238 L -0.782486,43.2408 L -0.199478,44.2506 L -0.126266,44.3239 L 0.693329,44.797
 L 1.63974,46.4363 L 1.63974,48.3291 L 0.693344,49.9683 L -0.945892,50.9147 z
M -6.03415,48.4925 L -5.82434,48.1291 L -5.82434,48.3827 L -5.79755,48.4827 L -5.67075,48.7023 z
M -7.61,48.9147 L -6.85638,48.4796 L -6.58057,48.6389 L -6.73982,48.9147 z
M -4.93678,62.4769 L -5.75641,62.0037 L -5.8564,61.9769 L -6.80281,61.9769 L -8.38846,61.0614 L -8.38846,59.2305
 L -7.91525,58.4109 L -7.88846,58.3109 L -7.88846,56.3109 L -7.91525,56.2109 L -8.91525,54.4788 L -8.98846,54.4056
 L -9.80806,53.9324 L -10.7235,52.3468 L -9.80804,50.7611 L -8.98846,50.2879 L -8.91525,50.2147 L -8.44203,49.3951
 L -8.30283,49.3147 L -6.62434,49.3147 L -6.52435,49.2879 L -6.45113,49.2147 L -6.23415,48.8389 L -5.27074,49.3951
 L -4.79755,50.2147 L -4.72433,50.2879 L -2.99229,51.2879 L -2.8923,51.3147 L -0.892303,51.3147 L -0.792313,51.2879
 L 0.0273132,50.8147 L 1.85825,50.8147 L 2.77371,52.4004 L 2.77371,53.3468 L 2.80051,53.4468 L 3.27371,54.2664
 L 3.27371,56.0973 L 1.68805,57.0128 L 0.741669,57.0128 L 0.641678,57.0396 L -1.09036,58.0396 L -1.16357,58.1128
 L -2.16357,59.8449 L -2.19037,59.9449 L -2.19037,60.8913 L -3.10585,62.4769 z
M -12.7669,60.8429 L -14.4061,59.8965 L -15.3526,58.2573 L -15.3526,56.3645 L -14.4062,54.7253 L -12.7669,53.7788
 L -10.8741,53.7788 L -9.23488,54.7252 L -8.28845,56.3645 L -8.28845,58.2573 L -9.23486,59.8965 L -10.8741,60.8429
 z
M 0.795273,64.4769 L -0.843948,63.5305 L -1.79037,61.8913 L -1.79037,59.9985 L -0.843979,58.3592 L 0.795258,57.4128
 L 2.68805,57.4128 L 4.32729,58.3592 L 5.27371,59.9984 L 5.27371,61.8913 L 4.32732,63.5305 L 2.68808,64.4769
 z
M -1.30281,76.0391 L -2.12244,75.5659 L -2.22243,75.5391 L -3.16884,75.5391 L -4.75447,74.6236 L -4.75447,72.7927
 L -4.28127,71.9731 L -4.25447,71.8731 L -4.25447,69.8731 L -4.28127,69.7731 L -5.28127,68.041 L -5.35448,67.9678
 L -7.08653,66.9678 L -7.18652,66.941 L -9.18652,66.941 L -9.28651,66.9678 L -11.0186,67.9678 L -11.0918,68.041
 L -12.0918,69.7731 L -12.1186,69.8731 L -12.1186,70.8195 L -13.034,72.4051 L -14.865,72.4051 L -15.6846,71.9319
 L -15.7846,71.9051 L -16.731,71.9051 L -18.3167,70.9896 L -18.3167,69.1587 L -17.8434,68.3391 L -17.8167,68.2391
 L -17.8167,66.2391 L -17.8434,66.1391 L -18.8434,64.407 L -18.9167,64.3338 L -19.7363,63.8606 L -20.6517,62.275
 L -19.7363,60.6893 L -18.9167,60.2161 L -18.8434,60.1429 L -18.3702,59.3233 L -16.7846,58.4079 L -15.1989,59.3233
 L -14.7258,60.1429 L -14.6525,60.2161 L -12.9205,61.2161 L -12.8205,61.2429 L -10.8205,61.2429 L -10.7205,61.2161
 L -8.98846,60.2161 L -8.91525,60.1429 L -8.78845,59.9233 L -8.78845,61.1769 L -8.76166,61.2769 L -8.68845,61.3501
 L -6.95639,62.3501 L -6.8564,62.3769 L -5.91,62.3769 L -5.09036,62.8501 L -4.99037,62.8769 L -2.99037,62.8769
 L -2.89038,62.8501 L -2.81715,62.7769 L -2.19037,61.6913 L -2.19037,61.9449 L -2.16357,62.0448 L -1.16357,63.7769
 L -1.09036,63.8501 L 0.641678,64.8501 L 0.741669,64.8769 L 2.74167,64.8769 L 2.84166,64.8501 L 3.6613,64.3769
 L 5.49222,64.3769 L 6.40768,65.9626 L 6.40768,66.909 L 6.43448,67.0089 L 6.90768,67.8286 L 6.90768,69.6595
 L 5.32204,70.575 L 4.37564,70.575 L 4.27565,70.6018 L 2.54359,71.6018 L 2.47038,71.675 L 1.47038,73.407
 L 1.44359,73.507 L 1.44359,74.4534 L 0.528107,76.0391 z
M -9.13292,74.4051 L -10.7722,73.4587 L -11.7186,71.8195 L -11.7186,69.9267 L -10.7722,68.2874 L -9.13293,67.341
 L -7.24013,67.341 L -5.60089,68.2874 L -4.65446,69.9267 L -4.65446,71.8195 L -5.60086,73.4587 L -7.24011,74.4051
 z
" stroke="black" fill="lightgray" stroke-width="0.5"/></svg>
