solid OpenSCAD_Model
  facet normal -1 0 0
    outer loop
      vertex -5 -2.5 -2.5
      vertex -5 2.5 2.5
      vertex -5 2.5 -2.5
    endloop
  endfacet
  facet normal -1 -0 0
    outer loop
      vertex -5 2.5 2.5
      vertex -5 -2.5 -2.5
      vertex -5 -2.5 2.5
    endloop
  endfacet
  facet normal -0 0 1
    outer loop
      vertex -5 2.5 2.5
      vertex 5 -2.5 2.5
      vertex 5 2.5 2.5
    endloop
  endfacet
  facet normal 0 0 1
    outer loop
      vertex 5 -2.5 2.5
      vertex -5 2.5 2.5
      vertex -5 -2.5 2.5
    endloop
  endfacet
  facet normal 1 -0 0
    outer loop
      vertex 5 -2.5 2.5
      vertex 5 2.5 -2.5
      vertex 5 2.5 2.5
    endloop
  endfacet
  facet normal 1 0 0
    outer loop
      vertex 5 2.5 -2.5
      vertex 5 -2.5 2.5
      vertex 5 -2.5 -2.5
    endloop
  endfacet
  facet normal 0 1 0
    outer loop
      vertex 5 2.5 2.5
      vertex 0 2.5 0.999999
      vertex -5 2.5 2.5
    endloop
  endfacet
  facet normal 0 1 0
    outer loop
      vertex 5 2.5 2.5
      vertex 0.155406 2.5 0.995116
      vertex 0 2.5 0.999999
    endloop
  endfacet
  facet normal 0 1 0
    outer loop
      vertex 5 2.5 2.5
      vertex 0.207209 2.5 0.993487
      vertex 0.155406 2.5 0.995116
    endloop
  endfacet
  facet normal 0 1 0
    outer loop
      vertex 5 2.5 2.5
      vertex 0.413599 2.5 0.973978
      vertex 0.207209 2.5 0.993487
    endloop
  endfacet
  facet normal 0 1 0
    outer loop
      vertex 5 2.5 2.5
      vertex 0.618358 2.5 0.941547
      vertex 0.413599 2.5 0.973978
    endloop
  endfacet
  facet normal 0 1 0
    outer loop
      vertex 5 2.5 2.5
      vertex 0.820676 2.5 0.896324
      vertex 0.618358 2.5 0.941547
    endloop
  endfacet
  facet normal 0 1 0
    outer loop
      vertex 5 2.5 2.5
      vertex 1.01976 2.5 0.838486
      vertex 0.820676 2.5 0.896324
    endloop
  endfacet
  facet normal 0 1 0
    outer loop
      vertex 5 2.5 2.5
      vertex 1.21481 2.5 0.768262
      vertex 1.01976 2.5 0.838486
    endloop
  endfacet
  facet normal 0 1 0
    outer loop
      vertex 5 2.5 2.5
      vertex 1.40507 2.5 0.685928
      vertex 1.21481 2.5 0.768262
    endloop
  endfacet
  facet normal 0 1 0
    outer loop
      vertex 5 2.5 2.5
      vertex 1.58979 2.5 0.591811
      vertex 1.40507 2.5 0.685928
    endloop
  endfacet
  facet normal 0 1 0
    outer loop
      vertex 5 2.5 2.5
      vertex 1.76823 2.5 0.486281
      vertex 1.58979 2.5 0.591811
    endloop
  endfacet
  facet normal 0 1 0
    outer loop
      vertex 5 2.5 2.5
      vertex 1.93969 2.5 0.369756
      vertex 1.76823 2.5 0.486281
    endloop
  endfacet
  facet normal 0 1 0
    outer loop
      vertex 5 2.5 2.5
      vertex 2.1035 2.5 0.242693
      vertex 1.93969 2.5 0.369756
    endloop
  endfacet
  facet normal 0 1 0
    outer loop
      vertex 5 2.5 2.5
      vertex 2.259 2.5 0.105596
      vertex 2.1035 2.5 0.242693
    endloop
  endfacet
  facet normal 0 1 0
    outer loop
      vertex 5 2.5 2.5
      vertex 2.4056 2.5 -0.0409937
      vertex 2.259 2.5 0.105596
    endloop
  endfacet
  facet normal 0 1 0
    outer loop
      vertex 5 2.5 2.5
      vertex 2.54269 2.5 -0.196501
      vertex 2.4056 2.5 -0.0409937
    endloop
  endfacet
  facet normal 0 1 0
    outer loop
      vertex 5 2.5 2.5
      vertex 2.66976 2.5 -0.360309
      vertex 2.54269 2.5 -0.196501
    endloop
  endfacet
  facet normal 0 1 0
    outer loop
      vertex 5 2.5 2.5
      vertex 2.78628 2.5 -0.531771
      vertex 2.66976 2.5 -0.360309
    endloop
  endfacet
  facet normal 0 1 0
    outer loop
      vertex 5 2.5 2.5
      vertex 2.89181 2.5 -0.710213
      vertex 2.78628 2.5 -0.531771
    endloop
  endfacet
  facet normal 0 1 0
    outer loop
      vertex 5 2.5 2.5
      vertex 2.98593 2.5 -0.894928
      vertex 2.89181 2.5 -0.710213
    endloop
  endfacet
  facet normal 0 1 0
    outer loop
      vertex 5 2.5 2.5
      vertex 3.06826 2.5 -1.08519
      vertex 2.98593 2.5 -0.894928
    endloop
  endfacet
  facet normal 0 1 -0
    outer loop
      vertex 5 2.5 -2.5
      vertex 3.06826 2.5 -1.08519
      vertex 5 2.5 2.5
    endloop
  endfacet
  facet normal 0 1 0
    outer loop
      vertex 3.06826 2.5 -1.08519
      vertex 5 2.5 -2.5
      vertex 3.13849 2.5 -1.28024
    endloop
  endfacet
  facet normal 0 1 0
    outer loop
      vertex 3.13849 2.5 -1.28024
      vertex 5 2.5 -2.5
      vertex 3.19632 2.5 -1.47932
    endloop
  endfacet
  facet normal 0 1 0
    outer loop
      vertex 3.19632 2.5 -1.47932
      vertex 5 2.5 -2.5
      vertex 3.24155 2.5 -1.68164
    endloop
  endfacet
  facet normal 0 1 0
    outer loop
      vertex 3.24155 2.5 -1.68164
      vertex 5 2.5 -2.5
      vertex 3.27398 2.5 -1.8864
    endloop
  endfacet
  facet normal 0 1 0
    outer loop
      vertex 3.27398 2.5 -1.8864
      vertex 5 2.5 -2.5
      vertex 3.29349 2.5 -2.09279
    endloop
  endfacet
  facet normal 0 1 0
    outer loop
      vertex 3.29349 2.5 -2.09279
      vertex 5 2.5 -2.5
      vertex 3.3 2.5 -2.3
    endloop
  endfacet
  facet normal 0 1 0
    outer loop
      vertex 3.3 2.5 -2.3
      vertex 5 2.5 -2.5
      vertex 3.29371 2.5 -2.5
    endloop
  endfacet
  facet normal 0 1 -0
    outer loop
      vertex -0.155406 2.5 0.995116
      vertex -5 2.5 2.5
      vertex 0 2.5 0.999999
    endloop
  endfacet
  facet normal 0 1 -0
    outer loop
      vertex -0.207209 2.5 0.993487
      vertex -5 2.5 2.5
      vertex -0.155406 2.5 0.995116
    endloop
  endfacet
  facet normal 0 1 -0
    outer loop
      vertex -0.413599 2.5 0.973978
      vertex -5 2.5 2.5
      vertex -0.207209 2.5 0.993487
    endloop
  endfacet
  facet normal 0 1 -0
    outer loop
      vertex -0.618358 2.5 0.941547
      vertex -5 2.5 2.5
      vertex -0.413599 2.5 0.973978
    endloop
  endfacet
  facet normal 0 1 -0
    outer loop
      vertex -0.820676 2.5 0.896324
      vertex -5 2.5 2.5
      vertex -0.618358 2.5 0.941547
    endloop
  endfacet
  facet normal 0 1 -0
    outer loop
      vertex -1.01976 2.5 0.838486
      vertex -5 2.5 2.5
      vertex -0.820676 2.5 0.896324
    endloop
  endfacet
  facet normal 0 1 -0
    outer loop
      vertex -1.21481 2.5 0.768262
      vertex -5 2.5 2.5
      vertex -1.01976 2.5 0.838486
    endloop
  endfacet
  facet normal 0 1 -0
    outer loop
      vertex -1.40507 2.5 0.685928
      vertex -5 2.5 2.5
      vertex -1.21481 2.5 0.768262
    endloop
  endfacet
  facet normal 0 1 -0
    outer loop
      vertex -1.58979 2.5 0.591811
      vertex -5 2.5 2.5
      vertex -1.40507 2.5 0.685928
    endloop
  endfacet
  facet normal 0 1 -0
    outer loop
      vertex -1.76823 2.5 0.486281
      vertex -5 2.5 2.5
      vertex -1.58979 2.5 0.591811
    endloop
  endfacet
  facet normal 0 1 -0
    outer loop
      vertex -1.93969 2.5 0.369756
      vertex -5 2.5 2.5
      vertex -1.76823 2.5 0.486281
    endloop
  endfacet
  facet normal 0 1 -0
    outer loop
      vertex -2.1035 2.5 0.242693
      vertex -5 2.5 2.5
      vertex -1.93969 2.5 0.369756
    endloop
  endfacet
  facet normal 0 1 -0
    outer loop
      vertex -2.259 2.5 0.105596
      vertex -5 2.5 2.5
      vertex -2.1035 2.5 0.242693
    endloop
  endfacet
  facet normal 0 1 -0
    outer loop
      vertex -2.4056 2.5 -0.0409937
      vertex -5 2.5 2.5
      vertex -2.259 2.5 0.105596
    endloop
  endfacet
  facet normal 0 1 -0
    outer loop
      vertex -2.54269 2.5 -0.196501
      vertex -5 2.5 2.5
      vertex -2.4056 2.5 -0.0409937
    endloop
  endfacet
  facet normal 0 1 -0
    outer loop
      vertex -2.66976 2.5 -0.360309
      vertex -5 2.5 2.5
      vertex -2.54269 2.5 -0.196501
    endloop
  endfacet
  facet normal 0 1 -0
    outer loop
      vertex -2.78628 2.5 -0.531771
      vertex -5 2.5 2.5
      vertex -2.66976 2.5 -0.360309
    endloop
  endfacet
  facet normal 0 1 -0
    outer loop
      vertex -2.89181 2.5 -0.710213
      vertex -5 2.5 2.5
      vertex -2.78628 2.5 -0.531771
    endloop
  endfacet
  facet normal 0 1 -0
    outer loop
      vertex -2.98593 2.5 -0.894928
      vertex -5 2.5 2.5
      vertex -2.89181 2.5 -0.710213
    endloop
  endfacet
  facet normal 0 1 -0
    outer loop
      vertex -3.06826 2.5 -1.08519
      vertex -5 2.5 2.5
      vertex -2.98593 2.5 -0.894928
    endloop
  endfacet
  facet normal 0 1 0
    outer loop
      vertex -5 2.5 -2.5
      vertex -3.06826 2.5 -1.08519
      vertex -3.13849 2.5 -1.28024
    endloop
  endfacet
  facet normal 0 1 0
    outer loop
      vertex -5 2.5 -2.5
      vertex -3.13849 2.5 -1.28024
      vertex -3.19632 2.5 -1.47932
    endloop
  endfacet
  facet normal 0 1 0
    outer loop
      vertex -5 2.5 -2.5
      vertex -3.19632 2.5 -1.47932
      vertex -3.24155 2.5 -1.68164
    endloop
  endfacet
  facet normal 0 1 0
    outer loop
      vertex -5 2.5 -2.5
      vertex -3.24155 2.5 -1.68164
      vertex -3.27398 2.5 -1.8864
    endloop
  endfacet
  facet normal 0 1 0
    outer loop
      vertex -5 2.5 -2.5
      vertex -3.27398 2.5 -1.8864
      vertex -3.29349 2.5 -2.09279
    endloop
  endfacet
  facet normal 0 1 0
    outer loop
      vertex -5 2.5 -2.5
      vertex -3.29349 2.5 -2.09279
      vertex -3.3 2.5 -2.3
    endloop
  endfacet
  facet normal 0 1 0
    outer loop
      vertex -5 2.5 -2.5
      vertex -3.3 2.5 -2.3
      vertex -3.29371 2.5 -2.5
    endloop
  endfacet
  facet normal 0 1 0
    outer loop
      vertex -3.06826 2.5 -1.08519
      vertex -5 2.5 -2.5
      vertex -5 2.5 2.5
    endloop
  endfacet
  facet normal 0 0 -1
    outer loop
      vertex -5 -2.5 -2.5
      vertex -3.29371 2.5 -2.5
      vertex -3.29371 -2.5 -2.5
    endloop
  endfacet
  facet normal -0 0 -1
    outer loop
      vertex -3.29371 2.5 -2.5
      vertex -5 -2.5 -2.5
      vertex -5 2.5 -2.5
    endloop
  endfacet
  facet normal 0 0 -1
    outer loop
      vertex 3.29371 -2.5 -2.5
      vertex 5 2.5 -2.5
      vertex 5 -2.5 -2.5
    endloop
  endfacet
  facet normal -0 0 -1
    outer loop
      vertex 5 2.5 -2.5
      vertex 3.29371 -2.5 -2.5
      vertex 3.29371 2.5 -2.5
    endloop
  endfacet
  facet normal 0 -1 0
    outer loop
      vertex -5 -2.5 2.5
      vertex 0 -2.5 1
      vertex 5 -2.5 2.5
    endloop
  endfacet
  facet normal 0 -1 0
    outer loop
      vertex -5 -2.5 2.5
      vertex -0.0518022 -2.5 0.998372
      vertex 0 -2.5 1
    endloop
  endfacet
  facet normal 0 -1 0
    outer loop
      vertex -5 -2.5 2.5
      vertex -0.207209 -2.5 0.993487
      vertex -0.0518022 -2.5 0.998372
    endloop
  endfacet
  facet normal 0 -1 0
    outer loop
      vertex -5 -2.5 2.5
      vertex -0.413599 -2.5 0.973978
      vertex -0.207209 -2.5 0.993487
    endloop
  endfacet
  facet normal 0 -1 0
    outer loop
      vertex -5 -2.5 2.5
      vertex -0.618358 -2.5 0.941547
      vertex -0.413599 -2.5 0.973978
    endloop
  endfacet
  facet normal 0 -1 0
    outer loop
      vertex -5 -2.5 2.5
      vertex -0.820676 -2.5 0.896324
      vertex -0.618358 -2.5 0.941547
    endloop
  endfacet
  facet normal 0 -1 0
    outer loop
      vertex -5 -2.5 2.5
      vertex -1.01976 -2.5 0.838486
      vertex -0.820676 -2.5 0.896324
    endloop
  endfacet
  facet normal 0 -1 0
    outer loop
      vertex -5 -2.5 2.5
      vertex -1.21481 -2.5 0.768262
      vertex -1.01976 -2.5 0.838486
    endloop
  endfacet
  facet normal 0 -1 0
    outer loop
      vertex -5 -2.5 2.5
      vertex -1.40507 -2.5 0.685928
      vertex -1.21481 -2.5 0.768262
    endloop
  endfacet
  facet normal 0 -1 0
    outer loop
      vertex -5 -2.5 2.5
      vertex -1.58979 -2.5 0.591811
      vertex -1.40507 -2.5 0.685928
    endloop
  endfacet
  facet normal 0 -1 0
    outer loop
      vertex -5 -2.5 2.5
      vertex -1.76823 -2.5 0.486281
      vertex -1.58979 -2.5 0.591811
    endloop
  endfacet
  facet normal 0 -1 0
    outer loop
      vertex -5 -2.5 2.5
      vertex -1.93969 -2.5 0.369756
      vertex -1.76823 -2.5 0.486281
    endloop
  endfacet
  facet normal 0 -1 0
    outer loop
      vertex -5 -2.5 2.5
      vertex -2.1035 -2.5 0.242693
      vertex -1.93969 -2.5 0.369756
    endloop
  endfacet
  facet normal 0 -1 0
    outer loop
      vertex -5 -2.5 2.5
      vertex -2.259 -2.5 0.105596
      vertex -2.1035 -2.5 0.242693
    endloop
  endfacet
  facet normal 0 -1 0
    outer loop
      vertex -5 -2.5 2.5
      vertex -2.4056 -2.5 -0.0409937
      vertex -2.259 -2.5 0.105596
    endloop
  endfacet
  facet normal 0 -1 0
    outer loop
      vertex -5 -2.5 2.5
      vertex -2.54269 -2.5 -0.196501
      vertex -2.4056 -2.5 -0.0409937
    endloop
  endfacet
  facet normal 0 -1 0
    outer loop
      vertex -5 -2.5 2.5
      vertex -2.66976 -2.5 -0.360309
      vertex -2.54269 -2.5 -0.196501
    endloop
  endfacet
  facet normal 0 -1 0
    outer loop
      vertex -5 -2.5 2.5
      vertex -2.78628 -2.5 -0.531771
      vertex -2.66976 -2.5 -0.360309
    endloop
  endfacet
  facet normal 0 -1 0
    outer loop
      vertex -5 -2.5 2.5
      vertex -2.89181 -2.5 -0.710213
      vertex -2.78628 -2.5 -0.531771
    endloop
  endfacet
  facet normal 0 -1 0
    outer loop
      vertex -5 -2.5 2.5
      vertex -2.98593 -2.5 -0.894928
      vertex -2.89181 -2.5 -0.710213
    endloop
  endfacet
  facet normal 0 -1 0
    outer loop
      vertex -5 -2.5 2.5
      vertex -3.06826 -2.5 -1.08519
      vertex -2.98593 -2.5 -0.894928
    endloop
  endfacet
  facet normal 0 -1 0
    outer loop
      vertex -5 -2.5 -2.5
      vertex -3.06826 -2.5 -1.08519
      vertex -5 -2.5 2.5
    endloop
  endfacet
  facet normal 0 -1 0
    outer loop
      vertex -3.06826 -2.5 -1.08519
      vertex -5 -2.5 -2.5
      vertex -3.13849 -2.5 -1.28024
    endloop
  endfacet
  facet normal 0 -1 0
    outer loop
      vertex -3.13849 -2.5 -1.28024
      vertex -5 -2.5 -2.5
      vertex -3.19632 -2.5 -1.47932
    endloop
  endfacet
  facet normal 0 -1 0
    outer loop
      vertex -3.19632 -2.5 -1.47932
      vertex -5 -2.5 -2.5
      vertex -3.24155 -2.5 -1.68164
    endloop
  endfacet
  facet normal 0 -1 0
    outer loop
      vertex -3.24155 -2.5 -1.68164
      vertex -5 -2.5 -2.5
      vertex -3.27398 -2.5 -1.8864
    endloop
  endfacet
  facet normal 0 -1 0
    outer loop
      vertex -3.27398 -2.5 -1.8864
      vertex -5 -2.5 -2.5
      vertex -3.29349 -2.5 -2.09279
    endloop
  endfacet
  facet normal 0 -1 0
    outer loop
      vertex -3.29349 -2.5 -2.09279
      vertex -5 -2.5 -2.5
      vertex -3.3 -2.5 -2.3
    endloop
  endfacet
  facet normal 0 -1 -0
    outer loop
      vertex -3.3 -2.5 -2.3
      vertex -5 -2.5 -2.5
      vertex -3.29371 -2.5 -2.5
    endloop
  endfacet
  facet normal 0 -1 0
    outer loop
      vertex 0.0518022 -2.5 0.998372
      vertex 5 -2.5 2.5
      vertex 0 -2.5 1
    endloop
  endfacet
  facet normal 0 -1 0
    outer loop
      vertex 0.207209 -2.5 0.993487
      vertex 5 -2.5 2.5
      vertex 0.0518022 -2.5 0.998372
    endloop
  endfacet
  facet normal 0 -1 0
    outer loop
      vertex 0.413599 -2.5 0.973978
      vertex 5 -2.5 2.5
      vertex 0.207209 -2.5 0.993487
    endloop
  endfacet
  facet normal 0 -1 0
    outer loop
      vertex 0.618358 -2.5 0.941547
      vertex 5 -2.5 2.5
      vertex 0.413599 -2.5 0.973978
    endloop
  endfacet
  facet normal 0 -1 0
    outer loop
      vertex 0.820676 -2.5 0.896324
      vertex 5 -2.5 2.5
      vertex 0.618358 -2.5 0.941547
    endloop
  endfacet
  facet normal 0 -1 0
    outer loop
      vertex 1.01976 -2.5 0.838486
      vertex 5 -2.5 2.5
      vertex 0.820676 -2.5 0.896324
    endloop
  endfacet
  facet normal 0 -1 0
    outer loop
      vertex 1.21481 -2.5 0.768262
      vertex 5 -2.5 2.5
      vertex 1.01976 -2.5 0.838486
    endloop
  endfacet
  facet normal 0 -1 0
    outer loop
      vertex 1.40507 -2.5 0.685928
      vertex 5 -2.5 2.5
      vertex 1.21481 -2.5 0.768262
    endloop
  endfacet
  facet normal 0 -1 0
    outer loop
      vertex 1.58979 -2.5 0.591811
      vertex 5 -2.5 2.5
      vertex 1.40507 -2.5 0.685928
    endloop
  endfacet
  facet normal 0 -1 0
    outer loop
      vertex 1.76823 -2.5 0.486281
      vertex 5 -2.5 2.5
      vertex 1.58979 -2.5 0.591811
    endloop
  endfacet
  facet normal 0 -1 0
    outer loop
      vertex 1.93969 -2.5 0.369756
      vertex 5 -2.5 2.5
      vertex 1.76823 -2.5 0.486281
    endloop
  endfacet
  facet normal 0 -1 0
    outer loop
      vertex 2.1035 -2.5 0.242693
      vertex 5 -2.5 2.5
      vertex 1.93969 -2.5 0.369756
    endloop
  endfacet
  facet normal 0 -1 0
    outer loop
      vertex 2.259 -2.5 0.105596
      vertex 5 -2.5 2.5
      vertex 2.1035 -2.5 0.242693
    endloop
  endfacet
  facet normal 0 -1 0
    outer loop
      vertex 2.4056 -2.5 -0.0409937
      vertex 5 -2.5 2.5
      vertex 2.259 -2.5 0.105596
    endloop
  endfacet
  facet normal 0 -1 0
    outer loop
      vertex 2.54269 -2.5 -0.196501
      vertex 5 -2.5 2.5
      vertex 2.4056 -2.5 -0.0409937
    endloop
  endfacet
  facet normal 0 -1 0
    outer loop
      vertex 2.66976 -2.5 -0.360309
      vertex 5 -2.5 2.5
      vertex 2.54269 -2.5 -0.196501
    endloop
  endfacet
  facet normal 0 -1 0
    outer loop
      vertex 2.78628 -2.5 -0.531771
      vertex 5 -2.5 2.5
      vertex 2.66976 -2.5 -0.360309
    endloop
  endfacet
  facet normal 0 -1 0
    outer loop
      vertex 2.89181 -2.5 -0.710213
      vertex 5 -2.5 2.5
      vertex 2.78628 -2.5 -0.531771
    endloop
  endfacet
  facet normal 0 -1 0
    outer loop
      vertex 2.98593 -2.5 -0.894928
      vertex 5 -2.5 2.5
      vertex 2.89181 -2.5 -0.710213
    endloop
  endfacet
  facet normal 0 -1 0
    outer loop
      vertex 3.06826 -2.5 -1.08519
      vertex 5 -2.5 2.5
      vertex 2.98593 -2.5 -0.894928
    endloop
  endfacet
  facet normal 0 -1 0
    outer loop
      vertex 5 -2.5 -2.5
      vertex 3.06826 -2.5 -1.08519
      vertex 3.13849 -2.5 -1.28024
    endloop
  endfacet
  facet normal 0 -1 0
    outer loop
      vertex 5 -2.5 -2.5
      vertex 3.13849 -2.5 -1.28024
      vertex 3.19632 -2.5 -1.47932
    endloop
  endfacet
  facet normal 0 -1 0
    outer loop
      vertex 5 -2.5 -2.5
      vertex 3.19632 -2.5 -1.47932
      vertex 3.24155 -2.5 -1.68164
    endloop
  endfacet
  facet normal 0 -1 0
    outer loop
      vertex 5 -2.5 -2.5
      vertex 3.24155 -2.5 -1.68164
      vertex 3.27398 -2.5 -1.8864
    endloop
  endfacet
  facet normal 0 -1 0
    outer loop
      vertex 5 -2.5 -2.5
      vertex 3.27398 -2.5 -1.8864
      vertex 3.29349 -2.5 -2.09279
    endloop
  endfacet
  facet normal 0 -1 0
    outer loop
      vertex 5 -2.5 -2.5
      vertex 3.29349 -2.5 -2.09279
      vertex 3.3 -2.5 -2.3
    endloop
  endfacet
  facet normal 0 -1 0
    outer loop
      vertex 5 -2.5 -2.5
      vertex 3.3 -2.5 -2.3
      vertex 3.29371 -2.5 -2.5
    endloop
  endfacet
  facet normal 0 -1 0
    outer loop
      vertex 3.06826 -2.5 -1.08519
      vertex 5 -2.5 -2.5
      vertex 5 -2.5 2.5
    endloop
  endfacet
  facet normal -0.999507 0 -0.0314103
    outer loop
      vertex 3.3 -2.5 -2.3
      vertex 3.29349 2.5 -2.09279
      vertex 3.3 2.5 -2.3
    endloop
  endfacet
  facet normal -0.999507 -0 -0.0314103
    outer loop
      vertex 3.29349 2.5 -2.09279
      vertex 3.3 -2.5 -2.3
      vertex 3.29349 -2.5 -2.09279
    endloop
  endfacet
  facet normal 0.0314148 0 -0.999506
    outer loop
      vertex -0.207209 -2.5 0.993487
      vertex -0.155406 2.5 0.995116
      vertex -0.0518022 -2.5 0.998372
    endloop
  endfacet
  facet normal 0.0314148 0 -0.999506
    outer loop
      vertex -0.155406 2.5 0.995116
      vertex -0.207209 -2.5 0.993487
      vertex -0.207209 2.5 0.993487
    endloop
  endfacet
  facet normal -0.995562 0 -0.0941068
    outer loop
      vertex 3.29349 -2.5 -2.09279
      vertex 3.27398 2.5 -1.8864
      vertex 3.29349 2.5 -2.09279
    endloop
  endfacet
  facet normal -0.995562 -0 -0.0941068
    outer loop
      vertex 3.27398 2.5 -1.8864
      vertex 3.29349 -2.5 -2.09279
      vertex 3.27398 -2.5 -1.8864
    endloop
  endfacet
  facet normal -0.661313 0 -0.75011
    outer loop
      vertex 2.1035 -2.5 0.242693
      vertex 2.259 2.5 0.105596
      vertex 2.259 -2.5 0.105596
    endloop
  endfacet
  facet normal -0.661313 0 -0.75011
    outer loop
      vertex 2.259 2.5 0.105596
      vertex 2.1035 -2.5 0.242693
      vertex 2.1035 2.5 0.242693
    endloop
  endfacet
  facet normal 0.995562 0 -0.0941068
    outer loop
      vertex -3.27398 -2.5 -1.8864
      vertex -3.29349 2.5 -2.09279
      vertex -3.27398 2.5 -1.8864
    endloop
  endfacet
  facet normal 0.995562 0 -0.0941068
    outer loop
      vertex -3.29349 2.5 -2.09279
      vertex -3.27398 -2.5 -1.8864
      vertex -3.29349 -2.5 -2.09279
    endloop
  endfacet
  facet normal -0.917754 0 -0.397149
    outer loop
      vertex 3.06826 -2.5 -1.08519
      vertex 2.98593 2.5 -0.894928
      vertex 3.06826 2.5 -1.08519
    endloop
  endfacet
  facet normal -0.917754 -0 -0.397149
    outer loop
      vertex 2.98593 2.5 -0.894928
      vertex 3.06826 -2.5 -1.08519
      vertex 2.98593 -2.5 -0.894928
    endloop
  endfacet
  facet normal -0.338737 0 -0.940881
    outer loop
      vertex 1.01976 -2.5 0.838486
      vertex 1.21481 2.5 0.768262
      vertex 1.21481 -2.5 0.768262
    endloop
  endfacet
  facet normal -0.338737 0 -0.940881
    outer loop
      vertex 1.21481 2.5 0.768262
      vertex 1.01976 -2.5 0.838486
      vertex 1.01976 2.5 0.838486
    endloop
  endfacet
  facet normal 0.218142 0 -0.975917
    outer loop
      vertex -0.820676 -2.5 0.896324
      vertex -0.618358 2.5 0.941547
      vertex -0.618358 -2.5 0.941547
    endloop
  endfacet
  facet normal 0.218142 0 -0.975917
    outer loop
      vertex -0.618358 2.5 0.941547
      vertex -0.820676 -2.5 0.896324
      vertex -0.820676 2.5 0.896324
    endloop
  endfacet
  facet normal -0.960293 0 -0.278995
    outer loop
      vertex 3.19632 -2.5 -1.47932
      vertex 3.13849 2.5 -1.28024
      vertex 3.19632 2.5 -1.47932
    endloop
  endfacet
  facet normal -0.960293 -0 -0.278995
    outer loop
      vertex 3.13849 2.5 -1.28024
      vertex 3.19632 -2.5 -1.47932
      vertex 3.13849 -2.5 -1.28024
    endloop
  endfacet
  facet normal 0.987688 0 -0.156435
    outer loop
      vertex -3.24155 -2.5 -1.68164
      vertex -3.27398 2.5 -1.8864
      vertex -3.24155 2.5 -1.68164
    endloop
  endfacet
  facet normal 0.987688 0 -0.156435
    outer loop
      vertex -3.27398 2.5 -1.8864
      vertex -3.24155 -2.5 -1.68164
      vertex -3.27398 -2.5 -1.8864
    endloop
  endfacet
  facet normal 0.397149 0 -0.917754
    outer loop
      vertex -1.40507 -2.5 0.685928
      vertex -1.21481 2.5 0.768262
      vertex -1.21481 -2.5 0.768262
    endloop
  endfacet
  facet normal 0.397149 0 -0.917754
    outer loop
      vertex -1.21481 2.5 0.768262
      vertex -1.40507 -2.5 0.685928
      vertex -1.40507 2.5 0.685928
    endloop
  endfacet
  facet normal -0.218142 0 -0.975917
    outer loop
      vertex 0.618358 -2.5 0.941547
      vertex 0.820676 2.5 0.896324
      vertex 0.820676 -2.5 0.896324
    endloop
  endfacet
  facet normal -0.218142 0 -0.975917
    outer loop
      vertex 0.820676 2.5 0.896324
      vertex 0.618358 -2.5 0.941547
      vertex 0.618358 2.5 0.941547
    endloop
  endfacet
  facet normal -0.707102 0 -0.707111
    outer loop
      vertex 2.259 -2.5 0.105596
      vertex 2.4056 2.5 -0.0409937
      vertex 2.4056 -2.5 -0.0409937
    endloop
  endfacet
  facet normal -0.707102 0 -0.707111
    outer loop
      vertex 2.4056 2.5 -0.0409937
      vertex 2.259 -2.5 0.105596
      vertex 2.259 2.5 0.105596
    endloop
  endfacet
  facet normal -0.940881 0 -0.338737
    outer loop
      vertex 3.13849 -2.5 -1.28024
      vertex 3.06826 2.5 -1.08519
      vertex 3.13849 2.5 -1.28024
    endloop
  endfacet
  facet normal -0.940881 -0 -0.338737
    outer loop
      vertex 3.06826 2.5 -1.08519
      vertex 3.13849 -2.5 -1.28024
      vertex 3.06826 -2.5 -1.08519
    endloop
  endfacet
  facet normal -0.156435 0 -0.987688
    outer loop
      vertex 0.413599 -2.5 0.973978
      vertex 0.618358 2.5 0.941547
      vertex 0.618358 -2.5 0.941547
    endloop
  endfacet
  facet normal -0.156435 0 -0.987688
    outer loop
      vertex 0.618358 2.5 0.941547
      vertex 0.413599 -2.5 0.973978
      vertex 0.413599 2.5 0.973978
    endloop
  endfacet
  facet normal 0.338737 0 -0.940881
    outer loop
      vertex -1.21481 -2.5 0.768262
      vertex -1.01976 2.5 0.838486
      vertex -1.01976 -2.5 0.838486
    endloop
  endfacet
  facet normal 0.338737 0 -0.940881
    outer loop
      vertex -1.01976 2.5 0.838486
      vertex -1.21481 -2.5 0.768262
      vertex -1.21481 2.5 0.768262
    endloop
  endfacet
  facet normal 0.156435 0 -0.987688
    outer loop
      vertex -0.618358 -2.5 0.941547
      vertex -0.413599 2.5 0.973978
      vertex -0.413599 -2.5 0.973978
    endloop
  endfacet
  facet normal 0.156435 0 -0.987688
    outer loop
      vertex -0.413599 2.5 0.973978
      vertex -0.618358 -2.5 0.941547
      vertex -0.618358 2.5 0.941547
    endloop
  endfacet
  facet normal 0.790154 0 -0.612908
    outer loop
      vertex -2.54269 -2.5 -0.196501
      vertex -2.66976 2.5 -0.360309
      vertex -2.54269 2.5 -0.196501
    endloop
  endfacet
  facet normal 0.790154 0 -0.612908
    outer loop
      vertex -2.66976 2.5 -0.360309
      vertex -2.54269 -2.5 -0.196501
      vertex -2.66976 -2.5 -0.360309
    endloop
  endfacet
  facet normal 0.750112 0 -0.66131
    outer loop
      vertex -2.4056 -2.5 -0.0409937
      vertex -2.54269 2.5 -0.196501
      vertex -2.4056 2.5 -0.0409937
    endloop
  endfacet
  facet normal 0.750112 0 -0.66131
    outer loop
      vertex -2.54269 2.5 -0.196501
      vertex -2.4056 -2.5 -0.0409937
      vertex -2.54269 -2.5 -0.196501
    endloop
  endfacet
  facet normal 0.509042 0 -0.860742
    outer loop
      vertex -1.76823 -2.5 0.486281
      vertex -1.58979 2.5 0.591811
      vertex -1.58979 -2.5 0.591811
    endloop
  endfacet
  facet normal 0.509042 0 -0.860742
    outer loop
      vertex -1.58979 2.5 0.591811
      vertex -1.76823 -2.5 0.486281
      vertex -1.76823 2.5 0.486281
    endloop
  endfacet
  facet normal -0.278993 0 -0.960293
    outer loop
      vertex 0.820676 -2.5 0.896324
      vertex 1.01976 2.5 0.838486
      vertex 1.01976 -2.5 0.838486
    endloop
  endfacet
  facet normal -0.278993 0 -0.960293
    outer loop
      vertex 1.01976 2.5 0.838486
      vertex 0.820676 -2.5 0.896324
      vertex 0.820676 2.5 0.896324
    endloop
  endfacet
  facet normal -0.509042 0 -0.860742
    outer loop
      vertex 1.58979 -2.5 0.591811
      vertex 1.76823 2.5 0.486281
      vertex 1.76823 -2.5 0.486281
    endloop
  endfacet
  facet normal -0.509042 0 -0.860742
    outer loop
      vertex 1.76823 2.5 0.486281
      vertex 1.58979 -2.5 0.591811
      vertex 1.58979 2.5 0.591811
    endloop
  endfacet
  facet normal -0.562082 0 -0.827082
    outer loop
      vertex 1.76823 -2.5 0.486281
      vertex 1.93969 2.5 0.369756
      vertex 1.93969 -2.5 0.369756
    endloop
  endfacet
  facet normal -0.562082 0 -0.827082
    outer loop
      vertex 1.93969 2.5 0.369756
      vertex 1.76823 -2.5 0.486281
      vertex 1.76823 2.5 0.486281
    endloop
  endfacet
  facet normal -0.82708 0 -0.562084
    outer loop
      vertex 2.78628 -2.5 -0.531771
      vertex 2.66976 2.5 -0.360309
      vertex 2.78628 2.5 -0.531771
    endloop
  endfacet
  facet normal -0.82708 -0 -0.562084
    outer loop
      vertex 2.66976 2.5 -0.360309
      vertex 2.78628 -2.5 -0.531771
      vertex 2.66976 -2.5 -0.360309
    endloop
  endfacet
  facet normal -0.750112 0 -0.66131
    outer loop
      vertex 2.54269 -2.5 -0.196501
      vertex 2.4056 2.5 -0.0409937
      vertex 2.54269 2.5 -0.196501
    endloop
  endfacet
  facet normal -0.750112 -0 -0.66131
    outer loop
      vertex 2.4056 2.5 -0.0409937
      vertex 2.54269 -2.5 -0.196501
      vertex 2.4056 -2.5 -0.0409937
    endloop
  endfacet
  facet normal -0.790154 0 -0.612908
    outer loop
      vertex 2.66976 -2.5 -0.360309
      vertex 2.54269 2.5 -0.196501
      vertex 2.66976 2.5 -0.360309
    endloop
  endfacet
  facet normal -0.790154 -0 -0.612908
    outer loop
      vertex 2.54269 2.5 -0.196501
      vertex 2.66976 -2.5 -0.360309
      vertex 2.54269 -2.5 -0.196501
    endloop
  endfacet
  facet normal -0.975917 0 -0.218141
    outer loop
      vertex 3.24155 -2.5 -1.68164
      vertex 3.19632 2.5 -1.47932
      vertex 3.24155 2.5 -1.68164
    endloop
  endfacet
  facet normal -0.975917 -0 -0.218141
    outer loop
      vertex 3.19632 2.5 -1.47932
      vertex 3.24155 -2.5 -1.68164
      vertex 3.19632 -2.5 -1.47932
    endloop
  endfacet
  facet normal 0.999507 0 -0.0314103
    outer loop
      vertex -3.29349 -2.5 -2.09279
      vertex -3.3 2.5 -2.3
      vertex -3.29349 2.5 -2.09279
    endloop
  endfacet
  facet normal 0.999507 0 -0.0314103
    outer loop
      vertex -3.3 2.5 -2.3
      vertex -3.29349 -2.5 -2.09279
      vertex -3.3 -2.5 -2.3
    endloop
  endfacet
  facet normal -0.999507 0 0.0314103
    outer loop
      vertex 3.29371 -2.5 -2.5
      vertex 3.3 2.5 -2.3
      vertex 3.29371 2.5 -2.5
    endloop
  endfacet
  facet normal -0.999507 0 0.0314103
    outer loop
      vertex 3.3 2.5 -2.3
      vertex 3.29371 -2.5 -2.5
      vertex 3.3 -2.5 -2.3
    endloop
  endfacet
  facet normal -0.0314103 -9.53204e-08 -0.999507
    outer loop
      vertex 0 2.5 0.999999
      vertex 0.0518022 -2.5 0.998372
      vertex 0 -2.5 1
    endloop
  endfacet
  facet normal -0.0314103 -9.53204e-08 -0.999507
    outer loop
      vertex 0.0518022 -2.5 0.998372
      vertex 0 2.5 0.999999
      vertex 0.155406 2.5 0.995116
    endloop
  endfacet
  facet normal 0.278993 0 -0.960293
    outer loop
      vertex -1.01976 -2.5 0.838486
      vertex -0.820676 2.5 0.896324
      vertex -0.820676 -2.5 0.896324
    endloop
  endfacet
  facet normal 0.278993 0 -0.960293
    outer loop
      vertex -0.820676 2.5 0.896324
      vertex -1.01976 -2.5 0.838486
      vertex -1.01976 2.5 0.838486
    endloop
  endfacet
  facet normal 0.0941068 0 -0.995562
    outer loop
      vertex -0.413599 -2.5 0.973978
      vertex -0.207209 2.5 0.993487
      vertex -0.207209 -2.5 0.993487
    endloop
  endfacet
  facet normal 0.0941068 0 -0.995562
    outer loop
      vertex -0.207209 2.5 0.993487
      vertex -0.413599 -2.5 0.973978
      vertex -0.413599 2.5 0.973978
    endloop
  endfacet
  facet normal 0.860743 0 -0.50904
    outer loop
      vertex -2.78628 -2.5 -0.531771
      vertex -2.89181 2.5 -0.710213
      vertex -2.78628 2.5 -0.531771
    endloop
  endfacet
  facet normal 0.860743 0 -0.50904
    outer loop
      vertex -2.89181 2.5 -0.710213
      vertex -2.78628 -2.5 -0.531771
      vertex -2.89181 -2.5 -0.710213
    endloop
  endfacet
  facet normal 0.707102 0 -0.707111
    outer loop
      vertex -2.4056 -2.5 -0.0409937
      vertex -2.259 2.5 0.105596
      vertex -2.259 -2.5 0.105596
    endloop
  endfacet
  facet normal 0.707102 0 -0.707111
    outer loop
      vertex -2.259 2.5 0.105596
      vertex -2.4056 -2.5 -0.0409937
      vertex -2.4056 2.5 -0.0409937
    endloop
  endfacet
  facet normal 0.661313 0 -0.75011
    outer loop
      vertex -2.259 -2.5 0.105596
      vertex -2.1035 2.5 0.242693
      vertex -2.1035 -2.5 0.242693
    endloop
  endfacet
  facet normal 0.661313 0 -0.75011
    outer loop
      vertex -2.1035 2.5 0.242693
      vertex -2.259 -2.5 0.105596
      vertex -2.259 2.5 0.105596
    endloop
  endfacet
  facet normal 0.562082 0 -0.827082
    outer loop
      vertex -1.93969 -2.5 0.369756
      vertex -1.76823 2.5 0.486281
      vertex -1.76823 -2.5 0.486281
    endloop
  endfacet
  facet normal 0.562082 0 -0.827082
    outer loop
      vertex -1.76823 2.5 0.486281
      vertex -1.93969 -2.5 0.369756
      vertex -1.93969 2.5 0.369756
    endloop
  endfacet
  facet normal 0.612908 0 -0.790154
    outer loop
      vertex -2.1035 -2.5 0.242693
      vertex -1.93969 2.5 0.369756
      vertex -1.93969 -2.5 0.369756
    endloop
  endfacet
  facet normal 0.612908 0 -0.790154
    outer loop
      vertex -1.93969 2.5 0.369756
      vertex -2.1035 -2.5 0.242693
      vertex -2.1035 2.5 0.242693
    endloop
  endfacet
  facet normal 0.453991 0 -0.891006
    outer loop
      vertex -1.58979 -2.5 0.591811
      vertex -1.40507 2.5 0.685928
      vertex -1.40507 -2.5 0.685928
    endloop
  endfacet
  facet normal 0.453991 0 -0.891006
    outer loop
      vertex -1.40507 2.5 0.685928
      vertex -1.58979 -2.5 0.591811
      vertex -1.58979 2.5 0.591811
    endloop
  endfacet
  facet normal 0.975917 0 -0.218141
    outer loop
      vertex -3.19632 -2.5 -1.47932
      vertex -3.24155 2.5 -1.68164
      vertex -3.19632 2.5 -1.47932
    endloop
  endfacet
  facet normal 0.975917 0 -0.218141
    outer loop
      vertex -3.24155 2.5 -1.68164
      vertex -3.19632 -2.5 -1.47932
      vertex -3.24155 -2.5 -1.68164
    endloop
  endfacet
  facet normal 0.891006 0 -0.453991
    outer loop
      vertex -2.89181 -2.5 -0.710213
      vertex -2.98593 2.5 -0.894928
      vertex -2.89181 2.5 -0.710213
    endloop
  endfacet
  facet normal 0.891006 0 -0.453991
    outer loop
      vertex -2.98593 2.5 -0.894928
      vertex -2.89181 -2.5 -0.710213
      vertex -2.98593 -2.5 -0.894928
    endloop
  endfacet
  facet normal 0.940881 0 -0.338737
    outer loop
      vertex -3.06826 -2.5 -1.08519
      vertex -3.13849 2.5 -1.28024
      vertex -3.06826 2.5 -1.08519
    endloop
  endfacet
  facet normal 0.940881 0 -0.338737
    outer loop
      vertex -3.13849 2.5 -1.28024
      vertex -3.06826 -2.5 -1.08519
      vertex -3.13849 -2.5 -1.28024
    endloop
  endfacet
  facet normal 0.960293 0 -0.278995
    outer loop
      vertex -3.13849 -2.5 -1.28024
      vertex -3.19632 2.5 -1.47932
      vertex -3.13849 2.5 -1.28024
    endloop
  endfacet
  facet normal 0.960293 0 -0.278995
    outer loop
      vertex -3.19632 2.5 -1.47932
      vertex -3.13849 -2.5 -1.28024
      vertex -3.19632 -2.5 -1.47932
    endloop
  endfacet
  facet normal -0.397149 0 -0.917754
    outer loop
      vertex 1.21481 -2.5 0.768262
      vertex 1.40507 2.5 0.685928
      vertex 1.40507 -2.5 0.685928
    endloop
  endfacet
  facet normal -0.397149 0 -0.917754
    outer loop
      vertex 1.40507 2.5 0.685928
      vertex 1.21481 -2.5 0.768262
      vertex 1.21481 2.5 0.768262
    endloop
  endfacet
  facet normal -0.612908 0 -0.790154
    outer loop
      vertex 1.93969 -2.5 0.369756
      vertex 2.1035 2.5 0.242693
      vertex 2.1035 -2.5 0.242693
    endloop
  endfacet
  facet normal -0.612908 0 -0.790154
    outer loop
      vertex 2.1035 2.5 0.242693
      vertex 1.93969 -2.5 0.369756
      vertex 1.93969 2.5 0.369756
    endloop
  endfacet
  facet normal -0.860743 0 -0.50904
    outer loop
      vertex 2.89181 -2.5 -0.710213
      vertex 2.78628 2.5 -0.531771
      vertex 2.89181 2.5 -0.710213
    endloop
  endfacet
  facet normal -0.860743 -0 -0.50904
    outer loop
      vertex 2.78628 2.5 -0.531771
      vertex 2.89181 -2.5 -0.710213
      vertex 2.78628 -2.5 -0.531771
    endloop
  endfacet
  facet normal -0.987688 0 -0.156435
    outer loop
      vertex 3.27398 -2.5 -1.8864
      vertex 3.24155 2.5 -1.68164
      vertex 3.27398 2.5 -1.8864
    endloop
  endfacet
  facet normal -0.987688 -0 -0.156435
    outer loop
      vertex 3.24155 2.5 -1.68164
      vertex 3.27398 -2.5 -1.8864
      vertex 3.24155 -2.5 -1.68164
    endloop
  endfacet
  facet normal 0.999507 -0 0.0314103
    outer loop
      vertex -3.3 -2.5 -2.3
      vertex -3.29371 2.5 -2.5
      vertex -3.3 2.5 -2.3
    endloop
  endfacet
  facet normal 0.999507 0 0.0314103
    outer loop
      vertex -3.29371 2.5 -2.5
      vertex -3.3 -2.5 -2.3
      vertex -3.29371 -2.5 -2.5
    endloop
  endfacet
  facet normal -0.0941068 0 -0.995562
    outer loop
      vertex 0.207209 -2.5 0.993487
      vertex 0.413599 2.5 0.973978
      vertex 0.413599 -2.5 0.973978
    endloop
  endfacet
  facet normal -0.0941068 0 -0.995562
    outer loop
      vertex 0.413599 2.5 0.973978
      vertex 0.207209 -2.5 0.993487
      vertex 0.207209 2.5 0.993487
    endloop
  endfacet
  facet normal -0.0314148 0 -0.999506
    outer loop
      vertex 0.207209 -2.5 0.993487
      vertex 0.155406 2.5 0.995116
      vertex 0.207209 2.5 0.993487
    endloop
  endfacet
  facet normal -0.0314148 0 -0.999506
    outer loop
      vertex 0.155406 2.5 0.995116
      vertex 0.207209 -2.5 0.993487
      vertex 0.0518022 -2.5 0.998372
    endloop
  endfacet
  facet normal 0.0314103 -9.53204e-08 -0.999507
    outer loop
      vertex -0.0518022 -2.5 0.998372
      vertex 0 2.5 0.999999
      vertex 0 -2.5 1
    endloop
  endfacet
  facet normal 0.0314103 -9.53204e-08 -0.999507
    outer loop
      vertex 0 2.5 0.999999
      vertex -0.0518022 -2.5 0.998372
      vertex -0.155406 2.5 0.995116
    endloop
  endfacet
  facet normal 0.82708 0 -0.562084
    outer loop
      vertex -2.66976 -2.5 -0.360309
      vertex -2.78628 2.5 -0.531771
      vertex -2.66976 2.5 -0.360309
    endloop
  endfacet
  facet normal 0.82708 0 -0.562084
    outer loop
      vertex -2.78628 2.5 -0.531771
      vertex -2.66976 -2.5 -0.360309
      vertex -2.78628 -2.5 -0.531771
    endloop
  endfacet
  facet normal 0.917754 0 -0.397149
    outer loop
      vertex -2.98593 -2.5 -0.894928
      vertex -3.06826 2.5 -1.08519
      vertex -2.98593 2.5 -0.894928
    endloop
  endfacet
  facet normal 0.917754 0 -0.397149
    outer loop
      vertex -3.06826 2.5 -1.08519
      vertex -2.98593 -2.5 -0.894928
      vertex -3.06826 -2.5 -1.08519
    endloop
  endfacet
  facet normal -0.453991 0 -0.891006
    outer loop
      vertex 1.40507 -2.5 0.685928
      vertex 1.58979 2.5 0.591811
      vertex 1.58979 -2.5 0.591811
    endloop
  endfacet
  facet normal -0.453991 0 -0.891006
    outer loop
      vertex 1.58979 2.5 0.591811
      vertex 1.40507 -2.5 0.685928
      vertex 1.40507 2.5 0.685928
    endloop
  endfacet
  facet normal -0.891006 0 -0.453991
    outer loop
      vertex 2.98593 -2.5 -0.894928
      vertex 2.89181 2.5 -0.710213
      vertex 2.98593 2.5 -0.894928
    endloop
  endfacet
  facet normal -0.891006 -0 -0.453991
    outer loop
      vertex 2.89181 2.5 -0.710213
      vertex 2.98593 -2.5 -0.894928
      vertex 2.89181 -2.5 -0.710213
    endloop
  endfacet
endsolid OpenSCAD_Model
