solid OpenSCAD_Model
  facet normal -1 0 0
    outer loop
      vertex -5 -2.5 -2.5
      vertex -5 2.5 2.5
      vertex -5 2.5 -2.5
    endloop
  endfacet
  facet normal -1 -0 0
    outer loop
      vertex -5 2.5 2.5
      vertex -5 -2.5 -2.5
      vertex -5 -2.5 2.5
    endloop
  endfacet
  facet normal -0 0 1
    outer loop
      vertex -5 2.5 2.5
      vertex 5 -2.5 2.5
      vertex 5 2.5 2.5
    endloop
  endfacet
  facet normal 0 0 1
    outer loop
      vertex 5 -2.5 2.5
      vertex -5 2.5 2.5
      vertex -5 -2.5 2.5
    endloop
  endfacet
  facet normal 1 -0 0
    outer loop
      vertex 5 -2.5 2.5
      vertex 5 2.5 -2.5
      vertex 5 2.5 2.5
    endloop
  endfacet
  facet normal 1 0 0
    outer loop
      vertex 5 2.5 -2.5
      vertex 5 -2.5 2.5
      vertex 5 -2.5 -2.5
    endloop
  endfacet
  facet normal 0 1 0
    outer loop
      vertex 5 2.5 2.5
      vertex 0 2.5 0.599999
      vertex -5 2.5 2.5
    endloop
  endfacet
  facet normal 0 1 0
    outer loop
      vertex 5 2.5 2.5
      vertex 0.226046 2.5 0.592896
      vertex 0 2.5 0.599999
    endloop
  endfacet
  facet normal 0 1 0
    outer loop
      vertex 5 2.5 2.5
      vertex 0.4512 2.5 0.571612
      vertex 0.226046 2.5 0.592896
    endloop
  endfacet
  facet normal 0 1 0
    outer loop
      vertex 5 2.5 2.5
      vertex 0.674572 2.5 0.536234
      vertex 0.4512 2.5 0.571612
    endloop
  endfacet
  facet normal 0 1 0
    outer loop
      vertex 5 2.5 2.5
      vertex 0.895283 2.5 0.486899
      vertex 0.674572 2.5 0.536234
    endloop
  endfacet
  facet normal 0 1 0
    outer loop
      vertex 5 2.5 2.5
      vertex 1.11246 2.5 0.423803
      vertex 0.895283 2.5 0.486899
    endloop
  endfacet
  facet normal 0 1 0
    outer loop
      vertex 5 2.5 2.5
      vertex 1.32525 2.5 0.347195
      vertex 1.11246 2.5 0.423803
    endloop
  endfacet
  facet normal 0 1 0
    outer loop
      vertex 5 2.5 2.5
      vertex 1.53281 2.5 0.257377
      vertex 1.32525 2.5 0.347195
    endloop
  endfacet
  facet normal 0 1 0
    outer loop
      vertex 5 2.5 2.5
      vertex 1.73431 2.5 0.154703
      vertex 1.53281 2.5 0.257377
    endloop
  endfacet
  facet normal 0 1 0
    outer loop
      vertex 5 2.5 2.5
      vertex 1.92898 2.5 0.0395803
      vertex 1.73431 2.5 0.154703
    endloop
  endfacet
  facet normal 0 1 0
    outer loop
      vertex 5 2.5 2.5
      vertex 2.11603 2.5 -0.0875387
      vertex 1.92898 2.5 0.0395803
    endloop
  endfacet
  facet normal 0 1 0
    outer loop
      vertex 5 2.5 2.5
      vertex 2.29473 2.5 -0.226151
      vertex 2.11603 2.5 -0.0875387
    endloop
  endfacet
  facet normal 0 1 0
    outer loop
      vertex 5 2.5 2.5
      vertex 2.46437 2.5 -0.375712
      vertex 2.29473 2.5 -0.226151
    endloop
  endfacet
  facet normal 0 1 0
    outer loop
      vertex 5 2.5 2.5
      vertex 2.62429 2.5 -0.53563
      vertex 2.46437 2.5 -0.375712
    endloop
  endfacet
  facet normal 0 1 0
    outer loop
      vertex 5 2.5 2.5
      vertex 2.77385 2.5 -0.705274
      vertex 2.62429 2.5 -0.53563
    endloop
  endfacet
  facet normal 0 1 0
    outer loop
      vertex 5 2.5 2.5
      vertex 2.91246 2.5 -0.883972
      vertex 2.77385 2.5 -0.705274
    endloop
  endfacet
  facet normal 0 1 0
    outer loop
      vertex 5 2.5 2.5
      vertex 3.03958 2.5 -1.07102
      vertex 2.91246 2.5 -0.883972
    endloop
  endfacet
  facet normal 0 1 0
    outer loop
      vertex 5 2.5 2.5
      vertex 3.1547 2.5 -1.26569
      vertex 3.03958 2.5 -1.07102
    endloop
  endfacet
  facet normal 0 1 -0
    outer loop
      vertex 5 2.5 -2.5
      vertex 3.1547 2.5 -1.26569
      vertex 5 2.5 2.5
    endloop
  endfacet
  facet normal 0 1 0
    outer loop
      vertex 3.1547 2.5 -1.26569
      vertex 5 2.5 -2.5
      vertex 3.25738 2.5 -1.46719
    endloop
  endfacet
  facet normal 0 1 0
    outer loop
      vertex 3.25738 2.5 -1.46719
      vertex 5 2.5 -2.5
      vertex 3.34719 2.5 -1.67475
    endloop
  endfacet
  facet normal 0 1 0
    outer loop
      vertex 3.34719 2.5 -1.67475
      vertex 5 2.5 -2.5
      vertex 3.4238 2.5 -1.88754
    endloop
  endfacet
  facet normal 0 1 0
    outer loop
      vertex 3.4238 2.5 -1.88754
      vertex 5 2.5 -2.5
      vertex 3.4869 2.5 -2.10472
    endloop
  endfacet
  facet normal 0 1 0
    outer loop
      vertex 3.4869 2.5 -2.10472
      vertex 5 2.5 -2.5
      vertex 3.53623 2.5 -2.32543
    endloop
  endfacet
  facet normal 0 1 0
    outer loop
      vertex 3.53623 2.5 -2.32543
      vertex 5 2.5 -2.5
      vertex 3.56388 2.5 -2.5
    endloop
  endfacet
  facet normal 0 1 -0
    outer loop
      vertex -0.226046 2.5 0.592896
      vertex -5 2.5 2.5
      vertex 0 2.5 0.599999
    endloop
  endfacet
  facet normal 0 1 -0
    outer loop
      vertex -0.4512 2.5 0.571612
      vertex -5 2.5 2.5
      vertex -0.226046 2.5 0.592896
    endloop
  endfacet
  facet normal 0 1 -0
    outer loop
      vertex -0.674572 2.5 0.536234
      vertex -5 2.5 2.5
      vertex -0.4512 2.5 0.571612
    endloop
  endfacet
  facet normal 0 1 -0
    outer loop
      vertex -0.895283 2.5 0.486899
      vertex -5 2.5 2.5
      vertex -0.674572 2.5 0.536234
    endloop
  endfacet
  facet normal 0 1 -0
    outer loop
      vertex -1.11246 2.5 0.423803
      vertex -5 2.5 2.5
      vertex -0.895283 2.5 0.486899
    endloop
  endfacet
  facet normal 0 1 -0
    outer loop
      vertex -1.32525 2.5 0.347195
      vertex -5 2.5 2.5
      vertex -1.11246 2.5 0.423803
    endloop
  endfacet
  facet normal 0 1 -0
    outer loop
      vertex -1.53281 2.5 0.257377
      vertex -5 2.5 2.5
      vertex -1.32525 2.5 0.347195
    endloop
  endfacet
  facet normal 0 1 -0
    outer loop
      vertex -1.73431 2.5 0.154703
      vertex -5 2.5 2.5
      vertex -1.53281 2.5 0.257377
    endloop
  endfacet
  facet normal 0 1 -0
    outer loop
      vertex -1.92898 2.5 0.0395803
      vertex -5 2.5 2.5
      vertex -1.73431 2.5 0.154703
    endloop
  endfacet
  facet normal 0 1 -0
    outer loop
      vertex -2.11603 2.5 -0.0875387
      vertex -5 2.5 2.5
      vertex -1.92898 2.5 0.0395803
    endloop
  endfacet
  facet normal 0 1 -0
    outer loop
      vertex -2.29473 2.5 -0.226151
      vertex -5 2.5 2.5
      vertex -2.11603 2.5 -0.0875387
    endloop
  endfacet
  facet normal 0 1 -0
    outer loop
      vertex -2.46437 2.5 -0.375712
      vertex -5 2.5 2.5
      vertex -2.29473 2.5 -0.226151
    endloop
  endfacet
  facet normal 0 1 -0
    outer loop
      vertex -2.62429 2.5 -0.53563
      vertex -5 2.5 2.5
      vertex -2.46437 2.5 -0.375712
    endloop
  endfacet
  facet normal 0 1 -0
    outer loop
      vertex -2.77385 2.5 -0.705274
      vertex -5 2.5 2.5
      vertex -2.62429 2.5 -0.53563
    endloop
  endfacet
  facet normal 0 1 -0
    outer loop
      vertex -2.91246 2.5 -0.883972
      vertex -5 2.5 2.5
      vertex -2.77385 2.5 -0.705274
    endloop
  endfacet
  facet normal 0 1 -0
    outer loop
      vertex -3.03958 2.5 -1.07102
      vertex -5 2.5 2.5
      vertex -2.91246 2.5 -0.883972
    endloop
  endfacet
  facet normal 0 1 -0
    outer loop
      vertex -3.1547 2.5 -1.26569
      vertex -5 2.5 2.5
      vertex -3.03958 2.5 -1.07102
    endloop
  endfacet
  facet normal 0 1 0
    outer loop
      vertex -5 2.5 -2.5
      vertex -3.1547 2.5 -1.26569
      vertex -3.25738 2.5 -1.46719
    endloop
  endfacet
  facet normal 0 1 0
    outer loop
      vertex -5 2.5 -2.5
      vertex -3.25738 2.5 -1.46719
      vertex -3.34719 2.5 -1.67475
    endloop
  endfacet
  facet normal 0 1 0
    outer loop
      vertex -5 2.5 -2.5
      vertex -3.34719 2.5 -1.67475
      vertex -3.4238 2.5 -1.88754
    endloop
  endfacet
  facet normal 0 1 0
    outer loop
      vertex -5 2.5 -2.5
      vertex -3.4238 2.5 -1.88754
      vertex -3.4869 2.5 -2.10472
    endloop
  endfacet
  facet normal 0 1 0
    outer loop
      vertex -5 2.5 -2.5
      vertex -3.4869 2.5 -2.10472
      vertex -3.53623 2.5 -2.32543
    endloop
  endfacet
  facet normal 0 1 0
    outer loop
      vertex -5 2.5 -2.5
      vertex -3.53623 2.5 -2.32543
      vertex -3.56388 2.5 -2.5
    endloop
  endfacet
  facet normal 0 1 0
    outer loop
      vertex -3.1547 2.5 -1.26569
      vertex -5 2.5 -2.5
      vertex -5 2.5 2.5
    endloop
  endfacet
  facet normal 0 0 -1
    outer loop
      vertex -5 -2.5 -2.5
      vertex -3.56388 2.5 -2.5
      vertex -3.56388 -2.5 -2.5
    endloop
  endfacet
  facet normal -0 0 -1
    outer loop
      vertex -3.56388 2.5 -2.5
      vertex -5 -2.5 -2.5
      vertex -5 2.5 -2.5
    endloop
  endfacet
  facet normal 0 0 -1
    outer loop
      vertex 3.56388 -2.5 -2.5
      vertex 5 2.5 -2.5
      vertex 5 -2.5 -2.5
    endloop
  endfacet
  facet normal -0 0 -1
    outer loop
      vertex 5 2.5 -2.5
      vertex 3.56388 -2.5 -2.5
      vertex 3.56388 2.5 -2.5
    endloop
  endfacet
  facet normal 0 -1 0
    outer loop
      vertex -5 -2.5 2.5
      vertex 0 -2.5 0.599999
      vertex 5 -2.5 2.5
    endloop
  endfacet
  facet normal 0 -1 0
    outer loop
      vertex -5 -2.5 2.5
      vertex -0.226046 -2.5 0.592896
      vertex 0 -2.5 0.599999
    endloop
  endfacet
  facet normal 0 -1 0
    outer loop
      vertex -5 -2.5 2.5
      vertex -0.4512 -2.5 0.571612
      vertex -0.226046 -2.5 0.592896
    endloop
  endfacet
  facet normal 0 -1 0
    outer loop
      vertex -5 -2.5 2.5
      vertex -0.674572 -2.5 0.536234
      vertex -0.4512 -2.5 0.571612
    endloop
  endfacet
  facet normal 0 -1 0
    outer loop
      vertex -5 -2.5 2.5
      vertex -0.895283 -2.5 0.486899
      vertex -0.674572 -2.5 0.536234
    endloop
  endfacet
  facet normal 0 -1 0
    outer loop
      vertex -5 -2.5 2.5
      vertex -1.11246 -2.5 0.423803
      vertex -0.895283 -2.5 0.486899
    endloop
  endfacet
  facet normal 0 -1 0
    outer loop
      vertex -5 -2.5 2.5
      vertex -1.32525 -2.5 0.347195
      vertex -1.11246 -2.5 0.423803
    endloop
  endfacet
  facet normal 0 -1 0
    outer loop
      vertex -5 -2.5 2.5
      vertex -1.53281 -2.5 0.257377
      vertex -1.32525 -2.5 0.347195
    endloop
  endfacet
  facet normal 0 -1 0
    outer loop
      vertex -5 -2.5 2.5
      vertex -1.73431 -2.5 0.154703
      vertex -1.53281 -2.5 0.257377
    endloop
  endfacet
  facet normal 0 -1 0
    outer loop
      vertex -5 -2.5 2.5
      vertex -1.92898 -2.5 0.0395803
      vertex -1.73431 -2.5 0.154703
    endloop
  endfacet
  facet normal 0 -1 0
    outer loop
      vertex -5 -2.5 2.5
      vertex -2.11603 -2.5 -0.0875387
      vertex -1.92898 -2.5 0.0395803
    endloop
  endfacet
  facet normal 0 -1 0
    outer loop
      vertex -5 -2.5 2.5
      vertex -2.29473 -2.5 -0.226151
      vertex -2.11603 -2.5 -0.0875387
    endloop
  endfacet
  facet normal 0 -1 0
    outer loop
      vertex -5 -2.5 2.5
      vertex -2.46437 -2.5 -0.375712
      vertex -2.29473 -2.5 -0.226151
    endloop
  endfacet
  facet normal 0 -1 0
    outer loop
      vertex -5 -2.5 2.5
      vertex -2.62429 -2.5 -0.53563
      vertex -2.46437 -2.5 -0.375712
    endloop
  endfacet
  facet normal 0 -1 0
    outer loop
      vertex -5 -2.5 2.5
      vertex -2.77385 -2.5 -0.705274
      vertex -2.62429 -2.5 -0.53563
    endloop
  endfacet
  facet normal 0 -1 0
    outer loop
      vertex -5 -2.5 2.5
      vertex -2.91246 -2.5 -0.883972
      vertex -2.77385 -2.5 -0.705274
    endloop
  endfacet
  facet normal 0 -1 0
    outer loop
      vertex -5 -2.5 2.5
      vertex -3.03958 -2.5 -1.07102
      vertex -2.91246 -2.5 -0.883972
    endloop
  endfacet
  facet normal 0 -1 0
    outer loop
      vertex -5 -2.5 2.5
      vertex -3.1547 -2.5 -1.26569
      vertex -3.03958 -2.5 -1.07102
    endloop
  endfacet
  facet normal 0 -1 0
    outer loop
      vertex -5 -2.5 -2.5
      vertex -3.1547 -2.5 -1.26569
      vertex -5 -2.5 2.5
    endloop
  endfacet
  facet normal 0 -1 0
    outer loop
      vertex -3.1547 -2.5 -1.26569
      vertex -5 -2.5 -2.5
      vertex -3.25738 -2.5 -1.46719
    endloop
  endfacet
  facet normal 0 -1 0
    outer loop
      vertex -3.25738 -2.5 -1.46719
      vertex -5 -2.5 -2.5
      vertex -3.34719 -2.5 -1.67475
    endloop
  endfacet
  facet normal 0 -1 0
    outer loop
      vertex -3.34719 -2.5 -1.67475
      vertex -5 -2.5 -2.5
      vertex -3.4238 -2.5 -1.88754
    endloop
  endfacet
  facet normal 0 -1 0
    outer loop
      vertex -3.4238 -2.5 -1.88754
      vertex -5 -2.5 -2.5
      vertex -3.4869 -2.5 -2.10472
    endloop
  endfacet
  facet normal 0 -1 0
    outer loop
      vertex -3.4869 -2.5 -2.10472
      vertex -5 -2.5 -2.5
      vertex -3.53623 -2.5 -2.32543
    endloop
  endfacet
  facet normal 0 -1 0
    outer loop
      vertex -3.53623 -2.5 -2.32543
      vertex -5 -2.5 -2.5
      vertex -3.56388 -2.5 -2.5
    endloop
  endfacet
  facet normal 0 -1 0
    outer loop
      vertex 0.226046 -2.5 0.592896
      vertex 5 -2.5 2.5
      vertex 0 -2.5 0.599999
    endloop
  endfacet
  facet normal 0 -1 0
    outer loop
      vertex 0.4512 -2.5 0.571612
      vertex 5 -2.5 2.5
      vertex 0.226046 -2.5 0.592896
    endloop
  endfacet
  facet normal 0 -1 0
    outer loop
      vertex 0.674572 -2.5 0.536234
      vertex 5 -2.5 2.5
      vertex 0.4512 -2.5 0.571612
    endloop
  endfacet
  facet normal 0 -1 0
    outer loop
      vertex 0.895283 -2.5 0.486899
      vertex 5 -2.5 2.5
      vertex 0.674572 -2.5 0.536234
    endloop
  endfacet
  facet normal 0 -1 0
    outer loop
      vertex 1.11246 -2.5 0.423803
      vertex 5 -2.5 2.5
      vertex 0.895283 -2.5 0.486899
    endloop
  endfacet
  facet normal 0 -1 0
    outer loop
      vertex 1.32525 -2.5 0.347195
      vertex 5 -2.5 2.5
      vertex 1.11246 -2.5 0.423803
    endloop
  endfacet
  facet normal 0 -1 0
    outer loop
      vertex 1.53281 -2.5 0.257377
      vertex 5 -2.5 2.5
      vertex 1.32525 -2.5 0.347195
    endloop
  endfacet
  facet normal 0 -1 0
    outer loop
      vertex 1.73431 -2.5 0.154703
      vertex 5 -2.5 2.5
      vertex 1.53281 -2.5 0.257377
    endloop
  endfacet
  facet normal 0 -1 0
    outer loop
      vertex 1.92898 -2.5 0.0395803
      vertex 5 -2.5 2.5
      vertex 1.73431 -2.5 0.154703
    endloop
  endfacet
  facet normal 0 -1 0
    outer loop
      vertex 2.11603 -2.5 -0.0875387
      vertex 5 -2.5 2.5
      vertex 1.92898 -2.5 0.0395803
    endloop
  endfacet
  facet normal 0 -1 0
    outer loop
      vertex 2.29473 -2.5 -0.226151
      vertex 5 -2.5 2.5
      vertex 2.11603 -2.5 -0.0875387
    endloop
  endfacet
  facet normal 0 -1 0
    outer loop
      vertex 2.46437 -2.5 -0.375712
      vertex 5 -2.5 2.5
      vertex 2.29473 -2.5 -0.226151
    endloop
  endfacet
  facet normal 0 -1 0
    outer loop
      vertex 2.62429 -2.5 -0.53563
      vertex 5 -2.5 2.5
      vertex 2.46437 -2.5 -0.375712
    endloop
  endfacet
  facet normal 0 -1 0
    outer loop
      vertex 2.77385 -2.5 -0.705274
      vertex 5 -2.5 2.5
      vertex 2.62429 -2.5 -0.53563
    endloop
  endfacet
  facet normal 0 -1 0
    outer loop
      vertex 2.91246 -2.5 -0.883972
      vertex 5 -2.5 2.5
      vertex 2.77385 -2.5 -0.705274
    endloop
  endfacet
  facet normal 0 -1 0
    outer loop
      vertex 3.03958 -2.5 -1.07102
      vertex 5 -2.5 2.5
      vertex 2.91246 -2.5 -0.883972
    endloop
  endfacet
  facet normal 0 -1 0
    outer loop
      vertex 3.1547 -2.5 -1.26569
      vertex 5 -2.5 2.5
      vertex 3.03958 -2.5 -1.07102
    endloop
  endfacet
  facet normal 0 -1 0
    outer loop
      vertex 5 -2.5 -2.5
      vertex 3.1547 -2.5 -1.26569
      vertex 3.25738 -2.5 -1.46719
    endloop
  endfacet
  facet normal 0 -1 0
    outer loop
      vertex 5 -2.5 -2.5
      vertex 3.25738 -2.5 -1.46719
      vertex 3.34719 -2.5 -1.67475
    endloop
  endfacet
  facet normal 0 -1 0
    outer loop
      vertex 5 -2.5 -2.5
      vertex 3.34719 -2.5 -1.67475
      vertex 3.4238 -2.5 -1.88754
    endloop
  endfacet
  facet normal 0 -1 0
    outer loop
      vertex 5 -2.5 -2.5
      vertex 3.4238 -2.5 -1.88754
      vertex 3.4869 -2.5 -2.10472
    endloop
  endfacet
  facet normal 0 -1 0
    outer loop
      vertex 5 -2.5 -2.5
      vertex 3.4869 -2.5 -2.10472
      vertex 3.53623 -2.5 -2.32543
    endloop
  endfacet
  facet normal 0 -1 0
    outer loop
      vertex 5 -2.5 -2.5
      vertex 3.53623 -2.5 -2.32543
      vertex 3.56388 -2.5 -2.5
    endloop
  endfacet
  facet normal 0 -1 0
    outer loop
      vertex 3.1547 -2.5 -1.26569
      vertex 5 -2.5 -2.5
      vertex 5 -2.5 2.5
    endloop
  endfacet
  facet normal -0.987689 0 -0.156433
    outer loop
      vertex 3.56388 -2.5 -2.5
      vertex 3.53623 2.5 -2.32543
      vertex 3.56388 2.5 -2.5
    endloop
  endfacet
  facet normal -0.987689 -0 -0.156433
    outer loop
      vertex 3.53623 2.5 -2.32543
      vertex 3.56388 -2.5 -2.5
      vertex 3.53623 -2.5 -2.32543
    endloop
  endfacet
  facet normal -0.975917 0 -0.218143
    outer loop
      vertex 3.53623 -2.5 -2.32543
      vertex 3.4869 2.5 -2.10472
      vertex 3.53623 2.5 -2.32543
    endloop
  endfacet
  facet normal -0.975917 -0 -0.218143
    outer loop
      vertex 3.4869 2.5 -2.10472
      vertex 3.53623 -2.5 -2.32543
      vertex 3.4869 -2.5 -2.10472
    endloop
  endfacet
  facet normal -0.917755 0 -0.397147
    outer loop
      vertex 3.34719 -2.5 -1.67475
      vertex 3.25738 2.5 -1.46719
      vertex 3.34719 2.5 -1.67475
    endloop
  endfacet
  facet normal -0.917755 -0 -0.397147
    outer loop
      vertex 3.25738 2.5 -1.46719
      vertex 3.34719 -2.5 -1.67475
      vertex 3.25738 -2.5 -1.46719
    endloop
  endfacet
  facet normal 0.987689 0 -0.156433
    outer loop
      vertex -3.53623 -2.5 -2.32543
      vertex -3.56388 2.5 -2.5
      vertex -3.53623 2.5 -2.32543
    endloop
  endfacet
  facet normal 0.987689 0 -0.156433
    outer loop
      vertex -3.56388 2.5 -2.5
      vertex -3.53623 -2.5 -2.32543
      vertex -3.56388 -2.5 -2.5
    endloop
  endfacet
  facet normal 0.156433 0 -0.987689
    outer loop
      vertex -0.674572 -2.5 0.536234
      vertex -0.4512 2.5 0.571612
      vertex -0.4512 -2.5 0.571612
    endloop
  endfacet
  facet normal 0.156433 0 -0.987689
    outer loop
      vertex -0.4512 2.5 0.571612
      vertex -0.674572 -2.5 0.536234
      vertex -0.674572 2.5 0.536234
    endloop
  endfacet
  facet normal -0.509039 0 -0.860743
    outer loop
      vertex 1.73431 -2.5 0.154703
      vertex 1.92898 2.5 0.0395803
      vertex 1.92898 -2.5 0.0395803
    endloop
  endfacet
  facet normal -0.509039 0 -0.860743
    outer loop
      vertex 1.92898 2.5 0.0395803
      vertex 1.73431 -2.5 0.154703
      vertex 1.73431 2.5 0.154703
    endloop
  endfacet
  facet normal 0.94088 0 -0.338741
    outer loop
      vertex -3.34719 -2.5 -1.67475
      vertex -3.4238 2.5 -1.88754
      vertex -3.34719 2.5 -1.67475
    endloop
  endfacet
  facet normal 0.94088 0 -0.338741
    outer loop
      vertex -3.4238 2.5 -1.88754
      vertex -3.34719 -2.5 -1.67475
      vertex -3.4238 -2.5 -1.88754
    endloop
  endfacet
  facet normal 0.975917 0 -0.218143
    outer loop
      vertex -3.4869 -2.5 -2.10472
      vertex -3.53623 2.5 -2.32543
      vertex -3.4869 2.5 -2.10472
    endloop
  endfacet
  facet normal 0.975917 0 -0.218143
    outer loop
      vertex -3.53623 2.5 -2.32543
      vertex -3.4869 -2.5 -2.10472
      vertex -3.53623 -2.5 -2.32543
    endloop
  endfacet
  facet normal 0.218143 0 -0.975917
    outer loop
      vertex -0.895283 -2.5 0.486899
      vertex -0.674572 2.5 0.536234
      vertex -0.674572 -2.5 0.536234
    endloop
  endfacet
  facet normal 0.218143 0 -0.975917
    outer loop
      vertex -0.674572 2.5 0.536234
      vertex -0.895283 -2.5 0.486899
      vertex -0.895283 2.5 0.486899
    endloop
  endfacet
  facet normal -0.156433 0 -0.987689
    outer loop
      vertex 0.4512 -2.5 0.571612
      vertex 0.674572 2.5 0.536234
      vertex 0.674572 -2.5 0.536234
    endloop
  endfacet
  facet normal -0.156433 0 -0.987689
    outer loop
      vertex 0.674572 2.5 0.536234
      vertex 0.4512 -2.5 0.571612
      vertex 0.4512 2.5 0.571612
    endloop
  endfacet
  facet normal -0.612907 0 -0.790155
    outer loop
      vertex 2.11603 -2.5 -0.0875387
      vertex 2.29473 2.5 -0.226151
      vertex 2.29473 -2.5 -0.226151
    endloop
  endfacet
  facet normal -0.612907 0 -0.790155
    outer loop
      vertex 2.29473 2.5 -0.226151
      vertex 2.11603 -2.5 -0.0875387
      vertex 2.11603 2.5 -0.0875387
    endloop
  endfacet
  facet normal -0.661312 0 -0.750111
    outer loop
      vertex 2.29473 -2.5 -0.226151
      vertex 2.46437 2.5 -0.375712
      vertex 2.46437 -2.5 -0.375712
    endloop
  endfacet
  facet normal -0.661312 0 -0.750111
    outer loop
      vertex 2.46437 2.5 -0.375712
      vertex 2.29473 -2.5 -0.226151
      vertex 2.29473 2.5 -0.226151
    endloop
  endfacet
  facet normal -0.960294 0 -0.278991
    outer loop
      vertex 3.4869 -2.5 -2.10472
      vertex 3.4238 2.5 -1.88754
      vertex 3.4869 2.5 -2.10472
    endloop
  endfacet
  facet normal -0.960294 -0 -0.278991
    outer loop
      vertex 3.4238 2.5 -1.88754
      vertex 3.4869 -2.5 -2.10472
      vertex 3.4238 -2.5 -1.88754
    endloop
  endfacet
  facet normal 0.562082 0 -0.827082
    outer loop
      vertex -2.11603 -2.5 -0.0875387
      vertex -1.92898 2.5 0.0395803
      vertex -1.92898 -2.5 0.0395803
    endloop
  endfacet
  facet normal 0.562082 0 -0.827082
    outer loop
      vertex -1.92898 2.5 0.0395803
      vertex -2.11603 -2.5 -0.0875387
      vertex -2.11603 2.5 -0.0875387
    endloop
  endfacet
  facet normal 0.707107 0 -0.707107
    outer loop
      vertex -2.46437 -2.5 -0.375712
      vertex -2.62429 2.5 -0.53563
      vertex -2.46437 2.5 -0.375712
    endloop
  endfacet
  facet normal 0.707107 0 -0.707107
    outer loop
      vertex -2.62429 2.5 -0.53563
      vertex -2.46437 -2.5 -0.375712
      vertex -2.62429 -2.5 -0.53563
    endloop
  endfacet
  facet normal 0.917755 0 -0.397147
    outer loop
      vertex -3.25738 -2.5 -1.46719
      vertex -3.34719 2.5 -1.67475
      vertex -3.25738 2.5 -1.46719
    endloop
  endfacet
  facet normal 0.917755 0 -0.397147
    outer loop
      vertex -3.34719 2.5 -1.67475
      vertex -3.25738 -2.5 -1.46719
      vertex -3.34719 -2.5 -1.67475
    endloop
  endfacet
  facet normal -0.0314114 0 -0.999507
    outer loop
      vertex 0 -2.5 0.599999
      vertex 0.226046 2.5 0.592896
      vertex 0.226046 -2.5 0.592896
    endloop
  endfacet
  facet normal -0.0314114 0 -0.999507
    outer loop
      vertex 0.226046 2.5 0.592896
      vertex 0 -2.5 0.599999
      vertex 0 2.5 0.599999
    endloop
  endfacet
  facet normal 0.338741 0 -0.94088
    outer loop
      vertex -1.32525 -2.5 0.347195
      vertex -1.11246 2.5 0.423803
      vertex -1.11246 -2.5 0.423803
    endloop
  endfacet
  facet normal 0.338741 0 -0.94088
    outer loop
      vertex -1.11246 2.5 0.423803
      vertex -1.32525 -2.5 0.347195
      vertex -1.32525 2.5 0.347195
    endloop
  endfacet
  facet normal 0.0941076 0 -0.995562
    outer loop
      vertex -0.4512 -2.5 0.571612
      vertex -0.226046 2.5 0.592896
      vertex -0.226046 -2.5 0.592896
    endloop
  endfacet
  facet normal 0.0941076 0 -0.995562
    outer loop
      vertex -0.226046 2.5 0.592896
      vertex -0.4512 -2.5 0.571612
      vertex -0.4512 2.5 0.571612
    endloop
  endfacet
  facet normal -0.278991 0 -0.960294
    outer loop
      vertex 0.895283 -2.5 0.486899
      vertex 1.11246 2.5 0.423803
      vertex 1.11246 -2.5 0.423803
    endloop
  endfacet
  facet normal -0.278991 0 -0.960294
    outer loop
      vertex 1.11246 2.5 0.423803
      vertex 0.895283 -2.5 0.486899
      vertex 0.895283 2.5 0.486899
    endloop
  endfacet
  facet normal -0.562082 0 -0.827082
    outer loop
      vertex 1.92898 -2.5 0.0395803
      vertex 2.11603 2.5 -0.0875387
      vertex 2.11603 -2.5 -0.0875387
    endloop
  endfacet
  facet normal -0.562082 0 -0.827082
    outer loop
      vertex 2.11603 2.5 -0.0875387
      vertex 1.92898 -2.5 0.0395803
      vertex 1.92898 2.5 0.0395803
    endloop
  endfacet
  facet normal -0.453992 0 -0.891006
    outer loop
      vertex 1.53281 -2.5 0.257377
      vertex 1.73431 2.5 0.154703
      vertex 1.73431 -2.5 0.154703
    endloop
  endfacet
  facet normal -0.453992 0 -0.891006
    outer loop
      vertex 1.73431 2.5 0.154703
      vertex 1.53281 -2.5 0.257377
      vertex 1.53281 2.5 0.257377
    endloop
  endfacet
  facet normal -0.338741 0 -0.94088
    outer loop
      vertex 1.11246 -2.5 0.423803
      vertex 1.32525 2.5 0.347195
      vertex 1.32525 -2.5 0.347195
    endloop
  endfacet
  facet normal -0.338741 0 -0.94088
    outer loop
      vertex 1.32525 2.5 0.347195
      vertex 1.11246 -2.5 0.423803
      vertex 1.11246 2.5 0.423803
    endloop
  endfacet
  facet normal -0.790155 0 -0.612907
    outer loop
      vertex 2.91246 -2.5 -0.883972
      vertex 2.77385 2.5 -0.705274
      vertex 2.91246 2.5 -0.883972
    endloop
  endfacet
  facet normal -0.790155 -0 -0.612907
    outer loop
      vertex 2.77385 2.5 -0.705274
      vertex 2.91246 -2.5 -0.883972
      vertex 2.77385 -2.5 -0.705274
    endloop
  endfacet
  facet normal -0.750111 0 -0.661312
    outer loop
      vertex 2.77385 -2.5 -0.705274
      vertex 2.62429 2.5 -0.53563
      vertex 2.77385 2.5 -0.705274
    endloop
  endfacet
  facet normal -0.750111 -0 -0.661312
    outer loop
      vertex 2.62429 2.5 -0.53563
      vertex 2.77385 -2.5 -0.705274
      vertex 2.62429 -2.5 -0.53563
    endloop
  endfacet
  facet normal 0.661312 0 -0.750111
    outer loop
      vertex -2.46437 -2.5 -0.375712
      vertex -2.29473 2.5 -0.226151
      vertex -2.29473 -2.5 -0.226151
    endloop
  endfacet
  facet normal 0.661312 0 -0.750111
    outer loop
      vertex -2.29473 2.5 -0.226151
      vertex -2.46437 -2.5 -0.375712
      vertex -2.46437 2.5 -0.375712
    endloop
  endfacet
  facet normal 0.612907 0 -0.790155
    outer loop
      vertex -2.29473 -2.5 -0.226151
      vertex -2.11603 2.5 -0.0875387
      vertex -2.11603 -2.5 -0.0875387
    endloop
  endfacet
  facet normal 0.612907 0 -0.790155
    outer loop
      vertex -2.11603 2.5 -0.0875387
      vertex -2.29473 -2.5 -0.226151
      vertex -2.29473 2.5 -0.226151
    endloop
  endfacet
  facet normal 0.750111 0 -0.661312
    outer loop
      vertex -2.62429 -2.5 -0.53563
      vertex -2.77385 2.5 -0.705274
      vertex -2.62429 2.5 -0.53563
    endloop
  endfacet
  facet normal 0.750111 0 -0.661312
    outer loop
      vertex -2.77385 2.5 -0.705274
      vertex -2.62429 -2.5 -0.53563
      vertex -2.77385 -2.5 -0.705274
    endloop
  endfacet
  facet normal 0.960294 0 -0.278991
    outer loop
      vertex -3.4238 -2.5 -1.88754
      vertex -3.4869 2.5 -2.10472
      vertex -3.4238 2.5 -1.88754
    endloop
  endfacet
  facet normal 0.960294 0 -0.278991
    outer loop
      vertex -3.4869 2.5 -2.10472
      vertex -3.4238 -2.5 -1.88754
      vertex -3.4869 -2.5 -2.10472
    endloop
  endfacet
  facet normal 0.278991 0 -0.960294
    outer loop
      vertex -1.11246 -2.5 0.423803
      vertex -0.895283 2.5 0.486899
      vertex -0.895283 -2.5 0.486899
    endloop
  endfacet
  facet normal 0.278991 0 -0.960294
    outer loop
      vertex -0.895283 2.5 0.486899
      vertex -1.11246 -2.5 0.423803
      vertex -1.11246 2.5 0.423803
    endloop
  endfacet
  facet normal 0.509039 0 -0.860743
    outer loop
      vertex -1.92898 -2.5 0.0395803
      vertex -1.73431 2.5 0.154703
      vertex -1.73431 -2.5 0.154703
    endloop
  endfacet
  facet normal 0.509039 0 -0.860743
    outer loop
      vertex -1.73431 2.5 0.154703
      vertex -1.92898 -2.5 0.0395803
      vertex -1.92898 2.5 0.0395803
    endloop
  endfacet
  facet normal 0.0314114 0 -0.999507
    outer loop
      vertex -0.226046 -2.5 0.592896
      vertex 0 2.5 0.599999
      vertex 0 -2.5 0.599999
    endloop
  endfacet
  facet normal 0.0314114 0 -0.999507
    outer loop
      vertex 0 2.5 0.599999
      vertex -0.226046 -2.5 0.592896
      vertex -0.226046 2.5 0.592896
    endloop
  endfacet
  facet normal -0.0941076 0 -0.995562
    outer loop
      vertex 0.226046 -2.5 0.592896
      vertex 0.4512 2.5 0.571612
      vertex 0.4512 -2.5 0.571612
    endloop
  endfacet
  facet normal -0.0941076 0 -0.995562
    outer loop
      vertex 0.4512 2.5 0.571612
      vertex 0.226046 -2.5 0.592896
      vertex 0.226046 2.5 0.592896
    endloop
  endfacet
  facet normal -0.397147 0 -0.917755
    outer loop
      vertex 1.32525 -2.5 0.347195
      vertex 1.53281 2.5 0.257377
      vertex 1.53281 -2.5 0.257377
    endloop
  endfacet
  facet normal -0.397147 0 -0.917755
    outer loop
      vertex 1.53281 2.5 0.257377
      vertex 1.32525 -2.5 0.347195
      vertex 1.32525 2.5 0.347195
    endloop
  endfacet
  facet normal -0.860743 0 -0.509039
    outer loop
      vertex 3.1547 -2.5 -1.26569
      vertex 3.03958 2.5 -1.07102
      vertex 3.1547 2.5 -1.26569
    endloop
  endfacet
  facet normal -0.860743 -0 -0.509039
    outer loop
      vertex 3.03958 2.5 -1.07102
      vertex 3.1547 -2.5 -1.26569
      vertex 3.03958 -2.5 -1.07102
    endloop
  endfacet
  facet normal -0.82708 0 -0.562085
    outer loop
      vertex 3.03958 -2.5 -1.07102
      vertex 2.91246 2.5 -0.883972
      vertex 3.03958 2.5 -1.07102
    endloop
  endfacet
  facet normal -0.82708 -0 -0.562085
    outer loop
      vertex 2.91246 2.5 -0.883972
      vertex 3.03958 -2.5 -1.07102
      vertex 2.91246 -2.5 -0.883972
    endloop
  endfacet
  facet normal -0.94088 0 -0.338741
    outer loop
      vertex 3.4238 -2.5 -1.88754
      vertex 3.34719 2.5 -1.67475
      vertex 3.4238 2.5 -1.88754
    endloop
  endfacet
  facet normal -0.94088 -0 -0.338741
    outer loop
      vertex 3.34719 2.5 -1.67475
      vertex 3.4238 -2.5 -1.88754
      vertex 3.34719 -2.5 -1.67475
    endloop
  endfacet
  facet normal 0.860743 0 -0.509039
    outer loop
      vertex -3.03958 -2.5 -1.07102
      vertex -3.1547 2.5 -1.26569
      vertex -3.03958 2.5 -1.07102
    endloop
  endfacet
  facet normal 0.860743 0 -0.509039
    outer loop
      vertex -3.1547 2.5 -1.26569
      vertex -3.03958 -2.5 -1.07102
      vertex -3.1547 -2.5 -1.26569
    endloop
  endfacet
  facet normal 0.891006 0 -0.453992
    outer loop
      vertex -3.1547 -2.5 -1.26569
      vertex -3.25738 2.5 -1.46719
      vertex -3.1547 2.5 -1.26569
    endloop
  endfacet
  facet normal 0.891006 0 -0.453992
    outer loop
      vertex -3.25738 2.5 -1.46719
      vertex -3.1547 -2.5 -1.26569
      vertex -3.25738 -2.5 -1.46719
    endloop
  endfacet
  facet normal 0.82708 0 -0.562085
    outer loop
      vertex -2.91246 -2.5 -0.883972
      vertex -3.03958 2.5 -1.07102
      vertex -2.91246 2.5 -0.883972
    endloop
  endfacet
  facet normal 0.82708 0 -0.562085
    outer loop
      vertex -3.03958 2.5 -1.07102
      vertex -2.91246 -2.5 -0.883972
      vertex -3.03958 -2.5 -1.07102
    endloop
  endfacet
  facet normal 0.397147 0 -0.917755
    outer loop
      vertex -1.53281 -2.5 0.257377
      vertex -1.32525 2.5 0.347195
      vertex -1.32525 -2.5 0.347195
    endloop
  endfacet
  facet normal 0.397147 0 -0.917755
    outer loop
      vertex -1.32525 2.5 0.347195
      vertex -1.53281 -2.5 0.257377
      vertex -1.53281 2.5 0.257377
    endloop
  endfacet
  facet normal 0.453992 0 -0.891006
    outer loop
      vertex -1.73431 -2.5 0.154703
      vertex -1.53281 2.5 0.257377
      vertex -1.53281 -2.5 0.257377
    endloop
  endfacet
  facet normal 0.453992 0 -0.891006
    outer loop
      vertex -1.53281 2.5 0.257377
      vertex -1.73431 -2.5 0.154703
      vertex -1.73431 2.5 0.154703
    endloop
  endfacet
  facet normal -0.218143 0 -0.975917
    outer loop
      vertex 0.674572 -2.5 0.536234
      vertex 0.895283 2.5 0.486899
      vertex 0.895283 -2.5 0.486899
    endloop
  endfacet
  facet normal -0.218143 0 -0.975917
    outer loop
      vertex 0.895283 2.5 0.486899
      vertex 0.674572 -2.5 0.536234
      vertex 0.674572 2.5 0.536234
    endloop
  endfacet
  facet normal -0.707107 0 -0.707107
    outer loop
      vertex 2.62429 -2.5 -0.53563
      vertex 2.46437 2.5 -0.375712
      vertex 2.62429 2.5 -0.53563
    endloop
  endfacet
  facet normal -0.707107 -0 -0.707107
    outer loop
      vertex 2.46437 2.5 -0.375712
      vertex 2.62429 -2.5 -0.53563
      vertex 2.46437 -2.5 -0.375712
    endloop
  endfacet
  facet normal -0.891006 0 -0.453992
    outer loop
      vertex 3.25738 -2.5 -1.46719
      vertex 3.1547 2.5 -1.26569
      vertex 3.25738 2.5 -1.46719
    endloop
  endfacet
  facet normal -0.891006 -0 -0.453992
    outer loop
      vertex 3.1547 2.5 -1.26569
      vertex 3.25738 -2.5 -1.46719
      vertex 3.1547 -2.5 -1.26569
    endloop
  endfacet
  facet normal 0.790155 0 -0.612907
    outer loop
      vertex -2.77385 -2.5 -0.705274
      vertex -2.91246 2.5 -0.883972
      vertex -2.77385 2.5 -0.705274
    endloop
  endfacet
  facet normal 0.790155 0 -0.612907
    outer loop
      vertex -2.91246 2.5 -0.883972
      vertex -2.77385 -2.5 -0.705274
      vertex -2.91246 -2.5 -0.883972
    endloop
  endfacet
endsolid OpenSCAD_Model
