solid OpenSCAD_Model
  facet normal -1 0 0
    outer loop
      vertex -5 -2.5 -2.5
      vertex -5 2.5 2.5
      vertex -5 2.5 -2.5
    endloop
  endfacet
  facet normal -1 -0 0
    outer loop
      vertex -5 2.5 2.5
      vertex -5 -2.5 -2.5
      vertex -5 -2.5 2.5
    endloop
  endfacet
  facet normal -0 0 1
    outer loop
      vertex -5 2.5 2.5
      vertex 5 -2.5 2.5
      vertex 5 2.5 2.5
    endloop
  endfacet
  facet normal 0 0 1
    outer loop
      vertex 5 -2.5 2.5
      vertex -5 2.5 2.5
      vertex -5 -2.5 2.5
    endloop
  endfacet
  facet normal 1 -0 0
    outer loop
      vertex 5 -2.5 2.5
      vertex 5 2.5 -2.5
      vertex 5 2.5 2.5
    endloop
  endfacet
  facet normal 1 0 0
    outer loop
      vertex 5 2.5 -2.5
      vertex 5 -2.5 2.5
      vertex 5 -2.5 -2.5
    endloop
  endfacet
  facet normal 0 1 0
    outer loop
      vertex 5 2.5 2.5
      vertex 0 2.5 0.799999
      vertex -5 2.5 2.5
    endloop
  endfacet
  facet normal 0 1 0
    outer loop
      vertex 5 2.5 2.5
      vertex 0.219767 2.5 0.793093
      vertex 0 2.5 0.799999
    endloop
  endfacet
  facet normal 0 1 0
    outer loop
      vertex 5 2.5 2.5
      vertex 0.438665 2.5 0.772401
      vertex 0.219767 2.5 0.793093
    endloop
  endfacet
  facet normal 0 1 0
    outer loop
      vertex 5 2.5 2.5
      vertex 0.655834 2.5 0.738005
      vertex 0.438665 2.5 0.772401
    endloop
  endfacet
  facet normal 0 1 0
    outer loop
      vertex 5 2.5 2.5
      vertex 0.870414 2.5 0.690041
      vertex 0.655834 2.5 0.738005
    endloop
  endfacet
  facet normal 0 1 0
    outer loop
      vertex 5 2.5 2.5
      vertex 1.08156 2.5 0.628697
      vertex 0.870414 2.5 0.690041
    endloop
  endfacet
  facet normal 0 1 0
    outer loop
      vertex 5 2.5 2.5
      vertex 1.28843 2.5 0.554217
      vertex 1.08156 2.5 0.628697
    endloop
  endfacet
  facet normal 0 1 0
    outer loop
      vertex 5 2.5 2.5
      vertex 1.49023 2.5 0.466894
      vertex 1.28843 2.5 0.554217
    endloop
  endfacet
  facet normal 0 1 0
    outer loop
      vertex 5 2.5 2.5
      vertex 1.68614 2.5 0.367073
      vertex 1.49023 2.5 0.466894
    endloop
  endfacet
  facet normal 0 1 0
    outer loop
      vertex 5 2.5 2.5
      vertex 1.87539 2.5 0.255147
      vertex 1.68614 2.5 0.367073
    endloop
  endfacet
  facet normal 0 1 0
    outer loop
      vertex 5 2.5 2.5
      vertex 2.05725 2.5 0.131559
      vertex 1.87539 2.5 0.255147
    endloop
  endfacet
  facet normal 0 1 0
    outer loop
      vertex 5 2.5 2.5
      vertex 2.23098 2.5 -0.00320339
      vertex 2.05725 2.5 0.131559
    endloop
  endfacet
  facet normal 0 1 0
    outer loop
      vertex 5 2.5 2.5
      vertex 2.39591 2.5 -0.148609
      vertex 2.23098 2.5 -0.00320339
    endloop
  endfacet
  facet normal 0 1 0
    outer loop
      vertex 5 2.5 2.5
      vertex 2.55139 2.5 -0.304085
      vertex 2.39591 2.5 -0.148609
    endloop
  endfacet
  facet normal 0 1 0
    outer loop
      vertex 5 2.5 2.5
      vertex 2.6968 2.5 -0.469015
      vertex 2.55139 2.5 -0.304085
    endloop
  endfacet
  facet normal 0 1 0
    outer loop
      vertex 5 2.5 2.5
      vertex 2.83156 2.5 -0.642751
      vertex 2.6968 2.5 -0.469015
    endloop
  endfacet
  facet normal 0 1 0
    outer loop
      vertex 5 2.5 2.5
      vertex 2.95515 2.5 -0.824606
      vertex 2.83156 2.5 -0.642751
    endloop
  endfacet
  facet normal 0 1 0
    outer loop
      vertex 5 2.5 2.5
      vertex 3.06707 2.5 -1.01386
      vertex 2.95515 2.5 -0.824606
    endloop
  endfacet
  facet normal 0 1 0
    outer loop
      vertex 5 2.5 2.5
      vertex 3.16689 2.5 -1.20977
      vertex 3.06707 2.5 -1.01386
    endloop
  endfacet
  facet normal 0 1 -0
    outer loop
      vertex 5 2.5 -2.5
      vertex 3.16689 2.5 -1.20977
      vertex 5 2.5 2.5
    endloop
  endfacet
  facet normal 0 1 0
    outer loop
      vertex 3.16689 2.5 -1.20977
      vertex 5 2.5 -2.5
      vertex 3.25422 2.5 -1.41156
    endloop
  endfacet
  facet normal 0 1 0
    outer loop
      vertex 3.25422 2.5 -1.41156
      vertex 5 2.5 -2.5
      vertex 3.3287 2.5 -1.61844
    endloop
  endfacet
  facet normal 0 1 0
    outer loop
      vertex 3.3287 2.5 -1.61844
      vertex 5 2.5 -2.5
      vertex 3.39004 2.5 -1.82959
    endloop
  endfacet
  facet normal 0 1 0
    outer loop
      vertex 3.39004 2.5 -1.82959
      vertex 5 2.5 -2.5
      vertex 3.438 2.5 -2.04416
    endloop
  endfacet
  facet normal 0 1 0
    outer loop
      vertex 3.438 2.5 -2.04416
      vertex 5 2.5 -2.5
      vertex 3.4724 2.5 -2.26133
    endloop
  endfacet
  facet normal 0 1 0
    outer loop
      vertex 3.4724 2.5 -2.26133
      vertex 5 2.5 -2.5
      vertex 3.49309 2.5 -2.48023
    endloop
  endfacet
  facet normal 0 1 0
    outer loop
      vertex 3.49309 2.5 -2.48023
      vertex 5 2.5 -2.5
      vertex 3.49371 2.5 -2.5
    endloop
  endfacet
  facet normal 0 1 -0
    outer loop
      vertex -0.219767 2.5 0.793093
      vertex -5 2.5 2.5
      vertex 0 2.5 0.799999
    endloop
  endfacet
  facet normal 0 1 -0
    outer loop
      vertex -0.438665 2.5 0.772401
      vertex -5 2.5 2.5
      vertex -0.219767 2.5 0.793093
    endloop
  endfacet
  facet normal 0 1 -0
    outer loop
      vertex -0.655834 2.5 0.738005
      vertex -5 2.5 2.5
      vertex -0.438665 2.5 0.772401
    endloop
  endfacet
  facet normal 0 1 -0
    outer loop
      vertex -0.870414 2.5 0.690041
      vertex -5 2.5 2.5
      vertex -0.655834 2.5 0.738005
    endloop
  endfacet
  facet normal 0 1 -0
    outer loop
      vertex -1.08156 2.5 0.628697
      vertex -5 2.5 2.5
      vertex -0.870414 2.5 0.690041
    endloop
  endfacet
  facet normal 0 1 -0
    outer loop
      vertex -1.28843 2.5 0.554217
      vertex -5 2.5 2.5
      vertex -1.08156 2.5 0.628697
    endloop
  endfacet
  facet normal 0 1 -0
    outer loop
      vertex -1.49023 2.5 0.466894
      vertex -5 2.5 2.5
      vertex -1.28843 2.5 0.554217
    endloop
  endfacet
  facet normal 0 1 -0
    outer loop
      vertex -1.68614 2.5 0.367073
      vertex -5 2.5 2.5
      vertex -1.49023 2.5 0.466894
    endloop
  endfacet
  facet normal 0 1 -0
    outer loop
      vertex -1.87539 2.5 0.255147
      vertex -5 2.5 2.5
      vertex -1.68614 2.5 0.367073
    endloop
  endfacet
  facet normal 0 1 -0
    outer loop
      vertex -2.05725 2.5 0.131559
      vertex -5 2.5 2.5
      vertex -1.87539 2.5 0.255147
    endloop
  endfacet
  facet normal 0 1 -0
    outer loop
      vertex -2.23098 2.5 -0.00320339
      vertex -5 2.5 2.5
      vertex -2.05725 2.5 0.131559
    endloop
  endfacet
  facet normal 0 1 -0
    outer loop
      vertex -2.39591 2.5 -0.148609
      vertex -5 2.5 2.5
      vertex -2.23098 2.5 -0.00320339
    endloop
  endfacet
  facet normal 0 1 -0
    outer loop
      vertex -2.55139 2.5 -0.304085
      vertex -5 2.5 2.5
      vertex -2.39591 2.5 -0.148609
    endloop
  endfacet
  facet normal 0 1 -0
    outer loop
      vertex -2.6968 2.5 -0.469015
      vertex -5 2.5 2.5
      vertex -2.55139 2.5 -0.304085
    endloop
  endfacet
  facet normal 0 1 -0
    outer loop
      vertex -2.83156 2.5 -0.642751
      vertex -5 2.5 2.5
      vertex -2.6968 2.5 -0.469015
    endloop
  endfacet
  facet normal 0 1 -0
    outer loop
      vertex -2.95515 2.5 -0.824606
      vertex -5 2.5 2.5
      vertex -2.83156 2.5 -0.642751
    endloop
  endfacet
  facet normal 0 1 -0
    outer loop
      vertex -3.06707 2.5 -1.01386
      vertex -5 2.5 2.5
      vertex -2.95515 2.5 -0.824606
    endloop
  endfacet
  facet normal 0 1 -0
    outer loop
      vertex -3.16689 2.5 -1.20977
      vertex -5 2.5 2.5
      vertex -3.06707 2.5 -1.01386
    endloop
  endfacet
  facet normal 0 1 0
    outer loop
      vertex -5 2.5 -2.5
      vertex -3.16689 2.5 -1.20977
      vertex -3.25422 2.5 -1.41156
    endloop
  endfacet
  facet normal 0 1 0
    outer loop
      vertex -5 2.5 -2.5
      vertex -3.25422 2.5 -1.41156
      vertex -3.3287 2.5 -1.61844
    endloop
  endfacet
  facet normal 0 1 0
    outer loop
      vertex -5 2.5 -2.5
      vertex -3.3287 2.5 -1.61844
      vertex -3.39004 2.5 -1.82959
    endloop
  endfacet
  facet normal 0 1 0
    outer loop
      vertex -5 2.5 -2.5
      vertex -3.39004 2.5 -1.82959
      vertex -3.438 2.5 -2.04416
    endloop
  endfacet
  facet normal 0 1 0
    outer loop
      vertex -5 2.5 -2.5
      vertex -3.438 2.5 -2.04416
      vertex -3.4724 2.5 -2.26133
    endloop
  endfacet
  facet normal 0 1 0
    outer loop
      vertex -5 2.5 -2.5
      vertex -3.4724 2.5 -2.26133
      vertex -3.49309 2.5 -2.48023
    endloop
  endfacet
  facet normal 0 1 0
    outer loop
      vertex -5 2.5 -2.5
      vertex -3.49309 2.5 -2.48023
      vertex -3.49371 2.5 -2.5
    endloop
  endfacet
  facet normal 0 1 0
    outer loop
      vertex -3.16689 2.5 -1.20977
      vertex -5 2.5 -2.5
      vertex -5 2.5 2.5
    endloop
  endfacet
  facet normal 0 0 -1
    outer loop
      vertex -5 -2.5 -2.5
      vertex -3.49371 2.5 -2.5
      vertex -3.49371 -2.5 -2.5
    endloop
  endfacet
  facet normal -0 0 -1
    outer loop
      vertex -3.49371 2.5 -2.5
      vertex -5 -2.5 -2.5
      vertex -5 2.5 -2.5
    endloop
  endfacet
  facet normal 0 0 -1
    outer loop
      vertex 3.49371 -2.5 -2.5
      vertex 5 2.5 -2.5
      vertex 5 -2.5 -2.5
    endloop
  endfacet
  facet normal -0 0 -1
    outer loop
      vertex 5 2.5 -2.5
      vertex 3.49371 -2.5 -2.5
      vertex 3.49371 2.5 -2.5
    endloop
  endfacet
  facet normal 0 -1 0
    outer loop
      vertex -5 -2.5 2.5
      vertex 0 -2.5 0.799999
      vertex 5 -2.5 2.5
    endloop
  endfacet
  facet normal 0 -1 0
    outer loop
      vertex -5 -2.5 2.5
      vertex -0.219767 -2.5 0.793093
      vertex 0 -2.5 0.799999
    endloop
  endfacet
  facet normal 0 -1 0
    outer loop
      vertex -5 -2.5 2.5
      vertex -0.438665 -2.5 0.772401
      vertex -0.219767 -2.5 0.793093
    endloop
  endfacet
  facet normal 0 -1 0
    outer loop
      vertex -5 -2.5 2.5
      vertex -0.655834 -2.5 0.738005
      vertex -0.438665 -2.5 0.772401
    endloop
  endfacet
  facet normal 0 -1 0
    outer loop
      vertex -5 -2.5 2.5
      vertex -0.870414 -2.5 0.690041
      vertex -0.655834 -2.5 0.738005
    endloop
  endfacet
  facet normal 0 -1 0
    outer loop
      vertex -5 -2.5 2.5
      vertex -1.08156 -2.5 0.628697
      vertex -0.870414 -2.5 0.690041
    endloop
  endfacet
  facet normal 0 -1 0
    outer loop
      vertex -5 -2.5 2.5
      vertex -1.28843 -2.5 0.554217
      vertex -1.08156 -2.5 0.628697
    endloop
  endfacet
  facet normal 0 -1 0
    outer loop
      vertex -5 -2.5 2.5
      vertex -1.49023 -2.5 0.466894
      vertex -1.28843 -2.5 0.554217
    endloop
  endfacet
  facet normal 0 -1 0
    outer loop
      vertex -5 -2.5 2.5
      vertex -1.68614 -2.5 0.367073
      vertex -1.49023 -2.5 0.466894
    endloop
  endfacet
  facet normal 0 -1 0
    outer loop
      vertex -5 -2.5 2.5
      vertex -1.87539 -2.5 0.255147
      vertex -1.68614 -2.5 0.367073
    endloop
  endfacet
  facet normal 0 -1 0
    outer loop
      vertex -5 -2.5 2.5
      vertex -2.05725 -2.5 0.131559
      vertex -1.87539 -2.5 0.255147
    endloop
  endfacet
  facet normal 0 -1 0
    outer loop
      vertex -5 -2.5 2.5
      vertex -2.23098 -2.5 -0.00320339
      vertex -2.05725 -2.5 0.131559
    endloop
  endfacet
  facet normal 0 -1 0
    outer loop
      vertex -5 -2.5 2.5
      vertex -2.39591 -2.5 -0.148609
      vertex -2.23098 -2.5 -0.00320339
    endloop
  endfacet
  facet normal 0 -1 0
    outer loop
      vertex -5 -2.5 2.5
      vertex -2.55139 -2.5 -0.304085
      vertex -2.39591 -2.5 -0.148609
    endloop
  endfacet
  facet normal 0 -1 0
    outer loop
      vertex -5 -2.5 2.5
      vertex -2.6968 -2.5 -0.469015
      vertex -2.55139 -2.5 -0.304085
    endloop
  endfacet
  facet normal 0 -1 0
    outer loop
      vertex -5 -2.5 2.5
      vertex -2.83156 -2.5 -0.642751
      vertex -2.6968 -2.5 -0.469015
    endloop
  endfacet
  facet normal 0 -1 0
    outer loop
      vertex -5 -2.5 2.5
      vertex -2.95515 -2.5 -0.824606
      vertex -2.83156 -2.5 -0.642751
    endloop
  endfacet
  facet normal 0 -1 0
    outer loop
      vertex -5 -2.5 2.5
      vertex -3.06707 -2.5 -1.01386
      vertex -2.95515 -2.5 -0.824606
    endloop
  endfacet
  facet normal 0 -1 0
    outer loop
      vertex -5 -2.5 2.5
      vertex -3.16689 -2.5 -1.20977
      vertex -3.06707 -2.5 -1.01386
    endloop
  endfacet
  facet normal 0 -1 0
    outer loop
      vertex -5 -2.5 -2.5
      vertex -3.16689 -2.5 -1.20977
      vertex -5 -2.5 2.5
    endloop
  endfacet
  facet normal 0 -1 0
    outer loop
      vertex -3.16689 -2.5 -1.20977
      vertex -5 -2.5 -2.5
      vertex -3.25422 -2.5 -1.41156
    endloop
  endfacet
  facet normal 0 -1 0
    outer loop
      vertex -3.25422 -2.5 -1.41156
      vertex -5 -2.5 -2.5
      vertex -3.3287 -2.5 -1.61844
    endloop
  endfacet
  facet normal 0 -1 0
    outer loop
      vertex -3.3287 -2.5 -1.61844
      vertex -5 -2.5 -2.5
      vertex -3.39004 -2.5 -1.82959
    endloop
  endfacet
  facet normal 0 -1 0
    outer loop
      vertex -3.39004 -2.5 -1.82959
      vertex -5 -2.5 -2.5
      vertex -3.438 -2.5 -2.04416
    endloop
  endfacet
  facet normal 0 -1 0
    outer loop
      vertex -3.438 -2.5 -2.04416
      vertex -5 -2.5 -2.5
      vertex -3.4724 -2.5 -2.26133
    endloop
  endfacet
  facet normal 0 -1 0
    outer loop
      vertex -3.4724 -2.5 -2.26133
      vertex -5 -2.5 -2.5
      vertex -3.49309 -2.5 -2.48023
    endloop
  endfacet
  facet normal 0 -1 0
    outer loop
      vertex -3.49309 -2.5 -2.48023
      vertex -5 -2.5 -2.5
      vertex -3.49371 -2.5 -2.5
    endloop
  endfacet
  facet normal 0 -1 0
    outer loop
      vertex 0.219767 -2.5 0.793093
      vertex 5 -2.5 2.5
      vertex 0 -2.5 0.799999
    endloop
  endfacet
  facet normal 0 -1 0
    outer loop
      vertex 0.438665 -2.5 0.772401
      vertex 5 -2.5 2.5
      vertex 0.219767 -2.5 0.793093
    endloop
  endfacet
  facet normal 0 -1 0
    outer loop
      vertex 0.655834 -2.5 0.738005
      vertex 5 -2.5 2.5
      vertex 0.438665 -2.5 0.772401
    endloop
  endfacet
  facet normal 0 -1 0
    outer loop
      vertex 0.870414 -2.5 0.690041
      vertex 5 -2.5 2.5
      vertex 0.655834 -2.5 0.738005
    endloop
  endfacet
  facet normal 0 -1 0
    outer loop
      vertex 1.08156 -2.5 0.628697
      vertex 5 -2.5 2.5
      vertex 0.870414 -2.5 0.690041
    endloop
  endfacet
  facet normal 0 -1 0
    outer loop
      vertex 1.28843 -2.5 0.554217
      vertex 5 -2.5 2.5
      vertex 1.08156 -2.5 0.628697
    endloop
  endfacet
  facet normal 0 -1 0
    outer loop
      vertex 1.49023 -2.5 0.466894
      vertex 5 -2.5 2.5
      vertex 1.28843 -2.5 0.554217
    endloop
  endfacet
  facet normal 0 -1 0
    outer loop
      vertex 1.68614 -2.5 0.367073
      vertex 5 -2.5 2.5
      vertex 1.49023 -2.5 0.466894
    endloop
  endfacet
  facet normal 0 -1 0
    outer loop
      vertex 1.87539 -2.5 0.255147
      vertex 5 -2.5 2.5
      vertex 1.68614 -2.5 0.367073
    endloop
  endfacet
  facet normal 0 -1 0
    outer loop
      vertex 2.05725 -2.5 0.131559
      vertex 5 -2.5 2.5
      vertex 1.87539 -2.5 0.255147
    endloop
  endfacet
  facet normal 0 -1 0
    outer loop
      vertex 2.23098 -2.5 -0.00320339
      vertex 5 -2.5 2.5
      vertex 2.05725 -2.5 0.131559
    endloop
  endfacet
  facet normal 0 -1 0
    outer loop
      vertex 2.39591 -2.5 -0.148609
      vertex 5 -2.5 2.5
      vertex 2.23098 -2.5 -0.00320339
    endloop
  endfacet
  facet normal 0 -1 0
    outer loop
      vertex 2.55139 -2.5 -0.304085
      vertex 5 -2.5 2.5
      vertex 2.39591 -2.5 -0.148609
    endloop
  endfacet
  facet normal 0 -1 0
    outer loop
      vertex 2.6968 -2.5 -0.469015
      vertex 5 -2.5 2.5
      vertex 2.55139 -2.5 -0.304085
    endloop
  endfacet
  facet normal 0 -1 0
    outer loop
      vertex 2.83156 -2.5 -0.642751
      vertex 5 -2.5 2.5
      vertex 2.6968 -2.5 -0.469015
    endloop
  endfacet
  facet normal 0 -1 0
    outer loop
      vertex 2.95515 -2.5 -0.824606
      vertex 5 -2.5 2.5
      vertex 2.83156 -2.5 -0.642751
    endloop
  endfacet
  facet normal 0 -1 0
    outer loop
      vertex 3.06707 -2.5 -1.01386
      vertex 5 -2.5 2.5
      vertex 2.95515 -2.5 -0.824606
    endloop
  endfacet
  facet normal 0 -1 0
    outer loop
      vertex 3.16689 -2.5 -1.20977
      vertex 5 -2.5 2.5
      vertex 3.06707 -2.5 -1.01386
    endloop
  endfacet
  facet normal 0 -1 0
    outer loop
      vertex 5 -2.5 -2.5
      vertex 3.16689 -2.5 -1.20977
      vertex 3.25422 -2.5 -1.41156
    endloop
  endfacet
  facet normal 0 -1 0
    outer loop
      vertex 5 -2.5 -2.5
      vertex 3.25422 -2.5 -1.41156
      vertex 3.3287 -2.5 -1.61844
    endloop
  endfacet
  facet normal 0 -1 0
    outer loop
      vertex 5 -2.5 -2.5
      vertex 3.3287 -2.5 -1.61844
      vertex 3.39004 -2.5 -1.82959
    endloop
  endfacet
  facet normal 0 -1 0
    outer loop
      vertex 5 -2.5 -2.5
      vertex 3.39004 -2.5 -1.82959
      vertex 3.438 -2.5 -2.04416
    endloop
  endfacet
  facet normal 0 -1 0
    outer loop
      vertex 5 -2.5 -2.5
      vertex 3.438 -2.5 -2.04416
      vertex 3.4724 -2.5 -2.26133
    endloop
  endfacet
  facet normal 0 -1 0
    outer loop
      vertex 5 -2.5 -2.5
      vertex 3.4724 -2.5 -2.26133
      vertex 3.49309 -2.5 -2.48023
    endloop
  endfacet
  facet normal 0 -1 0
    outer loop
      vertex 5 -2.5 -2.5
      vertex 3.49309 -2.5 -2.48023
      vertex 3.49371 -2.5 -2.5
    endloop
  endfacet
  facet normal 0 -1 0
    outer loop
      vertex 3.16689 -2.5 -1.20977
      vertex 5 -2.5 -2.5
      vertex 5 -2.5 2.5
    endloop
  endfacet
  facet normal -0.999506 0 -0.0314154
    outer loop
      vertex 3.49371 -2.5 -2.5
      vertex 3.49309 2.5 -2.48023
      vertex 3.49371 2.5 -2.5
    endloop
  endfacet
  facet normal -0.999506 -0 -0.0314154
    outer loop
      vertex 3.49309 2.5 -2.48023
      vertex 3.49371 -2.5 -2.5
      vertex 3.49309 -2.5 -2.48023
    endloop
  endfacet
  facet normal -0.975917 0 -0.218143
    outer loop
      vertex 3.438 -2.5 -2.04416
      vertex 3.39004 2.5 -1.82959
      vertex 3.438 2.5 -2.04416
    endloop
  endfacet
  facet normal -0.975917 -0 -0.218143
    outer loop
      vertex 3.39004 2.5 -1.82959
      vertex 3.438 -2.5 -2.04416
      vertex 3.39004 -2.5 -1.82959
    endloop
  endfacet
  facet normal 0.999506 0 -0.0314154
    outer loop
      vertex -3.49309 -2.5 -2.48023
      vertex -3.49371 2.5 -2.5
      vertex -3.49309 2.5 -2.48023
    endloop
  endfacet
  facet normal 0.999506 0 -0.0314154
    outer loop
      vertex -3.49371 2.5 -2.5
      vertex -3.49309 -2.5 -2.48023
      vertex -3.49371 -2.5 -2.5
    endloop
  endfacet
  facet normal -0.995562 0 -0.0941119
    outer loop
      vertex 3.49309 -2.5 -2.48023
      vertex 3.4724 2.5 -2.26133
      vertex 3.49309 2.5 -2.48023
    endloop
  endfacet
  facet normal -0.995562 -0 -0.0941119
    outer loop
      vertex 3.4724 2.5 -2.26133
      vertex 3.49309 -2.5 -2.48023
      vertex 3.4724 -2.5 -2.26133
    endloop
  endfacet
  facet normal -0.987688 0 -0.156435
    outer loop
      vertex 3.4724 -2.5 -2.26133
      vertex 3.438 2.5 -2.04416
      vertex 3.4724 2.5 -2.26133
    endloop
  endfacet
  facet normal -0.987688 -0 -0.156435
    outer loop
      vertex 3.438 2.5 -2.04416
      vertex 3.4724 -2.5 -2.26133
      vertex 3.438 -2.5 -2.04416
    endloop
  endfacet
  facet normal -0.0314111 0 -0.999507
    outer loop
      vertex 0 -2.5 0.799999
      vertex 0.219767 2.5 0.793093
      vertex 0.219767 -2.5 0.793093
    endloop
  endfacet
  facet normal -0.0314111 0 -0.999507
    outer loop
      vertex 0.219767 2.5 0.793093
      vertex 0 -2.5 0.799999
      vertex 0 2.5 0.799999
    endloop
  endfacet
  facet normal 0.661312 0 -0.750111
    outer loop
      vertex -2.39591 -2.5 -0.148609
      vertex -2.23098 2.5 -0.00320339
      vertex -2.23098 -2.5 -0.00320339
    endloop
  endfacet
  facet normal 0.661312 0 -0.750111
    outer loop
      vertex -2.23098 2.5 -0.00320339
      vertex -2.39591 -2.5 -0.148609
      vertex -2.39591 2.5 -0.148609
    endloop
  endfacet
  facet normal -0.661312 0 -0.750111
    outer loop
      vertex 2.23098 -2.5 -0.00320339
      vertex 2.39591 2.5 -0.148609
      vertex 2.39591 -2.5 -0.148609
    endloop
  endfacet
  facet normal -0.661312 0 -0.750111
    outer loop
      vertex 2.39591 2.5 -0.148609
      vertex 2.23098 -2.5 -0.00320339
      vertex 2.23098 2.5 -0.00320339
    endloop
  endfacet
  facet normal -0.338739 0 -0.940881
    outer loop
      vertex 1.08156 -2.5 0.628697
      vertex 1.28843 2.5 0.554217
      vertex 1.28843 -2.5 0.554217
    endloop
  endfacet
  facet normal -0.338739 0 -0.940881
    outer loop
      vertex 1.28843 2.5 0.554217
      vertex 1.08156 -2.5 0.628697
      vertex 1.08156 2.5 0.628697
    endloop
  endfacet
  facet normal 0.987688 0 -0.156435
    outer loop
      vertex -3.438 -2.5 -2.04416
      vertex -3.4724 2.5 -2.26133
      vertex -3.438 2.5 -2.04416
    endloop
  endfacet
  facet normal 0.987688 0 -0.156435
    outer loop
      vertex -3.4724 2.5 -2.26133
      vertex -3.438 -2.5 -2.04416
      vertex -3.4724 -2.5 -2.26133
    endloop
  endfacet
  facet normal 0.995562 0 -0.0941119
    outer loop
      vertex -3.4724 -2.5 -2.26133
      vertex -3.49309 2.5 -2.48023
      vertex -3.4724 2.5 -2.26133
    endloop
  endfacet
  facet normal 0.995562 0 -0.0941119
    outer loop
      vertex -3.49309 2.5 -2.48023
      vertex -3.4724 -2.5 -2.26133
      vertex -3.49309 -2.5 -2.48023
    endloop
  endfacet
  facet normal -0.917754 0 -0.397148
    outer loop
      vertex 3.25422 -2.5 -1.41156
      vertex 3.16689 2.5 -1.20977
      vertex 3.25422 2.5 -1.41156
    endloop
  endfacet
  facet normal -0.917754 -0 -0.397148
    outer loop
      vertex 3.16689 2.5 -1.20977
      vertex 3.25422 -2.5 -1.41156
      vertex 3.16689 -2.5 -1.20977
    endloop
  endfacet
  facet normal 0.338739 0 -0.940881
    outer loop
      vertex -1.28843 -2.5 0.554217
      vertex -1.08156 2.5 0.628697
      vertex -1.08156 -2.5 0.628697
    endloop
  endfacet
  facet normal 0.338739 0 -0.940881
    outer loop
      vertex -1.08156 2.5 0.628697
      vertex -1.28843 -2.5 0.554217
      vertex -1.28843 2.5 0.554217
    endloop
  endfacet
  facet normal -0.0941076 0 -0.995562
    outer loop
      vertex 0.219767 -2.5 0.793093
      vertex 0.438665 2.5 0.772401
      vertex 0.438665 -2.5 0.772401
    endloop
  endfacet
  facet normal -0.0941076 0 -0.995562
    outer loop
      vertex 0.438665 2.5 0.772401
      vertex 0.219767 -2.5 0.793093
      vertex 0.219767 2.5 0.793093
    endloop
  endfacet
  facet normal 0.707107 0 -0.707107
    outer loop
      vertex -2.39591 -2.5 -0.148609
      vertex -2.55139 2.5 -0.304085
      vertex -2.39591 2.5 -0.148609
    endloop
  endfacet
  facet normal 0.707107 0 -0.707107
    outer loop
      vertex -2.55139 2.5 -0.304085
      vertex -2.39591 -2.5 -0.148609
      vertex -2.55139 -2.5 -0.304085
    endloop
  endfacet
  facet normal 0.940881 0 -0.338739
    outer loop
      vertex -3.25422 -2.5 -1.41156
      vertex -3.3287 2.5 -1.61844
      vertex -3.25422 2.5 -1.41156
    endloop
  endfacet
  facet normal 0.940881 0 -0.338739
    outer loop
      vertex -3.3287 2.5 -1.61844
      vertex -3.25422 -2.5 -1.41156
      vertex -3.3287 -2.5 -1.61844
    endloop
  endfacet
  facet normal 0.56208 0 -0.827083
    outer loop
      vertex -2.05725 -2.5 0.131559
      vertex -1.87539 2.5 0.255147
      vertex -1.87539 -2.5 0.255147
    endloop
  endfacet
  facet normal 0.56208 0 -0.827083
    outer loop
      vertex -1.87539 2.5 0.255147
      vertex -2.05725 -2.5 0.131559
      vertex -2.05725 2.5 0.131559
    endloop
  endfacet
  facet normal 0.156435 0 -0.987688
    outer loop
      vertex -0.655834 -2.5 0.738005
      vertex -0.438665 2.5 0.772401
      vertex -0.438665 -2.5 0.772401
    endloop
  endfacet
  facet normal 0.156435 0 -0.987688
    outer loop
      vertex -0.438665 2.5 0.772401
      vertex -0.655834 -2.5 0.738005
      vertex -0.655834 2.5 0.738005
    endloop
  endfacet
  facet normal 0.860741 0 -0.509043
    outer loop
      vertex -2.95515 -2.5 -0.824606
      vertex -3.06707 2.5 -1.01386
      vertex -2.95515 2.5 -0.824606
    endloop
  endfacet
  facet normal 0.860741 0 -0.509043
    outer loop
      vertex -3.06707 2.5 -1.01386
      vertex -2.95515 -2.5 -0.824606
      vertex -3.06707 -2.5 -1.01386
    endloop
  endfacet
  facet normal 0.960294 0 -0.27899
    outer loop
      vertex -3.3287 -2.5 -1.61844
      vertex -3.39004 2.5 -1.82959
      vertex -3.3287 2.5 -1.61844
    endloop
  endfacet
  facet normal 0.960294 0 -0.27899
    outer loop
      vertex -3.39004 2.5 -1.82959
      vertex -3.3287 -2.5 -1.61844
      vertex -3.39004 -2.5 -1.82959
    endloop
  endfacet
  facet normal 0.0941076 0 -0.995562
    outer loop
      vertex -0.438665 -2.5 0.772401
      vertex -0.219767 2.5 0.793093
      vertex -0.219767 -2.5 0.793093
    endloop
  endfacet
  facet normal 0.0941076 0 -0.995562
    outer loop
      vertex -0.219767 2.5 0.793093
      vertex -0.438665 -2.5 0.772401
      vertex -0.438665 2.5 0.772401
    endloop
  endfacet
  facet normal 0.0314111 0 -0.999507
    outer loop
      vertex -0.219767 -2.5 0.793093
      vertex 0 2.5 0.799999
      vertex 0 -2.5 0.799999
    endloop
  endfacet
  facet normal 0.0314111 0 -0.999507
    outer loop
      vertex 0 2.5 0.799999
      vertex -0.219767 -2.5 0.793093
      vertex -0.219767 2.5 0.793093
    endloop
  endfacet
  facet normal -0.218143 0 -0.975917
    outer loop
      vertex 0.655834 -2.5 0.738005
      vertex 0.870414 2.5 0.690041
      vertex 0.870414 -2.5 0.690041
    endloop
  endfacet
  facet normal -0.218143 0 -0.975917
    outer loop
      vertex 0.870414 2.5 0.690041
      vertex 0.655834 -2.5 0.738005
      vertex 0.655834 2.5 0.738005
    endloop
  endfacet
  facet normal -0.509043 0 -0.860741
    outer loop
      vertex 1.68614 -2.5 0.367073
      vertex 1.87539 2.5 0.255147
      vertex 1.87539 -2.5 0.255147
    endloop
  endfacet
  facet normal -0.509043 0 -0.860741
    outer loop
      vertex 1.87539 2.5 0.255147
      vertex 1.68614 -2.5 0.367073
      vertex 1.68614 2.5 0.367073
    endloop
  endfacet
  facet normal -0.56208 0 -0.827083
    outer loop
      vertex 1.87539 -2.5 0.255147
      vertex 2.05725 2.5 0.131559
      vertex 2.05725 -2.5 0.131559
    endloop
  endfacet
  facet normal -0.56208 0 -0.827083
    outer loop
      vertex 2.05725 2.5 0.131559
      vertex 1.87539 -2.5 0.255147
      vertex 1.87539 2.5 0.255147
    endloop
  endfacet
  facet normal -0.750111 0 -0.661312
    outer loop
      vertex 2.6968 -2.5 -0.469015
      vertex 2.55139 2.5 -0.304085
      vertex 2.6968 2.5 -0.469015
    endloop
  endfacet
  facet normal -0.750111 -0 -0.661312
    outer loop
      vertex 2.55139 2.5 -0.304085
      vertex 2.6968 -2.5 -0.469015
      vertex 2.55139 -2.5 -0.304085
    endloop
  endfacet
  facet normal -0.940881 0 -0.338739
    outer loop
      vertex 3.3287 -2.5 -1.61844
      vertex 3.25422 2.5 -1.41156
      vertex 3.3287 2.5 -1.61844
    endloop
  endfacet
  facet normal -0.940881 -0 -0.338739
    outer loop
      vertex 3.25422 2.5 -1.41156
      vertex 3.3287 -2.5 -1.61844
      vertex 3.25422 -2.5 -1.41156
    endloop
  endfacet
  facet normal -0.960294 0 -0.27899
    outer loop
      vertex 3.39004 -2.5 -1.82959
      vertex 3.3287 2.5 -1.61844
      vertex 3.39004 2.5 -1.82959
    endloop
  endfacet
  facet normal -0.960294 -0 -0.27899
    outer loop
      vertex 3.3287 2.5 -1.61844
      vertex 3.39004 -2.5 -1.82959
      vertex 3.3287 -2.5 -1.61844
    endloop
  endfacet
  facet normal 0.612906 0 -0.790156
    outer loop
      vertex -2.23098 -2.5 -0.00320339
      vertex -2.05725 2.5 0.131559
      vertex -2.05725 -2.5 0.131559
    endloop
  endfacet
  facet normal 0.612906 0 -0.790156
    outer loop
      vertex -2.05725 2.5 0.131559
      vertex -2.23098 -2.5 -0.00320339
      vertex -2.23098 2.5 -0.00320339
    endloop
  endfacet
  facet normal 0.509043 0 -0.860741
    outer loop
      vertex -1.87539 -2.5 0.255147
      vertex -1.68614 2.5 0.367073
      vertex -1.68614 -2.5 0.367073
    endloop
  endfacet
  facet normal 0.509043 0 -0.860741
    outer loop
      vertex -1.68614 2.5 0.367073
      vertex -1.87539 -2.5 0.255147
      vertex -1.87539 2.5 0.255147
    endloop
  endfacet
  facet normal 0.27899 0 -0.960294
    outer loop
      vertex -1.08156 -2.5 0.628697
      vertex -0.870414 2.5 0.690041
      vertex -0.870414 -2.5 0.690041
    endloop
  endfacet
  facet normal 0.27899 0 -0.960294
    outer loop
      vertex -0.870414 2.5 0.690041
      vertex -1.08156 -2.5 0.628697
      vertex -1.08156 2.5 0.628697
    endloop
  endfacet
  facet normal 0.790154 0 -0.612909
    outer loop
      vertex -2.6968 -2.5 -0.469015
      vertex -2.83156 2.5 -0.642751
      vertex -2.6968 2.5 -0.469015
    endloop
  endfacet
  facet normal 0.790154 0 -0.612909
    outer loop
      vertex -2.83156 2.5 -0.642751
      vertex -2.6968 -2.5 -0.469015
      vertex -2.83156 -2.5 -0.642751
    endloop
  endfacet
  facet normal 0.750111 0 -0.661312
    outer loop
      vertex -2.55139 -2.5 -0.304085
      vertex -2.6968 2.5 -0.469015
      vertex -2.55139 2.5 -0.304085
    endloop
  endfacet
  facet normal 0.750111 0 -0.661312
    outer loop
      vertex -2.6968 2.5 -0.469015
      vertex -2.55139 -2.5 -0.304085
      vertex -2.6968 -2.5 -0.469015
    endloop
  endfacet
  facet normal 0.975917 0 -0.218143
    outer loop
      vertex -3.39004 -2.5 -1.82959
      vertex -3.438 2.5 -2.04416
      vertex -3.39004 2.5 -1.82959
    endloop
  endfacet
  facet normal 0.975917 0 -0.218143
    outer loop
      vertex -3.438 2.5 -2.04416
      vertex -3.39004 -2.5 -1.82959
      vertex -3.438 -2.5 -2.04416
    endloop
  endfacet
  facet normal -0.27899 0 -0.960294
    outer loop
      vertex 0.870414 -2.5 0.690041
      vertex 1.08156 2.5 0.628697
      vertex 1.08156 -2.5 0.628697
    endloop
  endfacet
  facet normal -0.27899 0 -0.960294
    outer loop
      vertex 1.08156 2.5 0.628697
      vertex 0.870414 -2.5 0.690041
      vertex 0.870414 2.5 0.690041
    endloop
  endfacet
  facet normal -0.45399 0 -0.891007
    outer loop
      vertex 1.49023 -2.5 0.466894
      vertex 1.68614 2.5 0.367073
      vertex 1.68614 -2.5 0.367073
    endloop
  endfacet
  facet normal -0.45399 0 -0.891007
    outer loop
      vertex 1.68614 2.5 0.367073
      vertex 1.49023 -2.5 0.466894
      vertex 1.49023 2.5 0.466894
    endloop
  endfacet
  facet normal -0.397148 0 -0.917754
    outer loop
      vertex 1.28843 -2.5 0.554217
      vertex 1.49023 2.5 0.466894
      vertex 1.49023 -2.5 0.466894
    endloop
  endfacet
  facet normal -0.397148 0 -0.917754
    outer loop
      vertex 1.49023 2.5 0.466894
      vertex 1.28843 -2.5 0.554217
      vertex 1.28843 2.5 0.554217
    endloop
  endfacet
  facet normal -0.612906 0 -0.790156
    outer loop
      vertex 2.05725 -2.5 0.131559
      vertex 2.23098 2.5 -0.00320339
      vertex 2.23098 -2.5 -0.00320339
    endloop
  endfacet
  facet normal -0.612906 0 -0.790156
    outer loop
      vertex 2.23098 2.5 -0.00320339
      vertex 2.05725 -2.5 0.131559
      vertex 2.05725 2.5 0.131559
    endloop
  endfacet
  facet normal -0.891007 0 -0.45399
    outer loop
      vertex 3.16689 -2.5 -1.20977
      vertex 3.06707 2.5 -1.01386
      vertex 3.16689 2.5 -1.20977
    endloop
  endfacet
  facet normal -0.891007 -0 -0.45399
    outer loop
      vertex 3.06707 2.5 -1.01386
      vertex 3.16689 -2.5 -1.20977
      vertex 3.06707 -2.5 -1.01386
    endloop
  endfacet
  facet normal -0.860741 0 -0.509043
    outer loop
      vertex 3.06707 -2.5 -1.01386
      vertex 2.95515 2.5 -0.824606
      vertex 3.06707 2.5 -1.01386
    endloop
  endfacet
  facet normal -0.860741 -0 -0.509043
    outer loop
      vertex 2.95515 2.5 -0.824606
      vertex 3.06707 -2.5 -1.01386
      vertex 2.95515 -2.5 -0.824606
    endloop
  endfacet
  facet normal -0.827083 0 -0.56208
    outer loop
      vertex 2.95515 -2.5 -0.824606
      vertex 2.83156 2.5 -0.642751
      vertex 2.95515 2.5 -0.824606
    endloop
  endfacet
  facet normal -0.827083 -0 -0.56208
    outer loop
      vertex 2.83156 2.5 -0.642751
      vertex 2.95515 -2.5 -0.824606
      vertex 2.83156 -2.5 -0.642751
    endloop
  endfacet
  facet normal -0.707107 0 -0.707107
    outer loop
      vertex 2.55139 -2.5 -0.304085
      vertex 2.39591 2.5 -0.148609
      vertex 2.55139 2.5 -0.304085
    endloop
  endfacet
  facet normal -0.707107 -0 -0.707107
    outer loop
      vertex 2.39591 2.5 -0.148609
      vertex 2.55139 -2.5 -0.304085
      vertex 2.39591 -2.5 -0.148609
    endloop
  endfacet
  facet normal 0.45399 0 -0.891007
    outer loop
      vertex -1.68614 -2.5 0.367073
      vertex -1.49023 2.5 0.466894
      vertex -1.49023 -2.5 0.466894
    endloop
  endfacet
  facet normal 0.45399 0 -0.891007
    outer loop
      vertex -1.49023 2.5 0.466894
      vertex -1.68614 -2.5 0.367073
      vertex -1.68614 2.5 0.367073
    endloop
  endfacet
  facet normal 0.218143 0 -0.975917
    outer loop
      vertex -0.870414 -2.5 0.690041
      vertex -0.655834 2.5 0.738005
      vertex -0.655834 -2.5 0.738005
    endloop
  endfacet
  facet normal 0.218143 0 -0.975917
    outer loop
      vertex -0.655834 2.5 0.738005
      vertex -0.870414 -2.5 0.690041
      vertex -0.870414 2.5 0.690041
    endloop
  endfacet
  facet normal -0.156435 0 -0.987688
    outer loop
      vertex 0.438665 -2.5 0.772401
      vertex 0.655834 2.5 0.738005
      vertex 0.655834 -2.5 0.738005
    endloop
  endfacet
  facet normal -0.156435 0 -0.987688
    outer loop
      vertex 0.655834 2.5 0.738005
      vertex 0.438665 -2.5 0.772401
      vertex 0.438665 2.5 0.772401
    endloop
  endfacet
  facet normal 0.891007 0 -0.45399
    outer loop
      vertex -3.06707 -2.5 -1.01386
      vertex -3.16689 2.5 -1.20977
      vertex -3.06707 2.5 -1.01386
    endloop
  endfacet
  facet normal 0.891007 0 -0.45399
    outer loop
      vertex -3.16689 2.5 -1.20977
      vertex -3.06707 -2.5 -1.01386
      vertex -3.16689 -2.5 -1.20977
    endloop
  endfacet
  facet normal 0.917754 0 -0.397148
    outer loop
      vertex -3.16689 -2.5 -1.20977
      vertex -3.25422 2.5 -1.41156
      vertex -3.16689 2.5 -1.20977
    endloop
  endfacet
  facet normal 0.917754 0 -0.397148
    outer loop
      vertex -3.25422 2.5 -1.41156
      vertex -3.16689 -2.5 -1.20977
      vertex -3.25422 -2.5 -1.41156
    endloop
  endfacet
  facet normal 0.827083 0 -0.56208
    outer loop
      vertex -2.83156 -2.5 -0.642751
      vertex -2.95515 2.5 -0.824606
      vertex -2.83156 2.5 -0.642751
    endloop
  endfacet
  facet normal 0.827083 0 -0.56208
    outer loop
      vertex -2.95515 2.5 -0.824606
      vertex -2.83156 -2.5 -0.642751
      vertex -2.95515 -2.5 -0.824606
    endloop
  endfacet
  facet normal -0.790154 0 -0.612909
    outer loop
      vertex 2.83156 -2.5 -0.642751
      vertex 2.6968 2.5 -0.469015
      vertex 2.83156 2.5 -0.642751
    endloop
  endfacet
  facet normal -0.790154 -0 -0.612909
    outer loop
      vertex 2.6968 2.5 -0.469015
      vertex 2.83156 -2.5 -0.642751
      vertex 2.6968 -2.5 -0.469015
    endloop
  endfacet
  facet normal 0.397148 0 -0.917754
    outer loop
      vertex -1.49023 -2.5 0.466894
      vertex -1.28843 2.5 0.554217
      vertex -1.28843 -2.5 0.554217
    endloop
  endfacet
  facet normal 0.397148 0 -0.917754
    outer loop
      vertex -1.28843 2.5 0.554217
      vertex -1.49023 -2.5 0.466894
      vertex -1.49023 2.5 0.466894
    endloop
  endfacet
endsolid OpenSCAD_Model
