solid OpenSCAD_Model
  facet normal -1 0 0
    outer loop
      vertex -5 -2.5 -2.5
      vertex -5 2.5 2.5
      vertex -5 2.5 -2.5
    endloop
  endfacet
  facet normal -1 -0 0
    outer loop
      vertex -5 2.5 2.5
      vertex -5 -2.5 -2.5
      vertex -5 -2.5 2.5
    endloop
  endfacet
  facet normal -0 0 1
    outer loop
      vertex -5 2.5 2.5
      vertex 5 -2.5 2.5
      vertex 5 2.5 2.5
    endloop
  endfacet
  facet normal 0 0 1
    outer loop
      vertex 5 -2.5 2.5
      vertex -5 2.5 2.5
      vertex -5 -2.5 2.5
    endloop
  endfacet
  facet normal 1 -0 0
    outer loop
      vertex 5 -2.5 2.5
      vertex 5 2.5 -2.5
      vertex 5 2.5 2.5
    endloop
  endfacet
  facet normal 1 0 0
    outer loop
      vertex 5 2.5 -2.5
      vertex 5 -2.5 2.5
      vertex 5 -2.5 -2.5
    endloop
  endfacet
  facet normal 0 1 0
    outer loop
      vertex 5 2.5 2.5
      vertex 0 2.5 1.1
      vertex -5 2.5 2.5
    endloop
  endfacet
  facet normal 0 1 0
    outer loop
      vertex 5 2.5 2.5
      vertex 0.244883 2.5 1.0923
      vertex 0 2.5 1.1
    endloop
  endfacet
  facet normal 0 1 0
    outer loop
      vertex 5 2.5 2.5
      vertex 0.488799 2.5 1.06925
      vertex 0.244883 2.5 1.0923
    endloop
  endfacet
  facet normal 0 1 0
    outer loop
      vertex 5 2.5 2.5
      vertex 0.730786 2.5 1.03092
      vertex 0.488799 2.5 1.06925
    endloop
  endfacet
  facet normal 0 1 0
    outer loop
      vertex 5 2.5 2.5
      vertex 0.96989 2.5 0.977474
      vertex 0.730786 2.5 1.03092
    endloop
  endfacet
  facet normal 0 1 0
    outer loop
      vertex 5 2.5 2.5
      vertex 1.20517 2.5 0.90912
      vertex 0.96989 2.5 0.977474
    endloop
  endfacet
  facet normal 0 1 0
    outer loop
      vertex 5 2.5 2.5
      vertex 1.43569 2.5 0.826128
      vertex 1.20517 2.5 0.90912
    endloop
  endfacet
  facet normal 0 1 0
    outer loop
      vertex 5 2.5 2.5
      vertex 1.66054 2.5 0.728825
      vertex 1.43569 2.5 0.826128
    endloop
  endfacet
  facet normal 0 1 0
    outer loop
      vertex 5 2.5 2.5
      vertex 1.87884 2.5 0.617596
      vertex 1.66054 2.5 0.728825
    endloop
  endfacet
  facet normal 0 1 0
    outer loop
      vertex 5 2.5 2.5
      vertex 2.08972 2.5 0.492878
      vertex 1.87884 2.5 0.617596
    endloop
  endfacet
  facet normal 0 1 0
    outer loop
      vertex 5 2.5 2.5
      vertex 2.29236 2.5 0.355165
      vertex 2.08972 2.5 0.492878
    endloop
  endfacet
  facet normal 0 1 0
    outer loop
      vertex 5 2.5 2.5
      vertex 2.48595 2.5 0.205001
      vertex 2.29236 2.5 0.355165
    endloop
  endfacet
  facet normal 0 1 0
    outer loop
      vertex 5 2.5 2.5
      vertex 2.66973 2.5 0.0429773
      vertex 2.48595 2.5 0.205001
    endloop
  endfacet
  facet normal 0 1 0
    outer loop
      vertex 5 2.5 2.5
      vertex 2.84298 2.5 -0.130266
      vertex 2.66973 2.5 0.0429773
    endloop
  endfacet
  facet normal 0 1 0
    outer loop
      vertex 5 2.5 2.5
      vertex 3.005 2.5 -0.314046
      vertex 2.84298 2.5 -0.130266
    endloop
  endfacet
  facet normal 0 1 0
    outer loop
      vertex 5 2.5 2.5
      vertex 3.15517 2.5 -0.507637
      vertex 3.005 2.5 -0.314046
    endloop
  endfacet
  facet normal 0 1 0
    outer loop
      vertex 5 2.5 2.5
      vertex 3.29288 2.5 -0.710275
      vertex 3.15517 2.5 -0.507637
    endloop
  endfacet
  facet normal 0 1 0
    outer loop
      vertex 5 2.5 2.5
      vertex 3.4176 2.5 -0.92116
      vertex 3.29288 2.5 -0.710275
    endloop
  endfacet
  facet normal 0 1 0
    outer loop
      vertex 5 2.5 2.5
      vertex 3.52882 2.5 -1.13946
      vertex 3.4176 2.5 -0.92116
    endloop
  endfacet
  facet normal 0 1 -0
    outer loop
      vertex 5 2.5 -2.5
      vertex 3.52882 2.5 -1.13946
      vertex 5 2.5 2.5
    endloop
  endfacet
  facet normal 0 1 0
    outer loop
      vertex 3.52882 2.5 -1.13946
      vertex 5 2.5 -2.5
      vertex 3.62613 2.5 -1.36431
    endloop
  endfacet
  facet normal 0 1 0
    outer loop
      vertex 3.62613 2.5 -1.36431
      vertex 5 2.5 -2.5
      vertex 3.70912 2.5 -1.59483
    endloop
  endfacet
  facet normal 0 1 0
    outer loop
      vertex 3.70912 2.5 -1.59483
      vertex 5 2.5 -2.5
      vertex 3.77747 2.5 -1.83011
    endloop
  endfacet
  facet normal 0 1 0
    outer loop
      vertex 3.77747 2.5 -1.83011
      vertex 5 2.5 -2.5
      vertex 3.83092 2.5 -2.06921
    endloop
  endfacet
  facet normal 0 1 0
    outer loop
      vertex 3.83092 2.5 -2.06921
      vertex 5 2.5 -2.5
      vertex 3.86925 2.5 -2.3112
    endloop
  endfacet
  facet normal 0 1 0
    outer loop
      vertex 3.86925 2.5 -2.3112
      vertex 5 2.5 -2.5
      vertex 3.88709 2.5 -2.5
    endloop
  endfacet
  facet normal 0 1 -0
    outer loop
      vertex -0.244883 2.5 1.0923
      vertex -5 2.5 2.5
      vertex 0 2.5 1.1
    endloop
  endfacet
  facet normal 0 1 -0
    outer loop
      vertex -0.488799 2.5 1.06925
      vertex -5 2.5 2.5
      vertex -0.244883 2.5 1.0923
    endloop
  endfacet
  facet normal 0 1 -0
    outer loop
      vertex -0.730786 2.5 1.03092
      vertex -5 2.5 2.5
      vertex -0.488799 2.5 1.06925
    endloop
  endfacet
  facet normal 0 1 -0
    outer loop
      vertex -0.96989 2.5 0.977474
      vertex -5 2.5 2.5
      vertex -0.730786 2.5 1.03092
    endloop
  endfacet
  facet normal 0 1 -0
    outer loop
      vertex -1.20517 2.5 0.90912
      vertex -5 2.5 2.5
      vertex -0.96989 2.5 0.977474
    endloop
  endfacet
  facet normal 0 1 -0
    outer loop
      vertex -1.43569 2.5 0.826128
      vertex -5 2.5 2.5
      vertex -1.20517 2.5 0.90912
    endloop
  endfacet
  facet normal 0 1 -0
    outer loop
      vertex -1.66054 2.5 0.728825
      vertex -5 2.5 2.5
      vertex -1.43569 2.5 0.826128
    endloop
  endfacet
  facet normal 0 1 -0
    outer loop
      vertex -1.87884 2.5 0.617596
      vertex -5 2.5 2.5
      vertex -1.66054 2.5 0.728825
    endloop
  endfacet
  facet normal 0 1 -0
    outer loop
      vertex -2.08972 2.5 0.492878
      vertex -5 2.5 2.5
      vertex -1.87884 2.5 0.617596
    endloop
  endfacet
  facet normal 0 1 -0
    outer loop
      vertex -2.29236 2.5 0.355165
      vertex -5 2.5 2.5
      vertex -2.08972 2.5 0.492878
    endloop
  endfacet
  facet normal 0 1 -0
    outer loop
      vertex -2.48595 2.5 0.205001
      vertex -5 2.5 2.5
      vertex -2.29236 2.5 0.355165
    endloop
  endfacet
  facet normal 0 1 -0
    outer loop
      vertex -2.66973 2.5 0.0429773
      vertex -5 2.5 2.5
      vertex -2.48595 2.5 0.205001
    endloop
  endfacet
  facet normal 0 1 -0
    outer loop
      vertex -2.84298 2.5 -0.130266
      vertex -5 2.5 2.5
      vertex -2.66973 2.5 0.0429773
    endloop
  endfacet
  facet normal 0 1 -0
    outer loop
      vertex -3.005 2.5 -0.314046
      vertex -5 2.5 2.5
      vertex -2.84298 2.5 -0.130266
    endloop
  endfacet
  facet normal 0 1 -0
    outer loop
      vertex -3.15517 2.5 -0.507637
      vertex -5 2.5 2.5
      vertex -3.005 2.5 -0.314046
    endloop
  endfacet
  facet normal 0 1 -0
    outer loop
      vertex -3.29288 2.5 -0.710275
      vertex -5 2.5 2.5
      vertex -3.15517 2.5 -0.507637
    endloop
  endfacet
  facet normal 0 1 -0
    outer loop
      vertex -3.4176 2.5 -0.92116
      vertex -5 2.5 2.5
      vertex -3.29288 2.5 -0.710275
    endloop
  endfacet
  facet normal 0 1 -0
    outer loop
      vertex -3.52882 2.5 -1.13946
      vertex -5 2.5 2.5
      vertex -3.4176 2.5 -0.92116
    endloop
  endfacet
  facet normal 0 1 0
    outer loop
      vertex -5 2.5 -2.5
      vertex -3.52882 2.5 -1.13946
      vertex -3.62613 2.5 -1.36431
    endloop
  endfacet
  facet normal 0 1 0
    outer loop
      vertex -5 2.5 -2.5
      vertex -3.62613 2.5 -1.36431
      vertex -3.70912 2.5 -1.59483
    endloop
  endfacet
  facet normal 0 1 0
    outer loop
      vertex -5 2.5 -2.5
      vertex -3.70912 2.5 -1.59483
      vertex -3.77747 2.5 -1.83011
    endloop
  endfacet
  facet normal 0 1 0
    outer loop
      vertex -5 2.5 -2.5
      vertex -3.77747 2.5 -1.83011
      vertex -3.83092 2.5 -2.06921
    endloop
  endfacet
  facet normal 0 1 0
    outer loop
      vertex -5 2.5 -2.5
      vertex -3.83092 2.5 -2.06921
      vertex -3.86925 2.5 -2.3112
    endloop
  endfacet
  facet normal 0 1 0
    outer loop
      vertex -5 2.5 -2.5
      vertex -3.86925 2.5 -2.3112
      vertex -3.88709 2.5 -2.5
    endloop
  endfacet
  facet normal 0 1 0
    outer loop
      vertex -3.52882 2.5 -1.13946
      vertex -5 2.5 -2.5
      vertex -5 2.5 2.5
    endloop
  endfacet
  facet normal 0 0 -1
    outer loop
      vertex -5 -2.5 -2.5
      vertex -3.88709 2.5 -2.5
      vertex -3.88709 -2.5 -2.5
    endloop
  endfacet
  facet normal -0 0 -1
    outer loop
      vertex -3.88709 2.5 -2.5
      vertex -5 -2.5 -2.5
      vertex -5 2.5 -2.5
    endloop
  endfacet
  facet normal 0 0 -1
    outer loop
      vertex 3.88709 -2.5 -2.5
      vertex 5 2.5 -2.5
      vertex 5 -2.5 -2.5
    endloop
  endfacet
  facet normal -0 0 -1
    outer loop
      vertex 5 2.5 -2.5
      vertex 3.88709 -2.5 -2.5
      vertex 3.88709 2.5 -2.5
    endloop
  endfacet
  facet normal 0 -1 0
    outer loop
      vertex -5 -2.5 2.5
      vertex 0 -2.5 1.1
      vertex 5 -2.5 2.5
    endloop
  endfacet
  facet normal 0 -1 0
    outer loop
      vertex -5 -2.5 2.5
      vertex -0.244883 -2.5 1.0923
      vertex 0 -2.5 1.1
    endloop
  endfacet
  facet normal 0 -1 0
    outer loop
      vertex -5 -2.5 2.5
      vertex -0.488799 -2.5 1.06925
      vertex -0.244883 -2.5 1.0923
    endloop
  endfacet
  facet normal 0 -1 0
    outer loop
      vertex -5 -2.5 2.5
      vertex -0.730786 -2.5 1.03092
      vertex -0.488799 -2.5 1.06925
    endloop
  endfacet
  facet normal 0 -1 0
    outer loop
      vertex -5 -2.5 2.5
      vertex -0.96989 -2.5 0.977474
      vertex -0.730786 -2.5 1.03092
    endloop
  endfacet
  facet normal 0 -1 0
    outer loop
      vertex -5 -2.5 2.5
      vertex -1.20517 -2.5 0.90912
      vertex -0.96989 -2.5 0.977474
    endloop
  endfacet
  facet normal 0 -1 0
    outer loop
      vertex -5 -2.5 2.5
      vertex -1.43569 -2.5 0.826128
      vertex -1.20517 -2.5 0.90912
    endloop
  endfacet
  facet normal 0 -1 0
    outer loop
      vertex -5 -2.5 2.5
      vertex -1.66054 -2.5 0.728825
      vertex -1.43569 -2.5 0.826128
    endloop
  endfacet
  facet normal 0 -1 0
    outer loop
      vertex -5 -2.5 2.5
      vertex -1.87884 -2.5 0.617596
      vertex -1.66054 -2.5 0.728825
    endloop
  endfacet
  facet normal 0 -1 0
    outer loop
      vertex -5 -2.5 2.5
      vertex -2.08972 -2.5 0.492878
      vertex -1.87884 -2.5 0.617596
    endloop
  endfacet
  facet normal 0 -1 0
    outer loop
      vertex -5 -2.5 2.5
      vertex -2.29236 -2.5 0.355165
      vertex -2.08972 -2.5 0.492878
    endloop
  endfacet
  facet normal 0 -1 0
    outer loop
      vertex -5 -2.5 2.5
      vertex -2.48595 -2.5 0.205001
      vertex -2.29236 -2.5 0.355165
    endloop
  endfacet
  facet normal 0 -1 0
    outer loop
      vertex -5 -2.5 2.5
      vertex -2.66973 -2.5 0.0429773
      vertex -2.48595 -2.5 0.205001
    endloop
  endfacet
  facet normal 0 -1 0
    outer loop
      vertex -5 -2.5 2.5
      vertex -2.84298 -2.5 -0.130266
      vertex -2.66973 -2.5 0.0429773
    endloop
  endfacet
  facet normal 0 -1 0
    outer loop
      vertex -5 -2.5 2.5
      vertex -3.005 -2.5 -0.314046
      vertex -2.84298 -2.5 -0.130266
    endloop
  endfacet
  facet normal 0 -1 0
    outer loop
      vertex -5 -2.5 2.5
      vertex -3.15517 -2.5 -0.507637
      vertex -3.005 -2.5 -0.314046
    endloop
  endfacet
  facet normal 0 -1 0
    outer loop
      vertex -5 -2.5 2.5
      vertex -3.29288 -2.5 -0.710275
      vertex -3.15517 -2.5 -0.507637
    endloop
  endfacet
  facet normal 0 -1 0
    outer loop
      vertex -5 -2.5 2.5
      vertex -3.4176 -2.5 -0.92116
      vertex -3.29288 -2.5 -0.710275
    endloop
  endfacet
  facet normal 0 -1 0
    outer loop
      vertex -5 -2.5 2.5
      vertex -3.52882 -2.5 -1.13946
      vertex -3.4176 -2.5 -0.92116
    endloop
  endfacet
  facet normal 0 -1 0
    outer loop
      vertex -5 -2.5 -2.5
      vertex -3.52882 -2.5 -1.13946
      vertex -5 -2.5 2.5
    endloop
  endfacet
  facet normal 0 -1 0
    outer loop
      vertex -3.52882 -2.5 -1.13946
      vertex -5 -2.5 -2.5
      vertex -3.62613 -2.5 -1.36431
    endloop
  endfacet
  facet normal 0 -1 0
    outer loop
      vertex -3.62613 -2.5 -1.36431
      vertex -5 -2.5 -2.5
      vertex -3.70912 -2.5 -1.59483
    endloop
  endfacet
  facet normal 0 -1 0
    outer loop
      vertex -3.70912 -2.5 -1.59483
      vertex -5 -2.5 -2.5
      vertex -3.77747 -2.5 -1.83011
    endloop
  endfacet
  facet normal 0 -1 0
    outer loop
      vertex -3.77747 -2.5 -1.83011
      vertex -5 -2.5 -2.5
      vertex -3.83092 -2.5 -2.06921
    endloop
  endfacet
  facet normal 0 -1 0
    outer loop
      vertex -3.83092 -2.5 -2.06921
      vertex -5 -2.5 -2.5
      vertex -3.86925 -2.5 -2.3112
    endloop
  endfacet
  facet normal 0 -1 0
    outer loop
      vertex -3.86925 -2.5 -2.3112
      vertex -5 -2.5 -2.5
      vertex -3.88709 -2.5 -2.5
    endloop
  endfacet
  facet normal 0 -1 0
    outer loop
      vertex 0.244883 -2.5 1.0923
      vertex 5 -2.5 2.5
      vertex 0 -2.5 1.1
    endloop
  endfacet
  facet normal 0 -1 0
    outer loop
      vertex 0.488799 -2.5 1.06925
      vertex 5 -2.5 2.5
      vertex 0.244883 -2.5 1.0923
    endloop
  endfacet
  facet normal 0 -1 0
    outer loop
      vertex 0.730786 -2.5 1.03092
      vertex 5 -2.5 2.5
      vertex 0.488799 -2.5 1.06925
    endloop
  endfacet
  facet normal 0 -1 0
    outer loop
      vertex 0.96989 -2.5 0.977474
      vertex 5 -2.5 2.5
      vertex 0.730786 -2.5 1.03092
    endloop
  endfacet
  facet normal 0 -1 0
    outer loop
      vertex 1.20517 -2.5 0.90912
      vertex 5 -2.5 2.5
      vertex 0.96989 -2.5 0.977474
    endloop
  endfacet
  facet normal 0 -1 0
    outer loop
      vertex 1.43569 -2.5 0.826128
      vertex 5 -2.5 2.5
      vertex 1.20517 -2.5 0.90912
    endloop
  endfacet
  facet normal 0 -1 0
    outer loop
      vertex 1.66054 -2.5 0.728825
      vertex 5 -2.5 2.5
      vertex 1.43569 -2.5 0.826128
    endloop
  endfacet
  facet normal 0 -1 0
    outer loop
      vertex 1.87884 -2.5 0.617596
      vertex 5 -2.5 2.5
      vertex 1.66054 -2.5 0.728825
    endloop
  endfacet
  facet normal 0 -1 0
    outer loop
      vertex 2.08972 -2.5 0.492878
      vertex 5 -2.5 2.5
      vertex 1.87884 -2.5 0.617596
    endloop
  endfacet
  facet normal 0 -1 0
    outer loop
      vertex 2.29236 -2.5 0.355165
      vertex 5 -2.5 2.5
      vertex 2.08972 -2.5 0.492878
    endloop
  endfacet
  facet normal 0 -1 0
    outer loop
      vertex 2.48595 -2.5 0.205001
      vertex 5 -2.5 2.5
      vertex 2.29236 -2.5 0.355165
    endloop
  endfacet
  facet normal 0 -1 0
    outer loop
      vertex 2.66973 -2.5 0.0429773
      vertex 5 -2.5 2.5
      vertex 2.48595 -2.5 0.205001
    endloop
  endfacet
  facet normal 0 -1 0
    outer loop
      vertex 2.84298 -2.5 -0.130266
      vertex 5 -2.5 2.5
      vertex 2.66973 -2.5 0.0429773
    endloop
  endfacet
  facet normal 0 -1 0
    outer loop
      vertex 3.005 -2.5 -0.314046
      vertex 5 -2.5 2.5
      vertex 2.84298 -2.5 -0.130266
    endloop
  endfacet
  facet normal 0 -1 0
    outer loop
      vertex 3.15517 -2.5 -0.507637
      vertex 5 -2.5 2.5
      vertex 3.005 -2.5 -0.314046
    endloop
  endfacet
  facet normal 0 -1 0
    outer loop
      vertex 3.29288 -2.5 -0.710275
      vertex 5 -2.5 2.5
      vertex 3.15517 -2.5 -0.507637
    endloop
  endfacet
  facet normal 0 -1 0
    outer loop
      vertex 3.4176 -2.5 -0.92116
      vertex 5 -2.5 2.5
      vertex 3.29288 -2.5 -0.710275
    endloop
  endfacet
  facet normal 0 -1 0
    outer loop
      vertex 3.52882 -2.5 -1.13946
      vertex 5 -2.5 2.5
      vertex 3.4176 -2.5 -0.92116
    endloop
  endfacet
  facet normal 0 -1 0
    outer loop
      vertex 5 -2.5 -2.5
      vertex 3.52882 -2.5 -1.13946
      vertex 3.62613 -2.5 -1.36431
    endloop
  endfacet
  facet normal 0 -1 0
    outer loop
      vertex 5 -2.5 -2.5
      vertex 3.62613 -2.5 -1.36431
      vertex 3.70912 -2.5 -1.59483
    endloop
  endfacet
  facet normal 0 -1 0
    outer loop
      vertex 5 -2.5 -2.5
      vertex 3.70912 -2.5 -1.59483
      vertex 3.77747 -2.5 -1.83011
    endloop
  endfacet
  facet normal 0 -1 0
    outer loop
      vertex 5 -2.5 -2.5
      vertex 3.77747 -2.5 -1.83011
      vertex 3.83092 -2.5 -2.06921
    endloop
  endfacet
  facet normal 0 -1 0
    outer loop
      vertex 5 -2.5 -2.5
      vertex 3.83092 -2.5 -2.06921
      vertex 3.86925 -2.5 -2.3112
    endloop
  endfacet
  facet normal 0 -1 0
    outer loop
      vertex 5 -2.5 -2.5
      vertex 3.86925 -2.5 -2.3112
      vertex 3.88709 -2.5 -2.5
    endloop
  endfacet
  facet normal 0 -1 0
    outer loop
      vertex 3.52882 -2.5 -1.13946
      vertex 5 -2.5 -2.5
      vertex 5 -2.5 2.5
    endloop
  endfacet
  facet normal -0.975916 0 -0.218147
    outer loop
      vertex 3.83092 -2.5 -2.06921
      vertex 3.77747 2.5 -1.83011
      vertex 3.83092 2.5 -2.06921
    endloop
  endfacet
  facet normal -0.975916 -0 -0.218147
    outer loop
      vertex 3.77747 2.5 -1.83011
      vertex 3.83092 -2.5 -2.06921
      vertex 3.77747 -2.5 -1.83011
    endloop
  endfacet
  facet normal -0.995562 0 -0.0941082
    outer loop
      vertex 3.88709 -2.5 -2.5
      vertex 3.86925 2.5 -2.3112
      vertex 3.88709 2.5 -2.5
    endloop
  endfacet
  facet normal -0.995562 -0 -0.0941082
    outer loop
      vertex 3.86925 2.5 -2.3112
      vertex 3.88709 -2.5 -2.5
      vertex 3.86925 -2.5 -2.3112
    endloop
  endfacet
  facet normal 0.0941087 0 -0.995562
    outer loop
      vertex -0.488799 -2.5 1.06925
      vertex -0.244883 2.5 1.0923
      vertex -0.244883 -2.5 1.0923
    endloop
  endfacet
  facet normal 0.0941087 0 -0.995562
    outer loop
      vertex -0.244883 2.5 1.0923
      vertex -0.488799 -2.5 1.06925
      vertex -0.488799 2.5 1.06925
    endloop
  endfacet
  facet normal -0.987689 0 -0.156431
    outer loop
      vertex 3.86925 -2.5 -2.3112
      vertex 3.83092 2.5 -2.06921
      vertex 3.86925 2.5 -2.3112
    endloop
  endfacet
  facet normal -0.987689 -0 -0.156431
    outer loop
      vertex 3.83092 2.5 -2.06921
      vertex 3.86925 -2.5 -2.3112
      vertex 3.83092 -2.5 -2.06921
    endloop
  endfacet
  facet normal 0.0314085 0 -0.999507
    outer loop
      vertex -0.244883 -2.5 1.0923
      vertex 0 2.5 1.1
      vertex 0 -2.5 1.1
    endloop
  endfacet
  facet normal 0.0314085 0 -0.999507
    outer loop
      vertex 0 2.5 1.1
      vertex -0.244883 -2.5 1.0923
      vertex -0.244883 2.5 1.0923
    endloop
  endfacet
  facet normal 0.987689 0 -0.156431
    outer loop
      vertex -3.83092 -2.5 -2.06921
      vertex -3.86925 2.5 -2.3112
      vertex -3.83092 2.5 -2.06921
    endloop
  endfacet
  facet normal 0.987689 0 -0.156431
    outer loop
      vertex -3.86925 2.5 -2.3112
      vertex -3.83092 -2.5 -2.06921
      vertex -3.86925 -2.5 -2.3112
    endloop
  endfacet
  facet normal -0.707105 0 -0.707109
    outer loop
      vertex 2.66973 -2.5 0.0429773
      vertex 2.84298 2.5 -0.130266
      vertex 2.84298 -2.5 -0.130266
    endloop
  endfacet
  facet normal -0.707105 0 -0.707109
    outer loop
      vertex 2.84298 2.5 -0.130266
      vertex 2.66973 -2.5 0.0429773
      vertex 2.66973 2.5 0.0429773
    endloop
  endfacet
  facet normal 0.995562 0 -0.0941082
    outer loop
      vertex -3.86925 -2.5 -2.3112
      vertex -3.88709 2.5 -2.5
      vertex -3.86925 2.5 -2.3112
    endloop
  endfacet
  facet normal 0.995562 0 -0.0941082
    outer loop
      vertex -3.88709 2.5 -2.5
      vertex -3.86925 -2.5 -2.3112
      vertex -3.88709 -2.5 -2.5
    endloop
  endfacet
  facet normal 0.960294 0 -0.278991
    outer loop
      vertex -3.70912 -2.5 -1.59483
      vertex -3.77747 2.5 -1.83011
      vertex -3.70912 2.5 -1.59483
    endloop
  endfacet
  facet normal 0.960294 0 -0.278991
    outer loop
      vertex -3.77747 2.5 -1.83011
      vertex -3.70912 -2.5 -1.59483
      vertex -3.77747 -2.5 -1.83011
    endloop
  endfacet
  facet normal 0.338736 0 -0.940881
    outer loop
      vertex -1.43569 -2.5 0.826128
      vertex -1.20517 2.5 0.90912
      vertex -1.20517 -2.5 0.90912
    endloop
  endfacet
  facet normal 0.338736 0 -0.940881
    outer loop
      vertex -1.20517 2.5 0.90912
      vertex -1.43569 -2.5 0.826128
      vertex -1.43569 2.5 0.826128
    endloop
  endfacet
  facet normal 0.975916 0 -0.218147
    outer loop
      vertex -3.77747 -2.5 -1.83011
      vertex -3.83092 2.5 -2.06921
      vertex -3.77747 2.5 -1.83011
    endloop
  endfacet
  facet normal 0.975916 0 -0.218147
    outer loop
      vertex -3.83092 2.5 -2.06921
      vertex -3.77747 -2.5 -1.83011
      vertex -3.83092 -2.5 -2.06921
    endloop
  endfacet
  facet normal -0.0314085 0 -0.999507
    outer loop
      vertex 0 -2.5 1.1
      vertex 0.244883 2.5 1.0923
      vertex 0.244883 -2.5 1.0923
    endloop
  endfacet
  facet normal -0.0314085 0 -0.999507
    outer loop
      vertex 0.244883 2.5 1.0923
      vertex 0 -2.5 1.1
      vertex 0 2.5 1.1
    endloop
  endfacet
  facet normal 0.218143 0 -0.975917
    outer loop
      vertex -0.96989 -2.5 0.977474
      vertex -0.730786 2.5 1.03092
      vertex -0.730786 -2.5 1.03092
    endloop
  endfacet
  facet normal 0.218143 0 -0.975917
    outer loop
      vertex -0.730786 2.5 1.03092
      vertex -0.96989 -2.5 0.977474
      vertex -0.96989 2.5 0.977474
    endloop
  endfacet
  facet normal -0.917754 0 -0.39715
    outer loop
      vertex 3.62613 -2.5 -1.36431
      vertex 3.52882 2.5 -1.13946
      vertex 3.62613 2.5 -1.36431
    endloop
  endfacet
  facet normal -0.917754 -0 -0.39715
    outer loop
      vertex 3.52882 2.5 -1.13946
      vertex 3.62613 -2.5 -1.36431
      vertex 3.52882 -2.5 -1.13946
    endloop
  endfacet
  facet normal 0.453989 0 -0.891007
    outer loop
      vertex -1.87884 -2.5 0.617596
      vertex -1.66054 2.5 0.728825
      vertex -1.66054 -2.5 0.728825
    endloop
  endfacet
  facet normal 0.453989 0 -0.891007
    outer loop
      vertex -1.66054 2.5 0.728825
      vertex -1.87884 -2.5 0.617596
      vertex -1.87884 2.5 0.617596
    endloop
  endfacet
  facet normal 0.707105 0 -0.707109
    outer loop
      vertex -2.84298 -2.5 -0.130266
      vertex -2.66973 2.5 0.0429773
      vertex -2.66973 -2.5 0.0429773
    endloop
  endfacet
  facet normal 0.707105 0 -0.707109
    outer loop
      vertex -2.66973 2.5 0.0429773
      vertex -2.84298 -2.5 -0.130266
      vertex -2.84298 2.5 -0.130266
    endloop
  endfacet
  facet normal -0.278993 0 -0.960293
    outer loop
      vertex 0.96989 -2.5 0.977474
      vertex 1.20517 2.5 0.90912
      vertex 1.20517 -2.5 0.90912
    endloop
  endfacet
  facet normal -0.278993 0 -0.960293
    outer loop
      vertex 1.20517 2.5 0.90912
      vertex 0.96989 -2.5 0.977474
      vertex 0.96989 2.5 0.977474
    endloop
  endfacet
  facet normal -0.156435 0 -0.987688
    outer loop
      vertex 0.488799 -2.5 1.06925
      vertex 0.730786 2.5 1.03092
      vertex 0.730786 -2.5 1.03092
    endloop
  endfacet
  facet normal -0.156435 0 -0.987688
    outer loop
      vertex 0.730786 2.5 1.03092
      vertex 0.488799 -2.5 1.06925
      vertex 0.488799 2.5 1.06925
    endloop
  endfacet
  facet normal -0.612907 0 -0.790155
    outer loop
      vertex 2.29236 -2.5 0.355165
      vertex 2.48595 2.5 0.205001
      vertex 2.48595 -2.5 0.205001
    endloop
  endfacet
  facet normal -0.612907 0 -0.790155
    outer loop
      vertex 2.48595 2.5 0.205001
      vertex 2.29236 -2.5 0.355165
      vertex 2.29236 2.5 0.355165
    endloop
  endfacet
  facet normal -0.940881 0 -0.338736
    outer loop
      vertex 3.70912 -2.5 -1.59483
      vertex 3.62613 2.5 -1.36431
      vertex 3.70912 2.5 -1.59483
    endloop
  endfacet
  facet normal -0.940881 -0 -0.338736
    outer loop
      vertex 3.62613 2.5 -1.36431
      vertex 3.70912 -2.5 -1.59483
      vertex 3.62613 -2.5 -1.36431
    endloop
  endfacet
  facet normal -0.750111 0 -0.661312
    outer loop
      vertex 3.005 -2.5 -0.314046
      vertex 2.84298 2.5 -0.130266
      vertex 3.005 2.5 -0.314046
    endloop
  endfacet
  facet normal -0.750111 -0 -0.661312
    outer loop
      vertex 2.84298 2.5 -0.130266
      vertex 3.005 -2.5 -0.314046
      vertex 2.84298 -2.5 -0.130266
    endloop
  endfacet
  facet normal -0.790155 0 -0.612907
    outer loop
      vertex 3.15517 -2.5 -0.507637
      vertex 3.005 2.5 -0.314046
      vertex 3.15517 2.5 -0.507637
    endloop
  endfacet
  facet normal -0.790155 -0 -0.612907
    outer loop
      vertex 3.005 2.5 -0.314046
      vertex 3.15517 -2.5 -0.507637
      vertex 3.005 -2.5 -0.314046
    endloop
  endfacet
  facet normal -0.0941087 0 -0.995562
    outer loop
      vertex 0.244883 -2.5 1.0923
      vertex 0.488799 2.5 1.06925
      vertex 0.488799 -2.5 1.06925
    endloop
  endfacet
  facet normal -0.0941087 0 -0.995562
    outer loop
      vertex 0.488799 2.5 1.06925
      vertex 0.244883 -2.5 1.0923
      vertex 0.244883 2.5 1.0923
    endloop
  endfacet
  facet normal 0.278993 0 -0.960293
    outer loop
      vertex -1.20517 -2.5 0.90912
      vertex -0.96989 2.5 0.977474
      vertex -0.96989 -2.5 0.977474
    endloop
  endfacet
  facet normal 0.278993 0 -0.960293
    outer loop
      vertex -0.96989 2.5 0.977474
      vertex -1.20517 -2.5 0.90912
      vertex -1.20517 2.5 0.90912
    endloop
  endfacet
  facet normal 0.562082 0 -0.827082
    outer loop
      vertex -2.29236 -2.5 0.355165
      vertex -2.08972 2.5 0.492878
      vertex -2.08972 -2.5 0.492878
    endloop
  endfacet
  facet normal 0.562082 0 -0.827082
    outer loop
      vertex -2.08972 2.5 0.492878
      vertex -2.29236 -2.5 0.355165
      vertex -2.29236 2.5 0.355165
    endloop
  endfacet
  facet normal 0.860741 0 -0.509043
    outer loop
      vertex -3.29288 -2.5 -0.710275
      vertex -3.4176 2.5 -0.92116
      vertex -3.29288 2.5 -0.710275
    endloop
  endfacet
  facet normal 0.860741 0 -0.509043
    outer loop
      vertex -3.4176 2.5 -0.92116
      vertex -3.29288 -2.5 -0.710275
      vertex -3.4176 -2.5 -0.92116
    endloop
  endfacet
  facet normal 0.940881 0 -0.338736
    outer loop
      vertex -3.62613 -2.5 -1.36431
      vertex -3.70912 2.5 -1.59483
      vertex -3.62613 2.5 -1.36431
    endloop
  endfacet
  facet normal 0.940881 0 -0.338736
    outer loop
      vertex -3.70912 2.5 -1.59483
      vertex -3.62613 -2.5 -1.36431
      vertex -3.70912 -2.5 -1.59483
    endloop
  endfacet
  facet normal 0.917754 0 -0.39715
    outer loop
      vertex -3.52882 -2.5 -1.13946
      vertex -3.62613 2.5 -1.36431
      vertex -3.52882 2.5 -1.13946
    endloop
  endfacet
  facet normal 0.917754 0 -0.39715
    outer loop
      vertex -3.62613 2.5 -1.36431
      vertex -3.52882 -2.5 -1.13946
      vertex -3.62613 -2.5 -1.36431
    endloop
  endfacet
  facet normal 0.891008 0 -0.453988
    outer loop
      vertex -3.4176 -2.5 -0.92116
      vertex -3.52882 2.5 -1.13946
      vertex -3.4176 2.5 -0.92116
    endloop
  endfacet
  facet normal 0.891008 0 -0.453988
    outer loop
      vertex -3.52882 2.5 -1.13946
      vertex -3.4176 -2.5 -0.92116
      vertex -3.52882 -2.5 -1.13946
    endloop
  endfacet
  facet normal -0.218143 0 -0.975917
    outer loop
      vertex 0.730786 -2.5 1.03092
      vertex 0.96989 2.5 0.977474
      vertex 0.96989 -2.5 0.977474
    endloop
  endfacet
  facet normal -0.218143 0 -0.975917
    outer loop
      vertex 0.96989 2.5 0.977474
      vertex 0.730786 -2.5 1.03092
      vertex 0.730786 2.5 1.03092
    endloop
  endfacet
  facet normal -0.509043 0 -0.860741
    outer loop
      vertex 1.87884 -2.5 0.617596
      vertex 2.08972 2.5 0.492878
      vertex 2.08972 -2.5 0.492878
    endloop
  endfacet
  facet normal -0.509043 0 -0.860741
    outer loop
      vertex 2.08972 2.5 0.492878
      vertex 1.87884 -2.5 0.617596
      vertex 1.87884 2.5 0.617596
    endloop
  endfacet
  facet normal -0.453989 0 -0.891007
    outer loop
      vertex 1.66054 -2.5 0.728825
      vertex 1.87884 2.5 0.617596
      vertex 1.87884 -2.5 0.617596
    endloop
  endfacet
  facet normal -0.453989 0 -0.891007
    outer loop
      vertex 1.87884 2.5 0.617596
      vertex 1.66054 -2.5 0.728825
      vertex 1.66054 2.5 0.728825
    endloop
  endfacet
  facet normal -0.39715 0 -0.917754
    outer loop
      vertex 1.43569 -2.5 0.826128
      vertex 1.66054 2.5 0.728825
      vertex 1.66054 -2.5 0.728825
    endloop
  endfacet
  facet normal -0.39715 0 -0.917754
    outer loop
      vertex 1.66054 2.5 0.728825
      vertex 1.43569 -2.5 0.826128
      vertex 1.43569 2.5 0.826128
    endloop
  endfacet
  facet normal -0.338736 0 -0.940881
    outer loop
      vertex 1.20517 -2.5 0.90912
      vertex 1.43569 2.5 0.826128
      vertex 1.43569 -2.5 0.826128
    endloop
  endfacet
  facet normal -0.338736 0 -0.940881
    outer loop
      vertex 1.43569 2.5 0.826128
      vertex 1.20517 -2.5 0.90912
      vertex 1.20517 2.5 0.90912
    endloop
  endfacet
  facet normal -0.661312 0 -0.750111
    outer loop
      vertex 2.48595 -2.5 0.205001
      vertex 2.66973 2.5 0.0429773
      vertex 2.66973 -2.5 0.0429773
    endloop
  endfacet
  facet normal -0.661312 0 -0.750111
    outer loop
      vertex 2.66973 2.5 0.0429773
      vertex 2.48595 -2.5 0.205001
      vertex 2.48595 2.5 0.205001
    endloop
  endfacet
  facet normal -0.960294 0 -0.278991
    outer loop
      vertex 3.77747 -2.5 -1.83011
      vertex 3.70912 2.5 -1.59483
      vertex 3.77747 2.5 -1.83011
    endloop
  endfacet
  facet normal -0.960294 -0 -0.278991
    outer loop
      vertex 3.70912 2.5 -1.59483
      vertex 3.77747 -2.5 -1.83011
      vertex 3.70912 -2.5 -1.59483
    endloop
  endfacet
  facet normal -0.891008 0 -0.453988
    outer loop
      vertex 3.52882 -2.5 -1.13946
      vertex 3.4176 2.5 -0.92116
      vertex 3.52882 2.5 -1.13946
    endloop
  endfacet
  facet normal -0.891008 -0 -0.453988
    outer loop
      vertex 3.4176 2.5 -0.92116
      vertex 3.52882 -2.5 -1.13946
      vertex 3.4176 -2.5 -0.92116
    endloop
  endfacet
  facet normal -0.860741 0 -0.509043
    outer loop
      vertex 3.4176 -2.5 -0.92116
      vertex 3.29288 2.5 -0.710275
      vertex 3.4176 2.5 -0.92116
    endloop
  endfacet
  facet normal -0.860741 -0 -0.509043
    outer loop
      vertex 3.29288 2.5 -0.710275
      vertex 3.4176 -2.5 -0.92116
      vertex 3.29288 -2.5 -0.710275
    endloop
  endfacet
  facet normal -0.82708 0 -0.562084
    outer loop
      vertex 3.29288 -2.5 -0.710275
      vertex 3.15517 2.5 -0.507637
      vertex 3.29288 2.5 -0.710275
    endloop
  endfacet
  facet normal -0.82708 -0 -0.562084
    outer loop
      vertex 3.15517 2.5 -0.507637
      vertex 3.29288 -2.5 -0.710275
      vertex 3.15517 -2.5 -0.507637
    endloop
  endfacet
  facet normal 0.156435 0 -0.987688
    outer loop
      vertex -0.730786 -2.5 1.03092
      vertex -0.488799 2.5 1.06925
      vertex -0.488799 -2.5 1.06925
    endloop
  endfacet
  facet normal 0.156435 0 -0.987688
    outer loop
      vertex -0.488799 2.5 1.06925
      vertex -0.730786 -2.5 1.03092
      vertex -0.730786 2.5 1.03092
    endloop
  endfacet
  facet normal 0.509043 0 -0.860741
    outer loop
      vertex -2.08972 -2.5 0.492878
      vertex -1.87884 2.5 0.617596
      vertex -1.87884 -2.5 0.617596
    endloop
  endfacet
  facet normal 0.509043 0 -0.860741
    outer loop
      vertex -1.87884 2.5 0.617596
      vertex -2.08972 -2.5 0.492878
      vertex -2.08972 2.5 0.492878
    endloop
  endfacet
  facet normal 0.39715 0 -0.917754
    outer loop
      vertex -1.66054 -2.5 0.728825
      vertex -1.43569 2.5 0.826128
      vertex -1.43569 -2.5 0.826128
    endloop
  endfacet
  facet normal 0.39715 0 -0.917754
    outer loop
      vertex -1.43569 2.5 0.826128
      vertex -1.66054 -2.5 0.728825
      vertex -1.66054 2.5 0.728825
    endloop
  endfacet
  facet normal 0.750111 0 -0.661312
    outer loop
      vertex -2.84298 -2.5 -0.130266
      vertex -3.005 2.5 -0.314046
      vertex -2.84298 2.5 -0.130266
    endloop
  endfacet
  facet normal 0.750111 0 -0.661312
    outer loop
      vertex -3.005 2.5 -0.314046
      vertex -2.84298 -2.5 -0.130266
      vertex -3.005 -2.5 -0.314046
    endloop
  endfacet
  facet normal -0.562082 0 -0.827082
    outer loop
      vertex 2.08972 -2.5 0.492878
      vertex 2.29236 2.5 0.355165
      vertex 2.29236 -2.5 0.355165
    endloop
  endfacet
  facet normal -0.562082 0 -0.827082
    outer loop
      vertex 2.29236 2.5 0.355165
      vertex 2.08972 -2.5 0.492878
      vertex 2.08972 2.5 0.492878
    endloop
  endfacet
  facet normal 0.612907 0 -0.790155
    outer loop
      vertex -2.48595 -2.5 0.205001
      vertex -2.29236 2.5 0.355165
      vertex -2.29236 -2.5 0.355165
    endloop
  endfacet
  facet normal 0.612907 0 -0.790155
    outer loop
      vertex -2.29236 2.5 0.355165
      vertex -2.48595 -2.5 0.205001
      vertex -2.48595 2.5 0.205001
    endloop
  endfacet
  facet normal 0.661312 0 -0.750111
    outer loop
      vertex -2.66973 -2.5 0.0429773
      vertex -2.48595 2.5 0.205001
      vertex -2.48595 -2.5 0.205001
    endloop
  endfacet
  facet normal 0.661312 0 -0.750111
    outer loop
      vertex -2.48595 2.5 0.205001
      vertex -2.66973 -2.5 0.0429773
      vertex -2.66973 2.5 0.0429773
    endloop
  endfacet
  facet normal 0.82708 0 -0.562084
    outer loop
      vertex -3.15517 -2.5 -0.507637
      vertex -3.29288 2.5 -0.710275
      vertex -3.15517 2.5 -0.507637
    endloop
  endfacet
  facet normal 0.82708 0 -0.562084
    outer loop
      vertex -3.29288 2.5 -0.710275
      vertex -3.15517 -2.5 -0.507637
      vertex -3.29288 -2.5 -0.710275
    endloop
  endfacet
  facet normal 0.790155 0 -0.612907
    outer loop
      vertex -3.005 -2.5 -0.314046
      vertex -3.15517 2.5 -0.507637
      vertex -3.005 2.5 -0.314046
    endloop
  endfacet
  facet normal 0.790155 0 -0.612907
    outer loop
      vertex -3.15517 2.5 -0.507637
      vertex -3.005 -2.5 -0.314046
      vertex -3.15517 -2.5 -0.507637
    endloop
  endfacet
endsolid OpenSCAD_Model
