solid OpenSCAD_Model
  facet normal -1 0 0
    outer loop
      vertex -5 -2.5 -2.5
      vertex -5 2.5 2.5
      vertex -5 2.5 -2.5
    endloop
  endfacet
  facet normal -1 -0 0
    outer loop
      vertex -5 2.5 2.5
      vertex -5 -2.5 -2.5
      vertex -5 -2.5 2.5
    endloop
  endfacet
  facet normal -0 0 1
    outer loop
      vertex -5 2.5 2.5
      vertex 5 -2.5 2.5
      vertex 5 2.5 2.5
    endloop
  endfacet
  facet normal 0 0 1
    outer loop
      vertex 5 -2.5 2.5
      vertex -5 2.5 2.5
      vertex -5 -2.5 2.5
    endloop
  endfacet
  facet normal 1 -0 0
    outer loop
      vertex 5 -2.5 2.5
      vertex 5 2.5 -2.5
      vertex 5 2.5 2.5
    endloop
  endfacet
  facet normal 1 0 0
    outer loop
      vertex 5 2.5 -2.5
      vertex 5 -2.5 2.5
      vertex 5 -2.5 -2.5
    endloop
  endfacet
  facet normal 0 1 0
    outer loop
      vertex 5 2.5 2.5
      vertex 0 2.5 1.6
      vertex -5 2.5 2.5
    endloop
  endfacet
  facet normal 0 1 0
    outer loop
      vertex 5 2.5 2.5
      vertex 0.244883 2.5 1.5923
      vertex 0 2.5 1.6
    endloop
  endfacet
  facet normal 0 1 0
    outer loop
      vertex 5 2.5 2.5
      vertex 0.488799 2.5 1.56925
      vertex 0.244883 2.5 1.5923
    endloop
  endfacet
  facet normal 0 1 0
    outer loop
      vertex 5 2.5 2.5
      vertex 0.730786 2.5 1.53092
      vertex 0.488799 2.5 1.56925
    endloop
  endfacet
  facet normal 0 1 0
    outer loop
      vertex 5 2.5 2.5
      vertex 0.96989 2.5 1.47747
      vertex 0.730786 2.5 1.53092
    endloop
  endfacet
  facet normal 0 1 0
    outer loop
      vertex 5 2.5 2.5
      vertex 1.20517 2.5 1.40912
      vertex 0.96989 2.5 1.47747
    endloop
  endfacet
  facet normal 0 1 0
    outer loop
      vertex 5 2.5 2.5
      vertex 1.43569 2.5 1.32613
      vertex 1.20517 2.5 1.40912
    endloop
  endfacet
  facet normal 0 1 0
    outer loop
      vertex 5 2.5 2.5
      vertex 1.66054 2.5 1.22882
      vertex 1.43569 2.5 1.32613
    endloop
  endfacet
  facet normal 0 1 0
    outer loop
      vertex 5 2.5 2.5
      vertex 1.87884 2.5 1.1176
      vertex 1.66054 2.5 1.22882
    endloop
  endfacet
  facet normal 0 1 0
    outer loop
      vertex 5 2.5 2.5
      vertex 2.08972 2.5 0.992878
      vertex 1.87884 2.5 1.1176
    endloop
  endfacet
  facet normal 0 1 0
    outer loop
      vertex 5 2.5 2.5
      vertex 2.29236 2.5 0.855165
      vertex 2.08972 2.5 0.992878
    endloop
  endfacet
  facet normal 0 1 0
    outer loop
      vertex 5 2.5 2.5
      vertex 2.48595 2.5 0.705001
      vertex 2.29236 2.5 0.855165
    endloop
  endfacet
  facet normal 0 1 0
    outer loop
      vertex 5 2.5 2.5
      vertex 2.66973 2.5 0.542977
      vertex 2.48595 2.5 0.705001
    endloop
  endfacet
  facet normal 0 1 0
    outer loop
      vertex 5 2.5 2.5
      vertex 2.84298 2.5 0.369733
      vertex 2.66973 2.5 0.542977
    endloop
  endfacet
  facet normal 0 1 0
    outer loop
      vertex 5 2.5 2.5
      vertex 3.005 2.5 0.185953
      vertex 2.84298 2.5 0.369733
    endloop
  endfacet
  facet normal 0 1 0
    outer loop
      vertex 5 2.5 2.5
      vertex 3.15517 2.5 -0.00763702
      vertex 3.005 2.5 0.185953
    endloop
  endfacet
  facet normal 0 1 0
    outer loop
      vertex 5 2.5 2.5
      vertex 3.29288 2.5 -0.210275
      vertex 3.15517 2.5 -0.00763702
    endloop
  endfacet
  facet normal 0 1 0
    outer loop
      vertex 5 2.5 2.5
      vertex 3.4176 2.5 -0.42116
      vertex 3.29288 2.5 -0.210275
    endloop
  endfacet
  facet normal 0 1 0
    outer loop
      vertex 5 2.5 2.5
      vertex 3.52882 2.5 -0.639461
      vertex 3.4176 2.5 -0.42116
    endloop
  endfacet
  facet normal 0 1 0
    outer loop
      vertex 5 2.5 2.5
      vertex 3.62613 2.5 -0.864314
      vertex 3.52882 2.5 -0.639461
    endloop
  endfacet
  facet normal 0 1 0
    outer loop
      vertex 5 2.5 2.5
      vertex 3.70912 2.5 -1.09483
      vertex 3.62613 2.5 -0.864314
    endloop
  endfacet
  facet normal 0 1 -0
    outer loop
      vertex 5 2.5 -2.5
      vertex 3.70912 2.5 -1.09483
      vertex 5 2.5 2.5
    endloop
  endfacet
  facet normal 0 1 0
    outer loop
      vertex 3.70912 2.5 -1.09483
      vertex 5 2.5 -2.5
      vertex 3.77747 2.5 -1.33011
    endloop
  endfacet
  facet normal 0 1 0
    outer loop
      vertex 3.77747 2.5 -1.33011
      vertex 5 2.5 -2.5
      vertex 3.83092 2.5 -1.56921
    endloop
  endfacet
  facet normal 0 1 0
    outer loop
      vertex 3.83092 2.5 -1.56921
      vertex 5 2.5 -2.5
      vertex 3.86925 2.5 -1.8112
    endloop
  endfacet
  facet normal 0 1 0
    outer loop
      vertex 3.86925 2.5 -1.8112
      vertex 5 2.5 -2.5
      vertex 3.8923 2.5 -2.05512
    endloop
  endfacet
  facet normal 0 1 0
    outer loop
      vertex 3.8923 2.5 -2.05512
      vertex 5 2.5 -2.5
      vertex 3.9 2.5 -2.3
    endloop
  endfacet
  facet normal 0 1 0
    outer loop
      vertex 3.9 2.5 -2.3
      vertex 5 2.5 -2.5
      vertex 3.89371 2.5 -2.5
    endloop
  endfacet
  facet normal 0 1 -0
    outer loop
      vertex -0.244883 2.5 1.5923
      vertex -5 2.5 2.5
      vertex 0 2.5 1.6
    endloop
  endfacet
  facet normal 0 1 -0
    outer loop
      vertex -0.488799 2.5 1.56925
      vertex -5 2.5 2.5
      vertex -0.244883 2.5 1.5923
    endloop
  endfacet
  facet normal 0 1 -0
    outer loop
      vertex -0.730786 2.5 1.53092
      vertex -5 2.5 2.5
      vertex -0.488799 2.5 1.56925
    endloop
  endfacet
  facet normal 0 1 -0
    outer loop
      vertex -0.96989 2.5 1.47747
      vertex -5 2.5 2.5
      vertex -0.730786 2.5 1.53092
    endloop
  endfacet
  facet normal 0 1 -0
    outer loop
      vertex -1.20517 2.5 1.40912
      vertex -5 2.5 2.5
      vertex -0.96989 2.5 1.47747
    endloop
  endfacet
  facet normal 0 1 -0
    outer loop
      vertex -1.43569 2.5 1.32613
      vertex -5 2.5 2.5
      vertex -1.20517 2.5 1.40912
    endloop
  endfacet
  facet normal 0 1 -0
    outer loop
      vertex -1.66054 2.5 1.22882
      vertex -5 2.5 2.5
      vertex -1.43569 2.5 1.32613
    endloop
  endfacet
  facet normal 0 1 -0
    outer loop
      vertex -1.87884 2.5 1.1176
      vertex -5 2.5 2.5
      vertex -1.66054 2.5 1.22882
    endloop
  endfacet
  facet normal 0 1 -0
    outer loop
      vertex -2.08972 2.5 0.992878
      vertex -5 2.5 2.5
      vertex -1.87884 2.5 1.1176
    endloop
  endfacet
  facet normal 0 1 -0
    outer loop
      vertex -2.29236 2.5 0.855165
      vertex -5 2.5 2.5
      vertex -2.08972 2.5 0.992878
    endloop
  endfacet
  facet normal 0 1 -0
    outer loop
      vertex -2.48595 2.5 0.705001
      vertex -5 2.5 2.5
      vertex -2.29236 2.5 0.855165
    endloop
  endfacet
  facet normal 0 1 -0
    outer loop
      vertex -2.66973 2.5 0.542977
      vertex -5 2.5 2.5
      vertex -2.48595 2.5 0.705001
    endloop
  endfacet
  facet normal 0 1 -0
    outer loop
      vertex -2.84298 2.5 0.369733
      vertex -5 2.5 2.5
      vertex -2.66973 2.5 0.542977
    endloop
  endfacet
  facet normal 0 1 -0
    outer loop
      vertex -3.005 2.5 0.185953
      vertex -5 2.5 2.5
      vertex -2.84298 2.5 0.369733
    endloop
  endfacet
  facet normal 0 1 -0
    outer loop
      vertex -3.15517 2.5 -0.00763702
      vertex -5 2.5 2.5
      vertex -3.005 2.5 0.185953
    endloop
  endfacet
  facet normal 0 1 -0
    outer loop
      vertex -3.29288 2.5 -0.210275
      vertex -5 2.5 2.5
      vertex -3.15517 2.5 -0.00763702
    endloop
  endfacet
  facet normal 0 1 -0
    outer loop
      vertex -3.4176 2.5 -0.42116
      vertex -5 2.5 2.5
      vertex -3.29288 2.5 -0.210275
    endloop
  endfacet
  facet normal 0 1 -0
    outer loop
      vertex -3.52882 2.5 -0.639461
      vertex -5 2.5 2.5
      vertex -3.4176 2.5 -0.42116
    endloop
  endfacet
  facet normal 0 1 -0
    outer loop
      vertex -3.62613 2.5 -0.864314
      vertex -5 2.5 2.5
      vertex -3.52882 2.5 -0.639461
    endloop
  endfacet
  facet normal 0 1 -0
    outer loop
      vertex -3.70912 2.5 -1.09483
      vertex -5 2.5 2.5
      vertex -3.62613 2.5 -0.864314
    endloop
  endfacet
  facet normal 0 1 0
    outer loop
      vertex -5 2.5 -2.5
      vertex -3.70912 2.5 -1.09483
      vertex -3.77747 2.5 -1.33011
    endloop
  endfacet
  facet normal 0 1 0
    outer loop
      vertex -5 2.5 -2.5
      vertex -3.77747 2.5 -1.33011
      vertex -3.83092 2.5 -1.56921
    endloop
  endfacet
  facet normal 0 1 0
    outer loop
      vertex -5 2.5 -2.5
      vertex -3.83092 2.5 -1.56921
      vertex -3.86925 2.5 -1.8112
    endloop
  endfacet
  facet normal 0 1 0
    outer loop
      vertex -5 2.5 -2.5
      vertex -3.86925 2.5 -1.8112
      vertex -3.8923 2.5 -2.05512
    endloop
  endfacet
  facet normal 0 1 0
    outer loop
      vertex -5 2.5 -2.5
      vertex -3.8923 2.5 -2.05512
      vertex -3.9 2.5 -2.3
    endloop
  endfacet
  facet normal 0 1 0
    outer loop
      vertex -5 2.5 -2.5
      vertex -3.9 2.5 -2.3
      vertex -3.89371 2.5 -2.5
    endloop
  endfacet
  facet normal 0 1 0
    outer loop
      vertex -3.70912 2.5 -1.09483
      vertex -5 2.5 -2.5
      vertex -5 2.5 2.5
    endloop
  endfacet
  facet normal 0 0 -1
    outer loop
      vertex -5 -2.5 -2.5
      vertex -3.89371 2.5 -2.5
      vertex -3.89371 -2.5 -2.5
    endloop
  endfacet
  facet normal -0 0 -1
    outer loop
      vertex -3.89371 2.5 -2.5
      vertex -5 -2.5 -2.5
      vertex -5 2.5 -2.5
    endloop
  endfacet
  facet normal 0 0 -1
    outer loop
      vertex 3.89371 -2.5 -2.5
      vertex 5 2.5 -2.5
      vertex 5 -2.5 -2.5
    endloop
  endfacet
  facet normal -0 0 -1
    outer loop
      vertex 5 2.5 -2.5
      vertex 3.89371 -2.5 -2.5
      vertex 3.89371 2.5 -2.5
    endloop
  endfacet
  facet normal 0 -1 0
    outer loop
      vertex -5 -2.5 2.5
      vertex 0 -2.5 1.6
      vertex 5 -2.5 2.5
    endloop
  endfacet
  facet normal 0 -1 0
    outer loop
      vertex -5 -2.5 2.5
      vertex -0.244883 -2.5 1.5923
      vertex 0 -2.5 1.6
    endloop
  endfacet
  facet normal 0 -1 0
    outer loop
      vertex -5 -2.5 2.5
      vertex -0.488799 -2.5 1.56925
      vertex -0.244883 -2.5 1.5923
    endloop
  endfacet
  facet normal 0 -1 0
    outer loop
      vertex -5 -2.5 2.5
      vertex -0.730786 -2.5 1.53092
      vertex -0.488799 -2.5 1.56925
    endloop
  endfacet
  facet normal 0 -1 0
    outer loop
      vertex -5 -2.5 2.5
      vertex -0.96989 -2.5 1.47747
      vertex -0.730786 -2.5 1.53092
    endloop
  endfacet
  facet normal 0 -1 0
    outer loop
      vertex -5 -2.5 2.5
      vertex -1.20517 -2.5 1.40912
      vertex -0.96989 -2.5 1.47747
    endloop
  endfacet
  facet normal 0 -1 0
    outer loop
      vertex -5 -2.5 2.5
      vertex -1.43569 -2.5 1.32613
      vertex -1.20517 -2.5 1.40912
    endloop
  endfacet
  facet normal 0 -1 0
    outer loop
      vertex -5 -2.5 2.5
      vertex -1.66054 -2.5 1.22882
      vertex -1.43569 -2.5 1.32613
    endloop
  endfacet
  facet normal 0 -1 0
    outer loop
      vertex -5 -2.5 2.5
      vertex -1.87884 -2.5 1.1176
      vertex -1.66054 -2.5 1.22882
    endloop
  endfacet
  facet normal 0 -1 0
    outer loop
      vertex -5 -2.5 2.5
      vertex -2.08972 -2.5 0.992878
      vertex -1.87884 -2.5 1.1176
    endloop
  endfacet
  facet normal 0 -1 0
    outer loop
      vertex -5 -2.5 2.5
      vertex -2.29236 -2.5 0.855165
      vertex -2.08972 -2.5 0.992878
    endloop
  endfacet
  facet normal 0 -1 0
    outer loop
      vertex -5 -2.5 2.5
      vertex -2.48595 -2.5 0.705001
      vertex -2.29236 -2.5 0.855165
    endloop
  endfacet
  facet normal 0 -1 0
    outer loop
      vertex -5 -2.5 2.5
      vertex -2.66973 -2.5 0.542977
      vertex -2.48595 -2.5 0.705001
    endloop
  endfacet
  facet normal 0 -1 0
    outer loop
      vertex -5 -2.5 2.5
      vertex -2.84298 -2.5 0.369733
      vertex -2.66973 -2.5 0.542977
    endloop
  endfacet
  facet normal 0 -1 0
    outer loop
      vertex -5 -2.5 2.5
      vertex -3.005 -2.5 0.185953
      vertex -2.84298 -2.5 0.369733
    endloop
  endfacet
  facet normal 0 -1 0
    outer loop
      vertex -5 -2.5 2.5
      vertex -3.15517 -2.5 -0.00763702
      vertex -3.005 -2.5 0.185953
    endloop
  endfacet
  facet normal 0 -1 0
    outer loop
      vertex -5 -2.5 2.5
      vertex -3.29288 -2.5 -0.210275
      vertex -3.15517 -2.5 -0.00763702
    endloop
  endfacet
  facet normal 0 -1 0
    outer loop
      vertex -5 -2.5 2.5
      vertex -3.4176 -2.5 -0.42116
      vertex -3.29288 -2.5 -0.210275
    endloop
  endfacet
  facet normal 0 -1 0
    outer loop
      vertex -5 -2.5 2.5
      vertex -3.52882 -2.5 -0.639461
      vertex -3.4176 -2.5 -0.42116
    endloop
  endfacet
  facet normal 0 -1 0
    outer loop
      vertex -5 -2.5 2.5
      vertex -3.62613 -2.5 -0.864314
      vertex -3.52882 -2.5 -0.639461
    endloop
  endfacet
  facet normal 0 -1 0
    outer loop
      vertex -5 -2.5 2.5
      vertex -3.70912 -2.5 -1.09483
      vertex -3.62613 -2.5 -0.864314
    endloop
  endfacet
  facet normal 0 -1 0
    outer loop
      vertex -5 -2.5 -2.5
      vertex -3.70912 -2.5 -1.09483
      vertex -5 -2.5 2.5
    endloop
  endfacet
  facet normal 0 -1 0
    outer loop
      vertex -3.70912 -2.5 -1.09483
      vertex -5 -2.5 -2.5
      vertex -3.77747 -2.5 -1.33011
    endloop
  endfacet
  facet normal 0 -1 0
    outer loop
      vertex -3.77747 -2.5 -1.33011
      vertex -5 -2.5 -2.5
      vertex -3.83092 -2.5 -1.56921
    endloop
  endfacet
  facet normal 0 -1 0
    outer loop
      vertex -3.83092 -2.5 -1.56921
      vertex -5 -2.5 -2.5
      vertex -3.86925 -2.5 -1.8112
    endloop
  endfacet
  facet normal 0 -1 0
    outer loop
      vertex -3.86925 -2.5 -1.8112
      vertex -5 -2.5 -2.5
      vertex -3.8923 -2.5 -2.05512
    endloop
  endfacet
  facet normal 0 -1 0
    outer loop
      vertex -3.8923 -2.5 -2.05512
      vertex -5 -2.5 -2.5
      vertex -3.9 -2.5 -2.3
    endloop
  endfacet
  facet normal 0 -1 -0
    outer loop
      vertex -3.9 -2.5 -2.3
      vertex -5 -2.5 -2.5
      vertex -3.89371 -2.5 -2.5
    endloop
  endfacet
  facet normal 0 -1 0
    outer loop
      vertex 0.244883 -2.5 1.5923
      vertex 5 -2.5 2.5
      vertex 0 -2.5 1.6
    endloop
  endfacet
  facet normal 0 -1 0
    outer loop
      vertex 0.488799 -2.5 1.56925
      vertex 5 -2.5 2.5
      vertex 0.244883 -2.5 1.5923
    endloop
  endfacet
  facet normal 0 -1 0
    outer loop
      vertex 0.730786 -2.5 1.53092
      vertex 5 -2.5 2.5
      vertex 0.488799 -2.5 1.56925
    endloop
  endfacet
  facet normal 0 -1 0
    outer loop
      vertex 0.96989 -2.5 1.47747
      vertex 5 -2.5 2.5
      vertex 0.730786 -2.5 1.53092
    endloop
  endfacet
  facet normal 0 -1 0
    outer loop
      vertex 1.20517 -2.5 1.40912
      vertex 5 -2.5 2.5
      vertex 0.96989 -2.5 1.47747
    endloop
  endfacet
  facet normal 0 -1 0
    outer loop
      vertex 1.43569 -2.5 1.32613
      vertex 5 -2.5 2.5
      vertex 1.20517 -2.5 1.40912
    endloop
  endfacet
  facet normal 0 -1 0
    outer loop
      vertex 1.66054 -2.5 1.22882
      vertex 5 -2.5 2.5
      vertex 1.43569 -2.5 1.32613
    endloop
  endfacet
  facet normal 0 -1 0
    outer loop
      vertex 1.87884 -2.5 1.1176
      vertex 5 -2.5 2.5
      vertex 1.66054 -2.5 1.22882
    endloop
  endfacet
  facet normal 0 -1 0
    outer loop
      vertex 2.08972 -2.5 0.992878
      vertex 5 -2.5 2.5
      vertex 1.87884 -2.5 1.1176
    endloop
  endfacet
  facet normal 0 -1 0
    outer loop
      vertex 2.29236 -2.5 0.855165
      vertex 5 -2.5 2.5
      vertex 2.08972 -2.5 0.992878
    endloop
  endfacet
  facet normal 0 -1 0
    outer loop
      vertex 2.48595 -2.5 0.705001
      vertex 5 -2.5 2.5
      vertex 2.29236 -2.5 0.855165
    endloop
  endfacet
  facet normal 0 -1 0
    outer loop
      vertex 2.66973 -2.5 0.542977
      vertex 5 -2.5 2.5
      vertex 2.48595 -2.5 0.705001
    endloop
  endfacet
  facet normal 0 -1 0
    outer loop
      vertex 2.84298 -2.5 0.369733
      vertex 5 -2.5 2.5
      vertex 2.66973 -2.5 0.542977
    endloop
  endfacet
  facet normal 0 -1 0
    outer loop
      vertex 3.005 -2.5 0.185953
      vertex 5 -2.5 2.5
      vertex 2.84298 -2.5 0.369733
    endloop
  endfacet
  facet normal 0 -1 0
    outer loop
      vertex 3.15517 -2.5 -0.00763702
      vertex 5 -2.5 2.5
      vertex 3.005 -2.5 0.185953
    endloop
  endfacet
  facet normal 0 -1 0
    outer loop
      vertex 3.29288 -2.5 -0.210275
      vertex 5 -2.5 2.5
      vertex 3.15517 -2.5 -0.00763702
    endloop
  endfacet
  facet normal 0 -1 0
    outer loop
      vertex 3.4176 -2.5 -0.42116
      vertex 5 -2.5 2.5
      vertex 3.29288 -2.5 -0.210275
    endloop
  endfacet
  facet normal 0 -1 0
    outer loop
      vertex 3.52882 -2.5 -0.639461
      vertex 5 -2.5 2.5
      vertex 3.4176 -2.5 -0.42116
    endloop
  endfacet
  facet normal 0 -1 0
    outer loop
      vertex 3.62613 -2.5 -0.864314
      vertex 5 -2.5 2.5
      vertex 3.52882 -2.5 -0.639461
    endloop
  endfacet
  facet normal 0 -1 0
    outer loop
      vertex 3.70912 -2.5 -1.09483
      vertex 5 -2.5 2.5
      vertex 3.62613 -2.5 -0.864314
    endloop
  endfacet
  facet normal 0 -1 0
    outer loop
      vertex 5 -2.5 -2.5
      vertex 3.70912 -2.5 -1.09483
      vertex 3.77747 -2.5 -1.33011
    endloop
  endfacet
  facet normal 0 -1 0
    outer loop
      vertex 5 -2.5 -2.5
      vertex 3.77747 -2.5 -1.33011
      vertex 3.83092 -2.5 -1.56921
    endloop
  endfacet
  facet normal 0 -1 0
    outer loop
      vertex 5 -2.5 -2.5
      vertex 3.83092 -2.5 -1.56921
      vertex 3.86925 -2.5 -1.8112
    endloop
  endfacet
  facet normal 0 -1 0
    outer loop
      vertex 5 -2.5 -2.5
      vertex 3.86925 -2.5 -1.8112
      vertex 3.8923 -2.5 -2.05512
    endloop
  endfacet
  facet normal 0 -1 0
    outer loop
      vertex 5 -2.5 -2.5
      vertex 3.8923 -2.5 -2.05512
      vertex 3.9 -2.5 -2.3
    endloop
  endfacet
  facet normal 0 -1 0
    outer loop
      vertex 5 -2.5 -2.5
      vertex 3.9 -2.5 -2.3
      vertex 3.89371 -2.5 -2.5
    endloop
  endfacet
  facet normal 0 -1 0
    outer loop
      vertex 3.70912 -2.5 -1.09483
      vertex 5 -2.5 -2.5
      vertex 5 -2.5 2.5
    endloop
  endfacet
  facet normal -0.999507 0 -0.0314124
    outer loop
      vertex 3.9 -2.5 -2.3
      vertex 3.8923 2.5 -2.05512
      vertex 3.9 2.5 -2.3
    endloop
  endfacet
  facet normal -0.999507 -0 -0.0314124
    outer loop
      vertex 3.8923 2.5 -2.05512
      vertex 3.9 -2.5 -2.3
      vertex 3.8923 -2.5 -2.05512
    endloop
  endfacet
  facet normal 0.0314085 0 -0.999507
    outer loop
      vertex -0.244883 -2.5 1.5923
      vertex 0 2.5 1.6
      vertex 0 -2.5 1.6
    endloop
  endfacet
  facet normal 0.0314085 0 -0.999507
    outer loop
      vertex 0 2.5 1.6
      vertex -0.244883 -2.5 1.5923
      vertex -0.244883 2.5 1.5923
    endloop
  endfacet
  facet normal 0.0941087 0 -0.995562
    outer loop
      vertex -0.488799 -2.5 1.56925
      vertex -0.244883 2.5 1.5923
      vertex -0.244883 -2.5 1.5923
    endloop
  endfacet
  facet normal 0.0941087 0 -0.995562
    outer loop
      vertex -0.244883 2.5 1.5923
      vertex -0.488799 -2.5 1.56925
      vertex -0.488799 2.5 1.56925
    endloop
  endfacet
  facet normal 0.995562 0 -0.0941087
    outer loop
      vertex -3.86925 -2.5 -1.8112
      vertex -3.8923 2.5 -2.05512
      vertex -3.86925 2.5 -1.8112
    endloop
  endfacet
  facet normal 0.995562 0 -0.0941087
    outer loop
      vertex -3.8923 2.5 -2.05512
      vertex -3.86925 -2.5 -1.8112
      vertex -3.8923 -2.5 -2.05512
    endloop
  endfacet
  facet normal -0.995562 0 -0.0941087
    outer loop
      vertex 3.8923 -2.5 -2.05512
      vertex 3.86925 2.5 -1.8112
      vertex 3.8923 2.5 -2.05512
    endloop
  endfacet
  facet normal -0.995562 -0 -0.0941087
    outer loop
      vertex 3.86925 2.5 -1.8112
      vertex 3.8923 -2.5 -2.05512
      vertex 3.86925 -2.5 -1.8112
    endloop
  endfacet
  facet normal -0.661312 0 -0.750111
    outer loop
      vertex 2.48595 -2.5 0.705001
      vertex 2.66973 2.5 0.542977
      vertex 2.66973 -2.5 0.542977
    endloop
  endfacet
  facet normal -0.661312 0 -0.750111
    outer loop
      vertex 2.66973 2.5 0.542977
      vertex 2.48595 -2.5 0.705001
      vertex 2.48595 2.5 0.705001
    endloop
  endfacet
  facet normal 0.987689 0 -0.156431
    outer loop
      vertex -3.83092 -2.5 -1.56921
      vertex -3.86925 2.5 -1.8112
      vertex -3.83092 2.5 -1.56921
    endloop
  endfacet
  facet normal 0.987689 0 -0.156431
    outer loop
      vertex -3.86925 2.5 -1.8112
      vertex -3.83092 -2.5 -1.56921
      vertex -3.86925 -2.5 -1.8112
    endloop
  endfacet
  facet normal 0.218143 0 -0.975917
    outer loop
      vertex -0.96989 -2.5 1.47747
      vertex -0.730786 2.5 1.53092
      vertex -0.730786 -2.5 1.53092
    endloop
  endfacet
  facet normal 0.218143 0 -0.975917
    outer loop
      vertex -0.730786 2.5 1.53092
      vertex -0.96989 -2.5 1.47747
      vertex -0.96989 2.5 1.47747
    endloop
  endfacet
  facet normal -0.338736 0 -0.940881
    outer loop
      vertex 1.20517 -2.5 1.40912
      vertex 1.43569 2.5 1.32613
      vertex 1.43569 -2.5 1.32613
    endloop
  endfacet
  facet normal -0.338736 0 -0.940881
    outer loop
      vertex 1.43569 2.5 1.32613
      vertex 1.20517 -2.5 1.40912
      vertex 1.20517 2.5 1.40912
    endloop
  endfacet
  facet normal 0.999507 0 -0.0314124
    outer loop
      vertex -3.8923 -2.5 -2.05512
      vertex -3.9 2.5 -2.3
      vertex -3.8923 2.5 -2.05512
    endloop
  endfacet
  facet normal 0.999507 0 -0.0314124
    outer loop
      vertex -3.9 2.5 -2.3
      vertex -3.8923 -2.5 -2.05512
      vertex -3.9 -2.5 -2.3
    endloop
  endfacet
  facet normal 0.999506 -0 0.0314127
    outer loop
      vertex -3.9 -2.5 -2.3
      vertex -3.89371 2.5 -2.5
      vertex -3.9 2.5 -2.3
    endloop
  endfacet
  facet normal 0.999506 0 0.0314127
    outer loop
      vertex -3.89371 2.5 -2.5
      vertex -3.9 -2.5 -2.3
      vertex -3.89371 -2.5 -2.5
    endloop
  endfacet
  facet normal -0.891008 0 -0.453988
    outer loop
      vertex 3.52882 -2.5 -0.639461
      vertex 3.4176 2.5 -0.42116
      vertex 3.52882 2.5 -0.639461
    endloop
  endfacet
  facet normal -0.891008 -0 -0.453988
    outer loop
      vertex 3.4176 2.5 -0.42116
      vertex 3.52882 -2.5 -0.639461
      vertex 3.4176 -2.5 -0.42116
    endloop
  endfacet
  facet normal -0.999506 0 0.0314127
    outer loop
      vertex 3.89371 -2.5 -2.5
      vertex 3.9 2.5 -2.3
      vertex 3.89371 2.5 -2.5
    endloop
  endfacet
  facet normal -0.999506 0 0.0314127
    outer loop
      vertex 3.9 2.5 -2.3
      vertex 3.89371 -2.5 -2.5
      vertex 3.9 -2.5 -2.3
    endloop
  endfacet
  facet normal 0.82708 0 -0.562084
    outer loop
      vertex -3.15517 -2.5 -0.00763702
      vertex -3.29288 2.5 -0.210275
      vertex -3.15517 2.5 -0.00763702
    endloop
  endfacet
  facet normal 0.82708 0 -0.562084
    outer loop
      vertex -3.29288 2.5 -0.210275
      vertex -3.15517 -2.5 -0.00763702
      vertex -3.29288 -2.5 -0.210275
    endloop
  endfacet
  facet normal -0.860741 0 -0.509043
    outer loop
      vertex 3.4176 -2.5 -0.42116
      vertex 3.29288 2.5 -0.210275
      vertex 3.4176 2.5 -0.42116
    endloop
  endfacet
  facet normal -0.860741 -0 -0.509043
    outer loop
      vertex 3.29288 2.5 -0.210275
      vertex 3.4176 -2.5 -0.42116
      vertex 3.29288 -2.5 -0.210275
    endloop
  endfacet
  facet normal -0.0941087 0 -0.995562
    outer loop
      vertex 0.244883 -2.5 1.5923
      vertex 0.488799 2.5 1.56925
      vertex 0.488799 -2.5 1.56925
    endloop
  endfacet
  facet normal -0.0941087 0 -0.995562
    outer loop
      vertex 0.488799 2.5 1.56925
      vertex 0.244883 -2.5 1.5923
      vertex 0.244883 2.5 1.5923
    endloop
  endfacet
  facet normal -0.278993 0 -0.960293
    outer loop
      vertex 0.96989 -2.5 1.47747
      vertex 1.20517 2.5 1.40912
      vertex 1.20517 -2.5 1.40912
    endloop
  endfacet
  facet normal -0.278993 0 -0.960293
    outer loop
      vertex 1.20517 2.5 1.40912
      vertex 0.96989 -2.5 1.47747
      vertex 0.96989 2.5 1.47747
    endloop
  endfacet
  facet normal -0.156435 0 -0.987688
    outer loop
      vertex 0.488799 -2.5 1.56925
      vertex 0.730786 2.5 1.53092
      vertex 0.730786 -2.5 1.53092
    endloop
  endfacet
  facet normal -0.156435 0 -0.987688
    outer loop
      vertex 0.730786 2.5 1.53092
      vertex 0.488799 -2.5 1.56925
      vertex 0.488799 2.5 1.56925
    endloop
  endfacet
  facet normal -0.509043 0 -0.860741
    outer loop
      vertex 1.87884 -2.5 1.1176
      vertex 2.08972 2.5 0.992878
      vertex 2.08972 -2.5 0.992878
    endloop
  endfacet
  facet normal -0.509043 0 -0.860741
    outer loop
      vertex 2.08972 2.5 0.992878
      vertex 1.87884 -2.5 1.1176
      vertex 1.87884 2.5 1.1176
    endloop
  endfacet
  facet normal -0.562082 0 -0.827082
    outer loop
      vertex 2.08972 -2.5 0.992878
      vertex 2.29236 2.5 0.855165
      vertex 2.29236 -2.5 0.855165
    endloop
  endfacet
  facet normal -0.562082 0 -0.827082
    outer loop
      vertex 2.29236 2.5 0.855165
      vertex 2.08972 -2.5 0.992878
      vertex 2.08972 2.5 0.992878
    endloop
  endfacet
  facet normal -0.987689 0 -0.156431
    outer loop
      vertex 3.86925 -2.5 -1.8112
      vertex 3.83092 2.5 -1.56921
      vertex 3.86925 2.5 -1.8112
    endloop
  endfacet
  facet normal -0.987689 -0 -0.156431
    outer loop
      vertex 3.83092 2.5 -1.56921
      vertex 3.86925 -2.5 -1.8112
      vertex 3.83092 -2.5 -1.56921
    endloop
  endfacet
  facet normal -0.707107 0 -0.707107
    outer loop
      vertex 2.84298 -2.5 0.369733
      vertex 2.66973 2.5 0.542977
      vertex 2.84298 2.5 0.369733
    endloop
  endfacet
  facet normal -0.707107 -0 -0.707107
    outer loop
      vertex 2.66973 2.5 0.542977
      vertex 2.84298 -2.5 0.369733
      vertex 2.66973 -2.5 0.542977
    endloop
  endfacet
  facet normal -0.917754 0 -0.39715
    outer loop
      vertex 3.62613 -2.5 -0.864314
      vertex 3.52882 2.5 -0.639461
      vertex 3.62613 2.5 -0.864314
    endloop
  endfacet
  facet normal -0.917754 -0 -0.39715
    outer loop
      vertex 3.52882 2.5 -0.639461
      vertex 3.62613 -2.5 -0.864314
      vertex 3.52882 -2.5 -0.639461
    endloop
  endfacet
  facet normal 0.156435 0 -0.987688
    outer loop
      vertex -0.730786 -2.5 1.53092
      vertex -0.488799 2.5 1.56925
      vertex -0.488799 -2.5 1.56925
    endloop
  endfacet
  facet normal 0.156435 0 -0.987688
    outer loop
      vertex -0.488799 2.5 1.56925
      vertex -0.730786 -2.5 1.53092
      vertex -0.730786 2.5 1.53092
    endloop
  endfacet
  facet normal 0.338736 0 -0.940881
    outer loop
      vertex -1.43569 -2.5 1.32613
      vertex -1.20517 2.5 1.40912
      vertex -1.20517 -2.5 1.40912
    endloop
  endfacet
  facet normal 0.338736 0 -0.940881
    outer loop
      vertex -1.20517 2.5 1.40912
      vertex -1.43569 -2.5 1.32613
      vertex -1.43569 2.5 1.32613
    endloop
  endfacet
  facet normal 0.453989 0 -0.891007
    outer loop
      vertex -1.87884 -2.5 1.1176
      vertex -1.66054 2.5 1.22882
      vertex -1.66054 -2.5 1.22882
    endloop
  endfacet
  facet normal 0.453989 0 -0.891007
    outer loop
      vertex -1.66054 2.5 1.22882
      vertex -1.87884 -2.5 1.1176
      vertex -1.87884 2.5 1.1176
    endloop
  endfacet
  facet normal 0.278993 0 -0.960293
    outer loop
      vertex -1.20517 -2.5 1.40912
      vertex -0.96989 2.5 1.47747
      vertex -0.96989 -2.5 1.47747
    endloop
  endfacet
  facet normal 0.278993 0 -0.960293
    outer loop
      vertex -0.96989 2.5 1.47747
      vertex -1.20517 -2.5 1.40912
      vertex -1.20517 2.5 1.40912
    endloop
  endfacet
  facet normal 0.562082 0 -0.827082
    outer loop
      vertex -2.29236 -2.5 0.855165
      vertex -2.08972 2.5 0.992878
      vertex -2.08972 -2.5 0.992878
    endloop
  endfacet
  facet normal 0.562082 0 -0.827082
    outer loop
      vertex -2.08972 2.5 0.992878
      vertex -2.29236 -2.5 0.855165
      vertex -2.29236 2.5 0.855165
    endloop
  endfacet
  facet normal 0.891008 0 -0.453988
    outer loop
      vertex -3.4176 -2.5 -0.42116
      vertex -3.52882 2.5 -0.639461
      vertex -3.4176 2.5 -0.42116
    endloop
  endfacet
  facet normal 0.891008 0 -0.453988
    outer loop
      vertex -3.52882 2.5 -0.639461
      vertex -3.4176 -2.5 -0.42116
      vertex -3.52882 -2.5 -0.639461
    endloop
  endfacet
  facet normal -0.0314085 0 -0.999507
    outer loop
      vertex 0 -2.5 1.6
      vertex 0.244883 2.5 1.5923
      vertex 0.244883 -2.5 1.5923
    endloop
  endfacet
  facet normal -0.0314085 0 -0.999507
    outer loop
      vertex 0.244883 2.5 1.5923
      vertex 0 -2.5 1.6
      vertex 0 2.5 1.6
    endloop
  endfacet
  facet normal -0.218143 0 -0.975917
    outer loop
      vertex 0.730786 -2.5 1.53092
      vertex 0.96989 2.5 1.47747
      vertex 0.96989 -2.5 1.47747
    endloop
  endfacet
  facet normal -0.218143 0 -0.975917
    outer loop
      vertex 0.96989 2.5 1.47747
      vertex 0.730786 -2.5 1.53092
      vertex 0.730786 2.5 1.53092
    endloop
  endfacet
  facet normal -0.453989 0 -0.891007
    outer loop
      vertex 1.66054 -2.5 1.22882
      vertex 1.87884 2.5 1.1176
      vertex 1.87884 -2.5 1.1176
    endloop
  endfacet
  facet normal -0.453989 0 -0.891007
    outer loop
      vertex 1.87884 2.5 1.1176
      vertex 1.66054 -2.5 1.22882
      vertex 1.66054 2.5 1.22882
    endloop
  endfacet
  facet normal -0.39715 0 -0.917754
    outer loop
      vertex 1.43569 -2.5 1.32613
      vertex 1.66054 2.5 1.22882
      vertex 1.66054 -2.5 1.22882
    endloop
  endfacet
  facet normal -0.39715 0 -0.917754
    outer loop
      vertex 1.66054 2.5 1.22882
      vertex 1.43569 -2.5 1.32613
      vertex 1.43569 2.5 1.32613
    endloop
  endfacet
  facet normal -0.612907 0 -0.790155
    outer loop
      vertex 2.29236 -2.5 0.855165
      vertex 2.48595 2.5 0.705001
      vertex 2.48595 -2.5 0.705001
    endloop
  endfacet
  facet normal -0.612907 0 -0.790155
    outer loop
      vertex 2.48595 2.5 0.705001
      vertex 2.29236 -2.5 0.855165
      vertex 2.29236 2.5 0.855165
    endloop
  endfacet
  facet normal -0.940881 0 -0.338736
    outer loop
      vertex 3.70912 -2.5 -1.09483
      vertex 3.62613 2.5 -0.864314
      vertex 3.70912 2.5 -1.09483
    endloop
  endfacet
  facet normal -0.940881 -0 -0.338736
    outer loop
      vertex 3.62613 2.5 -0.864314
      vertex 3.70912 -2.5 -1.09483
      vertex 3.62613 -2.5 -0.864314
    endloop
  endfacet
  facet normal -0.750111 0 -0.661312
    outer loop
      vertex 3.005 -2.5 0.185953
      vertex 2.84298 2.5 0.369733
      vertex 3.005 2.5 0.185953
    endloop
  endfacet
  facet normal -0.750111 -0 -0.661312
    outer loop
      vertex 2.84298 2.5 0.369733
      vertex 3.005 -2.5 0.185953
      vertex 2.84298 -2.5 0.369733
    endloop
  endfacet
  facet normal -0.82708 0 -0.562084
    outer loop
      vertex 3.29288 -2.5 -0.210275
      vertex 3.15517 2.5 -0.00763702
      vertex 3.29288 2.5 -0.210275
    endloop
  endfacet
  facet normal -0.82708 -0 -0.562084
    outer loop
      vertex 3.15517 2.5 -0.00763702
      vertex 3.29288 -2.5 -0.210275
      vertex 3.15517 -2.5 -0.00763702
    endloop
  endfacet
  facet normal 0.39715 0 -0.917754
    outer loop
      vertex -1.66054 -2.5 1.22882
      vertex -1.43569 2.5 1.32613
      vertex -1.43569 -2.5 1.32613
    endloop
  endfacet
  facet normal 0.39715 0 -0.917754
    outer loop
      vertex -1.43569 2.5 1.32613
      vertex -1.66054 -2.5 1.22882
      vertex -1.66054 2.5 1.22882
    endloop
  endfacet
  facet normal 0.661312 0 -0.750111
    outer loop
      vertex -2.66973 -2.5 0.542977
      vertex -2.48595 2.5 0.705001
      vertex -2.48595 -2.5 0.705001
    endloop
  endfacet
  facet normal 0.661312 0 -0.750111
    outer loop
      vertex -2.48595 2.5 0.705001
      vertex -2.66973 -2.5 0.542977
      vertex -2.66973 2.5 0.542977
    endloop
  endfacet
  facet normal 0.612907 0 -0.790155
    outer loop
      vertex -2.48595 -2.5 0.705001
      vertex -2.29236 2.5 0.855165
      vertex -2.29236 -2.5 0.855165
    endloop
  endfacet
  facet normal 0.612907 0 -0.790155
    outer loop
      vertex -2.29236 2.5 0.855165
      vertex -2.48595 -2.5 0.705001
      vertex -2.48595 2.5 0.705001
    endloop
  endfacet
  facet normal 0.917754 0 -0.39715
    outer loop
      vertex -3.52882 -2.5 -0.639461
      vertex -3.62613 2.5 -0.864314
      vertex -3.52882 2.5 -0.639461
    endloop
  endfacet
  facet normal 0.917754 0 -0.39715
    outer loop
      vertex -3.62613 2.5 -0.864314
      vertex -3.52882 -2.5 -0.639461
      vertex -3.62613 -2.5 -0.864314
    endloop
  endfacet
  facet normal 0.940881 0 -0.338736
    outer loop
      vertex -3.62613 -2.5 -0.864314
      vertex -3.70912 2.5 -1.09483
      vertex -3.62613 2.5 -0.864314
    endloop
  endfacet
  facet normal 0.940881 0 -0.338736
    outer loop
      vertex -3.70912 2.5 -1.09483
      vertex -3.62613 -2.5 -0.864314
      vertex -3.70912 -2.5 -1.09483
    endloop
  endfacet
  facet normal 0.975916 0 -0.218147
    outer loop
      vertex -3.77747 -2.5 -1.33011
      vertex -3.83092 2.5 -1.56921
      vertex -3.77747 2.5 -1.33011
    endloop
  endfacet
  facet normal 0.975916 0 -0.218147
    outer loop
      vertex -3.83092 2.5 -1.56921
      vertex -3.77747 -2.5 -1.33011
      vertex -3.83092 -2.5 -1.56921
    endloop
  endfacet
  facet normal 0.960294 0 -0.278991
    outer loop
      vertex -3.70912 -2.5 -1.09483
      vertex -3.77747 2.5 -1.33011
      vertex -3.70912 2.5 -1.09483
    endloop
  endfacet
  facet normal 0.960294 0 -0.278991
    outer loop
      vertex -3.77747 2.5 -1.33011
      vertex -3.70912 -2.5 -1.09483
      vertex -3.77747 -2.5 -1.33011
    endloop
  endfacet
  facet normal 0.860741 0 -0.509043
    outer loop
      vertex -3.29288 -2.5 -0.210275
      vertex -3.4176 2.5 -0.42116
      vertex -3.29288 2.5 -0.210275
    endloop
  endfacet
  facet normal 0.860741 0 -0.509043
    outer loop
      vertex -3.4176 2.5 -0.42116
      vertex -3.29288 -2.5 -0.210275
      vertex -3.4176 -2.5 -0.42116
    endloop
  endfacet
  facet normal -0.975916 0 -0.218147
    outer loop
      vertex 3.83092 -2.5 -1.56921
      vertex 3.77747 2.5 -1.33011
      vertex 3.83092 2.5 -1.56921
    endloop
  endfacet
  facet normal -0.975916 -0 -0.218147
    outer loop
      vertex 3.77747 2.5 -1.33011
      vertex 3.83092 -2.5 -1.56921
      vertex 3.77747 -2.5 -1.33011
    endloop
  endfacet
  facet normal -0.960294 0 -0.278991
    outer loop
      vertex 3.77747 -2.5 -1.33011
      vertex 3.70912 2.5 -1.09483
      vertex 3.77747 2.5 -1.33011
    endloop
  endfacet
  facet normal -0.960294 -0 -0.278991
    outer loop
      vertex 3.70912 2.5 -1.09483
      vertex 3.77747 -2.5 -1.33011
      vertex 3.70912 -2.5 -1.09483
    endloop
  endfacet
  facet normal -0.790154 0 -0.612909
    outer loop
      vertex 3.15517 -2.5 -0.00763702
      vertex 3.005 2.5 0.185953
      vertex 3.15517 2.5 -0.00763702
    endloop
  endfacet
  facet normal -0.790154 -0 -0.612909
    outer loop
      vertex 3.005 2.5 0.185953
      vertex 3.15517 -2.5 -0.00763702
      vertex 3.005 -2.5 0.185953
    endloop
  endfacet
  facet normal 0.509043 0 -0.860741
    outer loop
      vertex -2.08972 -2.5 0.992878
      vertex -1.87884 2.5 1.1176
      vertex -1.87884 -2.5 1.1176
    endloop
  endfacet
  facet normal 0.509043 0 -0.860741
    outer loop
      vertex -1.87884 2.5 1.1176
      vertex -2.08972 -2.5 0.992878
      vertex -2.08972 2.5 0.992878
    endloop
  endfacet
  facet normal 0.790154 0 -0.612909
    outer loop
      vertex -3.005 -2.5 0.185953
      vertex -3.15517 2.5 -0.00763702
      vertex -3.005 2.5 0.185953
    endloop
  endfacet
  facet normal 0.790154 0 -0.612909
    outer loop
      vertex -3.15517 2.5 -0.00763702
      vertex -3.005 -2.5 0.185953
      vertex -3.15517 -2.5 -0.00763702
    endloop
  endfacet
  facet normal 0.707107 0 -0.707107
    outer loop
      vertex -2.66973 -2.5 0.542977
      vertex -2.84298 2.5 0.369733
      vertex -2.66973 2.5 0.542977
    endloop
  endfacet
  facet normal 0.707107 0 -0.707107
    outer loop
      vertex -2.84298 2.5 0.369733
      vertex -2.66973 -2.5 0.542977
      vertex -2.84298 -2.5 0.369733
    endloop
  endfacet
  facet normal 0.750111 0 -0.661312
    outer loop
      vertex -2.84298 -2.5 0.369733
      vertex -3.005 2.5 0.185953
      vertex -2.84298 2.5 0.369733
    endloop
  endfacet
  facet normal 0.750111 0 -0.661312
    outer loop
      vertex -3.005 2.5 0.185953
      vertex -2.84298 -2.5 0.369733
      vertex -3.005 -2.5 0.185953
    endloop
  endfacet
endsolid OpenSCAD_Model
