solid OpenSCAD_Model
  facet normal -1 0 0
    outer loop
      vertex -5 -2.5 -2.5
      vertex -5 2.5 2.5
      vertex -5 2.5 -2.5
    endloop
  endfacet
  facet normal -1 -0 0
    outer loop
      vertex -5 2.5 2.5
      vertex -5 -2.5 -2.5
      vertex -5 -2.5 2.5
    endloop
  endfacet
  facet normal -0 0 1
    outer loop
      vertex -5 2.5 2.5
      vertex 5 -2.5 2.5
      vertex 5 2.5 2.5
    endloop
  endfacet
  facet normal 0 0 1
    outer loop
      vertex 5 -2.5 2.5
      vertex -5 2.5 2.5
      vertex -5 -2.5 2.5
    endloop
  endfacet
  facet normal 1 -0 0
    outer loop
      vertex 5 -2.5 2.5
      vertex 5 2.5 -2.5
      vertex 5 2.5 2.5
    endloop
  endfacet
  facet normal 1 0 0
    outer loop
      vertex 5 2.5 -2.5
      vertex 5 -2.5 2.5
      vertex 5 -2.5 -2.5
    endloop
  endfacet
  facet normal 0 1 0
    outer loop
      vertex 5 2.5 2.5
      vertex 0 2.5 0.4
      vertex -5 2.5 2.5
    endloop
  endfacet
  facet normal 0 1 0
    outer loop
      vertex 5 2.5 2.5
      vertex 0.188371 2.5 0.39408
      vertex 0 2.5 0.4
    endloop
  endfacet
  facet normal 0 1 0
    outer loop
      vertex 5 2.5 2.5
      vertex 0.375999 2.5 0.376344
      vertex 0.188371 2.5 0.39408
    endloop
  endfacet
  facet normal 0 1 0
    outer loop
      vertex 5 2.5 2.5
      vertex 0.562143 2.5 0.346861
      vertex 0.375999 2.5 0.376344
    endloop
  endfacet
  facet normal 0 1 0
    outer loop
      vertex 5 2.5 2.5
      vertex 0.746069 2.5 0.305749
      vertex 0.562143 2.5 0.346861
    endloop
  endfacet
  facet normal 0 1 0
    outer loop
      vertex 5 2.5 2.5
      vertex 0.927051 2.5 0.253169
      vertex 0.746069 2.5 0.305749
    endloop
  endfacet
  facet normal 0 1 0
    outer loop
      vertex 5 2.5 2.5
      vertex 1.10437 2.5 0.189329
      vertex 0.927051 2.5 0.253169
    endloop
  endfacet
  facet normal 0 1 0
    outer loop
      vertex 5 2.5 2.5
      vertex 1.27734 2.5 0.114481
      vertex 1.10437 2.5 0.189329
    endloop
  endfacet
  facet normal 0 1 0
    outer loop
      vertex 5 2.5 2.5
      vertex 1.44526 2.5 0.0289192
      vertex 1.27734 2.5 0.114481
    endloop
  endfacet
  facet normal 0 1 0
    outer loop
      vertex 5 2.5 2.5
      vertex 1.60748 2.5 -0.0670156
      vertex 1.44526 2.5 0.0289192
    endloop
  endfacet
  facet normal 0 1 0
    outer loop
      vertex 5 2.5 2.5
      vertex 1.76336 2.5 -0.172949
      vertex 1.60748 2.5 -0.0670156
    endloop
  endfacet
  facet normal 0 1 0
    outer loop
      vertex 5 2.5 2.5
      vertex 1.91227 2.5 -0.28846
      vertex 1.76336 2.5 -0.172949
    endloop
  endfacet
  facet normal 0 1 0
    outer loop
      vertex 5 2.5 2.5
      vertex 2.05364 2.5 -0.413094
      vertex 1.91227 2.5 -0.28846
    endloop
  endfacet
  facet normal 0 1 0
    outer loop
      vertex 5 2.5 2.5
      vertex 2.18691 2.5 -0.546358
      vertex 2.05364 2.5 -0.413094
    endloop
  endfacet
  facet normal 0 1 0
    outer loop
      vertex 5 2.5 2.5
      vertex 2.31154 2.5 -0.687728
      vertex 2.18691 2.5 -0.546358
    endloop
  endfacet
  facet normal 0 1 0
    outer loop
      vertex 5 2.5 2.5
      vertex 2.42705 2.5 -0.836644
      vertex 2.31154 2.5 -0.687728
    endloop
  endfacet
  facet normal 0 1 0
    outer loop
      vertex 5 2.5 2.5
      vertex 2.53298 2.5 -0.992519
      vertex 2.42705 2.5 -0.836644
    endloop
  endfacet
  facet normal 0 1 0
    outer loop
      vertex 5 2.5 2.5
      vertex 2.62892 2.5 -1.15474
      vertex 2.53298 2.5 -0.992519
    endloop
  endfacet
  facet normal 0 1 -0
    outer loop
      vertex 5 2.5 -2.5
      vertex 2.62892 2.5 -1.15474
      vertex 5 2.5 2.5
    endloop
  endfacet
  facet normal 0 1 0
    outer loop
      vertex 2.62892 2.5 -1.15474
      vertex 5 2.5 -2.5
      vertex 2.71448 2.5 -1.32266
    endloop
  endfacet
  facet normal 0 1 0
    outer loop
      vertex 2.71448 2.5 -1.32266
      vertex 5 2.5 -2.5
      vertex 2.78933 2.5 -1.49563
    endloop
  endfacet
  facet normal 0 1 0
    outer loop
      vertex 2.78933 2.5 -1.49563
      vertex 5 2.5 -2.5
      vertex 2.85317 2.5 -1.67295
    endloop
  endfacet
  facet normal 0 1 0
    outer loop
      vertex 2.85317 2.5 -1.67295
      vertex 5 2.5 -2.5
      vertex 2.90575 2.5 -1.85393
    endloop
  endfacet
  facet normal 0 1 0
    outer loop
      vertex 2.90575 2.5 -1.85393
      vertex 5 2.5 -2.5
      vertex 2.94686 2.5 -2.03786
    endloop
  endfacet
  facet normal 0 1 0
    outer loop
      vertex 2.94686 2.5 -2.03786
      vertex 5 2.5 -2.5
      vertex 2.97634 2.5 -2.224
    endloop
  endfacet
  facet normal 0 1 0
    outer loop
      vertex 2.97634 2.5 -2.224
      vertex 5 2.5 -2.5
      vertex 2.99408 2.5 -2.41163
    endloop
  endfacet
  facet normal 0 1 0
    outer loop
      vertex 2.99408 2.5 -2.41163
      vertex 5 2.5 -2.5
      vertex 2.99686 2.5 -2.5
    endloop
  endfacet
  facet normal 0 1 -0
    outer loop
      vertex -0.188371 2.5 0.39408
      vertex -5 2.5 2.5
      vertex 0 2.5 0.4
    endloop
  endfacet
  facet normal 0 1 -0
    outer loop
      vertex -0.375999 2.5 0.376344
      vertex -5 2.5 2.5
      vertex -0.188371 2.5 0.39408
    endloop
  endfacet
  facet normal 0 1 -0
    outer loop
      vertex -0.562143 2.5 0.346861
      vertex -5 2.5 2.5
      vertex -0.375999 2.5 0.376344
    endloop
  endfacet
  facet normal 0 1 -0
    outer loop
      vertex -0.746069 2.5 0.305749
      vertex -5 2.5 2.5
      vertex -0.562143 2.5 0.346861
    endloop
  endfacet
  facet normal 0 1 -0
    outer loop
      vertex -0.927051 2.5 0.253169
      vertex -5 2.5 2.5
      vertex -0.746069 2.5 0.305749
    endloop
  endfacet
  facet normal 0 1 -0
    outer loop
      vertex -1.10437 2.5 0.189329
      vertex -5 2.5 2.5
      vertex -0.927051 2.5 0.253169
    endloop
  endfacet
  facet normal 0 1 -0
    outer loop
      vertex -1.27734 2.5 0.114481
      vertex -5 2.5 2.5
      vertex -1.10437 2.5 0.189329
    endloop
  endfacet
  facet normal 0 1 -0
    outer loop
      vertex -1.44526 2.5 0.0289192
      vertex -5 2.5 2.5
      vertex -1.27734 2.5 0.114481
    endloop
  endfacet
  facet normal 0 1 -0
    outer loop
      vertex -1.60748 2.5 -0.0670156
      vertex -5 2.5 2.5
      vertex -1.44526 2.5 0.0289192
    endloop
  endfacet
  facet normal 0 1 -0
    outer loop
      vertex -1.76336 2.5 -0.172949
      vertex -5 2.5 2.5
      vertex -1.60748 2.5 -0.0670156
    endloop
  endfacet
  facet normal 0 1 -0
    outer loop
      vertex -1.91227 2.5 -0.28846
      vertex -5 2.5 2.5
      vertex -1.76336 2.5 -0.172949
    endloop
  endfacet
  facet normal 0 1 -0
    outer loop
      vertex -2.05364 2.5 -0.413094
      vertex -5 2.5 2.5
      vertex -1.91227 2.5 -0.28846
    endloop
  endfacet
  facet normal 0 1 -0
    outer loop
      vertex -2.18691 2.5 -0.546358
      vertex -5 2.5 2.5
      vertex -2.05364 2.5 -0.413094
    endloop
  endfacet
  facet normal 0 1 -0
    outer loop
      vertex -2.31154 2.5 -0.687728
      vertex -5 2.5 2.5
      vertex -2.18691 2.5 -0.546358
    endloop
  endfacet
  facet normal 0 1 -0
    outer loop
      vertex -2.42705 2.5 -0.836644
      vertex -5 2.5 2.5
      vertex -2.31154 2.5 -0.687728
    endloop
  endfacet
  facet normal 0 1 -0
    outer loop
      vertex -2.53298 2.5 -0.992519
      vertex -5 2.5 2.5
      vertex -2.42705 2.5 -0.836644
    endloop
  endfacet
  facet normal 0 1 -0
    outer loop
      vertex -2.62892 2.5 -1.15474
      vertex -5 2.5 2.5
      vertex -2.53298 2.5 -0.992519
    endloop
  endfacet
  facet normal 0 1 0
    outer loop
      vertex -5 2.5 -2.5
      vertex -2.62892 2.5 -1.15474
      vertex -2.71448 2.5 -1.32266
    endloop
  endfacet
  facet normal 0 1 0
    outer loop
      vertex -5 2.5 -2.5
      vertex -2.71448 2.5 -1.32266
      vertex -2.78933 2.5 -1.49563
    endloop
  endfacet
  facet normal 0 1 0
    outer loop
      vertex -5 2.5 -2.5
      vertex -2.78933 2.5 -1.49563
      vertex -2.85317 2.5 -1.67295
    endloop
  endfacet
  facet normal 0 1 0
    outer loop
      vertex -5 2.5 -2.5
      vertex -2.85317 2.5 -1.67295
      vertex -2.90575 2.5 -1.85393
    endloop
  endfacet
  facet normal 0 1 0
    outer loop
      vertex -5 2.5 -2.5
      vertex -2.90575 2.5 -1.85393
      vertex -2.94686 2.5 -2.03786
    endloop
  endfacet
  facet normal 0 1 0
    outer loop
      vertex -5 2.5 -2.5
      vertex -2.94686 2.5 -2.03786
      vertex -2.97634 2.5 -2.224
    endloop
  endfacet
  facet normal 0 1 0
    outer loop
      vertex -5 2.5 -2.5
      vertex -2.97634 2.5 -2.224
      vertex -2.99408 2.5 -2.41163
    endloop
  endfacet
  facet normal 0 1 0
    outer loop
      vertex -5 2.5 -2.5
      vertex -2.99408 2.5 -2.41163
      vertex -2.99686 2.5 -2.5
    endloop
  endfacet
  facet normal 0 1 0
    outer loop
      vertex -2.62892 2.5 -1.15474
      vertex -5 2.5 -2.5
      vertex -5 2.5 2.5
    endloop
  endfacet
  facet normal 0 0 -1
    outer loop
      vertex -5 -2.5 -2.5
      vertex -2.99686 2.5 -2.5
      vertex -2.99686 -2.5 -2.5
    endloop
  endfacet
  facet normal -0 0 -1
    outer loop
      vertex -2.99686 2.5 -2.5
      vertex -5 -2.5 -2.5
      vertex -5 2.5 -2.5
    endloop
  endfacet
  facet normal 0 0 -1
    outer loop
      vertex 2.99686 -2.5 -2.5
      vertex 5 2.5 -2.5
      vertex 5 -2.5 -2.5
    endloop
  endfacet
  facet normal -0 0 -1
    outer loop
      vertex 5 2.5 -2.5
      vertex 2.99686 -2.5 -2.5
      vertex 2.99686 2.5 -2.5
    endloop
  endfacet
  facet normal 0 -1 0
    outer loop
      vertex -5 -2.5 2.5
      vertex 0 -2.5 0.4
      vertex 5 -2.5 2.5
    endloop
  endfacet
  facet normal 0 -1 0
    outer loop
      vertex -5 -2.5 2.5
      vertex -0.188371 -2.5 0.39408
      vertex 0 -2.5 0.4
    endloop
  endfacet
  facet normal 0 -1 0
    outer loop
      vertex -5 -2.5 2.5
      vertex -0.375999 -2.5 0.376344
      vertex -0.188371 -2.5 0.39408
    endloop
  endfacet
  facet normal 0 -1 0
    outer loop
      vertex -5 -2.5 2.5
      vertex -0.562143 -2.5 0.346861
      vertex -0.375999 -2.5 0.376344
    endloop
  endfacet
  facet normal 0 -1 0
    outer loop
      vertex -5 -2.5 2.5
      vertex -0.746069 -2.5 0.305749
      vertex -0.562143 -2.5 0.346861
    endloop
  endfacet
  facet normal 0 -1 0
    outer loop
      vertex -5 -2.5 2.5
      vertex -0.927051 -2.5 0.253169
      vertex -0.746069 -2.5 0.305749
    endloop
  endfacet
  facet normal 0 -1 0
    outer loop
      vertex -5 -2.5 2.5
      vertex -1.10437 -2.5 0.189329
      vertex -0.927051 -2.5 0.253169
    endloop
  endfacet
  facet normal 0 -1 0
    outer loop
      vertex -5 -2.5 2.5
      vertex -1.27734 -2.5 0.114481
      vertex -1.10437 -2.5 0.189329
    endloop
  endfacet
  facet normal 0 -1 0
    outer loop
      vertex -5 -2.5 2.5
      vertex -1.44526 -2.5 0.0289192
      vertex -1.27734 -2.5 0.114481
    endloop
  endfacet
  facet normal 0 -1 0
    outer loop
      vertex -5 -2.5 2.5
      vertex -1.60748 -2.5 -0.0670156
      vertex -1.44526 -2.5 0.0289192
    endloop
  endfacet
  facet normal 0 -1 0
    outer loop
      vertex -5 -2.5 2.5
      vertex -1.76336 -2.5 -0.172949
      vertex -1.60748 -2.5 -0.0670156
    endloop
  endfacet
  facet normal 0 -1 0
    outer loop
      vertex -5 -2.5 2.5
      vertex -1.91227 -2.5 -0.28846
      vertex -1.76336 -2.5 -0.172949
    endloop
  endfacet
  facet normal 0 -1 0
    outer loop
      vertex -5 -2.5 2.5
      vertex -2.05364 -2.5 -0.413094
      vertex -1.91227 -2.5 -0.28846
    endloop
  endfacet
  facet normal 0 -1 0
    outer loop
      vertex -5 -2.5 2.5
      vertex -2.18691 -2.5 -0.546358
      vertex -2.05364 -2.5 -0.413094
    endloop
  endfacet
  facet normal 0 -1 0
    outer loop
      vertex -5 -2.5 2.5
      vertex -2.31154 -2.5 -0.687728
      vertex -2.18691 -2.5 -0.546358
    endloop
  endfacet
  facet normal 0 -1 0
    outer loop
      vertex -5 -2.5 2.5
      vertex -2.42705 -2.5 -0.836644
      vertex -2.31154 -2.5 -0.687728
    endloop
  endfacet
  facet normal 0 -1 0
    outer loop
      vertex -5 -2.5 2.5
      vertex -2.53298 -2.5 -0.992519
      vertex -2.42705 -2.5 -0.836644
    endloop
  endfacet
  facet normal 0 -1 0
    outer loop
      vertex -5 -2.5 2.5
      vertex -2.62892 -2.5 -1.15474
      vertex -2.53298 -2.5 -0.992519
    endloop
  endfacet
  facet normal 0 -1 0
    outer loop
      vertex -5 -2.5 -2.5
      vertex -2.62892 -2.5 -1.15474
      vertex -5 -2.5 2.5
    endloop
  endfacet
  facet normal 0 -1 0
    outer loop
      vertex -2.62892 -2.5 -1.15474
      vertex -5 -2.5 -2.5
      vertex -2.71448 -2.5 -1.32266
    endloop
  endfacet
  facet normal 0 -1 0
    outer loop
      vertex -2.71448 -2.5 -1.32266
      vertex -5 -2.5 -2.5
      vertex -2.78933 -2.5 -1.49563
    endloop
  endfacet
  facet normal 0 -1 0
    outer loop
      vertex -2.78933 -2.5 -1.49563
      vertex -5 -2.5 -2.5
      vertex -2.85317 -2.5 -1.67295
    endloop
  endfacet
  facet normal 0 -1 0
    outer loop
      vertex -2.85317 -2.5 -1.67295
      vertex -5 -2.5 -2.5
      vertex -2.90575 -2.5 -1.85393
    endloop
  endfacet
  facet normal 0 -1 0
    outer loop
      vertex -2.90575 -2.5 -1.85393
      vertex -5 -2.5 -2.5
      vertex -2.94686 -2.5 -2.03786
    endloop
  endfacet
  facet normal 0 -1 0
    outer loop
      vertex -2.94686 -2.5 -2.03786
      vertex -5 -2.5 -2.5
      vertex -2.97634 -2.5 -2.224
    endloop
  endfacet
  facet normal 0 -1 0
    outer loop
      vertex -2.97634 -2.5 -2.224
      vertex -5 -2.5 -2.5
      vertex -2.99408 -2.5 -2.41163
    endloop
  endfacet
  facet normal 0 -1 0
    outer loop
      vertex -2.99408 -2.5 -2.41163
      vertex -5 -2.5 -2.5
      vertex -2.99686 -2.5 -2.5
    endloop
  endfacet
  facet normal 0 -1 0
    outer loop
      vertex 0.188371 -2.5 0.39408
      vertex 5 -2.5 2.5
      vertex 0 -2.5 0.4
    endloop
  endfacet
  facet normal 0 -1 0
    outer loop
      vertex 0.375999 -2.5 0.376344
      vertex 5 -2.5 2.5
      vertex 0.188371 -2.5 0.39408
    endloop
  endfacet
  facet normal 0 -1 0
    outer loop
      vertex 0.562143 -2.5 0.346861
      vertex 5 -2.5 2.5
      vertex 0.375999 -2.5 0.376344
    endloop
  endfacet
  facet normal 0 -1 0
    outer loop
      vertex 0.746069 -2.5 0.305749
      vertex 5 -2.5 2.5
      vertex 0.562143 -2.5 0.346861
    endloop
  endfacet
  facet normal 0 -1 0
    outer loop
      vertex 0.927051 -2.5 0.253169
      vertex 5 -2.5 2.5
      vertex 0.746069 -2.5 0.305749
    endloop
  endfacet
  facet normal 0 -1 0
    outer loop
      vertex 1.10437 -2.5 0.189329
      vertex 5 -2.5 2.5
      vertex 0.927051 -2.5 0.253169
    endloop
  endfacet
  facet normal 0 -1 0
    outer loop
      vertex 1.27734 -2.5 0.114481
      vertex 5 -2.5 2.5
      vertex 1.10437 -2.5 0.189329
    endloop
  endfacet
  facet normal 0 -1 0
    outer loop
      vertex 1.44526 -2.5 0.0289192
      vertex 5 -2.5 2.5
      vertex 1.27734 -2.5 0.114481
    endloop
  endfacet
  facet normal 0 -1 0
    outer loop
      vertex 1.60748 -2.5 -0.0670156
      vertex 5 -2.5 2.5
      vertex 1.44526 -2.5 0.0289192
    endloop
  endfacet
  facet normal 0 -1 0
    outer loop
      vertex 1.76336 -2.5 -0.172949
      vertex 5 -2.5 2.5
      vertex 1.60748 -2.5 -0.0670156
    endloop
  endfacet
  facet normal 0 -1 0
    outer loop
      vertex 1.91227 -2.5 -0.28846
      vertex 5 -2.5 2.5
      vertex 1.76336 -2.5 -0.172949
    endloop
  endfacet
  facet normal 0 -1 0
    outer loop
      vertex 2.05364 -2.5 -0.413094
      vertex 5 -2.5 2.5
      vertex 1.91227 -2.5 -0.28846
    endloop
  endfacet
  facet normal 0 -1 0
    outer loop
      vertex 2.18691 -2.5 -0.546358
      vertex 5 -2.5 2.5
      vertex 2.05364 -2.5 -0.413094
    endloop
  endfacet
  facet normal 0 -1 0
    outer loop
      vertex 2.31154 -2.5 -0.687728
      vertex 5 -2.5 2.5
      vertex 2.18691 -2.5 -0.546358
    endloop
  endfacet
  facet normal 0 -1 0
    outer loop
      vertex 2.42705 -2.5 -0.836644
      vertex 5 -2.5 2.5
      vertex 2.31154 -2.5 -0.687728
    endloop
  endfacet
  facet normal 0 -1 0
    outer loop
      vertex 2.53298 -2.5 -0.992519
      vertex 5 -2.5 2.5
      vertex 2.42705 -2.5 -0.836644
    endloop
  endfacet
  facet normal 0 -1 0
    outer loop
      vertex 2.62892 -2.5 -1.15474
      vertex 5 -2.5 2.5
      vertex 2.53298 -2.5 -0.992519
    endloop
  endfacet
  facet normal 0 -1 0
    outer loop
      vertex 5 -2.5 -2.5
      vertex 2.62892 -2.5 -1.15474
      vertex 2.71448 -2.5 -1.32266
    endloop
  endfacet
  facet normal 0 -1 0
    outer loop
      vertex 5 -2.5 -2.5
      vertex 2.71448 -2.5 -1.32266
      vertex 2.78933 -2.5 -1.49563
    endloop
  endfacet
  facet normal 0 -1 0
    outer loop
      vertex 5 -2.5 -2.5
      vertex 2.78933 -2.5 -1.49563
      vertex 2.85317 -2.5 -1.67295
    endloop
  endfacet
  facet normal 0 -1 0
    outer loop
      vertex 5 -2.5 -2.5
      vertex 2.85317 -2.5 -1.67295
      vertex 2.90575 -2.5 -1.85393
    endloop
  endfacet
  facet normal 0 -1 0
    outer loop
      vertex 5 -2.5 -2.5
      vertex 2.90575 -2.5 -1.85393
      vertex 2.94686 -2.5 -2.03786
    endloop
  endfacet
  facet normal 0 -1 0
    outer loop
      vertex 5 -2.5 -2.5
      vertex 2.94686 -2.5 -2.03786
      vertex 2.97634 -2.5 -2.224
    endloop
  endfacet
  facet normal 0 -1 0
    outer loop
      vertex 5 -2.5 -2.5
      vertex 2.97634 -2.5 -2.224
      vertex 2.99408 -2.5 -2.41163
    endloop
  endfacet
  facet normal 0 -1 0
    outer loop
      vertex 5 -2.5 -2.5
      vertex 2.99408 -2.5 -2.41163
      vertex 2.99686 -2.5 -2.5
    endloop
  endfacet
  facet normal 0 -1 0
    outer loop
      vertex 2.62892 -2.5 -1.15474
      vertex 5 -2.5 -2.5
      vertex 5 -2.5 2.5
    endloop
  endfacet
  facet normal -0.999506 0 -0.0314149
    outer loop
      vertex 2.99686 -2.5 -2.5
      vertex 2.99408 2.5 -2.41163
      vertex 2.99686 2.5 -2.5
    endloop
  endfacet
  facet normal -0.999506 -0 -0.0314149
    outer loop
      vertex 2.99408 2.5 -2.41163
      vertex 2.99686 -2.5 -2.5
      vertex 2.99408 -2.5 -2.41163
    endloop
  endfacet
  facet normal 0.999506 0 -0.0314149
    outer loop
      vertex -2.99408 -2.5 -2.41163
      vertex -2.99686 2.5 -2.5
      vertex -2.99408 2.5 -2.41163
    endloop
  endfacet
  facet normal 0.999506 0 -0.0314149
    outer loop
      vertex -2.99686 2.5 -2.5
      vertex -2.99408 -2.5 -2.41163
      vertex -2.99686 -2.5 -2.5
    endloop
  endfacet
  facet normal -0.987689 0 -0.156432
    outer loop
      vertex 2.97634 -2.5 -2.224
      vertex 2.94686 2.5 -2.03786
      vertex 2.97634 2.5 -2.224
    endloop
  endfacet
  facet normal -0.987689 -0 -0.156432
    outer loop
      vertex 2.94686 2.5 -2.03786
      vertex 2.97634 -2.5 -2.224
      vertex 2.94686 -2.5 -2.03786
    endloop
  endfacet
  facet normal 0.987689 0 -0.156432
    outer loop
      vertex -2.94686 -2.5 -2.03786
      vertex -2.97634 2.5 -2.224
      vertex -2.94686 2.5 -2.03786
    endloop
  endfacet
  facet normal 0.987689 0 -0.156432
    outer loop
      vertex -2.97634 2.5 -2.224
      vertex -2.94686 -2.5 -2.03786
      vertex -2.97634 -2.5 -2.224
    endloop
  endfacet
  facet normal 0.975917 0 -0.218142
    outer loop
      vertex -2.90575 -2.5 -1.85393
      vertex -2.94686 2.5 -2.03786
      vertex -2.90575 2.5 -1.85393
    endloop
  endfacet
  facet normal 0.975917 0 -0.218142
    outer loop
      vertex -2.94686 2.5 -2.03786
      vertex -2.90575 -2.5 -1.85393
      vertex -2.94686 -2.5 -2.03786
    endloop
  endfacet
  facet normal 0.397148 0 -0.917755
    outer loop
      vertex -1.27734 -2.5 0.114481
      vertex -1.10437 2.5 0.189329
      vertex -1.10437 -2.5 0.189329
    endloop
  endfacet
  facet normal 0.397148 0 -0.917755
    outer loop
      vertex -1.10437 2.5 0.189329
      vertex -1.27734 -2.5 0.114481
      vertex -1.27734 2.5 0.114481
    endloop
  endfacet
  facet normal -0.612906 0 -0.790156
    outer loop
      vertex 1.76336 -2.5 -0.172949
      vertex 1.91227 2.5 -0.28846
      vertex 1.91227 -2.5 -0.28846
    endloop
  endfacet
  facet normal -0.612906 0 -0.790156
    outer loop
      vertex 1.91227 2.5 -0.28846
      vertex 1.76336 -2.5 -0.172949
      vertex 1.76336 2.5 -0.172949
    endloop
  endfacet
  facet normal 0.995562 0 -0.0941103
    outer loop
      vertex -2.97634 -2.5 -2.224
      vertex -2.99408 2.5 -2.41163
      vertex -2.97634 2.5 -2.224
    endloop
  endfacet
  facet normal 0.995562 0 -0.0941103
    outer loop
      vertex -2.99408 2.5 -2.41163
      vertex -2.97634 -2.5 -2.224
      vertex -2.99408 -2.5 -2.41163
    endloop
  endfacet
  facet normal -0.995562 0 -0.0941103
    outer loop
      vertex 2.99408 -2.5 -2.41163
      vertex 2.97634 2.5 -2.224
      vertex 2.99408 2.5 -2.41163
    endloop
  endfacet
  facet normal -0.995562 -0 -0.0941103
    outer loop
      vertex 2.97634 2.5 -2.224
      vertex 2.99408 -2.5 -2.41163
      vertex 2.97634 -2.5 -2.224
    endloop
  endfacet
  facet normal -0.975917 0 -0.218142
    outer loop
      vertex 2.94686 -2.5 -2.03786
      vertex 2.90575 2.5 -1.85393
      vertex 2.94686 2.5 -2.03786
    endloop
  endfacet
  facet normal -0.975917 -0 -0.218142
    outer loop
      vertex 2.90575 2.5 -1.85393
      vertex 2.94686 -2.5 -2.03786
      vertex 2.90575 -2.5 -1.85393
    endloop
  endfacet
  facet normal 0.031409 0 -0.999507
    outer loop
      vertex -0.188371 -2.5 0.39408
      vertex 0 2.5 0.4
      vertex 0 -2.5 0.4
    endloop
  endfacet
  facet normal 0.031409 0 -0.999507
    outer loop
      vertex 0 2.5 0.4
      vertex -0.188371 -2.5 0.39408
      vertex -0.188371 2.5 0.39408
    endloop
  endfacet
  facet normal 0.827082 0 -0.562082
    outer loop
      vertex -2.42705 -2.5 -0.836644
      vertex -2.53298 2.5 -0.992519
      vertex -2.42705 2.5 -0.836644
    endloop
  endfacet
  facet normal 0.827082 0 -0.562082
    outer loop
      vertex -2.53298 2.5 -0.992519
      vertex -2.42705 -2.5 -0.836644
      vertex -2.53298 -2.5 -0.992519
    endloop
  endfacet
  facet normal -0.750112 0 -0.66131
    outer loop
      vertex 2.31154 -2.5 -0.687728
      vertex 2.18691 2.5 -0.546358
      vertex 2.31154 2.5 -0.687728
    endloop
  endfacet
  facet normal -0.750112 -0 -0.66131
    outer loop
      vertex 2.18691 2.5 -0.546358
      vertex 2.31154 -2.5 -0.687728
      vertex 2.18691 -2.5 -0.546358
    endloop
  endfacet
  facet normal 0.612906 0 -0.790156
    outer loop
      vertex -1.91227 -2.5 -0.28846
      vertex -1.76336 2.5 -0.172949
      vertex -1.76336 -2.5 -0.172949
    endloop
  endfacet
  facet normal 0.612906 0 -0.790156
    outer loop
      vertex -1.76336 2.5 -0.172949
      vertex -1.91227 -2.5 -0.28846
      vertex -1.91227 2.5 -0.28846
    endloop
  endfacet
  facet normal 0.338738 0 -0.940881
    outer loop
      vertex -1.10437 -2.5 0.189329
      vertex -0.927051 2.5 0.253169
      vertex -0.927051 -2.5 0.253169
    endloop
  endfacet
  facet normal 0.338738 0 -0.940881
    outer loop
      vertex -0.927051 2.5 0.253169
      vertex -1.10437 -2.5 0.189329
      vertex -1.10437 2.5 0.189329
    endloop
  endfacet
  facet normal 0.27899 0 -0.960294
    outer loop
      vertex -0.927051 -2.5 0.253169
      vertex -0.746069 2.5 0.305749
      vertex -0.746069 -2.5 0.305749
    endloop
  endfacet
  facet normal 0.27899 0 -0.960294
    outer loop
      vertex -0.746069 2.5 0.305749
      vertex -0.927051 -2.5 0.253169
      vertex -0.927051 2.5 0.253169
    endloop
  endfacet
  facet normal 0.0941099 0 -0.995562
    outer loop
      vertex -0.375999 -2.5 0.376344
      vertex -0.188371 2.5 0.39408
      vertex -0.188371 -2.5 0.39408
    endloop
  endfacet
  facet normal 0.0941099 0 -0.995562
    outer loop
      vertex -0.188371 2.5 0.39408
      vertex -0.375999 -2.5 0.376344
      vertex -0.375999 2.5 0.376344
    endloop
  endfacet
  facet normal 0.218142 0 -0.975917
    outer loop
      vertex -0.746069 -2.5 0.305749
      vertex -0.562143 2.5 0.346861
      vertex -0.562143 -2.5 0.346861
    endloop
  endfacet
  facet normal 0.218142 0 -0.975917
    outer loop
      vertex -0.562143 2.5 0.346861
      vertex -0.746069 -2.5 0.305749
      vertex -0.746069 2.5 0.305749
    endloop
  endfacet
  facet normal 0.86074 0 -0.509044
    outer loop
      vertex -2.53298 -2.5 -0.992519
      vertex -2.62892 2.5 -1.15474
      vertex -2.53298 2.5 -0.992519
    endloop
  endfacet
  facet normal 0.86074 0 -0.509044
    outer loop
      vertex -2.62892 2.5 -1.15474
      vertex -2.53298 -2.5 -0.992519
      vertex -2.62892 -2.5 -1.15474
    endloop
  endfacet
  facet normal -0.790156 0 -0.612906
    outer loop
      vertex 2.42705 -2.5 -0.836644
      vertex 2.31154 2.5 -0.687728
      vertex 2.42705 2.5 -0.836644
    endloop
  endfacet
  facet normal -0.790156 -0 -0.612906
    outer loop
      vertex 2.31154 2.5 -0.687728
      vertex 2.42705 -2.5 -0.836644
      vertex 2.31154 -2.5 -0.687728
    endloop
  endfacet
  facet normal -0.94088 0 -0.33874
    outer loop
      vertex 2.85317 -2.5 -1.67295
      vertex 2.78933 2.5 -1.49563
      vertex 2.85317 2.5 -1.67295
    endloop
  endfacet
  facet normal -0.94088 -0 -0.33874
    outer loop
      vertex 2.78933 2.5 -1.49563
      vertex 2.85317 -2.5 -1.67295
      vertex 2.78933 -2.5 -1.49563
    endloop
  endfacet
  facet normal -0.0941099 0 -0.995562
    outer loop
      vertex 0.188371 -2.5 0.39408
      vertex 0.375999 2.5 0.376344
      vertex 0.375999 -2.5 0.376344
    endloop
  endfacet
  facet normal -0.0941099 0 -0.995562
    outer loop
      vertex 0.375999 2.5 0.376344
      vertex 0.188371 -2.5 0.39408
      vertex 0.188371 2.5 0.39408
    endloop
  endfacet
  facet normal -0.27899 0 -0.960294
    outer loop
      vertex 0.746069 -2.5 0.305749
      vertex 0.927051 2.5 0.253169
      vertex 0.927051 -2.5 0.253169
    endloop
  endfacet
  facet normal -0.27899 0 -0.960294
    outer loop
      vertex 0.927051 2.5 0.253169
      vertex 0.746069 -2.5 0.305749
      vertex 0.746069 2.5 0.305749
    endloop
  endfacet
  facet normal -0.156437 0 -0.987688
    outer loop
      vertex 0.375999 -2.5 0.376344
      vertex 0.562143 2.5 0.346861
      vertex 0.562143 -2.5 0.346861
    endloop
  endfacet
  facet normal -0.156437 0 -0.987688
    outer loop
      vertex 0.562143 2.5 0.346861
      vertex 0.375999 -2.5 0.376344
      vertex 0.375999 2.5 0.376344
    endloop
  endfacet
  facet normal -0.562085 0 -0.827079
    outer loop
      vertex 1.60748 -2.5 -0.0670156
      vertex 1.76336 2.5 -0.172949
      vertex 1.76336 -2.5 -0.172949
    endloop
  endfacet
  facet normal -0.562085 0 -0.827079
    outer loop
      vertex 1.76336 2.5 -0.172949
      vertex 1.60748 -2.5 -0.0670156
      vertex 1.60748 2.5 -0.0670156
    endloop
  endfacet
  facet normal -0.453992 0 -0.891006
    outer loop
      vertex 1.27734 -2.5 0.114481
      vertex 1.44526 2.5 0.0289192
      vertex 1.44526 -2.5 0.0289192
    endloop
  endfacet
  facet normal -0.453992 0 -0.891006
    outer loop
      vertex 1.44526 2.5 0.0289192
      vertex 1.27734 -2.5 0.114481
      vertex 1.27734 2.5 0.114481
    endloop
  endfacet
  facet normal -0.509037 0 -0.860745
    outer loop
      vertex 1.44526 -2.5 0.0289192
      vertex 1.60748 2.5 -0.0670156
      vertex 1.60748 -2.5 -0.0670156
    endloop
  endfacet
  facet normal -0.509037 0 -0.860745
    outer loop
      vertex 1.60748 2.5 -0.0670156
      vertex 1.44526 -2.5 0.0289192
      vertex 1.44526 2.5 0.0289192
    endloop
  endfacet
  facet normal 0.453992 0 -0.891006
    outer loop
      vertex -1.44526 -2.5 0.0289192
      vertex -1.27734 2.5 0.114481
      vertex -1.27734 -2.5 0.114481
    endloop
  endfacet
  facet normal 0.453992 0 -0.891006
    outer loop
      vertex -1.27734 2.5 0.114481
      vertex -1.44526 -2.5 0.0289192
      vertex -1.44526 2.5 0.0289192
    endloop
  endfacet
  facet normal 0.509037 0 -0.860745
    outer loop
      vertex -1.60748 -2.5 -0.0670156
      vertex -1.44526 2.5 0.0289192
      vertex -1.44526 -2.5 0.0289192
    endloop
  endfacet
  facet normal 0.509037 0 -0.860745
    outer loop
      vertex -1.44526 2.5 0.0289192
      vertex -1.60748 -2.5 -0.0670156
      vertex -1.60748 2.5 -0.0670156
    endloop
  endfacet
  facet normal 0.156437 0 -0.987688
    outer loop
      vertex -0.562143 -2.5 0.346861
      vertex -0.375999 2.5 0.376344
      vertex -0.375999 -2.5 0.376344
    endloop
  endfacet
  facet normal 0.156437 0 -0.987688
    outer loop
      vertex -0.375999 2.5 0.376344
      vertex -0.562143 -2.5 0.346861
      vertex -0.562143 2.5 0.346861
    endloop
  endfacet
  facet normal 0.707104 0 -0.707109
    outer loop
      vertex -2.18691 -2.5 -0.546358
      vertex -2.05364 2.5 -0.413094
      vertex -2.05364 -2.5 -0.413094
    endloop
  endfacet
  facet normal 0.707104 0 -0.707109
    outer loop
      vertex -2.05364 2.5 -0.413094
      vertex -2.18691 -2.5 -0.546358
      vertex -2.18691 2.5 -0.546358
    endloop
  endfacet
  facet normal -0.827082 0 -0.562082
    outer loop
      vertex 2.53298 -2.5 -0.992519
      vertex 2.42705 2.5 -0.836644
      vertex 2.53298 2.5 -0.992519
    endloop
  endfacet
  facet normal -0.827082 -0 -0.562082
    outer loop
      vertex 2.42705 2.5 -0.836644
      vertex 2.53298 -2.5 -0.992519
      vertex 2.42705 -2.5 -0.836644
    endloop
  endfacet
  facet normal -0.917755 0 -0.397148
    outer loop
      vertex 2.78933 -2.5 -1.49563
      vertex 2.71448 2.5 -1.32266
      vertex 2.78933 2.5 -1.49563
    endloop
  endfacet
  facet normal -0.917755 -0 -0.397148
    outer loop
      vertex 2.71448 2.5 -1.32266
      vertex 2.78933 -2.5 -1.49563
      vertex 2.71448 -2.5 -1.32266
    endloop
  endfacet
  facet normal -0.891007 0 -0.45399
    outer loop
      vertex 2.71448 -2.5 -1.32266
      vertex 2.62892 2.5 -1.15474
      vertex 2.71448 2.5 -1.32266
    endloop
  endfacet
  facet normal -0.891007 -0 -0.45399
    outer loop
      vertex 2.62892 2.5 -1.15474
      vertex 2.71448 -2.5 -1.32266
      vertex 2.62892 -2.5 -1.15474
    endloop
  endfacet
  facet normal -0.960293 0 -0.278992
    outer loop
      vertex 2.90575 -2.5 -1.85393
      vertex 2.85317 2.5 -1.67295
      vertex 2.90575 2.5 -1.85393
    endloop
  endfacet
  facet normal -0.960293 -0 -0.278992
    outer loop
      vertex 2.85317 2.5 -1.67295
      vertex 2.90575 -2.5 -1.85393
      vertex 2.85317 -2.5 -1.67295
    endloop
  endfacet
  facet normal -0.707104 0 -0.707109
    outer loop
      vertex 2.05364 -2.5 -0.413094
      vertex 2.18691 2.5 -0.546358
      vertex 2.18691 -2.5 -0.546358
    endloop
  endfacet
  facet normal -0.707104 0 -0.707109
    outer loop
      vertex 2.18691 2.5 -0.546358
      vertex 2.05364 -2.5 -0.413094
      vertex 2.05364 2.5 -0.413094
    endloop
  endfacet
  facet normal -0.661313 0 -0.75011
    outer loop
      vertex 1.91227 -2.5 -0.28846
      vertex 2.05364 2.5 -0.413094
      vertex 2.05364 -2.5 -0.413094
    endloop
  endfacet
  facet normal -0.661313 0 -0.75011
    outer loop
      vertex 2.05364 2.5 -0.413094
      vertex 1.91227 -2.5 -0.28846
      vertex 1.91227 2.5 -0.28846
    endloop
  endfacet
  facet normal -0.031409 0 -0.999507
    outer loop
      vertex 0 -2.5 0.4
      vertex 0.188371 2.5 0.39408
      vertex 0.188371 -2.5 0.39408
    endloop
  endfacet
  facet normal -0.031409 0 -0.999507
    outer loop
      vertex 0.188371 2.5 0.39408
      vertex 0 -2.5 0.4
      vertex 0 2.5 0.4
    endloop
  endfacet
  facet normal -0.218142 0 -0.975917
    outer loop
      vertex 0.562143 -2.5 0.346861
      vertex 0.746069 2.5 0.305749
      vertex 0.746069 -2.5 0.305749
    endloop
  endfacet
  facet normal -0.218142 0 -0.975917
    outer loop
      vertex 0.746069 2.5 0.305749
      vertex 0.562143 -2.5 0.346861
      vertex 0.562143 2.5 0.346861
    endloop
  endfacet
  facet normal -0.397148 0 -0.917755
    outer loop
      vertex 1.10437 -2.5 0.189329
      vertex 1.27734 2.5 0.114481
      vertex 1.27734 -2.5 0.114481
    endloop
  endfacet
  facet normal -0.397148 0 -0.917755
    outer loop
      vertex 1.27734 2.5 0.114481
      vertex 1.10437 -2.5 0.189329
      vertex 1.10437 2.5 0.189329
    endloop
  endfacet
  facet normal -0.338738 0 -0.940881
    outer loop
      vertex 0.927051 -2.5 0.253169
      vertex 1.10437 2.5 0.189329
      vertex 1.10437 -2.5 0.189329
    endloop
  endfacet
  facet normal -0.338738 0 -0.940881
    outer loop
      vertex 1.10437 2.5 0.189329
      vertex 0.927051 -2.5 0.253169
      vertex 0.927051 2.5 0.253169
    endloop
  endfacet
  facet normal 0.661313 0 -0.75011
    outer loop
      vertex -2.05364 -2.5 -0.413094
      vertex -1.91227 2.5 -0.28846
      vertex -1.91227 -2.5 -0.28846
    endloop
  endfacet
  facet normal 0.661313 0 -0.75011
    outer loop
      vertex -1.91227 2.5 -0.28846
      vertex -2.05364 -2.5 -0.413094
      vertex -2.05364 2.5 -0.413094
    endloop
  endfacet
  facet normal 0.790156 0 -0.612906
    outer loop
      vertex -2.31154 -2.5 -0.687728
      vertex -2.42705 2.5 -0.836644
      vertex -2.31154 2.5 -0.687728
    endloop
  endfacet
  facet normal 0.790156 0 -0.612906
    outer loop
      vertex -2.42705 2.5 -0.836644
      vertex -2.31154 -2.5 -0.687728
      vertex -2.42705 -2.5 -0.836644
    endloop
  endfacet
  facet normal 0.750112 0 -0.66131
    outer loop
      vertex -2.18691 -2.5 -0.546358
      vertex -2.31154 2.5 -0.687728
      vertex -2.18691 2.5 -0.546358
    endloop
  endfacet
  facet normal 0.750112 0 -0.66131
    outer loop
      vertex -2.31154 2.5 -0.687728
      vertex -2.18691 -2.5 -0.546358
      vertex -2.31154 -2.5 -0.687728
    endloop
  endfacet
  facet normal 0.891007 0 -0.45399
    outer loop
      vertex -2.62892 -2.5 -1.15474
      vertex -2.71448 2.5 -1.32266
      vertex -2.62892 2.5 -1.15474
    endloop
  endfacet
  facet normal 0.891007 0 -0.45399
    outer loop
      vertex -2.71448 2.5 -1.32266
      vertex -2.62892 -2.5 -1.15474
      vertex -2.71448 -2.5 -1.32266
    endloop
  endfacet
  facet normal 0.917755 0 -0.397148
    outer loop
      vertex -2.71448 -2.5 -1.32266
      vertex -2.78933 2.5 -1.49563
      vertex -2.71448 2.5 -1.32266
    endloop
  endfacet
  facet normal 0.917755 0 -0.397148
    outer loop
      vertex -2.78933 2.5 -1.49563
      vertex -2.71448 -2.5 -1.32266
      vertex -2.78933 -2.5 -1.49563
    endloop
  endfacet
  facet normal -0.86074 0 -0.509044
    outer loop
      vertex 2.62892 -2.5 -1.15474
      vertex 2.53298 2.5 -0.992519
      vertex 2.62892 2.5 -1.15474
    endloop
  endfacet
  facet normal -0.86074 -0 -0.509044
    outer loop
      vertex 2.53298 2.5 -0.992519
      vertex 2.62892 -2.5 -1.15474
      vertex 2.53298 -2.5 -0.992519
    endloop
  endfacet
  facet normal 0.562085 0 -0.827079
    outer loop
      vertex -1.76336 -2.5 -0.172949
      vertex -1.60748 2.5 -0.0670156
      vertex -1.60748 -2.5 -0.0670156
    endloop
  endfacet
  facet normal 0.562085 0 -0.827079
    outer loop
      vertex -1.60748 2.5 -0.0670156
      vertex -1.76336 -2.5 -0.172949
      vertex -1.76336 2.5 -0.172949
    endloop
  endfacet
  facet normal 0.960293 0 -0.278992
    outer loop
      vertex -2.85317 -2.5 -1.67295
      vertex -2.90575 2.5 -1.85393
      vertex -2.85317 2.5 -1.67295
    endloop
  endfacet
  facet normal 0.960293 0 -0.278992
    outer loop
      vertex -2.90575 2.5 -1.85393
      vertex -2.85317 -2.5 -1.67295
      vertex -2.90575 -2.5 -1.85393
    endloop
  endfacet
  facet normal 0.94088 0 -0.33874
    outer loop
      vertex -2.78933 -2.5 -1.49563
      vertex -2.85317 2.5 -1.67295
      vertex -2.78933 2.5 -1.49563
    endloop
  endfacet
  facet normal 0.94088 0 -0.33874
    outer loop
      vertex -2.85317 2.5 -1.67295
      vertex -2.78933 -2.5 -1.49563
      vertex -2.85317 -2.5 -1.67295
    endloop
  endfacet
endsolid OpenSCAD_Model
