solid OpenSCAD_Model
  facet normal -1 0 0
    outer loop
      vertex -5 -2.5 -2.5
      vertex -5 2.5 2.5
      vertex -5 2.5 -2.5
    endloop
  endfacet
  facet normal -1 -0 0
    outer loop
      vertex -5 2.5 2.5
      vertex -5 -2.5 -2.5
      vertex -5 -2.5 2.5
    endloop
  endfacet
  facet normal -0 0 1
    outer loop
      vertex -5 2.5 2.5
      vertex 5 -2.5 2.5
      vertex 5 2.5 2.5
    endloop
  endfacet
  facet normal 0 0 1
    outer loop
      vertex 5 -2.5 2.5
      vertex -5 2.5 2.5
      vertex -5 -2.5 2.5
    endloop
  endfacet
  facet normal 1 -0 0
    outer loop
      vertex 5 -2.5 2.5
      vertex 5 2.5 -2.5
      vertex 5 2.5 2.5
    endloop
  endfacet
  facet normal 1 0 0
    outer loop
      vertex 5 2.5 -2.5
      vertex 5 -2.5 2.5
      vertex 5 -2.5 -2.5
    endloop
  endfacet
  facet normal 0 1 0
    outer loop
      vertex 5 2.5 2.5
      vertex 0 2.5 1.5
      vertex -5 2.5 2.5
    endloop
  endfacet
  facet normal 0 1 0
    outer loop
      vertex 5 2.5 2.5
      vertex 0.188371 2.5 1.49408
      vertex 0 2.5 1.5
    endloop
  endfacet
  facet normal 0 1 0
    outer loop
      vertex 5 2.5 2.5
      vertex 0.251162 2.5 1.49211
      vertex 0.188371 2.5 1.49408
    endloop
  endfacet
  facet normal 0 1 0
    outer loop
      vertex 5 2.5 2.5
      vertex 0.501332 2.5 1.46846
      vertex 0.251162 2.5 1.49211
    endloop
  endfacet
  facet normal 0 1 0
    outer loop
      vertex 5 2.5 2.5
      vertex 0.749525 2.5 1.42915
      vertex 0.501332 2.5 1.46846
    endloop
  endfacet
  facet normal 0 1 0
    outer loop
      vertex 5 2.5 2.5
      vertex 0.994759 2.5 1.37433
      vertex 0.749525 2.5 1.42915
    endloop
  endfacet
  facet normal 0 1 0
    outer loop
      vertex 5 2.5 2.5
      vertex 1.23607 2.5 1.30423
      vertex 0.994759 2.5 1.37433
    endloop
  endfacet
  facet normal 0 1 0
    outer loop
      vertex 5 2.5 2.5
      vertex 1.4725 2.5 1.21911
      vertex 1.23607 2.5 1.30423
    endloop
  endfacet
  facet normal 0 1 0
    outer loop
      vertex 5 2.5 2.5
      vertex 1.70312 2.5 1.11931
      vertex 1.4725 2.5 1.21911
    endloop
  endfacet
  facet normal 0 1 0
    outer loop
      vertex 5 2.5 2.5
      vertex 1.92701 2.5 1.00523
      vertex 1.70312 2.5 1.11931
    endloop
  endfacet
  facet normal 0 1 0
    outer loop
      vertex 5 2.5 2.5
      vertex 2.14331 2.5 0.877311
      vertex 1.92701 2.5 1.00523
    endloop
  endfacet
  facet normal 0 1 0
    outer loop
      vertex 5 2.5 2.5
      vertex 2.35114 2.5 0.736068
      vertex 2.14331 2.5 0.877311
    endloop
  endfacet
  facet normal 0 1 0
    outer loop
      vertex 5 2.5 2.5
      vertex 2.5497 2.5 0.582052
      vertex 2.35114 2.5 0.736068
    endloop
  endfacet
  facet normal 0 1 0
    outer loop
      vertex 5 2.5 2.5
      vertex 2.73819 2.5 0.415874
      vertex 2.5497 2.5 0.582052
    endloop
  endfacet
  facet normal 0 1 0
    outer loop
      vertex 5 2.5 2.5
      vertex 2.91587 2.5 0.238188
      vertex 2.73819 2.5 0.415874
    endloop
  endfacet
  facet normal 0 1 0
    outer loop
      vertex 5 2.5 2.5
      vertex 3.08205 2.5 0.049695
      vertex 2.91587 2.5 0.238188
    endloop
  endfacet
  facet normal 0 1 0
    outer loop
      vertex 5 2.5 2.5
      vertex 3.23607 2.5 -0.148858
      vertex 3.08205 2.5 0.049695
    endloop
  endfacet
  facet normal 0 1 0
    outer loop
      vertex 5 2.5 2.5
      vertex 3.37731 2.5 -0.356692
      vertex 3.23607 2.5 -0.148858
    endloop
  endfacet
  facet normal 0 1 0
    outer loop
      vertex 5 2.5 2.5
      vertex 3.50523 2.5 -0.572985
      vertex 3.37731 2.5 -0.356692
    endloop
  endfacet
  facet normal 0 1 0
    outer loop
      vertex 5 2.5 2.5
      vertex 3.61931 2.5 -0.796883
      vertex 3.50523 2.5 -0.572985
    endloop
  endfacet
  facet normal 0 1 0
    outer loop
      vertex 5 2.5 2.5
      vertex 3.71911 2.5 -1.0275
      vertex 3.61931 2.5 -0.796883
    endloop
  endfacet
  facet normal 0 1 -0
    outer loop
      vertex 5 2.5 -2.5
      vertex 3.71911 2.5 -1.0275
      vertex 5 2.5 2.5
    endloop
  endfacet
  facet normal 0 1 0
    outer loop
      vertex 3.71911 2.5 -1.0275
      vertex 5 2.5 -2.5
      vertex 3.80423 2.5 -1.26393
    endloop
  endfacet
  facet normal 0 1 0
    outer loop
      vertex 3.80423 2.5 -1.26393
      vertex 5 2.5 -2.5
      vertex 3.87433 2.5 -1.50524
    endloop
  endfacet
  facet normal 0 1 0
    outer loop
      vertex 3.87433 2.5 -1.50524
      vertex 5 2.5 -2.5
      vertex 3.92915 2.5 -1.75047
    endloop
  endfacet
  facet normal 0 1 0
    outer loop
      vertex 3.92915 2.5 -1.75047
      vertex 5 2.5 -2.5
      vertex 3.96846 2.5 -1.99867
    endloop
  endfacet
  facet normal 0 1 0
    outer loop
      vertex 3.96846 2.5 -1.99867
      vertex 5 2.5 -2.5
      vertex 3.99211 2.5 -2.24884
    endloop
  endfacet
  facet normal 0 1 0
    outer loop
      vertex 3.99211 2.5 -2.24884
      vertex 5 2.5 -2.5
      vertex 3.99408 2.5 -2.31163
    endloop
  endfacet
  facet normal 0 1 0
    outer loop
      vertex 3.99408 2.5 -2.31163
      vertex 5 2.5 -2.5
      vertex 4 2.5 -2.5
    endloop
  endfacet
  facet normal 0 1 -0
    outer loop
      vertex -0.188371 2.5 1.49408
      vertex -5 2.5 2.5
      vertex 0 2.5 1.5
    endloop
  endfacet
  facet normal 0 1 -0
    outer loop
      vertex -0.251162 2.5 1.49211
      vertex -5 2.5 2.5
      vertex -0.188371 2.5 1.49408
    endloop
  endfacet
  facet normal 0 1 -0
    outer loop
      vertex -0.501332 2.5 1.46846
      vertex -5 2.5 2.5
      vertex -0.251162 2.5 1.49211
    endloop
  endfacet
  facet normal 0 1 -0
    outer loop
      vertex -0.749525 2.5 1.42915
      vertex -5 2.5 2.5
      vertex -0.501332 2.5 1.46846
    endloop
  endfacet
  facet normal 0 1 -0
    outer loop
      vertex -0.994759 2.5 1.37433
      vertex -5 2.5 2.5
      vertex -0.749525 2.5 1.42915
    endloop
  endfacet
  facet normal 0 1 -0
    outer loop
      vertex -1.23607 2.5 1.30423
      vertex -5 2.5 2.5
      vertex -0.994759 2.5 1.37433
    endloop
  endfacet
  facet normal 0 1 -0
    outer loop
      vertex -1.4725 2.5 1.21911
      vertex -5 2.5 2.5
      vertex -1.23607 2.5 1.30423
    endloop
  endfacet
  facet normal 0 1 -0
    outer loop
      vertex -1.70312 2.5 1.11931
      vertex -5 2.5 2.5
      vertex -1.4725 2.5 1.21911
    endloop
  endfacet
  facet normal 0 1 -0
    outer loop
      vertex -1.92701 2.5 1.00523
      vertex -5 2.5 2.5
      vertex -1.70312 2.5 1.11931
    endloop
  endfacet
  facet normal 0 1 -0
    outer loop
      vertex -2.14331 2.5 0.877311
      vertex -5 2.5 2.5
      vertex -1.92701 2.5 1.00523
    endloop
  endfacet
  facet normal 0 1 -0
    outer loop
      vertex -2.35114 2.5 0.736068
      vertex -5 2.5 2.5
      vertex -2.14331 2.5 0.877311
    endloop
  endfacet
  facet normal 0 1 -0
    outer loop
      vertex -2.5497 2.5 0.582052
      vertex -5 2.5 2.5
      vertex -2.35114 2.5 0.736068
    endloop
  endfacet
  facet normal 0 1 -0
    outer loop
      vertex -2.73819 2.5 0.415874
      vertex -5 2.5 2.5
      vertex -2.5497 2.5 0.582052
    endloop
  endfacet
  facet normal 0 1 -0
    outer loop
      vertex -2.91587 2.5 0.238188
      vertex -5 2.5 2.5
      vertex -2.73819 2.5 0.415874
    endloop
  endfacet
  facet normal 0 1 -0
    outer loop
      vertex -3.08205 2.5 0.049695
      vertex -5 2.5 2.5
      vertex -2.91587 2.5 0.238188
    endloop
  endfacet
  facet normal 0 1 -0
    outer loop
      vertex -3.23607 2.5 -0.148858
      vertex -5 2.5 2.5
      vertex -3.08205 2.5 0.049695
    endloop
  endfacet
  facet normal 0 1 -0
    outer loop
      vertex -3.37731 2.5 -0.356692
      vertex -5 2.5 2.5
      vertex -3.23607 2.5 -0.148858
    endloop
  endfacet
  facet normal 0 1 -0
    outer loop
      vertex -3.50523 2.5 -0.572985
      vertex -5 2.5 2.5
      vertex -3.37731 2.5 -0.356692
    endloop
  endfacet
  facet normal 0 1 -0
    outer loop
      vertex -3.61931 2.5 -0.796883
      vertex -5 2.5 2.5
      vertex -3.50523 2.5 -0.572985
    endloop
  endfacet
  facet normal 0 1 -0
    outer loop
      vertex -3.71911 2.5 -1.0275
      vertex -5 2.5 2.5
      vertex -3.61931 2.5 -0.796883
    endloop
  endfacet
  facet normal 0 1 0
    outer loop
      vertex -5 2.5 -2.5
      vertex -3.71911 2.5 -1.0275
      vertex -3.80423 2.5 -1.26393
    endloop
  endfacet
  facet normal 0 1 0
    outer loop
      vertex -5 2.5 -2.5
      vertex -3.80423 2.5 -1.26393
      vertex -3.87433 2.5 -1.50524
    endloop
  endfacet
  facet normal 0 1 0
    outer loop
      vertex -5 2.5 -2.5
      vertex -3.87433 2.5 -1.50524
      vertex -3.92915 2.5 -1.75047
    endloop
  endfacet
  facet normal 0 1 0
    outer loop
      vertex -5 2.5 -2.5
      vertex -3.92915 2.5 -1.75047
      vertex -3.96846 2.5 -1.99867
    endloop
  endfacet
  facet normal 0 1 0
    outer loop
      vertex -5 2.5 -2.5
      vertex -3.96846 2.5 -1.99867
      vertex -3.99211 2.5 -2.24884
    endloop
  endfacet
  facet normal 0 1 0
    outer loop
      vertex -5 2.5 -2.5
      vertex -3.99211 2.5 -2.24884
      vertex -3.99408 2.5 -2.31163
    endloop
  endfacet
  facet normal 0 1 0
    outer loop
      vertex -5 2.5 -2.5
      vertex -3.99408 2.5 -2.31163
      vertex -4 2.5 -2.5
    endloop
  endfacet
  facet normal 0 1 0
    outer loop
      vertex -3.71911 2.5 -1.0275
      vertex -5 2.5 -2.5
      vertex -5 2.5 2.5
    endloop
  endfacet
  facet normal 0 0 -1
    outer loop
      vertex -5 -2.5 -2.5
      vertex -4 2.5 -2.5
      vertex -4 -2.5 -2.5
    endloop
  endfacet
  facet normal -0 0 -1
    outer loop
      vertex -4 2.5 -2.5
      vertex -5 -2.5 -2.5
      vertex -5 2.5 -2.5
    endloop
  endfacet
  facet normal 0 0 -1
    outer loop
      vertex 4 -2.5 -2.5
      vertex 5 2.5 -2.5
      vertex 5 -2.5 -2.5
    endloop
  endfacet
  facet normal -0 0 -1
    outer loop
      vertex 5 2.5 -2.5
      vertex 4 -2.5 -2.5
      vertex 4 2.5 -2.5
    endloop
  endfacet
  facet normal 0 -1 0
    outer loop
      vertex -5 -2.5 2.5
      vertex 0 -2.5 1.5
      vertex 5 -2.5 2.5
    endloop
  endfacet
  facet normal 0 -1 0
    outer loop
      vertex -5 -2.5 2.5
      vertex -0.0627904 -2.5 1.49803
      vertex 0 -2.5 1.5
    endloop
  endfacet
  facet normal 0 -1 0
    outer loop
      vertex -5 -2.5 2.5
      vertex -0.251162 -2.5 1.49211
      vertex -0.0627904 -2.5 1.49803
    endloop
  endfacet
  facet normal 0 -1 0
    outer loop
      vertex -5 -2.5 2.5
      vertex -0.501332 -2.5 1.46846
      vertex -0.251162 -2.5 1.49211
    endloop
  endfacet
  facet normal 0 -1 0
    outer loop
      vertex -5 -2.5 2.5
      vertex -0.749525 -2.5 1.42915
      vertex -0.501332 -2.5 1.46846
    endloop
  endfacet
  facet normal 0 -1 0
    outer loop
      vertex -5 -2.5 2.5
      vertex -0.994759 -2.5 1.37433
      vertex -0.749525 -2.5 1.42915
    endloop
  endfacet
  facet normal 0 -1 0
    outer loop
      vertex -5 -2.5 2.5
      vertex -1.23607 -2.5 1.30423
      vertex -0.994759 -2.5 1.37433
    endloop
  endfacet
  facet normal 0 -1 0
    outer loop
      vertex -5 -2.5 2.5
      vertex -1.4725 -2.5 1.21911
      vertex -1.23607 -2.5 1.30423
    endloop
  endfacet
  facet normal 0 -1 0
    outer loop
      vertex -5 -2.5 2.5
      vertex -1.70312 -2.5 1.11931
      vertex -1.4725 -2.5 1.21911
    endloop
  endfacet
  facet normal 0 -1 0
    outer loop
      vertex -5 -2.5 2.5
      vertex -1.92701 -2.5 1.00523
      vertex -1.70312 -2.5 1.11931
    endloop
  endfacet
  facet normal 0 -1 0
    outer loop
      vertex -5 -2.5 2.5
      vertex -2.14331 -2.5 0.877311
      vertex -1.92701 -2.5 1.00523
    endloop
  endfacet
  facet normal 0 -1 0
    outer loop
      vertex -5 -2.5 2.5
      vertex -2.35114 -2.5 0.736068
      vertex -2.14331 -2.5 0.877311
    endloop
  endfacet
  facet normal 0 -1 0
    outer loop
      vertex -5 -2.5 2.5
      vertex -2.5497 -2.5 0.582052
      vertex -2.35114 -2.5 0.736068
    endloop
  endfacet
  facet normal 0 -1 0
    outer loop
      vertex -5 -2.5 2.5
      vertex -2.73819 -2.5 0.415874
      vertex -2.5497 -2.5 0.582052
    endloop
  endfacet
  facet normal 0 -1 0
    outer loop
      vertex -5 -2.5 2.5
      vertex -2.91587 -2.5 0.238188
      vertex -2.73819 -2.5 0.415874
    endloop
  endfacet
  facet normal 0 -1 0
    outer loop
      vertex -5 -2.5 2.5
      vertex -3.08205 -2.5 0.049695
      vertex -2.91587 -2.5 0.238188
    endloop
  endfacet
  facet normal 0 -1 0
    outer loop
      vertex -5 -2.5 2.5
      vertex -3.23607 -2.5 -0.148858
      vertex -3.08205 -2.5 0.049695
    endloop
  endfacet
  facet normal 0 -1 0
    outer loop
      vertex -5 -2.5 2.5
      vertex -3.37731 -2.5 -0.356692
      vertex -3.23607 -2.5 -0.148858
    endloop
  endfacet
  facet normal 0 -1 0
    outer loop
      vertex -5 -2.5 2.5
      vertex -3.50523 -2.5 -0.572985
      vertex -3.37731 -2.5 -0.356692
    endloop
  endfacet
  facet normal 0 -1 0
    outer loop
      vertex -5 -2.5 2.5
      vertex -3.61931 -2.5 -0.796883
      vertex -3.50523 -2.5 -0.572985
    endloop
  endfacet
  facet normal 0 -1 0
    outer loop
      vertex -5 -2.5 2.5
      vertex -3.71911 -2.5 -1.0275
      vertex -3.61931 -2.5 -0.796883
    endloop
  endfacet
  facet normal 0 -1 0
    outer loop
      vertex -5 -2.5 -2.5
      vertex -3.71911 -2.5 -1.0275
      vertex -5 -2.5 2.5
    endloop
  endfacet
  facet normal 0 -1 0
    outer loop
      vertex -3.71911 -2.5 -1.0275
      vertex -5 -2.5 -2.5
      vertex -3.80423 -2.5 -1.26393
    endloop
  endfacet
  facet normal 0 -1 0
    outer loop
      vertex -3.80423 -2.5 -1.26393
      vertex -5 -2.5 -2.5
      vertex -3.87433 -2.5 -1.50524
    endloop
  endfacet
  facet normal 0 -1 0
    outer loop
      vertex -3.87433 -2.5 -1.50524
      vertex -5 -2.5 -2.5
      vertex -3.92915 -2.5 -1.75047
    endloop
  endfacet
  facet normal 0 -1 0
    outer loop
      vertex -3.92915 -2.5 -1.75047
      vertex -5 -2.5 -2.5
      vertex -3.96846 -2.5 -1.99867
    endloop
  endfacet
  facet normal 0 -1 0
    outer loop
      vertex -3.96846 -2.5 -1.99867
      vertex -5 -2.5 -2.5
      vertex -3.99211 -2.5 -2.24884
    endloop
  endfacet
  facet normal 0 -1 0
    outer loop
      vertex -3.99211 -2.5 -2.24884
      vertex -5 -2.5 -2.5
      vertex -3.99803 -2.5 -2.43721
    endloop
  endfacet
  facet normal 0 -1 0
    outer loop
      vertex -3.99803 -2.5 -2.43721
      vertex -5 -2.5 -2.5
      vertex -4 -2.5 -2.5
    endloop
  endfacet
  facet normal 0 -1 0
    outer loop
      vertex 0.0627904 -2.5 1.49803
      vertex 5 -2.5 2.5
      vertex 0 -2.5 1.5
    endloop
  endfacet
  facet normal 0 -1 0
    outer loop
      vertex 0.251162 -2.5 1.49211
      vertex 5 -2.5 2.5
      vertex 0.0627904 -2.5 1.49803
    endloop
  endfacet
  facet normal 0 -1 0
    outer loop
      vertex 0.501332 -2.5 1.46846
      vertex 5 -2.5 2.5
      vertex 0.251162 -2.5 1.49211
    endloop
  endfacet
  facet normal 0 -1 0
    outer loop
      vertex 0.749525 -2.5 1.42915
      vertex 5 -2.5 2.5
      vertex 0.501332 -2.5 1.46846
    endloop
  endfacet
  facet normal 0 -1 0
    outer loop
      vertex 0.994759 -2.5 1.37433
      vertex 5 -2.5 2.5
      vertex 0.749525 -2.5 1.42915
    endloop
  endfacet
  facet normal 0 -1 0
    outer loop
      vertex 1.23607 -2.5 1.30423
      vertex 5 -2.5 2.5
      vertex 0.994759 -2.5 1.37433
    endloop
  endfacet
  facet normal 0 -1 0
    outer loop
      vertex 1.4725 -2.5 1.21911
      vertex 5 -2.5 2.5
      vertex 1.23607 -2.5 1.30423
    endloop
  endfacet
  facet normal 0 -1 0
    outer loop
      vertex 1.70312 -2.5 1.11931
      vertex 5 -2.5 2.5
      vertex 1.4725 -2.5 1.21911
    endloop
  endfacet
  facet normal 0 -1 0
    outer loop
      vertex 1.92701 -2.5 1.00523
      vertex 5 -2.5 2.5
      vertex 1.70312 -2.5 1.11931
    endloop
  endfacet
  facet normal 0 -1 0
    outer loop
      vertex 2.14331 -2.5 0.877311
      vertex 5 -2.5 2.5
      vertex 1.92701 -2.5 1.00523
    endloop
  endfacet
  facet normal 0 -1 0
    outer loop
      vertex 2.35114 -2.5 0.736068
      vertex 5 -2.5 2.5
      vertex 2.14331 -2.5 0.877311
    endloop
  endfacet
  facet normal 0 -1 0
    outer loop
      vertex 2.5497 -2.5 0.582052
      vertex 5 -2.5 2.5
      vertex 2.35114 -2.5 0.736068
    endloop
  endfacet
  facet normal 0 -1 0
    outer loop
      vertex 2.73819 -2.5 0.415874
      vertex 5 -2.5 2.5
      vertex 2.5497 -2.5 0.582052
    endloop
  endfacet
  facet normal 0 -1 0
    outer loop
      vertex 2.91587 -2.5 0.238188
      vertex 5 -2.5 2.5
      vertex 2.73819 -2.5 0.415874
    endloop
  endfacet
  facet normal 0 -1 0
    outer loop
      vertex 3.08205 -2.5 0.049695
      vertex 5 -2.5 2.5
      vertex 2.91587 -2.5 0.238188
    endloop
  endfacet
  facet normal 0 -1 0
    outer loop
      vertex 3.23607 -2.5 -0.148858
      vertex 5 -2.5 2.5
      vertex 3.08205 -2.5 0.049695
    endloop
  endfacet
  facet normal 0 -1 0
    outer loop
      vertex 3.37731 -2.5 -0.356692
      vertex 5 -2.5 2.5
      vertex 3.23607 -2.5 -0.148858
    endloop
  endfacet
  facet normal 0 -1 0
    outer loop
      vertex 3.50523 -2.5 -0.572985
      vertex 5 -2.5 2.5
      vertex 3.37731 -2.5 -0.356692
    endloop
  endfacet
  facet normal 0 -1 0
    outer loop
      vertex 3.61931 -2.5 -0.796883
      vertex 5 -2.5 2.5
      vertex 3.50523 -2.5 -0.572985
    endloop
  endfacet
  facet normal 0 -1 0
    outer loop
      vertex 3.71911 -2.5 -1.0275
      vertex 5 -2.5 2.5
      vertex 3.61931 -2.5 -0.796883
    endloop
  endfacet
  facet normal 0 -1 0
    outer loop
      vertex 5 -2.5 -2.5
      vertex 3.71911 -2.5 -1.0275
      vertex 3.80423 -2.5 -1.26393
    endloop
  endfacet
  facet normal 0 -1 0
    outer loop
      vertex 5 -2.5 -2.5
      vertex 3.80423 -2.5 -1.26393
      vertex 3.87433 -2.5 -1.50524
    endloop
  endfacet
  facet normal 0 -1 0
    outer loop
      vertex 5 -2.5 -2.5
      vertex 3.87433 -2.5 -1.50524
      vertex 3.92915 -2.5 -1.75047
    endloop
  endfacet
  facet normal 0 -1 0
    outer loop
      vertex 5 -2.5 -2.5
      vertex 3.92915 -2.5 -1.75047
      vertex 3.96846 -2.5 -1.99867
    endloop
  endfacet
  facet normal 0 -1 0
    outer loop
      vertex 5 -2.5 -2.5
      vertex 3.96846 -2.5 -1.99867
      vertex 3.99211 -2.5 -2.24884
    endloop
  endfacet
  facet normal 0 -1 0
    outer loop
      vertex 5 -2.5 -2.5
      vertex 3.99211 -2.5 -2.24884
      vertex 3.99803 -2.5 -2.43721
    endloop
  endfacet
  facet normal 0 -1 0
    outer loop
      vertex 5 -2.5 -2.5
      vertex 3.99803 -2.5 -2.43721
      vertex 4 -2.5 -2.5
    endloop
  endfacet
  facet normal 0 -1 0
    outer loop
      vertex 3.71911 -2.5 -1.0275
      vertex 5 -2.5 -2.5
      vertex 5 -2.5 2.5
    endloop
  endfacet
  facet normal -0.999506 0 -0.0314127
    outer loop
      vertex 3.99211 -2.5 -2.24884
      vertex 3.99408 2.5 -2.31163
      vertex 3.99803 -2.5 -2.43721
    endloop
  endfacet
  facet normal -0.999506 0 -0.0314127
    outer loop
      vertex 3.99408 2.5 -2.31163
      vertex 3.99211 -2.5 -2.24884
      vertex 3.99211 2.5 -2.24884
    endloop
  endfacet
  facet normal -0.999507 -2.99574e-09 -0.0314126
    outer loop
      vertex 3.99803 -2.5 -2.43721
      vertex 4 2.5 -2.5
      vertex 4 -2.5 -2.5
    endloop
  endfacet
  facet normal -0.999507 -2.99574e-09 -0.0314126
    outer loop
      vertex 4 2.5 -2.5
      vertex 3.99803 -2.5 -2.43721
      vertex 3.99408 2.5 -2.31163
    endloop
  endfacet
  facet normal 0.999506 0 -0.0314127
    outer loop
      vertex -3.99211 -2.5 -2.24884
      vertex -3.99408 2.5 -2.31163
      vertex -3.99211 2.5 -2.24884
    endloop
  endfacet
  facet normal 0.999506 0 -0.0314127
    outer loop
      vertex -3.99408 2.5 -2.31163
      vertex -3.99211 -2.5 -2.24884
      vertex -3.99803 -2.5 -2.43721
    endloop
  endfacet
  facet normal 0.66131 0 -0.750113
    outer loop
      vertex -2.73819 -2.5 0.415874
      vertex -2.5497 2.5 0.582052
      vertex -2.5497 -2.5 0.582052
    endloop
  endfacet
  facet normal 0.66131 0 -0.750113
    outer loop
      vertex -2.5497 2.5 0.582052
      vertex -2.73819 -2.5 0.415874
      vertex -2.73819 2.5 0.415874
    endloop
  endfacet
  facet normal 0.995562 0 -0.094109
    outer loop
      vertex -3.96846 -2.5 -1.99867
      vertex -3.99211 2.5 -2.24884
      vertex -3.96846 2.5 -1.99867
    endloop
  endfacet
  facet normal 0.995562 0 -0.094109
    outer loop
      vertex -3.99211 2.5 -2.24884
      vertex -3.96846 -2.5 -1.99867
      vertex -3.99211 -2.5 -2.24884
    endloop
  endfacet
  facet normal 0.999507 -2.99574e-09 -0.0314126
    outer loop
      vertex -3.99803 -2.5 -2.43721
      vertex -4 2.5 -2.5
      vertex -3.99408 2.5 -2.31163
    endloop
  endfacet
  facet normal 0.999507 -2.99574e-09 -0.0314126
    outer loop
      vertex -4 2.5 -2.5
      vertex -3.99803 -2.5 -2.43721
      vertex -4 -2.5 -2.5
    endloop
  endfacet
  facet normal -0.960294 0 -0.27899
    outer loop
      vertex 3.87433 -2.5 -1.50524
      vertex 3.80423 2.5 -1.26393
      vertex 3.87433 2.5 -1.50524
    endloop
  endfacet
  facet normal -0.960294 -0 -0.27899
    outer loop
      vertex 3.80423 2.5 -1.26393
      vertex 3.87433 -2.5 -1.50524
      vertex 3.80423 -2.5 -1.26393
    endloop
  endfacet
  facet normal -0.0314089 -9.53204e-08 -0.999507
    outer loop
      vertex 0 2.5 1.5
      vertex 0.0627904 -2.5 1.49803
      vertex 0 -2.5 1.5
    endloop
  endfacet
  facet normal -0.0314089 -9.53204e-08 -0.999507
    outer loop
      vertex 0.0627904 -2.5 1.49803
      vertex 0 2.5 1.5
      vertex 0.188371 2.5 1.49408
    endloop
  endfacet
  facet normal 0.0314127 0 -0.999506
    outer loop
      vertex -0.251162 -2.5 1.49211
      vertex -0.188371 2.5 1.49408
      vertex -0.0627904 -2.5 1.49803
    endloop
  endfacet
  facet normal 0.0314127 0 -0.999506
    outer loop
      vertex -0.188371 2.5 1.49408
      vertex -0.251162 -2.5 1.49211
      vertex -0.251162 2.5 1.49211
    endloop
  endfacet
  facet normal -0.562081 0 -0.827082
    outer loop
      vertex 2.14331 -2.5 0.877311
      vertex 2.35114 2.5 0.736068
      vertex 2.35114 -2.5 0.736068
    endloop
  endfacet
  facet normal -0.562081 0 -0.827082
    outer loop
      vertex 2.35114 2.5 0.736068
      vertex 2.14331 -2.5 0.877311
      vertex 2.14331 2.5 0.877311
    endloop
  endfacet
  facet normal -0.338738 0 -0.940881
    outer loop
      vertex 1.23607 -2.5 1.30423
      vertex 1.4725 2.5 1.21911
      vertex 1.4725 -2.5 1.21911
    endloop
  endfacet
  facet normal -0.338738 0 -0.940881
    outer loop
      vertex 1.4725 2.5 1.21911
      vertex 1.23607 -2.5 1.30423
      vertex 1.23607 2.5 1.30423
    endloop
  endfacet
  facet normal -0.218143 0 -0.975917
    outer loop
      vertex 0.749525 -2.5 1.42915
      vertex 0.994759 2.5 1.37433
      vertex 0.994759 -2.5 1.37433
    endloop
  endfacet
  facet normal -0.218143 0 -0.975917
    outer loop
      vertex 0.994759 2.5 1.37433
      vertex 0.749525 -2.5 1.42915
      vertex 0.749525 2.5 1.42915
    endloop
  endfacet
  facet normal -0.66131 0 -0.750113
    outer loop
      vertex 2.5497 -2.5 0.582052
      vertex 2.73819 2.5 0.415874
      vertex 2.73819 -2.5 0.415874
    endloop
  endfacet
  facet normal -0.66131 0 -0.750113
    outer loop
      vertex 2.73819 2.5 0.415874
      vertex 2.5497 -2.5 0.582052
      vertex 2.5497 2.5 0.582052
    endloop
  endfacet
  facet normal -0.917754 0 -0.39715
    outer loop
      vertex 3.71911 -2.5 -1.0275
      vertex 3.61931 2.5 -0.796883
      vertex 3.71911 2.5 -1.0275
    endloop
  endfacet
  facet normal -0.917754 -0 -0.39715
    outer loop
      vertex 3.61931 2.5 -0.796883
      vertex 3.71911 -2.5 -1.0275
      vertex 3.61931 -2.5 -0.796883
    endloop
  endfacet
  facet normal -0.940881 0 -0.338738
    outer loop
      vertex 3.80423 -2.5 -1.26393
      vertex 3.71911 2.5 -1.0275
      vertex 3.80423 2.5 -1.26393
    endloop
  endfacet
  facet normal -0.940881 -0 -0.338738
    outer loop
      vertex 3.71911 2.5 -1.0275
      vertex 3.80423 -2.5 -1.26393
      vertex 3.71911 -2.5 -1.0275
    endloop
  endfacet
  facet normal -0.995562 0 -0.094109
    outer loop
      vertex 3.99211 -2.5 -2.24884
      vertex 3.96846 2.5 -1.99867
      vertex 3.99211 2.5 -2.24884
    endloop
  endfacet
  facet normal -0.995562 -0 -0.094109
    outer loop
      vertex 3.96846 2.5 -1.99867
      vertex 3.99211 -2.5 -2.24884
      vertex 3.96846 -2.5 -1.99867
    endloop
  endfacet
  facet normal -0.0314127 0 -0.999506
    outer loop
      vertex 0.251162 -2.5 1.49211
      vertex 0.188371 2.5 1.49408
      vertex 0.251162 2.5 1.49211
    endloop
  endfacet
  facet normal -0.0314127 0 -0.999506
    outer loop
      vertex 0.188371 2.5 1.49408
      vertex 0.251162 -2.5 1.49211
      vertex 0.0627904 -2.5 1.49803
    endloop
  endfacet
  facet normal 0.509043 0 -0.860741
    outer loop
      vertex -2.14331 -2.5 0.877311
      vertex -1.92701 2.5 1.00523
      vertex -1.92701 -2.5 1.00523
    endloop
  endfacet
  facet normal 0.509043 0 -0.860741
    outer loop
      vertex -1.92701 2.5 1.00523
      vertex -2.14331 -2.5 0.877311
      vertex -2.14331 2.5 0.877311
    endloop
  endfacet
  facet normal 0.338738 0 -0.940881
    outer loop
      vertex -1.4725 -2.5 1.21911
      vertex -1.23607 2.5 1.30423
      vertex -1.23607 -2.5 1.30423
    endloop
  endfacet
  facet normal 0.338738 0 -0.940881
    outer loop
      vertex -1.23607 2.5 1.30423
      vertex -1.4725 -2.5 1.21911
      vertex -1.4725 2.5 1.21911
    endloop
  endfacet
  facet normal 0.156433 0 -0.987689
    outer loop
      vertex -0.749525 -2.5 1.42915
      vertex -0.501332 2.5 1.46846
      vertex -0.501332 -2.5 1.46846
    endloop
  endfacet
  facet normal 0.156433 0 -0.987689
    outer loop
      vertex -0.501332 2.5 1.46846
      vertex -0.749525 -2.5 1.42915
      vertex -0.749525 2.5 1.42915
    endloop
  endfacet
  facet normal 0.707107 0 -0.707107
    outer loop
      vertex -2.73819 -2.5 0.415874
      vertex -2.91587 2.5 0.238188
      vertex -2.73819 2.5 0.415874
    endloop
  endfacet
  facet normal 0.707107 0 -0.707107
    outer loop
      vertex -2.91587 2.5 0.238188
      vertex -2.73819 -2.5 0.415874
      vertex -2.91587 -2.5 0.238188
    endloop
  endfacet
  facet normal 0.860741 0 -0.509043
    outer loop
      vertex -3.37731 -2.5 -0.356692
      vertex -3.50523 2.5 -0.572985
      vertex -3.37731 2.5 -0.356692
    endloop
  endfacet
  facet normal 0.860741 0 -0.509043
    outer loop
      vertex -3.50523 2.5 -0.572985
      vertex -3.37731 -2.5 -0.356692
      vertex -3.50523 -2.5 -0.572985
    endloop
  endfacet
  facet normal 0.940881 0 -0.338738
    outer loop
      vertex -3.71911 -2.5 -1.0275
      vertex -3.80423 2.5 -1.26393
      vertex -3.71911 2.5 -1.0275
    endloop
  endfacet
  facet normal 0.940881 0 -0.338738
    outer loop
      vertex -3.80423 2.5 -1.26393
      vertex -3.71911 -2.5 -1.0275
      vertex -3.80423 -2.5 -1.26393
    endloop
  endfacet
  facet normal -0.827082 0 -0.562081
    outer loop
      vertex 3.37731 -2.5 -0.356692
      vertex 3.23607 2.5 -0.148858
      vertex 3.37731 2.5 -0.356692
    endloop
  endfacet
  facet normal -0.827082 -0 -0.562081
    outer loop
      vertex 3.23607 2.5 -0.148858
      vertex 3.37731 -2.5 -0.356692
      vertex 3.23607 -2.5 -0.148858
    endloop
  endfacet
  facet normal -0.975917 0 -0.218143
    outer loop
      vertex 3.92915 -2.5 -1.75047
      vertex 3.87433 2.5 -1.50524
      vertex 3.92915 2.5 -1.75047
    endloop
  endfacet
  facet normal -0.975917 -0 -0.218143
    outer loop
      vertex 3.87433 2.5 -1.50524
      vertex 3.92915 -2.5 -1.75047
      vertex 3.87433 -2.5 -1.50524
    endloop
  endfacet
  facet normal -0.27899 0 -0.960294
    outer loop
      vertex 0.994759 -2.5 1.37433
      vertex 1.23607 2.5 1.30423
      vertex 1.23607 -2.5 1.30423
    endloop
  endfacet
  facet normal -0.27899 0 -0.960294
    outer loop
      vertex 1.23607 2.5 1.30423
      vertex 0.994759 -2.5 1.37433
      vertex 0.994759 2.5 1.37433
    endloop
  endfacet
  facet normal -0.094109 0 -0.995562
    outer loop
      vertex 0.251162 -2.5 1.49211
      vertex 0.501332 2.5 1.46846
      vertex 0.501332 -2.5 1.46846
    endloop
  endfacet
  facet normal -0.094109 0 -0.995562
    outer loop
      vertex 0.501332 2.5 1.46846
      vertex 0.251162 -2.5 1.49211
      vertex 0.251162 2.5 1.49211
    endloop
  endfacet
  facet normal -0.509043 0 -0.860741
    outer loop
      vertex 1.92701 -2.5 1.00523
      vertex 2.14331 2.5 0.877311
      vertex 2.14331 -2.5 0.877311
    endloop
  endfacet
  facet normal -0.509043 0 -0.860741
    outer loop
      vertex 2.14331 2.5 0.877311
      vertex 1.92701 -2.5 1.00523
      vertex 1.92701 2.5 1.00523
    endloop
  endfacet
  facet normal -0.45399 0 -0.891007
    outer loop
      vertex 1.70312 -2.5 1.11931
      vertex 1.92701 2.5 1.00523
      vertex 1.92701 -2.5 1.00523
    endloop
  endfacet
  facet normal -0.45399 0 -0.891007
    outer loop
      vertex 1.92701 2.5 1.00523
      vertex 1.70312 -2.5 1.11931
      vertex 1.70312 2.5 1.11931
    endloop
  endfacet
  facet normal -0.39715 0 -0.917754
    outer loop
      vertex 1.4725 -2.5 1.21911
      vertex 1.70312 2.5 1.11931
      vertex 1.70312 -2.5 1.11931
    endloop
  endfacet
  facet normal -0.39715 0 -0.917754
    outer loop
      vertex 1.70312 2.5 1.11931
      vertex 1.4725 -2.5 1.21911
      vertex 1.4725 2.5 1.21911
    endloop
  endfacet
  facet normal 0.094109 0 -0.995562
    outer loop
      vertex -0.501332 -2.5 1.46846
      vertex -0.251162 2.5 1.49211
      vertex -0.251162 -2.5 1.49211
    endloop
  endfacet
  facet normal 0.094109 0 -0.995562
    outer loop
      vertex -0.251162 2.5 1.49211
      vertex -0.501332 -2.5 1.46846
      vertex -0.501332 2.5 1.46846
    endloop
  endfacet
  facet normal 0.562081 0 -0.827082
    outer loop
      vertex -2.35114 -2.5 0.736068
      vertex -2.14331 2.5 0.877311
      vertex -2.14331 -2.5 0.877311
    endloop
  endfacet
  facet normal 0.562081 0 -0.827082
    outer loop
      vertex -2.14331 2.5 0.877311
      vertex -2.35114 -2.5 0.736068
      vertex -2.35114 2.5 0.736068
    endloop
  endfacet
  facet normal 0.45399 0 -0.891007
    outer loop
      vertex -1.92701 -2.5 1.00523
      vertex -1.70312 2.5 1.11931
      vertex -1.70312 -2.5 1.11931
    endloop
  endfacet
  facet normal 0.45399 0 -0.891007
    outer loop
      vertex -1.70312 2.5 1.11931
      vertex -1.92701 -2.5 1.00523
      vertex -1.92701 2.5 1.00523
    endloop
  endfacet
  facet normal 0.27899 0 -0.960294
    outer loop
      vertex -1.23607 -2.5 1.30423
      vertex -0.994759 2.5 1.37433
      vertex -0.994759 -2.5 1.37433
    endloop
  endfacet
  facet normal 0.27899 0 -0.960294
    outer loop
      vertex -0.994759 2.5 1.37433
      vertex -1.23607 -2.5 1.30423
      vertex -1.23607 2.5 1.30423
    endloop
  endfacet
  facet normal 0.827082 0 -0.562081
    outer loop
      vertex -3.23607 -2.5 -0.148858
      vertex -3.37731 2.5 -0.356692
      vertex -3.23607 2.5 -0.148858
    endloop
  endfacet
  facet normal 0.827082 0 -0.562081
    outer loop
      vertex -3.37731 2.5 -0.356692
      vertex -3.23607 -2.5 -0.148858
      vertex -3.37731 -2.5 -0.356692
    endloop
  endfacet
  facet normal 0.917754 0 -0.39715
    outer loop
      vertex -3.61931 -2.5 -0.796883
      vertex -3.71911 2.5 -1.0275
      vertex -3.61931 2.5 -0.796883
    endloop
  endfacet
  facet normal 0.917754 0 -0.39715
    outer loop
      vertex -3.71911 2.5 -1.0275
      vertex -3.61931 -2.5 -0.796883
      vertex -3.71911 -2.5 -1.0275
    endloop
  endfacet
  facet normal 0.975917 0 -0.218143
    outer loop
      vertex -3.87433 -2.5 -1.50524
      vertex -3.92915 2.5 -1.75047
      vertex -3.87433 2.5 -1.50524
    endloop
  endfacet
  facet normal 0.975917 0 -0.218143
    outer loop
      vertex -3.92915 2.5 -1.75047
      vertex -3.87433 -2.5 -1.50524
      vertex -3.92915 -2.5 -1.75047
    endloop
  endfacet
  facet normal 0.987689 0 -0.156433
    outer loop
      vertex -3.92915 -2.5 -1.75047
      vertex -3.96846 2.5 -1.99867
      vertex -3.92915 2.5 -1.75047
    endloop
  endfacet
  facet normal 0.987689 0 -0.156433
    outer loop
      vertex -3.96846 2.5 -1.99867
      vertex -3.92915 -2.5 -1.75047
      vertex -3.96846 -2.5 -1.99867
    endloop
  endfacet
  facet normal -0.790151 0 -0.612912
    outer loop
      vertex 3.23607 -2.5 -0.148858
      vertex 3.08205 2.5 0.049695
      vertex 3.23607 2.5 -0.148858
    endloop
  endfacet
  facet normal -0.790151 -0 -0.612912
    outer loop
      vertex 3.08205 2.5 0.049695
      vertex 3.23607 -2.5 -0.148858
      vertex 3.08205 -2.5 0.049695
    endloop
  endfacet
  facet normal -0.750113 0 -0.66131
    outer loop
      vertex 3.08205 -2.5 0.049695
      vertex 2.91587 2.5 0.238188
      vertex 3.08205 2.5 0.049695
    endloop
  endfacet
  facet normal -0.750113 -0 -0.66131
    outer loop
      vertex 2.91587 2.5 0.238188
      vertex 3.08205 -2.5 0.049695
      vertex 2.91587 -2.5 0.238188
    endloop
  endfacet
  facet normal -0.707107 0 -0.707107
    outer loop
      vertex 2.91587 -2.5 0.238188
      vertex 2.73819 2.5 0.415874
      vertex 2.91587 2.5 0.238188
    endloop
  endfacet
  facet normal -0.707107 -0 -0.707107
    outer loop
      vertex 2.73819 2.5 0.415874
      vertex 2.91587 -2.5 0.238188
      vertex 2.73819 -2.5 0.415874
    endloop
  endfacet
  facet normal -0.987689 0 -0.156433
    outer loop
      vertex 3.96846 -2.5 -1.99867
      vertex 3.92915 2.5 -1.75047
      vertex 3.96846 2.5 -1.99867
    endloop
  endfacet
  facet normal -0.987689 -0 -0.156433
    outer loop
      vertex 3.92915 2.5 -1.75047
      vertex 3.96846 -2.5 -1.99867
      vertex 3.92915 -2.5 -1.75047
    endloop
  endfacet
  facet normal -0.156433 0 -0.987689
    outer loop
      vertex 0.501332 -2.5 1.46846
      vertex 0.749525 2.5 1.42915
      vertex 0.749525 -2.5 1.42915
    endloop
  endfacet
  facet normal -0.156433 0 -0.987689
    outer loop
      vertex 0.749525 2.5 1.42915
      vertex 0.501332 -2.5 1.46846
      vertex 0.501332 2.5 1.46846
    endloop
  endfacet
  facet normal 0.0314089 -9.53204e-08 -0.999507
    outer loop
      vertex -0.0627904 -2.5 1.49803
      vertex 0 2.5 1.5
      vertex 0 -2.5 1.5
    endloop
  endfacet
  facet normal 0.0314089 -9.53204e-08 -0.999507
    outer loop
      vertex 0 2.5 1.5
      vertex -0.0627904 -2.5 1.49803
      vertex -0.188371 2.5 1.49408
    endloop
  endfacet
  facet normal -0.61291 0 -0.790153
    outer loop
      vertex 2.35114 -2.5 0.736068
      vertex 2.5497 2.5 0.582052
      vertex 2.5497 -2.5 0.582052
    endloop
  endfacet
  facet normal -0.61291 0 -0.790153
    outer loop
      vertex 2.5497 2.5 0.582052
      vertex 2.35114 -2.5 0.736068
      vertex 2.35114 2.5 0.736068
    endloop
  endfacet
  facet normal 0.61291 0 -0.790153
    outer loop
      vertex -2.5497 -2.5 0.582052
      vertex -2.35114 2.5 0.736068
      vertex -2.35114 -2.5 0.736068
    endloop
  endfacet
  facet normal 0.61291 0 -0.790153
    outer loop
      vertex -2.35114 2.5 0.736068
      vertex -2.5497 -2.5 0.582052
      vertex -2.5497 2.5 0.582052
    endloop
  endfacet
  facet normal 0.39715 0 -0.917754
    outer loop
      vertex -1.70312 -2.5 1.11931
      vertex -1.4725 2.5 1.21911
      vertex -1.4725 -2.5 1.21911
    endloop
  endfacet
  facet normal 0.39715 0 -0.917754
    outer loop
      vertex -1.4725 2.5 1.21911
      vertex -1.70312 -2.5 1.11931
      vertex -1.70312 2.5 1.11931
    endloop
  endfacet
  facet normal 0.218143 0 -0.975917
    outer loop
      vertex -0.994759 -2.5 1.37433
      vertex -0.749525 2.5 1.42915
      vertex -0.749525 -2.5 1.42915
    endloop
  endfacet
  facet normal 0.218143 0 -0.975917
    outer loop
      vertex -0.749525 2.5 1.42915
      vertex -0.994759 -2.5 1.37433
      vertex -0.994759 2.5 1.37433
    endloop
  endfacet
  facet normal 0.750113 0 -0.66131
    outer loop
      vertex -2.91587 -2.5 0.238188
      vertex -3.08205 2.5 0.049695
      vertex -2.91587 2.5 0.238188
    endloop
  endfacet
  facet normal 0.750113 0 -0.66131
    outer loop
      vertex -3.08205 2.5 0.049695
      vertex -2.91587 -2.5 0.238188
      vertex -3.08205 -2.5 0.049695
    endloop
  endfacet
  facet normal 0.790151 0 -0.612912
    outer loop
      vertex -3.08205 -2.5 0.049695
      vertex -3.23607 2.5 -0.148858
      vertex -3.08205 2.5 0.049695
    endloop
  endfacet
  facet normal 0.790151 0 -0.612912
    outer loop
      vertex -3.23607 2.5 -0.148858
      vertex -3.08205 -2.5 0.049695
      vertex -3.23607 -2.5 -0.148858
    endloop
  endfacet
  facet normal 0.891007 0 -0.45399
    outer loop
      vertex -3.50523 -2.5 -0.572985
      vertex -3.61931 2.5 -0.796883
      vertex -3.50523 2.5 -0.572985
    endloop
  endfacet
  facet normal 0.891007 0 -0.45399
    outer loop
      vertex -3.61931 2.5 -0.796883
      vertex -3.50523 -2.5 -0.572985
      vertex -3.61931 -2.5 -0.796883
    endloop
  endfacet
  facet normal 0.960294 0 -0.27899
    outer loop
      vertex -3.80423 -2.5 -1.26393
      vertex -3.87433 2.5 -1.50524
      vertex -3.80423 2.5 -1.26393
    endloop
  endfacet
  facet normal 0.960294 0 -0.27899
    outer loop
      vertex -3.87433 2.5 -1.50524
      vertex -3.80423 -2.5 -1.26393
      vertex -3.87433 -2.5 -1.50524
    endloop
  endfacet
  facet normal -0.891007 0 -0.45399
    outer loop
      vertex 3.61931 -2.5 -0.796883
      vertex 3.50523 2.5 -0.572985
      vertex 3.61931 2.5 -0.796883
    endloop
  endfacet
  facet normal -0.891007 -0 -0.45399
    outer loop
      vertex 3.50523 2.5 -0.572985
      vertex 3.61931 -2.5 -0.796883
      vertex 3.50523 -2.5 -0.572985
    endloop
  endfacet
  facet normal -0.860741 0 -0.509043
    outer loop
      vertex 3.50523 -2.5 -0.572985
      vertex 3.37731 2.5 -0.356692
      vertex 3.50523 2.5 -0.572985
    endloop
  endfacet
  facet normal -0.860741 -0 -0.509043
    outer loop
      vertex 3.37731 2.5 -0.356692
      vertex 3.50523 -2.5 -0.572985
      vertex 3.37731 -2.5 -0.356692
    endloop
  endfacet
endsolid OpenSCAD_Model
