solid OpenSCAD_Model
  facet normal -1 0 0
    outer loop
      vertex -5 -2.5 -2.5
      vertex -5 2.5 2.5
      vertex -5 2.5 -2.5
    endloop
  endfacet
  facet normal -1 -0 0
    outer loop
      vertex -5 2.5 2.5
      vertex -5 -2.5 -2.5
      vertex -5 -2.5 2.5
    endloop
  endfacet
  facet normal -0 0 1
    outer loop
      vertex -5 2.5 2.5
      vertex 5 -2.5 2.5
      vertex 5 2.5 2.5
    endloop
  endfacet
  facet normal 0 0 1
    outer loop
      vertex 5 -2.5 2.5
      vertex -5 2.5 2.5
      vertex -5 -2.5 2.5
    endloop
  endfacet
  facet normal 1 -0 0
    outer loop
      vertex 5 -2.5 2.5
      vertex 5 2.5 -2.5
      vertex 5 2.5 2.5
    endloop
  endfacet
  facet normal 1 0 0
    outer loop
      vertex 5 2.5 -2.5
      vertex 5 -2.5 2.5
      vertex 5 -2.5 -2.5
    endloop
  endfacet
  facet normal 0 1 0
    outer loop
      vertex 5 2.5 2.5
      vertex 0 2.5 1.1
      vertex -5 2.5 2.5
    endloop
  endfacet
  facet normal 0 1 0
    outer loop
      vertex 5 2.5 2.5
      vertex 0.20093 2.5 1.09369
      vertex 0 2.5 1.1
    endloop
  endfacet
  facet normal 0 1 0
    outer loop
      vertex 5 2.5 2.5
      vertex 0.401066 2.5 1.07477
      vertex 0.20093 2.5 1.09369
    endloop
  endfacet
  facet normal 0 1 0
    outer loop
      vertex 5 2.5 2.5
      vertex 0.59962 2.5 1.04332
      vertex 0.401066 2.5 1.07477
    endloop
  endfacet
  facet normal 0 1 0
    outer loop
      vertex 5 2.5 2.5
      vertex 0.795807 2.5 0.999466
      vertex 0.59962 2.5 1.04332
    endloop
  endfacet
  facet normal 0 1 0
    outer loop
      vertex 5 2.5 2.5
      vertex 0.988853 2.5 0.94338
      vertex 0.795807 2.5 0.999466
    endloop
  endfacet
  facet normal 0 1 0
    outer loop
      vertex 5 2.5 2.5
      vertex 1.178 2.5 0.875284
      vertex 0.988853 2.5 0.94338
    endloop
  endfacet
  facet normal 0 1 0
    outer loop
      vertex 5 2.5 2.5
      vertex 1.36249 2.5 0.795446
      vertex 1.178 2.5 0.875284
    endloop
  endfacet
  facet normal 0 1 0
    outer loop
      vertex 5 2.5 2.5
      vertex 1.54161 2.5 0.704181
      vertex 1.36249 2.5 0.795446
    endloop
  endfacet
  facet normal 0 1 0
    outer loop
      vertex 5 2.5 2.5
      vertex 1.71465 2.5 0.601849
      vertex 1.54161 2.5 0.704181
    endloop
  endfacet
  facet normal 0 1 0
    outer loop
      vertex 5 2.5 2.5
      vertex 1.88091 2.5 0.488853
      vertex 1.71465 2.5 0.601849
    endloop
  endfacet
  facet normal 0 1 0
    outer loop
      vertex 5 2.5 2.5
      vertex 2.03976 2.5 0.365642
      vertex 1.88091 2.5 0.488853
    endloop
  endfacet
  facet normal 0 1 0
    outer loop
      vertex 5 2.5 2.5
      vertex 2.19055 2.5 0.232699
      vertex 2.03976 2.5 0.365642
    endloop
  endfacet
  facet normal 0 1 0
    outer loop
      vertex 5 2.5 2.5
      vertex 2.3327 2.5 0.0905504
      vertex 2.19055 2.5 0.232699
    endloop
  endfacet
  facet normal 0 1 0
    outer loop
      vertex 5 2.5 2.5
      vertex 2.46564 2.5 -0.0602427
      vertex 2.3327 2.5 0.0905504
    endloop
  endfacet
  facet normal 0 1 0
    outer loop
      vertex 5 2.5 2.5
      vertex 2.58885 2.5 -0.219087
      vertex 2.46564 2.5 -0.0602427
    endloop
  endfacet
  facet normal 0 1 0
    outer loop
      vertex 5 2.5 2.5
      vertex 2.70185 2.5 -0.385354
      vertex 2.58885 2.5 -0.219087
    endloop
  endfacet
  facet normal 0 1 0
    outer loop
      vertex 5 2.5 2.5
      vertex 2.80418 2.5 -0.558388
      vertex 2.70185 2.5 -0.385354
    endloop
  endfacet
  facet normal 0 1 0
    outer loop
      vertex 5 2.5 2.5
      vertex 2.89545 2.5 -0.737506
      vertex 2.80418 2.5 -0.558388
    endloop
  endfacet
  facet normal 0 1 0
    outer loop
      vertex 5 2.5 2.5
      vertex 2.97528 2.5 -0.922001
      vertex 2.89545 2.5 -0.737506
    endloop
  endfacet
  facet normal 0 1 -0
    outer loop
      vertex 5 2.5 -2.5
      vertex 2.97528 2.5 -0.922001
      vertex 5 2.5 2.5
    endloop
  endfacet
  facet normal 0 1 0
    outer loop
      vertex 2.97528 2.5 -0.922001
      vertex 5 2.5 -2.5
      vertex 3.04338 2.5 -1.11115
    endloop
  endfacet
  facet normal 0 1 0
    outer loop
      vertex 3.04338 2.5 -1.11115
      vertex 5 2.5 -2.5
      vertex 3.09947 2.5 -1.30419
    endloop
  endfacet
  facet normal 0 1 0
    outer loop
      vertex 3.09947 2.5 -1.30419
      vertex 5 2.5 -2.5
      vertex 3.14332 2.5 -1.50038
    endloop
  endfacet
  facet normal 0 1 0
    outer loop
      vertex 3.14332 2.5 -1.50038
      vertex 5 2.5 -2.5
      vertex 3.17477 2.5 -1.69893
    endloop
  endfacet
  facet normal 0 1 0
    outer loop
      vertex 3.17477 2.5 -1.69893
      vertex 5 2.5 -2.5
      vertex 3.19368 2.5 -1.89907
    endloop
  endfacet
  facet normal 0 1 0
    outer loop
      vertex 3.19368 2.5 -1.89907
      vertex 5 2.5 -2.5
      vertex 3.2 2.5 -2.1
    endloop
  endfacet
  facet normal 0 1 0
    outer loop
      vertex 3.2 2.5 -2.1
      vertex 5 2.5 -2.5
      vertex 3.19368 2.5 -2.30093
    endloop
  endfacet
  facet normal 0 1 0
    outer loop
      vertex 3.19368 2.5 -2.30093
      vertex 5 2.5 -2.5
      vertex 3.17487 2.5 -2.5
    endloop
  endfacet
  facet normal 0 1 -0
    outer loop
      vertex -0.20093 2.5 1.09369
      vertex -5 2.5 2.5
      vertex 0 2.5 1.1
    endloop
  endfacet
  facet normal 0 1 -0
    outer loop
      vertex -0.401066 2.5 1.07477
      vertex -5 2.5 2.5
      vertex -0.20093 2.5 1.09369
    endloop
  endfacet
  facet normal 0 1 -0
    outer loop
      vertex -0.59962 2.5 1.04332
      vertex -5 2.5 2.5
      vertex -0.401066 2.5 1.07477
    endloop
  endfacet
  facet normal 0 1 -0
    outer loop
      vertex -0.795807 2.5 0.999466
      vertex -5 2.5 2.5
      vertex -0.59962 2.5 1.04332
    endloop
  endfacet
  facet normal 0 1 -0
    outer loop
      vertex -0.988853 2.5 0.94338
      vertex -5 2.5 2.5
      vertex -0.795807 2.5 0.999466
    endloop
  endfacet
  facet normal 0 1 -0
    outer loop
      vertex -1.178 2.5 0.875284
      vertex -5 2.5 2.5
      vertex -0.988853 2.5 0.94338
    endloop
  endfacet
  facet normal 0 1 -0
    outer loop
      vertex -1.36249 2.5 0.795446
      vertex -5 2.5 2.5
      vertex -1.178 2.5 0.875284
    endloop
  endfacet
  facet normal 0 1 -0
    outer loop
      vertex -1.54161 2.5 0.704181
      vertex -5 2.5 2.5
      vertex -1.36249 2.5 0.795446
    endloop
  endfacet
  facet normal 0 1 -0
    outer loop
      vertex -1.71465 2.5 0.601849
      vertex -5 2.5 2.5
      vertex -1.54161 2.5 0.704181
    endloop
  endfacet
  facet normal 0 1 -0
    outer loop
      vertex -1.88091 2.5 0.488853
      vertex -5 2.5 2.5
      vertex -1.71465 2.5 0.601849
    endloop
  endfacet
  facet normal 0 1 -0
    outer loop
      vertex -2.03976 2.5 0.365642
      vertex -5 2.5 2.5
      vertex -1.88091 2.5 0.488853
    endloop
  endfacet
  facet normal 0 1 -0
    outer loop
      vertex -2.19055 2.5 0.232699
      vertex -5 2.5 2.5
      vertex -2.03976 2.5 0.365642
    endloop
  endfacet
  facet normal 0 1 -0
    outer loop
      vertex -2.3327 2.5 0.0905504
      vertex -5 2.5 2.5
      vertex -2.19055 2.5 0.232699
    endloop
  endfacet
  facet normal 0 1 -0
    outer loop
      vertex -2.46564 2.5 -0.0602427
      vertex -5 2.5 2.5
      vertex -2.3327 2.5 0.0905504
    endloop
  endfacet
  facet normal 0 1 -0
    outer loop
      vertex -2.58885 2.5 -0.219087
      vertex -5 2.5 2.5
      vertex -2.46564 2.5 -0.0602427
    endloop
  endfacet
  facet normal 0 1 -0
    outer loop
      vertex -2.70185 2.5 -0.385354
      vertex -5 2.5 2.5
      vertex -2.58885 2.5 -0.219087
    endloop
  endfacet
  facet normal 0 1 -0
    outer loop
      vertex -2.80418 2.5 -0.558388
      vertex -5 2.5 2.5
      vertex -2.70185 2.5 -0.385354
    endloop
  endfacet
  facet normal 0 1 -0
    outer loop
      vertex -2.89545 2.5 -0.737506
      vertex -5 2.5 2.5
      vertex -2.80418 2.5 -0.558388
    endloop
  endfacet
  facet normal 0 1 -0
    outer loop
      vertex -2.97528 2.5 -0.922001
      vertex -5 2.5 2.5
      vertex -2.89545 2.5 -0.737506
    endloop
  endfacet
  facet normal 0 1 0
    outer loop
      vertex -5 2.5 -2.5
      vertex -2.97528 2.5 -0.922001
      vertex -3.04338 2.5 -1.11115
    endloop
  endfacet
  facet normal 0 1 0
    outer loop
      vertex -5 2.5 -2.5
      vertex -3.04338 2.5 -1.11115
      vertex -3.09947 2.5 -1.30419
    endloop
  endfacet
  facet normal 0 1 0
    outer loop
      vertex -5 2.5 -2.5
      vertex -3.09947 2.5 -1.30419
      vertex -3.14332 2.5 -1.50038
    endloop
  endfacet
  facet normal 0 1 0
    outer loop
      vertex -5 2.5 -2.5
      vertex -3.14332 2.5 -1.50038
      vertex -3.17477 2.5 -1.69893
    endloop
  endfacet
  facet normal 0 1 0
    outer loop
      vertex -5 2.5 -2.5
      vertex -3.17477 2.5 -1.69893
      vertex -3.19368 2.5 -1.89907
    endloop
  endfacet
  facet normal 0 1 0
    outer loop
      vertex -5 2.5 -2.5
      vertex -3.19368 2.5 -1.89907
      vertex -3.2 2.5 -2.1
    endloop
  endfacet
  facet normal 0 1 0
    outer loop
      vertex -5 2.5 -2.5
      vertex -3.2 2.5 -2.1
      vertex -3.19368 2.5 -2.30093
    endloop
  endfacet
  facet normal 0 1 0
    outer loop
      vertex -5 2.5 -2.5
      vertex -3.19368 2.5 -2.30093
      vertex -3.17487 2.5 -2.5
    endloop
  endfacet
  facet normal 0 1 0
    outer loop
      vertex -2.97528 2.5 -0.922001
      vertex -5 2.5 -2.5
      vertex -5 2.5 2.5
    endloop
  endfacet
  facet normal 0 0 -1
    outer loop
      vertex -5 -2.5 -2.5
      vertex -3.17487 2.5 -2.5
      vertex -3.17487 -2.5 -2.5
    endloop
  endfacet
  facet normal -0 0 -1
    outer loop
      vertex -3.17487 2.5 -2.5
      vertex -5 -2.5 -2.5
      vertex -5 2.5 -2.5
    endloop
  endfacet
  facet normal 0 0 -1
    outer loop
      vertex 3.17487 -2.5 -2.5
      vertex 5 2.5 -2.5
      vertex 5 -2.5 -2.5
    endloop
  endfacet
  facet normal -0 0 -1
    outer loop
      vertex 5 2.5 -2.5
      vertex 3.17487 -2.5 -2.5
      vertex 3.17487 2.5 -2.5
    endloop
  endfacet
  facet normal 0 -1 0
    outer loop
      vertex -5 -2.5 2.5
      vertex 0 -2.5 1.1
      vertex 5 -2.5 2.5
    endloop
  endfacet
  facet normal 0 -1 0
    outer loop
      vertex -5 -2.5 2.5
      vertex -0.20093 -2.5 1.09369
      vertex 0 -2.5 1.1
    endloop
  endfacet
  facet normal 0 -1 0
    outer loop
      vertex -5 -2.5 2.5
      vertex -0.401066 -2.5 1.07477
      vertex -0.20093 -2.5 1.09369
    endloop
  endfacet
  facet normal 0 -1 0
    outer loop
      vertex -5 -2.5 2.5
      vertex -0.59962 -2.5 1.04332
      vertex -0.401066 -2.5 1.07477
    endloop
  endfacet
  facet normal 0 -1 0
    outer loop
      vertex -5 -2.5 2.5
      vertex -0.795807 -2.5 0.999466
      vertex -0.59962 -2.5 1.04332
    endloop
  endfacet
  facet normal 0 -1 0
    outer loop
      vertex -5 -2.5 2.5
      vertex -0.988853 -2.5 0.94338
      vertex -0.795807 -2.5 0.999466
    endloop
  endfacet
  facet normal 0 -1 0
    outer loop
      vertex -5 -2.5 2.5
      vertex -1.178 -2.5 0.875284
      vertex -0.988853 -2.5 0.94338
    endloop
  endfacet
  facet normal 0 -1 0
    outer loop
      vertex -5 -2.5 2.5
      vertex -1.36249 -2.5 0.795446
      vertex -1.178 -2.5 0.875284
    endloop
  endfacet
  facet normal 0 -1 0
    outer loop
      vertex -5 -2.5 2.5
      vertex -1.54161 -2.5 0.704181
      vertex -1.36249 -2.5 0.795446
    endloop
  endfacet
  facet normal 0 -1 0
    outer loop
      vertex -5 -2.5 2.5
      vertex -1.71465 -2.5 0.601849
      vertex -1.54161 -2.5 0.704181
    endloop
  endfacet
  facet normal 0 -1 0
    outer loop
      vertex -5 -2.5 2.5
      vertex -1.88091 -2.5 0.488853
      vertex -1.71465 -2.5 0.601849
    endloop
  endfacet
  facet normal 0 -1 0
    outer loop
      vertex -5 -2.5 2.5
      vertex -2.03976 -2.5 0.365642
      vertex -1.88091 -2.5 0.488853
    endloop
  endfacet
  facet normal 0 -1 0
    outer loop
      vertex -5 -2.5 2.5
      vertex -2.19055 -2.5 0.232699
      vertex -2.03976 -2.5 0.365642
    endloop
  endfacet
  facet normal 0 -1 0
    outer loop
      vertex -5 -2.5 2.5
      vertex -2.3327 -2.5 0.0905504
      vertex -2.19055 -2.5 0.232699
    endloop
  endfacet
  facet normal 0 -1 0
    outer loop
      vertex -5 -2.5 2.5
      vertex -2.46564 -2.5 -0.0602427
      vertex -2.3327 -2.5 0.0905504
    endloop
  endfacet
  facet normal 0 -1 0
    outer loop
      vertex -5 -2.5 2.5
      vertex -2.58885 -2.5 -0.219087
      vertex -2.46564 -2.5 -0.0602427
    endloop
  endfacet
  facet normal 0 -1 0
    outer loop
      vertex -5 -2.5 2.5
      vertex -2.70185 -2.5 -0.385354
      vertex -2.58885 -2.5 -0.219087
    endloop
  endfacet
  facet normal 0 -1 0
    outer loop
      vertex -5 -2.5 2.5
      vertex -2.80418 -2.5 -0.558388
      vertex -2.70185 -2.5 -0.385354
    endloop
  endfacet
  facet normal 0 -1 0
    outer loop
      vertex -5 -2.5 2.5
      vertex -2.89545 -2.5 -0.737506
      vertex -2.80418 -2.5 -0.558388
    endloop
  endfacet
  facet normal 0 -1 0
    outer loop
      vertex -5 -2.5 2.5
      vertex -2.97528 -2.5 -0.922001
      vertex -2.89545 -2.5 -0.737506
    endloop
  endfacet
  facet normal 0 -1 0
    outer loop
      vertex -5 -2.5 -2.5
      vertex -2.97528 -2.5 -0.922001
      vertex -5 -2.5 2.5
    endloop
  endfacet
  facet normal 0 -1 0
    outer loop
      vertex -2.97528 -2.5 -0.922001
      vertex -5 -2.5 -2.5
      vertex -3.04338 -2.5 -1.11115
    endloop
  endfacet
  facet normal 0 -1 0
    outer loop
      vertex -3.04338 -2.5 -1.11115
      vertex -5 -2.5 -2.5
      vertex -3.09947 -2.5 -1.30419
    endloop
  endfacet
  facet normal 0 -1 0
    outer loop
      vertex -3.09947 -2.5 -1.30419
      vertex -5 -2.5 -2.5
      vertex -3.14332 -2.5 -1.50038
    endloop
  endfacet
  facet normal 0 -1 0
    outer loop
      vertex -3.14332 -2.5 -1.50038
      vertex -5 -2.5 -2.5
      vertex -3.17477 -2.5 -1.69893
    endloop
  endfacet
  facet normal 0 -1 0
    outer loop
      vertex -3.17477 -2.5 -1.69893
      vertex -5 -2.5 -2.5
      vertex -3.19368 -2.5 -1.89907
    endloop
  endfacet
  facet normal 0 -1 0
    outer loop
      vertex -3.19368 -2.5 -1.89907
      vertex -5 -2.5 -2.5
      vertex -3.2 -2.5 -2.1
    endloop
  endfacet
  facet normal 0 -1 -0
    outer loop
      vertex -3.2 -2.5 -2.1
      vertex -5 -2.5 -2.5
      vertex -3.19368 -2.5 -2.30093
    endloop
  endfacet
  facet normal 0 -1 -0
    outer loop
      vertex -3.19368 -2.5 -2.30093
      vertex -5 -2.5 -2.5
      vertex -3.17487 -2.5 -2.5
    endloop
  endfacet
  facet normal 0 -1 0
    outer loop
      vertex 0.20093 -2.5 1.09369
      vertex 5 -2.5 2.5
      vertex 0 -2.5 1.1
    endloop
  endfacet
  facet normal 0 -1 0
    outer loop
      vertex 0.401066 -2.5 1.07477
      vertex 5 -2.5 2.5
      vertex 0.20093 -2.5 1.09369
    endloop
  endfacet
  facet normal 0 -1 0
    outer loop
      vertex 0.59962 -2.5 1.04332
      vertex 5 -2.5 2.5
      vertex 0.401066 -2.5 1.07477
    endloop
  endfacet
  facet normal 0 -1 0
    outer loop
      vertex 0.795807 -2.5 0.999466
      vertex 5 -2.5 2.5
      vertex 0.59962 -2.5 1.04332
    endloop
  endfacet
  facet normal 0 -1 0
    outer loop
      vertex 0.988853 -2.5 0.94338
      vertex 5 -2.5 2.5
      vertex 0.795807 -2.5 0.999466
    endloop
  endfacet
  facet normal 0 -1 0
    outer loop
      vertex 1.178 -2.5 0.875284
      vertex 5 -2.5 2.5
      vertex 0.988853 -2.5 0.94338
    endloop
  endfacet
  facet normal 0 -1 0
    outer loop
      vertex 1.36249 -2.5 0.795446
      vertex 5 -2.5 2.5
      vertex 1.178 -2.5 0.875284
    endloop
  endfacet
  facet normal 0 -1 0
    outer loop
      vertex 1.54161 -2.5 0.704181
      vertex 5 -2.5 2.5
      vertex 1.36249 -2.5 0.795446
    endloop
  endfacet
  facet normal 0 -1 0
    outer loop
      vertex 1.71465 -2.5 0.601849
      vertex 5 -2.5 2.5
      vertex 1.54161 -2.5 0.704181
    endloop
  endfacet
  facet normal 0 -1 0
    outer loop
      vertex 1.88091 -2.5 0.488853
      vertex 5 -2.5 2.5
      vertex 1.71465 -2.5 0.601849
    endloop
  endfacet
  facet normal 0 -1 0
    outer loop
      vertex 2.03976 -2.5 0.365642
      vertex 5 -2.5 2.5
      vertex 1.88091 -2.5 0.488853
    endloop
  endfacet
  facet normal 0 -1 0
    outer loop
      vertex 2.19055 -2.5 0.232699
      vertex 5 -2.5 2.5
      vertex 2.03976 -2.5 0.365642
    endloop
  endfacet
  facet normal 0 -1 0
    outer loop
      vertex 2.3327 -2.5 0.0905504
      vertex 5 -2.5 2.5
      vertex 2.19055 -2.5 0.232699
    endloop
  endfacet
  facet normal 0 -1 0
    outer loop
      vertex 2.46564 -2.5 -0.0602427
      vertex 5 -2.5 2.5
      vertex 2.3327 -2.5 0.0905504
    endloop
  endfacet
  facet normal 0 -1 0
    outer loop
      vertex 2.58885 -2.5 -0.219087
      vertex 5 -2.5 2.5
      vertex 2.46564 -2.5 -0.0602427
    endloop
  endfacet
  facet normal 0 -1 0
    outer loop
      vertex 2.70185 -2.5 -0.385354
      vertex 5 -2.5 2.5
      vertex 2.58885 -2.5 -0.219087
    endloop
  endfacet
  facet normal 0 -1 0
    outer loop
      vertex 2.80418 -2.5 -0.558388
      vertex 5 -2.5 2.5
      vertex 2.70185 -2.5 -0.385354
    endloop
  endfacet
  facet normal 0 -1 0
    outer loop
      vertex 2.89545 -2.5 -0.737506
      vertex 5 -2.5 2.5
      vertex 2.80418 -2.5 -0.558388
    endloop
  endfacet
  facet normal 0 -1 0
    outer loop
      vertex 2.97528 -2.5 -0.922001
      vertex 5 -2.5 2.5
      vertex 2.89545 -2.5 -0.737506
    endloop
  endfacet
  facet normal 0 -1 0
    outer loop
      vertex 5 -2.5 -2.5
      vertex 2.97528 -2.5 -0.922001
      vertex 3.04338 -2.5 -1.11115
    endloop
  endfacet
  facet normal 0 -1 0
    outer loop
      vertex 5 -2.5 -2.5
      vertex 3.04338 -2.5 -1.11115
      vertex 3.09947 -2.5 -1.30419
    endloop
  endfacet
  facet normal 0 -1 0
    outer loop
      vertex 5 -2.5 -2.5
      vertex 3.09947 -2.5 -1.30419
      vertex 3.14332 -2.5 -1.50038
    endloop
  endfacet
  facet normal 0 -1 0
    outer loop
      vertex 5 -2.5 -2.5
      vertex 3.14332 -2.5 -1.50038
      vertex 3.17477 -2.5 -1.69893
    endloop
  endfacet
  facet normal 0 -1 0
    outer loop
      vertex 5 -2.5 -2.5
      vertex 3.17477 -2.5 -1.69893
      vertex 3.19368 -2.5 -1.89907
    endloop
  endfacet
  facet normal 0 -1 0
    outer loop
      vertex 5 -2.5 -2.5
      vertex 3.19368 -2.5 -1.89907
      vertex 3.2 -2.5 -2.1
    endloop
  endfacet
  facet normal 0 -1 0
    outer loop
      vertex 5 -2.5 -2.5
      vertex 3.2 -2.5 -2.1
      vertex 3.19368 -2.5 -2.30093
    endloop
  endfacet
  facet normal 0 -1 0
    outer loop
      vertex 5 -2.5 -2.5
      vertex 3.19368 -2.5 -2.30093
      vertex 3.17487 -2.5 -2.5
    endloop
  endfacet
  facet normal 0 -1 0
    outer loop
      vertex 2.97528 -2.5 -0.922001
      vertex 5 -2.5 -2.5
      vertex 5 -2.5 2.5
    endloop
  endfacet
  facet normal -0.999506 0 -0.0314146
    outer loop
      vertex 3.2 -2.5 -2.1
      vertex 3.19368 2.5 -1.89907
      vertex 3.2 2.5 -2.1
    endloop
  endfacet
  facet normal -0.999506 -0 -0.0314146
    outer loop
      vertex 3.19368 2.5 -1.89907
      vertex 3.2 -2.5 -2.1
      vertex 3.19368 -2.5 -1.89907
    endloop
  endfacet
  facet normal -0.995562 0 -0.0941063
    outer loop
      vertex 3.19368 -2.5 -1.89907
      vertex 3.17477 2.5 -1.69893
      vertex 3.19368 2.5 -1.89907
    endloop
  endfacet
  facet normal -0.995562 -0 -0.0941063
    outer loop
      vertex 3.17477 2.5 -1.69893
      vertex 3.19368 -2.5 -1.89907
      vertex 3.17477 -2.5 -1.69893
    endloop
  endfacet
  facet normal 0.0314098 0 -0.999507
    outer loop
      vertex -0.20093 -2.5 1.09369
      vertex 0 2.5 1.1
      vertex 0 -2.5 1.1
    endloop
  endfacet
  facet normal 0.0314098 0 -0.999507
    outer loop
      vertex 0 2.5 1.1
      vertex -0.20093 -2.5 1.09369
      vertex -0.20093 2.5 1.09369
    endloop
  endfacet
  facet normal -0.707107 0 -0.707107
    outer loop
      vertex 2.3327 -2.5 0.0905504
      vertex 2.19055 2.5 0.232699
      vertex 2.3327 2.5 0.0905504
    endloop
  endfacet
  facet normal -0.707107 -0 -0.707107
    outer loop
      vertex 2.19055 2.5 0.232699
      vertex 2.3327 -2.5 0.0905504
      vertex 2.19055 -2.5 0.232699
    endloop
  endfacet
  facet normal -0.917753 0 -0.397151
    outer loop
      vertex 2.97528 -2.5 -0.922001
      vertex 2.89545 2.5 -0.737506
      vertex 2.97528 2.5 -0.922001
    endloop
  endfacet
  facet normal -0.917753 -0 -0.397151
    outer loop
      vertex 2.89545 2.5 -0.737506
      vertex 2.97528 -2.5 -0.922001
      vertex 2.89545 -2.5 -0.737506
    endloop
  endfacet
  facet normal -0.397147 0 -0.917755
    outer loop
      vertex 1.178 -2.5 0.875284
      vertex 1.36249 2.5 0.795446
      vertex 1.36249 -2.5 0.795446
    endloop
  endfacet
  facet normal -0.397147 0 -0.917755
    outer loop
      vertex 1.36249 2.5 0.795446
      vertex 1.178 -2.5 0.875284
      vertex 1.178 2.5 0.875284
    endloop
  endfacet
  facet normal -0.562083 0 -0.827081
    outer loop
      vertex 1.71465 -2.5 0.601849
      vertex 1.88091 2.5 0.488853
      vertex 1.88091 -2.5 0.488853
    endloop
  endfacet
  facet normal -0.562083 0 -0.827081
    outer loop
      vertex 1.88091 2.5 0.488853
      vertex 1.71465 -2.5 0.601849
      vertex 1.71465 2.5 0.601849
    endloop
  endfacet
  facet normal -0.975916 0 -0.218146
    outer loop
      vertex 3.14332 -2.5 -1.50038
      vertex 3.09947 2.5 -1.30419
      vertex 3.14332 2.5 -1.50038
    endloop
  endfacet
  facet normal -0.975916 -0 -0.218146
    outer loop
      vertex 3.09947 2.5 -1.30419
      vertex 3.14332 -2.5 -1.50038
      vertex 3.09947 -2.5 -1.30419
    endloop
  endfacet
  facet normal -0.827081 0 -0.562083
    outer loop
      vertex 2.70185 -2.5 -0.385354
      vertex 2.58885 2.5 -0.219087
      vertex 2.70185 2.5 -0.385354
    endloop
  endfacet
  facet normal -0.827081 -0 -0.562083
    outer loop
      vertex 2.58885 2.5 -0.219087
      vertex 2.70185 -2.5 -0.385354
      vertex 2.58885 -2.5 -0.219087
    endloop
  endfacet
  facet normal -0.891008 0 -0.453988
    outer loop
      vertex 2.89545 -2.5 -0.737506
      vertex 2.80418 2.5 -0.558388
      vertex 2.89545 2.5 -0.737506
    endloop
  endfacet
  facet normal -0.891008 -0 -0.453988
    outer loop
      vertex 2.80418 2.5 -0.558388
      vertex 2.89545 -2.5 -0.737506
      vertex 2.80418 -2.5 -0.558388
    endloop
  endfacet
  facet normal -0.218142 0 -0.975917
    outer loop
      vertex 0.59962 -2.5 1.04332
      vertex 0.795807 2.5 0.999466
      vertex 0.795807 -2.5 0.999466
    endloop
  endfacet
  facet normal -0.218142 0 -0.975917
    outer loop
      vertex 0.795807 2.5 0.999466
      vertex 0.59962 -2.5 1.04332
      vertex 0.59962 2.5 1.04332
    endloop
  endfacet
  facet normal -0.338737 0 -0.940881
    outer loop
      vertex 0.988853 -2.5 0.94338
      vertex 1.178 2.5 0.875284
      vertex 1.178 -2.5 0.875284
    endloop
  endfacet
  facet normal -0.338737 0 -0.940881
    outer loop
      vertex 1.178 2.5 0.875284
      vertex 0.988853 -2.5 0.94338
      vertex 0.988853 2.5 0.94338
    endloop
  endfacet
  facet normal -0.612909 0 -0.790154
    outer loop
      vertex 1.88091 -2.5 0.488853
      vertex 2.03976 2.5 0.365642
      vertex 2.03976 -2.5 0.365642
    endloop
  endfacet
  facet normal -0.612909 0 -0.790154
    outer loop
      vertex 2.03976 2.5 0.365642
      vertex 1.88091 -2.5 0.488853
      vertex 1.88091 2.5 0.488853
    endloop
  endfacet
  facet normal 0.707107 0 -0.707107
    outer loop
      vertex -2.19055 -2.5 0.232699
      vertex -2.3327 2.5 0.0905504
      vertex -2.19055 2.5 0.232699
    endloop
  endfacet
  facet normal 0.707107 0 -0.707107
    outer loop
      vertex -2.3327 2.5 0.0905504
      vertex -2.19055 -2.5 0.232699
      vertex -2.3327 -2.5 0.0905504
    endloop
  endfacet
  facet normal 0.940881 0 -0.338738
    outer loop
      vertex -2.97528 -2.5 -0.922001
      vertex -3.04338 2.5 -1.11115
      vertex -2.97528 2.5 -0.922001
    endloop
  endfacet
  facet normal 0.940881 0 -0.338738
    outer loop
      vertex -3.04338 2.5 -1.11115
      vertex -2.97528 -2.5 -0.922001
      vertex -3.04338 -2.5 -1.11115
    endloop
  endfacet
  facet normal -0.987689 0 -0.156432
    outer loop
      vertex 3.17477 -2.5 -1.69893
      vertex 3.14332 2.5 -1.50038
      vertex 3.17477 2.5 -1.69893
    endloop
  endfacet
  facet normal -0.987689 -0 -0.156432
    outer loop
      vertex 3.14332 2.5 -1.50038
      vertex 3.17477 -2.5 -1.69893
      vertex 3.14332 -2.5 -1.50038
    endloop
  endfacet
  facet normal -0.960294 0 -0.278988
    outer loop
      vertex 3.09947 -2.5 -1.30419
      vertex 3.04338 2.5 -1.11115
      vertex 3.09947 2.5 -1.30419
    endloop
  endfacet
  facet normal -0.960294 -0 -0.278988
    outer loop
      vertex 3.04338 2.5 -1.11115
      vertex 3.09947 -2.5 -1.30419
      vertex 3.04338 -2.5 -1.11115
    endloop
  endfacet
  facet normal -0.790155 0 -0.612907
    outer loop
      vertex 2.58885 -2.5 -0.219087
      vertex 2.46564 2.5 -0.0602427
      vertex 2.58885 2.5 -0.219087
    endloop
  endfacet
  facet normal -0.790155 -0 -0.612907
    outer loop
      vertex 2.46564 2.5 -0.0602427
      vertex 2.58885 -2.5 -0.219087
      vertex 2.46564 -2.5 -0.0602427
    endloop
  endfacet
  facet normal -0.094111 0 -0.995562
    outer loop
      vertex 0.20093 -2.5 1.09369
      vertex 0.401066 2.5 1.07477
      vertex 0.401066 -2.5 1.07477
    endloop
  endfacet
  facet normal -0.094111 0 -0.995562
    outer loop
      vertex 0.401066 2.5 1.07477
      vertex 0.20093 -2.5 1.09369
      vertex 0.20093 2.5 1.09369
    endloop
  endfacet
  facet normal -0.278993 0 -0.960293
    outer loop
      vertex 0.795807 -2.5 0.999466
      vertex 0.988853 2.5 0.94338
      vertex 0.988853 -2.5 0.94338
    endloop
  endfacet
  facet normal -0.278993 0 -0.960293
    outer loop
      vertex 0.988853 2.5 0.94338
      vertex 0.795807 -2.5 0.999466
      vertex 0.795807 2.5 0.999466
    endloop
  endfacet
  facet normal -0.156432 0 -0.987689
    outer loop
      vertex 0.401066 -2.5 1.07477
      vertex 0.59962 2.5 1.04332
      vertex 0.59962 -2.5 1.04332
    endloop
  endfacet
  facet normal -0.156432 0 -0.987689
    outer loop
      vertex 0.59962 2.5 1.04332
      vertex 0.401066 -2.5 1.07477
      vertex 0.401066 2.5 1.07477
    endloop
  endfacet
  facet normal -0.509042 0 -0.860741
    outer loop
      vertex 1.54161 -2.5 0.704181
      vertex 1.71465 2.5 0.601849
      vertex 1.71465 -2.5 0.601849
    endloop
  endfacet
  facet normal -0.509042 0 -0.860741
    outer loop
      vertex 1.71465 2.5 0.601849
      vertex 1.54161 -2.5 0.704181
      vertex 1.54161 2.5 0.704181
    endloop
  endfacet
  facet normal -0.453992 0 -0.891006
    outer loop
      vertex 1.36249 -2.5 0.795446
      vertex 1.54161 2.5 0.704181
      vertex 1.54161 -2.5 0.704181
    endloop
  endfacet
  facet normal -0.453992 0 -0.891006
    outer loop
      vertex 1.54161 2.5 0.704181
      vertex 1.36249 -2.5 0.795446
      vertex 1.36249 2.5 0.795446
    endloop
  endfacet
  facet normal -0.66131 0 -0.750113
    outer loop
      vertex 2.03976 -2.5 0.365642
      vertex 2.19055 2.5 0.232699
      vertex 2.19055 -2.5 0.232699
    endloop
  endfacet
  facet normal -0.66131 0 -0.750113
    outer loop
      vertex 2.19055 2.5 0.232699
      vertex 2.03976 -2.5 0.365642
      vertex 2.03976 2.5 0.365642
    endloop
  endfacet
  facet normal 0.66131 0 -0.750113
    outer loop
      vertex -2.19055 -2.5 0.232699
      vertex -2.03976 2.5 0.365642
      vertex -2.03976 -2.5 0.365642
    endloop
  endfacet
  facet normal 0.66131 0 -0.750113
    outer loop
      vertex -2.03976 2.5 0.365642
      vertex -2.19055 -2.5 0.232699
      vertex -2.19055 2.5 0.232699
    endloop
  endfacet
  facet normal 0.860741 0 -0.509042
    outer loop
      vertex -2.70185 -2.5 -0.385354
      vertex -2.80418 2.5 -0.558388
      vertex -2.70185 2.5 -0.385354
    endloop
  endfacet
  facet normal 0.860741 0 -0.509042
    outer loop
      vertex -2.80418 2.5 -0.558388
      vertex -2.70185 -2.5 -0.385354
      vertex -2.80418 -2.5 -0.558388
    endloop
  endfacet
  facet normal 0.827081 0 -0.562083
    outer loop
      vertex -2.58885 -2.5 -0.219087
      vertex -2.70185 2.5 -0.385354
      vertex -2.58885 2.5 -0.219087
    endloop
  endfacet
  facet normal 0.827081 0 -0.562083
    outer loop
      vertex -2.70185 2.5 -0.385354
      vertex -2.58885 -2.5 -0.219087
      vertex -2.70185 -2.5 -0.385354
    endloop
  endfacet
  facet normal 0.750108 0 -0.661315
    outer loop
      vertex -2.3327 -2.5 0.0905504
      vertex -2.46564 2.5 -0.0602427
      vertex -2.3327 2.5 0.0905504
    endloop
  endfacet
  facet normal 0.750108 0 -0.661315
    outer loop
      vertex -2.46564 2.5 -0.0602427
      vertex -2.3327 -2.5 0.0905504
      vertex -2.46564 -2.5 -0.0602427
    endloop
  endfacet
  facet normal -0.940881 0 -0.338738
    outer loop
      vertex 3.04338 -2.5 -1.11115
      vertex 2.97528 2.5 -0.922001
      vertex 3.04338 2.5 -1.11115
    endloop
  endfacet
  facet normal -0.940881 -0 -0.338738
    outer loop
      vertex 2.97528 2.5 -0.922001
      vertex 3.04338 -2.5 -1.11115
      vertex 2.97528 -2.5 -0.922001
    endloop
  endfacet
  facet normal -0.750108 0 -0.661315
    outer loop
      vertex 2.46564 -2.5 -0.0602427
      vertex 2.3327 2.5 0.0905504
      vertex 2.46564 2.5 -0.0602427
    endloop
  endfacet
  facet normal -0.750108 -0 -0.661315
    outer loop
      vertex 2.3327 2.5 0.0905504
      vertex 2.46564 -2.5 -0.0602427
      vertex 2.3327 -2.5 0.0905504
    endloop
  endfacet
  facet normal -0.860741 0 -0.509042
    outer loop
      vertex 2.80418 -2.5 -0.558388
      vertex 2.70185 2.5 -0.385354
      vertex 2.80418 2.5 -0.558388
    endloop
  endfacet
  facet normal -0.860741 -0 -0.509042
    outer loop
      vertex 2.70185 2.5 -0.385354
      vertex 2.80418 -2.5 -0.558388
      vertex 2.70185 -2.5 -0.385354
    endloop
  endfacet
  facet normal -0.0314098 0 -0.999507
    outer loop
      vertex 0 -2.5 1.1
      vertex 0.20093 2.5 1.09369
      vertex 0.20093 -2.5 1.09369
    endloop
  endfacet
  facet normal -0.0314098 0 -0.999507
    outer loop
      vertex 0.20093 2.5 1.09369
      vertex 0 -2.5 1.1
      vertex 0 2.5 1.1
    endloop
  endfacet
  facet normal -0.995562 0 0.0941056
    outer loop
      vertex 3.17487 -2.5 -2.5
      vertex 3.19368 2.5 -2.30093
      vertex 3.17487 2.5 -2.5
    endloop
  endfacet
  facet normal -0.995562 0 0.0941056
    outer loop
      vertex 3.19368 2.5 -2.30093
      vertex 3.17487 -2.5 -2.5
      vertex 3.19368 -2.5 -2.30093
    endloop
  endfacet
  facet normal -0.999506 0 0.0314146
    outer loop
      vertex 3.19368 -2.5 -2.30093
      vertex 3.2 2.5 -2.1
      vertex 3.19368 2.5 -2.30093
    endloop
  endfacet
  facet normal -0.999506 0 0.0314146
    outer loop
      vertex 3.2 2.5 -2.1
      vertex 3.19368 -2.5 -2.30093
      vertex 3.2 -2.5 -2.1
    endloop
  endfacet
  facet normal 0.995562 -0 0.0941056
    outer loop
      vertex -3.19368 -2.5 -2.30093
      vertex -3.17487 2.5 -2.5
      vertex -3.19368 2.5 -2.30093
    endloop
  endfacet
  facet normal 0.995562 0 0.0941056
    outer loop
      vertex -3.17487 2.5 -2.5
      vertex -3.19368 -2.5 -2.30093
      vertex -3.17487 -2.5 -2.5
    endloop
  endfacet
  facet normal 0.999506 -0 0.0314146
    outer loop
      vertex -3.2 -2.5 -2.1
      vertex -3.19368 2.5 -2.30093
      vertex -3.2 2.5 -2.1
    endloop
  endfacet
  facet normal 0.999506 0 0.0314146
    outer loop
      vertex -3.19368 2.5 -2.30093
      vertex -3.2 -2.5 -2.1
      vertex -3.19368 -2.5 -2.30093
    endloop
  endfacet
  facet normal 0.612909 0 -0.790154
    outer loop
      vertex -2.03976 -2.5 0.365642
      vertex -1.88091 2.5 0.488853
      vertex -1.88091 -2.5 0.488853
    endloop
  endfacet
  facet normal 0.612909 0 -0.790154
    outer loop
      vertex -1.88091 2.5 0.488853
      vertex -2.03976 -2.5 0.365642
      vertex -2.03976 2.5 0.365642
    endloop
  endfacet
  facet normal 0.218142 0 -0.975917
    outer loop
      vertex -0.795807 -2.5 0.999466
      vertex -0.59962 2.5 1.04332
      vertex -0.59962 -2.5 1.04332
    endloop
  endfacet
  facet normal 0.218142 0 -0.975917
    outer loop
      vertex -0.59962 2.5 1.04332
      vertex -0.795807 -2.5 0.999466
      vertex -0.795807 2.5 0.999466
    endloop
  endfacet
  facet normal 0.397147 0 -0.917755
    outer loop
      vertex -1.36249 -2.5 0.795446
      vertex -1.178 2.5 0.875284
      vertex -1.178 -2.5 0.875284
    endloop
  endfacet
  facet normal 0.397147 0 -0.917755
    outer loop
      vertex -1.178 2.5 0.875284
      vertex -1.36249 -2.5 0.795446
      vertex -1.36249 2.5 0.795446
    endloop
  endfacet
  facet normal 0.995562 0 -0.0941063
    outer loop
      vertex -3.17477 -2.5 -1.69893
      vertex -3.19368 2.5 -1.89907
      vertex -3.17477 2.5 -1.69893
    endloop
  endfacet
  facet normal 0.995562 0 -0.0941063
    outer loop
      vertex -3.19368 2.5 -1.89907
      vertex -3.17477 -2.5 -1.69893
      vertex -3.19368 -2.5 -1.89907
    endloop
  endfacet
  facet normal 0.999506 0 -0.0314146
    outer loop
      vertex -3.19368 -2.5 -1.89907
      vertex -3.2 2.5 -2.1
      vertex -3.19368 2.5 -1.89907
    endloop
  endfacet
  facet normal 0.999506 0 -0.0314146
    outer loop
      vertex -3.2 2.5 -2.1
      vertex -3.19368 -2.5 -1.89907
      vertex -3.2 -2.5 -2.1
    endloop
  endfacet
  facet normal 0.562083 0 -0.827081
    outer loop
      vertex -1.88091 -2.5 0.488853
      vertex -1.71465 2.5 0.601849
      vertex -1.71465 -2.5 0.601849
    endloop
  endfacet
  facet normal 0.562083 0 -0.827081
    outer loop
      vertex -1.71465 2.5 0.601849
      vertex -1.88091 -2.5 0.488853
      vertex -1.88091 2.5 0.488853
    endloop
  endfacet
  facet normal 0.453992 0 -0.891006
    outer loop
      vertex -1.54161 -2.5 0.704181
      vertex -1.36249 2.5 0.795446
      vertex -1.36249 -2.5 0.795446
    endloop
  endfacet
  facet normal 0.453992 0 -0.891006
    outer loop
      vertex -1.36249 2.5 0.795446
      vertex -1.54161 -2.5 0.704181
      vertex -1.54161 2.5 0.704181
    endloop
  endfacet
  facet normal 0.338737 0 -0.940881
    outer loop
      vertex -1.178 -2.5 0.875284
      vertex -0.988853 2.5 0.94338
      vertex -0.988853 -2.5 0.94338
    endloop
  endfacet
  facet normal 0.338737 0 -0.940881
    outer loop
      vertex -0.988853 2.5 0.94338
      vertex -1.178 -2.5 0.875284
      vertex -1.178 2.5 0.875284
    endloop
  endfacet
  facet normal 0.156432 0 -0.987689
    outer loop
      vertex -0.59962 -2.5 1.04332
      vertex -0.401066 2.5 1.07477
      vertex -0.401066 -2.5 1.07477
    endloop
  endfacet
  facet normal 0.156432 0 -0.987689
    outer loop
      vertex -0.401066 2.5 1.07477
      vertex -0.59962 -2.5 1.04332
      vertex -0.59962 2.5 1.04332
    endloop
  endfacet
  facet normal 0.094111 0 -0.995562
    outer loop
      vertex -0.401066 -2.5 1.07477
      vertex -0.20093 2.5 1.09369
      vertex -0.20093 -2.5 1.09369
    endloop
  endfacet
  facet normal 0.094111 0 -0.995562
    outer loop
      vertex -0.20093 2.5 1.09369
      vertex -0.401066 -2.5 1.07477
      vertex -0.401066 2.5 1.07477
    endloop
  endfacet
  facet normal 0.987689 0 -0.156432
    outer loop
      vertex -3.14332 -2.5 -1.50038
      vertex -3.17477 2.5 -1.69893
      vertex -3.14332 2.5 -1.50038
    endloop
  endfacet
  facet normal 0.987689 0 -0.156432
    outer loop
      vertex -3.17477 2.5 -1.69893
      vertex -3.14332 -2.5 -1.50038
      vertex -3.17477 -2.5 -1.69893
    endloop
  endfacet
  facet normal 0.790155 0 -0.612907
    outer loop
      vertex -2.46564 -2.5 -0.0602427
      vertex -2.58885 2.5 -0.219087
      vertex -2.46564 2.5 -0.0602427
    endloop
  endfacet
  facet normal 0.790155 0 -0.612907
    outer loop
      vertex -2.58885 2.5 -0.219087
      vertex -2.46564 -2.5 -0.0602427
      vertex -2.58885 -2.5 -0.219087
    endloop
  endfacet
  facet normal 0.509042 0 -0.860741
    outer loop
      vertex -1.71465 -2.5 0.601849
      vertex -1.54161 2.5 0.704181
      vertex -1.54161 -2.5 0.704181
    endloop
  endfacet
  facet normal 0.509042 0 -0.860741
    outer loop
      vertex -1.54161 2.5 0.704181
      vertex -1.71465 -2.5 0.601849
      vertex -1.71465 2.5 0.601849
    endloop
  endfacet
  facet normal 0.278993 0 -0.960293
    outer loop
      vertex -0.988853 -2.5 0.94338
      vertex -0.795807 2.5 0.999466
      vertex -0.795807 -2.5 0.999466
    endloop
  endfacet
  facet normal 0.278993 0 -0.960293
    outer loop
      vertex -0.795807 2.5 0.999466
      vertex -0.988853 -2.5 0.94338
      vertex -0.988853 2.5 0.94338
    endloop
  endfacet
  facet normal 0.960294 0 -0.278988
    outer loop
      vertex -3.04338 -2.5 -1.11115
      vertex -3.09947 2.5 -1.30419
      vertex -3.04338 2.5 -1.11115
    endloop
  endfacet
  facet normal 0.960294 0 -0.278988
    outer loop
      vertex -3.09947 2.5 -1.30419
      vertex -3.04338 -2.5 -1.11115
      vertex -3.09947 -2.5 -1.30419
    endloop
  endfacet
  facet normal 0.975916 0 -0.218146
    outer loop
      vertex -3.09947 -2.5 -1.30419
      vertex -3.14332 2.5 -1.50038
      vertex -3.09947 2.5 -1.30419
    endloop
  endfacet
  facet normal 0.975916 0 -0.218146
    outer loop
      vertex -3.14332 2.5 -1.50038
      vertex -3.09947 -2.5 -1.30419
      vertex -3.14332 -2.5 -1.50038
    endloop
  endfacet
  facet normal 0.891008 0 -0.453988
    outer loop
      vertex -2.80418 -2.5 -0.558388
      vertex -2.89545 2.5 -0.737506
      vertex -2.80418 2.5 -0.558388
    endloop
  endfacet
  facet normal 0.891008 0 -0.453988
    outer loop
      vertex -2.89545 2.5 -0.737506
      vertex -2.80418 -2.5 -0.558388
      vertex -2.89545 -2.5 -0.737506
    endloop
  endfacet
  facet normal 0.917753 0 -0.397151
    outer loop
      vertex -2.89545 -2.5 -0.737506
      vertex -2.97528 2.5 -0.922001
      vertex -2.89545 2.5 -0.737506
    endloop
  endfacet
  facet normal 0.917753 0 -0.397151
    outer loop
      vertex -2.97528 2.5 -0.922001
      vertex -2.89545 -2.5 -0.737506
      vertex -2.97528 -2.5 -0.922001
    endloop
  endfacet
endsolid OpenSCAD_Model
