solid OpenSCAD_Model
  facet normal -1 0 0
    outer loop
      vertex -5 -2.5 -2.5
      vertex -5 2.5 2.5
      vertex -5 2.5 -2.5
    endloop
  endfacet
  facet normal -1 -0 0
    outer loop
      vertex -5 2.5 2.5
      vertex -5 -2.5 -2.5
      vertex -5 -2.5 2.5
    endloop
  endfacet
  facet normal -0 0 1
    outer loop
      vertex -5 2.5 2.5
      vertex 5 -2.5 2.5
      vertex 5 2.5 2.5
    endloop
  endfacet
  facet normal 0 0 1
    outer loop
      vertex 5 -2.5 2.5
      vertex -5 2.5 2.5
      vertex -5 -2.5 2.5
    endloop
  endfacet
  facet normal 1 -0 0
    outer loop
      vertex 5 -2.5 2.5
      vertex 5 2.5 -2.5
      vertex 5 2.5 2.5
    endloop
  endfacet
  facet normal 1 0 0
    outer loop
      vertex 5 2.5 -2.5
      vertex 5 -2.5 2.5
      vertex 5 -2.5 -2.5
    endloop
  endfacet
  facet normal 0 1 0
    outer loop
      vertex 5 2.5 2.5
      vertex 0 2.5 1.3
      vertex -5 2.5 2.5
    endloop
  endfacet
  facet normal 0 1 0
    outer loop
      vertex 5 2.5 2.5
      vertex 0.213488 2.5 1.29329
      vertex 0 2.5 1.3
    endloop
  endfacet
  facet normal 0 1 0
    outer loop
      vertex 5 2.5 2.5
      vertex 0.426132 2.5 1.27319
      vertex 0.213488 2.5 1.29329
    endloop
  endfacet
  facet normal 0 1 0
    outer loop
      vertex 5 2.5 2.5
      vertex 0.637096 2.5 1.23978
      vertex 0.426132 2.5 1.27319
    endloop
  endfacet
  facet normal 0 1 0
    outer loop
      vertex 5 2.5 2.5
      vertex 0.845545 2.5 1.19318
      vertex 0.637096 2.5 1.23978
    endloop
  endfacet
  facet normal 0 1 0
    outer loop
      vertex 5 2.5 2.5
      vertex 1.05066 2.5 1.13359
      vertex 0.845545 2.5 1.19318
    endloop
  endfacet
  facet normal 0 1 0
    outer loop
      vertex 5 2.5 2.5
      vertex 1.25162 2.5 1.06124
      vertex 1.05066 2.5 1.13359
    endloop
  endfacet
  facet normal 0 1 0
    outer loop
      vertex 5 2.5 2.5
      vertex 1.44765 2.5 0.976412
      vertex 1.25162 2.5 1.06124
    endloop
  endfacet
  facet normal 0 1 0
    outer loop
      vertex 5 2.5 2.5
      vertex 1.63796 2.5 0.879442
      vertex 1.44765 2.5 0.976412
    endloop
  endfacet
  facet normal 0 1 0
    outer loop
      vertex 5 2.5 2.5
      vertex 1.82181 2.5 0.770715
      vertex 1.63796 2.5 0.879442
    endloop
  endfacet
  facet normal 0 1 0
    outer loop
      vertex 5 2.5 2.5
      vertex 1.99847 2.5 0.650658
      vertex 1.82181 2.5 0.770715
    endloop
  endfacet
  facet normal 0 1 0
    outer loop
      vertex 5 2.5 2.5
      vertex 2.16724 2.5 0.519745
      vertex 1.99847 2.5 0.650658
    endloop
  endfacet
  facet normal 0 1 0
    outer loop
      vertex 5 2.5 2.5
      vertex 2.32746 2.5 0.378493
      vertex 2.16724 2.5 0.519745
    endloop
  endfacet
  facet normal 0 1 0
    outer loop
      vertex 5 2.5 2.5
      vertex 2.47849 2.5 0.22746
      vertex 2.32746 2.5 0.378493
    endloop
  endfacet
  facet normal 0 1 0
    outer loop
      vertex 5 2.5 2.5
      vertex 2.61974 2.5 0.0672407
      vertex 2.47849 2.5 0.22746
    endloop
  endfacet
  facet normal 0 1 0
    outer loop
      vertex 5 2.5 2.5
      vertex 2.75066 2.5 -0.10153
      vertex 2.61974 2.5 0.0672407
    endloop
  endfacet
  facet normal 0 1 0
    outer loop
      vertex 5 2.5 2.5
      vertex 2.87071 2.5 -0.278189
      vertex 2.75066 2.5 -0.10153
    endloop
  endfacet
  facet normal 0 1 0
    outer loop
      vertex 5 2.5 2.5
      vertex 2.97944 2.5 -0.462037
      vertex 2.87071 2.5 -0.278189
    endloop
  endfacet
  facet normal 0 1 0
    outer loop
      vertex 5 2.5 2.5
      vertex 3.07641 2.5 -0.652349
      vertex 2.97944 2.5 -0.462037
    endloop
  endfacet
  facet normal 0 1 0
    outer loop
      vertex 5 2.5 2.5
      vertex 3.16124 2.5 -0.848376
      vertex 3.07641 2.5 -0.652349
    endloop
  endfacet
  facet normal 0 1 -0
    outer loop
      vertex 5 2.5 -2.5
      vertex 3.16124 2.5 -0.848376
      vertex 5 2.5 2.5
    endloop
  endfacet
  facet normal 0 1 0
    outer loop
      vertex 3.16124 2.5 -0.848376
      vertex 5 2.5 -2.5
      vertex 3.23359 2.5 -1.04934
    endloop
  endfacet
  facet normal 0 1 0
    outer loop
      vertex 3.23359 2.5 -1.04934
      vertex 5 2.5 -2.5
      vertex 3.29318 2.5 -1.25445
    endloop
  endfacet
  facet normal 0 1 0
    outer loop
      vertex 3.29318 2.5 -1.25445
      vertex 5 2.5 -2.5
      vertex 3.33978 2.5 -1.4629
    endloop
  endfacet
  facet normal 0 1 0
    outer loop
      vertex 3.33978 2.5 -1.4629
      vertex 5 2.5 -2.5
      vertex 3.37319 2.5 -1.67387
    endloop
  endfacet
  facet normal 0 1 0
    outer loop
      vertex 3.37319 2.5 -1.67387
      vertex 5 2.5 -2.5
      vertex 3.39329 2.5 -1.88651
    endloop
  endfacet
  facet normal 0 1 0
    outer loop
      vertex 3.39329 2.5 -1.88651
      vertex 5 2.5 -2.5
      vertex 3.4 2.5 -2.1
    endloop
  endfacet
  facet normal 0 1 0
    outer loop
      vertex 3.4 2.5 -2.1
      vertex 5 2.5 -2.5
      vertex 3.39329 2.5 -2.31349
    endloop
  endfacet
  facet normal 0 1 0
    outer loop
      vertex 3.39329 2.5 -2.31349
      vertex 5 2.5 -2.5
      vertex 3.37566 2.5 -2.5
    endloop
  endfacet
  facet normal 0 1 -0
    outer loop
      vertex -0.213488 2.5 1.29329
      vertex -5 2.5 2.5
      vertex 0 2.5 1.3
    endloop
  endfacet
  facet normal 0 1 -0
    outer loop
      vertex -0.426132 2.5 1.27319
      vertex -5 2.5 2.5
      vertex -0.213488 2.5 1.29329
    endloop
  endfacet
  facet normal 0 1 -0
    outer loop
      vertex -0.637096 2.5 1.23978
      vertex -5 2.5 2.5
      vertex -0.426132 2.5 1.27319
    endloop
  endfacet
  facet normal 0 1 -0
    outer loop
      vertex -0.845545 2.5 1.19318
      vertex -5 2.5 2.5
      vertex -0.637096 2.5 1.23978
    endloop
  endfacet
  facet normal 0 1 -0
    outer loop
      vertex -1.05066 2.5 1.13359
      vertex -5 2.5 2.5
      vertex -0.845545 2.5 1.19318
    endloop
  endfacet
  facet normal 0 1 -0
    outer loop
      vertex -1.25162 2.5 1.06124
      vertex -5 2.5 2.5
      vertex -1.05066 2.5 1.13359
    endloop
  endfacet
  facet normal 0 1 -0
    outer loop
      vertex -1.44765 2.5 0.976412
      vertex -5 2.5 2.5
      vertex -1.25162 2.5 1.06124
    endloop
  endfacet
  facet normal 0 1 -0
    outer loop
      vertex -1.63796 2.5 0.879442
      vertex -5 2.5 2.5
      vertex -1.44765 2.5 0.976412
    endloop
  endfacet
  facet normal 0 1 -0
    outer loop
      vertex -1.82181 2.5 0.770715
      vertex -5 2.5 2.5
      vertex -1.63796 2.5 0.879442
    endloop
  endfacet
  facet normal 0 1 -0
    outer loop
      vertex -1.99847 2.5 0.650658
      vertex -5 2.5 2.5
      vertex -1.82181 2.5 0.770715
    endloop
  endfacet
  facet normal 0 1 -0
    outer loop
      vertex -2.16724 2.5 0.519745
      vertex -5 2.5 2.5
      vertex -1.99847 2.5 0.650658
    endloop
  endfacet
  facet normal 0 1 -0
    outer loop
      vertex -2.32746 2.5 0.378493
      vertex -5 2.5 2.5
      vertex -2.16724 2.5 0.519745
    endloop
  endfacet
  facet normal 0 1 -0
    outer loop
      vertex -2.47849 2.5 0.22746
      vertex -5 2.5 2.5
      vertex -2.32746 2.5 0.378493
    endloop
  endfacet
  facet normal 0 1 -0
    outer loop
      vertex -2.61974 2.5 0.0672407
      vertex -5 2.5 2.5
      vertex -2.47849 2.5 0.22746
    endloop
  endfacet
  facet normal 0 1 -0
    outer loop
      vertex -2.75066 2.5 -0.10153
      vertex -5 2.5 2.5
      vertex -2.61974 2.5 0.0672407
    endloop
  endfacet
  facet normal 0 1 -0
    outer loop
      vertex -2.87071 2.5 -0.278189
      vertex -5 2.5 2.5
      vertex -2.75066 2.5 -0.10153
    endloop
  endfacet
  facet normal 0 1 -0
    outer loop
      vertex -2.97944 2.5 -0.462037
      vertex -5 2.5 2.5
      vertex -2.87071 2.5 -0.278189
    endloop
  endfacet
  facet normal 0 1 -0
    outer loop
      vertex -3.07641 2.5 -0.652349
      vertex -5 2.5 2.5
      vertex -2.97944 2.5 -0.462037
    endloop
  endfacet
  facet normal 0 1 -0
    outer loop
      vertex -3.16124 2.5 -0.848376
      vertex -5 2.5 2.5
      vertex -3.07641 2.5 -0.652349
    endloop
  endfacet
  facet normal 0 1 0
    outer loop
      vertex -5 2.5 -2.5
      vertex -3.16124 2.5 -0.848376
      vertex -3.23359 2.5 -1.04934
    endloop
  endfacet
  facet normal 0 1 0
    outer loop
      vertex -5 2.5 -2.5
      vertex -3.23359 2.5 -1.04934
      vertex -3.29318 2.5 -1.25445
    endloop
  endfacet
  facet normal 0 1 0
    outer loop
      vertex -5 2.5 -2.5
      vertex -3.29318 2.5 -1.25445
      vertex -3.33978 2.5 -1.4629
    endloop
  endfacet
  facet normal 0 1 0
    outer loop
      vertex -5 2.5 -2.5
      vertex -3.33978 2.5 -1.4629
      vertex -3.37319 2.5 -1.67387
    endloop
  endfacet
  facet normal 0 1 0
    outer loop
      vertex -5 2.5 -2.5
      vertex -3.37319 2.5 -1.67387
      vertex -3.39329 2.5 -1.88651
    endloop
  endfacet
  facet normal 0 1 0
    outer loop
      vertex -5 2.5 -2.5
      vertex -3.39329 2.5 -1.88651
      vertex -3.4 2.5 -2.1
    endloop
  endfacet
  facet normal 0 1 0
    outer loop
      vertex -5 2.5 -2.5
      vertex -3.4 2.5 -2.1
      vertex -3.39329 2.5 -2.31349
    endloop
  endfacet
  facet normal 0 1 0
    outer loop
      vertex -5 2.5 -2.5
      vertex -3.39329 2.5 -2.31349
      vertex -3.37566 2.5 -2.5
    endloop
  endfacet
  facet normal 0 1 0
    outer loop
      vertex -3.16124 2.5 -0.848376
      vertex -5 2.5 -2.5
      vertex -5 2.5 2.5
    endloop
  endfacet
  facet normal 0 0 -1
    outer loop
      vertex -5 -2.5 -2.5
      vertex -3.37566 2.5 -2.5
      vertex -3.37566 -2.5 -2.5
    endloop
  endfacet
  facet normal -0 0 -1
    outer loop
      vertex -3.37566 2.5 -2.5
      vertex -5 -2.5 -2.5
      vertex -5 2.5 -2.5
    endloop
  endfacet
  facet normal 0 0 -1
    outer loop
      vertex 3.37566 -2.5 -2.5
      vertex 5 2.5 -2.5
      vertex 5 -2.5 -2.5
    endloop
  endfacet
  facet normal -0 0 -1
    outer loop
      vertex 5 2.5 -2.5
      vertex 3.37566 -2.5 -2.5
      vertex 3.37566 2.5 -2.5
    endloop
  endfacet
  facet normal 0 -1 0
    outer loop
      vertex -5 -2.5 2.5
      vertex 0 -2.5 1.3
      vertex 5 -2.5 2.5
    endloop
  endfacet
  facet normal 0 -1 0
    outer loop
      vertex -5 -2.5 2.5
      vertex -0.213488 -2.5 1.29329
      vertex 0 -2.5 1.3
    endloop
  endfacet
  facet normal 0 -1 0
    outer loop
      vertex -5 -2.5 2.5
      vertex -0.426132 -2.5 1.27319
      vertex -0.213488 -2.5 1.29329
    endloop
  endfacet
  facet normal 0 -1 0
    outer loop
      vertex -5 -2.5 2.5
      vertex -0.637096 -2.5 1.23978
      vertex -0.426132 -2.5 1.27319
    endloop
  endfacet
  facet normal 0 -1 0
    outer loop
      vertex -5 -2.5 2.5
      vertex -0.845545 -2.5 1.19318
      vertex -0.637096 -2.5 1.23978
    endloop
  endfacet
  facet normal 0 -1 0
    outer loop
      vertex -5 -2.5 2.5
      vertex -1.05066 -2.5 1.13359
      vertex -0.845545 -2.5 1.19318
    endloop
  endfacet
  facet normal 0 -1 0
    outer loop
      vertex -5 -2.5 2.5
      vertex -1.25162 -2.5 1.06124
      vertex -1.05066 -2.5 1.13359
    endloop
  endfacet
  facet normal 0 -1 0
    outer loop
      vertex -5 -2.5 2.5
      vertex -1.44765 -2.5 0.976412
      vertex -1.25162 -2.5 1.06124
    endloop
  endfacet
  facet normal 0 -1 0
    outer loop
      vertex -5 -2.5 2.5
      vertex -1.63796 -2.5 0.879442
      vertex -1.44765 -2.5 0.976412
    endloop
  endfacet
  facet normal 0 -1 0
    outer loop
      vertex -5 -2.5 2.5
      vertex -1.82181 -2.5 0.770715
      vertex -1.63796 -2.5 0.879442
    endloop
  endfacet
  facet normal 0 -1 0
    outer loop
      vertex -5 -2.5 2.5
      vertex -1.99847 -2.5 0.650658
      vertex -1.82181 -2.5 0.770715
    endloop
  endfacet
  facet normal 0 -1 0
    outer loop
      vertex -5 -2.5 2.5
      vertex -2.16724 -2.5 0.519745
      vertex -1.99847 -2.5 0.650658
    endloop
  endfacet
  facet normal 0 -1 0
    outer loop
      vertex -5 -2.5 2.5
      vertex -2.32746 -2.5 0.378493
      vertex -2.16724 -2.5 0.519745
    endloop
  endfacet
  facet normal 0 -1 0
    outer loop
      vertex -5 -2.5 2.5
      vertex -2.47849 -2.5 0.22746
      vertex -2.32746 -2.5 0.378493
    endloop
  endfacet
  facet normal 0 -1 0
    outer loop
      vertex -5 -2.5 2.5
      vertex -2.61974 -2.5 0.0672407
      vertex -2.47849 -2.5 0.22746
    endloop
  endfacet
  facet normal 0 -1 0
    outer loop
      vertex -5 -2.5 2.5
      vertex -2.75066 -2.5 -0.10153
      vertex -2.61974 -2.5 0.0672407
    endloop
  endfacet
  facet normal 0 -1 0
    outer loop
      vertex -5 -2.5 2.5
      vertex -2.87071 -2.5 -0.278189
      vertex -2.75066 -2.5 -0.10153
    endloop
  endfacet
  facet normal 0 -1 0
    outer loop
      vertex -5 -2.5 2.5
      vertex -2.97944 -2.5 -0.462037
      vertex -2.87071 -2.5 -0.278189
    endloop
  endfacet
  facet normal 0 -1 0
    outer loop
      vertex -5 -2.5 2.5
      vertex -3.07641 -2.5 -0.652349
      vertex -2.97944 -2.5 -0.462037
    endloop
  endfacet
  facet normal 0 -1 0
    outer loop
      vertex -5 -2.5 2.5
      vertex -3.16124 -2.5 -0.848376
      vertex -3.07641 -2.5 -0.652349
    endloop
  endfacet
  facet normal 0 -1 0
    outer loop
      vertex -5 -2.5 -2.5
      vertex -3.16124 -2.5 -0.848376
      vertex -5 -2.5 2.5
    endloop
  endfacet
  facet normal 0 -1 0
    outer loop
      vertex -3.16124 -2.5 -0.848376
      vertex -5 -2.5 -2.5
      vertex -3.23359 -2.5 -1.04934
    endloop
  endfacet
  facet normal 0 -1 0
    outer loop
      vertex -3.23359 -2.5 -1.04934
      vertex -5 -2.5 -2.5
      vertex -3.29318 -2.5 -1.25445
    endloop
  endfacet
  facet normal 0 -1 0
    outer loop
      vertex -3.29318 -2.5 -1.25445
      vertex -5 -2.5 -2.5
      vertex -3.33978 -2.5 -1.4629
    endloop
  endfacet
  facet normal 0 -1 0
    outer loop
      vertex -3.33978 -2.5 -1.4629
      vertex -5 -2.5 -2.5
      vertex -3.37319 -2.5 -1.67387
    endloop
  endfacet
  facet normal 0 -1 0
    outer loop
      vertex -3.37319 -2.5 -1.67387
      vertex -5 -2.5 -2.5
      vertex -3.39329 -2.5 -1.88651
    endloop
  endfacet
  facet normal 0 -1 0
    outer loop
      vertex -3.39329 -2.5 -1.88651
      vertex -5 -2.5 -2.5
      vertex -3.4 -2.5 -2.1
    endloop
  endfacet
  facet normal 0 -1 -0
    outer loop
      vertex -3.4 -2.5 -2.1
      vertex -5 -2.5 -2.5
      vertex -3.39329 -2.5 -2.31349
    endloop
  endfacet
  facet normal 0 -1 -0
    outer loop
      vertex -3.39329 -2.5 -2.31349
      vertex -5 -2.5 -2.5
      vertex -3.37566 -2.5 -2.5
    endloop
  endfacet
  facet normal 0 -1 0
    outer loop
      vertex 0.213488 -2.5 1.29329
      vertex 5 -2.5 2.5
      vertex 0 -2.5 1.3
    endloop
  endfacet
  facet normal 0 -1 0
    outer loop
      vertex 0.426132 -2.5 1.27319
      vertex 5 -2.5 2.5
      vertex 0.213488 -2.5 1.29329
    endloop
  endfacet
  facet normal 0 -1 0
    outer loop
      vertex 0.637096 -2.5 1.23978
      vertex 5 -2.5 2.5
      vertex 0.426132 -2.5 1.27319
    endloop
  endfacet
  facet normal 0 -1 0
    outer loop
      vertex 0.845545 -2.5 1.19318
      vertex 5 -2.5 2.5
      vertex 0.637096 -2.5 1.23978
    endloop
  endfacet
  facet normal 0 -1 0
    outer loop
      vertex 1.05066 -2.5 1.13359
      vertex 5 -2.5 2.5
      vertex 0.845545 -2.5 1.19318
    endloop
  endfacet
  facet normal 0 -1 0
    outer loop
      vertex 1.25162 -2.5 1.06124
      vertex 5 -2.5 2.5
      vertex 1.05066 -2.5 1.13359
    endloop
  endfacet
  facet normal 0 -1 0
    outer loop
      vertex 1.44765 -2.5 0.976412
      vertex 5 -2.5 2.5
      vertex 1.25162 -2.5 1.06124
    endloop
  endfacet
  facet normal 0 -1 0
    outer loop
      vertex 1.63796 -2.5 0.879442
      vertex 5 -2.5 2.5
      vertex 1.44765 -2.5 0.976412
    endloop
  endfacet
  facet normal 0 -1 0
    outer loop
      vertex 1.82181 -2.5 0.770715
      vertex 5 -2.5 2.5
      vertex 1.63796 -2.5 0.879442
    endloop
  endfacet
  facet normal 0 -1 0
    outer loop
      vertex 1.99847 -2.5 0.650658
      vertex 5 -2.5 2.5
      vertex 1.82181 -2.5 0.770715
    endloop
  endfacet
  facet normal 0 -1 0
    outer loop
      vertex 2.16724 -2.5 0.519745
      vertex 5 -2.5 2.5
      vertex 1.99847 -2.5 0.650658
    endloop
  endfacet
  facet normal 0 -1 0
    outer loop
      vertex 2.32746 -2.5 0.378493
      vertex 5 -2.5 2.5
      vertex 2.16724 -2.5 0.519745
    endloop
  endfacet
  facet normal 0 -1 0
    outer loop
      vertex 2.47849 -2.5 0.22746
      vertex 5 -2.5 2.5
      vertex 2.32746 -2.5 0.378493
    endloop
  endfacet
  facet normal 0 -1 0
    outer loop
      vertex 2.61974 -2.5 0.0672407
      vertex 5 -2.5 2.5
      vertex 2.47849 -2.5 0.22746
    endloop
  endfacet
  facet normal 0 -1 0
    outer loop
      vertex 2.75066 -2.5 -0.10153
      vertex 5 -2.5 2.5
      vertex 2.61974 -2.5 0.0672407
    endloop
  endfacet
  facet normal 0 -1 0
    outer loop
      vertex 2.87071 -2.5 -0.278189
      vertex 5 -2.5 2.5
      vertex 2.75066 -2.5 -0.10153
    endloop
  endfacet
  facet normal 0 -1 0
    outer loop
      vertex 2.97944 -2.5 -0.462037
      vertex 5 -2.5 2.5
      vertex 2.87071 -2.5 -0.278189
    endloop
  endfacet
  facet normal 0 -1 0
    outer loop
      vertex 3.07641 -2.5 -0.652349
      vertex 5 -2.5 2.5
      vertex 2.97944 -2.5 -0.462037
    endloop
  endfacet
  facet normal 0 -1 0
    outer loop
      vertex 3.16124 -2.5 -0.848376
      vertex 5 -2.5 2.5
      vertex 3.07641 -2.5 -0.652349
    endloop
  endfacet
  facet normal 0 -1 0
    outer loop
      vertex 5 -2.5 -2.5
      vertex 3.16124 -2.5 -0.848376
      vertex 3.23359 -2.5 -1.04934
    endloop
  endfacet
  facet normal 0 -1 0
    outer loop
      vertex 5 -2.5 -2.5
      vertex 3.23359 -2.5 -1.04934
      vertex 3.29318 -2.5 -1.25445
    endloop
  endfacet
  facet normal 0 -1 0
    outer loop
      vertex 5 -2.5 -2.5
      vertex 3.29318 -2.5 -1.25445
      vertex 3.33978 -2.5 -1.4629
    endloop
  endfacet
  facet normal 0 -1 0
    outer loop
      vertex 5 -2.5 -2.5
      vertex 3.33978 -2.5 -1.4629
      vertex 3.37319 -2.5 -1.67387
    endloop
  endfacet
  facet normal 0 -1 0
    outer loop
      vertex 5 -2.5 -2.5
      vertex 3.37319 -2.5 -1.67387
      vertex 3.39329 -2.5 -1.88651
    endloop
  endfacet
  facet normal 0 -1 0
    outer loop
      vertex 5 -2.5 -2.5
      vertex 3.39329 -2.5 -1.88651
      vertex 3.4 -2.5 -2.1
    endloop
  endfacet
  facet normal 0 -1 0
    outer loop
      vertex 5 -2.5 -2.5
      vertex 3.4 -2.5 -2.1
      vertex 3.39329 -2.5 -2.31349
    endloop
  endfacet
  facet normal 0 -1 0
    outer loop
      vertex 5 -2.5 -2.5
      vertex 3.39329 -2.5 -2.31349
      vertex 3.37566 -2.5 -2.5
    endloop
  endfacet
  facet normal 0 -1 0
    outer loop
      vertex 3.16124 -2.5 -0.848376
      vertex 5 -2.5 -2.5
      vertex 5 -2.5 2.5
    endloop
  endfacet
  facet normal -0.999507 0 -0.0314107
    outer loop
      vertex 3.4 -2.5 -2.1
      vertex 3.39329 2.5 -1.88651
      vertex 3.4 2.5 -2.1
    endloop
  endfacet
  facet normal -0.999507 -0 -0.0314107
    outer loop
      vertex 3.39329 2.5 -1.88651
      vertex 3.4 -2.5 -2.1
      vertex 3.39329 -2.5 -1.88651
    endloop
  endfacet
  facet normal -0.995562 0 -0.0941068
    outer loop
      vertex 3.39329 -2.5 -1.88651
      vertex 3.37319 2.5 -1.67387
      vertex 3.39329 2.5 -1.88651
    endloop
  endfacet
  facet normal -0.995562 -0 -0.0941068
    outer loop
      vertex 3.37319 2.5 -1.67387
      vertex 3.39329 -2.5 -1.88651
      vertex 3.37319 -2.5 -1.67387
    endloop
  endfacet
  facet normal 0.999507 -0 0.0314107
    outer loop
      vertex -3.4 -2.5 -2.1
      vertex -3.39329 2.5 -2.31349
      vertex -3.4 2.5 -2.1
    endloop
  endfacet
  facet normal 0.999507 0 0.0314107
    outer loop
      vertex -3.39329 2.5 -2.31349
      vertex -3.4 -2.5 -2.1
      vertex -3.39329 -2.5 -2.31349
    endloop
  endfacet
  facet normal 0.0314107 0 -0.999507
    outer loop
      vertex -0.213488 -2.5 1.29329
      vertex 0 2.5 1.3
      vertex 0 -2.5 1.3
    endloop
  endfacet
  facet normal 0.0314107 0 -0.999507
    outer loop
      vertex 0 2.5 1.3
      vertex -0.213488 -2.5 1.29329
      vertex -0.213488 2.5 1.29329
    endloop
  endfacet
  facet normal -0.661312 0 -0.750111
    outer loop
      vertex 2.16724 -2.5 0.519745
      vertex 2.32746 2.5 0.378493
      vertex 2.32746 -2.5 0.378493
    endloop
  endfacet
  facet normal -0.661312 0 -0.750111
    outer loop
      vertex 2.32746 2.5 0.378493
      vertex 2.16724 -2.5 0.519745
      vertex 2.16724 2.5 0.519745
    endloop
  endfacet
  facet normal 0.999507 0 -0.0314107
    outer loop
      vertex -3.39329 -2.5 -1.88651
      vertex -3.4 2.5 -2.1
      vertex -3.39329 2.5 -1.88651
    endloop
  endfacet
  facet normal 0.999507 0 -0.0314107
    outer loop
      vertex -3.4 2.5 -2.1
      vertex -3.39329 -2.5 -1.88651
      vertex -3.4 -2.5 -2.1
    endloop
  endfacet
  facet normal -0.891007 0 -0.453989
    outer loop
      vertex 3.07641 -2.5 -0.652349
      vertex 2.97944 2.5 -0.462037
      vertex 3.07641 2.5 -0.652349
    endloop
  endfacet
  facet normal -0.891007 -0 -0.453989
    outer loop
      vertex 2.97944 2.5 -0.462037
      vertex 3.07641 -2.5 -0.652349
      vertex 2.97944 -2.5 -0.462037
    endloop
  endfacet
  facet normal -0.338739 0 -0.94088
    outer loop
      vertex 1.05066 -2.5 1.13359
      vertex 1.25162 2.5 1.06124
      vertex 1.25162 -2.5 1.06124
    endloop
  endfacet
  facet normal -0.338739 0 -0.94088
    outer loop
      vertex 1.25162 2.5 1.06124
      vertex 1.05066 -2.5 1.13359
      vertex 1.05066 2.5 1.13359
    endloop
  endfacet
  facet normal -0.509041 0 -0.860742
    outer loop
      vertex 1.63796 -2.5 0.879442
      vertex 1.82181 2.5 0.770715
      vertex 1.82181 -2.5 0.770715
    endloop
  endfacet
  facet normal -0.509041 0 -0.860742
    outer loop
      vertex 1.82181 2.5 0.770715
      vertex 1.63796 -2.5 0.879442
      vertex 1.63796 2.5 0.879442
    endloop
  endfacet
  facet normal 0.707107 0 -0.707107
    outer loop
      vertex -2.32746 -2.5 0.378493
      vertex -2.47849 2.5 0.22746
      vertex -2.32746 2.5 0.378493
    endloop
  endfacet
  facet normal 0.707107 0 -0.707107
    outer loop
      vertex -2.47849 2.5 0.22746
      vertex -2.32746 -2.5 0.378493
      vertex -2.47849 -2.5 0.22746
    endloop
  endfacet
  facet normal -0.960294 0 -0.278991
    outer loop
      vertex 3.29318 -2.5 -1.25445
      vertex 3.23359 2.5 -1.04934
      vertex 3.29318 2.5 -1.25445
    endloop
  endfacet
  facet normal -0.960294 -0 -0.278991
    outer loop
      vertex 3.23359 2.5 -1.04934
      vertex 3.29318 -2.5 -1.25445
      vertex 3.23359 -2.5 -1.04934
    endloop
  endfacet
  facet normal -0.790153 0 -0.612909
    outer loop
      vertex 2.75066 -2.5 -0.10153
      vertex 2.61974 2.5 0.0672407
      vertex 2.75066 2.5 -0.10153
    endloop
  endfacet
  facet normal -0.790153 -0 -0.612909
    outer loop
      vertex 2.61974 2.5 0.0672407
      vertex 2.75066 -2.5 -0.10153
      vertex 2.61974 -2.5 0.0672407
    endloop
  endfacet
  facet normal -0.827081 0 -0.562083
    outer loop
      vertex 2.87071 -2.5 -0.278189
      vertex 2.75066 2.5 -0.10153
      vertex 2.87071 2.5 -0.278189
    endloop
  endfacet
  facet normal -0.827081 -0 -0.562083
    outer loop
      vertex 2.75066 2.5 -0.10153
      vertex 2.87071 -2.5 -0.278189
      vertex 2.75066 -2.5 -0.10153
    endloop
  endfacet
  facet normal -0.156432 0 -0.987689
    outer loop
      vertex 0.426132 -2.5 1.27319
      vertex 0.637096 2.5 1.23978
      vertex 0.637096 -2.5 1.23978
    endloop
  endfacet
  facet normal -0.156432 0 -0.987689
    outer loop
      vertex 0.637096 2.5 1.23978
      vertex 0.426132 -2.5 1.27319
      vertex 0.426132 2.5 1.27319
    endloop
  endfacet
  facet normal -0.27899 0 -0.960294
    outer loop
      vertex 0.845545 -2.5 1.19318
      vertex 1.05066 2.5 1.13359
      vertex 1.05066 -2.5 1.13359
    endloop
  endfacet
  facet normal -0.27899 0 -0.960294
    outer loop
      vertex 1.05066 2.5 1.13359
      vertex 0.845545 -2.5 1.19318
      vertex 0.845545 2.5 1.19318
    endloop
  endfacet
  facet normal -0.562083 0 -0.827081
    outer loop
      vertex 1.82181 -2.5 0.770715
      vertex 1.99847 2.5 0.650658
      vertex 1.99847 -2.5 0.650658
    endloop
  endfacet
  facet normal -0.562083 0 -0.827081
    outer loop
      vertex 1.99847 2.5 0.650658
      vertex 1.82181 -2.5 0.770715
      vertex 1.82181 2.5 0.770715
    endloop
  endfacet
  facet normal 0.987688 0 -0.156437
    outer loop
      vertex -3.33978 -2.5 -1.4629
      vertex -3.37319 2.5 -1.67387
      vertex -3.33978 2.5 -1.4629
    endloop
  endfacet
  facet normal 0.987688 0 -0.156437
    outer loop
      vertex -3.37319 2.5 -1.67387
      vertex -3.33978 -2.5 -1.4629
      vertex -3.37319 -2.5 -1.67387
    endloop
  endfacet
  facet normal 0.27899 0 -0.960294
    outer loop
      vertex -1.05066 -2.5 1.13359
      vertex -0.845545 2.5 1.19318
      vertex -0.845545 -2.5 1.19318
    endloop
  endfacet
  facet normal 0.27899 0 -0.960294
    outer loop
      vertex -0.845545 2.5 1.19318
      vertex -1.05066 -2.5 1.13359
      vertex -1.05066 2.5 1.13359
    endloop
  endfacet
  facet normal -0.987688 0 -0.156437
    outer loop
      vertex 3.37319 -2.5 -1.67387
      vertex 3.33978 2.5 -1.4629
      vertex 3.37319 2.5 -1.67387
    endloop
  endfacet
  facet normal -0.987688 -0 -0.156437
    outer loop
      vertex 3.33978 2.5 -1.4629
      vertex 3.37319 -2.5 -1.67387
      vertex 3.33978 -2.5 -1.4629
    endloop
  endfacet
  facet normal -0.94088 0 -0.338739
    outer loop
      vertex 3.23359 -2.5 -1.04934
      vertex 3.16124 2.5 -0.848376
      vertex 3.23359 2.5 -1.04934
    endloop
  endfacet
  facet normal -0.94088 -0 -0.338739
    outer loop
      vertex 3.16124 2.5 -0.848376
      vertex 3.23359 -2.5 -1.04934
      vertex 3.16124 -2.5 -0.848376
    endloop
  endfacet
  facet normal -0.750113 0 -0.66131
    outer loop
      vertex 2.61974 -2.5 0.0672407
      vertex 2.47849 2.5 0.22746
      vertex 2.61974 2.5 0.0672407
    endloop
  endfacet
  facet normal -0.750113 -0 -0.66131
    outer loop
      vertex 2.47849 2.5 0.22746
      vertex 2.61974 -2.5 0.0672407
      vertex 2.47849 -2.5 0.22746
    endloop
  endfacet
  facet normal -0.86074 0 -0.509044
    outer loop
      vertex 2.97944 -2.5 -0.462037
      vertex 2.87071 2.5 -0.278189
      vertex 2.97944 2.5 -0.462037
    endloop
  endfacet
  facet normal -0.86074 -0 -0.509044
    outer loop
      vertex 2.87071 2.5 -0.278189
      vertex 2.97944 -2.5 -0.462037
      vertex 2.87071 -2.5 -0.278189
    endloop
  endfacet
  facet normal -0.218147 0 -0.975916
    outer loop
      vertex 0.637096 -2.5 1.23978
      vertex 0.845545 2.5 1.19318
      vertex 0.845545 -2.5 1.19318
    endloop
  endfacet
  facet normal -0.218147 0 -0.975916
    outer loop
      vertex 0.845545 2.5 1.19318
      vertex 0.637096 -2.5 1.23978
      vertex 0.637096 2.5 1.23978
    endloop
  endfacet
  facet normal -0.0941072 0 -0.995562
    outer loop
      vertex 0.213488 -2.5 1.29329
      vertex 0.426132 2.5 1.27319
      vertex 0.426132 -2.5 1.27319
    endloop
  endfacet
  facet normal -0.0941072 0 -0.995562
    outer loop
      vertex 0.426132 2.5 1.27319
      vertex 0.213488 -2.5 1.29329
      vertex 0.213488 2.5 1.29329
    endloop
  endfacet
  facet normal -0.0314107 0 -0.999507
    outer loop
      vertex 0 -2.5 1.3
      vertex 0.213488 2.5 1.29329
      vertex 0.213488 -2.5 1.29329
    endloop
  endfacet
  facet normal -0.0314107 0 -0.999507
    outer loop
      vertex 0.213488 2.5 1.29329
      vertex 0 -2.5 1.3
      vertex 0 2.5 1.3
    endloop
  endfacet
  facet normal -0.453991 0 -0.891006
    outer loop
      vertex 1.44765 -2.5 0.976412
      vertex 1.63796 2.5 0.879442
      vertex 1.63796 -2.5 0.879442
    endloop
  endfacet
  facet normal -0.453991 0 -0.891006
    outer loop
      vertex 1.63796 2.5 0.879442
      vertex 1.44765 -2.5 0.976412
      vertex 1.44765 2.5 0.976412
    endloop
  endfacet
  facet normal -0.612907 0 -0.790155
    outer loop
      vertex 1.99847 -2.5 0.650658
      vertex 2.16724 2.5 0.519745
      vertex 2.16724 -2.5 0.519745
    endloop
  endfacet
  facet normal -0.612907 0 -0.790155
    outer loop
      vertex 2.16724 2.5 0.519745
      vertex 1.99847 -2.5 0.650658
      vertex 1.99847 2.5 0.650658
    endloop
  endfacet
  facet normal 0.917755 0 -0.397148
    outer loop
      vertex -3.07641 -2.5 -0.652349
      vertex -3.16124 2.5 -0.848376
      vertex -3.07641 2.5 -0.652349
    endloop
  endfacet
  facet normal 0.917755 0 -0.397148
    outer loop
      vertex -3.16124 2.5 -0.848376
      vertex -3.07641 -2.5 -0.652349
      vertex -3.16124 -2.5 -0.848376
    endloop
  endfacet
  facet normal 0.750113 0 -0.66131
    outer loop
      vertex -2.47849 -2.5 0.22746
      vertex -2.61974 2.5 0.0672407
      vertex -2.47849 2.5 0.22746
    endloop
  endfacet
  facet normal 0.750113 0 -0.66131
    outer loop
      vertex -2.61974 2.5 0.0672407
      vertex -2.47849 -2.5 0.22746
      vertex -2.61974 -2.5 0.0672407
    endloop
  endfacet
  facet normal 0.612907 0 -0.790155
    outer loop
      vertex -2.16724 -2.5 0.519745
      vertex -1.99847 2.5 0.650658
      vertex -1.99847 -2.5 0.650658
    endloop
  endfacet
  facet normal 0.612907 0 -0.790155
    outer loop
      vertex -1.99847 2.5 0.650658
      vertex -2.16724 -2.5 0.519745
      vertex -2.16724 2.5 0.519745
    endloop
  endfacet
  facet normal 0.453991 0 -0.891006
    outer loop
      vertex -1.63796 -2.5 0.879442
      vertex -1.44765 2.5 0.976412
      vertex -1.44765 -2.5 0.976412
    endloop
  endfacet
  facet normal 0.453991 0 -0.891006
    outer loop
      vertex -1.44765 2.5 0.976412
      vertex -1.63796 -2.5 0.879442
      vertex -1.63796 2.5 0.879442
    endloop
  endfacet
  facet normal 0.218147 0 -0.975916
    outer loop
      vertex -0.845545 -2.5 1.19318
      vertex -0.637096 2.5 1.23978
      vertex -0.637096 -2.5 1.23978
    endloop
  endfacet
  facet normal 0.218147 0 -0.975916
    outer loop
      vertex -0.637096 2.5 1.23978
      vertex -0.845545 -2.5 1.19318
      vertex -0.845545 2.5 1.19318
    endloop
  endfacet
  facet normal -0.975917 0 -0.218142
    outer loop
      vertex 3.33978 -2.5 -1.4629
      vertex 3.29318 2.5 -1.25445
      vertex 3.33978 2.5 -1.4629
    endloop
  endfacet
  facet normal -0.975917 -0 -0.218142
    outer loop
      vertex 3.29318 2.5 -1.25445
      vertex 3.33978 -2.5 -1.4629
      vertex 3.29318 -2.5 -1.25445
    endloop
  endfacet
  facet normal -0.917755 0 -0.397148
    outer loop
      vertex 3.16124 -2.5 -0.848376
      vertex 3.07641 2.5 -0.652349
      vertex 3.16124 2.5 -0.848376
    endloop
  endfacet
  facet normal -0.917755 -0 -0.397148
    outer loop
      vertex 3.07641 2.5 -0.652349
      vertex 3.16124 -2.5 -0.848376
      vertex 3.07641 -2.5 -0.652349
    endloop
  endfacet
  facet normal -0.707107 0 -0.707107
    outer loop
      vertex 2.47849 -2.5 0.22746
      vertex 2.32746 2.5 0.378493
      vertex 2.47849 2.5 0.22746
    endloop
  endfacet
  facet normal -0.707107 -0 -0.707107
    outer loop
      vertex 2.32746 2.5 0.378493
      vertex 2.47849 -2.5 0.22746
      vertex 2.32746 -2.5 0.378493
    endloop
  endfacet
  facet normal -0.397146 0 -0.917756
    outer loop
      vertex 1.25162 -2.5 1.06124
      vertex 1.44765 2.5 0.976412
      vertex 1.44765 -2.5 0.976412
    endloop
  endfacet
  facet normal -0.397146 0 -0.917756
    outer loop
      vertex 1.44765 2.5 0.976412
      vertex 1.25162 -2.5 1.06124
      vertex 1.25162 2.5 1.06124
    endloop
  endfacet
  facet normal -0.995562 0 0.0941066
    outer loop
      vertex 3.37566 -2.5 -2.5
      vertex 3.39329 2.5 -2.31349
      vertex 3.37566 2.5 -2.5
    endloop
  endfacet
  facet normal -0.995562 0 0.0941066
    outer loop
      vertex 3.39329 2.5 -2.31349
      vertex 3.37566 -2.5 -2.5
      vertex 3.39329 -2.5 -2.31349
    endloop
  endfacet
  facet normal -0.999507 0 0.0314107
    outer loop
      vertex 3.39329 -2.5 -2.31349
      vertex 3.4 2.5 -2.1
      vertex 3.39329 2.5 -2.31349
    endloop
  endfacet
  facet normal -0.999507 0 0.0314107
    outer loop
      vertex 3.4 2.5 -2.1
      vertex 3.39329 -2.5 -2.31349
      vertex 3.4 -2.5 -2.1
    endloop
  endfacet
  facet normal 0.995562 0 -0.0941068
    outer loop
      vertex -3.37319 -2.5 -1.67387
      vertex -3.39329 2.5 -1.88651
      vertex -3.37319 2.5 -1.67387
    endloop
  endfacet
  facet normal 0.995562 0 -0.0941068
    outer loop
      vertex -3.39329 2.5 -1.88651
      vertex -3.37319 -2.5 -1.67387
      vertex -3.39329 -2.5 -1.88651
    endloop
  endfacet
  facet normal 0.975917 0 -0.218142
    outer loop
      vertex -3.29318 -2.5 -1.25445
      vertex -3.33978 2.5 -1.4629
      vertex -3.29318 2.5 -1.25445
    endloop
  endfacet
  facet normal 0.975917 0 -0.218142
    outer loop
      vertex -3.33978 2.5 -1.4629
      vertex -3.29318 -2.5 -1.25445
      vertex -3.33978 -2.5 -1.4629
    endloop
  endfacet
  facet normal 0.661312 0 -0.750111
    outer loop
      vertex -2.32746 -2.5 0.378493
      vertex -2.16724 2.5 0.519745
      vertex -2.16724 -2.5 0.519745
    endloop
  endfacet
  facet normal 0.661312 0 -0.750111
    outer loop
      vertex -2.16724 2.5 0.519745
      vertex -2.32746 -2.5 0.378493
      vertex -2.32746 2.5 0.378493
    endloop
  endfacet
  facet normal 0.509041 0 -0.860742
    outer loop
      vertex -1.82181 -2.5 0.770715
      vertex -1.63796 2.5 0.879442
      vertex -1.63796 -2.5 0.879442
    endloop
  endfacet
  facet normal 0.509041 0 -0.860742
    outer loop
      vertex -1.63796 2.5 0.879442
      vertex -1.82181 -2.5 0.770715
      vertex -1.82181 2.5 0.770715
    endloop
  endfacet
  facet normal 0.562083 0 -0.827081
    outer loop
      vertex -1.99847 -2.5 0.650658
      vertex -1.82181 2.5 0.770715
      vertex -1.82181 -2.5 0.770715
    endloop
  endfacet
  facet normal 0.562083 0 -0.827081
    outer loop
      vertex -1.82181 2.5 0.770715
      vertex -1.99847 -2.5 0.650658
      vertex -1.99847 2.5 0.650658
    endloop
  endfacet
  facet normal 0.156432 0 -0.987689
    outer loop
      vertex -0.637096 -2.5 1.23978
      vertex -0.426132 2.5 1.27319
      vertex -0.426132 -2.5 1.27319
    endloop
  endfacet
  facet normal 0.156432 0 -0.987689
    outer loop
      vertex -0.426132 2.5 1.27319
      vertex -0.637096 -2.5 1.23978
      vertex -0.637096 2.5 1.23978
    endloop
  endfacet
  facet normal 0.995562 -0 0.0941066
    outer loop
      vertex -3.39329 -2.5 -2.31349
      vertex -3.37566 2.5 -2.5
      vertex -3.39329 2.5 -2.31349
    endloop
  endfacet
  facet normal 0.995562 0 0.0941066
    outer loop
      vertex -3.37566 2.5 -2.5
      vertex -3.39329 -2.5 -2.31349
      vertex -3.37566 -2.5 -2.5
    endloop
  endfacet
  facet normal 0.790153 0 -0.612909
    outer loop
      vertex -2.61974 -2.5 0.0672407
      vertex -2.75066 2.5 -0.10153
      vertex -2.61974 2.5 0.0672407
    endloop
  endfacet
  facet normal 0.790153 0 -0.612909
    outer loop
      vertex -2.75066 2.5 -0.10153
      vertex -2.61974 -2.5 0.0672407
      vertex -2.75066 -2.5 -0.10153
    endloop
  endfacet
  facet normal 0.86074 0 -0.509044
    outer loop
      vertex -2.87071 -2.5 -0.278189
      vertex -2.97944 2.5 -0.462037
      vertex -2.87071 2.5 -0.278189
    endloop
  endfacet
  facet normal 0.86074 0 -0.509044
    outer loop
      vertex -2.97944 2.5 -0.462037
      vertex -2.87071 -2.5 -0.278189
      vertex -2.97944 -2.5 -0.462037
    endloop
  endfacet
  facet normal 0.891007 0 -0.453989
    outer loop
      vertex -2.97944 -2.5 -0.462037
      vertex -3.07641 2.5 -0.652349
      vertex -2.97944 2.5 -0.462037
    endloop
  endfacet
  facet normal 0.891007 0 -0.453989
    outer loop
      vertex -3.07641 2.5 -0.652349
      vertex -2.97944 -2.5 -0.462037
      vertex -3.07641 -2.5 -0.652349
    endloop
  endfacet
  facet normal 0.94088 0 -0.338739
    outer loop
      vertex -3.16124 -2.5 -0.848376
      vertex -3.23359 2.5 -1.04934
      vertex -3.16124 2.5 -0.848376
    endloop
  endfacet
  facet normal 0.94088 0 -0.338739
    outer loop
      vertex -3.23359 2.5 -1.04934
      vertex -3.16124 -2.5 -0.848376
      vertex -3.23359 -2.5 -1.04934
    endloop
  endfacet
  facet normal 0.960294 0 -0.278991
    outer loop
      vertex -3.23359 -2.5 -1.04934
      vertex -3.29318 2.5 -1.25445
      vertex -3.23359 2.5 -1.04934
    endloop
  endfacet
  facet normal 0.960294 0 -0.278991
    outer loop
      vertex -3.29318 2.5 -1.25445
      vertex -3.23359 -2.5 -1.04934
      vertex -3.29318 -2.5 -1.25445
    endloop
  endfacet
  facet normal 0.338739 0 -0.94088
    outer loop
      vertex -1.25162 -2.5 1.06124
      vertex -1.05066 2.5 1.13359
      vertex -1.05066 -2.5 1.13359
    endloop
  endfacet
  facet normal 0.338739 0 -0.94088
    outer loop
      vertex -1.05066 2.5 1.13359
      vertex -1.25162 -2.5 1.06124
      vertex -1.25162 2.5 1.06124
    endloop
  endfacet
  facet normal 0.397146 0 -0.917756
    outer loop
      vertex -1.44765 -2.5 0.976412
      vertex -1.25162 2.5 1.06124
      vertex -1.25162 -2.5 1.06124
    endloop
  endfacet
  facet normal 0.397146 0 -0.917756
    outer loop
      vertex -1.25162 2.5 1.06124
      vertex -1.44765 -2.5 0.976412
      vertex -1.44765 2.5 0.976412
    endloop
  endfacet
  facet normal 0.0941072 0 -0.995562
    outer loop
      vertex -0.426132 -2.5 1.27319
      vertex -0.213488 2.5 1.29329
      vertex -0.213488 -2.5 1.29329
    endloop
  endfacet
  facet normal 0.0941072 0 -0.995562
    outer loop
      vertex -0.213488 2.5 1.29329
      vertex -0.426132 -2.5 1.27319
      vertex -0.426132 2.5 1.27319
    endloop
  endfacet
  facet normal 0.827081 0 -0.562083
    outer loop
      vertex -2.75066 -2.5 -0.10153
      vertex -2.87071 2.5 -0.278189
      vertex -2.75066 2.5 -0.10153
    endloop
  endfacet
  facet normal 0.827081 0 -0.562083
    outer loop
      vertex -2.87071 2.5 -0.278189
      vertex -2.75066 -2.5 -0.10153
      vertex -2.87071 -2.5 -0.278189
    endloop
  endfacet
endsolid OpenSCAD_Model
