solid OpenSCAD_Model
  facet normal -1 0 0
    outer loop
      vertex -5 -2.5 -2.5
      vertex -5 2.5 2.5
      vertex -5 2.5 -2.5
    endloop
  endfacet
  facet normal -1 -0 0
    outer loop
      vertex -5 2.5 2.5
      vertex -5 -2.5 -2.5
      vertex -5 -2.5 2.5
    endloop
  endfacet
  facet normal -0 0 1
    outer loop
      vertex -5 2.5 2.5
      vertex 5 -2.5 2.5
      vertex 5 2.5 2.5
    endloop
  endfacet
  facet normal 0 0 1
    outer loop
      vertex 5 -2.5 2.5
      vertex -5 2.5 2.5
      vertex -5 -2.5 2.5
    endloop
  endfacet
  facet normal 1 -0 0
    outer loop
      vertex 5 -2.5 2.5
      vertex 5 2.5 -2.5
      vertex 5 2.5 2.5
    endloop
  endfacet
  facet normal 1 0 0
    outer loop
      vertex 5 2.5 -2.5
      vertex 5 -2.5 2.5
      vertex 5 -2.5 -2.5
    endloop
  endfacet
  facet normal 0 1 0
    outer loop
      vertex 5 2.5 2.5
      vertex 0 2.5 0.0999994
      vertex -5 2.5 2.5
    endloop
  endfacet
  facet normal 0 1 0
    outer loop
      vertex 5 2.5 2.5
      vertex 0.19465 2.5 0.0938826
      vertex 0 2.5 0.0999994
    endloop
  endfacet
  facet normal 0 1 0
    outer loop
      vertex 5 2.5 2.5
      vertex 0.388533 2.5 0.0755548
      vertex 0.19465 2.5 0.0938826
    endloop
  endfacet
  facet normal 0 1 0
    outer loop
      vertex 5 2.5 2.5
      vertex 0.580882 2.5 0.0450897
      vertex 0.388533 2.5 0.0755548
    endloop
  endfacet
  facet normal 0 1 0
    outer loop
      vertex 5 2.5 2.5
      vertex 0.770938 2.5 0.00260735
      vertex 0.580882 2.5 0.0450897
    endloop
  endfacet
  facet normal 0 1 0
    outer loop
      vertex 5 2.5 2.5
      vertex 0.957952 2.5 -0.0517244
      vertex 0.770938 2.5 0.00260735
    endloop
  endfacet
  facet normal 0 1 0
    outer loop
      vertex 5 2.5 2.5
      vertex 1.14119 2.5 -0.117692
      vertex 0.957952 2.5 -0.0517244
    endloop
  endfacet
  facet normal 0 1 0
    outer loop
      vertex 5 2.5 2.5
      vertex 1.31992 2.5 -0.195036
      vertex 1.14119 2.5 -0.117692
    endloop
  endfacet
  facet normal 0 1 0
    outer loop
      vertex 5 2.5 2.5
      vertex 1.49344 2.5 -0.283449
      vertex 1.31992 2.5 -0.195036
    endloop
  endfacet
  facet normal 0 1 0
    outer loop
      vertex 5 2.5 2.5
      vertex 1.66106 2.5 -0.382583
      vertex 1.49344 2.5 -0.283449
    endloop
  endfacet
  facet normal 0 1 0
    outer loop
      vertex 5 2.5 2.5
      vertex 1.82213 2.5 -0.492047
      vertex 1.66106 2.5 -0.382583
    endloop
  endfacet
  facet normal 0 1 0
    outer loop
      vertex 5 2.5 2.5
      vertex 1.97601 2.5 -0.611408
      vertex 1.82213 2.5 -0.492047
    endloop
  endfacet
  facet normal 0 1 0
    outer loop
      vertex 5 2.5 2.5
      vertex 2.1221 2.5 -0.740197
      vertex 1.97601 2.5 -0.611408
    endloop
  endfacet
  facet normal 0 1 0
    outer loop
      vertex 5 2.5 2.5
      vertex 2.2598 2.5 -0.877904
      vertex 2.1221 2.5 -0.740197
    endloop
  endfacet
  facet normal 0 1 0
    outer loop
      vertex 5 2.5 2.5
      vertex 2.38859 2.5 -1.02398
      vertex 2.2598 2.5 -0.877904
    endloop
  endfacet
  facet normal 0 1 0
    outer loop
      vertex 5 2.5 2.5
      vertex 2.50795 2.5 -1.17787
      vertex 2.38859 2.5 -1.02398
    endloop
  endfacet
  facet normal 0 1 0
    outer loop
      vertex 5 2.5 2.5
      vertex 2.61742 2.5 -1.33894
      vertex 2.50795 2.5 -1.17787
    endloop
  endfacet
  facet normal 0 1 -0
    outer loop
      vertex 5 2.5 -2.5
      vertex 2.61742 2.5 -1.33894
      vertex 5 2.5 2.5
    endloop
  endfacet
  facet normal 0 1 0
    outer loop
      vertex 2.61742 2.5 -1.33894
      vertex 5 2.5 -2.5
      vertex 2.71655 2.5 -1.50656
    endloop
  endfacet
  facet normal 0 1 0
    outer loop
      vertex 2.71655 2.5 -1.50656
      vertex 5 2.5 -2.5
      vertex 2.80496 2.5 -1.68008
    endloop
  endfacet
  facet normal 0 1 0
    outer loop
      vertex 2.80496 2.5 -1.68008
      vertex 5 2.5 -2.5
      vertex 2.88231 2.5 -1.85881
    endloop
  endfacet
  facet normal 0 1 0
    outer loop
      vertex 2.88231 2.5 -1.85881
      vertex 5 2.5 -2.5
      vertex 2.94827 2.5 -2.04205
    endloop
  endfacet
  facet normal 0 1 0
    outer loop
      vertex 2.94827 2.5 -2.04205
      vertex 5 2.5 -2.5
      vertex 3.00261 2.5 -2.22906
    endloop
  endfacet
  facet normal 0 1 0
    outer loop
      vertex 3.00261 2.5 -2.22906
      vertex 5 2.5 -2.5
      vertex 3.04509 2.5 -2.41912
    endloop
  endfacet
  facet normal 0 1 0
    outer loop
      vertex 3.04509 2.5 -2.41912
      vertex 5 2.5 -2.5
      vertex 3.0579 2.5 -2.5
    endloop
  endfacet
  facet normal 0 1 -0
    outer loop
      vertex -0.19465 2.5 0.0938826
      vertex -5 2.5 2.5
      vertex 0 2.5 0.0999994
    endloop
  endfacet
  facet normal 0 1 -0
    outer loop
      vertex -0.388533 2.5 0.0755548
      vertex -5 2.5 2.5
      vertex -0.19465 2.5 0.0938826
    endloop
  endfacet
  facet normal 0 1 -0
    outer loop
      vertex -0.580882 2.5 0.0450897
      vertex -5 2.5 2.5
      vertex -0.388533 2.5 0.0755548
    endloop
  endfacet
  facet normal 0 1 -0
    outer loop
      vertex -0.770938 2.5 0.00260735
      vertex -5 2.5 2.5
      vertex -0.580882 2.5 0.0450897
    endloop
  endfacet
  facet normal 0 1 -0
    outer loop
      vertex -0.957952 2.5 -0.0517244
      vertex -5 2.5 2.5
      vertex -0.770938 2.5 0.00260735
    endloop
  endfacet
  facet normal 0 1 -0
    outer loop
      vertex -1.14119 2.5 -0.117692
      vertex -5 2.5 2.5
      vertex -0.957952 2.5 -0.0517244
    endloop
  endfacet
  facet normal 0 1 -0
    outer loop
      vertex -1.31992 2.5 -0.195036
      vertex -5 2.5 2.5
      vertex -1.14119 2.5 -0.117692
    endloop
  endfacet
  facet normal 0 1 -0
    outer loop
      vertex -1.49344 2.5 -0.283449
      vertex -5 2.5 2.5
      vertex -1.31992 2.5 -0.195036
    endloop
  endfacet
  facet normal 0 1 -0
    outer loop
      vertex -1.66106 2.5 -0.382583
      vertex -5 2.5 2.5
      vertex -1.49344 2.5 -0.283449
    endloop
  endfacet
  facet normal 0 1 -0
    outer loop
      vertex -1.82213 2.5 -0.492047
      vertex -5 2.5 2.5
      vertex -1.66106 2.5 -0.382583
    endloop
  endfacet
  facet normal 0 1 -0
    outer loop
      vertex -1.97601 2.5 -0.611408
      vertex -5 2.5 2.5
      vertex -1.82213 2.5 -0.492047
    endloop
  endfacet
  facet normal 0 1 -0
    outer loop
      vertex -2.1221 2.5 -0.740197
      vertex -5 2.5 2.5
      vertex -1.97601 2.5 -0.611408
    endloop
  endfacet
  facet normal 0 1 -0
    outer loop
      vertex -2.2598 2.5 -0.877904
      vertex -5 2.5 2.5
      vertex -2.1221 2.5 -0.740197
    endloop
  endfacet
  facet normal 0 1 -0
    outer loop
      vertex -2.38859 2.5 -1.02398
      vertex -5 2.5 2.5
      vertex -2.2598 2.5 -0.877904
    endloop
  endfacet
  facet normal 0 1 -0
    outer loop
      vertex -2.50795 2.5 -1.17787
      vertex -5 2.5 2.5
      vertex -2.38859 2.5 -1.02398
    endloop
  endfacet
  facet normal 0 1 -0
    outer loop
      vertex -2.61742 2.5 -1.33894
      vertex -5 2.5 2.5
      vertex -2.50795 2.5 -1.17787
    endloop
  endfacet
  facet normal 0 1 0
    outer loop
      vertex -5 2.5 -2.5
      vertex -2.61742 2.5 -1.33894
      vertex -2.71655 2.5 -1.50656
    endloop
  endfacet
  facet normal 0 1 0
    outer loop
      vertex -5 2.5 -2.5
      vertex -2.71655 2.5 -1.50656
      vertex -2.80496 2.5 -1.68008
    endloop
  endfacet
  facet normal 0 1 0
    outer loop
      vertex -5 2.5 -2.5
      vertex -2.80496 2.5 -1.68008
      vertex -2.88231 2.5 -1.85881
    endloop
  endfacet
  facet normal 0 1 0
    outer loop
      vertex -5 2.5 -2.5
      vertex -2.88231 2.5 -1.85881
      vertex -2.94827 2.5 -2.04205
    endloop
  endfacet
  facet normal 0 1 0
    outer loop
      vertex -5 2.5 -2.5
      vertex -2.94827 2.5 -2.04205
      vertex -3.00261 2.5 -2.22906
    endloop
  endfacet
  facet normal 0 1 0
    outer loop
      vertex -5 2.5 -2.5
      vertex -3.00261 2.5 -2.22906
      vertex -3.04509 2.5 -2.41912
    endloop
  endfacet
  facet normal 0 1 0
    outer loop
      vertex -5 2.5 -2.5
      vertex -3.04509 2.5 -2.41912
      vertex -3.0579 2.5 -2.5
    endloop
  endfacet
  facet normal 0 1 0
    outer loop
      vertex -2.61742 2.5 -1.33894
      vertex -5 2.5 -2.5
      vertex -5 2.5 2.5
    endloop
  endfacet
  facet normal 0 0 -1
    outer loop
      vertex -5 -2.5 -2.5
      vertex -3.0579 2.5 -2.5
      vertex -3.0579 -2.5 -2.5
    endloop
  endfacet
  facet normal -0 0 -1
    outer loop
      vertex -3.0579 2.5 -2.5
      vertex -5 -2.5 -2.5
      vertex -5 2.5 -2.5
    endloop
  endfacet
  facet normal 0 0 -1
    outer loop
      vertex 3.0579 -2.5 -2.5
      vertex 5 2.5 -2.5
      vertex 5 -2.5 -2.5
    endloop
  endfacet
  facet normal -0 0 -1
    outer loop
      vertex 5 2.5 -2.5
      vertex 3.0579 -2.5 -2.5
      vertex 3.0579 2.5 -2.5
    endloop
  endfacet
  facet normal 0 -1 0
    outer loop
      vertex -5 -2.5 2.5
      vertex 0 -2.5 0.0999994
      vertex 5 -2.5 2.5
    endloop
  endfacet
  facet normal 0 -1 0
    outer loop
      vertex -5 -2.5 2.5
      vertex -0.19465 -2.5 0.0938826
      vertex 0 -2.5 0.0999994
    endloop
  endfacet
  facet normal 0 -1 0
    outer loop
      vertex -5 -2.5 2.5
      vertex -0.388533 -2.5 0.0755548
      vertex -0.19465 -2.5 0.0938826
    endloop
  endfacet
  facet normal 0 -1 0
    outer loop
      vertex -5 -2.5 2.5
      vertex -0.580882 -2.5 0.0450897
      vertex -0.388533 -2.5 0.0755548
    endloop
  endfacet
  facet normal 0 -1 0
    outer loop
      vertex -5 -2.5 2.5
      vertex -0.770938 -2.5 0.00260735
      vertex -0.580882 -2.5 0.0450897
    endloop
  endfacet
  facet normal 0 -1 0
    outer loop
      vertex -5 -2.5 2.5
      vertex -0.957952 -2.5 -0.0517244
      vertex -0.770938 -2.5 0.00260735
    endloop
  endfacet
  facet normal 0 -1 0
    outer loop
      vertex -5 -2.5 2.5
      vertex -1.14119 -2.5 -0.117692
      vertex -0.957952 -2.5 -0.0517244
    endloop
  endfacet
  facet normal 0 -1 0
    outer loop
      vertex -5 -2.5 2.5
      vertex -1.31992 -2.5 -0.195036
      vertex -1.14119 -2.5 -0.117692
    endloop
  endfacet
  facet normal 0 -1 0
    outer loop
      vertex -5 -2.5 2.5
      vertex -1.49344 -2.5 -0.283449
      vertex -1.31992 -2.5 -0.195036
    endloop
  endfacet
  facet normal 0 -1 0
    outer loop
      vertex -5 -2.5 2.5
      vertex -1.66106 -2.5 -0.382583
      vertex -1.49344 -2.5 -0.283449
    endloop
  endfacet
  facet normal 0 -1 0
    outer loop
      vertex -5 -2.5 2.5
      vertex -1.82213 -2.5 -0.492047
      vertex -1.66106 -2.5 -0.382583
    endloop
  endfacet
  facet normal 0 -1 0
    outer loop
      vertex -5 -2.5 2.5
      vertex -1.97601 -2.5 -0.611408
      vertex -1.82213 -2.5 -0.492047
    endloop
  endfacet
  facet normal 0 -1 0
    outer loop
      vertex -5 -2.5 2.5
      vertex -2.1221 -2.5 -0.740197
      vertex -1.97601 -2.5 -0.611408
    endloop
  endfacet
  facet normal 0 -1 0
    outer loop
      vertex -5 -2.5 2.5
      vertex -2.2598 -2.5 -0.877904
      vertex -2.1221 -2.5 -0.740197
    endloop
  endfacet
  facet normal 0 -1 0
    outer loop
      vertex -5 -2.5 2.5
      vertex -2.38859 -2.5 -1.02398
      vertex -2.2598 -2.5 -0.877904
    endloop
  endfacet
  facet normal 0 -1 0
    outer loop
      vertex -5 -2.5 2.5
      vertex -2.50795 -2.5 -1.17787
      vertex -2.38859 -2.5 -1.02398
    endloop
  endfacet
  facet normal 0 -1 0
    outer loop
      vertex -5 -2.5 2.5
      vertex -2.61742 -2.5 -1.33894
      vertex -2.50795 -2.5 -1.17787
    endloop
  endfacet
  facet normal 0 -1 0
    outer loop
      vertex -5 -2.5 -2.5
      vertex -2.61742 -2.5 -1.33894
      vertex -5 -2.5 2.5
    endloop
  endfacet
  facet normal 0 -1 0
    outer loop
      vertex -2.61742 -2.5 -1.33894
      vertex -5 -2.5 -2.5
      vertex -2.71655 -2.5 -1.50656
    endloop
  endfacet
  facet normal 0 -1 0
    outer loop
      vertex -2.71655 -2.5 -1.50656
      vertex -5 -2.5 -2.5
      vertex -2.80496 -2.5 -1.68008
    endloop
  endfacet
  facet normal 0 -1 0
    outer loop
      vertex -2.80496 -2.5 -1.68008
      vertex -5 -2.5 -2.5
      vertex -2.88231 -2.5 -1.85881
    endloop
  endfacet
  facet normal 0 -1 0
    outer loop
      vertex -2.88231 -2.5 -1.85881
      vertex -5 -2.5 -2.5
      vertex -2.94827 -2.5 -2.04205
    endloop
  endfacet
  facet normal 0 -1 0
    outer loop
      vertex -2.94827 -2.5 -2.04205
      vertex -5 -2.5 -2.5
      vertex -3.00261 -2.5 -2.22906
    endloop
  endfacet
  facet normal 0 -1 0
    outer loop
      vertex -3.00261 -2.5 -2.22906
      vertex -5 -2.5 -2.5
      vertex -3.04509 -2.5 -2.41912
    endloop
  endfacet
  facet normal 0 -1 0
    outer loop
      vertex -3.04509 -2.5 -2.41912
      vertex -5 -2.5 -2.5
      vertex -3.0579 -2.5 -2.5
    endloop
  endfacet
  facet normal 0 -1 0
    outer loop
      vertex 0.19465 -2.5 0.0938826
      vertex 5 -2.5 2.5
      vertex 0 -2.5 0.0999994
    endloop
  endfacet
  facet normal 0 -1 0
    outer loop
      vertex 0.388533 -2.5 0.0755548
      vertex 5 -2.5 2.5
      vertex 0.19465 -2.5 0.0938826
    endloop
  endfacet
  facet normal 0 -1 0
    outer loop
      vertex 0.580882 -2.5 0.0450897
      vertex 5 -2.5 2.5
      vertex 0.388533 -2.5 0.0755548
    endloop
  endfacet
  facet normal 0 -1 0
    outer loop
      vertex 0.770938 -2.5 0.00260735
      vertex 5 -2.5 2.5
      vertex 0.580882 -2.5 0.0450897
    endloop
  endfacet
  facet normal 0 -1 0
    outer loop
      vertex 0.957952 -2.5 -0.0517244
      vertex 5 -2.5 2.5
      vertex 0.770938 -2.5 0.00260735
    endloop
  endfacet
  facet normal 0 -1 0
    outer loop
      vertex 1.14119 -2.5 -0.117692
      vertex 5 -2.5 2.5
      vertex 0.957952 -2.5 -0.0517244
    endloop
  endfacet
  facet normal 0 -1 0
    outer loop
      vertex 1.31992 -2.5 -0.195036
      vertex 5 -2.5 2.5
      vertex 1.14119 -2.5 -0.117692
    endloop
  endfacet
  facet normal 0 -1 0
    outer loop
      vertex 1.49344 -2.5 -0.283449
      vertex 5 -2.5 2.5
      vertex 1.31992 -2.5 -0.195036
    endloop
  endfacet
  facet normal 0 -1 0
    outer loop
      vertex 1.66106 -2.5 -0.382583
      vertex 5 -2.5 2.5
      vertex 1.49344 -2.5 -0.283449
    endloop
  endfacet
  facet normal 0 -1 0
    outer loop
      vertex 1.82213 -2.5 -0.492047
      vertex 5 -2.5 2.5
      vertex 1.66106 -2.5 -0.382583
    endloop
  endfacet
  facet normal 0 -1 0
    outer loop
      vertex 1.97601 -2.5 -0.611408
      vertex 5 -2.5 2.5
      vertex 1.82213 -2.5 -0.492047
    endloop
  endfacet
  facet normal 0 -1 0
    outer loop
      vertex 2.1221 -2.5 -0.740197
      vertex 5 -2.5 2.5
      vertex 1.97601 -2.5 -0.611408
    endloop
  endfacet
  facet normal 0 -1 0
    outer loop
      vertex 2.2598 -2.5 -0.877904
      vertex 5 -2.5 2.5
      vertex 2.1221 -2.5 -0.740197
    endloop
  endfacet
  facet normal 0 -1 0
    outer loop
      vertex 2.38859 -2.5 -1.02398
      vertex 5 -2.5 2.5
      vertex 2.2598 -2.5 -0.877904
    endloop
  endfacet
  facet normal 0 -1 0
    outer loop
      vertex 2.50795 -2.5 -1.17787
      vertex 5 -2.5 2.5
      vertex 2.38859 -2.5 -1.02398
    endloop
  endfacet
  facet normal 0 -1 0
    outer loop
      vertex 2.61742 -2.5 -1.33894
      vertex 5 -2.5 2.5
      vertex 2.50795 -2.5 -1.17787
    endloop
  endfacet
  facet normal 0 -1 0
    outer loop
      vertex 5 -2.5 -2.5
      vertex 2.61742 -2.5 -1.33894
      vertex 2.71655 -2.5 -1.50656
    endloop
  endfacet
  facet normal 0 -1 0
    outer loop
      vertex 5 -2.5 -2.5
      vertex 2.71655 -2.5 -1.50656
      vertex 2.80496 -2.5 -1.68008
    endloop
  endfacet
  facet normal 0 -1 0
    outer loop
      vertex 5 -2.5 -2.5
      vertex 2.80496 -2.5 -1.68008
      vertex 2.88231 -2.5 -1.85881
    endloop
  endfacet
  facet normal 0 -1 0
    outer loop
      vertex 5 -2.5 -2.5
      vertex 2.88231 -2.5 -1.85881
      vertex 2.94827 -2.5 -2.04205
    endloop
  endfacet
  facet normal 0 -1 0
    outer loop
      vertex 5 -2.5 -2.5
      vertex 2.94827 -2.5 -2.04205
      vertex 3.00261 -2.5 -2.22906
    endloop
  endfacet
  facet normal 0 -1 0
    outer loop
      vertex 5 -2.5 -2.5
      vertex 3.00261 -2.5 -2.22906
      vertex 3.04509 -2.5 -2.41912
    endloop
  endfacet
  facet normal 0 -1 0
    outer loop
      vertex 5 -2.5 -2.5
      vertex 3.04509 -2.5 -2.41912
      vertex 3.0579 -2.5 -2.5
    endloop
  endfacet
  facet normal 0 -1 0
    outer loop
      vertex 2.61742 -2.5 -1.33894
      vertex 5 -2.5 -2.5
      vertex 5 -2.5 2.5
    endloop
  endfacet
  facet normal 0.156434 0 -0.987688
    outer loop
      vertex -0.580882 -2.5 0.0450897
      vertex -0.388533 2.5 0.0755548
      vertex -0.388533 -2.5 0.0755548
    endloop
  endfacet
  facet normal 0.156434 0 -0.987688
    outer loop
      vertex -0.388533 2.5 0.0755548
      vertex -0.580882 -2.5 0.0450897
      vertex -0.580882 2.5 0.0450897
    endloop
  endfacet
  facet normal -0.987688 0 -0.156436
    outer loop
      vertex 3.0579 -2.5 -2.5
      vertex 3.04509 2.5 -2.41912
      vertex 3.0579 2.5 -2.5
    endloop
  endfacet
  facet normal -0.987688 -0 -0.156436
    outer loop
      vertex 3.04509 2.5 -2.41912
      vertex 3.0579 -2.5 -2.5
      vertex 3.04509 -2.5 -2.41912
    endloop
  endfacet
  facet normal -0.975917 0 -0.218143
    outer loop
      vertex 3.04509 -2.5 -2.41912
      vertex 3.00261 2.5 -2.22906
      vertex 3.04509 2.5 -2.41912
    endloop
  endfacet
  facet normal -0.975917 -0 -0.218143
    outer loop
      vertex 3.00261 2.5 -2.22906
      vertex 3.04509 -2.5 -2.41912
      vertex 3.00261 -2.5 -2.22906
    endloop
  endfacet
  facet normal -0.156434 0 -0.987688
    outer loop
      vertex 0.388533 -2.5 0.0755548
      vertex 0.580882 2.5 0.0450897
      vertex 0.580882 -2.5 0.0450897
    endloop
  endfacet
  facet normal -0.156434 0 -0.987688
    outer loop
      vertex 0.580882 2.5 0.0450897
      vertex 0.388533 -2.5 0.0755548
      vertex 0.388533 2.5 0.0755548
    endloop
  endfacet
  facet normal -0.278986 0 -0.960295
    outer loop
      vertex 0.770938 -2.5 0.00260735
      vertex 0.957952 2.5 -0.0517244
      vertex 0.957952 -2.5 -0.0517244
    endloop
  endfacet
  facet normal -0.278986 0 -0.960295
    outer loop
      vertex 0.957952 2.5 -0.0517244
      vertex 0.770938 -2.5 0.00260735
      vertex 0.770938 2.5 0.00260735
    endloop
  endfacet
  facet normal -0.790157 0 -0.612905
    outer loop
      vertex 2.50795 -2.5 -1.17787
      vertex 2.38859 2.5 -1.02398
      vertex 2.50795 2.5 -1.17787
    endloop
  endfacet
  facet normal -0.790157 -0 -0.612905
    outer loop
      vertex 2.38859 2.5 -1.02398
      vertex 2.50795 -2.5 -1.17787
      vertex 2.38859 -2.5 -1.02398
    endloop
  endfacet
  facet normal 0.0314095 0 -0.999507
    outer loop
      vertex -0.19465 -2.5 0.0938826
      vertex 0 2.5 0.0999994
      vertex 0 -2.5 0.0999994
    endloop
  endfacet
  facet normal 0.0314095 0 -0.999507
    outer loop
      vertex 0 2.5 0.0999994
      vertex -0.19465 -2.5 0.0938826
      vertex -0.19465 2.5 0.0938826
    endloop
  endfacet
  facet normal 0.218143 0 -0.975917
    outer loop
      vertex -0.770938 -2.5 0.00260735
      vertex -0.580882 2.5 0.0450897
      vertex -0.580882 -2.5 0.0450897
    endloop
  endfacet
  facet normal 0.218143 0 -0.975917
    outer loop
      vertex -0.580882 2.5 0.0450897
      vertex -0.770938 -2.5 0.00260735
      vertex -0.770938 2.5 0.00260735
    endloop
  endfacet
  facet normal 0.39715 0 -0.917754
    outer loop
      vertex -1.31992 -2.5 -0.195036
      vertex -1.14119 2.5 -0.117692
      vertex -1.14119 -2.5 -0.117692
    endloop
  endfacet
  facet normal 0.39715 0 -0.917754
    outer loop
      vertex -1.14119 2.5 -0.117692
      vertex -1.31992 -2.5 -0.195036
      vertex -1.31992 2.5 -0.195036
    endloop
  endfacet
  facet normal 0.750108 0 -0.661315
    outer loop
      vertex -2.2598 -2.5 -0.877904
      vertex -2.38859 2.5 -1.02398
      vertex -2.2598 2.5 -0.877904
    endloop
  endfacet
  facet normal 0.750108 0 -0.661315
    outer loop
      vertex -2.38859 2.5 -1.02398
      vertex -2.2598 -2.5 -0.877904
      vertex -2.38859 -2.5 -1.02398
    endloop
  endfacet
  facet normal -0.338736 0 -0.940882
    outer loop
      vertex 0.957952 -2.5 -0.0517244
      vertex 1.14119 2.5 -0.117692
      vertex 1.14119 -2.5 -0.117692
    endloop
  endfacet
  facet normal -0.338736 0 -0.940882
    outer loop
      vertex 1.14119 2.5 -0.117692
      vertex 0.957952 -2.5 -0.0517244
      vertex 0.957952 2.5 -0.0517244
    endloop
  endfacet
  facet normal -0.562085 0 -0.82708
    outer loop
      vertex 1.66106 -2.5 -0.382583
      vertex 1.82213 2.5 -0.492047
      vertex 1.82213 -2.5 -0.492047
    endloop
  endfacet
  facet normal -0.562085 0 -0.82708
    outer loop
      vertex 1.82213 2.5 -0.492047
      vertex 1.66106 -2.5 -0.382583
      vertex 1.66106 2.5 -0.382583
    endloop
  endfacet
  facet normal -0.750108 0 -0.661315
    outer loop
      vertex 2.38859 -2.5 -1.02398
      vertex 2.2598 2.5 -0.877904
      vertex 2.38859 2.5 -1.02398
    endloop
  endfacet
  facet normal -0.750108 -0 -0.661315
    outer loop
      vertex 2.2598 2.5 -0.877904
      vertex 2.38859 -2.5 -1.02398
      vertex 2.2598 -2.5 -0.877904
    endloop
  endfacet
  facet normal -0.940882 0 -0.338736
    outer loop
      vertex 2.94827 -2.5 -2.04205
      vertex 2.88231 2.5 -1.85881
      vertex 2.94827 2.5 -2.04205
    endloop
  endfacet
  facet normal -0.940882 -0 -0.338736
    outer loop
      vertex 2.88231 2.5 -1.85881
      vertex 2.94827 -2.5 -2.04205
      vertex 2.88231 -2.5 -1.85881
    endloop
  endfacet
  facet normal 0.453992 0 -0.891006
    outer loop
      vertex -1.49344 -2.5 -0.283449
      vertex -1.31992 2.5 -0.195036
      vertex -1.31992 -2.5 -0.195036
    endloop
  endfacet
  facet normal 0.453992 0 -0.891006
    outer loop
      vertex -1.31992 2.5 -0.195036
      vertex -1.49344 -2.5 -0.283449
      vertex -1.49344 2.5 -0.283449
    endloop
  endfacet
  facet normal -0.39715 0 -0.917754
    outer loop
      vertex 1.14119 -2.5 -0.117692
      vertex 1.31992 2.5 -0.195036
      vertex 1.31992 -2.5 -0.195036
    endloop
  endfacet
  facet normal -0.39715 0 -0.917754
    outer loop
      vertex 1.31992 2.5 -0.195036
      vertex 1.14119 -2.5 -0.117692
      vertex 1.14119 2.5 -0.117692
    endloop
  endfacet
  facet normal -0.453992 0 -0.891006
    outer loop
      vertex 1.31992 -2.5 -0.195036
      vertex 1.49344 2.5 -0.283449
      vertex 1.49344 -2.5 -0.283449
    endloop
  endfacet
  facet normal -0.453992 0 -0.891006
    outer loop
      vertex 1.49344 2.5 -0.283449
      vertex 1.31992 -2.5 -0.195036
      vertex 1.31992 2.5 -0.195036
    endloop
  endfacet
  facet normal -0.917754 0 -0.39715
    outer loop
      vertex 2.88231 -2.5 -1.85881
      vertex 2.80496 2.5 -1.68008
      vertex 2.88231 2.5 -1.85881
    endloop
  endfacet
  facet normal -0.917754 -0 -0.39715
    outer loop
      vertex 2.80496 2.5 -1.68008
      vertex 2.88231 -2.5 -1.85881
      vertex 2.80496 -2.5 -1.68008
    endloop
  endfacet
  facet normal -0.960294 0 -0.278991
    outer loop
      vertex 3.00261 -2.5 -2.22906
      vertex 2.94827 2.5 -2.04205
      vertex 3.00261 2.5 -2.22906
    endloop
  endfacet
  facet normal -0.960294 -0 -0.278991
    outer loop
      vertex 2.94827 2.5 -2.04205
      vertex 3.00261 -2.5 -2.22906
      vertex 2.94827 -2.5 -2.04205
    endloop
  endfacet
  facet normal 0.917754 0 -0.39715
    outer loop
      vertex -2.80496 -2.5 -1.68008
      vertex -2.88231 2.5 -1.85881
      vertex -2.80496 2.5 -1.68008
    endloop
  endfacet
  facet normal 0.917754 0 -0.39715
    outer loop
      vertex -2.88231 2.5 -1.85881
      vertex -2.80496 -2.5 -1.68008
      vertex -2.88231 -2.5 -1.85881
    endloop
  endfacet
  facet normal 0.987688 0 -0.156436
    outer loop
      vertex -3.04509 -2.5 -2.41912
      vertex -3.0579 2.5 -2.5
      vertex -3.04509 2.5 -2.41912
    endloop
  endfacet
  facet normal 0.987688 0 -0.156436
    outer loop
      vertex -3.0579 2.5 -2.5
      vertex -3.04509 -2.5 -2.41912
      vertex -3.0579 -2.5 -2.5
    endloop
  endfacet
  facet normal -0.218143 0 -0.975917
    outer loop
      vertex 0.580882 -2.5 0.0450897
      vertex 0.770938 2.5 0.00260735
      vertex 0.770938 -2.5 0.00260735
    endloop
  endfacet
  facet normal -0.218143 0 -0.975917
    outer loop
      vertex 0.770938 2.5 0.00260735
      vertex 0.580882 -2.5 0.0450897
      vertex 0.580882 2.5 0.0450897
    endloop
  endfacet
  facet normal -0.0941102 0 -0.995562
    outer loop
      vertex 0.19465 -2.5 0.0938826
      vertex 0.388533 2.5 0.0755548
      vertex 0.388533 -2.5 0.0755548
    endloop
  endfacet
  facet normal -0.0941102 0 -0.995562
    outer loop
      vertex 0.388533 2.5 0.0755548
      vertex 0.19465 -2.5 0.0938826
      vertex 0.19465 2.5 0.0938826
    endloop
  endfacet
  facet normal 0.0941102 0 -0.995562
    outer loop
      vertex -0.388533 -2.5 0.0755548
      vertex -0.19465 2.5 0.0938826
      vertex -0.19465 -2.5 0.0938826
    endloop
  endfacet
  facet normal 0.0941102 0 -0.995562
    outer loop
      vertex -0.19465 2.5 0.0938826
      vertex -0.388533 -2.5 0.0755548
      vertex -0.388533 2.5 0.0755548
    endloop
  endfacet
  facet normal 0.338736 0 -0.940882
    outer loop
      vertex -1.14119 -2.5 -0.117692
      vertex -0.957952 2.5 -0.0517244
      vertex -0.957952 -2.5 -0.0517244
    endloop
  endfacet
  facet normal 0.338736 0 -0.940882
    outer loop
      vertex -0.957952 2.5 -0.0517244
      vertex -1.14119 -2.5 -0.117692
      vertex -1.14119 2.5 -0.117692
    endloop
  endfacet
  facet normal 0.562085 0 -0.82708
    outer loop
      vertex -1.82213 -2.5 -0.492047
      vertex -1.66106 2.5 -0.382583
      vertex -1.66106 -2.5 -0.382583
    endloop
  endfacet
  facet normal 0.562085 0 -0.82708
    outer loop
      vertex -1.66106 2.5 -0.382583
      vertex -1.82213 -2.5 -0.492047
      vertex -1.82213 2.5 -0.492047
    endloop
  endfacet
  facet normal 0.50904 0 -0.860743
    outer loop
      vertex -1.66106 -2.5 -0.382583
      vertex -1.49344 2.5 -0.283449
      vertex -1.49344 -2.5 -0.283449
    endloop
  endfacet
  facet normal 0.50904 0 -0.860743
    outer loop
      vertex -1.49344 2.5 -0.283449
      vertex -1.66106 -2.5 -0.382583
      vertex -1.66106 2.5 -0.382583
    endloop
  endfacet
  facet normal 0.707107 0 -0.707107
    outer loop
      vertex -2.1221 -2.5 -0.740197
      vertex -2.2598 2.5 -0.877904
      vertex -2.1221 2.5 -0.740197
    endloop
  endfacet
  facet normal 0.707107 0 -0.707107
    outer loop
      vertex -2.2598 2.5 -0.877904
      vertex -2.1221 -2.5 -0.740197
      vertex -2.2598 -2.5 -0.877904
    endloop
  endfacet
  facet normal -0.50904 0 -0.860743
    outer loop
      vertex 1.49344 -2.5 -0.283449
      vertex 1.66106 2.5 -0.382583
      vertex 1.66106 -2.5 -0.382583
    endloop
  endfacet
  facet normal -0.50904 0 -0.860743
    outer loop
      vertex 1.66106 2.5 -0.382583
      vertex 1.49344 -2.5 -0.283449
      vertex 1.49344 2.5 -0.283449
    endloop
  endfacet
  facet normal -0.612905 0 -0.790157
    outer loop
      vertex 1.82213 -2.5 -0.492047
      vertex 1.97601 2.5 -0.611408
      vertex 1.97601 -2.5 -0.611408
    endloop
  endfacet
  facet normal -0.612905 0 -0.790157
    outer loop
      vertex 1.97601 2.5 -0.611408
      vertex 1.82213 -2.5 -0.492047
      vertex 1.82213 2.5 -0.492047
    endloop
  endfacet
  facet normal -0.860743 0 -0.50904
    outer loop
      vertex 2.71655 -2.5 -1.50656
      vertex 2.61742 2.5 -1.33894
      vertex 2.71655 2.5 -1.50656
    endloop
  endfacet
  facet normal -0.860743 -0 -0.50904
    outer loop
      vertex 2.61742 2.5 -1.33894
      vertex 2.71655 -2.5 -1.50656
      vertex 2.61742 -2.5 -1.33894
    endloop
  endfacet
  facet normal -0.82708 0 -0.562085
    outer loop
      vertex 2.61742 -2.5 -1.33894
      vertex 2.50795 2.5 -1.17787
      vertex 2.61742 2.5 -1.33894
    endloop
  endfacet
  facet normal -0.82708 -0 -0.562085
    outer loop
      vertex 2.50795 2.5 -1.17787
      vertex 2.61742 -2.5 -1.33894
      vertex 2.50795 -2.5 -1.17787
    endloop
  endfacet
  facet normal 0.960294 0 -0.278991
    outer loop
      vertex -2.94827 -2.5 -2.04205
      vertex -3.00261 2.5 -2.22906
      vertex -2.94827 2.5 -2.04205
    endloop
  endfacet
  facet normal 0.960294 0 -0.278991
    outer loop
      vertex -3.00261 2.5 -2.22906
      vertex -2.94827 -2.5 -2.04205
      vertex -3.00261 -2.5 -2.22906
    endloop
  endfacet
  facet normal 0.975917 0 -0.218143
    outer loop
      vertex -3.00261 -2.5 -2.22906
      vertex -3.04509 2.5 -2.41912
      vertex -3.00261 2.5 -2.22906
    endloop
  endfacet
  facet normal 0.975917 0 -0.218143
    outer loop
      vertex -3.04509 2.5 -2.41912
      vertex -3.00261 -2.5 -2.22906
      vertex -3.04509 -2.5 -2.41912
    endloop
  endfacet
  facet normal 0.940882 0 -0.338736
    outer loop
      vertex -2.88231 -2.5 -1.85881
      vertex -2.94827 2.5 -2.04205
      vertex -2.88231 2.5 -1.85881
    endloop
  endfacet
  facet normal 0.940882 0 -0.338736
    outer loop
      vertex -2.94827 2.5 -2.04205
      vertex -2.88231 -2.5 -1.85881
      vertex -2.94827 -2.5 -2.04205
    endloop
  endfacet
  facet normal -0.0314095 0 -0.999507
    outer loop
      vertex 0 -2.5 0.0999994
      vertex 0.19465 2.5 0.0938826
      vertex 0.19465 -2.5 0.0938826
    endloop
  endfacet
  facet normal -0.0314095 0 -0.999507
    outer loop
      vertex 0.19465 2.5 0.0938826
      vertex 0 -2.5 0.0999994
      vertex 0 2.5 0.0999994
    endloop
  endfacet
  facet normal 0.278986 0 -0.960295
    outer loop
      vertex -0.957952 -2.5 -0.0517244
      vertex -0.770938 2.5 0.00260735
      vertex -0.770938 -2.5 0.00260735
    endloop
  endfacet
  facet normal 0.278986 0 -0.960295
    outer loop
      vertex -0.770938 2.5 0.00260735
      vertex -0.957952 -2.5 -0.0517244
      vertex -0.957952 2.5 -0.0517244
    endloop
  endfacet
  facet normal 0.661315 0 -0.750108
    outer loop
      vertex -2.1221 -2.5 -0.740197
      vertex -1.97601 2.5 -0.611408
      vertex -1.97601 -2.5 -0.611408
    endloop
  endfacet
  facet normal 0.661315 0 -0.750108
    outer loop
      vertex -1.97601 2.5 -0.611408
      vertex -2.1221 -2.5 -0.740197
      vertex -2.1221 2.5 -0.740197
    endloop
  endfacet
  facet normal 0.612905 0 -0.790157
    outer loop
      vertex -1.97601 -2.5 -0.611408
      vertex -1.82213 2.5 -0.492047
      vertex -1.82213 -2.5 -0.492047
    endloop
  endfacet
  facet normal 0.612905 0 -0.790157
    outer loop
      vertex -1.82213 2.5 -0.492047
      vertex -1.97601 -2.5 -0.611408
      vertex -1.97601 2.5 -0.611408
    endloop
  endfacet
  facet normal 0.790157 0 -0.612905
    outer loop
      vertex -2.38859 -2.5 -1.02398
      vertex -2.50795 2.5 -1.17787
      vertex -2.38859 2.5 -1.02398
    endloop
  endfacet
  facet normal 0.790157 0 -0.612905
    outer loop
      vertex -2.50795 2.5 -1.17787
      vertex -2.38859 -2.5 -1.02398
      vertex -2.50795 -2.5 -1.17787
    endloop
  endfacet
  facet normal 0.82708 0 -0.562085
    outer loop
      vertex -2.50795 -2.5 -1.17787
      vertex -2.61742 2.5 -1.33894
      vertex -2.50795 2.5 -1.17787
    endloop
  endfacet
  facet normal 0.82708 0 -0.562085
    outer loop
      vertex -2.61742 2.5 -1.33894
      vertex -2.50795 -2.5 -1.17787
      vertex -2.61742 -2.5 -1.33894
    endloop
  endfacet
  facet normal -0.707107 0 -0.707107
    outer loop
      vertex 2.2598 -2.5 -0.877904
      vertex 2.1221 2.5 -0.740197
      vertex 2.2598 2.5 -0.877904
    endloop
  endfacet
  facet normal -0.707107 -0 -0.707107
    outer loop
      vertex 2.1221 2.5 -0.740197
      vertex 2.2598 -2.5 -0.877904
      vertex 2.1221 -2.5 -0.740197
    endloop
  endfacet
  facet normal -0.661315 0 -0.750108
    outer loop
      vertex 1.97601 -2.5 -0.611408
      vertex 2.1221 2.5 -0.740197
      vertex 2.1221 -2.5 -0.740197
    endloop
  endfacet
  facet normal -0.661315 0 -0.750108
    outer loop
      vertex 2.1221 2.5 -0.740197
      vertex 1.97601 -2.5 -0.611408
      vertex 1.97601 2.5 -0.611408
    endloop
  endfacet
  facet normal -0.891006 0 -0.453992
    outer loop
      vertex 2.80496 -2.5 -1.68008
      vertex 2.71655 2.5 -1.50656
      vertex 2.80496 2.5 -1.68008
    endloop
  endfacet
  facet normal -0.891006 -0 -0.453992
    outer loop
      vertex 2.71655 2.5 -1.50656
      vertex 2.80496 -2.5 -1.68008
      vertex 2.71655 -2.5 -1.50656
    endloop
  endfacet
  facet normal 0.860743 0 -0.50904
    outer loop
      vertex -2.61742 -2.5 -1.33894
      vertex -2.71655 2.5 -1.50656
      vertex -2.61742 2.5 -1.33894
    endloop
  endfacet
  facet normal 0.860743 0 -0.50904
    outer loop
      vertex -2.71655 2.5 -1.50656
      vertex -2.61742 -2.5 -1.33894
      vertex -2.71655 -2.5 -1.50656
    endloop
  endfacet
  facet normal 0.891006 0 -0.453992
    outer loop
      vertex -2.71655 -2.5 -1.50656
      vertex -2.80496 2.5 -1.68008
      vertex -2.71655 2.5 -1.50656
    endloop
  endfacet
  facet normal 0.891006 0 -0.453992
    outer loop
      vertex -2.80496 2.5 -1.68008
      vertex -2.71655 -2.5 -1.50656
      vertex -2.80496 -2.5 -1.68008
    endloop
  endfacet
endsolid OpenSCAD_Model
