solid OpenSCAD_Model
  facet normal -1 0 0
    outer loop
      vertex -5 -2.5 -2.5
      vertex -5 2.5 2.5
      vertex -5 2.5 -2.5
    endloop
  endfacet
  facet normal -1 -0 0
    outer loop
      vertex -5 2.5 2.5
      vertex -5 -2.5 -2.5
      vertex -5 -2.5 2.5
    endloop
  endfacet
  facet normal -0 0 1
    outer loop
      vertex -5 2.5 2.5
      vertex 5 -2.5 2.5
      vertex 5 2.5 2.5
    endloop
  endfacet
  facet normal 0 0 1
    outer loop
      vertex 5 -2.5 2.5
      vertex -5 2.5 2.5
      vertex -5 -2.5 2.5
    endloop
  endfacet
  facet normal 1 -0 0
    outer loop
      vertex 5 -2.5 2.5
      vertex 5 2.5 -2.5
      vertex 5 2.5 2.5
    endloop
  endfacet
  facet normal 1 0 0
    outer loop
      vertex 5 2.5 -2.5
      vertex 5 -2.5 2.5
      vertex 5 -2.5 -2.5
    endloop
  endfacet
  facet normal 0 1 0
    outer loop
      vertex 5 2.5 2.5
      vertex 0 2.5 1.7
      vertex -5 2.5 2.5
    endloop
  endfacet
  facet normal 0 1 0
    outer loop
      vertex 5 2.5 2.5
      vertex 0.238604 2.5 1.6925
      vertex 0 2.5 1.7
    endloop
  endfacet
  facet normal 0 1 0
    outer loop
      vertex 5 2.5 2.5
      vertex 0.476266 2.5 1.67004
      vertex 0.238604 2.5 1.6925
    endloop
  endfacet
  facet normal 0 1 0
    outer loop
      vertex 5 2.5 2.5
      vertex 0.712049 2.5 1.63269
      vertex 0.476266 2.5 1.67004
    endloop
  endfacet
  facet normal 0 1 0
    outer loop
      vertex 5 2.5 2.5
      vertex 0.945021 2.5 1.58062
      vertex 0.712049 2.5 1.63269
    endloop
  endfacet
  facet normal 0 1 0
    outer loop
      vertex 5 2.5 2.5
      vertex 1.17426 2.5 1.51401
      vertex 0.945021 2.5 1.58062
    endloop
  endfacet
  facet normal 0 1 0
    outer loop
      vertex 5 2.5 2.5
      vertex 1.39887 2.5 1.43315
      vertex 1.17426 2.5 1.51401
    endloop
  endfacet
  facet normal 0 1 0
    outer loop
      vertex 5 2.5 2.5
      vertex 1.61796 2.5 1.33834
      vertex 1.39887 2.5 1.43315
    endloop
  endfacet
  facet normal 0 1 0
    outer loop
      vertex 5 2.5 2.5
      vertex 1.83066 2.5 1.22997
      vertex 1.61796 2.5 1.33834
    endloop
  endfacet
  facet normal 0 1 0
    outer loop
      vertex 5 2.5 2.5
      vertex 2.03614 2.5 1.10845
      vertex 1.83066 2.5 1.22997
    endloop
  endfacet
  facet normal 0 1 0
    outer loop
      vertex 5 2.5 2.5
      vertex 2.23358 2.5 0.974264
      vertex 2.03614 2.5 1.10845
    endloop
  endfacet
  facet normal 0 1 0
    outer loop
      vertex 5 2.5 2.5
      vertex 2.42221 2.5 0.82795
      vertex 2.23358 2.5 0.974264
    endloop
  endfacet
  facet normal 0 1 0
    outer loop
      vertex 5 2.5 2.5
      vertex 2.60128 2.5 0.67008
      vertex 2.42221 2.5 0.82795
    endloop
  endfacet
  facet normal 0 1 0
    outer loop
      vertex 5 2.5 2.5
      vertex 2.77008 2.5 0.501279
      vertex 2.60128 2.5 0.67008
    endloop
  endfacet
  facet normal 0 1 0
    outer loop
      vertex 5 2.5 2.5
      vertex 2.92795 2.5 0.32221
      vertex 2.77008 2.5 0.501279
    endloop
  endfacet
  facet normal 0 1 0
    outer loop
      vertex 5 2.5 2.5
      vertex 3.07426 2.5 0.133583
      vertex 2.92795 2.5 0.32221
    endloop
  endfacet
  facet normal 0 1 0
    outer loop
      vertex 5 2.5 2.5
      vertex 3.20845 2.5 -0.063858
      vertex 3.07426 2.5 0.133583
    endloop
  endfacet
  facet normal 0 1 0
    outer loop
      vertex 5 2.5 2.5
      vertex 3.32996 2.5 -0.269336
      vertex 3.20845 2.5 -0.063858
    endloop
  endfacet
  facet normal 0 1 0
    outer loop
      vertex 5 2.5 2.5
      vertex 3.43834 2.5 -0.482038
      vertex 3.32996 2.5 -0.269336
    endloop
  endfacet
  facet normal 0 1 0
    outer loop
      vertex 5 2.5 2.5
      vertex 3.53315 2.5 -0.701126
      vertex 3.43834 2.5 -0.482038
    endloop
  endfacet
  facet normal 0 1 0
    outer loop
      vertex 5 2.5 2.5
      vertex 3.61401 2.5 -0.925735
      vertex 3.53315 2.5 -0.701126
    endloop
  endfacet
  facet normal 0 1 -0
    outer loop
      vertex 5 2.5 -2.5
      vertex 3.61401 2.5 -0.925735
      vertex 5 2.5 2.5
    endloop
  endfacet
  facet normal 0 1 0
    outer loop
      vertex 3.61401 2.5 -0.925735
      vertex 5 2.5 -2.5
      vertex 3.68062 2.5 -1.15498
    endloop
  endfacet
  facet normal 0 1 0
    outer loop
      vertex 3.68062 2.5 -1.15498
      vertex 5 2.5 -2.5
      vertex 3.73269 2.5 -1.38795
    endloop
  endfacet
  facet normal 0 1 0
    outer loop
      vertex 3.73269 2.5 -1.38795
      vertex 5 2.5 -2.5
      vertex 3.77004 2.5 -1.62373
    endloop
  endfacet
  facet normal 0 1 0
    outer loop
      vertex 3.77004 2.5 -1.62373
      vertex 5 2.5 -2.5
      vertex 3.7925 2.5 -1.8614
    endloop
  endfacet
  facet normal 0 1 0
    outer loop
      vertex 3.7925 2.5 -1.8614
      vertex 5 2.5 -2.5
      vertex 3.8 2.5 -2.1
    endloop
  endfacet
  facet normal 0 1 0
    outer loop
      vertex 3.8 2.5 -2.1
      vertex 5 2.5 -2.5
      vertex 3.7925 2.5 -2.3386
    endloop
  endfacet
  facet normal 0 1 0
    outer loop
      vertex 3.7925 2.5 -2.3386
      vertex 5 2.5 -2.5
      vertex 3.77725 2.5 -2.5
    endloop
  endfacet
  facet normal 0 1 -0
    outer loop
      vertex -0.238604 2.5 1.6925
      vertex -5 2.5 2.5
      vertex 0 2.5 1.7
    endloop
  endfacet
  facet normal 0 1 -0
    outer loop
      vertex -0.476266 2.5 1.67004
      vertex -5 2.5 2.5
      vertex -0.238604 2.5 1.6925
    endloop
  endfacet
  facet normal 0 1 -0
    outer loop
      vertex -0.712049 2.5 1.63269
      vertex -5 2.5 2.5
      vertex -0.476266 2.5 1.67004
    endloop
  endfacet
  facet normal 0 1 -0
    outer loop
      vertex -0.945021 2.5 1.58062
      vertex -5 2.5 2.5
      vertex -0.712049 2.5 1.63269
    endloop
  endfacet
  facet normal 0 1 -0
    outer loop
      vertex -1.17426 2.5 1.51401
      vertex -5 2.5 2.5
      vertex -0.945021 2.5 1.58062
    endloop
  endfacet
  facet normal 0 1 -0
    outer loop
      vertex -1.39887 2.5 1.43315
      vertex -5 2.5 2.5
      vertex -1.17426 2.5 1.51401
    endloop
  endfacet
  facet normal 0 1 -0
    outer loop
      vertex -1.61796 2.5 1.33834
      vertex -5 2.5 2.5
      vertex -1.39887 2.5 1.43315
    endloop
  endfacet
  facet normal 0 1 -0
    outer loop
      vertex -1.83066 2.5 1.22997
      vertex -5 2.5 2.5
      vertex -1.61796 2.5 1.33834
    endloop
  endfacet
  facet normal 0 1 -0
    outer loop
      vertex -2.03614 2.5 1.10845
      vertex -5 2.5 2.5
      vertex -1.83066 2.5 1.22997
    endloop
  endfacet
  facet normal 0 1 -0
    outer loop
      vertex -2.23358 2.5 0.974264
      vertex -5 2.5 2.5
      vertex -2.03614 2.5 1.10845
    endloop
  endfacet
  facet normal 0 1 -0
    outer loop
      vertex -2.42221 2.5 0.82795
      vertex -5 2.5 2.5
      vertex -2.23358 2.5 0.974264
    endloop
  endfacet
  facet normal 0 1 -0
    outer loop
      vertex -2.60128 2.5 0.67008
      vertex -5 2.5 2.5
      vertex -2.42221 2.5 0.82795
    endloop
  endfacet
  facet normal 0 1 -0
    outer loop
      vertex -2.77008 2.5 0.501279
      vertex -5 2.5 2.5
      vertex -2.60128 2.5 0.67008
    endloop
  endfacet
  facet normal 0 1 -0
    outer loop
      vertex -2.92795 2.5 0.32221
      vertex -5 2.5 2.5
      vertex -2.77008 2.5 0.501279
    endloop
  endfacet
  facet normal 0 1 -0
    outer loop
      vertex -3.07426 2.5 0.133583
      vertex -5 2.5 2.5
      vertex -2.92795 2.5 0.32221
    endloop
  endfacet
  facet normal 0 1 -0
    outer loop
      vertex -3.20845 2.5 -0.063858
      vertex -5 2.5 2.5
      vertex -3.07426 2.5 0.133583
    endloop
  endfacet
  facet normal 0 1 -0
    outer loop
      vertex -3.32996 2.5 -0.269336
      vertex -5 2.5 2.5
      vertex -3.20845 2.5 -0.063858
    endloop
  endfacet
  facet normal 0 1 -0
    outer loop
      vertex -3.43834 2.5 -0.482038
      vertex -5 2.5 2.5
      vertex -3.32996 2.5 -0.269336
    endloop
  endfacet
  facet normal 0 1 -0
    outer loop
      vertex -3.53315 2.5 -0.701126
      vertex -5 2.5 2.5
      vertex -3.43834 2.5 -0.482038
    endloop
  endfacet
  facet normal 0 1 -0
    outer loop
      vertex -3.61401 2.5 -0.925735
      vertex -5 2.5 2.5
      vertex -3.53315 2.5 -0.701126
    endloop
  endfacet
  facet normal 0 1 0
    outer loop
      vertex -5 2.5 -2.5
      vertex -3.61401 2.5 -0.925735
      vertex -3.68062 2.5 -1.15498
    endloop
  endfacet
  facet normal 0 1 0
    outer loop
      vertex -5 2.5 -2.5
      vertex -3.68062 2.5 -1.15498
      vertex -3.73269 2.5 -1.38795
    endloop
  endfacet
  facet normal 0 1 0
    outer loop
      vertex -5 2.5 -2.5
      vertex -3.73269 2.5 -1.38795
      vertex -3.77004 2.5 -1.62373
    endloop
  endfacet
  facet normal 0 1 0
    outer loop
      vertex -5 2.5 -2.5
      vertex -3.77004 2.5 -1.62373
      vertex -3.7925 2.5 -1.8614
    endloop
  endfacet
  facet normal 0 1 0
    outer loop
      vertex -5 2.5 -2.5
      vertex -3.7925 2.5 -1.8614
      vertex -3.8 2.5 -2.1
    endloop
  endfacet
  facet normal 0 1 0
    outer loop
      vertex -5 2.5 -2.5
      vertex -3.8 2.5 -2.1
      vertex -3.7925 2.5 -2.3386
    endloop
  endfacet
  facet normal 0 1 0
    outer loop
      vertex -5 2.5 -2.5
      vertex -3.7925 2.5 -2.3386
      vertex -3.77725 2.5 -2.5
    endloop
  endfacet
  facet normal 0 1 0
    outer loop
      vertex -3.61401 2.5 -0.925735
      vertex -5 2.5 -2.5
      vertex -5 2.5 2.5
    endloop
  endfacet
  facet normal 0 0 -1
    outer loop
      vertex -5 -2.5 -2.5
      vertex -3.77725 2.5 -2.5
      vertex -3.77725 -2.5 -2.5
    endloop
  endfacet
  facet normal -0 0 -1
    outer loop
      vertex -3.77725 2.5 -2.5
      vertex -5 -2.5 -2.5
      vertex -5 2.5 -2.5
    endloop
  endfacet
  facet normal 0 0 -1
    outer loop
      vertex 3.77725 -2.5 -2.5
      vertex 5 2.5 -2.5
      vertex 5 -2.5 -2.5
    endloop
  endfacet
  facet normal -0 0 -1
    outer loop
      vertex 5 2.5 -2.5
      vertex 3.77725 -2.5 -2.5
      vertex 3.77725 2.5 -2.5
    endloop
  endfacet
  facet normal 0 -1 0
    outer loop
      vertex -5 -2.5 2.5
      vertex 0 -2.5 1.7
      vertex 5 -2.5 2.5
    endloop
  endfacet
  facet normal 0 -1 0
    outer loop
      vertex -5 -2.5 2.5
      vertex -0.238604 -2.5 1.6925
      vertex 0 -2.5 1.7
    endloop
  endfacet
  facet normal 0 -1 0
    outer loop
      vertex -5 -2.5 2.5
      vertex -0.476266 -2.5 1.67004
      vertex -0.238604 -2.5 1.6925
    endloop
  endfacet
  facet normal 0 -1 0
    outer loop
      vertex -5 -2.5 2.5
      vertex -0.712049 -2.5 1.63269
      vertex -0.476266 -2.5 1.67004
    endloop
  endfacet
  facet normal 0 -1 0
    outer loop
      vertex -5 -2.5 2.5
      vertex -0.945021 -2.5 1.58062
      vertex -0.712049 -2.5 1.63269
    endloop
  endfacet
  facet normal 0 -1 0
    outer loop
      vertex -5 -2.5 2.5
      vertex -1.17426 -2.5 1.51401
      vertex -0.945021 -2.5 1.58062
    endloop
  endfacet
  facet normal 0 -1 0
    outer loop
      vertex -5 -2.5 2.5
      vertex -1.39887 -2.5 1.43315
      vertex -1.17426 -2.5 1.51401
    endloop
  endfacet
  facet normal 0 -1 0
    outer loop
      vertex -5 -2.5 2.5
      vertex -1.61796 -2.5 1.33834
      vertex -1.39887 -2.5 1.43315
    endloop
  endfacet
  facet normal 0 -1 0
    outer loop
      vertex -5 -2.5 2.5
      vertex -1.83066 -2.5 1.22997
      vertex -1.61796 -2.5 1.33834
    endloop
  endfacet
  facet normal 0 -1 0
    outer loop
      vertex -5 -2.5 2.5
      vertex -2.03614 -2.5 1.10845
      vertex -1.83066 -2.5 1.22997
    endloop
  endfacet
  facet normal 0 -1 0
    outer loop
      vertex -5 -2.5 2.5
      vertex -2.23358 -2.5 0.974264
      vertex -2.03614 -2.5 1.10845
    endloop
  endfacet
  facet normal 0 -1 0
    outer loop
      vertex -5 -2.5 2.5
      vertex -2.42221 -2.5 0.82795
      vertex -2.23358 -2.5 0.974264
    endloop
  endfacet
  facet normal 0 -1 0
    outer loop
      vertex -5 -2.5 2.5
      vertex -2.60128 -2.5 0.67008
      vertex -2.42221 -2.5 0.82795
    endloop
  endfacet
  facet normal 0 -1 0
    outer loop
      vertex -5 -2.5 2.5
      vertex -2.77008 -2.5 0.501279
      vertex -2.60128 -2.5 0.67008
    endloop
  endfacet
  facet normal 0 -1 0
    outer loop
      vertex -5 -2.5 2.5
      vertex -2.92795 -2.5 0.32221
      vertex -2.77008 -2.5 0.501279
    endloop
  endfacet
  facet normal 0 -1 0
    outer loop
      vertex -5 -2.5 2.5
      vertex -3.07426 -2.5 0.133583
      vertex -2.92795 -2.5 0.32221
    endloop
  endfacet
  facet normal 0 -1 0
    outer loop
      vertex -5 -2.5 2.5
      vertex -3.20845 -2.5 -0.063858
      vertex -3.07426 -2.5 0.133583
    endloop
  endfacet
  facet normal 0 -1 0
    outer loop
      vertex -5 -2.5 2.5
      vertex -3.32996 -2.5 -0.269336
      vertex -3.20845 -2.5 -0.063858
    endloop
  endfacet
  facet normal 0 -1 0
    outer loop
      vertex -5 -2.5 2.5
      vertex -3.43834 -2.5 -0.482038
      vertex -3.32996 -2.5 -0.269336
    endloop
  endfacet
  facet normal 0 -1 0
    outer loop
      vertex -5 -2.5 2.5
      vertex -3.53315 -2.5 -0.701126
      vertex -3.43834 -2.5 -0.482038
    endloop
  endfacet
  facet normal 0 -1 0
    outer loop
      vertex -5 -2.5 2.5
      vertex -3.61401 -2.5 -0.925735
      vertex -3.53315 -2.5 -0.701126
    endloop
  endfacet
  facet normal 0 -1 0
    outer loop
      vertex -5 -2.5 -2.5
      vertex -3.61401 -2.5 -0.925735
      vertex -5 -2.5 2.5
    endloop
  endfacet
  facet normal 0 -1 0
    outer loop
      vertex -3.61401 -2.5 -0.925735
      vertex -5 -2.5 -2.5
      vertex -3.68062 -2.5 -1.15498
    endloop
  endfacet
  facet normal 0 -1 0
    outer loop
      vertex -3.68062 -2.5 -1.15498
      vertex -5 -2.5 -2.5
      vertex -3.73269 -2.5 -1.38795
    endloop
  endfacet
  facet normal 0 -1 0
    outer loop
      vertex -3.73269 -2.5 -1.38795
      vertex -5 -2.5 -2.5
      vertex -3.77004 -2.5 -1.62373
    endloop
  endfacet
  facet normal 0 -1 0
    outer loop
      vertex -3.77004 -2.5 -1.62373
      vertex -5 -2.5 -2.5
      vertex -3.7925 -2.5 -1.8614
    endloop
  endfacet
  facet normal 0 -1 0
    outer loop
      vertex -3.7925 -2.5 -1.8614
      vertex -5 -2.5 -2.5
      vertex -3.8 -2.5 -2.1
    endloop
  endfacet
  facet normal 0 -1 -0
    outer loop
      vertex -3.8 -2.5 -2.1
      vertex -5 -2.5 -2.5
      vertex -3.7925 -2.5 -2.3386
    endloop
  endfacet
  facet normal 0 -1 -0
    outer loop
      vertex -3.7925 -2.5 -2.3386
      vertex -5 -2.5 -2.5
      vertex -3.77725 -2.5 -2.5
    endloop
  endfacet
  facet normal 0 -1 0
    outer loop
      vertex 0.238604 -2.5 1.6925
      vertex 5 -2.5 2.5
      vertex 0 -2.5 1.7
    endloop
  endfacet
  facet normal 0 -1 0
    outer loop
      vertex 0.476266 -2.5 1.67004
      vertex 5 -2.5 2.5
      vertex 0.238604 -2.5 1.6925
    endloop
  endfacet
  facet normal 0 -1 0
    outer loop
      vertex 0.712049 -2.5 1.63269
      vertex 5 -2.5 2.5
      vertex 0.476266 -2.5 1.67004
    endloop
  endfacet
  facet normal 0 -1 0
    outer loop
      vertex 0.945021 -2.5 1.58062
      vertex 5 -2.5 2.5
      vertex 0.712049 -2.5 1.63269
    endloop
  endfacet
  facet normal 0 -1 0
    outer loop
      vertex 1.17426 -2.5 1.51401
      vertex 5 -2.5 2.5
      vertex 0.945021 -2.5 1.58062
    endloop
  endfacet
  facet normal 0 -1 0
    outer loop
      vertex 1.39887 -2.5 1.43315
      vertex 5 -2.5 2.5
      vertex 1.17426 -2.5 1.51401
    endloop
  endfacet
  facet normal 0 -1 0
    outer loop
      vertex 1.61796 -2.5 1.33834
      vertex 5 -2.5 2.5
      vertex 1.39887 -2.5 1.43315
    endloop
  endfacet
  facet normal 0 -1 0
    outer loop
      vertex 1.83066 -2.5 1.22997
      vertex 5 -2.5 2.5
      vertex 1.61796 -2.5 1.33834
    endloop
  endfacet
  facet normal 0 -1 0
    outer loop
      vertex 2.03614 -2.5 1.10845
      vertex 5 -2.5 2.5
      vertex 1.83066 -2.5 1.22997
    endloop
  endfacet
  facet normal 0 -1 0
    outer loop
      vertex 2.23358 -2.5 0.974264
      vertex 5 -2.5 2.5
      vertex 2.03614 -2.5 1.10845
    endloop
  endfacet
  facet normal 0 -1 0
    outer loop
      vertex 2.42221 -2.5 0.82795
      vertex 5 -2.5 2.5
      vertex 2.23358 -2.5 0.974264
    endloop
  endfacet
  facet normal 0 -1 0
    outer loop
      vertex 2.60128 -2.5 0.67008
      vertex 5 -2.5 2.5
      vertex 2.42221 -2.5 0.82795
    endloop
  endfacet
  facet normal 0 -1 0
    outer loop
      vertex 2.77008 -2.5 0.501279
      vertex 5 -2.5 2.5
      vertex 2.60128 -2.5 0.67008
    endloop
  endfacet
  facet normal 0 -1 0
    outer loop
      vertex 2.92795 -2.5 0.32221
      vertex 5 -2.5 2.5
      vertex 2.77008 -2.5 0.501279
    endloop
  endfacet
  facet normal 0 -1 0
    outer loop
      vertex 3.07426 -2.5 0.133583
      vertex 5 -2.5 2.5
      vertex 2.92795 -2.5 0.32221
    endloop
  endfacet
  facet normal 0 -1 0
    outer loop
      vertex 3.20845 -2.5 -0.063858
      vertex 5 -2.5 2.5
      vertex 3.07426 -2.5 0.133583
    endloop
  endfacet
  facet normal 0 -1 0
    outer loop
      vertex 3.32996 -2.5 -0.269336
      vertex 5 -2.5 2.5
      vertex 3.20845 -2.5 -0.063858
    endloop
  endfacet
  facet normal 0 -1 0
    outer loop
      vertex 3.43834 -2.5 -0.482038
      vertex 5 -2.5 2.5
      vertex 3.32996 -2.5 -0.269336
    endloop
  endfacet
  facet normal 0 -1 0
    outer loop
      vertex 3.53315 -2.5 -0.701126
      vertex 5 -2.5 2.5
      vertex 3.43834 -2.5 -0.482038
    endloop
  endfacet
  facet normal 0 -1 0
    outer loop
      vertex 3.61401 -2.5 -0.925735
      vertex 5 -2.5 2.5
      vertex 3.53315 -2.5 -0.701126
    endloop
  endfacet
  facet normal 0 -1 0
    outer loop
      vertex 5 -2.5 -2.5
      vertex 3.61401 -2.5 -0.925735
      vertex 3.68062 -2.5 -1.15498
    endloop
  endfacet
  facet normal 0 -1 0
    outer loop
      vertex 5 -2.5 -2.5
      vertex 3.68062 -2.5 -1.15498
      vertex 3.73269 -2.5 -1.38795
    endloop
  endfacet
  facet normal 0 -1 0
    outer loop
      vertex 5 -2.5 -2.5
      vertex 3.73269 -2.5 -1.38795
      vertex 3.77004 -2.5 -1.62373
    endloop
  endfacet
  facet normal 0 -1 0
    outer loop
      vertex 5 -2.5 -2.5
      vertex 3.77004 -2.5 -1.62373
      vertex 3.7925 -2.5 -1.8614
    endloop
  endfacet
  facet normal 0 -1 0
    outer loop
      vertex 5 -2.5 -2.5
      vertex 3.7925 -2.5 -1.8614
      vertex 3.8 -2.5 -2.1
    endloop
  endfacet
  facet normal 0 -1 0
    outer loop
      vertex 5 -2.5 -2.5
      vertex 3.8 -2.5 -2.1
      vertex 3.7925 -2.5 -2.3386
    endloop
  endfacet
  facet normal 0 -1 0
    outer loop
      vertex 5 -2.5 -2.5
      vertex 3.7925 -2.5 -2.3386
      vertex 3.77725 -2.5 -2.5
    endloop
  endfacet
  facet normal 0 -1 0
    outer loop
      vertex 3.61401 -2.5 -0.925735
      vertex 5 -2.5 -2.5
      vertex 5 -2.5 2.5
    endloop
  endfacet
  facet normal -0.999507 0 -0.0314081
    outer loop
      vertex 3.8 -2.5 -2.1
      vertex 3.7925 2.5 -1.8614
      vertex 3.8 2.5 -2.1
    endloop
  endfacet
  facet normal -0.999507 -0 -0.0314081
    outer loop
      vertex 3.7925 2.5 -1.8614
      vertex 3.8 -2.5 -2.1
      vertex 3.7925 -2.5 -1.8614
    endloop
  endfacet
  facet normal -0.995562 0 -0.0941083
    outer loop
      vertex 3.7925 -2.5 -1.8614
      vertex 3.77004 2.5 -1.62373
      vertex 3.7925 2.5 -1.8614
    endloop
  endfacet
  facet normal -0.995562 -0 -0.0941083
    outer loop
      vertex 3.77004 2.5 -1.62373
      vertex 3.7925 -2.5 -1.8614
      vertex 3.77004 -2.5 -1.62373
    endloop
  endfacet
  facet normal 0.0314121 0 -0.999507
    outer loop
      vertex -0.238604 -2.5 1.6925
      vertex 0 2.5 1.7
      vertex 0 -2.5 1.7
    endloop
  endfacet
  facet normal 0.0314121 0 -0.999507
    outer loop
      vertex 0 2.5 1.7
      vertex -0.238604 -2.5 1.6925
      vertex -0.238604 2.5 1.6925
    endloop
  endfacet
  facet normal 0.995562 0 -0.0941083
    outer loop
      vertex -3.77004 -2.5 -1.62373
      vertex -3.7925 2.5 -1.8614
      vertex -3.77004 2.5 -1.62373
    endloop
  endfacet
  facet normal 0.995562 0 -0.0941083
    outer loop
      vertex -3.7925 2.5 -1.8614
      vertex -3.77004 -2.5 -1.62373
      vertex -3.7925 -2.5 -1.8614
    endloop
  endfacet
  facet normal -0.661312 0 -0.750111
    outer loop
      vertex 2.42221 -2.5 0.82795
      vertex 2.60128 2.5 0.67008
      vertex 2.60128 -2.5 0.67008
    endloop
  endfacet
  facet normal -0.661312 0 -0.750111
    outer loop
      vertex 2.60128 2.5 0.67008
      vertex 2.42221 -2.5 0.82795
      vertex 2.42221 2.5 0.82795
    endloop
  endfacet
  facet normal -0.891007 0 -0.45399
    outer loop
      vertex 3.43834 -2.5 -0.482038
      vertex 3.32996 2.5 -0.269336
      vertex 3.43834 2.5 -0.482038
    endloop
  endfacet
  facet normal -0.891007 -0 -0.45399
    outer loop
      vertex 3.32996 2.5 -0.269336
      vertex 3.43834 -2.5 -0.482038
      vertex 3.32996 -2.5 -0.269336
    endloop
  endfacet
  facet normal -0.338738 0 -0.940881
    outer loop
      vertex 1.17426 -2.5 1.51401
      vertex 1.39887 2.5 1.43315
      vertex 1.39887 -2.5 1.43315
    endloop
  endfacet
  facet normal -0.338738 0 -0.940881
    outer loop
      vertex 1.39887 2.5 1.43315
      vertex 1.17426 -2.5 1.51401
      vertex 1.17426 2.5 1.51401
    endloop
  endfacet
  facet normal -0.509044 0 -0.86074
    outer loop
      vertex 1.83066 -2.5 1.22997
      vertex 2.03614 2.5 1.10845
      vertex 2.03614 -2.5 1.10845
    endloop
  endfacet
  facet normal -0.509044 0 -0.86074
    outer loop
      vertex 2.03614 2.5 1.10845
      vertex 1.83066 -2.5 1.22997
      vertex 1.83066 2.5 1.22997
    endloop
  endfacet
  facet normal -0.960294 0 -0.278989
    outer loop
      vertex 3.68062 -2.5 -1.15498
      vertex 3.61401 2.5 -0.925735
      vertex 3.68062 2.5 -1.15498
    endloop
  endfacet
  facet normal -0.960294 -0 -0.278989
    outer loop
      vertex 3.61401 2.5 -0.925735
      vertex 3.68062 -2.5 -1.15498
      vertex 3.61401 -2.5 -0.925735
    endloop
  endfacet
  facet normal -0.790154 0 -0.612908
    outer loop
      vertex 3.07426 -2.5 0.133583
      vertex 2.92795 2.5 0.32221
      vertex 3.07426 2.5 0.133583
    endloop
  endfacet
  facet normal -0.790154 -0 -0.612908
    outer loop
      vertex 2.92795 2.5 0.32221
      vertex 3.07426 -2.5 0.133583
      vertex 2.92795 -2.5 0.32221
    endloop
  endfacet
  facet normal -0.860742 0 -0.509041
    outer loop
      vertex 3.32996 -2.5 -0.269336
      vertex 3.20845 2.5 -0.063858
      vertex 3.32996 2.5 -0.269336
    endloop
  endfacet
  facet normal -0.860742 -0 -0.509041
    outer loop
      vertex 3.20845 2.5 -0.063858
      vertex 3.32996 -2.5 -0.269336
      vertex 3.20845 -2.5 -0.063858
    endloop
  endfacet
  facet normal -0.156433 0 -0.987689
    outer loop
      vertex 0.476266 -2.5 1.67004
      vertex 0.712049 2.5 1.63269
      vertex 0.712049 -2.5 1.63269
    endloop
  endfacet
  facet normal -0.156433 0 -0.987689
    outer loop
      vertex 0.712049 2.5 1.63269
      vertex 0.476266 -2.5 1.67004
      vertex 0.476266 2.5 1.67004
    endloop
  endfacet
  facet normal -0.278993 0 -0.960293
    outer loop
      vertex 0.945021 -2.5 1.58062
      vertex 1.17426 2.5 1.51401
      vertex 1.17426 -2.5 1.51401
    endloop
  endfacet
  facet normal -0.278993 0 -0.960293
    outer loop
      vertex 1.17426 2.5 1.51401
      vertex 0.945021 -2.5 1.58062
      vertex 0.945021 2.5 1.58062
    endloop
  endfacet
  facet normal -0.612908 0 -0.790154
    outer loop
      vertex 2.23358 -2.5 0.974264
      vertex 2.42221 2.5 0.82795
      vertex 2.42221 -2.5 0.82795
    endloop
  endfacet
  facet normal -0.612908 0 -0.790154
    outer loop
      vertex 2.42221 2.5 0.82795
      vertex 2.23358 -2.5 0.974264
      vertex 2.23358 2.5 0.974264
    endloop
  endfacet
  facet normal -0.995562 0 0.0941082
    outer loop
      vertex 3.77725 -2.5 -2.5
      vertex 3.7925 2.5 -2.3386
      vertex 3.77725 2.5 -2.5
    endloop
  endfacet
  facet normal -0.995562 0 0.0941082
    outer loop
      vertex 3.7925 2.5 -2.3386
      vertex 3.77725 -2.5 -2.5
      vertex 3.7925 -2.5 -2.3386
    endloop
  endfacet
  facet normal -0.987688 0 -0.156437
    outer loop
      vertex 3.77004 -2.5 -1.62373
      vertex 3.73269 2.5 -1.38795
      vertex 3.77004 2.5 -1.62373
    endloop
  endfacet
  facet normal -0.987688 -0 -0.156437
    outer loop
      vertex 3.73269 2.5 -1.38795
      vertex 3.77004 -2.5 -1.62373
      vertex 3.73269 -2.5 -1.38795
    endloop
  endfacet
  facet normal -0.917755 0 -0.397148
    outer loop
      vertex 3.53315 -2.5 -0.701126
      vertex 3.43834 2.5 -0.482038
      vertex 3.53315 2.5 -0.701126
    endloop
  endfacet
  facet normal -0.917755 -0 -0.397148
    outer loop
      vertex 3.43834 2.5 -0.482038
      vertex 3.53315 -2.5 -0.701126
      vertex 3.43834 -2.5 -0.482038
    endloop
  endfacet
  facet normal -0.94088 0 -0.338741
    outer loop
      vertex 3.61401 -2.5 -0.925735
      vertex 3.53315 2.5 -0.701126
      vertex 3.61401 2.5 -0.925735
    endloop
  endfacet
  facet normal -0.94088 -0 -0.338741
    outer loop
      vertex 3.53315 2.5 -0.701126
      vertex 3.61401 -2.5 -0.925735
      vertex 3.53315 -2.5 -0.701126
    endloop
  endfacet
  facet normal -0.750113 0 -0.66131
    outer loop
      vertex 2.92795 -2.5 0.32221
      vertex 2.77008 2.5 0.501279
      vertex 2.92795 2.5 0.32221
    endloop
  endfacet
  facet normal -0.750113 -0 -0.66131
    outer loop
      vertex 2.77008 2.5 0.501279
      vertex 2.92795 -2.5 0.32221
      vertex 2.77008 -2.5 0.501279
    endloop
  endfacet
  facet normal -0.0941083 0 -0.995562
    outer loop
      vertex 0.238604 -2.5 1.6925
      vertex 0.476266 2.5 1.67004
      vertex 0.476266 -2.5 1.67004
    endloop
  endfacet
  facet normal -0.0941083 0 -0.995562
    outer loop
      vertex 0.476266 2.5 1.67004
      vertex 0.238604 -2.5 1.6925
      vertex 0.238604 2.5 1.6925
    endloop
  endfacet
  facet normal -0.0314121 0 -0.999507
    outer loop
      vertex 0 -2.5 1.7
      vertex 0.238604 2.5 1.6925
      vertex 0.238604 -2.5 1.6925
    endloop
  endfacet
  facet normal -0.0314121 0 -0.999507
    outer loop
      vertex 0.238604 2.5 1.6925
      vertex 0 -2.5 1.7
      vertex 0 2.5 1.7
    endloop
  endfacet
  facet normal -0.45399 0 -0.891007
    outer loop
      vertex 1.61796 -2.5 1.33834
      vertex 1.83066 2.5 1.22997
      vertex 1.83066 -2.5 1.22997
    endloop
  endfacet
  facet normal -0.45399 0 -0.891007
    outer loop
      vertex 1.83066 2.5 1.22997
      vertex 1.61796 -2.5 1.33834
      vertex 1.61796 2.5 1.33834
    endloop
  endfacet
  facet normal 0.82708 0 -0.562084
    outer loop
      vertex -3.07426 -2.5 0.133583
      vertex -3.20845 2.5 -0.063858
      vertex -3.07426 2.5 0.133583
    endloop
  endfacet
  facet normal 0.82708 0 -0.562084
    outer loop
      vertex -3.20845 2.5 -0.063858
      vertex -3.07426 -2.5 0.133583
      vertex -3.20845 -2.5 -0.063858
    endloop
  endfacet
  facet normal 0.218143 0 -0.975917
    outer loop
      vertex -0.945021 -2.5 1.58062
      vertex -0.712049 2.5 1.63269
      vertex -0.712049 -2.5 1.63269
    endloop
  endfacet
  facet normal 0.218143 0 -0.975917
    outer loop
      vertex -0.712049 2.5 1.63269
      vertex -0.945021 -2.5 1.58062
      vertex -0.945021 2.5 1.58062
    endloop
  endfacet
  facet normal 0.397146 0 -0.917755
    outer loop
      vertex -1.61796 -2.5 1.33834
      vertex -1.39887 2.5 1.43315
      vertex -1.39887 -2.5 1.43315
    endloop
  endfacet
  facet normal 0.397146 0 -0.917755
    outer loop
      vertex -1.39887 2.5 1.43315
      vertex -1.61796 -2.5 1.33834
      vertex -1.61796 2.5 1.33834
    endloop
  endfacet
  facet normal -0.999507 0 0.031408
    outer loop
      vertex 3.7925 -2.5 -2.3386
      vertex 3.8 2.5 -2.1
      vertex 3.7925 2.5 -2.3386
    endloop
  endfacet
  facet normal -0.999507 0 0.031408
    outer loop
      vertex 3.8 2.5 -2.1
      vertex 3.7925 -2.5 -2.3386
      vertex 3.8 -2.5 -2.1
    endloop
  endfacet
  facet normal 0.995562 -0 0.0941082
    outer loop
      vertex -3.7925 -2.5 -2.3386
      vertex -3.77725 2.5 -2.5
      vertex -3.7925 2.5 -2.3386
    endloop
  endfacet
  facet normal 0.995562 0 0.0941082
    outer loop
      vertex -3.77725 2.5 -2.5
      vertex -3.7925 -2.5 -2.3386
      vertex -3.77725 -2.5 -2.5
    endloop
  endfacet
  facet normal -0.975917 0 -0.218142
    outer loop
      vertex 3.73269 -2.5 -1.38795
      vertex 3.68062 2.5 -1.15498
      vertex 3.73269 2.5 -1.38795
    endloop
  endfacet
  facet normal -0.975917 -0 -0.218142
    outer loop
      vertex 3.68062 2.5 -1.15498
      vertex 3.73269 -2.5 -1.38795
      vertex 3.68062 -2.5 -1.15498
    endloop
  endfacet
  facet normal -0.707105 0 -0.707109
    outer loop
      vertex 2.60128 -2.5 0.67008
      vertex 2.77008 2.5 0.501279
      vertex 2.77008 -2.5 0.501279
    endloop
  endfacet
  facet normal -0.707105 0 -0.707109
    outer loop
      vertex 2.77008 2.5 0.501279
      vertex 2.60128 -2.5 0.67008
      vertex 2.60128 2.5 0.67008
    endloop
  endfacet
  facet normal -0.82708 0 -0.562084
    outer loop
      vertex 3.20845 -2.5 -0.063858
      vertex 3.07426 2.5 0.133583
      vertex 3.20845 2.5 -0.063858
    endloop
  endfacet
  facet normal -0.82708 -0 -0.562084
    outer loop
      vertex 3.07426 2.5 0.133583
      vertex 3.20845 -2.5 -0.063858
      vertex 3.07426 -2.5 0.133583
    endloop
  endfacet
  facet normal -0.218143 0 -0.975917
    outer loop
      vertex 0.712049 -2.5 1.63269
      vertex 0.945021 2.5 1.58062
      vertex 0.945021 -2.5 1.58062
    endloop
  endfacet
  facet normal -0.218143 0 -0.975917
    outer loop
      vertex 0.945021 2.5 1.58062
      vertex 0.712049 -2.5 1.63269
      vertex 0.712049 2.5 1.63269
    endloop
  endfacet
  facet normal -0.397146 0 -0.917755
    outer loop
      vertex 1.39887 -2.5 1.43315
      vertex 1.61796 2.5 1.33834
      vertex 1.61796 -2.5 1.33834
    endloop
  endfacet
  facet normal -0.397146 0 -0.917755
    outer loop
      vertex 1.61796 2.5 1.33834
      vertex 1.39887 -2.5 1.43315
      vertex 1.39887 2.5 1.43315
    endloop
  endfacet
  facet normal -0.562082 0 -0.827081
    outer loop
      vertex 2.03614 -2.5 1.10845
      vertex 2.23358 2.5 0.974264
      vertex 2.23358 -2.5 0.974264
    endloop
  endfacet
  facet normal -0.562082 0 -0.827081
    outer loop
      vertex 2.23358 2.5 0.974264
      vertex 2.03614 -2.5 1.10845
      vertex 2.03614 2.5 1.10845
    endloop
  endfacet
  facet normal 0.94088 0 -0.338741
    outer loop
      vertex -3.53315 -2.5 -0.701126
      vertex -3.61401 2.5 -0.925735
      vertex -3.53315 2.5 -0.701126
    endloop
  endfacet
  facet normal 0.94088 0 -0.338741
    outer loop
      vertex -3.61401 2.5 -0.925735
      vertex -3.53315 -2.5 -0.701126
      vertex -3.61401 -2.5 -0.925735
    endloop
  endfacet
  facet normal 0.891007 0 -0.45399
    outer loop
      vertex -3.32996 -2.5 -0.269336
      vertex -3.43834 2.5 -0.482038
      vertex -3.32996 2.5 -0.269336
    endloop
  endfacet
  facet normal 0.891007 0 -0.45399
    outer loop
      vertex -3.43834 2.5 -0.482038
      vertex -3.32996 -2.5 -0.269336
      vertex -3.43834 -2.5 -0.482038
    endloop
  endfacet
  facet normal 0.790154 0 -0.612908
    outer loop
      vertex -2.92795 -2.5 0.32221
      vertex -3.07426 2.5 0.133583
      vertex -2.92795 2.5 0.32221
    endloop
  endfacet
  facet normal 0.790154 0 -0.612908
    outer loop
      vertex -3.07426 2.5 0.133583
      vertex -2.92795 -2.5 0.32221
      vertex -3.07426 -2.5 0.133583
    endloop
  endfacet
  facet normal 0.987688 0 -0.156437
    outer loop
      vertex -3.73269 -2.5 -1.38795
      vertex -3.77004 2.5 -1.62373
      vertex -3.73269 2.5 -1.38795
    endloop
  endfacet
  facet normal 0.987688 0 -0.156437
    outer loop
      vertex -3.77004 2.5 -1.62373
      vertex -3.73269 -2.5 -1.38795
      vertex -3.77004 -2.5 -1.62373
    endloop
  endfacet
  facet normal 0.960294 0 -0.278989
    outer loop
      vertex -3.61401 -2.5 -0.925735
      vertex -3.68062 2.5 -1.15498
      vertex -3.61401 2.5 -0.925735
    endloop
  endfacet
  facet normal 0.960294 0 -0.278989
    outer loop
      vertex -3.68062 2.5 -1.15498
      vertex -3.61401 -2.5 -0.925735
      vertex -3.68062 -2.5 -1.15498
    endloop
  endfacet
  facet normal 0.999507 0 -0.0314081
    outer loop
      vertex -3.7925 -2.5 -1.8614
      vertex -3.8 2.5 -2.1
      vertex -3.7925 2.5 -1.8614
    endloop
  endfacet
  facet normal 0.999507 0 -0.0314081
    outer loop
      vertex -3.8 2.5 -2.1
      vertex -3.7925 -2.5 -1.8614
      vertex -3.8 -2.5 -2.1
    endloop
  endfacet
  facet normal 0.999507 -0 0.031408
    outer loop
      vertex -3.8 -2.5 -2.1
      vertex -3.7925 2.5 -2.3386
      vertex -3.8 2.5 -2.1
    endloop
  endfacet
  facet normal 0.999507 0 0.031408
    outer loop
      vertex -3.7925 2.5 -2.3386
      vertex -3.8 -2.5 -2.1
      vertex -3.7925 -2.5 -2.3386
    endloop
  endfacet
  facet normal 0.562082 0 -0.827081
    outer loop
      vertex -2.23358 -2.5 0.974264
      vertex -2.03614 2.5 1.10845
      vertex -2.03614 -2.5 1.10845
    endloop
  endfacet
  facet normal 0.562082 0 -0.827081
    outer loop
      vertex -2.03614 2.5 1.10845
      vertex -2.23358 -2.5 0.974264
      vertex -2.23358 2.5 0.974264
    endloop
  endfacet
  facet normal 0.45399 0 -0.891007
    outer loop
      vertex -1.83066 -2.5 1.22997
      vertex -1.61796 2.5 1.33834
      vertex -1.61796 -2.5 1.33834
    endloop
  endfacet
  facet normal 0.45399 0 -0.891007
    outer loop
      vertex -1.61796 2.5 1.33834
      vertex -1.83066 -2.5 1.22997
      vertex -1.83066 2.5 1.22997
    endloop
  endfacet
  facet normal 0.612908 0 -0.790154
    outer loop
      vertex -2.42221 -2.5 0.82795
      vertex -2.23358 2.5 0.974264
      vertex -2.23358 -2.5 0.974264
    endloop
  endfacet
  facet normal 0.612908 0 -0.790154
    outer loop
      vertex -2.23358 2.5 0.974264
      vertex -2.42221 -2.5 0.82795
      vertex -2.42221 2.5 0.82795
    endloop
  endfacet
  facet normal 0.707105 0 -0.707109
    outer loop
      vertex -2.77008 -2.5 0.501279
      vertex -2.60128 2.5 0.67008
      vertex -2.60128 -2.5 0.67008
    endloop
  endfacet
  facet normal 0.707105 0 -0.707109
    outer loop
      vertex -2.60128 2.5 0.67008
      vertex -2.77008 -2.5 0.501279
      vertex -2.77008 2.5 0.501279
    endloop
  endfacet
  facet normal 0.338738 0 -0.940881
    outer loop
      vertex -1.39887 -2.5 1.43315
      vertex -1.17426 2.5 1.51401
      vertex -1.17426 -2.5 1.51401
    endloop
  endfacet
  facet normal 0.338738 0 -0.940881
    outer loop
      vertex -1.17426 2.5 1.51401
      vertex -1.39887 -2.5 1.43315
      vertex -1.39887 2.5 1.43315
    endloop
  endfacet
  facet normal 0.156433 0 -0.987689
    outer loop
      vertex -0.712049 -2.5 1.63269
      vertex -0.476266 2.5 1.67004
      vertex -0.476266 -2.5 1.67004
    endloop
  endfacet
  facet normal 0.156433 0 -0.987689
    outer loop
      vertex -0.476266 2.5 1.67004
      vertex -0.712049 -2.5 1.63269
      vertex -0.712049 2.5 1.63269
    endloop
  endfacet
  facet normal 0.0941083 0 -0.995562
    outer loop
      vertex -0.476266 -2.5 1.67004
      vertex -0.238604 2.5 1.6925
      vertex -0.238604 -2.5 1.6925
    endloop
  endfacet
  facet normal 0.0941083 0 -0.995562
    outer loop
      vertex -0.238604 2.5 1.6925
      vertex -0.476266 -2.5 1.67004
      vertex -0.476266 2.5 1.67004
    endloop
  endfacet
  facet normal 0.917755 0 -0.397148
    outer loop
      vertex -3.43834 -2.5 -0.482038
      vertex -3.53315 2.5 -0.701126
      vertex -3.43834 2.5 -0.482038
    endloop
  endfacet
  facet normal 0.917755 0 -0.397148
    outer loop
      vertex -3.53315 2.5 -0.701126
      vertex -3.43834 -2.5 -0.482038
      vertex -3.53315 -2.5 -0.701126
    endloop
  endfacet
  facet normal 0.860742 0 -0.509041
    outer loop
      vertex -3.20845 -2.5 -0.063858
      vertex -3.32996 2.5 -0.269336
      vertex -3.20845 2.5 -0.063858
    endloop
  endfacet
  facet normal 0.860742 0 -0.509041
    outer loop
      vertex -3.32996 2.5 -0.269336
      vertex -3.20845 -2.5 -0.063858
      vertex -3.32996 -2.5 -0.269336
    endloop
  endfacet
  facet normal 0.750113 0 -0.66131
    outer loop
      vertex -2.77008 -2.5 0.501279
      vertex -2.92795 2.5 0.32221
      vertex -2.77008 2.5 0.501279
    endloop
  endfacet
  facet normal 0.750113 0 -0.66131
    outer loop
      vertex -2.92795 2.5 0.32221
      vertex -2.77008 -2.5 0.501279
      vertex -2.92795 -2.5 0.32221
    endloop
  endfacet
  facet normal 0.975917 0 -0.218142
    outer loop
      vertex -3.68062 -2.5 -1.15498
      vertex -3.73269 2.5 -1.38795
      vertex -3.68062 2.5 -1.15498
    endloop
  endfacet
  facet normal 0.975917 0 -0.218142
    outer loop
      vertex -3.73269 2.5 -1.38795
      vertex -3.68062 -2.5 -1.15498
      vertex -3.73269 -2.5 -1.38795
    endloop
  endfacet
  facet normal 0.509044 0 -0.86074
    outer loop
      vertex -2.03614 -2.5 1.10845
      vertex -1.83066 2.5 1.22997
      vertex -1.83066 -2.5 1.22997
    endloop
  endfacet
  facet normal 0.509044 0 -0.86074
    outer loop
      vertex -1.83066 2.5 1.22997
      vertex -2.03614 -2.5 1.10845
      vertex -2.03614 2.5 1.10845
    endloop
  endfacet
  facet normal 0.661312 0 -0.750111
    outer loop
      vertex -2.60128 -2.5 0.67008
      vertex -2.42221 2.5 0.82795
      vertex -2.42221 -2.5 0.82795
    endloop
  endfacet
  facet normal 0.661312 0 -0.750111
    outer loop
      vertex -2.42221 2.5 0.82795
      vertex -2.60128 -2.5 0.67008
      vertex -2.60128 2.5 0.67008
    endloop
  endfacet
  facet normal 0.278993 0 -0.960293
    outer loop
      vertex -1.17426 -2.5 1.51401
      vertex -0.945021 2.5 1.58062
      vertex -0.945021 -2.5 1.58062
    endloop
  endfacet
  facet normal 0.278993 0 -0.960293
    outer loop
      vertex -0.945021 2.5 1.58062
      vertex -1.17426 -2.5 1.51401
      vertex -1.17426 2.5 1.51401
    endloop
  endfacet
endsolid OpenSCAD_Model
