solid OpenSCAD_Model
  facet normal -1 0 0
    outer loop
      vertex -5 -2.5 -2.5
      vertex -5 2.5 2.5
      vertex -5 2.5 -2.5
    endloop
  endfacet
  facet normal -1 -0 0
    outer loop
      vertex -5 2.5 2.5
      vertex -5 -2.5 -2.5
      vertex -5 -2.5 2.5
    endloop
  endfacet
  facet normal -0 0 1
    outer loop
      vertex -5 2.5 2.5
      vertex 5 -2.5 2.5
      vertex 5 2.5 2.5
    endloop
  endfacet
  facet normal 0 0 1
    outer loop
      vertex 5 -2.5 2.5
      vertex -5 2.5 2.5
      vertex -5 -2.5 2.5
    endloop
  endfacet
  facet normal 1 -0 0
    outer loop
      vertex 5 -2.5 2.5
      vertex 5 2.5 -2.5
      vertex 5 2.5 2.5
    endloop
  endfacet
  facet normal 1 0 0
    outer loop
      vertex 5 2.5 -2.5
      vertex 5 -2.5 2.5
      vertex 5 -2.5 -2.5
    endloop
  endfacet
  facet normal 0 1 0
    outer loop
      vertex 5 2.5 2.5
      vertex 0 2.5 1.4
      vertex -5 2.5 2.5
    endloop
  endfacet
  facet normal 0 1 0
    outer loop
      vertex 5 2.5 2.5
      vertex 0.213488 2.5 1.39329
      vertex 0 2.5 1.4
    endloop
  endfacet
  facet normal 0 1 0
    outer loop
      vertex 5 2.5 2.5
      vertex 0.426132 2.5 1.37319
      vertex 0.213488 2.5 1.39329
    endloop
  endfacet
  facet normal 0 1 0
    outer loop
      vertex 5 2.5 2.5
      vertex 0.637096 2.5 1.33978
      vertex 0.426132 2.5 1.37319
    endloop
  endfacet
  facet normal 0 1 0
    outer loop
      vertex 5 2.5 2.5
      vertex 0.845545 2.5 1.29318
      vertex 0.637096 2.5 1.33978
    endloop
  endfacet
  facet normal 0 1 0
    outer loop
      vertex 5 2.5 2.5
      vertex 1.05066 2.5 1.23359
      vertex 0.845545 2.5 1.29318
    endloop
  endfacet
  facet normal 0 1 0
    outer loop
      vertex 5 2.5 2.5
      vertex 1.25162 2.5 1.16124
      vertex 1.05066 2.5 1.23359
    endloop
  endfacet
  facet normal 0 1 0
    outer loop
      vertex 5 2.5 2.5
      vertex 1.44765 2.5 1.07641
      vertex 1.25162 2.5 1.16124
    endloop
  endfacet
  facet normal 0 1 0
    outer loop
      vertex 5 2.5 2.5
      vertex 1.63796 2.5 0.979443
      vertex 1.44765 2.5 1.07641
    endloop
  endfacet
  facet normal 0 1 0
    outer loop
      vertex 5 2.5 2.5
      vertex 1.82181 2.5 0.870714
      vertex 1.63796 2.5 0.979443
    endloop
  endfacet
  facet normal 0 1 0
    outer loop
      vertex 5 2.5 2.5
      vertex 1.99847 2.5 0.750657
      vertex 1.82181 2.5 0.870714
    endloop
  endfacet
  facet normal 0 1 0
    outer loop
      vertex 5 2.5 2.5
      vertex 2.16724 2.5 0.619744
      vertex 1.99847 2.5 0.750657
    endloop
  endfacet
  facet normal 0 1 0
    outer loop
      vertex 5 2.5 2.5
      vertex 2.32746 2.5 0.478493
      vertex 2.16724 2.5 0.619744
    endloop
  endfacet
  facet normal 0 1 0
    outer loop
      vertex 5 2.5 2.5
      vertex 2.47849 2.5 0.327459
      vertex 2.32746 2.5 0.478493
    endloop
  endfacet
  facet normal 0 1 0
    outer loop
      vertex 5 2.5 2.5
      vertex 2.61974 2.5 0.167241
      vertex 2.47849 2.5 0.327459
    endloop
  endfacet
  facet normal 0 1 0
    outer loop
      vertex 5 2.5 2.5
      vertex 2.75066 2.5 -0.00152969
      vertex 2.61974 2.5 0.167241
    endloop
  endfacet
  facet normal 0 1 0
    outer loop
      vertex 5 2.5 2.5
      vertex 2.87071 2.5 -0.178188
      vertex 2.75066 2.5 -0.00152969
    endloop
  endfacet
  facet normal 0 1 0
    outer loop
      vertex 5 2.5 2.5
      vertex 2.97944 2.5 -0.362037
      vertex 2.87071 2.5 -0.178188
    endloop
  endfacet
  facet normal 0 1 0
    outer loop
      vertex 5 2.5 2.5
      vertex 3.07641 2.5 -0.55235
      vertex 2.97944 2.5 -0.362037
    endloop
  endfacet
  facet normal 0 1 0
    outer loop
      vertex 5 2.5 2.5
      vertex 3.16124 2.5 -0.748376
      vertex 3.07641 2.5 -0.55235
    endloop
  endfacet
  facet normal 0 1 0
    outer loop
      vertex 5 2.5 2.5
      vertex 3.23359 2.5 -0.949342
      vertex 3.16124 2.5 -0.748376
    endloop
  endfacet
  facet normal 0 1 -0
    outer loop
      vertex 5 2.5 -2.5
      vertex 3.23359 2.5 -0.949342
      vertex 5 2.5 2.5
    endloop
  endfacet
  facet normal 0 1 0
    outer loop
      vertex 3.23359 2.5 -0.949342
      vertex 5 2.5 -2.5
      vertex 3.29318 2.5 -1.15445
    endloop
  endfacet
  facet normal 0 1 0
    outer loop
      vertex 3.29318 2.5 -1.15445
      vertex 5 2.5 -2.5
      vertex 3.33978 2.5 -1.3629
    endloop
  endfacet
  facet normal 0 1 0
    outer loop
      vertex 3.33978 2.5 -1.3629
      vertex 5 2.5 -2.5
      vertex 3.37319 2.5 -1.57387
    endloop
  endfacet
  facet normal 0 1 0
    outer loop
      vertex 3.37319 2.5 -1.57387
      vertex 5 2.5 -2.5
      vertex 3.39329 2.5 -1.78651
    endloop
  endfacet
  facet normal 0 1 0
    outer loop
      vertex 3.39329 2.5 -1.78651
      vertex 5 2.5 -2.5
      vertex 3.39497 2.5 -1.83988
    endloop
  endfacet
  facet normal 0 1 0
    outer loop
      vertex 3.39497 2.5 -1.83988
      vertex 5 2.5 -2.5
      vertex 3.4 2.5 -2
    endloop
  endfacet
  facet normal 0 1 0
    outer loop
      vertex 3.4 2.5 -2
      vertex 5 2.5 -2.5
      vertex 3.39832 2.5 -2.05337
    endloop
  endfacet
  facet normal 0 1 0
    outer loop
      vertex 3.39832 2.5 -2.05337
      vertex 5 2.5 -2.5
      vertex 3.39329 2.5 -2.21349
    endloop
  endfacet
  facet normal 0 1 0
    outer loop
      vertex 3.39329 2.5 -2.21349
      vertex 5 2.5 -2.5
      vertex 3.37319 2.5 -2.42613
    endloop
  endfacet
  facet normal 0 1 0
    outer loop
      vertex 3.37319 2.5 -2.42613
      vertex 5 2.5 -2.5
      vertex 3.36149 2.5 -2.5
    endloop
  endfacet
  facet normal 0 1 -0
    outer loop
      vertex -0.213488 2.5 1.39329
      vertex -5 2.5 2.5
      vertex 0 2.5 1.4
    endloop
  endfacet
  facet normal 0 1 -0
    outer loop
      vertex -0.426132 2.5 1.37319
      vertex -5 2.5 2.5
      vertex -0.213488 2.5 1.39329
    endloop
  endfacet
  facet normal 0 1 -0
    outer loop
      vertex -0.637096 2.5 1.33978
      vertex -5 2.5 2.5
      vertex -0.426132 2.5 1.37319
    endloop
  endfacet
  facet normal 0 1 -0
    outer loop
      vertex -0.845545 2.5 1.29318
      vertex -5 2.5 2.5
      vertex -0.637096 2.5 1.33978
    endloop
  endfacet
  facet normal 0 1 -0
    outer loop
      vertex -1.05066 2.5 1.23359
      vertex -5 2.5 2.5
      vertex -0.845545 2.5 1.29318
    endloop
  endfacet
  facet normal 0 1 -0
    outer loop
      vertex -1.25162 2.5 1.16124
      vertex -5 2.5 2.5
      vertex -1.05066 2.5 1.23359
    endloop
  endfacet
  facet normal 0 1 -0
    outer loop
      vertex -1.44765 2.5 1.07641
      vertex -5 2.5 2.5
      vertex -1.25162 2.5 1.16124
    endloop
  endfacet
  facet normal 0 1 -0
    outer loop
      vertex -1.63796 2.5 0.979443
      vertex -5 2.5 2.5
      vertex -1.44765 2.5 1.07641
    endloop
  endfacet
  facet normal 0 1 -0
    outer loop
      vertex -1.82181 2.5 0.870714
      vertex -5 2.5 2.5
      vertex -1.63796 2.5 0.979443
    endloop
  endfacet
  facet normal 0 1 -0
    outer loop
      vertex -1.99847 2.5 0.750657
      vertex -5 2.5 2.5
      vertex -1.82181 2.5 0.870714
    endloop
  endfacet
  facet normal 0 1 -0
    outer loop
      vertex -2.16724 2.5 0.619744
      vertex -5 2.5 2.5
      vertex -1.99847 2.5 0.750657
    endloop
  endfacet
  facet normal 0 1 -0
    outer loop
      vertex -2.32746 2.5 0.478493
      vertex -5 2.5 2.5
      vertex -2.16724 2.5 0.619744
    endloop
  endfacet
  facet normal 0 1 -0
    outer loop
      vertex -2.47849 2.5 0.327459
      vertex -5 2.5 2.5
      vertex -2.32746 2.5 0.478493
    endloop
  endfacet
  facet normal 0 1 -0
    outer loop
      vertex -2.61974 2.5 0.167241
      vertex -5 2.5 2.5
      vertex -2.47849 2.5 0.327459
    endloop
  endfacet
  facet normal 0 1 -0
    outer loop
      vertex -2.75066 2.5 -0.00152969
      vertex -5 2.5 2.5
      vertex -2.61974 2.5 0.167241
    endloop
  endfacet
  facet normal 0 1 -0
    outer loop
      vertex -2.87071 2.5 -0.178188
      vertex -5 2.5 2.5
      vertex -2.75066 2.5 -0.00152969
    endloop
  endfacet
  facet normal 0 1 -0
    outer loop
      vertex -2.97944 2.5 -0.362037
      vertex -5 2.5 2.5
      vertex -2.87071 2.5 -0.178188
    endloop
  endfacet
  facet normal 0 1 -0
    outer loop
      vertex -3.07641 2.5 -0.55235
      vertex -5 2.5 2.5
      vertex -2.97944 2.5 -0.362037
    endloop
  endfacet
  facet normal 0 1 -0
    outer loop
      vertex -3.16124 2.5 -0.748376
      vertex -5 2.5 2.5
      vertex -3.07641 2.5 -0.55235
    endloop
  endfacet
  facet normal 0 1 -0
    outer loop
      vertex -3.23359 2.5 -0.949342
      vertex -5 2.5 2.5
      vertex -3.16124 2.5 -0.748376
    endloop
  endfacet
  facet normal 0 1 0
    outer loop
      vertex -5 2.5 -2.5
      vertex -3.23359 2.5 -0.949342
      vertex -3.29318 2.5 -1.15445
    endloop
  endfacet
  facet normal 0 1 0
    outer loop
      vertex -5 2.5 -2.5
      vertex -3.29318 2.5 -1.15445
      vertex -3.33978 2.5 -1.3629
    endloop
  endfacet
  facet normal 0 1 0
    outer loop
      vertex -5 2.5 -2.5
      vertex -3.33978 2.5 -1.3629
      vertex -3.37319 2.5 -1.57387
    endloop
  endfacet
  facet normal 0 1 0
    outer loop
      vertex -5 2.5 -2.5
      vertex -3.37319 2.5 -1.57387
      vertex -3.39329 2.5 -1.78651
    endloop
  endfacet
  facet normal 0 1 0
    outer loop
      vertex -5 2.5 -2.5
      vertex -3.39329 2.5 -1.78651
      vertex -3.39497 2.5 -1.83988
    endloop
  endfacet
  facet normal 0 1 0
    outer loop
      vertex -5 2.5 -2.5
      vertex -3.39497 2.5 -1.83988
      vertex -3.4 2.5 -2
    endloop
  endfacet
  facet normal 0 1 0
    outer loop
      vertex -5 2.5 -2.5
      vertex -3.4 2.5 -2
      vertex -3.39832 2.5 -2.05337
    endloop
  endfacet
  facet normal 0 1 0
    outer loop
      vertex -5 2.5 -2.5
      vertex -3.39832 2.5 -2.05337
      vertex -3.39329 2.5 -2.21349
    endloop
  endfacet
  facet normal 0 1 0
    outer loop
      vertex -5 2.5 -2.5
      vertex -3.39329 2.5 -2.21349
      vertex -3.37319 2.5 -2.42613
    endloop
  endfacet
  facet normal 0 1 0
    outer loop
      vertex -5 2.5 -2.5
      vertex -3.37319 2.5 -2.42613
      vertex -3.36149 2.5 -2.5
    endloop
  endfacet
  facet normal 0 1 0
    outer loop
      vertex -3.23359 2.5 -0.949342
      vertex -5 2.5 -2.5
      vertex -5 2.5 2.5
    endloop
  endfacet
  facet normal 0 0 -1
    outer loop
      vertex -5 -2.5 -2.5
      vertex -3.36149 2.5 -2.5
      vertex -3.36149 -2.5 -2.5
    endloop
  endfacet
  facet normal -0 0 -1
    outer loop
      vertex -3.36149 2.5 -2.5
      vertex -5 -2.5 -2.5
      vertex -5 2.5 -2.5
    endloop
  endfacet
  facet normal 0 0 -1
    outer loop
      vertex 3.36149 -2.5 -2.5
      vertex 5 2.5 -2.5
      vertex 5 -2.5 -2.5
    endloop
  endfacet
  facet normal -0 0 -1
    outer loop
      vertex 5 2.5 -2.5
      vertex 3.36149 -2.5 -2.5
      vertex 3.36149 2.5 -2.5
    endloop
  endfacet
  facet normal 0 -1 0
    outer loop
      vertex -5 -2.5 2.5
      vertex 0 -2.5 1.4
      vertex 5 -2.5 2.5
    endloop
  endfacet
  facet normal 0 -1 0
    outer loop
      vertex -5 -2.5 2.5
      vertex -0.213488 -2.5 1.39329
      vertex 0 -2.5 1.4
    endloop
  endfacet
  facet normal 0 -1 0
    outer loop
      vertex -5 -2.5 2.5
      vertex -0.426132 -2.5 1.37319
      vertex -0.213488 -2.5 1.39329
    endloop
  endfacet
  facet normal 0 -1 0
    outer loop
      vertex -5 -2.5 2.5
      vertex -0.637096 -2.5 1.33978
      vertex -0.426132 -2.5 1.37319
    endloop
  endfacet
  facet normal 0 -1 0
    outer loop
      vertex -5 -2.5 2.5
      vertex -0.845545 -2.5 1.29318
      vertex -0.637096 -2.5 1.33978
    endloop
  endfacet
  facet normal 0 -1 0
    outer loop
      vertex -5 -2.5 2.5
      vertex -1.05066 -2.5 1.23359
      vertex -0.845545 -2.5 1.29318
    endloop
  endfacet
  facet normal 0 -1 0
    outer loop
      vertex -5 -2.5 2.5
      vertex -1.25162 -2.5 1.16124
      vertex -1.05066 -2.5 1.23359
    endloop
  endfacet
  facet normal 0 -1 0
    outer loop
      vertex -5 -2.5 2.5
      vertex -1.44765 -2.5 1.07641
      vertex -1.25162 -2.5 1.16124
    endloop
  endfacet
  facet normal 0 -1 0
    outer loop
      vertex -5 -2.5 2.5
      vertex -1.63796 -2.5 0.979443
      vertex -1.44765 -2.5 1.07641
    endloop
  endfacet
  facet normal 0 -1 0
    outer loop
      vertex -5 -2.5 2.5
      vertex -1.82181 -2.5 0.870714
      vertex -1.63796 -2.5 0.979443
    endloop
  endfacet
  facet normal 0 -1 0
    outer loop
      vertex -5 -2.5 2.5
      vertex -1.99847 -2.5 0.750657
      vertex -1.82181 -2.5 0.870714
    endloop
  endfacet
  facet normal 0 -1 0
    outer loop
      vertex -5 -2.5 2.5
      vertex -2.16724 -2.5 0.619744
      vertex -1.99847 -2.5 0.750657
    endloop
  endfacet
  facet normal 0 -1 0
    outer loop
      vertex -5 -2.5 2.5
      vertex -2.32746 -2.5 0.478493
      vertex -2.16724 -2.5 0.619744
    endloop
  endfacet
  facet normal 0 -1 0
    outer loop
      vertex -5 -2.5 2.5
      vertex -2.47849 -2.5 0.327459
      vertex -2.32746 -2.5 0.478493
    endloop
  endfacet
  facet normal 0 -1 0
    outer loop
      vertex -5 -2.5 2.5
      vertex -2.61974 -2.5 0.167241
      vertex -2.47849 -2.5 0.327459
    endloop
  endfacet
  facet normal 0 -1 0
    outer loop
      vertex -5 -2.5 2.5
      vertex -2.75066 -2.5 -0.00152969
      vertex -2.61974 -2.5 0.167241
    endloop
  endfacet
  facet normal 0 -1 0
    outer loop
      vertex -5 -2.5 2.5
      vertex -2.87071 -2.5 -0.178188
      vertex -2.75066 -2.5 -0.00152969
    endloop
  endfacet
  facet normal 0 -1 0
    outer loop
      vertex -5 -2.5 2.5
      vertex -2.97944 -2.5 -0.362037
      vertex -2.87071 -2.5 -0.178188
    endloop
  endfacet
  facet normal 0 -1 0
    outer loop
      vertex -5 -2.5 2.5
      vertex -3.07641 -2.5 -0.55235
      vertex -2.97944 -2.5 -0.362037
    endloop
  endfacet
  facet normal 0 -1 0
    outer loop
      vertex -5 -2.5 2.5
      vertex -3.16124 -2.5 -0.748376
      vertex -3.07641 -2.5 -0.55235
    endloop
  endfacet
  facet normal 0 -1 0
    outer loop
      vertex -5 -2.5 2.5
      vertex -3.23359 -2.5 -0.949342
      vertex -3.16124 -2.5 -0.748376
    endloop
  endfacet
  facet normal 0 -1 0
    outer loop
      vertex -5 -2.5 -2.5
      vertex -3.23359 -2.5 -0.949342
      vertex -5 -2.5 2.5
    endloop
  endfacet
  facet normal 0 -1 0
    outer loop
      vertex -3.23359 -2.5 -0.949342
      vertex -5 -2.5 -2.5
      vertex -3.29318 -2.5 -1.15445
    endloop
  endfacet
  facet normal 0 -1 0
    outer loop
      vertex -3.29318 -2.5 -1.15445
      vertex -5 -2.5 -2.5
      vertex -3.33978 -2.5 -1.3629
    endloop
  endfacet
  facet normal 0 -1 0
    outer loop
      vertex -3.33978 -2.5 -1.3629
      vertex -5 -2.5 -2.5
      vertex -3.37319 -2.5 -1.57387
    endloop
  endfacet
  facet normal 0 -1 0
    outer loop
      vertex -3.37319 -2.5 -1.57387
      vertex -5 -2.5 -2.5
      vertex -3.39329 -2.5 -1.78651
    endloop
  endfacet
  facet normal 0 -1 0
    outer loop
      vertex -3.39329 -2.5 -1.78651
      vertex -5 -2.5 -2.5
      vertex -3.39832 -2.5 -1.94663
    endloop
  endfacet
  facet normal 0 -1 0
    outer loop
      vertex -3.39832 -2.5 -1.94663
      vertex -5 -2.5 -2.5
      vertex -3.4 -2.5 -2
    endloop
  endfacet
  facet normal 0 -1 -0
    outer loop
      vertex -3.4 -2.5 -2
      vertex -5 -2.5 -2.5
      vertex -3.39497 -2.5 -2.16012
    endloop
  endfacet
  facet normal 0 -1 -0
    outer loop
      vertex -3.39497 -2.5 -2.16012
      vertex -5 -2.5 -2.5
      vertex -3.39329 -2.5 -2.21349
    endloop
  endfacet
  facet normal 0 -1 -0
    outer loop
      vertex -3.39329 -2.5 -2.21349
      vertex -5 -2.5 -2.5
      vertex -3.37319 -2.5 -2.42613
    endloop
  endfacet
  facet normal 0 -1 -0
    outer loop
      vertex -3.37319 -2.5 -2.42613
      vertex -5 -2.5 -2.5
      vertex -3.36149 -2.5 -2.5
    endloop
  endfacet
  facet normal 0 -1 0
    outer loop
      vertex 0.213488 -2.5 1.39329
      vertex 5 -2.5 2.5
      vertex 0 -2.5 1.4
    endloop
  endfacet
  facet normal 0 -1 0
    outer loop
      vertex 0.426132 -2.5 1.37319
      vertex 5 -2.5 2.5
      vertex 0.213488 -2.5 1.39329
    endloop
  endfacet
  facet normal 0 -1 0
    outer loop
      vertex 0.637096 -2.5 1.33978
      vertex 5 -2.5 2.5
      vertex 0.426132 -2.5 1.37319
    endloop
  endfacet
  facet normal 0 -1 0
    outer loop
      vertex 0.845545 -2.5 1.29318
      vertex 5 -2.5 2.5
      vertex 0.637096 -2.5 1.33978
    endloop
  endfacet
  facet normal 0 -1 0
    outer loop
      vertex 1.05066 -2.5 1.23359
      vertex 5 -2.5 2.5
      vertex 0.845545 -2.5 1.29318
    endloop
  endfacet
  facet normal 0 -1 0
    outer loop
      vertex 1.25162 -2.5 1.16124
      vertex 5 -2.5 2.5
      vertex 1.05066 -2.5 1.23359
    endloop
  endfacet
  facet normal 0 -1 0
    outer loop
      vertex 1.44765 -2.5 1.07641
      vertex 5 -2.5 2.5
      vertex 1.25162 -2.5 1.16124
    endloop
  endfacet
  facet normal 0 -1 0
    outer loop
      vertex 1.63796 -2.5 0.979443
      vertex 5 -2.5 2.5
      vertex 1.44765 -2.5 1.07641
    endloop
  endfacet
  facet normal 0 -1 0
    outer loop
      vertex 1.82181 -2.5 0.870714
      vertex 5 -2.5 2.5
      vertex 1.63796 -2.5 0.979443
    endloop
  endfacet
  facet normal 0 -1 0
    outer loop
      vertex 1.99847 -2.5 0.750657
      vertex 5 -2.5 2.5
      vertex 1.82181 -2.5 0.870714
    endloop
  endfacet
  facet normal 0 -1 0
    outer loop
      vertex 2.16724 -2.5 0.619744
      vertex 5 -2.5 2.5
      vertex 1.99847 -2.5 0.750657
    endloop
  endfacet
  facet normal 0 -1 0
    outer loop
      vertex 2.32746 -2.5 0.478493
      vertex 5 -2.5 2.5
      vertex 2.16724 -2.5 0.619744
    endloop
  endfacet
  facet normal 0 -1 0
    outer loop
      vertex 2.47849 -2.5 0.327459
      vertex 5 -2.5 2.5
      vertex 2.32746 -2.5 0.478493
    endloop
  endfacet
  facet normal 0 -1 0
    outer loop
      vertex 2.61974 -2.5 0.167241
      vertex 5 -2.5 2.5
      vertex 2.47849 -2.5 0.327459
    endloop
  endfacet
  facet normal 0 -1 0
    outer loop
      vertex 2.75066 -2.5 -0.00152969
      vertex 5 -2.5 2.5
      vertex 2.61974 -2.5 0.167241
    endloop
  endfacet
  facet normal 0 -1 0
    outer loop
      vertex 2.87071 -2.5 -0.178188
      vertex 5 -2.5 2.5
      vertex 2.75066 -2.5 -0.00152969
    endloop
  endfacet
  facet normal 0 -1 0
    outer loop
      vertex 2.97944 -2.5 -0.362037
      vertex 5 -2.5 2.5
      vertex 2.87071 -2.5 -0.178188
    endloop
  endfacet
  facet normal 0 -1 0
    outer loop
      vertex 3.07641 -2.5 -0.55235
      vertex 5 -2.5 2.5
      vertex 2.97944 -2.5 -0.362037
    endloop
  endfacet
  facet normal 0 -1 0
    outer loop
      vertex 3.16124 -2.5 -0.748376
      vertex 5 -2.5 2.5
      vertex 3.07641 -2.5 -0.55235
    endloop
  endfacet
  facet normal 0 -1 0
    outer loop
      vertex 3.23359 -2.5 -0.949342
      vertex 5 -2.5 2.5
      vertex 3.16124 -2.5 -0.748376
    endloop
  endfacet
  facet normal 0 -1 0
    outer loop
      vertex 5 -2.5 -2.5
      vertex 3.23359 -2.5 -0.949342
      vertex 3.29318 -2.5 -1.15445
    endloop
  endfacet
  facet normal 0 -1 0
    outer loop
      vertex 5 -2.5 -2.5
      vertex 3.29318 -2.5 -1.15445
      vertex 3.33978 -2.5 -1.3629
    endloop
  endfacet
  facet normal 0 -1 0
    outer loop
      vertex 5 -2.5 -2.5
      vertex 3.33978 -2.5 -1.3629
      vertex 3.37319 -2.5 -1.57387
    endloop
  endfacet
  facet normal 0 -1 0
    outer loop
      vertex 5 -2.5 -2.5
      vertex 3.37319 -2.5 -1.57387
      vertex 3.39329 -2.5 -1.78651
    endloop
  endfacet
  facet normal 0 -1 0
    outer loop
      vertex 5 -2.5 -2.5
      vertex 3.39329 -2.5 -1.78651
      vertex 3.39832 -2.5 -1.94663
    endloop
  endfacet
  facet normal 0 -1 0
    outer loop
      vertex 5 -2.5 -2.5
      vertex 3.39832 -2.5 -1.94663
      vertex 3.4 -2.5 -2
    endloop
  endfacet
  facet normal 0 -1 0
    outer loop
      vertex 5 -2.5 -2.5
      vertex 3.4 -2.5 -2
      vertex 3.39497 -2.5 -2.16012
    endloop
  endfacet
  facet normal 0 -1 0
    outer loop
      vertex 5 -2.5 -2.5
      vertex 3.39497 -2.5 -2.16012
      vertex 3.39329 -2.5 -2.21349
    endloop
  endfacet
  facet normal 0 -1 0
    outer loop
      vertex 5 -2.5 -2.5
      vertex 3.39329 -2.5 -2.21349
      vertex 3.37319 -2.5 -2.42613
    endloop
  endfacet
  facet normal 0 -1 0
    outer loop
      vertex 5 -2.5 -2.5
      vertex 3.37319 -2.5 -2.42613
      vertex 3.36149 -2.5 -2.5
    endloop
  endfacet
  facet normal 0 -1 0
    outer loop
      vertex 3.23359 -2.5 -0.949342
      vertex 5 -2.5 -2.5
      vertex 5 -2.5 2.5
    endloop
  endfacet
  facet normal -0.999507 0 -0.0314107
    outer loop
      vertex 3.39329 -2.5 -1.78651
      vertex 3.39497 2.5 -1.83988
      vertex 3.39832 -2.5 -1.94663
    endloop
  endfacet
  facet normal -0.999507 0 -0.0314107
    outer loop
      vertex 3.39497 2.5 -1.83988
      vertex 3.39329 -2.5 -1.78651
      vertex 3.39329 2.5 -1.78651
    endloop
  endfacet
  facet normal -0.999507 -2.99554e-09 -0.0314105
    outer loop
      vertex 3.39832 -2.5 -1.94663
      vertex 3.4 2.5 -2
      vertex 3.4 -2.5 -2
    endloop
  endfacet
  facet normal -0.999507 -2.99554e-09 -0.0314105
    outer loop
      vertex 3.4 2.5 -2
      vertex 3.39832 -2.5 -1.94663
      vertex 3.39497 2.5 -1.83988
    endloop
  endfacet
  facet normal -0.338739 0 -0.94088
    outer loop
      vertex 1.05066 -2.5 1.23359
      vertex 1.25162 2.5 1.16124
      vertex 1.25162 -2.5 1.16124
    endloop
  endfacet
  facet normal -0.338739 0 -0.94088
    outer loop
      vertex 1.25162 2.5 1.16124
      vertex 1.05066 -2.5 1.23359
      vertex 1.05066 2.5 1.23359
    endloop
  endfacet
  facet normal -0.86074 0 -0.509044
    outer loop
      vertex 2.97944 -2.5 -0.362037
      vertex 2.87071 2.5 -0.178188
      vertex 2.97944 2.5 -0.362037
    endloop
  endfacet
  facet normal -0.86074 -0 -0.509044
    outer loop
      vertex 2.87071 2.5 -0.178188
      vertex 2.97944 -2.5 -0.362037
      vertex 2.87071 -2.5 -0.178188
    endloop
  endfacet
  facet normal -0.509044 0 -0.86074
    outer loop
      vertex 1.63796 -2.5 0.979443
      vertex 1.82181 2.5 0.870714
      vertex 1.82181 -2.5 0.870714
    endloop
  endfacet
  facet normal -0.509044 0 -0.86074
    outer loop
      vertex 1.82181 2.5 0.870714
      vertex 1.63796 -2.5 0.979443
      vertex 1.63796 2.5 0.979443
    endloop
  endfacet
  facet normal 0.94088 0 -0.338739
    outer loop
      vertex -3.16124 -2.5 -0.748376
      vertex -3.23359 2.5 -0.949342
      vertex -3.16124 2.5 -0.748376
    endloop
  endfacet
  facet normal 0.94088 0 -0.338739
    outer loop
      vertex -3.23359 2.5 -0.949342
      vertex -3.16124 -2.5 -0.748376
      vertex -3.23359 -2.5 -0.949342
    endloop
  endfacet
  facet normal -0.790153 0 -0.612909
    outer loop
      vertex 2.75066 -2.5 -0.00152969
      vertex 2.61974 2.5 0.167241
      vertex 2.75066 2.5 -0.00152969
    endloop
  endfacet
  facet normal -0.790153 -0 -0.612909
    outer loop
      vertex 2.61974 2.5 0.167241
      vertex 2.75066 -2.5 -0.00152969
      vertex 2.61974 -2.5 0.167241
    endloop
  endfacet
  facet normal -0.661312 0 -0.750111
    outer loop
      vertex 2.16724 -2.5 0.619744
      vertex 2.32746 2.5 0.478493
      vertex 2.32746 -2.5 0.478493
    endloop
  endfacet
  facet normal -0.661312 0 -0.750111
    outer loop
      vertex 2.32746 2.5 0.478493
      vertex 2.16724 -2.5 0.619744
      vertex 2.16724 2.5 0.619744
    endloop
  endfacet
  facet normal 0.0314107 0 -0.999507
    outer loop
      vertex -0.213488 -2.5 1.39329
      vertex 0 2.5 1.4
      vertex 0 -2.5 1.4
    endloop
  endfacet
  facet normal 0.0314107 0 -0.999507
    outer loop
      vertex 0 2.5 1.4
      vertex -0.213488 -2.5 1.39329
      vertex -0.213488 2.5 1.39329
    endloop
  endfacet
  facet normal -0.27899 0 -0.960294
    outer loop
      vertex 0.845545 -2.5 1.29318
      vertex 1.05066 2.5 1.23359
      vertex 1.05066 -2.5 1.23359
    endloop
  endfacet
  facet normal -0.27899 0 -0.960294
    outer loop
      vertex 1.05066 2.5 1.23359
      vertex 0.845545 -2.5 1.29318
      vertex 0.845545 2.5 1.29318
    endloop
  endfacet
  facet normal -0.156436 0 -0.987688
    outer loop
      vertex 0.426132 -2.5 1.37319
      vertex 0.637096 2.5 1.33978
      vertex 0.637096 -2.5 1.33978
    endloop
  endfacet
  facet normal -0.156436 0 -0.987688
    outer loop
      vertex 0.637096 2.5 1.33978
      vertex 0.426132 -2.5 1.37319
      vertex 0.426132 2.5 1.37319
    endloop
  endfacet
  facet normal -0.612907 0 -0.790155
    outer loop
      vertex 1.99847 -2.5 0.750657
      vertex 2.16724 2.5 0.619744
      vertex 2.16724 -2.5 0.619744
    endloop
  endfacet
  facet normal -0.612907 0 -0.790155
    outer loop
      vertex 2.16724 2.5 0.619744
      vertex 1.99847 -2.5 0.750657
      vertex 1.99847 2.5 0.750657
    endloop
  endfacet
  facet normal 0.999507 2.99554e-09 0.0314105
    outer loop
      vertex -3.4 -2.5 -2
      vertex -3.39832 2.5 -2.05337
      vertex -3.4 2.5 -2
    endloop
  endfacet
  facet normal 0.999507 2.99554e-09 0.0314105
    outer loop
      vertex -3.39832 2.5 -2.05337
      vertex -3.4 -2.5 -2
      vertex -3.39497 -2.5 -2.16012
    endloop
  endfacet
  facet normal -0.94088 0 -0.338739
    outer loop
      vertex 3.23359 -2.5 -0.949342
      vertex 3.16124 2.5 -0.748376
      vertex 3.23359 2.5 -0.949342
    endloop
  endfacet
  facet normal -0.94088 -0 -0.338739
    outer loop
      vertex 3.16124 2.5 -0.748376
      vertex 3.23359 -2.5 -0.949342
      vertex 3.16124 -2.5 -0.748376
    endloop
  endfacet
  facet normal -0.891008 0 -0.453987
    outer loop
      vertex 3.07641 -2.5 -0.55235
      vertex 2.97944 2.5 -0.362037
      vertex 3.07641 2.5 -0.55235
    endloop
  endfacet
  facet normal -0.891008 -0 -0.453987
    outer loop
      vertex 2.97944 2.5 -0.362037
      vertex 3.07641 -2.5 -0.55235
      vertex 2.97944 -2.5 -0.362037
    endloop
  endfacet
  facet normal -0.827081 0 -0.562083
    outer loop
      vertex 2.87071 -2.5 -0.178188
      vertex 2.75066 2.5 -0.00152969
      vertex 2.87071 2.5 -0.178188
    endloop
  endfacet
  facet normal -0.827081 -0 -0.562083
    outer loop
      vertex 2.75066 2.5 -0.00152969
      vertex 2.87071 -2.5 -0.178188
      vertex 2.75066 -2.5 -0.00152969
    endloop
  endfacet
  facet normal -0.750111 0 -0.661312
    outer loop
      vertex 2.61974 -2.5 0.167241
      vertex 2.47849 2.5 0.327459
      vertex 2.61974 2.5 0.167241
    endloop
  endfacet
  facet normal -0.750111 -0 -0.661312
    outer loop
      vertex 2.47849 2.5 0.327459
      vertex 2.61974 -2.5 0.167241
      vertex 2.47849 -2.5 0.327459
    endloop
  endfacet
  facet normal -0.0941072 0 -0.995562
    outer loop
      vertex 0.213488 -2.5 1.39329
      vertex 0.426132 2.5 1.37319
      vertex 0.426132 -2.5 1.37319
    endloop
  endfacet
  facet normal -0.0941072 0 -0.995562
    outer loop
      vertex 0.426132 2.5 1.37319
      vertex 0.213488 -2.5 1.39329
      vertex 0.213488 2.5 1.39329
    endloop
  endfacet
  facet normal -0.0314107 0 -0.999507
    outer loop
      vertex 0 -2.5 1.4
      vertex 0.213488 2.5 1.39329
      vertex 0.213488 -2.5 1.39329
    endloop
  endfacet
  facet normal -0.0314107 0 -0.999507
    outer loop
      vertex 0.213488 2.5 1.39329
      vertex 0 -2.5 1.4
      vertex 0 2.5 1.4
    endloop
  endfacet
  facet normal -0.453987 0 -0.891008
    outer loop
      vertex 1.44765 -2.5 1.07641
      vertex 1.63796 2.5 0.979443
      vertex 1.63796 -2.5 0.979443
    endloop
  endfacet
  facet normal -0.453987 0 -0.891008
    outer loop
      vertex 1.63796 2.5 0.979443
      vertex 1.44765 -2.5 1.07641
      vertex 1.44765 2.5 1.07641
    endloop
  endfacet
  facet normal -0.39715 0 -0.917754
    outer loop
      vertex 1.25162 -2.5 1.16124
      vertex 1.44765 2.5 1.07641
      vertex 1.44765 -2.5 1.07641
    endloop
  endfacet
  facet normal -0.39715 0 -0.917754
    outer loop
      vertex 1.44765 2.5 1.07641
      vertex 1.25162 -2.5 1.16124
      vertex 1.25162 2.5 1.16124
    endloop
  endfacet
  facet normal 0.999507 0 -0.0314107
    outer loop
      vertex -3.39329 -2.5 -1.78651
      vertex -3.39497 2.5 -1.83988
      vertex -3.39329 2.5 -1.78651
    endloop
  endfacet
  facet normal 0.999507 0 -0.0314107
    outer loop
      vertex -3.39497 2.5 -1.83988
      vertex -3.39329 -2.5 -1.78651
      vertex -3.39832 -2.5 -1.94663
    endloop
  endfacet
  facet normal 0.0941072 0 -0.995562
    outer loop
      vertex -0.426132 -2.5 1.37319
      vertex -0.213488 2.5 1.39329
      vertex -0.213488 -2.5 1.39329
    endloop
  endfacet
  facet normal 0.0941072 0 -0.995562
    outer loop
      vertex -0.213488 2.5 1.39329
      vertex -0.426132 -2.5 1.37319
      vertex -0.426132 2.5 1.37319
    endloop
  endfacet
  facet normal 0.750111 0 -0.661312
    outer loop
      vertex -2.47849 -2.5 0.327459
      vertex -2.61974 2.5 0.167241
      vertex -2.47849 2.5 0.327459
    endloop
  endfacet
  facet normal 0.750111 0 -0.661312
    outer loop
      vertex -2.61974 2.5 0.167241
      vertex -2.47849 -2.5 0.327459
      vertex -2.61974 -2.5 0.167241
    endloop
  endfacet
  facet normal 0.790153 0 -0.612909
    outer loop
      vertex -2.61974 -2.5 0.167241
      vertex -2.75066 2.5 -0.00152969
      vertex -2.61974 2.5 0.167241
    endloop
  endfacet
  facet normal 0.790153 0 -0.612909
    outer loop
      vertex -2.75066 2.5 -0.00152969
      vertex -2.61974 -2.5 0.167241
      vertex -2.75066 -2.5 -0.00152969
    endloop
  endfacet
  facet normal 0.999507 -2.99554e-09 -0.0314105
    outer loop
      vertex -3.39832 -2.5 -1.94663
      vertex -3.4 2.5 -2
      vertex -3.39497 2.5 -1.83988
    endloop
  endfacet
  facet normal 0.999507 -2.99554e-09 -0.0314105
    outer loop
      vertex -3.4 2.5 -2
      vertex -3.39832 -2.5 -1.94663
      vertex -3.4 -2.5 -2
    endloop
  endfacet
  facet normal -0.995562 0 0.0941072
    outer loop
      vertex 3.37319 -2.5 -2.42613
      vertex 3.39329 2.5 -2.21349
      vertex 3.37319 2.5 -2.42613
    endloop
  endfacet
  facet normal -0.995562 0 0.0941072
    outer loop
      vertex 3.39329 2.5 -2.21349
      vertex 3.37319 -2.5 -2.42613
      vertex 3.39329 -2.5 -2.21349
    endloop
  endfacet
  facet normal 0.995562 -0 0.0941072
    outer loop
      vertex -3.39329 -2.5 -2.21349
      vertex -3.37319 2.5 -2.42613
      vertex -3.39329 2.5 -2.21349
    endloop
  endfacet
  facet normal 0.995562 0 0.0941072
    outer loop
      vertex -3.37319 2.5 -2.42613
      vertex -3.39329 -2.5 -2.21349
      vertex -3.37319 -2.5 -2.42613
    endloop
  endfacet
  facet normal 0.999507 0 0.0314107
    outer loop
      vertex -3.39497 -2.5 -2.16012
      vertex -3.39329 2.5 -2.21349
      vertex -3.39832 2.5 -2.05337
    endloop
  endfacet
  facet normal 0.999507 0 0.0314107
    outer loop
      vertex -3.39329 2.5 -2.21349
      vertex -3.39497 -2.5 -2.16012
      vertex -3.39329 -2.5 -2.21349
    endloop
  endfacet
  facet normal -0.917754 0 -0.39715
    outer loop
      vertex 3.16124 -2.5 -0.748376
      vertex 3.07641 2.5 -0.55235
      vertex 3.16124 2.5 -0.748376
    endloop
  endfacet
  facet normal -0.917754 -0 -0.39715
    outer loop
      vertex 3.07641 2.5 -0.55235
      vertex 3.16124 -2.5 -0.748376
      vertex 3.07641 -2.5 -0.55235
    endloop
  endfacet
  facet normal -0.960294 0 -0.27899
    outer loop
      vertex 3.29318 -2.5 -1.15445
      vertex 3.23359 2.5 -0.949342
      vertex 3.29318 2.5 -1.15445
    endloop
  endfacet
  facet normal -0.960294 -0 -0.27899
    outer loop
      vertex 3.23359 2.5 -0.949342
      vertex 3.29318 -2.5 -1.15445
      vertex 3.23359 -2.5 -0.949342
    endloop
  endfacet
  facet normal -0.995562 0 -0.0941072
    outer loop
      vertex 3.39329 -2.5 -1.78651
      vertex 3.37319 2.5 -1.57387
      vertex 3.39329 2.5 -1.78651
    endloop
  endfacet
  facet normal -0.995562 -0 -0.0941072
    outer loop
      vertex 3.37319 2.5 -1.57387
      vertex 3.39329 -2.5 -1.78651
      vertex 3.37319 -2.5 -1.57387
    endloop
  endfacet
  facet normal -0.975917 0 -0.218143
    outer loop
      vertex 3.33978 -2.5 -1.3629
      vertex 3.29318 2.5 -1.15445
      vertex 3.33978 2.5 -1.3629
    endloop
  endfacet
  facet normal -0.975917 -0 -0.218143
    outer loop
      vertex 3.29318 2.5 -1.15445
      vertex 3.33978 -2.5 -1.3629
      vertex 3.29318 -2.5 -1.15445
    endloop
  endfacet
  facet normal -0.707107 0 -0.707107
    outer loop
      vertex 2.47849 -2.5 0.327459
      vertex 2.32746 2.5 0.478493
      vertex 2.47849 2.5 0.327459
    endloop
  endfacet
  facet normal -0.707107 -0 -0.707107
    outer loop
      vertex 2.32746 2.5 0.478493
      vertex 2.47849 -2.5 0.327459
      vertex 2.32746 -2.5 0.478493
    endloop
  endfacet
  facet normal -0.218143 0 -0.975917
    outer loop
      vertex 0.637096 -2.5 1.33978
      vertex 0.845545 2.5 1.29318
      vertex 0.845545 -2.5 1.29318
    endloop
  endfacet
  facet normal -0.218143 0 -0.975917
    outer loop
      vertex 0.845545 2.5 1.29318
      vertex 0.637096 -2.5 1.33978
      vertex 0.637096 2.5 1.33978
    endloop
  endfacet
  facet normal -0.562083 0 -0.827081
    outer loop
      vertex 1.82181 -2.5 0.870714
      vertex 1.99847 2.5 0.750657
      vertex 1.99847 -2.5 0.750657
    endloop
  endfacet
  facet normal -0.562083 0 -0.827081
    outer loop
      vertex 1.99847 2.5 0.750657
      vertex 1.82181 -2.5 0.870714
      vertex 1.82181 2.5 0.870714
    endloop
  endfacet
  facet normal 0.707107 0 -0.707107
    outer loop
      vertex -2.32746 -2.5 0.478493
      vertex -2.47849 2.5 0.327459
      vertex -2.32746 2.5 0.478493
    endloop
  endfacet
  facet normal 0.707107 0 -0.707107
    outer loop
      vertex -2.47849 2.5 0.327459
      vertex -2.32746 -2.5 0.478493
      vertex -2.47849 -2.5 0.327459
    endloop
  endfacet
  facet normal 0.39715 0 -0.917754
    outer loop
      vertex -1.44765 -2.5 1.07641
      vertex -1.25162 2.5 1.16124
      vertex -1.25162 -2.5 1.16124
    endloop
  endfacet
  facet normal 0.39715 0 -0.917754
    outer loop
      vertex -1.25162 2.5 1.16124
      vertex -1.44765 -2.5 1.07641
      vertex -1.44765 2.5 1.07641
    endloop
  endfacet
  facet normal 0.27899 0 -0.960294
    outer loop
      vertex -1.05066 -2.5 1.23359
      vertex -0.845545 2.5 1.29318
      vertex -0.845545 -2.5 1.29318
    endloop
  endfacet
  facet normal 0.27899 0 -0.960294
    outer loop
      vertex -0.845545 2.5 1.29318
      vertex -1.05066 -2.5 1.23359
      vertex -1.05066 2.5 1.23359
    endloop
  endfacet
  facet normal 0.218143 0 -0.975917
    outer loop
      vertex -0.845545 -2.5 1.29318
      vertex -0.637096 2.5 1.33978
      vertex -0.637096 -2.5 1.33978
    endloop
  endfacet
  facet normal 0.218143 0 -0.975917
    outer loop
      vertex -0.637096 2.5 1.33978
      vertex -0.845545 -2.5 1.29318
      vertex -0.845545 2.5 1.29318
    endloop
  endfacet
  facet normal 0.612907 0 -0.790155
    outer loop
      vertex -2.16724 -2.5 0.619744
      vertex -1.99847 2.5 0.750657
      vertex -1.99847 -2.5 0.750657
    endloop
  endfacet
  facet normal 0.612907 0 -0.790155
    outer loop
      vertex -1.99847 2.5 0.750657
      vertex -2.16724 -2.5 0.619744
      vertex -2.16724 2.5 0.619744
    endloop
  endfacet
  facet normal 0.453987 0 -0.891008
    outer loop
      vertex -1.63796 -2.5 0.979443
      vertex -1.44765 2.5 1.07641
      vertex -1.44765 -2.5 1.07641
    endloop
  endfacet
  facet normal 0.453987 0 -0.891008
    outer loop
      vertex -1.44765 2.5 1.07641
      vertex -1.63796 -2.5 0.979443
      vertex -1.63796 2.5 0.979443
    endloop
  endfacet
  facet normal 0.562083 0 -0.827081
    outer loop
      vertex -1.99847 -2.5 0.750657
      vertex -1.82181 2.5 0.870714
      vertex -1.82181 -2.5 0.870714
    endloop
  endfacet
  facet normal 0.562083 0 -0.827081
    outer loop
      vertex -1.82181 2.5 0.870714
      vertex -1.99847 -2.5 0.750657
      vertex -1.99847 2.5 0.750657
    endloop
  endfacet
  facet normal 0.917754 0 -0.39715
    outer loop
      vertex -3.07641 -2.5 -0.55235
      vertex -3.16124 2.5 -0.748376
      vertex -3.07641 2.5 -0.55235
    endloop
  endfacet
  facet normal 0.917754 0 -0.39715
    outer loop
      vertex -3.16124 2.5 -0.748376
      vertex -3.07641 -2.5 -0.55235
      vertex -3.16124 -2.5 -0.748376
    endloop
  endfacet
  facet normal 0.987688 0 -0.156436
    outer loop
      vertex -3.33978 -2.5 -1.3629
      vertex -3.37319 2.5 -1.57387
      vertex -3.33978 2.5 -1.3629
    endloop
  endfacet
  facet normal 0.987688 0 -0.156436
    outer loop
      vertex -3.37319 2.5 -1.57387
      vertex -3.33978 -2.5 -1.3629
      vertex -3.37319 -2.5 -1.57387
    endloop
  endfacet
  facet normal -0.999507 0 0.0314107
    outer loop
      vertex 3.39497 -2.5 -2.16012
      vertex 3.39329 2.5 -2.21349
      vertex 3.39329 -2.5 -2.21349
    endloop
  endfacet
  facet normal -0.999507 0 0.0314107
    outer loop
      vertex 3.39329 2.5 -2.21349
      vertex 3.39497 -2.5 -2.16012
      vertex 3.39832 2.5 -2.05337
    endloop
  endfacet
  facet normal -0.999507 2.99554e-09 0.0314105
    outer loop
      vertex 3.4 -2.5 -2
      vertex 3.39832 2.5 -2.05337
      vertex 3.39497 -2.5 -2.16012
    endloop
  endfacet
  facet normal -0.999507 2.99554e-09 0.0314105
    outer loop
      vertex 3.39832 2.5 -2.05337
      vertex 3.4 -2.5 -2
      vertex 3.4 2.5 -2
    endloop
  endfacet
  facet normal 0.987688 -0 0.156437
    outer loop
      vertex -3.37319 -2.5 -2.42613
      vertex -3.36149 2.5 -2.5
      vertex -3.37319 2.5 -2.42613
    endloop
  endfacet
  facet normal 0.987688 0 0.156437
    outer loop
      vertex -3.36149 2.5 -2.5
      vertex -3.37319 -2.5 -2.42613
      vertex -3.36149 -2.5 -2.5
    endloop
  endfacet
  facet normal -0.987688 0 -0.156436
    outer loop
      vertex 3.37319 -2.5 -1.57387
      vertex 3.33978 2.5 -1.3629
      vertex 3.37319 2.5 -1.57387
    endloop
  endfacet
  facet normal -0.987688 -0 -0.156436
    outer loop
      vertex 3.33978 2.5 -1.3629
      vertex 3.37319 -2.5 -1.57387
      vertex 3.33978 -2.5 -1.3629
    endloop
  endfacet
  facet normal 0.338739 0 -0.94088
    outer loop
      vertex -1.25162 -2.5 1.16124
      vertex -1.05066 2.5 1.23359
      vertex -1.05066 -2.5 1.23359
    endloop
  endfacet
  facet normal 0.338739 0 -0.94088
    outer loop
      vertex -1.05066 2.5 1.23359
      vertex -1.25162 -2.5 1.16124
      vertex -1.25162 2.5 1.16124
    endloop
  endfacet
  facet normal 0.156436 0 -0.987688
    outer loop
      vertex -0.637096 -2.5 1.33978
      vertex -0.426132 2.5 1.37319
      vertex -0.426132 -2.5 1.37319
    endloop
  endfacet
  facet normal 0.156436 0 -0.987688
    outer loop
      vertex -0.426132 2.5 1.37319
      vertex -0.637096 -2.5 1.33978
      vertex -0.637096 2.5 1.33978
    endloop
  endfacet
  facet normal 0.661312 0 -0.750111
    outer loop
      vertex -2.32746 -2.5 0.478493
      vertex -2.16724 2.5 0.619744
      vertex -2.16724 -2.5 0.619744
    endloop
  endfacet
  facet normal 0.661312 0 -0.750111
    outer loop
      vertex -2.16724 2.5 0.619744
      vertex -2.32746 -2.5 0.478493
      vertex -2.32746 2.5 0.478493
    endloop
  endfacet
  facet normal 0.509044 0 -0.86074
    outer loop
      vertex -1.82181 -2.5 0.870714
      vertex -1.63796 2.5 0.979443
      vertex -1.63796 -2.5 0.979443
    endloop
  endfacet
  facet normal 0.509044 0 -0.86074
    outer loop
      vertex -1.63796 2.5 0.979443
      vertex -1.82181 -2.5 0.870714
      vertex -1.82181 2.5 0.870714
    endloop
  endfacet
  facet normal 0.86074 0 -0.509044
    outer loop
      vertex -2.87071 -2.5 -0.178188
      vertex -2.97944 2.5 -0.362037
      vertex -2.87071 2.5 -0.178188
    endloop
  endfacet
  facet normal 0.86074 0 -0.509044
    outer loop
      vertex -2.97944 2.5 -0.362037
      vertex -2.87071 -2.5 -0.178188
      vertex -2.97944 -2.5 -0.362037
    endloop
  endfacet
  facet normal 0.891008 0 -0.453987
    outer loop
      vertex -2.97944 -2.5 -0.362037
      vertex -3.07641 2.5 -0.55235
      vertex -2.97944 2.5 -0.362037
    endloop
  endfacet
  facet normal 0.891008 0 -0.453987
    outer loop
      vertex -3.07641 2.5 -0.55235
      vertex -2.97944 -2.5 -0.362037
      vertex -3.07641 -2.5 -0.55235
    endloop
  endfacet
  facet normal 0.995562 0 -0.0941072
    outer loop
      vertex -3.37319 -2.5 -1.57387
      vertex -3.39329 2.5 -1.78651
      vertex -3.37319 2.5 -1.57387
    endloop
  endfacet
  facet normal 0.995562 0 -0.0941072
    outer loop
      vertex -3.39329 2.5 -1.78651
      vertex -3.37319 -2.5 -1.57387
      vertex -3.39329 -2.5 -1.78651
    endloop
  endfacet
  facet normal 0.960294 0 -0.27899
    outer loop
      vertex -3.23359 -2.5 -0.949342
      vertex -3.29318 2.5 -1.15445
      vertex -3.23359 2.5 -0.949342
    endloop
  endfacet
  facet normal 0.960294 0 -0.27899
    outer loop
      vertex -3.29318 2.5 -1.15445
      vertex -3.23359 -2.5 -0.949342
      vertex -3.29318 -2.5 -1.15445
    endloop
  endfacet
  facet normal 0.975917 0 -0.218143
    outer loop
      vertex -3.29318 -2.5 -1.15445
      vertex -3.33978 2.5 -1.3629
      vertex -3.29318 2.5 -1.15445
    endloop
  endfacet
  facet normal 0.975917 0 -0.218143
    outer loop
      vertex -3.33978 2.5 -1.3629
      vertex -3.29318 -2.5 -1.15445
      vertex -3.33978 -2.5 -1.3629
    endloop
  endfacet
  facet normal -0.987688 0 0.156437
    outer loop
      vertex 3.36149 -2.5 -2.5
      vertex 3.37319 2.5 -2.42613
      vertex 3.36149 2.5 -2.5
    endloop
  endfacet
  facet normal -0.987688 0 0.156437
    outer loop
      vertex 3.37319 2.5 -2.42613
      vertex 3.36149 -2.5 -2.5
      vertex 3.37319 -2.5 -2.42613
    endloop
  endfacet
  facet normal 0.827081 0 -0.562083
    outer loop
      vertex -2.75066 -2.5 -0.00152969
      vertex -2.87071 2.5 -0.178188
      vertex -2.75066 2.5 -0.00152969
    endloop
  endfacet
  facet normal 0.827081 0 -0.562083
    outer loop
      vertex -2.87071 2.5 -0.178188
      vertex -2.75066 -2.5 -0.00152969
      vertex -2.87071 -2.5 -0.178188
    endloop
  endfacet
endsolid OpenSCAD_Model
