solid OpenSCAD_Model
  facet normal -1 0 0
    outer loop
      vertex -5 -2.5 -2.5
      vertex -5 2.5 2.5
      vertex -5 2.5 -2.5
    endloop
  endfacet
  facet normal -1 -0 0
    outer loop
      vertex -5 2.5 2.5
      vertex -5 -2.5 -2.5
      vertex -5 -2.5 2.5
    endloop
  endfacet
  facet normal -0 0 1
    outer loop
      vertex -5 2.5 2.5
      vertex 5 -2.5 2.5
      vertex 5 2.5 2.5
    endloop
  endfacet
  facet normal 0 0 1
    outer loop
      vertex 5 -2.5 2.5
      vertex -5 2.5 2.5
      vertex -5 -2.5 2.5
    endloop
  endfacet
  facet normal 1 -0 0
    outer loop
      vertex 5 -2.5 2.5
      vertex 5 2.5 -2.5
      vertex 5 2.5 2.5
    endloop
  endfacet
  facet normal 1 0 0
    outer loop
      vertex 5 2.5 -2.5
      vertex 5 -2.5 2.5
      vertex 5 -2.5 -2.5
    endloop
  endfacet
  facet normal 0 1 0
    outer loop
      vertex 5 2.5 2.5
      vertex 0 2.5 1.1
      vertex -5 2.5 2.5
    endloop
  endfacet
  facet normal 0 1 0
    outer loop
      vertex 5 2.5 2.5
      vertex 0.232325 2.5 1.0927
      vertex 0 2.5 1.1
    endloop
  endfacet
  facet normal 0 1 0
    outer loop
      vertex 5 2.5 2.5
      vertex 0.463733 2.5 1.07082
      vertex 0.232325 2.5 1.0927
    endloop
  endfacet
  facet normal 0 1 0
    outer loop
      vertex 5 2.5 2.5
      vertex 0.693311 2.5 1.03446
      vertex 0.463733 2.5 1.07082
    endloop
  endfacet
  facet normal 0 1 0
    outer loop
      vertex 5 2.5 2.5
      vertex 0.920152 2.5 0.983757
      vertex 0.693311 2.5 1.03446
    endloop
  endfacet
  facet normal 0 1 0
    outer loop
      vertex 5 2.5 2.5
      vertex 1.14336 2.5 0.918909
      vertex 0.920152 2.5 0.983757
    endloop
  endfacet
  facet normal 0 1 0
    outer loop
      vertex 5 2.5 2.5
      vertex 1.36206 2.5 0.840173
      vertex 1.14336 2.5 0.918909
    endloop
  endfacet
  facet normal 0 1 0
    outer loop
      vertex 5 2.5 2.5
      vertex 1.57538 2.5 0.74786
      vertex 1.36206 2.5 0.840173
    endloop
  endfacet
  facet normal 0 1 0
    outer loop
      vertex 5 2.5 2.5
      vertex 1.78249 2.5 0.642334
      vertex 1.57538 2.5 0.74786
    endloop
  endfacet
  facet normal 0 1 0
    outer loop
      vertex 5 2.5 2.5
      vertex 1.98256 2.5 0.524013
      vertex 1.78249 2.5 0.642334
    endloop
  endfacet
  facet normal 0 1 0
    outer loop
      vertex 5 2.5 2.5
      vertex 2.1748 2.5 0.393362
      vertex 1.98256 2.5 0.524013
    endloop
  endfacet
  facet normal 0 1 0
    outer loop
      vertex 5 2.5 2.5
      vertex 2.35847 2.5 0.250898
      vertex 2.1748 2.5 0.393362
    endloop
  endfacet
  facet normal 0 1 0
    outer loop
      vertex 5 2.5 2.5
      vertex 2.53282 2.5 0.0971832
      vertex 2.35847 2.5 0.250898
    endloop
  endfacet
  facet normal 0 1 0
    outer loop
      vertex 5 2.5 2.5
      vertex 2.69718 2.5 -0.0671749
      vertex 2.53282 2.5 0.0971832
    endloop
  endfacet
  facet normal 0 1 0
    outer loop
      vertex 5 2.5 2.5
      vertex 2.8509 2.5 -0.24153
      vertex 2.69718 2.5 -0.0671749
    endloop
  endfacet
  facet normal 0 1 0
    outer loop
      vertex 5 2.5 2.5
      vertex 2.99336 2.5 -0.425194
      vertex 2.8509 2.5 -0.24153
    endloop
  endfacet
  facet normal 0 1 0
    outer loop
      vertex 5 2.5 2.5
      vertex 3.12401 2.5 -0.61744
      vertex 2.99336 2.5 -0.425194
    endloop
  endfacet
  facet normal 0 1 0
    outer loop
      vertex 5 2.5 2.5
      vertex 3.24233 2.5 -0.817511
      vertex 3.12401 2.5 -0.61744
    endloop
  endfacet
  facet normal 0 1 0
    outer loop
      vertex 5 2.5 2.5
      vertex 3.34786 2.5 -1.02462
      vertex 3.24233 2.5 -0.817511
    endloop
  endfacet
  facet normal 0 1 -0
    outer loop
      vertex 5 2.5 -2.5
      vertex 3.34786 2.5 -1.02462
      vertex 5 2.5 2.5
    endloop
  endfacet
  facet normal 0 1 0
    outer loop
      vertex 3.34786 2.5 -1.02462
      vertex 5 2.5 -2.5
      vertex 3.44017 2.5 -1.23794
    endloop
  endfacet
  facet normal 0 1 0
    outer loop
      vertex 3.44017 2.5 -1.23794
      vertex 5 2.5 -2.5
      vertex 3.51891 2.5 -1.45664
    endloop
  endfacet
  facet normal 0 1 0
    outer loop
      vertex 3.51891 2.5 -1.45664
      vertex 5 2.5 -2.5
      vertex 3.58376 2.5 -1.67985
    endloop
  endfacet
  facet normal 0 1 0
    outer loop
      vertex 3.58376 2.5 -1.67985
      vertex 5 2.5 -2.5
      vertex 3.63446 2.5 -1.90669
    endloop
  endfacet
  facet normal 0 1 0
    outer loop
      vertex 3.63446 2.5 -1.90669
      vertex 5 2.5 -2.5
      vertex 3.67082 2.5 -2.13627
    endloop
  endfacet
  facet normal 0 1 0
    outer loop
      vertex 3.67082 2.5 -2.13627
      vertex 5 2.5 -2.5
      vertex 3.6927 2.5 -2.36767
    endloop
  endfacet
  facet normal 0 1 0
    outer loop
      vertex 3.6927 2.5 -2.36767
      vertex 5 2.5 -2.5
      vertex 3.69686 2.5 -2.5
    endloop
  endfacet
  facet normal 0 1 -0
    outer loop
      vertex -0.232325 2.5 1.0927
      vertex -5 2.5 2.5
      vertex 0 2.5 1.1
    endloop
  endfacet
  facet normal 0 1 -0
    outer loop
      vertex -0.463733 2.5 1.07082
      vertex -5 2.5 2.5
      vertex -0.232325 2.5 1.0927
    endloop
  endfacet
  facet normal 0 1 -0
    outer loop
      vertex -0.693311 2.5 1.03446
      vertex -5 2.5 2.5
      vertex -0.463733 2.5 1.07082
    endloop
  endfacet
  facet normal 0 1 -0
    outer loop
      vertex -0.920152 2.5 0.983757
      vertex -5 2.5 2.5
      vertex -0.693311 2.5 1.03446
    endloop
  endfacet
  facet normal 0 1 -0
    outer loop
      vertex -1.14336 2.5 0.918909
      vertex -5 2.5 2.5
      vertex -0.920152 2.5 0.983757
    endloop
  endfacet
  facet normal 0 1 -0
    outer loop
      vertex -1.36206 2.5 0.840173
      vertex -5 2.5 2.5
      vertex -1.14336 2.5 0.918909
    endloop
  endfacet
  facet normal 0 1 -0
    outer loop
      vertex -1.57538 2.5 0.74786
      vertex -5 2.5 2.5
      vertex -1.36206 2.5 0.840173
    endloop
  endfacet
  facet normal 0 1 -0
    outer loop
      vertex -1.78249 2.5 0.642334
      vertex -5 2.5 2.5
      vertex -1.57538 2.5 0.74786
    endloop
  endfacet
  facet normal 0 1 -0
    outer loop
      vertex -1.98256 2.5 0.524013
      vertex -5 2.5 2.5
      vertex -1.78249 2.5 0.642334
    endloop
  endfacet
  facet normal 0 1 -0
    outer loop
      vertex -2.1748 2.5 0.393362
      vertex -5 2.5 2.5
      vertex -1.98256 2.5 0.524013
    endloop
  endfacet
  facet normal 0 1 -0
    outer loop
      vertex -2.35847 2.5 0.250898
      vertex -5 2.5 2.5
      vertex -2.1748 2.5 0.393362
    endloop
  endfacet
  facet normal 0 1 -0
    outer loop
      vertex -2.53282 2.5 0.0971832
      vertex -5 2.5 2.5
      vertex -2.35847 2.5 0.250898
    endloop
  endfacet
  facet normal 0 1 -0
    outer loop
      vertex -2.69718 2.5 -0.0671749
      vertex -5 2.5 2.5
      vertex -2.53282 2.5 0.0971832
    endloop
  endfacet
  facet normal 0 1 -0
    outer loop
      vertex -2.8509 2.5 -0.24153
      vertex -5 2.5 2.5
      vertex -2.69718 2.5 -0.0671749
    endloop
  endfacet
  facet normal 0 1 -0
    outer loop
      vertex -2.99336 2.5 -0.425194
      vertex -5 2.5 2.5
      vertex -2.8509 2.5 -0.24153
    endloop
  endfacet
  facet normal 0 1 -0
    outer loop
      vertex -3.12401 2.5 -0.61744
      vertex -5 2.5 2.5
      vertex -2.99336 2.5 -0.425194
    endloop
  endfacet
  facet normal 0 1 -0
    outer loop
      vertex -3.24233 2.5 -0.817511
      vertex -5 2.5 2.5
      vertex -3.12401 2.5 -0.61744
    endloop
  endfacet
  facet normal 0 1 -0
    outer loop
      vertex -3.34786 2.5 -1.02462
      vertex -5 2.5 2.5
      vertex -3.24233 2.5 -0.817511
    endloop
  endfacet
  facet normal 0 1 0
    outer loop
      vertex -5 2.5 -2.5
      vertex -3.34786 2.5 -1.02462
      vertex -3.44017 2.5 -1.23794
    endloop
  endfacet
  facet normal 0 1 0
    outer loop
      vertex -5 2.5 -2.5
      vertex -3.44017 2.5 -1.23794
      vertex -3.51891 2.5 -1.45664
    endloop
  endfacet
  facet normal 0 1 0
    outer loop
      vertex -5 2.5 -2.5
      vertex -3.51891 2.5 -1.45664
      vertex -3.58376 2.5 -1.67985
    endloop
  endfacet
  facet normal 0 1 0
    outer loop
      vertex -5 2.5 -2.5
      vertex -3.58376 2.5 -1.67985
      vertex -3.63446 2.5 -1.90669
    endloop
  endfacet
  facet normal 0 1 0
    outer loop
      vertex -5 2.5 -2.5
      vertex -3.63446 2.5 -1.90669
      vertex -3.67082 2.5 -2.13627
    endloop
  endfacet
  facet normal 0 1 0
    outer loop
      vertex -5 2.5 -2.5
      vertex -3.67082 2.5 -2.13627
      vertex -3.6927 2.5 -2.36767
    endloop
  endfacet
  facet normal 0 1 0
    outer loop
      vertex -5 2.5 -2.5
      vertex -3.6927 2.5 -2.36767
      vertex -3.69686 2.5 -2.5
    endloop
  endfacet
  facet normal 0 1 0
    outer loop
      vertex -3.34786 2.5 -1.02462
      vertex -5 2.5 -2.5
      vertex -5 2.5 2.5
    endloop
  endfacet
  facet normal 0 0 -1
    outer loop
      vertex -5 -2.5 -2.5
      vertex -3.69686 2.5 -2.5
      vertex -3.69686 -2.5 -2.5
    endloop
  endfacet
  facet normal -0 0 -1
    outer loop
      vertex -3.69686 2.5 -2.5
      vertex -5 -2.5 -2.5
      vertex -5 2.5 -2.5
    endloop
  endfacet
  facet normal 0 0 -1
    outer loop
      vertex 3.69686 -2.5 -2.5
      vertex 5 2.5 -2.5
      vertex 5 -2.5 -2.5
    endloop
  endfacet
  facet normal -0 0 -1
    outer loop
      vertex 5 2.5 -2.5
      vertex 3.69686 -2.5 -2.5
      vertex 3.69686 2.5 -2.5
    endloop
  endfacet
  facet normal 0 -1 0
    outer loop
      vertex -5 -2.5 2.5
      vertex 0 -2.5 1.1
      vertex 5 -2.5 2.5
    endloop
  endfacet
  facet normal 0 -1 0
    outer loop
      vertex -5 -2.5 2.5
      vertex -0.232325 -2.5 1.0927
      vertex 0 -2.5 1.1
    endloop
  endfacet
  facet normal 0 -1 0
    outer loop
      vertex -5 -2.5 2.5
      vertex -0.463733 -2.5 1.07082
      vertex -0.232325 -2.5 1.0927
    endloop
  endfacet
  facet normal 0 -1 0
    outer loop
      vertex -5 -2.5 2.5
      vertex -0.693311 -2.5 1.03446
      vertex -0.463733 -2.5 1.07082
    endloop
  endfacet
  facet normal 0 -1 0
    outer loop
      vertex -5 -2.5 2.5
      vertex -0.920152 -2.5 0.983757
      vertex -0.693311 -2.5 1.03446
    endloop
  endfacet
  facet normal 0 -1 0
    outer loop
      vertex -5 -2.5 2.5
      vertex -1.14336 -2.5 0.918909
      vertex -0.920152 -2.5 0.983757
    endloop
  endfacet
  facet normal 0 -1 0
    outer loop
      vertex -5 -2.5 2.5
      vertex -1.36206 -2.5 0.840173
      vertex -1.14336 -2.5 0.918909
    endloop
  endfacet
  facet normal 0 -1 0
    outer loop
      vertex -5 -2.5 2.5
      vertex -1.57538 -2.5 0.74786
      vertex -1.36206 -2.5 0.840173
    endloop
  endfacet
  facet normal 0 -1 0
    outer loop
      vertex -5 -2.5 2.5
      vertex -1.78249 -2.5 0.642334
      vertex -1.57538 -2.5 0.74786
    endloop
  endfacet
  facet normal 0 -1 0
    outer loop
      vertex -5 -2.5 2.5
      vertex -1.98256 -2.5 0.524013
      vertex -1.78249 -2.5 0.642334
    endloop
  endfacet
  facet normal 0 -1 0
    outer loop
      vertex -5 -2.5 2.5
      vertex -2.1748 -2.5 0.393362
      vertex -1.98256 -2.5 0.524013
    endloop
  endfacet
  facet normal 0 -1 0
    outer loop
      vertex -5 -2.5 2.5
      vertex -2.35847 -2.5 0.250898
      vertex -2.1748 -2.5 0.393362
    endloop
  endfacet
  facet normal 0 -1 0
    outer loop
      vertex -5 -2.5 2.5
      vertex -2.53282 -2.5 0.0971832
      vertex -2.35847 -2.5 0.250898
    endloop
  endfacet
  facet normal 0 -1 0
    outer loop
      vertex -5 -2.5 2.5
      vertex -2.69718 -2.5 -0.0671749
      vertex -2.53282 -2.5 0.0971832
    endloop
  endfacet
  facet normal 0 -1 0
    outer loop
      vertex -5 -2.5 2.5
      vertex -2.8509 -2.5 -0.24153
      vertex -2.69718 -2.5 -0.0671749
    endloop
  endfacet
  facet normal 0 -1 0
    outer loop
      vertex -5 -2.5 2.5
      vertex -2.99336 -2.5 -0.425194
      vertex -2.8509 -2.5 -0.24153
    endloop
  endfacet
  facet normal 0 -1 0
    outer loop
      vertex -5 -2.5 2.5
      vertex -3.12401 -2.5 -0.61744
      vertex -2.99336 -2.5 -0.425194
    endloop
  endfacet
  facet normal 0 -1 0
    outer loop
      vertex -5 -2.5 2.5
      vertex -3.24233 -2.5 -0.817511
      vertex -3.12401 -2.5 -0.61744
    endloop
  endfacet
  facet normal 0 -1 0
    outer loop
      vertex -5 -2.5 2.5
      vertex -3.34786 -2.5 -1.02462
      vertex -3.24233 -2.5 -0.817511
    endloop
  endfacet
  facet normal 0 -1 0
    outer loop
      vertex -5 -2.5 -2.5
      vertex -3.34786 -2.5 -1.02462
      vertex -5 -2.5 2.5
    endloop
  endfacet
  facet normal 0 -1 0
    outer loop
      vertex -3.34786 -2.5 -1.02462
      vertex -5 -2.5 -2.5
      vertex -3.44017 -2.5 -1.23794
    endloop
  endfacet
  facet normal 0 -1 0
    outer loop
      vertex -3.44017 -2.5 -1.23794
      vertex -5 -2.5 -2.5
      vertex -3.51891 -2.5 -1.45664
    endloop
  endfacet
  facet normal 0 -1 0
    outer loop
      vertex -3.51891 -2.5 -1.45664
      vertex -5 -2.5 -2.5
      vertex -3.58376 -2.5 -1.67985
    endloop
  endfacet
  facet normal 0 -1 0
    outer loop
      vertex -3.58376 -2.5 -1.67985
      vertex -5 -2.5 -2.5
      vertex -3.63446 -2.5 -1.90669
    endloop
  endfacet
  facet normal 0 -1 0
    outer loop
      vertex -3.63446 -2.5 -1.90669
      vertex -5 -2.5 -2.5
      vertex -3.67082 -2.5 -2.13627
    endloop
  endfacet
  facet normal 0 -1 0
    outer loop
      vertex -3.67082 -2.5 -2.13627
      vertex -5 -2.5 -2.5
      vertex -3.6927 -2.5 -2.36767
    endloop
  endfacet
  facet normal 0 -1 0
    outer loop
      vertex -3.6927 -2.5 -2.36767
      vertex -5 -2.5 -2.5
      vertex -3.69686 -2.5 -2.5
    endloop
  endfacet
  facet normal 0 -1 0
    outer loop
      vertex 0.232325 -2.5 1.0927
      vertex 5 -2.5 2.5
      vertex 0 -2.5 1.1
    endloop
  endfacet
  facet normal 0 -1 0
    outer loop
      vertex 0.463733 -2.5 1.07082
      vertex 5 -2.5 2.5
      vertex 0.232325 -2.5 1.0927
    endloop
  endfacet
  facet normal 0 -1 0
    outer loop
      vertex 0.693311 -2.5 1.03446
      vertex 5 -2.5 2.5
      vertex 0.463733 -2.5 1.07082
    endloop
  endfacet
  facet normal 0 -1 0
    outer loop
      vertex 0.920152 -2.5 0.983757
      vertex 5 -2.5 2.5
      vertex 0.693311 -2.5 1.03446
    endloop
  endfacet
  facet normal 0 -1 0
    outer loop
      vertex 1.14336 -2.5 0.918909
      vertex 5 -2.5 2.5
      vertex 0.920152 -2.5 0.983757
    endloop
  endfacet
  facet normal 0 -1 0
    outer loop
      vertex 1.36206 -2.5 0.840173
      vertex 5 -2.5 2.5
      vertex 1.14336 -2.5 0.918909
    endloop
  endfacet
  facet normal 0 -1 0
    outer loop
      vertex 1.57538 -2.5 0.74786
      vertex 5 -2.5 2.5
      vertex 1.36206 -2.5 0.840173
    endloop
  endfacet
  facet normal 0 -1 0
    outer loop
      vertex 1.78249 -2.5 0.642334
      vertex 5 -2.5 2.5
      vertex 1.57538 -2.5 0.74786
    endloop
  endfacet
  facet normal 0 -1 0
    outer loop
      vertex 1.98256 -2.5 0.524013
      vertex 5 -2.5 2.5
      vertex 1.78249 -2.5 0.642334
    endloop
  endfacet
  facet normal 0 -1 0
    outer loop
      vertex 2.1748 -2.5 0.393362
      vertex 5 -2.5 2.5
      vertex 1.98256 -2.5 0.524013
    endloop
  endfacet
  facet normal 0 -1 0
    outer loop
      vertex 2.35847 -2.5 0.250898
      vertex 5 -2.5 2.5
      vertex 2.1748 -2.5 0.393362
    endloop
  endfacet
  facet normal 0 -1 0
    outer loop
      vertex 2.53282 -2.5 0.0971832
      vertex 5 -2.5 2.5
      vertex 2.35847 -2.5 0.250898
    endloop
  endfacet
  facet normal 0 -1 0
    outer loop
      vertex 2.69718 -2.5 -0.0671749
      vertex 5 -2.5 2.5
      vertex 2.53282 -2.5 0.0971832
    endloop
  endfacet
  facet normal 0 -1 0
    outer loop
      vertex 2.8509 -2.5 -0.24153
      vertex 5 -2.5 2.5
      vertex 2.69718 -2.5 -0.0671749
    endloop
  endfacet
  facet normal 0 -1 0
    outer loop
      vertex 2.99336 -2.5 -0.425194
      vertex 5 -2.5 2.5
      vertex 2.8509 -2.5 -0.24153
    endloop
  endfacet
  facet normal 0 -1 0
    outer loop
      vertex 3.12401 -2.5 -0.61744
      vertex 5 -2.5 2.5
      vertex 2.99336 -2.5 -0.425194
    endloop
  endfacet
  facet normal 0 -1 0
    outer loop
      vertex 3.24233 -2.5 -0.817511
      vertex 5 -2.5 2.5
      vertex 3.12401 -2.5 -0.61744
    endloop
  endfacet
  facet normal 0 -1 0
    outer loop
      vertex 3.34786 -2.5 -1.02462
      vertex 5 -2.5 2.5
      vertex 3.24233 -2.5 -0.817511
    endloop
  endfacet
  facet normal 0 -1 0
    outer loop
      vertex 5 -2.5 -2.5
      vertex 3.34786 -2.5 -1.02462
      vertex 3.44017 -2.5 -1.23794
    endloop
  endfacet
  facet normal 0 -1 0
    outer loop
      vertex 5 -2.5 -2.5
      vertex 3.44017 -2.5 -1.23794
      vertex 3.51891 -2.5 -1.45664
    endloop
  endfacet
  facet normal 0 -1 0
    outer loop
      vertex 5 -2.5 -2.5
      vertex 3.51891 -2.5 -1.45664
      vertex 3.58376 -2.5 -1.67985
    endloop
  endfacet
  facet normal 0 -1 0
    outer loop
      vertex 5 -2.5 -2.5
      vertex 3.58376 -2.5 -1.67985
      vertex 3.63446 -2.5 -1.90669
    endloop
  endfacet
  facet normal 0 -1 0
    outer loop
      vertex 5 -2.5 -2.5
      vertex 3.63446 -2.5 -1.90669
      vertex 3.67082 -2.5 -2.13627
    endloop
  endfacet
  facet normal 0 -1 0
    outer loop
      vertex 5 -2.5 -2.5
      vertex 3.67082 -2.5 -2.13627
      vertex 3.6927 -2.5 -2.36767
    endloop
  endfacet
  facet normal 0 -1 0
    outer loop
      vertex 5 -2.5 -2.5
      vertex 3.6927 -2.5 -2.36767
      vertex 3.69686 -2.5 -2.5
    endloop
  endfacet
  facet normal 0 -1 0
    outer loop
      vertex 3.34786 -2.5 -1.02462
      vertex 5 -2.5 -2.5
      vertex 5 -2.5 2.5
    endloop
  endfacet
  facet normal -0.999507 0 -0.0314126
    outer loop
      vertex 3.69686 -2.5 -2.5
      vertex 3.6927 2.5 -2.36767
      vertex 3.69686 2.5 -2.5
    endloop
  endfacet
  facet normal -0.999507 -0 -0.0314126
    outer loop
      vertex 3.6927 2.5 -2.36767
      vertex 3.69686 -2.5 -2.5
      vertex 3.6927 -2.5 -2.36767
    endloop
  endfacet
  facet normal -0.995562 0 -0.094108
    outer loop
      vertex 3.6927 -2.5 -2.36767
      vertex 3.67082 2.5 -2.13627
      vertex 3.6927 2.5 -2.36767
    endloop
  endfacet
  facet normal -0.995562 -0 -0.094108
    outer loop
      vertex 3.67082 2.5 -2.13627
      vertex 3.6927 -2.5 -2.36767
      vertex 3.67082 -2.5 -2.13627
    endloop
  endfacet
  facet normal 0.999507 0 -0.0314126
    outer loop
      vertex -3.6927 -2.5 -2.36767
      vertex -3.69686 2.5 -2.5
      vertex -3.6927 2.5 -2.36767
    endloop
  endfacet
  facet normal 0.999507 0 -0.0314126
    outer loop
      vertex -3.69686 2.5 -2.5
      vertex -3.6927 -2.5 -2.36767
      vertex -3.69686 -2.5 -2.5
    endloop
  endfacet
  facet normal 0.0314118 0 -0.999507
    outer loop
      vertex -0.232325 -2.5 1.0927
      vertex 0 2.5 1.1
      vertex 0 -2.5 1.1
    endloop
  endfacet
  facet normal 0.0314118 0 -0.999507
    outer loop
      vertex 0 2.5 1.1
      vertex -0.232325 -2.5 1.0927
      vertex -0.232325 2.5 1.0927
    endloop
  endfacet
  facet normal -0.0314118 0 -0.999507
    outer loop
      vertex 0 -2.5 1.1
      vertex 0.232325 2.5 1.0927
      vertex 0.232325 -2.5 1.0927
    endloop
  endfacet
  facet normal -0.0314118 0 -0.999507
    outer loop
      vertex 0.232325 2.5 1.0927
      vertex 0 -2.5 1.1
      vertex 0 2.5 1.1
    endloop
  endfacet
  facet normal -0.661312 0 -0.750111
    outer loop
      vertex 2.35847 -2.5 0.250898
      vertex 2.53282 2.5 0.0971832
      vertex 2.53282 -2.5 0.0971832
    endloop
  endfacet
  facet normal -0.661312 0 -0.750111
    outer loop
      vertex 2.53282 2.5 0.0971832
      vertex 2.35847 -2.5 0.250898
      vertex 2.35847 2.5 0.250898
    endloop
  endfacet
  facet normal 0.995562 0 -0.094108
    outer loop
      vertex -3.67082 -2.5 -2.13627
      vertex -3.6927 2.5 -2.36767
      vertex -3.67082 2.5 -2.13627
    endloop
  endfacet
  facet normal 0.995562 0 -0.094108
    outer loop
      vertex -3.6927 2.5 -2.36767
      vertex -3.67082 -2.5 -2.13627
      vertex -3.6927 -2.5 -2.36767
    endloop
  endfacet
  facet normal 0.975917 0 -0.218142
    outer loop
      vertex -3.58376 -2.5 -1.67985
      vertex -3.63446 2.5 -1.90669
      vertex -3.58376 2.5 -1.67985
    endloop
  endfacet
  facet normal 0.975917 0 -0.218142
    outer loop
      vertex -3.63446 2.5 -1.90669
      vertex -3.58376 -2.5 -1.67985
      vertex -3.63446 -2.5 -1.90669
    endloop
  endfacet
  facet normal 0.094108 0 -0.995562
    outer loop
      vertex -0.463733 -2.5 1.07082
      vertex -0.232325 2.5 1.0927
      vertex -0.232325 -2.5 1.0927
    endloop
  endfacet
  facet normal 0.094108 0 -0.995562
    outer loop
      vertex -0.232325 2.5 1.0927
      vertex -0.463733 -2.5 1.07082
      vertex -0.463733 2.5 1.07082
    endloop
  endfacet
  facet normal 0.987688 0 -0.156435
    outer loop
      vertex -3.63446 -2.5 -1.90669
      vertex -3.67082 2.5 -2.13627
      vertex -3.63446 2.5 -1.90669
    endloop
  endfacet
  facet normal 0.987688 0 -0.156435
    outer loop
      vertex -3.67082 2.5 -2.13627
      vertex -3.63446 -2.5 -1.90669
      vertex -3.67082 -2.5 -2.13627
    endloop
  endfacet
  facet normal -0.891008 0 -0.453989
    outer loop
      vertex 3.34786 -2.5 -1.02462
      vertex 3.24233 2.5 -0.817511
      vertex 3.34786 2.5 -1.02462
    endloop
  endfacet
  facet normal -0.891008 -0 -0.453989
    outer loop
      vertex 3.24233 2.5 -0.817511
      vertex 3.34786 -2.5 -1.02462
      vertex 3.24233 -2.5 -0.817511
    endloop
  endfacet
  facet normal 0.338738 0 -0.940881
    outer loop
      vertex -1.36206 -2.5 0.840173
      vertex -1.14336 2.5 0.918909
      vertex -1.14336 -2.5 0.918909
    endloop
  endfacet
  facet normal 0.338738 0 -0.940881
    outer loop
      vertex -1.14336 2.5 0.918909
      vertex -1.36206 -2.5 0.840173
      vertex -1.36206 2.5 0.840173
    endloop
  endfacet
  facet normal 0.891008 0 -0.453989
    outer loop
      vertex -3.24233 -2.5 -0.817511
      vertex -3.34786 2.5 -1.02462
      vertex -3.24233 2.5 -0.817511
    endloop
  endfacet
  facet normal 0.891008 0 -0.453989
    outer loop
      vertex -3.34786 2.5 -1.02462
      vertex -3.24233 -2.5 -0.817511
      vertex -3.34786 -2.5 -1.02462
    endloop
  endfacet
  facet normal -0.562083 0 -0.827081
    outer loop
      vertex 1.98256 -2.5 0.524013
      vertex 2.1748 2.5 0.393362
      vertex 2.1748 -2.5 0.393362
    endloop
  endfacet
  facet normal -0.562083 0 -0.827081
    outer loop
      vertex 2.1748 2.5 0.393362
      vertex 1.98256 -2.5 0.524013
      vertex 1.98256 2.5 0.524013
    endloop
  endfacet
  facet normal -0.397147 0 -0.917755
    outer loop
      vertex 1.36206 -2.5 0.840173
      vertex 1.57538 2.5 0.74786
      vertex 1.57538 -2.5 0.74786
    endloop
  endfacet
  facet normal -0.397147 0 -0.917755
    outer loop
      vertex 1.57538 2.5 0.74786
      vertex 1.36206 -2.5 0.840173
      vertex 1.36206 2.5 0.840173
    endloop
  endfacet
  facet normal 0.860742 0 -0.509042
    outer loop
      vertex -3.12401 -2.5 -0.61744
      vertex -3.24233 2.5 -0.817511
      vertex -3.12401 2.5 -0.61744
    endloop
  endfacet
  facet normal 0.860742 0 -0.509042
    outer loop
      vertex -3.24233 2.5 -0.817511
      vertex -3.12401 -2.5 -0.61744
      vertex -3.24233 -2.5 -0.817511
    endloop
  endfacet
  facet normal -0.156435 0 -0.987688
    outer loop
      vertex 0.463733 -2.5 1.07082
      vertex 0.693311 2.5 1.03446
      vertex 0.693311 -2.5 1.03446
    endloop
  endfacet
  facet normal -0.156435 0 -0.987688
    outer loop
      vertex 0.693311 2.5 1.03446
      vertex 0.463733 -2.5 1.07082
      vertex 0.463733 2.5 1.07082
    endloop
  endfacet
  facet normal -0.338738 0 -0.940881
    outer loop
      vertex 1.14336 -2.5 0.918909
      vertex 1.36206 2.5 0.840173
      vertex 1.36206 -2.5 0.840173
    endloop
  endfacet
  facet normal -0.338738 0 -0.940881
    outer loop
      vertex 1.36206 2.5 0.840173
      vertex 1.14336 -2.5 0.918909
      vertex 1.14336 2.5 0.918909
    endloop
  endfacet
  facet normal -0.218143 0 -0.975917
    outer loop
      vertex 0.693311 -2.5 1.03446
      vertex 0.920152 2.5 0.983757
      vertex 0.920152 -2.5 0.983757
    endloop
  endfacet
  facet normal -0.218143 0 -0.975917
    outer loop
      vertex 0.920152 2.5 0.983757
      vertex 0.693311 -2.5 1.03446
      vertex 0.693311 2.5 1.03446
    endloop
  endfacet
  facet normal -0.453993 0 -0.891005
    outer loop
      vertex 1.57538 -2.5 0.74786
      vertex 1.78249 2.5 0.642334
      vertex 1.78249 -2.5 0.642334
    endloop
  endfacet
  facet normal -0.453993 0 -0.891005
    outer loop
      vertex 1.78249 2.5 0.642334
      vertex 1.57538 -2.5 0.74786
      vertex 1.57538 2.5 0.74786
    endloop
  endfacet
  facet normal -0.987688 0 -0.156435
    outer loop
      vertex 3.67082 -2.5 -2.13627
      vertex 3.63446 2.5 -1.90669
      vertex 3.67082 2.5 -2.13627
    endloop
  endfacet
  facet normal -0.987688 -0 -0.156435
    outer loop
      vertex 3.63446 2.5 -1.90669
      vertex 3.67082 -2.5 -2.13627
      vertex 3.63446 -2.5 -1.90669
    endloop
  endfacet
  facet normal -0.860742 0 -0.509042
    outer loop
      vertex 3.24233 -2.5 -0.817511
      vertex 3.12401 2.5 -0.61744
      vertex 3.24233 2.5 -0.817511
    endloop
  endfacet
  facet normal -0.860742 -0 -0.509042
    outer loop
      vertex 3.12401 2.5 -0.61744
      vertex 3.24233 -2.5 -0.817511
      vertex 3.12401 -2.5 -0.61744
    endloop
  endfacet
  facet normal -0.960293 0 -0.278992
    outer loop
      vertex 3.58376 -2.5 -1.67985
      vertex 3.51891 2.5 -1.45664
      vertex 3.58376 2.5 -1.67985
    endloop
  endfacet
  facet normal -0.960293 -0 -0.278992
    outer loop
      vertex 3.51891 2.5 -1.45664
      vertex 3.58376 -2.5 -1.67985
      vertex 3.51891 -2.5 -1.45664
    endloop
  endfacet
  facet normal -0.975917 0 -0.218142
    outer loop
      vertex 3.63446 -2.5 -1.90669
      vertex 3.58376 2.5 -1.67985
      vertex 3.63446 2.5 -1.90669
    endloop
  endfacet
  facet normal -0.975917 -0 -0.218142
    outer loop
      vertex 3.58376 2.5 -1.67985
      vertex 3.63446 -2.5 -1.90669
      vertex 3.58376 -2.5 -1.67985
    endloop
  endfacet
  facet normal 0.156435 0 -0.987688
    outer loop
      vertex -0.693311 -2.5 1.03446
      vertex -0.463733 2.5 1.07082
      vertex -0.463733 -2.5 1.07082
    endloop
  endfacet
  facet normal 0.156435 0 -0.987688
    outer loop
      vertex -0.463733 2.5 1.07082
      vertex -0.693311 -2.5 1.03446
      vertex -0.693311 2.5 1.03446
    endloop
  endfacet
  facet normal 0.509042 0 -0.860742
    outer loop
      vertex -1.98256 -2.5 0.524013
      vertex -1.78249 2.5 0.642334
      vertex -1.78249 -2.5 0.642334
    endloop
  endfacet
  facet normal 0.509042 0 -0.860742
    outer loop
      vertex -1.78249 2.5 0.642334
      vertex -1.98256 -2.5 0.524013
      vertex -1.98256 2.5 0.524013
    endloop
  endfacet
  facet normal 0.278989 0 -0.960294
    outer loop
      vertex -1.14336 -2.5 0.918909
      vertex -0.920152 2.5 0.983757
      vertex -0.920152 -2.5 0.983757
    endloop
  endfacet
  facet normal 0.278989 0 -0.960294
    outer loop
      vertex -0.920152 2.5 0.983757
      vertex -1.14336 -2.5 0.918909
      vertex -1.14336 2.5 0.918909
    endloop
  endfacet
  facet normal 0.612906 0 -0.790155
    outer loop
      vertex -2.35847 -2.5 0.250898
      vertex -2.1748 2.5 0.393362
      vertex -2.1748 -2.5 0.393362
    endloop
  endfacet
  facet normal 0.612906 0 -0.790155
    outer loop
      vertex -2.1748 2.5 0.393362
      vertex -2.35847 -2.5 0.250898
      vertex -2.35847 2.5 0.250898
    endloop
  endfacet
  facet normal 0.790155 0 -0.612906
    outer loop
      vertex -2.8509 -2.5 -0.24153
      vertex -2.99336 2.5 -0.425194
      vertex -2.8509 2.5 -0.24153
    endloop
  endfacet
  facet normal 0.790155 0 -0.612906
    outer loop
      vertex -2.99336 2.5 -0.425194
      vertex -2.8509 -2.5 -0.24153
      vertex -2.99336 -2.5 -0.425194
    endloop
  endfacet
  facet normal 0.750111 0 -0.661312
    outer loop
      vertex -2.69718 -2.5 -0.0671749
      vertex -2.8509 2.5 -0.24153
      vertex -2.69718 2.5 -0.0671749
    endloop
  endfacet
  facet normal 0.750111 0 -0.661312
    outer loop
      vertex -2.8509 2.5 -0.24153
      vertex -2.69718 -2.5 -0.0671749
      vertex -2.8509 -2.5 -0.24153
    endloop
  endfacet
  facet normal 0.960293 0 -0.278992
    outer loop
      vertex -3.51891 -2.5 -1.45664
      vertex -3.58376 2.5 -1.67985
      vertex -3.51891 2.5 -1.45664
    endloop
  endfacet
  facet normal 0.960293 0 -0.278992
    outer loop
      vertex -3.58376 2.5 -1.67985
      vertex -3.51891 -2.5 -1.45664
      vertex -3.58376 -2.5 -1.67985
    endloop
  endfacet
  facet normal -0.094108 0 -0.995562
    outer loop
      vertex 0.232325 -2.5 1.0927
      vertex 0.463733 2.5 1.07082
      vertex 0.463733 -2.5 1.07082
    endloop
  endfacet
  facet normal -0.094108 0 -0.995562
    outer loop
      vertex 0.463733 2.5 1.07082
      vertex 0.232325 -2.5 1.0927
      vertex 0.232325 2.5 1.0927
    endloop
  endfacet
  facet normal -0.278989 0 -0.960294
    outer loop
      vertex 0.920152 -2.5 0.983757
      vertex 1.14336 2.5 0.918909
      vertex 1.14336 -2.5 0.918909
    endloop
  endfacet
  facet normal -0.278989 0 -0.960294
    outer loop
      vertex 1.14336 2.5 0.918909
      vertex 0.920152 -2.5 0.983757
      vertex 0.920152 2.5 0.983757
    endloop
  endfacet
  facet normal -0.612906 0 -0.790155
    outer loop
      vertex 2.1748 -2.5 0.393362
      vertex 2.35847 2.5 0.250898
      vertex 2.35847 -2.5 0.250898
    endloop
  endfacet
  facet normal -0.612906 0 -0.790155
    outer loop
      vertex 2.35847 2.5 0.250898
      vertex 2.1748 -2.5 0.393362
      vertex 2.1748 2.5 0.393362
    endloop
  endfacet
  facet normal -0.509042 0 -0.860742
    outer loop
      vertex 1.78249 -2.5 0.642334
      vertex 1.98256 2.5 0.524013
      vertex 1.98256 -2.5 0.524013
    endloop
  endfacet
  facet normal -0.509042 0 -0.860742
    outer loop
      vertex 1.98256 2.5 0.524013
      vertex 1.78249 -2.5 0.642334
      vertex 1.78249 2.5 0.642334
    endloop
  endfacet
  facet normal -0.917755 0 -0.397147
    outer loop
      vertex 3.44017 -2.5 -1.23794
      vertex 3.34786 2.5 -1.02462
      vertex 3.44017 2.5 -1.23794
    endloop
  endfacet
  facet normal -0.917755 -0 -0.397147
    outer loop
      vertex 3.34786 2.5 -1.02462
      vertex 3.44017 -2.5 -1.23794
      vertex 3.34786 -2.5 -1.02462
    endloop
  endfacet
  facet normal 0.562083 0 -0.827081
    outer loop
      vertex -2.1748 -2.5 0.393362
      vertex -1.98256 2.5 0.524013
      vertex -1.98256 -2.5 0.524013
    endloop
  endfacet
  facet normal 0.562083 0 -0.827081
    outer loop
      vertex -1.98256 2.5 0.524013
      vertex -2.1748 -2.5 0.393362
      vertex -2.1748 2.5 0.393362
    endloop
  endfacet
  facet normal 0.397147 0 -0.917755
    outer loop
      vertex -1.57538 -2.5 0.74786
      vertex -1.36206 2.5 0.840173
      vertex -1.36206 -2.5 0.840173
    endloop
  endfacet
  facet normal 0.397147 0 -0.917755
    outer loop
      vertex -1.36206 2.5 0.840173
      vertex -1.57538 -2.5 0.74786
      vertex -1.57538 2.5 0.74786
    endloop
  endfacet
  facet normal 0.453993 0 -0.891005
    outer loop
      vertex -1.78249 -2.5 0.642334
      vertex -1.57538 2.5 0.74786
      vertex -1.57538 -2.5 0.74786
    endloop
  endfacet
  facet normal 0.453993 0 -0.891005
    outer loop
      vertex -1.57538 2.5 0.74786
      vertex -1.78249 -2.5 0.642334
      vertex -1.78249 2.5 0.642334
    endloop
  endfacet
  facet normal 0.218143 0 -0.975917
    outer loop
      vertex -0.920152 -2.5 0.983757
      vertex -0.693311 2.5 1.03446
      vertex -0.693311 -2.5 1.03446
    endloop
  endfacet
  facet normal 0.218143 0 -0.975917
    outer loop
      vertex -0.693311 2.5 1.03446
      vertex -0.920152 -2.5 0.983757
      vertex -0.920152 2.5 0.983757
    endloop
  endfacet
  facet normal 0.707103 0 -0.707111
    outer loop
      vertex -2.69718 -2.5 -0.0671749
      vertex -2.53282 2.5 0.0971832
      vertex -2.53282 -2.5 0.0971832
    endloop
  endfacet
  facet normal 0.707103 0 -0.707111
    outer loop
      vertex -2.53282 2.5 0.0971832
      vertex -2.69718 -2.5 -0.0671749
      vertex -2.69718 2.5 -0.0671749
    endloop
  endfacet
  facet normal 0.827081 0 -0.562083
    outer loop
      vertex -2.99336 -2.5 -0.425194
      vertex -3.12401 2.5 -0.61744
      vertex -2.99336 2.5 -0.425194
    endloop
  endfacet
  facet normal 0.827081 0 -0.562083
    outer loop
      vertex -3.12401 2.5 -0.61744
      vertex -2.99336 -2.5 -0.425194
      vertex -3.12401 -2.5 -0.61744
    endloop
  endfacet
  facet normal 0.94088 0 -0.338739
    outer loop
      vertex -3.44017 -2.5 -1.23794
      vertex -3.51891 2.5 -1.45664
      vertex -3.44017 2.5 -1.23794
    endloop
  endfacet
  facet normal 0.94088 0 -0.338739
    outer loop
      vertex -3.51891 2.5 -1.45664
      vertex -3.44017 -2.5 -1.23794
      vertex -3.51891 -2.5 -1.45664
    endloop
  endfacet
  facet normal -0.827081 0 -0.562083
    outer loop
      vertex 3.12401 -2.5 -0.61744
      vertex 2.99336 2.5 -0.425194
      vertex 3.12401 2.5 -0.61744
    endloop
  endfacet
  facet normal -0.827081 -0 -0.562083
    outer loop
      vertex 2.99336 2.5 -0.425194
      vertex 3.12401 -2.5 -0.61744
      vertex 2.99336 -2.5 -0.425194
    endloop
  endfacet
  facet normal -0.790155 0 -0.612906
    outer loop
      vertex 2.99336 -2.5 -0.425194
      vertex 2.8509 2.5 -0.24153
      vertex 2.99336 2.5 -0.425194
    endloop
  endfacet
  facet normal -0.790155 -0 -0.612906
    outer loop
      vertex 2.8509 2.5 -0.24153
      vertex 2.99336 -2.5 -0.425194
      vertex 2.8509 -2.5 -0.24153
    endloop
  endfacet
  facet normal -0.750111 0 -0.661312
    outer loop
      vertex 2.8509 -2.5 -0.24153
      vertex 2.69718 2.5 -0.0671749
      vertex 2.8509 2.5 -0.24153
    endloop
  endfacet
  facet normal -0.750111 -0 -0.661312
    outer loop
      vertex 2.69718 2.5 -0.0671749
      vertex 2.8509 -2.5 -0.24153
      vertex 2.69718 -2.5 -0.0671749
    endloop
  endfacet
  facet normal -0.707103 0 -0.707111
    outer loop
      vertex 2.53282 -2.5 0.0971832
      vertex 2.69718 2.5 -0.0671749
      vertex 2.69718 -2.5 -0.0671749
    endloop
  endfacet
  facet normal -0.707103 0 -0.707111
    outer loop
      vertex 2.69718 2.5 -0.0671749
      vertex 2.53282 -2.5 0.0971832
      vertex 2.53282 2.5 0.0971832
    endloop
  endfacet
  facet normal -0.94088 0 -0.338739
    outer loop
      vertex 3.51891 -2.5 -1.45664
      vertex 3.44017 2.5 -1.23794
      vertex 3.51891 2.5 -1.45664
    endloop
  endfacet
  facet normal -0.94088 -0 -0.338739
    outer loop
      vertex 3.44017 2.5 -1.23794
      vertex 3.51891 -2.5 -1.45664
      vertex 3.44017 -2.5 -1.23794
    endloop
  endfacet
  facet normal 0.661312 0 -0.750111
    outer loop
      vertex -2.53282 -2.5 0.0971832
      vertex -2.35847 2.5 0.250898
      vertex -2.35847 -2.5 0.250898
    endloop
  endfacet
  facet normal 0.661312 0 -0.750111
    outer loop
      vertex -2.35847 2.5 0.250898
      vertex -2.53282 -2.5 0.0971832
      vertex -2.53282 2.5 0.0971832
    endloop
  endfacet
  facet normal 0.917755 0 -0.397147
    outer loop
      vertex -3.34786 -2.5 -1.02462
      vertex -3.44017 2.5 -1.23794
      vertex -3.34786 2.5 -1.02462
    endloop
  endfacet
  facet normal 0.917755 0 -0.397147
    outer loop
      vertex -3.44017 2.5 -1.23794
      vertex -3.34786 -2.5 -1.02462
      vertex -3.44017 -2.5 -1.23794
    endloop
  endfacet
endsolid OpenSCAD_Model
