solid OpenSCAD_Model
  facet normal -1 0 0
    outer loop
      vertex -5 -2.5 -2.5
      vertex -5 2.5 2.5
      vertex -5 2.5 -2.5
    endloop
  endfacet
  facet normal -1 -0 0
    outer loop
      vertex -5 2.5 2.5
      vertex -5 -2.5 -2.5
      vertex -5 -2.5 2.5
    endloop
  endfacet
  facet normal -0 0 1
    outer loop
      vertex -5 2.5 2.5
      vertex 5 -2.5 2.5
      vertex 5 2.5 2.5
    endloop
  endfacet
  facet normal 0 0 1
    outer loop
      vertex 5 -2.5 2.5
      vertex -5 2.5 2.5
      vertex -5 -2.5 2.5
    endloop
  endfacet
  facet normal 1 -0 0
    outer loop
      vertex 5 -2.5 2.5
      vertex 5 2.5 -2.5
      vertex 5 2.5 2.5
    endloop
  endfacet
  facet normal 1 0 0
    outer loop
      vertex 5 2.5 -2.5
      vertex 5 -2.5 2.5
      vertex 5 -2.5 -2.5
    endloop
  endfacet
  facet normal 0 1 0
    outer loop
      vertex 5 2.5 2.5
      vertex 0 2.5 0.7
      vertex -5 2.5 2.5
    endloop
  endfacet
  facet normal 0 1 0
    outer loop
      vertex 5 2.5 2.5
      vertex 0.188371 2.5 0.694079
      vertex 0 2.5 0.7
    endloop
  endfacet
  facet normal 0 1 0
    outer loop
      vertex 5 2.5 2.5
      vertex 0.375999 2.5 0.676344
      vertex 0.188371 2.5 0.694079
    endloop
  endfacet
  facet normal 0 1 0
    outer loop
      vertex 5 2.5 2.5
      vertex 0.562143 2.5 0.646861
      vertex 0.375999 2.5 0.676344
    endloop
  endfacet
  facet normal 0 1 0
    outer loop
      vertex 5 2.5 2.5
      vertex 0.746069 2.5 0.605749
      vertex 0.562143 2.5 0.646861
    endloop
  endfacet
  facet normal 0 1 0
    outer loop
      vertex 5 2.5 2.5
      vertex 0.927051 2.5 0.553169
      vertex 0.746069 2.5 0.605749
    endloop
  endfacet
  facet normal 0 1 0
    outer loop
      vertex 5 2.5 2.5
      vertex 1.10437 2.5 0.489329
      vertex 0.927051 2.5 0.553169
    endloop
  endfacet
  facet normal 0 1 0
    outer loop
      vertex 5 2.5 2.5
      vertex 1.27734 2.5 0.41448
      vertex 1.10437 2.5 0.489329
    endloop
  endfacet
  facet normal 0 1 0
    outer loop
      vertex 5 2.5 2.5
      vertex 1.44526 2.5 0.328919
      vertex 1.27734 2.5 0.41448
    endloop
  endfacet
  facet normal 0 1 0
    outer loop
      vertex 5 2.5 2.5
      vertex 1.60748 2.5 0.232984
      vertex 1.44526 2.5 0.328919
    endloop
  endfacet
  facet normal 0 1 0
    outer loop
      vertex 5 2.5 2.5
      vertex 1.76336 2.5 0.12705
      vertex 1.60748 2.5 0.232984
    endloop
  endfacet
  facet normal 0 1 0
    outer loop
      vertex 5 2.5 2.5
      vertex 1.91227 2.5 0.0115395
      vertex 1.76336 2.5 0.12705
    endloop
  endfacet
  facet normal 0 1 0
    outer loop
      vertex 5 2.5 2.5
      vertex 2.05364 2.5 -0.113093
      vertex 1.91227 2.5 0.0115395
    endloop
  endfacet
  facet normal 0 1 0
    outer loop
      vertex 5 2.5 2.5
      vertex 2.18691 2.5 -0.246358
      vertex 2.05364 2.5 -0.113093
    endloop
  endfacet
  facet normal 0 1 0
    outer loop
      vertex 5 2.5 2.5
      vertex 2.31154 2.5 -0.387728
      vertex 2.18691 2.5 -0.246358
    endloop
  endfacet
  facet normal 0 1 0
    outer loop
      vertex 5 2.5 2.5
      vertex 2.42705 2.5 -0.536644
      vertex 2.31154 2.5 -0.387728
    endloop
  endfacet
  facet normal 0 1 0
    outer loop
      vertex 5 2.5 2.5
      vertex 2.53298 2.5 -0.692519
      vertex 2.42705 2.5 -0.536644
    endloop
  endfacet
  facet normal 0 1 0
    outer loop
      vertex 5 2.5 2.5
      vertex 2.62892 2.5 -0.854738
      vertex 2.53298 2.5 -0.692519
    endloop
  endfacet
  facet normal 0 1 0
    outer loop
      vertex 5 2.5 2.5
      vertex 2.71448 2.5 -1.02266
      vertex 2.62892 2.5 -0.854738
    endloop
  endfacet
  facet normal 0 1 -0
    outer loop
      vertex 5 2.5 -2.5
      vertex 2.71448 2.5 -1.02266
      vertex 5 2.5 2.5
    endloop
  endfacet
  facet normal 0 1 0
    outer loop
      vertex 2.71448 2.5 -1.02266
      vertex 5 2.5 -2.5
      vertex 2.78933 2.5 -1.19563
    endloop
  endfacet
  facet normal 0 1 0
    outer loop
      vertex 2.78933 2.5 -1.19563
      vertex 5 2.5 -2.5
      vertex 2.85317 2.5 -1.37295
    endloop
  endfacet
  facet normal 0 1 0
    outer loop
      vertex 2.85317 2.5 -1.37295
      vertex 5 2.5 -2.5
      vertex 2.90575 2.5 -1.55393
    endloop
  endfacet
  facet normal 0 1 0
    outer loop
      vertex 2.90575 2.5 -1.55393
      vertex 5 2.5 -2.5
      vertex 2.94686 2.5 -1.73786
    endloop
  endfacet
  facet normal 0 1 0
    outer loop
      vertex 2.94686 2.5 -1.73786
      vertex 5 2.5 -2.5
      vertex 2.97634 2.5 -1.924
    endloop
  endfacet
  facet normal 0 1 0
    outer loop
      vertex 2.97634 2.5 -1.924
      vertex 5 2.5 -2.5
      vertex 2.99408 2.5 -2.11163
    endloop
  endfacet
  facet normal 0 1 0
    outer loop
      vertex 2.99408 2.5 -2.11163
      vertex 5 2.5 -2.5
      vertex 3 2.5 -2.3
    endloop
  endfacet
  facet normal 0 1 0
    outer loop
      vertex 3 2.5 -2.3
      vertex 5 2.5 -2.5
      vertex 2.99408 2.5 -2.48837
    endloop
  endfacet
  facet normal 0 1 0
    outer loop
      vertex 2.99408 2.5 -2.48837
      vertex 5 2.5 -2.5
      vertex 2.99298 2.5 -2.5
    endloop
  endfacet
  facet normal 0 1 -0
    outer loop
      vertex -0.188371 2.5 0.694079
      vertex -5 2.5 2.5
      vertex 0 2.5 0.7
    endloop
  endfacet
  facet normal 0 1 -0
    outer loop
      vertex -0.375999 2.5 0.676344
      vertex -5 2.5 2.5
      vertex -0.188371 2.5 0.694079
    endloop
  endfacet
  facet normal 0 1 -0
    outer loop
      vertex -0.562143 2.5 0.646861
      vertex -5 2.5 2.5
      vertex -0.375999 2.5 0.676344
    endloop
  endfacet
  facet normal 0 1 -0
    outer loop
      vertex -0.746069 2.5 0.605749
      vertex -5 2.5 2.5
      vertex -0.562143 2.5 0.646861
    endloop
  endfacet
  facet normal 0 1 -0
    outer loop
      vertex -0.927051 2.5 0.553169
      vertex -5 2.5 2.5
      vertex -0.746069 2.5 0.605749
    endloop
  endfacet
  facet normal 0 1 -0
    outer loop
      vertex -1.10437 2.5 0.489329
      vertex -5 2.5 2.5
      vertex -0.927051 2.5 0.553169
    endloop
  endfacet
  facet normal 0 1 -0
    outer loop
      vertex -1.27734 2.5 0.41448
      vertex -5 2.5 2.5
      vertex -1.10437 2.5 0.489329
    endloop
  endfacet
  facet normal 0 1 -0
    outer loop
      vertex -1.44526 2.5 0.328919
      vertex -5 2.5 2.5
      vertex -1.27734 2.5 0.41448
    endloop
  endfacet
  facet normal 0 1 -0
    outer loop
      vertex -1.60748 2.5 0.232984
      vertex -5 2.5 2.5
      vertex -1.44526 2.5 0.328919
    endloop
  endfacet
  facet normal 0 1 -0
    outer loop
      vertex -1.76336 2.5 0.12705
      vertex -5 2.5 2.5
      vertex -1.60748 2.5 0.232984
    endloop
  endfacet
  facet normal 0 1 -0
    outer loop
      vertex -1.91227 2.5 0.0115395
      vertex -5 2.5 2.5
      vertex -1.76336 2.5 0.12705
    endloop
  endfacet
  facet normal 0 1 -0
    outer loop
      vertex -2.05364 2.5 -0.113093
      vertex -5 2.5 2.5
      vertex -1.91227 2.5 0.0115395
    endloop
  endfacet
  facet normal 0 1 -0
    outer loop
      vertex -2.18691 2.5 -0.246358
      vertex -5 2.5 2.5
      vertex -2.05364 2.5 -0.113093
    endloop
  endfacet
  facet normal 0 1 -0
    outer loop
      vertex -2.31154 2.5 -0.387728
      vertex -5 2.5 2.5
      vertex -2.18691 2.5 -0.246358
    endloop
  endfacet
  facet normal 0 1 -0
    outer loop
      vertex -2.42705 2.5 -0.536644
      vertex -5 2.5 2.5
      vertex -2.31154 2.5 -0.387728
    endloop
  endfacet
  facet normal 0 1 -0
    outer loop
      vertex -2.53298 2.5 -0.692519
      vertex -5 2.5 2.5
      vertex -2.42705 2.5 -0.536644
    endloop
  endfacet
  facet normal 0 1 -0
    outer loop
      vertex -2.62892 2.5 -0.854738
      vertex -5 2.5 2.5
      vertex -2.53298 2.5 -0.692519
    endloop
  endfacet
  facet normal 0 1 -0
    outer loop
      vertex -2.71448 2.5 -1.02266
      vertex -5 2.5 2.5
      vertex -2.62892 2.5 -0.854738
    endloop
  endfacet
  facet normal 0 1 0
    outer loop
      vertex -5 2.5 -2.5
      vertex -2.71448 2.5 -1.02266
      vertex -2.78933 2.5 -1.19563
    endloop
  endfacet
  facet normal 0 1 0
    outer loop
      vertex -5 2.5 -2.5
      vertex -2.78933 2.5 -1.19563
      vertex -2.85317 2.5 -1.37295
    endloop
  endfacet
  facet normal 0 1 0
    outer loop
      vertex -5 2.5 -2.5
      vertex -2.85317 2.5 -1.37295
      vertex -2.90575 2.5 -1.55393
    endloop
  endfacet
  facet normal 0 1 0
    outer loop
      vertex -5 2.5 -2.5
      vertex -2.90575 2.5 -1.55393
      vertex -2.94686 2.5 -1.73786
    endloop
  endfacet
  facet normal 0 1 0
    outer loop
      vertex -5 2.5 -2.5
      vertex -2.94686 2.5 -1.73786
      vertex -2.97634 2.5 -1.924
    endloop
  endfacet
  facet normal 0 1 0
    outer loop
      vertex -5 2.5 -2.5
      vertex -2.97634 2.5 -1.924
      vertex -2.99408 2.5 -2.11163
    endloop
  endfacet
  facet normal 0 1 0
    outer loop
      vertex -5 2.5 -2.5
      vertex -2.99408 2.5 -2.11163
      vertex -3 2.5 -2.3
    endloop
  endfacet
  facet normal 0 1 0
    outer loop
      vertex -5 2.5 -2.5
      vertex -3 2.5 -2.3
      vertex -2.99408 2.5 -2.48837
    endloop
  endfacet
  facet normal 0 1 0
    outer loop
      vertex -5 2.5 -2.5
      vertex -2.99408 2.5 -2.48837
      vertex -2.99298 2.5 -2.5
    endloop
  endfacet
  facet normal 0 1 0
    outer loop
      vertex -2.71448 2.5 -1.02266
      vertex -5 2.5 -2.5
      vertex -5 2.5 2.5
    endloop
  endfacet
  facet normal 0 0 -1
    outer loop
      vertex -5 -2.5 -2.5
      vertex -2.99298 2.5 -2.5
      vertex -2.99298 -2.5 -2.5
    endloop
  endfacet
  facet normal -0 0 -1
    outer loop
      vertex -2.99298 2.5 -2.5
      vertex -5 -2.5 -2.5
      vertex -5 2.5 -2.5
    endloop
  endfacet
  facet normal 0 0 -1
    outer loop
      vertex 2.99298 -2.5 -2.5
      vertex 5 2.5 -2.5
      vertex 5 -2.5 -2.5
    endloop
  endfacet
  facet normal -0 0 -1
    outer loop
      vertex 5 2.5 -2.5
      vertex 2.99298 -2.5 -2.5
      vertex 2.99298 2.5 -2.5
    endloop
  endfacet
  facet normal 0 -1 0
    outer loop
      vertex -5 -2.5 2.5
      vertex 0 -2.5 0.7
      vertex 5 -2.5 2.5
    endloop
  endfacet
  facet normal 0 -1 0
    outer loop
      vertex -5 -2.5 2.5
      vertex -0.188371 -2.5 0.694079
      vertex 0 -2.5 0.7
    endloop
  endfacet
  facet normal 0 -1 0
    outer loop
      vertex -5 -2.5 2.5
      vertex -0.375999 -2.5 0.676344
      vertex -0.188371 -2.5 0.694079
    endloop
  endfacet
  facet normal 0 -1 0
    outer loop
      vertex -5 -2.5 2.5
      vertex -0.562143 -2.5 0.646861
      vertex -0.375999 -2.5 0.676344
    endloop
  endfacet
  facet normal 0 -1 0
    outer loop
      vertex -5 -2.5 2.5
      vertex -0.746069 -2.5 0.605749
      vertex -0.562143 -2.5 0.646861
    endloop
  endfacet
  facet normal 0 -1 0
    outer loop
      vertex -5 -2.5 2.5
      vertex -0.927051 -2.5 0.553169
      vertex -0.746069 -2.5 0.605749
    endloop
  endfacet
  facet normal 0 -1 0
    outer loop
      vertex -5 -2.5 2.5
      vertex -1.10437 -2.5 0.489329
      vertex -0.927051 -2.5 0.553169
    endloop
  endfacet
  facet normal 0 -1 0
    outer loop
      vertex -5 -2.5 2.5
      vertex -1.27734 -2.5 0.41448
      vertex -1.10437 -2.5 0.489329
    endloop
  endfacet
  facet normal 0 -1 0
    outer loop
      vertex -5 -2.5 2.5
      vertex -1.44526 -2.5 0.328919
      vertex -1.27734 -2.5 0.41448
    endloop
  endfacet
  facet normal 0 -1 0
    outer loop
      vertex -5 -2.5 2.5
      vertex -1.60748 -2.5 0.232984
      vertex -1.44526 -2.5 0.328919
    endloop
  endfacet
  facet normal 0 -1 0
    outer loop
      vertex -5 -2.5 2.5
      vertex -1.76336 -2.5 0.12705
      vertex -1.60748 -2.5 0.232984
    endloop
  endfacet
  facet normal 0 -1 0
    outer loop
      vertex -5 -2.5 2.5
      vertex -1.91227 -2.5 0.0115395
      vertex -1.76336 -2.5 0.12705
    endloop
  endfacet
  facet normal 0 -1 0
    outer loop
      vertex -5 -2.5 2.5
      vertex -2.05364 -2.5 -0.113093
      vertex -1.91227 -2.5 0.0115395
    endloop
  endfacet
  facet normal 0 -1 0
    outer loop
      vertex -5 -2.5 2.5
      vertex -2.18691 -2.5 -0.246358
      vertex -2.05364 -2.5 -0.113093
    endloop
  endfacet
  facet normal 0 -1 0
    outer loop
      vertex -5 -2.5 2.5
      vertex -2.31154 -2.5 -0.387728
      vertex -2.18691 -2.5 -0.246358
    endloop
  endfacet
  facet normal 0 -1 0
    outer loop
      vertex -5 -2.5 2.5
      vertex -2.42705 -2.5 -0.536644
      vertex -2.31154 -2.5 -0.387728
    endloop
  endfacet
  facet normal 0 -1 0
    outer loop
      vertex -5 -2.5 2.5
      vertex -2.53298 -2.5 -0.692519
      vertex -2.42705 -2.5 -0.536644
    endloop
  endfacet
  facet normal 0 -1 0
    outer loop
      vertex -5 -2.5 2.5
      vertex -2.62892 -2.5 -0.854738
      vertex -2.53298 -2.5 -0.692519
    endloop
  endfacet
  facet normal 0 -1 0
    outer loop
      vertex -5 -2.5 2.5
      vertex -2.71448 -2.5 -1.02266
      vertex -2.62892 -2.5 -0.854738
    endloop
  endfacet
  facet normal 0 -1 0
    outer loop
      vertex -5 -2.5 -2.5
      vertex -2.71448 -2.5 -1.02266
      vertex -5 -2.5 2.5
    endloop
  endfacet
  facet normal 0 -1 0
    outer loop
      vertex -2.71448 -2.5 -1.02266
      vertex -5 -2.5 -2.5
      vertex -2.78933 -2.5 -1.19563
    endloop
  endfacet
  facet normal 0 -1 0
    outer loop
      vertex -2.78933 -2.5 -1.19563
      vertex -5 -2.5 -2.5
      vertex -2.85317 -2.5 -1.37295
    endloop
  endfacet
  facet normal 0 -1 0
    outer loop
      vertex -2.85317 -2.5 -1.37295
      vertex -5 -2.5 -2.5
      vertex -2.90575 -2.5 -1.55393
    endloop
  endfacet
  facet normal 0 -1 0
    outer loop
      vertex -2.90575 -2.5 -1.55393
      vertex -5 -2.5 -2.5
      vertex -2.94686 -2.5 -1.73786
    endloop
  endfacet
  facet normal 0 -1 0
    outer loop
      vertex -2.94686 -2.5 -1.73786
      vertex -5 -2.5 -2.5
      vertex -2.97634 -2.5 -1.924
    endloop
  endfacet
  facet normal 0 -1 0
    outer loop
      vertex -2.97634 -2.5 -1.924
      vertex -5 -2.5 -2.5
      vertex -2.99408 -2.5 -2.11163
    endloop
  endfacet
  facet normal 0 -1 0
    outer loop
      vertex -2.99408 -2.5 -2.11163
      vertex -5 -2.5 -2.5
      vertex -3 -2.5 -2.3
    endloop
  endfacet
  facet normal 0 -1 -0
    outer loop
      vertex -3 -2.5 -2.3
      vertex -5 -2.5 -2.5
      vertex -2.99408 -2.5 -2.48837
    endloop
  endfacet
  facet normal 0 -1 -0
    outer loop
      vertex -2.99408 -2.5 -2.48837
      vertex -5 -2.5 -2.5
      vertex -2.99298 -2.5 -2.5
    endloop
  endfacet
  facet normal 0 -1 0
    outer loop
      vertex 0.188371 -2.5 0.694079
      vertex 5 -2.5 2.5
      vertex 0 -2.5 0.7
    endloop
  endfacet
  facet normal 0 -1 0
    outer loop
      vertex 0.375999 -2.5 0.676344
      vertex 5 -2.5 2.5
      vertex 0.188371 -2.5 0.694079
    endloop
  endfacet
  facet normal 0 -1 0
    outer loop
      vertex 0.562143 -2.5 0.646861
      vertex 5 -2.5 2.5
      vertex 0.375999 -2.5 0.676344
    endloop
  endfacet
  facet normal 0 -1 0
    outer loop
      vertex 0.746069 -2.5 0.605749
      vertex 5 -2.5 2.5
      vertex 0.562143 -2.5 0.646861
    endloop
  endfacet
  facet normal 0 -1 0
    outer loop
      vertex 0.927051 -2.5 0.553169
      vertex 5 -2.5 2.5
      vertex 0.746069 -2.5 0.605749
    endloop
  endfacet
  facet normal 0 -1 0
    outer loop
      vertex 1.10437 -2.5 0.489329
      vertex 5 -2.5 2.5
      vertex 0.927051 -2.5 0.553169
    endloop
  endfacet
  facet normal 0 -1 0
    outer loop
      vertex 1.27734 -2.5 0.41448
      vertex 5 -2.5 2.5
      vertex 1.10437 -2.5 0.489329
    endloop
  endfacet
  facet normal 0 -1 0
    outer loop
      vertex 1.44526 -2.5 0.328919
      vertex 5 -2.5 2.5
      vertex 1.27734 -2.5 0.41448
    endloop
  endfacet
  facet normal 0 -1 0
    outer loop
      vertex 1.60748 -2.5 0.232984
      vertex 5 -2.5 2.5
      vertex 1.44526 -2.5 0.328919
    endloop
  endfacet
  facet normal 0 -1 0
    outer loop
      vertex 1.76336 -2.5 0.12705
      vertex 5 -2.5 2.5
      vertex 1.60748 -2.5 0.232984
    endloop
  endfacet
  facet normal 0 -1 0
    outer loop
      vertex 1.91227 -2.5 0.0115395
      vertex 5 -2.5 2.5
      vertex 1.76336 -2.5 0.12705
    endloop
  endfacet
  facet normal 0 -1 0
    outer loop
      vertex 2.05364 -2.5 -0.113093
      vertex 5 -2.5 2.5
      vertex 1.91227 -2.5 0.0115395
    endloop
  endfacet
  facet normal 0 -1 0
    outer loop
      vertex 2.18691 -2.5 -0.246358
      vertex 5 -2.5 2.5
      vertex 2.05364 -2.5 -0.113093
    endloop
  endfacet
  facet normal 0 -1 0
    outer loop
      vertex 2.31154 -2.5 -0.387728
      vertex 5 -2.5 2.5
      vertex 2.18691 -2.5 -0.246358
    endloop
  endfacet
  facet normal 0 -1 0
    outer loop
      vertex 2.42705 -2.5 -0.536644
      vertex 5 -2.5 2.5
      vertex 2.31154 -2.5 -0.387728
    endloop
  endfacet
  facet normal 0 -1 0
    outer loop
      vertex 2.53298 -2.5 -0.692519
      vertex 5 -2.5 2.5
      vertex 2.42705 -2.5 -0.536644
    endloop
  endfacet
  facet normal 0 -1 0
    outer loop
      vertex 2.62892 -2.5 -0.854738
      vertex 5 -2.5 2.5
      vertex 2.53298 -2.5 -0.692519
    endloop
  endfacet
  facet normal 0 -1 0
    outer loop
      vertex 2.71448 -2.5 -1.02266
      vertex 5 -2.5 2.5
      vertex 2.62892 -2.5 -0.854738
    endloop
  endfacet
  facet normal 0 -1 0
    outer loop
      vertex 5 -2.5 -2.5
      vertex 2.71448 -2.5 -1.02266
      vertex 2.78933 -2.5 -1.19563
    endloop
  endfacet
  facet normal 0 -1 0
    outer loop
      vertex 5 -2.5 -2.5
      vertex 2.78933 -2.5 -1.19563
      vertex 2.85317 -2.5 -1.37295
    endloop
  endfacet
  facet normal 0 -1 0
    outer loop
      vertex 5 -2.5 -2.5
      vertex 2.85317 -2.5 -1.37295
      vertex 2.90575 -2.5 -1.55393
    endloop
  endfacet
  facet normal 0 -1 0
    outer loop
      vertex 5 -2.5 -2.5
      vertex 2.90575 -2.5 -1.55393
      vertex 2.94686 -2.5 -1.73786
    endloop
  endfacet
  facet normal 0 -1 0
    outer loop
      vertex 5 -2.5 -2.5
      vertex 2.94686 -2.5 -1.73786
      vertex 2.97634 -2.5 -1.924
    endloop
  endfacet
  facet normal 0 -1 0
    outer loop
      vertex 5 -2.5 -2.5
      vertex 2.97634 -2.5 -1.924
      vertex 2.99408 -2.5 -2.11163
    endloop
  endfacet
  facet normal 0 -1 0
    outer loop
      vertex 5 -2.5 -2.5
      vertex 2.99408 -2.5 -2.11163
      vertex 3 -2.5 -2.3
    endloop
  endfacet
  facet normal 0 -1 0
    outer loop
      vertex 5 -2.5 -2.5
      vertex 3 -2.5 -2.3
      vertex 2.99408 -2.5 -2.48837
    endloop
  endfacet
  facet normal 0 -1 0
    outer loop
      vertex 5 -2.5 -2.5
      vertex 2.99408 -2.5 -2.48837
      vertex 2.99298 -2.5 -2.5
    endloop
  endfacet
  facet normal 0 -1 0
    outer loop
      vertex 2.71448 -2.5 -1.02266
      vertex 5 -2.5 -2.5
      vertex 5 -2.5 2.5
    endloop
  endfacet
  facet normal -0.999506 0 -0.0314139
    outer loop
      vertex 3 -2.5 -2.3
      vertex 2.99408 2.5 -2.11163
      vertex 3 2.5 -2.3
    endloop
  endfacet
  facet normal -0.999506 -0 -0.0314139
    outer loop
      vertex 2.99408 2.5 -2.11163
      vertex 3 -2.5 -2.3
      vertex 2.99408 -2.5 -2.11163
    endloop
  endfacet
  facet normal 0.999506 0 -0.0314139
    outer loop
      vertex -2.99408 -2.5 -2.11163
      vertex -3 2.5 -2.3
      vertex -2.99408 2.5 -2.11163
    endloop
  endfacet
  facet normal 0.999506 0 -0.0314139
    outer loop
      vertex -3 2.5 -2.3
      vertex -2.99408 -2.5 -2.11163
      vertex -3 -2.5 -2.3
    endloop
  endfacet
  facet normal 0.995562 0 -0.0941103
    outer loop
      vertex -2.97634 -2.5 -1.924
      vertex -2.99408 2.5 -2.11163
      vertex -2.97634 2.5 -1.924
    endloop
  endfacet
  facet normal 0.995562 0 -0.0941103
    outer loop
      vertex -2.99408 2.5 -2.11163
      vertex -2.97634 -2.5 -1.924
      vertex -2.99408 -2.5 -2.11163
    endloop
  endfacet
  facet normal 0.338738 0 -0.940881
    outer loop
      vertex -1.10437 -2.5 0.489329
      vertex -0.927051 2.5 0.553169
      vertex -0.927051 -2.5 0.553169
    endloop
  endfacet
  facet normal 0.338738 0 -0.940881
    outer loop
      vertex -0.927051 2.5 0.553169
      vertex -1.10437 -2.5 0.489329
      vertex -1.10437 2.5 0.489329
    endloop
  endfacet
  facet normal -0.891007 0 -0.45399
    outer loop
      vertex 2.71448 -2.5 -1.02266
      vertex 2.62892 2.5 -0.854738
      vertex 2.71448 2.5 -1.02266
    endloop
  endfacet
  facet normal -0.891007 -0 -0.45399
    outer loop
      vertex 2.62892 2.5 -0.854738
      vertex 2.71448 -2.5 -1.02266
      vertex 2.62892 -2.5 -0.854738
    endloop
  endfacet
  facet normal -0.0314141 0 -0.999506
    outer loop
      vertex 0 -2.5 0.7
      vertex 0.188371 2.5 0.694079
      vertex 0.188371 -2.5 0.694079
    endloop
  endfacet
  facet normal -0.0314141 0 -0.999506
    outer loop
      vertex 0.188371 2.5 0.694079
      vertex 0 -2.5 0.7
      vertex 0 2.5 0.7
    endloop
  endfacet
  facet normal -0.999506 0 0.0314139
    outer loop
      vertex 2.99408 -2.5 -2.48837
      vertex 3 2.5 -2.3
      vertex 2.99408 2.5 -2.48837
    endloop
  endfacet
  facet normal -0.999506 0 0.0314139
    outer loop
      vertex 3 2.5 -2.3
      vertex 2.99408 -2.5 -2.48837
      vertex 3 -2.5 -2.3
    endloop
  endfacet
  facet normal 0.999506 -0 0.0314139
    outer loop
      vertex -3 -2.5 -2.3
      vertex -2.99408 2.5 -2.48837
      vertex -3 2.5 -2.3
    endloop
  endfacet
  facet normal 0.999506 0 0.0314139
    outer loop
      vertex -2.99408 2.5 -2.48837
      vertex -3 -2.5 -2.3
      vertex -2.99408 -2.5 -2.48837
    endloop
  endfacet
  facet normal -0.218142 0 -0.975917
    outer loop
      vertex 0.562143 -2.5 0.646861
      vertex 0.746069 2.5 0.605749
      vertex 0.746069 -2.5 0.605749
    endloop
  endfacet
  facet normal -0.218142 0 -0.975917
    outer loop
      vertex 0.746069 2.5 0.605749
      vertex 0.562143 -2.5 0.646861
      vertex 0.562143 2.5 0.646861
    endloop
  endfacet
  facet normal -0.987689 0 -0.156432
    outer loop
      vertex 2.97634 -2.5 -1.924
      vertex 2.94686 2.5 -1.73786
      vertex 2.97634 2.5 -1.924
    endloop
  endfacet
  facet normal -0.987689 -0 -0.156432
    outer loop
      vertex 2.94686 2.5 -1.73786
      vertex 2.97634 -2.5 -1.924
      vertex 2.94686 -2.5 -1.73786
    endloop
  endfacet
  facet normal -0.995561 0 0.0941146
    outer loop
      vertex 2.99298 -2.5 -2.5
      vertex 2.99408 2.5 -2.48837
      vertex 2.99298 2.5 -2.5
    endloop
  endfacet
  facet normal -0.995561 0 0.0941146
    outer loop
      vertex 2.99408 2.5 -2.48837
      vertex 2.99298 -2.5 -2.5
      vertex 2.99408 -2.5 -2.48837
    endloop
  endfacet
  facet normal 0.218142 0 -0.975917
    outer loop
      vertex -0.746069 -2.5 0.605749
      vertex -0.562143 2.5 0.646861
      vertex -0.562143 -2.5 0.646861
    endloop
  endfacet
  facet normal 0.218142 0 -0.975917
    outer loop
      vertex -0.562143 2.5 0.646861
      vertex -0.746069 -2.5 0.605749
      vertex -0.746069 2.5 0.605749
    endloop
  endfacet
  facet normal 0.750112 0 -0.66131
    outer loop
      vertex -2.18691 -2.5 -0.246358
      vertex -2.31154 2.5 -0.387728
      vertex -2.18691 2.5 -0.246358
    endloop
  endfacet
  facet normal 0.750112 0 -0.66131
    outer loop
      vertex -2.31154 2.5 -0.387728
      vertex -2.18691 -2.5 -0.246358
      vertex -2.31154 -2.5 -0.387728
    endloop
  endfacet
  facet normal -0.156437 0 -0.987688
    outer loop
      vertex 0.375999 -2.5 0.676344
      vertex 0.562143 2.5 0.646861
      vertex 0.562143 -2.5 0.646861
    endloop
  endfacet
  facet normal -0.156437 0 -0.987688
    outer loop
      vertex 0.562143 2.5 0.646861
      vertex 0.375999 -2.5 0.676344
      vertex 0.375999 2.5 0.676344
    endloop
  endfacet
  facet normal -0.27899 0 -0.960294
    outer loop
      vertex 0.746069 -2.5 0.605749
      vertex 0.927051 2.5 0.553169
      vertex 0.927051 -2.5 0.553169
    endloop
  endfacet
  facet normal -0.27899 0 -0.960294
    outer loop
      vertex 0.927051 2.5 0.553169
      vertex 0.746069 -2.5 0.605749
      vertex 0.746069 2.5 0.605749
    endloop
  endfacet
  facet normal -0.562085 0 -0.827079
    outer loop
      vertex 1.60748 -2.5 0.232984
      vertex 1.76336 2.5 0.12705
      vertex 1.76336 -2.5 0.12705
    endloop
  endfacet
  facet normal -0.562085 0 -0.827079
    outer loop
      vertex 1.76336 2.5 0.12705
      vertex 1.60748 -2.5 0.232984
      vertex 1.60748 2.5 0.232984
    endloop
  endfacet
  facet normal -0.66131 0 -0.750113
    outer loop
      vertex 1.91227 -2.5 0.0115395
      vertex 2.05364 2.5 -0.113093
      vertex 2.05364 -2.5 -0.113093
    endloop
  endfacet
  facet normal -0.66131 0 -0.750113
    outer loop
      vertex 2.05364 2.5 -0.113093
      vertex 1.91227 -2.5 0.0115395
      vertex 1.91227 2.5 0.0115395
    endloop
  endfacet
  facet normal -0.50904 0 -0.860743
    outer loop
      vertex 1.44526 -2.5 0.328919
      vertex 1.60748 2.5 0.232984
      vertex 1.60748 -2.5 0.232984
    endloop
  endfacet
  facet normal -0.50904 0 -0.860743
    outer loop
      vertex 1.60748 2.5 0.232984
      vertex 1.44526 -2.5 0.328919
      vertex 1.44526 2.5 0.328919
    endloop
  endfacet
  facet normal -0.397152 0 -0.917753
    outer loop
      vertex 1.10437 -2.5 0.489329
      vertex 1.27734 2.5 0.41448
      vertex 1.27734 -2.5 0.41448
    endloop
  endfacet
  facet normal -0.397152 0 -0.917753
    outer loop
      vertex 1.27734 2.5 0.41448
      vertex 1.10437 -2.5 0.489329
      vertex 1.10437 2.5 0.489329
    endloop
  endfacet
  facet normal -0.790156 0 -0.612906
    outer loop
      vertex 2.42705 -2.5 -0.536644
      vertex 2.31154 2.5 -0.387728
      vertex 2.42705 2.5 -0.536644
    endloop
  endfacet
  facet normal -0.790156 -0 -0.612906
    outer loop
      vertex 2.31154 2.5 -0.387728
      vertex 2.42705 -2.5 -0.536644
      vertex 2.31154 -2.5 -0.387728
    endloop
  endfacet
  facet normal -0.960294 0 -0.27899
    outer loop
      vertex 2.90575 -2.5 -1.55393
      vertex 2.85317 2.5 -1.37295
      vertex 2.90575 2.5 -1.55393
    endloop
  endfacet
  facet normal -0.960294 -0 -0.27899
    outer loop
      vertex 2.85317 2.5 -1.37295
      vertex 2.90575 -2.5 -1.55393
      vertex 2.85317 -2.5 -1.37295
    endloop
  endfacet
  facet normal -0.975917 0 -0.218142
    outer loop
      vertex 2.94686 -2.5 -1.73786
      vertex 2.90575 2.5 -1.55393
      vertex 2.94686 2.5 -1.73786
    endloop
  endfacet
  facet normal -0.975917 -0 -0.218142
    outer loop
      vertex 2.90575 2.5 -1.55393
      vertex 2.94686 -2.5 -1.73786
      vertex 2.90575 -2.5 -1.55393
    endloop
  endfacet
  facet normal -0.995562 0 -0.0941103
    outer loop
      vertex 2.99408 -2.5 -2.11163
      vertex 2.97634 2.5 -1.924
      vertex 2.99408 2.5 -2.11163
    endloop
  endfacet
  facet normal -0.995562 -0 -0.0941103
    outer loop
      vertex 2.97634 2.5 -1.924
      vertex 2.99408 -2.5 -2.11163
      vertex 2.97634 -2.5 -1.924
    endloop
  endfacet
  facet normal 0.995561 -0 0.0941146
    outer loop
      vertex -2.99408 -2.5 -2.48837
      vertex -2.99298 2.5 -2.5
      vertex -2.99408 2.5 -2.48837
    endloop
  endfacet
  facet normal 0.995561 0 0.0941146
    outer loop
      vertex -2.99298 2.5 -2.5
      vertex -2.99408 -2.5 -2.48837
      vertex -2.99298 -2.5 -2.5
    endloop
  endfacet
  facet normal 0.0314141 0 -0.999506
    outer loop
      vertex -0.188371 -2.5 0.694079
      vertex 0 2.5 0.7
      vertex 0 -2.5 0.7
    endloop
  endfacet
  facet normal 0.0314141 0 -0.999506
    outer loop
      vertex 0 2.5 0.7
      vertex -0.188371 -2.5 0.694079
      vertex -0.188371 2.5 0.694079
    endloop
  endfacet
  facet normal 0.50904 0 -0.860743
    outer loop
      vertex -1.60748 -2.5 0.232984
      vertex -1.44526 2.5 0.328919
      vertex -1.44526 -2.5 0.328919
    endloop
  endfacet
  facet normal 0.50904 0 -0.860743
    outer loop
      vertex -1.44526 2.5 0.328919
      vertex -1.60748 -2.5 0.232984
      vertex -1.60748 2.5 0.232984
    endloop
  endfacet
  facet normal 0.562085 0 -0.827079
    outer loop
      vertex -1.76336 -2.5 0.12705
      vertex -1.60748 2.5 0.232984
      vertex -1.60748 -2.5 0.232984
    endloop
  endfacet
  facet normal 0.562085 0 -0.827079
    outer loop
      vertex -1.60748 2.5 0.232984
      vertex -1.76336 -2.5 0.12705
      vertex -1.76336 2.5 0.12705
    endloop
  endfacet
  facet normal 0.612906 0 -0.790156
    outer loop
      vertex -1.91227 -2.5 0.0115395
      vertex -1.76336 2.5 0.12705
      vertex -1.76336 -2.5 0.12705
    endloop
  endfacet
  facet normal 0.612906 0 -0.790156
    outer loop
      vertex -1.76336 2.5 0.12705
      vertex -1.91227 -2.5 0.0115395
      vertex -1.91227 2.5 0.0115395
    endloop
  endfacet
  facet normal 0.66131 0 -0.750113
    outer loop
      vertex -2.05364 -2.5 -0.113093
      vertex -1.91227 2.5 0.0115395
      vertex -1.91227 -2.5 0.0115395
    endloop
  endfacet
  facet normal 0.66131 0 -0.750113
    outer loop
      vertex -1.91227 2.5 0.0115395
      vertex -2.05364 -2.5 -0.113093
      vertex -2.05364 2.5 -0.113093
    endloop
  endfacet
  facet normal 0.397152 0 -0.917753
    outer loop
      vertex -1.27734 -2.5 0.41448
      vertex -1.10437 2.5 0.489329
      vertex -1.10437 -2.5 0.489329
    endloop
  endfacet
  facet normal 0.397152 0 -0.917753
    outer loop
      vertex -1.10437 2.5 0.489329
      vertex -1.27734 -2.5 0.41448
      vertex -1.27734 2.5 0.41448
    endloop
  endfacet
  facet normal 0.27899 0 -0.960294
    outer loop
      vertex -0.927051 -2.5 0.553169
      vertex -0.746069 2.5 0.605749
      vertex -0.746069 -2.5 0.605749
    endloop
  endfacet
  facet normal 0.27899 0 -0.960294
    outer loop
      vertex -0.746069 2.5 0.605749
      vertex -0.927051 -2.5 0.553169
      vertex -0.927051 2.5 0.553169
    endloop
  endfacet
  facet normal 0.156437 0 -0.987688
    outer loop
      vertex -0.562143 -2.5 0.646861
      vertex -0.375999 2.5 0.676344
      vertex -0.375999 -2.5 0.676344
    endloop
  endfacet
  facet normal 0.156437 0 -0.987688
    outer loop
      vertex -0.375999 2.5 0.676344
      vertex -0.562143 -2.5 0.646861
      vertex -0.562143 2.5 0.646861
    endloop
  endfacet
  facet normal 0.86074 0 -0.509044
    outer loop
      vertex -2.53298 -2.5 -0.692519
      vertex -2.62892 2.5 -0.854738
      vertex -2.53298 2.5 -0.692519
    endloop
  endfacet
  facet normal 0.86074 0 -0.509044
    outer loop
      vertex -2.62892 2.5 -0.854738
      vertex -2.53298 -2.5 -0.692519
      vertex -2.62892 -2.5 -0.854738
    endloop
  endfacet
  facet normal 0.790156 0 -0.612906
    outer loop
      vertex -2.31154 -2.5 -0.387728
      vertex -2.42705 2.5 -0.536644
      vertex -2.31154 2.5 -0.387728
    endloop
  endfacet
  facet normal 0.790156 0 -0.612906
    outer loop
      vertex -2.42705 2.5 -0.536644
      vertex -2.31154 -2.5 -0.387728
      vertex -2.42705 -2.5 -0.536644
    endloop
  endfacet
  facet normal 0.707104 0 -0.707109
    outer loop
      vertex -2.18691 -2.5 -0.246358
      vertex -2.05364 2.5 -0.113093
      vertex -2.05364 -2.5 -0.113093
    endloop
  endfacet
  facet normal 0.707104 0 -0.707109
    outer loop
      vertex -2.05364 2.5 -0.113093
      vertex -2.18691 -2.5 -0.246358
      vertex -2.18691 2.5 -0.246358
    endloop
  endfacet
  facet normal 0.940879 0 -0.338742
    outer loop
      vertex -2.78933 -2.5 -1.19563
      vertex -2.85317 2.5 -1.37295
      vertex -2.78933 2.5 -1.19563
    endloop
  endfacet
  facet normal 0.940879 0 -0.338742
    outer loop
      vertex -2.85317 2.5 -1.37295
      vertex -2.78933 -2.5 -1.19563
      vertex -2.85317 -2.5 -1.37295
    endloop
  endfacet
  facet normal 0.891007 0 -0.45399
    outer loop
      vertex -2.62892 -2.5 -0.854738
      vertex -2.71448 2.5 -1.02266
      vertex -2.62892 2.5 -0.854738
    endloop
  endfacet
  facet normal 0.891007 0 -0.45399
    outer loop
      vertex -2.71448 2.5 -1.02266
      vertex -2.62892 -2.5 -0.854738
      vertex -2.71448 -2.5 -1.02266
    endloop
  endfacet
  facet normal 0.960294 0 -0.27899
    outer loop
      vertex -2.85317 -2.5 -1.37295
      vertex -2.90575 2.5 -1.55393
      vertex -2.85317 2.5 -1.37295
    endloop
  endfacet
  facet normal 0.960294 0 -0.27899
    outer loop
      vertex -2.90575 2.5 -1.55393
      vertex -2.85317 -2.5 -1.37295
      vertex -2.90575 -2.5 -1.55393
    endloop
  endfacet
  facet normal 0.987689 0 -0.156432
    outer loop
      vertex -2.94686 -2.5 -1.73786
      vertex -2.97634 2.5 -1.924
      vertex -2.94686 2.5 -1.73786
    endloop
  endfacet
  facet normal 0.987689 0 -0.156432
    outer loop
      vertex -2.97634 2.5 -1.924
      vertex -2.94686 -2.5 -1.73786
      vertex -2.97634 -2.5 -1.924
    endloop
  endfacet
  facet normal -0.0941049 0 -0.995562
    outer loop
      vertex 0.188371 -2.5 0.694079
      vertex 0.375999 2.5 0.676344
      vertex 0.375999 -2.5 0.676344
    endloop
  endfacet
  facet normal -0.0941049 0 -0.995562
    outer loop
      vertex 0.375999 2.5 0.676344
      vertex 0.188371 -2.5 0.694079
      vertex 0.188371 2.5 0.694079
    endloop
  endfacet
  facet normal -0.338738 0 -0.940881
    outer loop
      vertex 0.927051 -2.5 0.553169
      vertex 1.10437 2.5 0.489329
      vertex 1.10437 -2.5 0.489329
    endloop
  endfacet
  facet normal -0.338738 0 -0.940881
    outer loop
      vertex 1.10437 2.5 0.489329
      vertex 0.927051 -2.5 0.553169
      vertex 0.927051 2.5 0.553169
    endloop
  endfacet
  facet normal -0.612906 0 -0.790156
    outer loop
      vertex 1.76336 -2.5 0.12705
      vertex 1.91227 2.5 0.0115395
      vertex 1.91227 -2.5 0.0115395
    endloop
  endfacet
  facet normal -0.612906 0 -0.790156
    outer loop
      vertex 1.91227 2.5 0.0115395
      vertex 1.76336 -2.5 0.12705
      vertex 1.76336 2.5 0.12705
    endloop
  endfacet
  facet normal -0.453987 0 -0.891008
    outer loop
      vertex 1.27734 -2.5 0.41448
      vertex 1.44526 2.5 0.328919
      vertex 1.44526 -2.5 0.328919
    endloop
  endfacet
  facet normal -0.453987 0 -0.891008
    outer loop
      vertex 1.44526 2.5 0.328919
      vertex 1.27734 -2.5 0.41448
      vertex 1.27734 2.5 0.41448
    endloop
  endfacet
  facet normal -0.827082 0 -0.562082
    outer loop
      vertex 2.53298 -2.5 -0.692519
      vertex 2.42705 2.5 -0.536644
      vertex 2.53298 2.5 -0.692519
    endloop
  endfacet
  facet normal -0.827082 -0 -0.562082
    outer loop
      vertex 2.42705 2.5 -0.536644
      vertex 2.53298 -2.5 -0.692519
      vertex 2.42705 -2.5 -0.536644
    endloop
  endfacet
  facet normal 0.453987 0 -0.891008
    outer loop
      vertex -1.44526 -2.5 0.328919
      vertex -1.27734 2.5 0.41448
      vertex -1.27734 -2.5 0.41448
    endloop
  endfacet
  facet normal 0.453987 0 -0.891008
    outer loop
      vertex -1.27734 2.5 0.41448
      vertex -1.44526 -2.5 0.328919
      vertex -1.44526 2.5 0.328919
    endloop
  endfacet
  facet normal 0.0941049 0 -0.995562
    outer loop
      vertex -0.375999 -2.5 0.676344
      vertex -0.188371 2.5 0.694079
      vertex -0.188371 -2.5 0.694079
    endloop
  endfacet
  facet normal 0.0941049 0 -0.995562
    outer loop
      vertex -0.188371 2.5 0.694079
      vertex -0.375999 -2.5 0.676344
      vertex -0.375999 2.5 0.676344
    endloop
  endfacet
  facet normal 0.827082 0 -0.562082
    outer loop
      vertex -2.42705 -2.5 -0.536644
      vertex -2.53298 2.5 -0.692519
      vertex -2.42705 2.5 -0.536644
    endloop
  endfacet
  facet normal 0.827082 0 -0.562082
    outer loop
      vertex -2.53298 2.5 -0.692519
      vertex -2.42705 -2.5 -0.536644
      vertex -2.53298 -2.5 -0.692519
    endloop
  endfacet
  facet normal 0.917756 0 -0.397146
    outer loop
      vertex -2.71448 -2.5 -1.02266
      vertex -2.78933 2.5 -1.19563
      vertex -2.71448 2.5 -1.02266
    endloop
  endfacet
  facet normal 0.917756 0 -0.397146
    outer loop
      vertex -2.78933 2.5 -1.19563
      vertex -2.71448 -2.5 -1.02266
      vertex -2.78933 -2.5 -1.19563
    endloop
  endfacet
  facet normal 0.975917 0 -0.218142
    outer loop
      vertex -2.90575 -2.5 -1.55393
      vertex -2.94686 2.5 -1.73786
      vertex -2.90575 2.5 -1.55393
    endloop
  endfacet
  facet normal 0.975917 0 -0.218142
    outer loop
      vertex -2.94686 2.5 -1.73786
      vertex -2.90575 -2.5 -1.55393
      vertex -2.94686 -2.5 -1.73786
    endloop
  endfacet
  facet normal -0.86074 0 -0.509044
    outer loop
      vertex 2.62892 -2.5 -0.854738
      vertex 2.53298 2.5 -0.692519
      vertex 2.62892 2.5 -0.854738
    endloop
  endfacet
  facet normal -0.86074 -0 -0.509044
    outer loop
      vertex 2.53298 2.5 -0.692519
      vertex 2.62892 -2.5 -0.854738
      vertex 2.53298 -2.5 -0.692519
    endloop
  endfacet
  facet normal -0.750112 0 -0.66131
    outer loop
      vertex 2.31154 -2.5 -0.387728
      vertex 2.18691 2.5 -0.246358
      vertex 2.31154 2.5 -0.387728
    endloop
  endfacet
  facet normal -0.750112 -0 -0.66131
    outer loop
      vertex 2.18691 2.5 -0.246358
      vertex 2.31154 -2.5 -0.387728
      vertex 2.18691 -2.5 -0.246358
    endloop
  endfacet
  facet normal -0.707104 0 -0.707109
    outer loop
      vertex 2.05364 -2.5 -0.113093
      vertex 2.18691 2.5 -0.246358
      vertex 2.18691 -2.5 -0.246358
    endloop
  endfacet
  facet normal -0.707104 0 -0.707109
    outer loop
      vertex 2.18691 2.5 -0.246358
      vertex 2.05364 -2.5 -0.113093
      vertex 2.05364 2.5 -0.113093
    endloop
  endfacet
  facet normal -0.940879 0 -0.338742
    outer loop
      vertex 2.85317 -2.5 -1.37295
      vertex 2.78933 2.5 -1.19563
      vertex 2.85317 2.5 -1.37295
    endloop
  endfacet
  facet normal -0.940879 -0 -0.338742
    outer loop
      vertex 2.78933 2.5 -1.19563
      vertex 2.85317 -2.5 -1.37295
      vertex 2.78933 -2.5 -1.19563
    endloop
  endfacet
  facet normal -0.917756 0 -0.397146
    outer loop
      vertex 2.78933 -2.5 -1.19563
      vertex 2.71448 2.5 -1.02266
      vertex 2.78933 2.5 -1.19563
    endloop
  endfacet
  facet normal -0.917756 -0 -0.397146
    outer loop
      vertex 2.71448 2.5 -1.02266
      vertex 2.78933 -2.5 -1.19563
      vertex 2.71448 -2.5 -1.02266
    endloop
  endfacet
endsolid OpenSCAD_Model
