solid OpenSCAD_Model
  facet normal -1 0 0
    outer loop
      vertex -5 -2.5 -2.5
      vertex -5 2.5 2.5
      vertex -5 2.5 -2.5
    endloop
  endfacet
  facet normal -1 -0 0
    outer loop
      vertex -5 2.5 2.5
      vertex -5 -2.5 -2.5
      vertex -5 -2.5 2.5
    endloop
  endfacet
  facet normal -0 0 1
    outer loop
      vertex -5 2.5 2.5
      vertex 5 -2.5 2.5
      vertex 5 2.5 2.5
    endloop
  endfacet
  facet normal 0 0 1
    outer loop
      vertex 5 -2.5 2.5
      vertex -5 2.5 2.5
      vertex -5 -2.5 2.5
    endloop
  endfacet
  facet normal 1 -0 0
    outer loop
      vertex 5 -2.5 2.5
      vertex 5 2.5 -2.5
      vertex 5 2.5 2.5
    endloop
  endfacet
  facet normal 1 0 0
    outer loop
      vertex 5 2.5 -2.5
      vertex 5 -2.5 2.5
      vertex 5 -2.5 -2.5
    endloop
  endfacet
  facet normal 0 1 0
    outer loop
      vertex 5 2.5 2.5
      vertex 0 2.5 1.4
      vertex -5 2.5 2.5
    endloop
  endfacet
  facet normal 0 1 0
    outer loop
      vertex 5 2.5 2.5
      vertex 0.244883 2.5 1.3923
      vertex 0 2.5 1.4
    endloop
  endfacet
  facet normal 0 1 0
    outer loop
      vertex 5 2.5 2.5
      vertex 0.488799 2.5 1.36925
      vertex 0.244883 2.5 1.3923
    endloop
  endfacet
  facet normal 0 1 0
    outer loop
      vertex 5 2.5 2.5
      vertex 0.730786 2.5 1.33092
      vertex 0.488799 2.5 1.36925
    endloop
  endfacet
  facet normal 0 1 0
    outer loop
      vertex 5 2.5 2.5
      vertex 0.96989 2.5 1.27747
      vertex 0.730786 2.5 1.33092
    endloop
  endfacet
  facet normal 0 1 0
    outer loop
      vertex 5 2.5 2.5
      vertex 1.20517 2.5 1.20912
      vertex 0.96989 2.5 1.27747
    endloop
  endfacet
  facet normal 0 1 0
    outer loop
      vertex 5 2.5 2.5
      vertex 1.43569 2.5 1.12613
      vertex 1.20517 2.5 1.20912
    endloop
  endfacet
  facet normal 0 1 0
    outer loop
      vertex 5 2.5 2.5
      vertex 1.66054 2.5 1.02882
      vertex 1.43569 2.5 1.12613
    endloop
  endfacet
  facet normal 0 1 0
    outer loop
      vertex 5 2.5 2.5
      vertex 1.87884 2.5 0.917596
      vertex 1.66054 2.5 1.02882
    endloop
  endfacet
  facet normal 0 1 0
    outer loop
      vertex 5 2.5 2.5
      vertex 2.08972 2.5 0.792878
      vertex 1.87884 2.5 0.917596
    endloop
  endfacet
  facet normal 0 1 0
    outer loop
      vertex 5 2.5 2.5
      vertex 2.29236 2.5 0.655166
      vertex 2.08972 2.5 0.792878
    endloop
  endfacet
  facet normal 0 1 0
    outer loop
      vertex 5 2.5 2.5
      vertex 2.48595 2.5 0.505001
      vertex 2.29236 2.5 0.655166
    endloop
  endfacet
  facet normal 0 1 0
    outer loop
      vertex 5 2.5 2.5
      vertex 2.66973 2.5 0.342978
      vertex 2.48595 2.5 0.505001
    endloop
  endfacet
  facet normal 0 1 0
    outer loop
      vertex 5 2.5 2.5
      vertex 2.84298 2.5 0.169733
      vertex 2.66973 2.5 0.342978
    endloop
  endfacet
  facet normal 0 1 0
    outer loop
      vertex 5 2.5 2.5
      vertex 3.005 2.5 -0.0140457
      vertex 2.84298 2.5 0.169733
    endloop
  endfacet
  facet normal 0 1 0
    outer loop
      vertex 5 2.5 2.5
      vertex 3.15517 2.5 -0.207637
      vertex 3.005 2.5 -0.0140457
    endloop
  endfacet
  facet normal 0 1 0
    outer loop
      vertex 5 2.5 2.5
      vertex 3.29288 2.5 -0.410275
      vertex 3.15517 2.5 -0.207637
    endloop
  endfacet
  facet normal 0 1 0
    outer loop
      vertex 5 2.5 2.5
      vertex 3.4176 2.5 -0.621161
      vertex 3.29288 2.5 -0.410275
    endloop
  endfacet
  facet normal 0 1 0
    outer loop
      vertex 5 2.5 2.5
      vertex 3.52882 2.5 -0.83946
      vertex 3.4176 2.5 -0.621161
    endloop
  endfacet
  facet normal 0 1 0
    outer loop
      vertex 5 2.5 2.5
      vertex 3.62613 2.5 -1.06431
      vertex 3.52882 2.5 -0.83946
    endloop
  endfacet
  facet normal 0 1 -0
    outer loop
      vertex 5 2.5 -2.5
      vertex 3.62613 2.5 -1.06431
      vertex 5 2.5 2.5
    endloop
  endfacet
  facet normal 0 1 0
    outer loop
      vertex 3.62613 2.5 -1.06431
      vertex 5 2.5 -2.5
      vertex 3.70912 2.5 -1.29483
    endloop
  endfacet
  facet normal 0 1 0
    outer loop
      vertex 3.70912 2.5 -1.29483
      vertex 5 2.5 -2.5
      vertex 3.77747 2.5 -1.53011
    endloop
  endfacet
  facet normal 0 1 0
    outer loop
      vertex 3.77747 2.5 -1.53011
      vertex 5 2.5 -2.5
      vertex 3.83092 2.5 -1.76921
    endloop
  endfacet
  facet normal 0 1 0
    outer loop
      vertex 3.83092 2.5 -1.76921
      vertex 5 2.5 -2.5
      vertex 3.86925 2.5 -2.0112
    endloop
  endfacet
  facet normal 0 1 0
    outer loop
      vertex 3.86925 2.5 -2.0112
      vertex 5 2.5 -2.5
      vertex 3.8923 2.5 -2.25512
    endloop
  endfacet
  facet normal 0 1 0
    outer loop
      vertex 3.8923 2.5 -2.25512
      vertex 5 2.5 -2.5
      vertex 3.89423 2.5 -2.31634
    endloop
  endfacet
  facet normal 0 1 0
    outer loop
      vertex 3.89423 2.5 -2.31634
      vertex 5 2.5 -2.5
      vertex 3.9 2.5 -2.5
    endloop
  endfacet
  facet normal 0 1 -0
    outer loop
      vertex -0.244883 2.5 1.3923
      vertex -5 2.5 2.5
      vertex 0 2.5 1.4
    endloop
  endfacet
  facet normal 0 1 -0
    outer loop
      vertex -0.488799 2.5 1.36925
      vertex -5 2.5 2.5
      vertex -0.244883 2.5 1.3923
    endloop
  endfacet
  facet normal 0 1 -0
    outer loop
      vertex -0.730786 2.5 1.33092
      vertex -5 2.5 2.5
      vertex -0.488799 2.5 1.36925
    endloop
  endfacet
  facet normal 0 1 -0
    outer loop
      vertex -0.96989 2.5 1.27747
      vertex -5 2.5 2.5
      vertex -0.730786 2.5 1.33092
    endloop
  endfacet
  facet normal 0 1 -0
    outer loop
      vertex -1.20517 2.5 1.20912
      vertex -5 2.5 2.5
      vertex -0.96989 2.5 1.27747
    endloop
  endfacet
  facet normal 0 1 -0
    outer loop
      vertex -1.43569 2.5 1.12613
      vertex -5 2.5 2.5
      vertex -1.20517 2.5 1.20912
    endloop
  endfacet
  facet normal 0 1 -0
    outer loop
      vertex -1.66054 2.5 1.02882
      vertex -5 2.5 2.5
      vertex -1.43569 2.5 1.12613
    endloop
  endfacet
  facet normal 0 1 -0
    outer loop
      vertex -1.87884 2.5 0.917596
      vertex -5 2.5 2.5
      vertex -1.66054 2.5 1.02882
    endloop
  endfacet
  facet normal 0 1 -0
    outer loop
      vertex -2.08972 2.5 0.792878
      vertex -5 2.5 2.5
      vertex -1.87884 2.5 0.917596
    endloop
  endfacet
  facet normal 0 1 -0
    outer loop
      vertex -2.29236 2.5 0.655166
      vertex -5 2.5 2.5
      vertex -2.08972 2.5 0.792878
    endloop
  endfacet
  facet normal 0 1 -0
    outer loop
      vertex -2.48595 2.5 0.505001
      vertex -5 2.5 2.5
      vertex -2.29236 2.5 0.655166
    endloop
  endfacet
  facet normal 0 1 -0
    outer loop
      vertex -2.66973 2.5 0.342978
      vertex -5 2.5 2.5
      vertex -2.48595 2.5 0.505001
    endloop
  endfacet
  facet normal 0 1 -0
    outer loop
      vertex -2.84298 2.5 0.169733
      vertex -5 2.5 2.5
      vertex -2.66973 2.5 0.342978
    endloop
  endfacet
  facet normal 0 1 -0
    outer loop
      vertex -3.005 2.5 -0.0140457
      vertex -5 2.5 2.5
      vertex -2.84298 2.5 0.169733
    endloop
  endfacet
  facet normal 0 1 -0
    outer loop
      vertex -3.15517 2.5 -0.207637
      vertex -5 2.5 2.5
      vertex -3.005 2.5 -0.0140457
    endloop
  endfacet
  facet normal 0 1 -0
    outer loop
      vertex -3.29288 2.5 -0.410275
      vertex -5 2.5 2.5
      vertex -3.15517 2.5 -0.207637
    endloop
  endfacet
  facet normal 0 1 -0
    outer loop
      vertex -3.4176 2.5 -0.621161
      vertex -5 2.5 2.5
      vertex -3.29288 2.5 -0.410275
    endloop
  endfacet
  facet normal 0 1 -0
    outer loop
      vertex -3.52882 2.5 -0.83946
      vertex -5 2.5 2.5
      vertex -3.4176 2.5 -0.621161
    endloop
  endfacet
  facet normal 0 1 -0
    outer loop
      vertex -3.62613 2.5 -1.06431
      vertex -5 2.5 2.5
      vertex -3.52882 2.5 -0.83946
    endloop
  endfacet
  facet normal 0 1 0
    outer loop
      vertex -5 2.5 -2.5
      vertex -3.62613 2.5 -1.06431
      vertex -3.70912 2.5 -1.29483
    endloop
  endfacet
  facet normal 0 1 0
    outer loop
      vertex -5 2.5 -2.5
      vertex -3.70912 2.5 -1.29483
      vertex -3.77747 2.5 -1.53011
    endloop
  endfacet
  facet normal 0 1 0
    outer loop
      vertex -5 2.5 -2.5
      vertex -3.77747 2.5 -1.53011
      vertex -3.83092 2.5 -1.76921
    endloop
  endfacet
  facet normal 0 1 0
    outer loop
      vertex -5 2.5 -2.5
      vertex -3.83092 2.5 -1.76921
      vertex -3.86925 2.5 -2.0112
    endloop
  endfacet
  facet normal 0 1 0
    outer loop
      vertex -5 2.5 -2.5
      vertex -3.86925 2.5 -2.0112
      vertex -3.8923 2.5 -2.25512
    endloop
  endfacet
  facet normal 0 1 0
    outer loop
      vertex -5 2.5 -2.5
      vertex -3.8923 2.5 -2.25512
      vertex -3.89423 2.5 -2.31634
    endloop
  endfacet
  facet normal 0 1 0
    outer loop
      vertex -5 2.5 -2.5
      vertex -3.89423 2.5 -2.31634
      vertex -3.9 2.5 -2.5
    endloop
  endfacet
  facet normal 0 1 0
    outer loop
      vertex -3.62613 2.5 -1.06431
      vertex -5 2.5 -2.5
      vertex -5 2.5 2.5
    endloop
  endfacet
  facet normal 0 0 -1
    outer loop
      vertex -5 -2.5 -2.5
      vertex -3.9 2.5 -2.5
      vertex -3.9 -2.5 -2.5
    endloop
  endfacet
  facet normal -0 0 -1
    outer loop
      vertex -3.9 2.5 -2.5
      vertex -5 -2.5 -2.5
      vertex -5 2.5 -2.5
    endloop
  endfacet
  facet normal 0 0 -1
    outer loop
      vertex 3.9 -2.5 -2.5
      vertex 5 2.5 -2.5
      vertex 5 -2.5 -2.5
    endloop
  endfacet
  facet normal -0 0 -1
    outer loop
      vertex 5 2.5 -2.5
      vertex 3.9 -2.5 -2.5
      vertex 3.9 2.5 -2.5
    endloop
  endfacet
  facet normal 0 -1 0
    outer loop
      vertex -5 -2.5 2.5
      vertex 0 -2.5 1.4
      vertex 5 -2.5 2.5
    endloop
  endfacet
  facet normal 0 -1 0
    outer loop
      vertex -5 -2.5 2.5
      vertex -0.244883 -2.5 1.3923
      vertex 0 -2.5 1.4
    endloop
  endfacet
  facet normal 0 -1 0
    outer loop
      vertex -5 -2.5 2.5
      vertex -0.488799 -2.5 1.36925
      vertex -0.244883 -2.5 1.3923
    endloop
  endfacet
  facet normal 0 -1 0
    outer loop
      vertex -5 -2.5 2.5
      vertex -0.730786 -2.5 1.33092
      vertex -0.488799 -2.5 1.36925
    endloop
  endfacet
  facet normal 0 -1 0
    outer loop
      vertex -5 -2.5 2.5
      vertex -0.96989 -2.5 1.27747
      vertex -0.730786 -2.5 1.33092
    endloop
  endfacet
  facet normal 0 -1 0
    outer loop
      vertex -5 -2.5 2.5
      vertex -1.20517 -2.5 1.20912
      vertex -0.96989 -2.5 1.27747
    endloop
  endfacet
  facet normal 0 -1 0
    outer loop
      vertex -5 -2.5 2.5
      vertex -1.43569 -2.5 1.12613
      vertex -1.20517 -2.5 1.20912
    endloop
  endfacet
  facet normal 0 -1 0
    outer loop
      vertex -5 -2.5 2.5
      vertex -1.66054 -2.5 1.02882
      vertex -1.43569 -2.5 1.12613
    endloop
  endfacet
  facet normal 0 -1 0
    outer loop
      vertex -5 -2.5 2.5
      vertex -1.87884 -2.5 0.917596
      vertex -1.66054 -2.5 1.02882
    endloop
  endfacet
  facet normal 0 -1 0
    outer loop
      vertex -5 -2.5 2.5
      vertex -2.08972 -2.5 0.792878
      vertex -1.87884 -2.5 0.917596
    endloop
  endfacet
  facet normal 0 -1 0
    outer loop
      vertex -5 -2.5 2.5
      vertex -2.29236 -2.5 0.655166
      vertex -2.08972 -2.5 0.792878
    endloop
  endfacet
  facet normal 0 -1 0
    outer loop
      vertex -5 -2.5 2.5
      vertex -2.48595 -2.5 0.505001
      vertex -2.29236 -2.5 0.655166
    endloop
  endfacet
  facet normal 0 -1 0
    outer loop
      vertex -5 -2.5 2.5
      vertex -2.66973 -2.5 0.342978
      vertex -2.48595 -2.5 0.505001
    endloop
  endfacet
  facet normal 0 -1 0
    outer loop
      vertex -5 -2.5 2.5
      vertex -2.84298 -2.5 0.169733
      vertex -2.66973 -2.5 0.342978
    endloop
  endfacet
  facet normal 0 -1 0
    outer loop
      vertex -5 -2.5 2.5
      vertex -3.005 -2.5 -0.0140457
      vertex -2.84298 -2.5 0.169733
    endloop
  endfacet
  facet normal 0 -1 0
    outer loop
      vertex -5 -2.5 2.5
      vertex -3.15517 -2.5 -0.207637
      vertex -3.005 -2.5 -0.0140457
    endloop
  endfacet
  facet normal 0 -1 0
    outer loop
      vertex -5 -2.5 2.5
      vertex -3.29288 -2.5 -0.410275
      vertex -3.15517 -2.5 -0.207637
    endloop
  endfacet
  facet normal 0 -1 0
    outer loop
      vertex -5 -2.5 2.5
      vertex -3.4176 -2.5 -0.621161
      vertex -3.29288 -2.5 -0.410275
    endloop
  endfacet
  facet normal 0 -1 0
    outer loop
      vertex -5 -2.5 2.5
      vertex -3.52882 -2.5 -0.83946
      vertex -3.4176 -2.5 -0.621161
    endloop
  endfacet
  facet normal 0 -1 0
    outer loop
      vertex -5 -2.5 2.5
      vertex -3.62613 -2.5 -1.06431
      vertex -3.52882 -2.5 -0.83946
    endloop
  endfacet
  facet normal 0 -1 0
    outer loop
      vertex -5 -2.5 -2.5
      vertex -3.62613 -2.5 -1.06431
      vertex -5 -2.5 2.5
    endloop
  endfacet
  facet normal 0 -1 0
    outer loop
      vertex -3.62613 -2.5 -1.06431
      vertex -5 -2.5 -2.5
      vertex -3.70912 -2.5 -1.29483
    endloop
  endfacet
  facet normal 0 -1 0
    outer loop
      vertex -3.70912 -2.5 -1.29483
      vertex -5 -2.5 -2.5
      vertex -3.77747 -2.5 -1.53011
    endloop
  endfacet
  facet normal 0 -1 0
    outer loop
      vertex -3.77747 -2.5 -1.53011
      vertex -5 -2.5 -2.5
      vertex -3.83092 -2.5 -1.76921
    endloop
  endfacet
  facet normal 0 -1 0
    outer loop
      vertex -3.83092 -2.5 -1.76921
      vertex -5 -2.5 -2.5
      vertex -3.86925 -2.5 -2.0112
    endloop
  endfacet
  facet normal 0 -1 0
    outer loop
      vertex -3.86925 -2.5 -2.0112
      vertex -5 -2.5 -2.5
      vertex -3.8923 -2.5 -2.25512
    endloop
  endfacet
  facet normal 0 -1 0
    outer loop
      vertex -3.8923 -2.5 -2.25512
      vertex -5 -2.5 -2.5
      vertex -3.89808 -2.5 -2.43878
    endloop
  endfacet
  facet normal 0 -1 0
    outer loop
      vertex -3.89808 -2.5 -2.43878
      vertex -5 -2.5 -2.5
      vertex -3.9 -2.5 -2.5
    endloop
  endfacet
  facet normal 0 -1 0
    outer loop
      vertex 0.244883 -2.5 1.3923
      vertex 5 -2.5 2.5
      vertex 0 -2.5 1.4
    endloop
  endfacet
  facet normal 0 -1 0
    outer loop
      vertex 0.488799 -2.5 1.36925
      vertex 5 -2.5 2.5
      vertex 0.244883 -2.5 1.3923
    endloop
  endfacet
  facet normal 0 -1 0
    outer loop
      vertex 0.730786 -2.5 1.33092
      vertex 5 -2.5 2.5
      vertex 0.488799 -2.5 1.36925
    endloop
  endfacet
  facet normal 0 -1 0
    outer loop
      vertex 0.96989 -2.5 1.27747
      vertex 5 -2.5 2.5
      vertex 0.730786 -2.5 1.33092
    endloop
  endfacet
  facet normal 0 -1 0
    outer loop
      vertex 1.20517 -2.5 1.20912
      vertex 5 -2.5 2.5
      vertex 0.96989 -2.5 1.27747
    endloop
  endfacet
  facet normal 0 -1 0
    outer loop
      vertex 1.43569 -2.5 1.12613
      vertex 5 -2.5 2.5
      vertex 1.20517 -2.5 1.20912
    endloop
  endfacet
  facet normal 0 -1 0
    outer loop
      vertex 1.66054 -2.5 1.02882
      vertex 5 -2.5 2.5
      vertex 1.43569 -2.5 1.12613
    endloop
  endfacet
  facet normal 0 -1 0
    outer loop
      vertex 1.87884 -2.5 0.917596
      vertex 5 -2.5 2.5
      vertex 1.66054 -2.5 1.02882
    endloop
  endfacet
  facet normal 0 -1 0
    outer loop
      vertex 2.08972 -2.5 0.792878
      vertex 5 -2.5 2.5
      vertex 1.87884 -2.5 0.917596
    endloop
  endfacet
  facet normal 0 -1 0
    outer loop
      vertex 2.29236 -2.5 0.655166
      vertex 5 -2.5 2.5
      vertex 2.08972 -2.5 0.792878
    endloop
  endfacet
  facet normal 0 -1 0
    outer loop
      vertex 2.48595 -2.5 0.505001
      vertex 5 -2.5 2.5
      vertex 2.29236 -2.5 0.655166
    endloop
  endfacet
  facet normal 0 -1 0
    outer loop
      vertex 2.66973 -2.5 0.342978
      vertex 5 -2.5 2.5
      vertex 2.48595 -2.5 0.505001
    endloop
  endfacet
  facet normal 0 -1 0
    outer loop
      vertex 2.84298 -2.5 0.169733
      vertex 5 -2.5 2.5
      vertex 2.66973 -2.5 0.342978
    endloop
  endfacet
  facet normal 0 -1 0
    outer loop
      vertex 3.005 -2.5 -0.0140457
      vertex 5 -2.5 2.5
      vertex 2.84298 -2.5 0.169733
    endloop
  endfacet
  facet normal 0 -1 0
    outer loop
      vertex 3.15517 -2.5 -0.207637
      vertex 5 -2.5 2.5
      vertex 3.005 -2.5 -0.0140457
    endloop
  endfacet
  facet normal 0 -1 0
    outer loop
      vertex 3.29288 -2.5 -0.410275
      vertex 5 -2.5 2.5
      vertex 3.15517 -2.5 -0.207637
    endloop
  endfacet
  facet normal 0 -1 0
    outer loop
      vertex 3.4176 -2.5 -0.621161
      vertex 5 -2.5 2.5
      vertex 3.29288 -2.5 -0.410275
    endloop
  endfacet
  facet normal 0 -1 0
    outer loop
      vertex 3.52882 -2.5 -0.83946
      vertex 5 -2.5 2.5
      vertex 3.4176 -2.5 -0.621161
    endloop
  endfacet
  facet normal 0 -1 0
    outer loop
      vertex 3.62613 -2.5 -1.06431
      vertex 5 -2.5 2.5
      vertex 3.52882 -2.5 -0.83946
    endloop
  endfacet
  facet normal 0 -1 0
    outer loop
      vertex 5 -2.5 -2.5
      vertex 3.62613 -2.5 -1.06431
      vertex 3.70912 -2.5 -1.29483
    endloop
  endfacet
  facet normal 0 -1 0
    outer loop
      vertex 5 -2.5 -2.5
      vertex 3.70912 -2.5 -1.29483
      vertex 3.77747 -2.5 -1.53011
    endloop
  endfacet
  facet normal 0 -1 0
    outer loop
      vertex 5 -2.5 -2.5
      vertex 3.77747 -2.5 -1.53011
      vertex 3.83092 -2.5 -1.76921
    endloop
  endfacet
  facet normal 0 -1 0
    outer loop
      vertex 5 -2.5 -2.5
      vertex 3.83092 -2.5 -1.76921
      vertex 3.86925 -2.5 -2.0112
    endloop
  endfacet
  facet normal 0 -1 0
    outer loop
      vertex 5 -2.5 -2.5
      vertex 3.86925 -2.5 -2.0112
      vertex 3.8923 -2.5 -2.25512
    endloop
  endfacet
  facet normal 0 -1 0
    outer loop
      vertex 5 -2.5 -2.5
      vertex 3.8923 -2.5 -2.25512
      vertex 3.89808 -2.5 -2.43878
    endloop
  endfacet
  facet normal 0 -1 0
    outer loop
      vertex 5 -2.5 -2.5
      vertex 3.89808 -2.5 -2.43878
      vertex 3.9 -2.5 -2.5
    endloop
  endfacet
  facet normal 0 -1 0
    outer loop
      vertex 3.62613 -2.5 -1.06431
      vertex 5 -2.5 -2.5
      vertex 5 -2.5 2.5
    endloop
  endfacet
  facet normal -0.999507 0 -0.0314124
    outer loop
      vertex 3.8923 -2.5 -2.25512
      vertex 3.89423 2.5 -2.31634
      vertex 3.89808 -2.5 -2.43878
    endloop
  endfacet
  facet normal -0.999507 0 -0.0314124
    outer loop
      vertex 3.89423 2.5 -2.31634
      vertex 3.8923 -2.5 -2.25512
      vertex 3.8923 2.5 -2.25512
    endloop
  endfacet
  facet normal -0.995562 0 -0.0941087
    outer loop
      vertex 3.8923 -2.5 -2.25512
      vertex 3.86925 2.5 -2.0112
      vertex 3.8923 2.5 -2.25512
    endloop
  endfacet
  facet normal -0.995562 -0 -0.0941087
    outer loop
      vertex 3.86925 2.5 -2.0112
      vertex 3.8923 -2.5 -2.25512
      vertex 3.86925 -2.5 -2.0112
    endloop
  endfacet
  facet normal -0.999507 -2.99571e-09 -0.0314123
    outer loop
      vertex 3.89808 -2.5 -2.43878
      vertex 3.9 2.5 -2.5
      vertex 3.9 -2.5 -2.5
    endloop
  endfacet
  facet normal -0.999507 -2.99571e-09 -0.0314123
    outer loop
      vertex 3.9 2.5 -2.5
      vertex 3.89808 -2.5 -2.43878
      vertex 3.89423 2.5 -2.31634
    endloop
  endfacet
  facet normal -0.987689 0 -0.156431
    outer loop
      vertex 3.86925 -2.5 -2.0112
      vertex 3.83092 2.5 -1.76921
      vertex 3.86925 2.5 -2.0112
    endloop
  endfacet
  facet normal -0.987689 -0 -0.156431
    outer loop
      vertex 3.83092 2.5 -1.76921
      vertex 3.86925 -2.5 -2.0112
      vertex 3.83092 -2.5 -1.76921
    endloop
  endfacet
  facet normal -0.661312 0 -0.750111
    outer loop
      vertex 2.48595 -2.5 0.505001
      vertex 2.66973 2.5 0.342978
      vertex 2.66973 -2.5 0.342978
    endloop
  endfacet
  facet normal -0.661312 0 -0.750111
    outer loop
      vertex 2.66973 2.5 0.342978
      vertex 2.48595 -2.5 0.505001
      vertex 2.48595 2.5 0.505001
    endloop
  endfacet
  facet normal 0.999507 -2.99571e-09 -0.0314123
    outer loop
      vertex -3.89808 -2.5 -2.43878
      vertex -3.9 2.5 -2.5
      vertex -3.89423 2.5 -2.31634
    endloop
  endfacet
  facet normal 0.999507 -2.99571e-09 -0.0314123
    outer loop
      vertex -3.9 2.5 -2.5
      vertex -3.89808 -2.5 -2.43878
      vertex -3.9 -2.5 -2.5
    endloop
  endfacet
  facet normal -0.891007 0 -0.453989
    outer loop
      vertex 3.52882 -2.5 -0.83946
      vertex 3.4176 2.5 -0.621161
      vertex 3.52882 2.5 -0.83946
    endloop
  endfacet
  facet normal -0.891007 -0 -0.453989
    outer loop
      vertex 3.4176 2.5 -0.621161
      vertex 3.52882 -2.5 -0.83946
      vertex 3.4176 -2.5 -0.621161
    endloop
  endfacet
  facet normal 0.999507 0 -0.0314124
    outer loop
      vertex -3.8923 -2.5 -2.25512
      vertex -3.89423 2.5 -2.31634
      vertex -3.8923 2.5 -2.25512
    endloop
  endfacet
  facet normal 0.999507 0 -0.0314124
    outer loop
      vertex -3.89423 2.5 -2.31634
      vertex -3.8923 -2.5 -2.25512
      vertex -3.89808 -2.5 -2.43878
    endloop
  endfacet
  facet normal 0.995562 0 -0.0941087
    outer loop
      vertex -3.86925 -2.5 -2.0112
      vertex -3.8923 2.5 -2.25512
      vertex -3.86925 2.5 -2.0112
    endloop
  endfacet
  facet normal 0.995562 0 -0.0941087
    outer loop
      vertex -3.8923 2.5 -2.25512
      vertex -3.86925 -2.5 -2.0112
      vertex -3.8923 -2.5 -2.25512
    endloop
  endfacet
  facet normal 0.39715 0 -0.917754
    outer loop
      vertex -1.66054 -2.5 1.02882
      vertex -1.43569 2.5 1.12613
      vertex -1.43569 -2.5 1.12613
    endloop
  endfacet
  facet normal 0.39715 0 -0.917754
    outer loop
      vertex -1.43569 2.5 1.12613
      vertex -1.66054 -2.5 1.02882
      vertex -1.66054 2.5 1.02882
    endloop
  endfacet
  facet normal -0.975916 0 -0.218147
    outer loop
      vertex 3.83092 -2.5 -1.76921
      vertex 3.77747 2.5 -1.53011
      vertex 3.83092 2.5 -1.76921
    endloop
  endfacet
  facet normal -0.975916 -0 -0.218147
    outer loop
      vertex 3.77747 2.5 -1.53011
      vertex 3.83092 -2.5 -1.76921
      vertex 3.77747 -2.5 -1.53011
    endloop
  endfacet
  facet normal 0.75011 0 -0.661314
    outer loop
      vertex -2.84298 -2.5 0.169733
      vertex -3.005 2.5 -0.0140457
      vertex -2.84298 2.5 0.169733
    endloop
  endfacet
  facet normal 0.75011 0 -0.661314
    outer loop
      vertex -3.005 2.5 -0.0140457
      vertex -2.84298 -2.5 0.169733
      vertex -3.005 -2.5 -0.0140457
    endloop
  endfacet
  facet normal 0.975916 0 -0.218147
    outer loop
      vertex -3.77747 -2.5 -1.53011
      vertex -3.83092 2.5 -1.76921
      vertex -3.77747 2.5 -1.53011
    endloop
  endfacet
  facet normal 0.975916 0 -0.218147
    outer loop
      vertex -3.83092 2.5 -1.76921
      vertex -3.77747 -2.5 -1.53011
      vertex -3.83092 -2.5 -1.76921
    endloop
  endfacet
  facet normal 0.661312 0 -0.750111
    outer loop
      vertex -2.66973 -2.5 0.342978
      vertex -2.48595 2.5 0.505001
      vertex -2.48595 -2.5 0.505001
    endloop
  endfacet
  facet normal 0.661312 0 -0.750111
    outer loop
      vertex -2.48595 2.5 0.505001
      vertex -2.66973 -2.5 0.342978
      vertex -2.66973 2.5 0.342978
    endloop
  endfacet
  facet normal 0.453989 0 -0.891007
    outer loop
      vertex -1.87884 -2.5 0.917596
      vertex -1.66054 2.5 1.02882
      vertex -1.66054 -2.5 1.02882
    endloop
  endfacet
  facet normal 0.453989 0 -0.891007
    outer loop
      vertex -1.66054 2.5 1.02882
      vertex -1.87884 -2.5 0.917596
      vertex -1.87884 2.5 0.917596
    endloop
  endfacet
  facet normal 0.218147 0 -0.975916
    outer loop
      vertex -0.96989 -2.5 1.27747
      vertex -0.730786 2.5 1.33092
      vertex -0.730786 -2.5 1.33092
    endloop
  endfacet
  facet normal 0.218147 0 -0.975916
    outer loop
      vertex -0.730786 2.5 1.33092
      vertex -0.96989 -2.5 1.27747
      vertex -0.96989 2.5 1.27747
    endloop
  endfacet
  facet normal -0.0314124 0 -0.999507
    outer loop
      vertex 0 -2.5 1.4
      vertex 0.244883 2.5 1.3923
      vertex 0.244883 -2.5 1.3923
    endloop
  endfacet
  facet normal -0.0314124 0 -0.999507
    outer loop
      vertex 0.244883 2.5 1.3923
      vertex 0 -2.5 1.4
      vertex 0 2.5 1.4
    endloop
  endfacet
  facet normal 0.156431 0 -0.987689
    outer loop
      vertex -0.730786 -2.5 1.33092
      vertex -0.488799 2.5 1.36925
      vertex -0.488799 -2.5 1.36925
    endloop
  endfacet
  facet normal 0.156431 0 -0.987689
    outer loop
      vertex -0.488799 2.5 1.36925
      vertex -0.730786 -2.5 1.33092
      vertex -0.730786 2.5 1.33092
    endloop
  endfacet
  facet normal -0.0941087 0 -0.995562
    outer loop
      vertex 0.244883 -2.5 1.3923
      vertex 0.488799 2.5 1.36925
      vertex 0.488799 -2.5 1.36925
    endloop
  endfacet
  facet normal -0.0941087 0 -0.995562
    outer loop
      vertex 0.488799 2.5 1.36925
      vertex 0.244883 -2.5 1.3923
      vertex 0.244883 2.5 1.3923
    endloop
  endfacet
  facet normal -0.338736 0 -0.940881
    outer loop
      vertex 1.20517 -2.5 1.20912
      vertex 1.43569 2.5 1.12613
      vertex 1.43569 -2.5 1.12613
    endloop
  endfacet
  facet normal -0.338736 0 -0.940881
    outer loop
      vertex 1.43569 2.5 1.12613
      vertex 1.20517 -2.5 1.20912
      vertex 1.20517 2.5 1.20912
    endloop
  endfacet
  facet normal -0.218147 0 -0.975916
    outer loop
      vertex 0.730786 -2.5 1.33092
      vertex 0.96989 2.5 1.27747
      vertex 0.96989 -2.5 1.27747
    endloop
  endfacet
  facet normal -0.218147 0 -0.975916
    outer loop
      vertex 0.96989 2.5 1.27747
      vertex 0.730786 -2.5 1.33092
      vertex 0.730786 2.5 1.33092
    endloop
  endfacet
  facet normal -0.509043 0 -0.860741
    outer loop
      vertex 1.87884 -2.5 0.917596
      vertex 2.08972 2.5 0.792878
      vertex 2.08972 -2.5 0.792878
    endloop
  endfacet
  facet normal -0.509043 0 -0.860741
    outer loop
      vertex 2.08972 2.5 0.792878
      vertex 1.87884 -2.5 0.917596
      vertex 1.87884 2.5 0.917596
    endloop
  endfacet
  facet normal -0.562082 0 -0.827082
    outer loop
      vertex 2.08972 -2.5 0.792878
      vertex 2.29236 2.5 0.655166
      vertex 2.29236 -2.5 0.655166
    endloop
  endfacet
  facet normal -0.562082 0 -0.827082
    outer loop
      vertex 2.29236 2.5 0.655166
      vertex 2.08972 -2.5 0.792878
      vertex 2.08972 2.5 0.792878
    endloop
  endfacet
  facet normal -0.917754 0 -0.39715
    outer loop
      vertex 3.62613 -2.5 -1.06431
      vertex 3.52882 2.5 -0.83946
      vertex 3.62613 2.5 -1.06431
    endloop
  endfacet
  facet normal -0.917754 -0 -0.39715
    outer loop
      vertex 3.52882 2.5 -0.83946
      vertex 3.62613 -2.5 -1.06431
      vertex 3.52882 -2.5 -0.83946
    endloop
  endfacet
  facet normal 0.827082 0 -0.562082
    outer loop
      vertex -3.15517 -2.5 -0.207637
      vertex -3.29288 2.5 -0.410275
      vertex -3.15517 2.5 -0.207637
    endloop
  endfacet
  facet normal 0.827082 0 -0.562082
    outer loop
      vertex -3.29288 2.5 -0.410275
      vertex -3.15517 -2.5 -0.207637
      vertex -3.29288 -2.5 -0.410275
    endloop
  endfacet
  facet normal 0.987689 0 -0.156431
    outer loop
      vertex -3.83092 -2.5 -1.76921
      vertex -3.86925 2.5 -2.0112
      vertex -3.83092 2.5 -1.76921
    endloop
  endfacet
  facet normal 0.987689 0 -0.156431
    outer loop
      vertex -3.86925 2.5 -2.0112
      vertex -3.83092 -2.5 -1.76921
      vertex -3.86925 -2.5 -2.0112
    endloop
  endfacet
  facet normal 0.612907 0 -0.790155
    outer loop
      vertex -2.48595 -2.5 0.505001
      vertex -2.29236 2.5 0.655166
      vertex -2.29236 -2.5 0.655166
    endloop
  endfacet
  facet normal 0.612907 0 -0.790155
    outer loop
      vertex -2.29236 2.5 0.655166
      vertex -2.48595 -2.5 0.505001
      vertex -2.48595 2.5 0.505001
    endloop
  endfacet
  facet normal 0.338736 0 -0.940881
    outer loop
      vertex -1.43569 -2.5 1.12613
      vertex -1.20517 2.5 1.20912
      vertex -1.20517 -2.5 1.20912
    endloop
  endfacet
  facet normal 0.338736 0 -0.940881
    outer loop
      vertex -1.20517 2.5 1.20912
      vertex -1.43569 -2.5 1.12613
      vertex -1.43569 2.5 1.12613
    endloop
  endfacet
  facet normal 0.0941087 0 -0.995562
    outer loop
      vertex -0.488799 -2.5 1.36925
      vertex -0.244883 2.5 1.3923
      vertex -0.244883 -2.5 1.3923
    endloop
  endfacet
  facet normal 0.0941087 0 -0.995562
    outer loop
      vertex -0.244883 2.5 1.3923
      vertex -0.488799 -2.5 1.36925
      vertex -0.488799 2.5 1.36925
    endloop
  endfacet
  facet normal -0.156431 0 -0.987689
    outer loop
      vertex 0.488799 -2.5 1.36925
      vertex 0.730786 2.5 1.33092
      vertex 0.730786 -2.5 1.33092
    endloop
  endfacet
  facet normal -0.156431 0 -0.987689
    outer loop
      vertex 0.730786 2.5 1.33092
      vertex 0.488799 -2.5 1.36925
      vertex 0.488799 2.5 1.36925
    endloop
  endfacet
  facet normal -0.27899 0 -0.960294
    outer loop
      vertex 0.96989 -2.5 1.27747
      vertex 1.20517 2.5 1.20912
      vertex 1.20517 -2.5 1.20912
    endloop
  endfacet
  facet normal -0.27899 0 -0.960294
    outer loop
      vertex 1.20517 2.5 1.20912
      vertex 0.96989 -2.5 1.27747
      vertex 0.96989 2.5 1.27747
    endloop
  endfacet
  facet normal -0.612907 0 -0.790155
    outer loop
      vertex 2.29236 -2.5 0.655166
      vertex 2.48595 2.5 0.505001
      vertex 2.48595 -2.5 0.505001
    endloop
  endfacet
  facet normal -0.612907 0 -0.790155
    outer loop
      vertex 2.48595 2.5 0.505001
      vertex 2.29236 -2.5 0.655166
      vertex 2.29236 2.5 0.655166
    endloop
  endfacet
  facet normal -0.453989 0 -0.891007
    outer loop
      vertex 1.66054 -2.5 1.02882
      vertex 1.87884 2.5 0.917596
      vertex 1.87884 -2.5 0.917596
    endloop
  endfacet
  facet normal -0.453989 0 -0.891007
    outer loop
      vertex 1.87884 2.5 0.917596
      vertex 1.66054 -2.5 1.02882
      vertex 1.66054 2.5 1.02882
    endloop
  endfacet
  facet normal -0.39715 0 -0.917754
    outer loop
      vertex 1.43569 -2.5 1.12613
      vertex 1.66054 2.5 1.02882
      vertex 1.66054 -2.5 1.02882
    endloop
  endfacet
  facet normal -0.39715 0 -0.917754
    outer loop
      vertex 1.66054 2.5 1.02882
      vertex 1.43569 -2.5 1.12613
      vertex 1.43569 2.5 1.12613
    endloop
  endfacet
  facet normal -0.940881 0 -0.338736
    outer loop
      vertex 3.70912 -2.5 -1.29483
      vertex 3.62613 2.5 -1.06431
      vertex 3.70912 2.5 -1.29483
    endloop
  endfacet
  facet normal -0.940881 -0 -0.338736
    outer loop
      vertex 3.62613 2.5 -1.06431
      vertex 3.70912 -2.5 -1.29483
      vertex 3.62613 -2.5 -1.06431
    endloop
  endfacet
  facet normal -0.960294 0 -0.27899
    outer loop
      vertex 3.77747 -2.5 -1.53011
      vertex 3.70912 2.5 -1.29483
      vertex 3.77747 2.5 -1.53011
    endloop
  endfacet
  facet normal -0.960294 -0 -0.27899
    outer loop
      vertex 3.70912 2.5 -1.29483
      vertex 3.77747 -2.5 -1.53011
      vertex 3.70912 -2.5 -1.29483
    endloop
  endfacet
  facet normal -0.860741 0 -0.509043
    outer loop
      vertex 3.4176 -2.5 -0.621161
      vertex 3.29288 2.5 -0.410275
      vertex 3.4176 2.5 -0.621161
    endloop
  endfacet
  facet normal -0.860741 -0 -0.509043
    outer loop
      vertex 3.29288 2.5 -0.410275
      vertex 3.4176 -2.5 -0.621161
      vertex 3.29288 -2.5 -0.410275
    endloop
  endfacet
  facet normal -0.790155 0 -0.612907
    outer loop
      vertex 3.15517 -2.5 -0.207637
      vertex 3.005 2.5 -0.0140457
      vertex 3.15517 2.5 -0.207637
    endloop
  endfacet
  facet normal -0.790155 -0 -0.612907
    outer loop
      vertex 3.005 2.5 -0.0140457
      vertex 3.15517 -2.5 -0.207637
      vertex 3.005 -2.5 -0.0140457
    endloop
  endfacet
  facet normal -0.827082 0 -0.562082
    outer loop
      vertex 3.29288 -2.5 -0.410275
      vertex 3.15517 2.5 -0.207637
      vertex 3.29288 2.5 -0.410275
    endloop
  endfacet
  facet normal -0.827082 -0 -0.562082
    outer loop
      vertex 3.15517 2.5 -0.207637
      vertex 3.29288 -2.5 -0.410275
      vertex 3.15517 -2.5 -0.207637
    endloop
  endfacet
  facet normal 0.707107 0 -0.707107
    outer loop
      vertex -2.66973 -2.5 0.342978
      vertex -2.84298 2.5 0.169733
      vertex -2.66973 2.5 0.342978
    endloop
  endfacet
  facet normal 0.707107 0 -0.707107
    outer loop
      vertex -2.84298 2.5 0.169733
      vertex -2.66973 -2.5 0.342978
      vertex -2.84298 -2.5 0.169733
    endloop
  endfacet
  facet normal 0.940881 0 -0.338736
    outer loop
      vertex -3.62613 -2.5 -1.06431
      vertex -3.70912 2.5 -1.29483
      vertex -3.62613 2.5 -1.06431
    endloop
  endfacet
  facet normal 0.940881 0 -0.338736
    outer loop
      vertex -3.70912 2.5 -1.29483
      vertex -3.62613 -2.5 -1.06431
      vertex -3.70912 -2.5 -1.29483
    endloop
  endfacet
  facet normal 0.0314124 0 -0.999507
    outer loop
      vertex -0.244883 -2.5 1.3923
      vertex 0 2.5 1.4
      vertex 0 -2.5 1.4
    endloop
  endfacet
  facet normal 0.0314124 0 -0.999507
    outer loop
      vertex 0 2.5 1.4
      vertex -0.244883 -2.5 1.3923
      vertex -0.244883 2.5 1.3923
    endloop
  endfacet
  facet normal -0.707107 0 -0.707107
    outer loop
      vertex 2.84298 -2.5 0.169733
      vertex 2.66973 2.5 0.342978
      vertex 2.84298 2.5 0.169733
    endloop
  endfacet
  facet normal -0.707107 -0 -0.707107
    outer loop
      vertex 2.66973 2.5 0.342978
      vertex 2.84298 -2.5 0.169733
      vertex 2.66973 -2.5 0.342978
    endloop
  endfacet
  facet normal 0.860741 0 -0.509043
    outer loop
      vertex -3.29288 -2.5 -0.410275
      vertex -3.4176 2.5 -0.621161
      vertex -3.29288 2.5 -0.410275
    endloop
  endfacet
  facet normal 0.860741 0 -0.509043
    outer loop
      vertex -3.4176 2.5 -0.621161
      vertex -3.29288 -2.5 -0.410275
      vertex -3.4176 -2.5 -0.621161
    endloop
  endfacet
  facet normal 0.790155 0 -0.612907
    outer loop
      vertex -3.005 -2.5 -0.0140457
      vertex -3.15517 2.5 -0.207637
      vertex -3.005 2.5 -0.0140457
    endloop
  endfacet
  facet normal 0.790155 0 -0.612907
    outer loop
      vertex -3.15517 2.5 -0.207637
      vertex -3.005 -2.5 -0.0140457
      vertex -3.15517 -2.5 -0.207637
    endloop
  endfacet
  facet normal 0.960294 0 -0.27899
    outer loop
      vertex -3.70912 -2.5 -1.29483
      vertex -3.77747 2.5 -1.53011
      vertex -3.70912 2.5 -1.29483
    endloop
  endfacet
  facet normal 0.960294 0 -0.27899
    outer loop
      vertex -3.77747 2.5 -1.53011
      vertex -3.70912 -2.5 -1.29483
      vertex -3.77747 -2.5 -1.53011
    endloop
  endfacet
  facet normal 0.509043 0 -0.860741
    outer loop
      vertex -2.08972 -2.5 0.792878
      vertex -1.87884 2.5 0.917596
      vertex -1.87884 -2.5 0.917596
    endloop
  endfacet
  facet normal 0.509043 0 -0.860741
    outer loop
      vertex -1.87884 2.5 0.917596
      vertex -2.08972 -2.5 0.792878
      vertex -2.08972 2.5 0.792878
    endloop
  endfacet
  facet normal 0.562082 0 -0.827082
    outer loop
      vertex -2.29236 -2.5 0.655166
      vertex -2.08972 2.5 0.792878
      vertex -2.08972 -2.5 0.792878
    endloop
  endfacet
  facet normal 0.562082 0 -0.827082
    outer loop
      vertex -2.08972 2.5 0.792878
      vertex -2.29236 -2.5 0.655166
      vertex -2.29236 2.5 0.655166
    endloop
  endfacet
  facet normal 0.27899 0 -0.960294
    outer loop
      vertex -1.20517 -2.5 1.20912
      vertex -0.96989 2.5 1.27747
      vertex -0.96989 -2.5 1.27747
    endloop
  endfacet
  facet normal 0.27899 0 -0.960294
    outer loop
      vertex -0.96989 2.5 1.27747
      vertex -1.20517 -2.5 1.20912
      vertex -1.20517 2.5 1.20912
    endloop
  endfacet
  facet normal -0.75011 0 -0.661314
    outer loop
      vertex 3.005 -2.5 -0.0140457
      vertex 2.84298 2.5 0.169733
      vertex 3.005 2.5 -0.0140457
    endloop
  endfacet
  facet normal -0.75011 -0 -0.661314
    outer loop
      vertex 2.84298 2.5 0.169733
      vertex 3.005 -2.5 -0.0140457
      vertex 2.84298 -2.5 0.169733
    endloop
  endfacet
  facet normal 0.891007 0 -0.453989
    outer loop
      vertex -3.4176 -2.5 -0.621161
      vertex -3.52882 2.5 -0.83946
      vertex -3.4176 2.5 -0.621161
    endloop
  endfacet
  facet normal 0.891007 0 -0.453989
    outer loop
      vertex -3.52882 2.5 -0.83946
      vertex -3.4176 -2.5 -0.621161
      vertex -3.52882 -2.5 -0.83946
    endloop
  endfacet
  facet normal 0.917754 0 -0.39715
    outer loop
      vertex -3.52882 -2.5 -0.83946
      vertex -3.62613 2.5 -1.06431
      vertex -3.52882 2.5 -0.83946
    endloop
  endfacet
  facet normal 0.917754 0 -0.39715
    outer loop
      vertex -3.62613 2.5 -1.06431
      vertex -3.52882 -2.5 -0.83946
      vertex -3.62613 -2.5 -1.06431
    endloop
  endfacet
endsolid OpenSCAD_Model
