solid OpenSCAD_Model
  facet normal -1 0 0
    outer loop
      vertex -5 -2.5 -2.5
      vertex -5 2.5 2.5
      vertex -5 2.5 -2.5
    endloop
  endfacet
  facet normal -1 -0 0
    outer loop
      vertex -5 2.5 2.5
      vertex -5 -2.5 -2.5
      vertex -5 -2.5 2.5
    endloop
  endfacet
  facet normal -0 0 1
    outer loop
      vertex -5 2.5 2.5
      vertex 5 -2.5 2.5
      vertex 5 2.5 2.5
    endloop
  endfacet
  facet normal 0 0 1
    outer loop
      vertex 5 -2.5 2.5
      vertex -5 2.5 2.5
      vertex -5 -2.5 2.5
    endloop
  endfacet
  facet normal 1 -0 0
    outer loop
      vertex 5 -2.5 2.5
      vertex 5 2.5 -2.5
      vertex 5 2.5 2.5
    endloop
  endfacet
  facet normal 1 0 0
    outer loop
      vertex 5 2.5 -2.5
      vertex 5 -2.5 2.5
      vertex 5 -2.5 -2.5
    endloop
  endfacet
  facet normal 0 1 0
    outer loop
      vertex 5 2.5 2.5
      vertex 0 2.5 1.2
      vertex -5 2.5 2.5
    endloop
  endfacet
  facet normal 0 1 0
    outer loop
      vertex 5 2.5 2.5
      vertex 0.219767 2.5 1.19309
      vertex 0 2.5 1.2
    endloop
  endfacet
  facet normal 0 1 0
    outer loop
      vertex 5 2.5 2.5
      vertex 0.438665 2.5 1.1724
      vertex 0.219767 2.5 1.19309
    endloop
  endfacet
  facet normal 0 1 0
    outer loop
      vertex 5 2.5 2.5
      vertex 0.655834 2.5 1.13801
      vertex 0.438665 2.5 1.1724
    endloop
  endfacet
  facet normal 0 1 0
    outer loop
      vertex 5 2.5 2.5
      vertex 0.870414 2.5 1.09004
      vertex 0.655834 2.5 1.13801
    endloop
  endfacet
  facet normal 0 1 0
    outer loop
      vertex 5 2.5 2.5
      vertex 1.08156 2.5 1.0287
      vertex 0.870414 2.5 1.09004
    endloop
  endfacet
  facet normal 0 1 0
    outer loop
      vertex 5 2.5 2.5
      vertex 1.28843 2.5 0.954217
      vertex 1.08156 2.5 1.0287
    endloop
  endfacet
  facet normal 0 1 0
    outer loop
      vertex 5 2.5 2.5
      vertex 1.49023 2.5 0.866894
      vertex 1.28843 2.5 0.954217
    endloop
  endfacet
  facet normal 0 1 0
    outer loop
      vertex 5 2.5 2.5
      vertex 1.68614 2.5 0.767073
      vertex 1.49023 2.5 0.866894
    endloop
  endfacet
  facet normal 0 1 0
    outer loop
      vertex 5 2.5 2.5
      vertex 1.87539 2.5 0.655148
      vertex 1.68614 2.5 0.767073
    endloop
  endfacet
  facet normal 0 1 0
    outer loop
      vertex 5 2.5 2.5
      vertex 2.05725 2.5 0.531559
      vertex 1.87539 2.5 0.655148
    endloop
  endfacet
  facet normal 0 1 0
    outer loop
      vertex 5 2.5 2.5
      vertex 2.23098 2.5 0.396796
      vertex 2.05725 2.5 0.531559
    endloop
  endfacet
  facet normal 0 1 0
    outer loop
      vertex 5 2.5 2.5
      vertex 2.39591 2.5 0.25139
      vertex 2.23098 2.5 0.396796
    endloop
  endfacet
  facet normal 0 1 0
    outer loop
      vertex 5 2.5 2.5
      vertex 2.55139 2.5 0.0959148
      vertex 2.39591 2.5 0.25139
    endloop
  endfacet
  facet normal 0 1 0
    outer loop
      vertex 5 2.5 2.5
      vertex 2.6968 2.5 -0.0690155
      vertex 2.55139 2.5 0.0959148
    endloop
  endfacet
  facet normal 0 1 0
    outer loop
      vertex 5 2.5 2.5
      vertex 2.83156 2.5 -0.242751
      vertex 2.6968 2.5 -0.0690155
    endloop
  endfacet
  facet normal 0 1 0
    outer loop
      vertex 5 2.5 2.5
      vertex 2.95515 2.5 -0.424605
      vertex 2.83156 2.5 -0.242751
    endloop
  endfacet
  facet normal 0 1 0
    outer loop
      vertex 5 2.5 2.5
      vertex 3.06707 2.5 -0.613862
      vertex 2.95515 2.5 -0.424605
    endloop
  endfacet
  facet normal 0 1 0
    outer loop
      vertex 5 2.5 2.5
      vertex 3.16689 2.5 -0.809772
      vertex 3.06707 2.5 -0.613862
    endloop
  endfacet
  facet normal 0 1 0
    outer loop
      vertex 5 2.5 2.5
      vertex 3.25422 2.5 -1.01156
      vertex 3.16689 2.5 -0.809772
    endloop
  endfacet
  facet normal 0 1 -0
    outer loop
      vertex 5 2.5 -2.5
      vertex 3.25422 2.5 -1.01156
      vertex 5 2.5 2.5
    endloop
  endfacet
  facet normal 0 1 0
    outer loop
      vertex 3.25422 2.5 -1.01156
      vertex 5 2.5 -2.5
      vertex 3.3287 2.5 -1.21844
    endloop
  endfacet
  facet normal 0 1 0
    outer loop
      vertex 3.3287 2.5 -1.21844
      vertex 5 2.5 -2.5
      vertex 3.39004 2.5 -1.42958
    endloop
  endfacet
  facet normal 0 1 0
    outer loop
      vertex 3.39004 2.5 -1.42958
      vertex 5 2.5 -2.5
      vertex 3.438 2.5 -1.64417
    endloop
  endfacet
  facet normal 0 1 0
    outer loop
      vertex 3.438 2.5 -1.64417
      vertex 5 2.5 -2.5
      vertex 3.4724 2.5 -1.86133
    endloop
  endfacet
  facet normal 0 1 0
    outer loop
      vertex 3.4724 2.5 -1.86133
      vertex 5 2.5 -2.5
      vertex 3.49309 2.5 -2.08023
    endloop
  endfacet
  facet normal 0 1 0
    outer loop
      vertex 3.49309 2.5 -2.08023
      vertex 5 2.5 -2.5
      vertex 3.5 2.5 -2.3
    endloop
  endfacet
  facet normal 0 1 0
    outer loop
      vertex 3.5 2.5 -2.3
      vertex 5 2.5 -2.5
      vertex 3.49371 2.5 -2.5
    endloop
  endfacet
  facet normal 0 1 -0
    outer loop
      vertex -0.219767 2.5 1.19309
      vertex -5 2.5 2.5
      vertex 0 2.5 1.2
    endloop
  endfacet
  facet normal 0 1 -0
    outer loop
      vertex -0.438665 2.5 1.1724
      vertex -5 2.5 2.5
      vertex -0.219767 2.5 1.19309
    endloop
  endfacet
  facet normal 0 1 -0
    outer loop
      vertex -0.655834 2.5 1.13801
      vertex -5 2.5 2.5
      vertex -0.438665 2.5 1.1724
    endloop
  endfacet
  facet normal 0 1 -0
    outer loop
      vertex -0.870414 2.5 1.09004
      vertex -5 2.5 2.5
      vertex -0.655834 2.5 1.13801
    endloop
  endfacet
  facet normal 0 1 -0
    outer loop
      vertex -1.08156 2.5 1.0287
      vertex -5 2.5 2.5
      vertex -0.870414 2.5 1.09004
    endloop
  endfacet
  facet normal 0 1 -0
    outer loop
      vertex -1.28843 2.5 0.954217
      vertex -5 2.5 2.5
      vertex -1.08156 2.5 1.0287
    endloop
  endfacet
  facet normal 0 1 -0
    outer loop
      vertex -1.49023 2.5 0.866894
      vertex -5 2.5 2.5
      vertex -1.28843 2.5 0.954217
    endloop
  endfacet
  facet normal 0 1 -0
    outer loop
      vertex -1.68614 2.5 0.767073
      vertex -5 2.5 2.5
      vertex -1.49023 2.5 0.866894
    endloop
  endfacet
  facet normal 0 1 -0
    outer loop
      vertex -1.87539 2.5 0.655148
      vertex -5 2.5 2.5
      vertex -1.68614 2.5 0.767073
    endloop
  endfacet
  facet normal 0 1 -0
    outer loop
      vertex -2.05725 2.5 0.531559
      vertex -5 2.5 2.5
      vertex -1.87539 2.5 0.655148
    endloop
  endfacet
  facet normal 0 1 -0
    outer loop
      vertex -2.23098 2.5 0.396796
      vertex -5 2.5 2.5
      vertex -2.05725 2.5 0.531559
    endloop
  endfacet
  facet normal 0 1 -0
    outer loop
      vertex -2.39591 2.5 0.25139
      vertex -5 2.5 2.5
      vertex -2.23098 2.5 0.396796
    endloop
  endfacet
  facet normal 0 1 -0
    outer loop
      vertex -2.55139 2.5 0.0959148
      vertex -5 2.5 2.5
      vertex -2.39591 2.5 0.25139
    endloop
  endfacet
  facet normal 0 1 -0
    outer loop
      vertex -2.6968 2.5 -0.0690155
      vertex -5 2.5 2.5
      vertex -2.55139 2.5 0.0959148
    endloop
  endfacet
  facet normal 0 1 -0
    outer loop
      vertex -2.83156 2.5 -0.242751
      vertex -5 2.5 2.5
      vertex -2.6968 2.5 -0.0690155
    endloop
  endfacet
  facet normal 0 1 -0
    outer loop
      vertex -2.95515 2.5 -0.424605
      vertex -5 2.5 2.5
      vertex -2.83156 2.5 -0.242751
    endloop
  endfacet
  facet normal 0 1 -0
    outer loop
      vertex -3.06707 2.5 -0.613862
      vertex -5 2.5 2.5
      vertex -2.95515 2.5 -0.424605
    endloop
  endfacet
  facet normal 0 1 -0
    outer loop
      vertex -3.16689 2.5 -0.809772
      vertex -5 2.5 2.5
      vertex -3.06707 2.5 -0.613862
    endloop
  endfacet
  facet normal 0 1 -0
    outer loop
      vertex -3.25422 2.5 -1.01156
      vertex -5 2.5 2.5
      vertex -3.16689 2.5 -0.809772
    endloop
  endfacet
  facet normal 0 1 0
    outer loop
      vertex -5 2.5 -2.5
      vertex -3.25422 2.5 -1.01156
      vertex -3.3287 2.5 -1.21844
    endloop
  endfacet
  facet normal 0 1 0
    outer loop
      vertex -5 2.5 -2.5
      vertex -3.3287 2.5 -1.21844
      vertex -3.39004 2.5 -1.42958
    endloop
  endfacet
  facet normal 0 1 0
    outer loop
      vertex -5 2.5 -2.5
      vertex -3.39004 2.5 -1.42958
      vertex -3.438 2.5 -1.64417
    endloop
  endfacet
  facet normal 0 1 0
    outer loop
      vertex -5 2.5 -2.5
      vertex -3.438 2.5 -1.64417
      vertex -3.4724 2.5 -1.86133
    endloop
  endfacet
  facet normal 0 1 0
    outer loop
      vertex -5 2.5 -2.5
      vertex -3.4724 2.5 -1.86133
      vertex -3.49309 2.5 -2.08023
    endloop
  endfacet
  facet normal 0 1 0
    outer loop
      vertex -5 2.5 -2.5
      vertex -3.49309 2.5 -2.08023
      vertex -3.5 2.5 -2.3
    endloop
  endfacet
  facet normal 0 1 0
    outer loop
      vertex -5 2.5 -2.5
      vertex -3.5 2.5 -2.3
      vertex -3.49371 2.5 -2.5
    endloop
  endfacet
  facet normal 0 1 0
    outer loop
      vertex -3.25422 2.5 -1.01156
      vertex -5 2.5 -2.5
      vertex -5 2.5 2.5
    endloop
  endfacet
  facet normal 0 0 -1
    outer loop
      vertex -5 -2.5 -2.5
      vertex -3.49371 2.5 -2.5
      vertex -3.49371 -2.5 -2.5
    endloop
  endfacet
  facet normal -0 0 -1
    outer loop
      vertex -3.49371 2.5 -2.5
      vertex -5 -2.5 -2.5
      vertex -5 2.5 -2.5
    endloop
  endfacet
  facet normal 0 0 -1
    outer loop
      vertex 3.49371 -2.5 -2.5
      vertex 5 2.5 -2.5
      vertex 5 -2.5 -2.5
    endloop
  endfacet
  facet normal -0 0 -1
    outer loop
      vertex 5 2.5 -2.5
      vertex 3.49371 -2.5 -2.5
      vertex 3.49371 2.5 -2.5
    endloop
  endfacet
  facet normal 0 -1 0
    outer loop
      vertex -5 -2.5 2.5
      vertex 0 -2.5 1.2
      vertex 5 -2.5 2.5
    endloop
  endfacet
  facet normal 0 -1 0
    outer loop
      vertex -5 -2.5 2.5
      vertex -0.219767 -2.5 1.19309
      vertex 0 -2.5 1.2
    endloop
  endfacet
  facet normal 0 -1 0
    outer loop
      vertex -5 -2.5 2.5
      vertex -0.438665 -2.5 1.1724
      vertex -0.219767 -2.5 1.19309
    endloop
  endfacet
  facet normal 0 -1 0
    outer loop
      vertex -5 -2.5 2.5
      vertex -0.655834 -2.5 1.13801
      vertex -0.438665 -2.5 1.1724
    endloop
  endfacet
  facet normal 0 -1 0
    outer loop
      vertex -5 -2.5 2.5
      vertex -0.870414 -2.5 1.09004
      vertex -0.655834 -2.5 1.13801
    endloop
  endfacet
  facet normal 0 -1 0
    outer loop
      vertex -5 -2.5 2.5
      vertex -1.08156 -2.5 1.0287
      vertex -0.870414 -2.5 1.09004
    endloop
  endfacet
  facet normal 0 -1 0
    outer loop
      vertex -5 -2.5 2.5
      vertex -1.28843 -2.5 0.954217
      vertex -1.08156 -2.5 1.0287
    endloop
  endfacet
  facet normal 0 -1 0
    outer loop
      vertex -5 -2.5 2.5
      vertex -1.49023 -2.5 0.866894
      vertex -1.28843 -2.5 0.954217
    endloop
  endfacet
  facet normal 0 -1 0
    outer loop
      vertex -5 -2.5 2.5
      vertex -1.68614 -2.5 0.767073
      vertex -1.49023 -2.5 0.866894
    endloop
  endfacet
  facet normal 0 -1 0
    outer loop
      vertex -5 -2.5 2.5
      vertex -1.87539 -2.5 0.655148
      vertex -1.68614 -2.5 0.767073
    endloop
  endfacet
  facet normal 0 -1 0
    outer loop
      vertex -5 -2.5 2.5
      vertex -2.05725 -2.5 0.531559
      vertex -1.87539 -2.5 0.655148
    endloop
  endfacet
  facet normal 0 -1 0
    outer loop
      vertex -5 -2.5 2.5
      vertex -2.23098 -2.5 0.396796
      vertex -2.05725 -2.5 0.531559
    endloop
  endfacet
  facet normal 0 -1 0
    outer loop
      vertex -5 -2.5 2.5
      vertex -2.39591 -2.5 0.25139
      vertex -2.23098 -2.5 0.396796
    endloop
  endfacet
  facet normal 0 -1 0
    outer loop
      vertex -5 -2.5 2.5
      vertex -2.55139 -2.5 0.0959148
      vertex -2.39591 -2.5 0.25139
    endloop
  endfacet
  facet normal 0 -1 0
    outer loop
      vertex -5 -2.5 2.5
      vertex -2.6968 -2.5 -0.0690155
      vertex -2.55139 -2.5 0.0959148
    endloop
  endfacet
  facet normal 0 -1 0
    outer loop
      vertex -5 -2.5 2.5
      vertex -2.83156 -2.5 -0.242751
      vertex -2.6968 -2.5 -0.0690155
    endloop
  endfacet
  facet normal 0 -1 0
    outer loop
      vertex -5 -2.5 2.5
      vertex -2.95515 -2.5 -0.424605
      vertex -2.83156 -2.5 -0.242751
    endloop
  endfacet
  facet normal 0 -1 0
    outer loop
      vertex -5 -2.5 2.5
      vertex -3.06707 -2.5 -0.613862
      vertex -2.95515 -2.5 -0.424605
    endloop
  endfacet
  facet normal 0 -1 0
    outer loop
      vertex -5 -2.5 2.5
      vertex -3.16689 -2.5 -0.809772
      vertex -3.06707 -2.5 -0.613862
    endloop
  endfacet
  facet normal 0 -1 0
    outer loop
      vertex -5 -2.5 2.5
      vertex -3.25422 -2.5 -1.01156
      vertex -3.16689 -2.5 -0.809772
    endloop
  endfacet
  facet normal 0 -1 0
    outer loop
      vertex -5 -2.5 -2.5
      vertex -3.25422 -2.5 -1.01156
      vertex -5 -2.5 2.5
    endloop
  endfacet
  facet normal 0 -1 0
    outer loop
      vertex -3.25422 -2.5 -1.01156
      vertex -5 -2.5 -2.5
      vertex -3.3287 -2.5 -1.21844
    endloop
  endfacet
  facet normal 0 -1 0
    outer loop
      vertex -3.3287 -2.5 -1.21844
      vertex -5 -2.5 -2.5
      vertex -3.39004 -2.5 -1.42958
    endloop
  endfacet
  facet normal 0 -1 0
    outer loop
      vertex -3.39004 -2.5 -1.42958
      vertex -5 -2.5 -2.5
      vertex -3.438 -2.5 -1.64417
    endloop
  endfacet
  facet normal 0 -1 0
    outer loop
      vertex -3.438 -2.5 -1.64417
      vertex -5 -2.5 -2.5
      vertex -3.4724 -2.5 -1.86133
    endloop
  endfacet
  facet normal 0 -1 0
    outer loop
      vertex -3.4724 -2.5 -1.86133
      vertex -5 -2.5 -2.5
      vertex -3.49309 -2.5 -2.08023
    endloop
  endfacet
  facet normal 0 -1 0
    outer loop
      vertex -3.49309 -2.5 -2.08023
      vertex -5 -2.5 -2.5
      vertex -3.5 -2.5 -2.3
    endloop
  endfacet
  facet normal 0 -1 -0
    outer loop
      vertex -3.5 -2.5 -2.3
      vertex -5 -2.5 -2.5
      vertex -3.49371 -2.5 -2.5
    endloop
  endfacet
  facet normal 0 -1 0
    outer loop
      vertex 0.219767 -2.5 1.19309
      vertex 5 -2.5 2.5
      vertex 0 -2.5 1.2
    endloop
  endfacet
  facet normal 0 -1 0
    outer loop
      vertex 0.438665 -2.5 1.1724
      vertex 5 -2.5 2.5
      vertex 0.219767 -2.5 1.19309
    endloop
  endfacet
  facet normal 0 -1 0
    outer loop
      vertex 0.655834 -2.5 1.13801
      vertex 5 -2.5 2.5
      vertex 0.438665 -2.5 1.1724
    endloop
  endfacet
  facet normal 0 -1 0
    outer loop
      vertex 0.870414 -2.5 1.09004
      vertex 5 -2.5 2.5
      vertex 0.655834 -2.5 1.13801
    endloop
  endfacet
  facet normal 0 -1 0
    outer loop
      vertex 1.08156 -2.5 1.0287
      vertex 5 -2.5 2.5
      vertex 0.870414 -2.5 1.09004
    endloop
  endfacet
  facet normal 0 -1 0
    outer loop
      vertex 1.28843 -2.5 0.954217
      vertex 5 -2.5 2.5
      vertex 1.08156 -2.5 1.0287
    endloop
  endfacet
  facet normal 0 -1 0
    outer loop
      vertex 1.49023 -2.5 0.866894
      vertex 5 -2.5 2.5
      vertex 1.28843 -2.5 0.954217
    endloop
  endfacet
  facet normal 0 -1 0
    outer loop
      vertex 1.68614 -2.5 0.767073
      vertex 5 -2.5 2.5
      vertex 1.49023 -2.5 0.866894
    endloop
  endfacet
  facet normal 0 -1 0
    outer loop
      vertex 1.87539 -2.5 0.655148
      vertex 5 -2.5 2.5
      vertex 1.68614 -2.5 0.767073
    endloop
  endfacet
  facet normal 0 -1 0
    outer loop
      vertex 2.05725 -2.5 0.531559
      vertex 5 -2.5 2.5
      vertex 1.87539 -2.5 0.655148
    endloop
  endfacet
  facet normal 0 -1 0
    outer loop
      vertex 2.23098 -2.5 0.396796
      vertex 5 -2.5 2.5
      vertex 2.05725 -2.5 0.531559
    endloop
  endfacet
  facet normal 0 -1 0
    outer loop
      vertex 2.39591 -2.5 0.25139
      vertex 5 -2.5 2.5
      vertex 2.23098 -2.5 0.396796
    endloop
  endfacet
  facet normal 0 -1 0
    outer loop
      vertex 2.55139 -2.5 0.0959148
      vertex 5 -2.5 2.5
      vertex 2.39591 -2.5 0.25139
    endloop
  endfacet
  facet normal 0 -1 0
    outer loop
      vertex 2.6968 -2.5 -0.0690155
      vertex 5 -2.5 2.5
      vertex 2.55139 -2.5 0.0959148
    endloop
  endfacet
  facet normal 0 -1 0
    outer loop
      vertex 2.83156 -2.5 -0.242751
      vertex 5 -2.5 2.5
      vertex 2.6968 -2.5 -0.0690155
    endloop
  endfacet
  facet normal 0 -1 0
    outer loop
      vertex 2.95515 -2.5 -0.424605
      vertex 5 -2.5 2.5
      vertex 2.83156 -2.5 -0.242751
    endloop
  endfacet
  facet normal 0 -1 0
    outer loop
      vertex 3.06707 -2.5 -0.613862
      vertex 5 -2.5 2.5
      vertex 2.95515 -2.5 -0.424605
    endloop
  endfacet
  facet normal 0 -1 0
    outer loop
      vertex 3.16689 -2.5 -0.809772
      vertex 5 -2.5 2.5
      vertex 3.06707 -2.5 -0.613862
    endloop
  endfacet
  facet normal 0 -1 0
    outer loop
      vertex 3.25422 -2.5 -1.01156
      vertex 5 -2.5 2.5
      vertex 3.16689 -2.5 -0.809772
    endloop
  endfacet
  facet normal 0 -1 0
    outer loop
      vertex 5 -2.5 -2.5
      vertex 3.25422 -2.5 -1.01156
      vertex 3.3287 -2.5 -1.21844
    endloop
  endfacet
  facet normal 0 -1 0
    outer loop
      vertex 5 -2.5 -2.5
      vertex 3.3287 -2.5 -1.21844
      vertex 3.39004 -2.5 -1.42958
    endloop
  endfacet
  facet normal 0 -1 0
    outer loop
      vertex 5 -2.5 -2.5
      vertex 3.39004 -2.5 -1.42958
      vertex 3.438 -2.5 -1.64417
    endloop
  endfacet
  facet normal 0 -1 0
    outer loop
      vertex 5 -2.5 -2.5
      vertex 3.438 -2.5 -1.64417
      vertex 3.4724 -2.5 -1.86133
    endloop
  endfacet
  facet normal 0 -1 0
    outer loop
      vertex 5 -2.5 -2.5
      vertex 3.4724 -2.5 -1.86133
      vertex 3.49309 -2.5 -2.08023
    endloop
  endfacet
  facet normal 0 -1 0
    outer loop
      vertex 5 -2.5 -2.5
      vertex 3.49309 -2.5 -2.08023
      vertex 3.5 -2.5 -2.3
    endloop
  endfacet
  facet normal 0 -1 0
    outer loop
      vertex 5 -2.5 -2.5
      vertex 3.5 -2.5 -2.3
      vertex 3.49371 -2.5 -2.5
    endloop
  endfacet
  facet normal 0 -1 0
    outer loop
      vertex 3.25422 -2.5 -1.01156
      vertex 5 -2.5 -2.5
      vertex 5 -2.5 2.5
    endloop
  endfacet
  facet normal -0.999507 0 -0.0314111
    outer loop
      vertex 3.5 -2.5 -2.3
      vertex 3.49309 2.5 -2.08023
      vertex 3.5 2.5 -2.3
    endloop
  endfacet
  facet normal -0.999507 -0 -0.0314111
    outer loop
      vertex 3.49309 2.5 -2.08023
      vertex 3.5 -2.5 -2.3
      vertex 3.49309 -2.5 -2.08023
    endloop
  endfacet
  facet normal 0.0314111 0 -0.999507
    outer loop
      vertex -0.219767 -2.5 1.19309
      vertex 0 2.5 1.2
      vertex 0 -2.5 1.2
    endloop
  endfacet
  facet normal 0.0314111 0 -0.999507
    outer loop
      vertex 0 2.5 1.2
      vertex -0.219767 -2.5 1.19309
      vertex -0.219767 2.5 1.19309
    endloop
  endfacet
  facet normal 0.0941076 0 -0.995562
    outer loop
      vertex -0.438665 -2.5 1.1724
      vertex -0.219767 2.5 1.19309
      vertex -0.219767 -2.5 1.19309
    endloop
  endfacet
  facet normal 0.0941076 0 -0.995562
    outer loop
      vertex -0.219767 2.5 1.19309
      vertex -0.438665 -2.5 1.1724
      vertex -0.438665 2.5 1.1724
    endloop
  endfacet
  facet normal -0.995562 0 -0.0941115
    outer loop
      vertex 3.49309 -2.5 -2.08023
      vertex 3.4724 2.5 -1.86133
      vertex 3.49309 2.5 -2.08023
    endloop
  endfacet
  facet normal -0.995562 -0 -0.0941115
    outer loop
      vertex 3.4724 2.5 -1.86133
      vertex 3.49309 -2.5 -2.08023
      vertex 3.4724 -2.5 -1.86133
    endloop
  endfacet
  facet normal 0.999507 0 -0.0314111
    outer loop
      vertex -3.49309 -2.5 -2.08023
      vertex -3.5 2.5 -2.3
      vertex -3.49309 2.5 -2.08023
    endloop
  endfacet
  facet normal 0.999507 0 -0.0314111
    outer loop
      vertex -3.5 2.5 -2.3
      vertex -3.49309 -2.5 -2.08023
      vertex -3.5 -2.5 -2.3
    endloop
  endfacet
  facet normal 0.999507 -0 0.0314103
    outer loop
      vertex -3.5 -2.5 -2.3
      vertex -3.49371 2.5 -2.5
      vertex -3.5 2.5 -2.3
    endloop
  endfacet
  facet normal 0.999507 0 0.0314103
    outer loop
      vertex -3.49371 2.5 -2.5
      vertex -3.5 -2.5 -2.3
      vertex -3.49371 -2.5 -2.5
    endloop
  endfacet
  facet normal 0.987688 0 -0.156435
    outer loop
      vertex -3.438 -2.5 -1.64417
      vertex -3.4724 2.5 -1.86133
      vertex -3.438 2.5 -1.64417
    endloop
  endfacet
  facet normal 0.987688 0 -0.156435
    outer loop
      vertex -3.4724 2.5 -1.86133
      vertex -3.438 -2.5 -1.64417
      vertex -3.4724 -2.5 -1.86133
    endloop
  endfacet
  facet normal 0.156435 0 -0.987688
    outer loop
      vertex -0.655834 -2.5 1.13801
      vertex -0.438665 2.5 1.1724
      vertex -0.438665 -2.5 1.1724
    endloop
  endfacet
  facet normal 0.156435 0 -0.987688
    outer loop
      vertex -0.438665 2.5 1.1724
      vertex -0.655834 -2.5 1.13801
      vertex -0.655834 2.5 1.13801
    endloop
  endfacet
  facet normal 0.995562 0 -0.0941115
    outer loop
      vertex -3.4724 -2.5 -1.86133
      vertex -3.49309 2.5 -2.08023
      vertex -3.4724 2.5 -1.86133
    endloop
  endfacet
  facet normal 0.995562 0 -0.0941115
    outer loop
      vertex -3.49309 2.5 -2.08023
      vertex -3.4724 -2.5 -1.86133
      vertex -3.49309 -2.5 -2.08023
    endloop
  endfacet
  facet normal -0.891006 0 -0.453991
    outer loop
      vertex 3.16689 -2.5 -0.809772
      vertex 3.06707 2.5 -0.613862
      vertex 3.16689 2.5 -0.809772
    endloop
  endfacet
  facet normal -0.891006 -0 -0.453991
    outer loop
      vertex 3.06707 2.5 -0.613862
      vertex 3.16689 -2.5 -0.809772
      vertex 3.06707 -2.5 -0.613862
    endloop
  endfacet
  facet normal 0.827081 0 -0.562082
    outer loop
      vertex -2.83156 -2.5 -0.242751
      vertex -2.95515 2.5 -0.424605
      vertex -2.83156 2.5 -0.242751
    endloop
  endfacet
  facet normal 0.827081 0 -0.562082
    outer loop
      vertex -2.95515 2.5 -0.424605
      vertex -2.83156 -2.5 -0.242751
      vertex -2.95515 -2.5 -0.424605
    endloop
  endfacet
  facet normal 0.940881 0 -0.338737
    outer loop
      vertex -3.25422 -2.5 -1.01156
      vertex -3.3287 2.5 -1.21844
      vertex -3.25422 2.5 -1.01156
    endloop
  endfacet
  facet normal 0.940881 0 -0.338737
    outer loop
      vertex -3.3287 2.5 -1.21844
      vertex -3.25422 -2.5 -1.01156
      vertex -3.3287 -2.5 -1.21844
    endloop
  endfacet
  facet normal -0.156435 0 -0.987688
    outer loop
      vertex 0.438665 -2.5 1.1724
      vertex 0.655834 2.5 1.13801
      vertex 0.655834 -2.5 1.13801
    endloop
  endfacet
  facet normal -0.156435 0 -0.987688
    outer loop
      vertex 0.655834 2.5 1.13801
      vertex 0.438665 -2.5 1.1724
      vertex 0.438665 2.5 1.1724
    endloop
  endfacet
  facet normal -0.50904 0 -0.860743
    outer loop
      vertex 1.68614 -2.5 0.767073
      vertex 1.87539 2.5 0.655148
      vertex 1.87539 -2.5 0.655148
    endloop
  endfacet
  facet normal -0.50904 0 -0.860743
    outer loop
      vertex 1.87539 2.5 0.655148
      vertex 1.68614 -2.5 0.767073
      vertex 1.68614 2.5 0.767073
    endloop
  endfacet
  facet normal -0.338739 0 -0.940881
    outer loop
      vertex 1.08156 -2.5 1.0287
      vertex 1.28843 2.5 0.954217
      vertex 1.28843 -2.5 0.954217
    endloop
  endfacet
  facet normal -0.338739 0 -0.940881
    outer loop
      vertex 1.28843 2.5 0.954217
      vertex 1.08156 -2.5 1.0287
      vertex 1.08156 2.5 1.0287
    endloop
  endfacet
  facet normal -0.860742 0 -0.509041
    outer loop
      vertex 3.06707 -2.5 -0.613862
      vertex 2.95515 2.5 -0.424605
      vertex 3.06707 2.5 -0.613862
    endloop
  endfacet
  facet normal -0.860742 -0 -0.509041
    outer loop
      vertex 2.95515 2.5 -0.424605
      vertex 3.06707 -2.5 -0.613862
      vertex 2.95515 -2.5 -0.424605
    endloop
  endfacet
  facet normal -0.975917 0 -0.218142
    outer loop
      vertex 3.438 -2.5 -1.64417
      vertex 3.39004 2.5 -1.42958
      vertex 3.438 2.5 -1.64417
    endloop
  endfacet
  facet normal -0.975917 -0 -0.218142
    outer loop
      vertex 3.39004 2.5 -1.42958
      vertex 3.438 -2.5 -1.64417
      vertex 3.39004 -2.5 -1.42958
    endloop
  endfacet
  facet normal -0.999507 0 0.0314103
    outer loop
      vertex 3.49371 -2.5 -2.5
      vertex 3.5 2.5 -2.3
      vertex 3.49371 2.5 -2.5
    endloop
  endfacet
  facet normal -0.999507 0 0.0314103
    outer loop
      vertex 3.5 2.5 -2.3
      vertex 3.49371 -2.5 -2.5
      vertex 3.5 -2.5 -2.3
    endloop
  endfacet
  facet normal 0.27899 0 -0.960294
    outer loop
      vertex -1.08156 -2.5 1.0287
      vertex -0.870414 2.5 1.09004
      vertex -0.870414 -2.5 1.09004
    endloop
  endfacet
  facet normal 0.27899 0 -0.960294
    outer loop
      vertex -0.870414 2.5 1.09004
      vertex -1.08156 -2.5 1.0287
      vertex -1.08156 2.5 1.0287
    endloop
  endfacet
  facet normal 0.917754 0 -0.397148
    outer loop
      vertex -3.16689 -2.5 -0.809772
      vertex -3.25422 2.5 -1.01156
      vertex -3.16689 2.5 -0.809772
    endloop
  endfacet
  facet normal 0.917754 0 -0.397148
    outer loop
      vertex -3.25422 2.5 -1.01156
      vertex -3.16689 -2.5 -0.809772
      vertex -3.25422 -2.5 -1.01156
    endloop
  endfacet
  facet normal 0.960294 0 -0.278991
    outer loop
      vertex -3.3287 -2.5 -1.21844
      vertex -3.39004 2.5 -1.42958
      vertex -3.3287 2.5 -1.21844
    endloop
  endfacet
  facet normal 0.960294 0 -0.278991
    outer loop
      vertex -3.39004 2.5 -1.42958
      vertex -3.3287 -2.5 -1.21844
      vertex -3.39004 -2.5 -1.42958
    endloop
  endfacet
  facet normal -0.0314111 0 -0.999507
    outer loop
      vertex 0 -2.5 1.2
      vertex 0.219767 2.5 1.19309
      vertex 0.219767 -2.5 1.19309
    endloop
  endfacet
  facet normal -0.0314111 0 -0.999507
    outer loop
      vertex 0.219767 2.5 1.19309
      vertex 0 -2.5 1.2
      vertex 0 2.5 1.2
    endloop
  endfacet
  facet normal -0.218147 0 -0.975916
    outer loop
      vertex 0.655834 -2.5 1.13801
      vertex 0.870414 2.5 1.09004
      vertex 0.870414 -2.5 1.09004
    endloop
  endfacet
  facet normal -0.218147 0 -0.975916
    outer loop
      vertex 0.870414 2.5 1.09004
      vertex 0.655834 -2.5 1.13801
      vertex 0.655834 2.5 1.13801
    endloop
  endfacet
  facet normal -0.562083 0 -0.827081
    outer loop
      vertex 1.87539 -2.5 0.655148
      vertex 2.05725 2.5 0.531559
      vertex 2.05725 -2.5 0.531559
    endloop
  endfacet
  facet normal -0.562083 0 -0.827081
    outer loop
      vertex 2.05725 2.5 0.531559
      vertex 1.87539 -2.5 0.655148
      vertex 1.87539 2.5 0.655148
    endloop
  endfacet
  facet normal -0.397148 0 -0.917754
    outer loop
      vertex 1.28843 -2.5 0.954217
      vertex 1.49023 2.5 0.866894
      vertex 1.49023 -2.5 0.866894
    endloop
  endfacet
  facet normal -0.397148 0 -0.917754
    outer loop
      vertex 1.49023 2.5 0.866894
      vertex 1.28843 -2.5 0.954217
      vertex 1.28843 2.5 0.954217
    endloop
  endfacet
  facet normal -0.987688 0 -0.156435
    outer loop
      vertex 3.4724 -2.5 -1.86133
      vertex 3.438 2.5 -1.64417
      vertex 3.4724 2.5 -1.86133
    endloop
  endfacet
  facet normal -0.987688 -0 -0.156435
    outer loop
      vertex 3.438 2.5 -1.64417
      vertex 3.4724 -2.5 -1.86133
      vertex 3.438 -2.5 -1.64417
    endloop
  endfacet
  facet normal -0.917754 0 -0.397148
    outer loop
      vertex 3.25422 -2.5 -1.01156
      vertex 3.16689 2.5 -0.809772
      vertex 3.25422 2.5 -1.01156
    endloop
  endfacet
  facet normal -0.917754 -0 -0.397148
    outer loop
      vertex 3.16689 2.5 -0.809772
      vertex 3.25422 -2.5 -1.01156
      vertex 3.16689 -2.5 -0.809772
    endloop
  endfacet
  facet normal 0.218147 0 -0.975916
    outer loop
      vertex -0.870414 -2.5 1.09004
      vertex -0.655834 2.5 1.13801
      vertex -0.655834 -2.5 1.13801
    endloop
  endfacet
  facet normal 0.218147 0 -0.975916
    outer loop
      vertex -0.655834 2.5 1.13801
      vertex -0.870414 -2.5 1.09004
      vertex -0.870414 2.5 1.09004
    endloop
  endfacet
  facet normal 0.612906 0 -0.790156
    outer loop
      vertex -2.23098 -2.5 0.396796
      vertex -2.05725 2.5 0.531559
      vertex -2.05725 -2.5 0.531559
    endloop
  endfacet
  facet normal 0.612906 0 -0.790156
    outer loop
      vertex -2.05725 2.5 0.531559
      vertex -2.23098 -2.5 0.396796
      vertex -2.23098 2.5 0.396796
    endloop
  endfacet
  facet normal 0.50904 0 -0.860743
    outer loop
      vertex -1.87539 -2.5 0.655148
      vertex -1.68614 2.5 0.767073
      vertex -1.68614 -2.5 0.767073
    endloop
  endfacet
  facet normal 0.50904 0 -0.860743
    outer loop
      vertex -1.68614 2.5 0.767073
      vertex -1.87539 -2.5 0.655148
      vertex -1.87539 2.5 0.655148
    endloop
  endfacet
  facet normal 0.45399 0 -0.891007
    outer loop
      vertex -1.68614 -2.5 0.767073
      vertex -1.49023 2.5 0.866894
      vertex -1.49023 -2.5 0.866894
    endloop
  endfacet
  facet normal 0.45399 0 -0.891007
    outer loop
      vertex -1.49023 2.5 0.866894
      vertex -1.68614 -2.5 0.767073
      vertex -1.68614 2.5 0.767073
    endloop
  endfacet
  facet normal 0.338739 0 -0.940881
    outer loop
      vertex -1.28843 -2.5 0.954217
      vertex -1.08156 2.5 1.0287
      vertex -1.08156 -2.5 1.0287
    endloop
  endfacet
  facet normal 0.338739 0 -0.940881
    outer loop
      vertex -1.08156 2.5 1.0287
      vertex -1.28843 -2.5 0.954217
      vertex -1.28843 2.5 0.954217
    endloop
  endfacet
  facet normal 0.891006 0 -0.453991
    outer loop
      vertex -3.06707 -2.5 -0.613862
      vertex -3.16689 2.5 -0.809772
      vertex -3.06707 2.5 -0.613862
    endloop
  endfacet
  facet normal 0.891006 0 -0.453991
    outer loop
      vertex -3.16689 2.5 -0.809772
      vertex -3.06707 -2.5 -0.613862
      vertex -3.16689 -2.5 -0.809772
    endloop
  endfacet
  facet normal 0.975917 0 -0.218142
    outer loop
      vertex -3.39004 -2.5 -1.42958
      vertex -3.438 2.5 -1.64417
      vertex -3.39004 2.5 -1.42958
    endloop
  endfacet
  facet normal 0.975917 0 -0.218142
    outer loop
      vertex -3.438 2.5 -1.64417
      vertex -3.39004 -2.5 -1.42958
      vertex -3.438 -2.5 -1.64417
    endloop
  endfacet
  facet normal -0.0941076 0 -0.995562
    outer loop
      vertex 0.219767 -2.5 1.19309
      vertex 0.438665 2.5 1.1724
      vertex 0.438665 -2.5 1.1724
    endloop
  endfacet
  facet normal -0.0941076 0 -0.995562
    outer loop
      vertex 0.438665 2.5 1.1724
      vertex 0.219767 -2.5 1.19309
      vertex 0.219767 2.5 1.19309
    endloop
  endfacet
  facet normal -0.27899 0 -0.960294
    outer loop
      vertex 0.870414 -2.5 1.09004
      vertex 1.08156 2.5 1.0287
      vertex 1.08156 -2.5 1.0287
    endloop
  endfacet
  facet normal -0.27899 0 -0.960294
    outer loop
      vertex 1.08156 2.5 1.0287
      vertex 0.870414 -2.5 1.09004
      vertex 0.870414 2.5 1.09004
    endloop
  endfacet
  facet normal -0.612906 0 -0.790156
    outer loop
      vertex 2.05725 -2.5 0.531559
      vertex 2.23098 2.5 0.396796
      vertex 2.23098 -2.5 0.396796
    endloop
  endfacet
  facet normal -0.612906 0 -0.790156
    outer loop
      vertex 2.23098 2.5 0.396796
      vertex 2.05725 -2.5 0.531559
      vertex 2.05725 2.5 0.531559
    endloop
  endfacet
  facet normal -0.45399 0 -0.891007
    outer loop
      vertex 1.49023 -2.5 0.866894
      vertex 1.68614 2.5 0.767073
      vertex 1.68614 -2.5 0.767073
    endloop
  endfacet
  facet normal -0.45399 0 -0.891007
    outer loop
      vertex 1.68614 2.5 0.767073
      vertex 1.49023 -2.5 0.866894
      vertex 1.49023 2.5 0.866894
    endloop
  endfacet
  facet normal -0.940881 0 -0.338737
    outer loop
      vertex 3.3287 -2.5 -1.21844
      vertex 3.25422 2.5 -1.01156
      vertex 3.3287 2.5 -1.21844
    endloop
  endfacet
  facet normal -0.940881 -0 -0.338737
    outer loop
      vertex 3.25422 2.5 -1.01156
      vertex 3.3287 -2.5 -1.21844
      vertex 3.25422 -2.5 -1.01156
    endloop
  endfacet
  facet normal -0.750111 0 -0.661312
    outer loop
      vertex 2.6968 -2.5 -0.0690155
      vertex 2.55139 2.5 0.0959148
      vertex 2.6968 2.5 -0.0690155
    endloop
  endfacet
  facet normal -0.750111 -0 -0.661312
    outer loop
      vertex 2.55139 2.5 0.0959148
      vertex 2.6968 -2.5 -0.0690155
      vertex 2.55139 -2.5 0.0959148
    endloop
  endfacet
  facet normal -0.827081 0 -0.562082
    outer loop
      vertex 2.95515 -2.5 -0.424605
      vertex 2.83156 2.5 -0.242751
      vertex 2.95515 2.5 -0.424605
    endloop
  endfacet
  facet normal -0.827081 -0 -0.562082
    outer loop
      vertex 2.83156 2.5 -0.242751
      vertex 2.95515 -2.5 -0.424605
      vertex 2.83156 -2.5 -0.242751
    endloop
  endfacet
  facet normal -0.960294 0 -0.278991
    outer loop
      vertex 3.39004 -2.5 -1.42958
      vertex 3.3287 2.5 -1.21844
      vertex 3.39004 2.5 -1.42958
    endloop
  endfacet
  facet normal -0.960294 -0 -0.278991
    outer loop
      vertex 3.3287 2.5 -1.21844
      vertex 3.39004 -2.5 -1.42958
      vertex 3.3287 -2.5 -1.21844
    endloop
  endfacet
  facet normal 0.397148 0 -0.917754
    outer loop
      vertex -1.49023 -2.5 0.866894
      vertex -1.28843 2.5 0.954217
      vertex -1.28843 -2.5 0.954217
    endloop
  endfacet
  facet normal 0.397148 0 -0.917754
    outer loop
      vertex -1.28843 2.5 0.954217
      vertex -1.49023 -2.5 0.866894
      vertex -1.49023 2.5 0.866894
    endloop
  endfacet
  facet normal -0.790154 0 -0.612909
    outer loop
      vertex 2.83156 -2.5 -0.242751
      vertex 2.6968 2.5 -0.0690155
      vertex 2.83156 2.5 -0.242751
    endloop
  endfacet
  facet normal -0.790154 -0 -0.612909
    outer loop
      vertex 2.6968 2.5 -0.0690155
      vertex 2.83156 -2.5 -0.242751
      vertex 2.6968 -2.5 -0.0690155
    endloop
  endfacet
  facet normal -0.707105 0 -0.707109
    outer loop
      vertex 2.39591 -2.5 0.25139
      vertex 2.55139 2.5 0.0959148
      vertex 2.55139 -2.5 0.0959148
    endloop
  endfacet
  facet normal -0.707105 0 -0.707109
    outer loop
      vertex 2.55139 2.5 0.0959148
      vertex 2.39591 -2.5 0.25139
      vertex 2.39591 2.5 0.25139
    endloop
  endfacet
  facet normal -0.661315 0 -0.750109
    outer loop
      vertex 2.23098 -2.5 0.396796
      vertex 2.39591 2.5 0.25139
      vertex 2.39591 -2.5 0.25139
    endloop
  endfacet
  facet normal -0.661315 0 -0.750109
    outer loop
      vertex 2.39591 2.5 0.25139
      vertex 2.23098 -2.5 0.396796
      vertex 2.23098 2.5 0.396796
    endloop
  endfacet
  facet normal 0.562083 0 -0.827081
    outer loop
      vertex -2.05725 -2.5 0.531559
      vertex -1.87539 2.5 0.655148
      vertex -1.87539 -2.5 0.655148
    endloop
  endfacet
  facet normal 0.562083 0 -0.827081
    outer loop
      vertex -1.87539 2.5 0.655148
      vertex -2.05725 -2.5 0.531559
      vertex -2.05725 2.5 0.531559
    endloop
  endfacet
  facet normal 0.707105 0 -0.707109
    outer loop
      vertex -2.55139 -2.5 0.0959148
      vertex -2.39591 2.5 0.25139
      vertex -2.39591 -2.5 0.25139
    endloop
  endfacet
  facet normal 0.707105 0 -0.707109
    outer loop
      vertex -2.39591 2.5 0.25139
      vertex -2.55139 -2.5 0.0959148
      vertex -2.55139 2.5 0.0959148
    endloop
  endfacet
  facet normal 0.860742 0 -0.509041
    outer loop
      vertex -2.95515 -2.5 -0.424605
      vertex -3.06707 2.5 -0.613862
      vertex -2.95515 2.5 -0.424605
    endloop
  endfacet
  facet normal 0.860742 0 -0.509041
    outer loop
      vertex -3.06707 2.5 -0.613862
      vertex -2.95515 -2.5 -0.424605
      vertex -3.06707 -2.5 -0.613862
    endloop
  endfacet
  facet normal 0.750111 0 -0.661312
    outer loop
      vertex -2.55139 -2.5 0.0959148
      vertex -2.6968 2.5 -0.0690155
      vertex -2.55139 2.5 0.0959148
    endloop
  endfacet
  facet normal 0.750111 0 -0.661312
    outer loop
      vertex -2.6968 2.5 -0.0690155
      vertex -2.55139 -2.5 0.0959148
      vertex -2.6968 -2.5 -0.0690155
    endloop
  endfacet
  facet normal 0.790154 0 -0.612909
    outer loop
      vertex -2.6968 -2.5 -0.0690155
      vertex -2.83156 2.5 -0.242751
      vertex -2.6968 2.5 -0.0690155
    endloop
  endfacet
  facet normal 0.790154 0 -0.612909
    outer loop
      vertex -2.83156 2.5 -0.242751
      vertex -2.6968 -2.5 -0.0690155
      vertex -2.83156 -2.5 -0.242751
    endloop
  endfacet
  facet normal 0.661315 0 -0.750109
    outer loop
      vertex -2.39591 -2.5 0.25139
      vertex -2.23098 2.5 0.396796
      vertex -2.23098 -2.5 0.396796
    endloop
  endfacet
  facet normal 0.661315 0 -0.750109
    outer loop
      vertex -2.23098 2.5 0.396796
      vertex -2.39591 -2.5 0.25139
      vertex -2.39591 2.5 0.25139
    endloop
  endfacet
endsolid OpenSCAD_Model
