solid OpenSCAD_Model
  facet normal -1 0 0
    outer loop
      vertex -5 -2.5 -2.5
      vertex -5 2.5 2.5
      vertex -5 2.5 -2.5
    endloop
  endfacet
  facet normal -1 -0 0
    outer loop
      vertex -5 2.5 2.5
      vertex -5 -2.5 -2.5
      vertex -5 -2.5 2.5
    endloop
  endfacet
  facet normal -0 0 1
    outer loop
      vertex -5 2.5 2.5
      vertex 5 -2.5 2.5
      vertex 5 2.5 2.5
    endloop
  endfacet
  facet normal 0 0 1
    outer loop
      vertex 5 -2.5 2.5
      vertex -5 2.5 2.5
      vertex -5 -2.5 2.5
    endloop
  endfacet
  facet normal 1 -0 0
    outer loop
      vertex 5 -2.5 2.5
      vertex 5 2.5 -2.5
      vertex 5 2.5 2.5
    endloop
  endfacet
  facet normal 1 0 0
    outer loop
      vertex 5 2.5 -2.5
      vertex 5 -2.5 2.5
      vertex 5 -2.5 -2.5
    endloop
  endfacet
  facet normal 0 1 0
    outer loop
      vertex 5 2.5 2.5
      vertex 0 2.5 1.1
      vertex -5 2.5 2.5
    endloop
  endfacet
  facet normal 0 1 0
    outer loop
      vertex 5 2.5 2.5
      vertex 0.251162 2.5 1.09211
      vertex 0 2.5 1.1
    endloop
  endfacet
  facet normal 0 1 0
    outer loop
      vertex 5 2.5 2.5
      vertex 0.501332 2.5 1.06846
      vertex 0.251162 2.5 1.09211
    endloop
  endfacet
  facet normal 0 1 0
    outer loop
      vertex 5 2.5 2.5
      vertex 0.749525 2.5 1.02915
      vertex 0.501332 2.5 1.06846
    endloop
  endfacet
  facet normal 0 1 0
    outer loop
      vertex 5 2.5 2.5
      vertex 0.994759 2.5 0.974332
      vertex 0.749525 2.5 1.02915
    endloop
  endfacet
  facet normal 0 1 0
    outer loop
      vertex 5 2.5 2.5
      vertex 1.23607 2.5 0.904225
      vertex 0.994759 2.5 0.974332
    endloop
  endfacet
  facet normal 0 1 0
    outer loop
      vertex 5 2.5 2.5
      vertex 1.4725 2.5 0.819105
      vertex 1.23607 2.5 0.904225
    endloop
  endfacet
  facet normal 0 1 0
    outer loop
      vertex 5 2.5 2.5
      vertex 1.70312 2.5 0.719308
      vertex 1.4725 2.5 0.819105
    endloop
  endfacet
  facet normal 0 1 0
    outer loop
      vertex 5 2.5 2.5
      vertex 1.92701 2.5 0.605227
      vertex 1.70312 2.5 0.719308
    endloop
  endfacet
  facet normal 0 1 0
    outer loop
      vertex 5 2.5 2.5
      vertex 2.14331 2.5 0.477311
      vertex 1.92701 2.5 0.605227
    endloop
  endfacet
  facet normal 0 1 0
    outer loop
      vertex 5 2.5 2.5
      vertex 2.35114 2.5 0.336067
      vertex 2.14331 2.5 0.477311
    endloop
  endfacet
  facet normal 0 1 0
    outer loop
      vertex 5 2.5 2.5
      vertex 2.5497 2.5 0.182053
      vertex 2.35114 2.5 0.336067
    endloop
  endfacet
  facet normal 0 1 0
    outer loop
      vertex 5 2.5 2.5
      vertex 2.73819 2.5 0.0158739
      vertex 2.5497 2.5 0.182053
    endloop
  endfacet
  facet normal 0 1 0
    outer loop
      vertex 5 2.5 2.5
      vertex 2.91587 2.5 -0.161811
      vertex 2.73819 2.5 0.0158739
    endloop
  endfacet
  facet normal 0 1 0
    outer loop
      vertex 5 2.5 2.5
      vertex 3.08205 2.5 -0.350304
      vertex 2.91587 2.5 -0.161811
    endloop
  endfacet
  facet normal 0 1 0
    outer loop
      vertex 5 2.5 2.5
      vertex 3.23607 2.5 -0.548859
      vertex 3.08205 2.5 -0.350304
    endloop
  endfacet
  facet normal 0 1 0
    outer loop
      vertex 5 2.5 2.5
      vertex 3.37731 2.5 -0.756692
      vertex 3.23607 2.5 -0.548859
    endloop
  endfacet
  facet normal 0 1 0
    outer loop
      vertex 5 2.5 2.5
      vertex 3.50523 2.5 -0.972985
      vertex 3.37731 2.5 -0.756692
    endloop
  endfacet
  facet normal 0 1 0
    outer loop
      vertex 5 2.5 2.5
      vertex 3.61931 2.5 -1.19688
      vertex 3.50523 2.5 -0.972985
    endloop
  endfacet
  facet normal 0 1 -0
    outer loop
      vertex 5 2.5 -2.5
      vertex 3.61931 2.5 -1.19688
      vertex 5 2.5 2.5
    endloop
  endfacet
  facet normal 0 1 0
    outer loop
      vertex 3.61931 2.5 -1.19688
      vertex 5 2.5 -2.5
      vertex 3.71911 2.5 -1.4275
    endloop
  endfacet
  facet normal 0 1 0
    outer loop
      vertex 3.71911 2.5 -1.4275
      vertex 5 2.5 -2.5
      vertex 3.80423 2.5 -1.66393
    endloop
  endfacet
  facet normal 0 1 0
    outer loop
      vertex 3.80423 2.5 -1.66393
      vertex 5 2.5 -2.5
      vertex 3.87433 2.5 -1.90524
    endloop
  endfacet
  facet normal 0 1 0
    outer loop
      vertex 3.87433 2.5 -1.90524
      vertex 5 2.5 -2.5
      vertex 3.92915 2.5 -2.15047
    endloop
  endfacet
  facet normal 0 1 0
    outer loop
      vertex 3.92915 2.5 -2.15047
      vertex 5 2.5 -2.5
      vertex 3.96846 2.5 -2.39867
    endloop
  endfacet
  facet normal 0 1 0
    outer loop
      vertex 3.96846 2.5 -2.39867
      vertex 5 2.5 -2.5
      vertex 3.97804 2.5 -2.5
    endloop
  endfacet
  facet normal 0 1 -0
    outer loop
      vertex -0.251162 2.5 1.09211
      vertex -5 2.5 2.5
      vertex 0 2.5 1.1
    endloop
  endfacet
  facet normal 0 1 -0
    outer loop
      vertex -0.501332 2.5 1.06846
      vertex -5 2.5 2.5
      vertex -0.251162 2.5 1.09211
    endloop
  endfacet
  facet normal 0 1 -0
    outer loop
      vertex -0.749525 2.5 1.02915
      vertex -5 2.5 2.5
      vertex -0.501332 2.5 1.06846
    endloop
  endfacet
  facet normal 0 1 -0
    outer loop
      vertex -0.994759 2.5 0.974332
      vertex -5 2.5 2.5
      vertex -0.749525 2.5 1.02915
    endloop
  endfacet
  facet normal 0 1 -0
    outer loop
      vertex -1.23607 2.5 0.904225
      vertex -5 2.5 2.5
      vertex -0.994759 2.5 0.974332
    endloop
  endfacet
  facet normal 0 1 -0
    outer loop
      vertex -1.4725 2.5 0.819105
      vertex -5 2.5 2.5
      vertex -1.23607 2.5 0.904225
    endloop
  endfacet
  facet normal 0 1 -0
    outer loop
      vertex -1.70312 2.5 0.719308
      vertex -5 2.5 2.5
      vertex -1.4725 2.5 0.819105
    endloop
  endfacet
  facet normal 0 1 -0
    outer loop
      vertex -1.92701 2.5 0.605227
      vertex -5 2.5 2.5
      vertex -1.70312 2.5 0.719308
    endloop
  endfacet
  facet normal 0 1 -0
    outer loop
      vertex -2.14331 2.5 0.477311
      vertex -5 2.5 2.5
      vertex -1.92701 2.5 0.605227
    endloop
  endfacet
  facet normal 0 1 -0
    outer loop
      vertex -2.35114 2.5 0.336067
      vertex -5 2.5 2.5
      vertex -2.14331 2.5 0.477311
    endloop
  endfacet
  facet normal 0 1 -0
    outer loop
      vertex -2.5497 2.5 0.182053
      vertex -5 2.5 2.5
      vertex -2.35114 2.5 0.336067
    endloop
  endfacet
  facet normal 0 1 -0
    outer loop
      vertex -2.73819 2.5 0.0158739
      vertex -5 2.5 2.5
      vertex -2.5497 2.5 0.182053
    endloop
  endfacet
  facet normal 0 1 -0
    outer loop
      vertex -2.91587 2.5 -0.161811
      vertex -5 2.5 2.5
      vertex -2.73819 2.5 0.0158739
    endloop
  endfacet
  facet normal 0 1 -0
    outer loop
      vertex -3.08205 2.5 -0.350304
      vertex -5 2.5 2.5
      vertex -2.91587 2.5 -0.161811
    endloop
  endfacet
  facet normal 0 1 -0
    outer loop
      vertex -3.23607 2.5 -0.548859
      vertex -5 2.5 2.5
      vertex -3.08205 2.5 -0.350304
    endloop
  endfacet
  facet normal 0 1 -0
    outer loop
      vertex -3.37731 2.5 -0.756692
      vertex -5 2.5 2.5
      vertex -3.23607 2.5 -0.548859
    endloop
  endfacet
  facet normal 0 1 -0
    outer loop
      vertex -3.50523 2.5 -0.972985
      vertex -5 2.5 2.5
      vertex -3.37731 2.5 -0.756692
    endloop
  endfacet
  facet normal 0 1 -0
    outer loop
      vertex -3.61931 2.5 -1.19688
      vertex -5 2.5 2.5
      vertex -3.50523 2.5 -0.972985
    endloop
  endfacet
  facet normal 0 1 0
    outer loop
      vertex -5 2.5 -2.5
      vertex -3.61931 2.5 -1.19688
      vertex -3.71911 2.5 -1.4275
    endloop
  endfacet
  facet normal 0 1 0
    outer loop
      vertex -5 2.5 -2.5
      vertex -3.71911 2.5 -1.4275
      vertex -3.80423 2.5 -1.66393
    endloop
  endfacet
  facet normal 0 1 0
    outer loop
      vertex -5 2.5 -2.5
      vertex -3.80423 2.5 -1.66393
      vertex -3.87433 2.5 -1.90524
    endloop
  endfacet
  facet normal 0 1 0
    outer loop
      vertex -5 2.5 -2.5
      vertex -3.87433 2.5 -1.90524
      vertex -3.92915 2.5 -2.15047
    endloop
  endfacet
  facet normal 0 1 0
    outer loop
      vertex -5 2.5 -2.5
      vertex -3.92915 2.5 -2.15047
      vertex -3.96846 2.5 -2.39867
    endloop
  endfacet
  facet normal 0 1 0
    outer loop
      vertex -5 2.5 -2.5
      vertex -3.96846 2.5 -2.39867
      vertex -3.97804 2.5 -2.5
    endloop
  endfacet
  facet normal 0 1 0
    outer loop
      vertex -3.61931 2.5 -1.19688
      vertex -5 2.5 -2.5
      vertex -5 2.5 2.5
    endloop
  endfacet
  facet normal 0 0 -1
    outer loop
      vertex -5 -2.5 -2.5
      vertex -3.97804 2.5 -2.5
      vertex -3.97804 -2.5 -2.5
    endloop
  endfacet
  facet normal -0 0 -1
    outer loop
      vertex -3.97804 2.5 -2.5
      vertex -5 -2.5 -2.5
      vertex -5 2.5 -2.5
    endloop
  endfacet
  facet normal 0 0 -1
    outer loop
      vertex 3.97804 -2.5 -2.5
      vertex 5 2.5 -2.5
      vertex 5 -2.5 -2.5
    endloop
  endfacet
  facet normal -0 0 -1
    outer loop
      vertex 5 2.5 -2.5
      vertex 3.97804 -2.5 -2.5
      vertex 3.97804 2.5 -2.5
    endloop
  endfacet
  facet normal 0 -1 0
    outer loop
      vertex -5 -2.5 2.5
      vertex 0 -2.5 1.1
      vertex 5 -2.5 2.5
    endloop
  endfacet
  facet normal 0 -1 0
    outer loop
      vertex -5 -2.5 2.5
      vertex -0.251162 -2.5 1.09211
      vertex 0 -2.5 1.1
    endloop
  endfacet
  facet normal 0 -1 0
    outer loop
      vertex -5 -2.5 2.5
      vertex -0.501332 -2.5 1.06846
      vertex -0.251162 -2.5 1.09211
    endloop
  endfacet
  facet normal 0 -1 0
    outer loop
      vertex -5 -2.5 2.5
      vertex -0.749525 -2.5 1.02915
      vertex -0.501332 -2.5 1.06846
    endloop
  endfacet
  facet normal 0 -1 0
    outer loop
      vertex -5 -2.5 2.5
      vertex -0.994759 -2.5 0.974332
      vertex -0.749525 -2.5 1.02915
    endloop
  endfacet
  facet normal 0 -1 0
    outer loop
      vertex -5 -2.5 2.5
      vertex -1.23607 -2.5 0.904225
      vertex -0.994759 -2.5 0.974332
    endloop
  endfacet
  facet normal 0 -1 0
    outer loop
      vertex -5 -2.5 2.5
      vertex -1.4725 -2.5 0.819105
      vertex -1.23607 -2.5 0.904225
    endloop
  endfacet
  facet normal 0 -1 0
    outer loop
      vertex -5 -2.5 2.5
      vertex -1.70312 -2.5 0.719308
      vertex -1.4725 -2.5 0.819105
    endloop
  endfacet
  facet normal 0 -1 0
    outer loop
      vertex -5 -2.5 2.5
      vertex -1.92701 -2.5 0.605227
      vertex -1.70312 -2.5 0.719308
    endloop
  endfacet
  facet normal 0 -1 0
    outer loop
      vertex -5 -2.5 2.5
      vertex -2.14331 -2.5 0.477311
      vertex -1.92701 -2.5 0.605227
    endloop
  endfacet
  facet normal 0 -1 0
    outer loop
      vertex -5 -2.5 2.5
      vertex -2.35114 -2.5 0.336067
      vertex -2.14331 -2.5 0.477311
    endloop
  endfacet
  facet normal 0 -1 0
    outer loop
      vertex -5 -2.5 2.5
      vertex -2.5497 -2.5 0.182053
      vertex -2.35114 -2.5 0.336067
    endloop
  endfacet
  facet normal 0 -1 0
    outer loop
      vertex -5 -2.5 2.5
      vertex -2.73819 -2.5 0.0158739
      vertex -2.5497 -2.5 0.182053
    endloop
  endfacet
  facet normal 0 -1 0
    outer loop
      vertex -5 -2.5 2.5
      vertex -2.91587 -2.5 -0.161811
      vertex -2.73819 -2.5 0.0158739
    endloop
  endfacet
  facet normal 0 -1 0
    outer loop
      vertex -5 -2.5 2.5
      vertex -3.08205 -2.5 -0.350304
      vertex -2.91587 -2.5 -0.161811
    endloop
  endfacet
  facet normal 0 -1 0
    outer loop
      vertex -5 -2.5 2.5
      vertex -3.23607 -2.5 -0.548859
      vertex -3.08205 -2.5 -0.350304
    endloop
  endfacet
  facet normal 0 -1 0
    outer loop
      vertex -5 -2.5 2.5
      vertex -3.37731 -2.5 -0.756692
      vertex -3.23607 -2.5 -0.548859
    endloop
  endfacet
  facet normal 0 -1 0
    outer loop
      vertex -5 -2.5 2.5
      vertex -3.50523 -2.5 -0.972985
      vertex -3.37731 -2.5 -0.756692
    endloop
  endfacet
  facet normal 0 -1 0
    outer loop
      vertex -5 -2.5 2.5
      vertex -3.61931 -2.5 -1.19688
      vertex -3.50523 -2.5 -0.972985
    endloop
  endfacet
  facet normal 0 -1 0
    outer loop
      vertex -5 -2.5 -2.5
      vertex -3.61931 -2.5 -1.19688
      vertex -5 -2.5 2.5
    endloop
  endfacet
  facet normal 0 -1 0
    outer loop
      vertex -3.61931 -2.5 -1.19688
      vertex -5 -2.5 -2.5
      vertex -3.71911 -2.5 -1.4275
    endloop
  endfacet
  facet normal 0 -1 0
    outer loop
      vertex -3.71911 -2.5 -1.4275
      vertex -5 -2.5 -2.5
      vertex -3.80423 -2.5 -1.66393
    endloop
  endfacet
  facet normal 0 -1 0
    outer loop
      vertex -3.80423 -2.5 -1.66393
      vertex -5 -2.5 -2.5
      vertex -3.87433 -2.5 -1.90524
    endloop
  endfacet
  facet normal 0 -1 0
    outer loop
      vertex -3.87433 -2.5 -1.90524
      vertex -5 -2.5 -2.5
      vertex -3.92915 -2.5 -2.15047
    endloop
  endfacet
  facet normal 0 -1 0
    outer loop
      vertex -3.92915 -2.5 -2.15047
      vertex -5 -2.5 -2.5
      vertex -3.96846 -2.5 -2.39867
    endloop
  endfacet
  facet normal 0 -1 0
    outer loop
      vertex -3.96846 -2.5 -2.39867
      vertex -5 -2.5 -2.5
      vertex -3.97804 -2.5 -2.5
    endloop
  endfacet
  facet normal 0 -1 0
    outer loop
      vertex 0.251162 -2.5 1.09211
      vertex 5 -2.5 2.5
      vertex 0 -2.5 1.1
    endloop
  endfacet
  facet normal 0 -1 0
    outer loop
      vertex 0.501332 -2.5 1.06846
      vertex 5 -2.5 2.5
      vertex 0.251162 -2.5 1.09211
    endloop
  endfacet
  facet normal 0 -1 0
    outer loop
      vertex 0.749525 -2.5 1.02915
      vertex 5 -2.5 2.5
      vertex 0.501332 -2.5 1.06846
    endloop
  endfacet
  facet normal 0 -1 0
    outer loop
      vertex 0.994759 -2.5 0.974332
      vertex 5 -2.5 2.5
      vertex 0.749525 -2.5 1.02915
    endloop
  endfacet
  facet normal 0 -1 0
    outer loop
      vertex 1.23607 -2.5 0.904225
      vertex 5 -2.5 2.5
      vertex 0.994759 -2.5 0.974332
    endloop
  endfacet
  facet normal 0 -1 0
    outer loop
      vertex 1.4725 -2.5 0.819105
      vertex 5 -2.5 2.5
      vertex 1.23607 -2.5 0.904225
    endloop
  endfacet
  facet normal 0 -1 0
    outer loop
      vertex 1.70312 -2.5 0.719308
      vertex 5 -2.5 2.5
      vertex 1.4725 -2.5 0.819105
    endloop
  endfacet
  facet normal 0 -1 0
    outer loop
      vertex 1.92701 -2.5 0.605227
      vertex 5 -2.5 2.5
      vertex 1.70312 -2.5 0.719308
    endloop
  endfacet
  facet normal 0 -1 0
    outer loop
      vertex 2.14331 -2.5 0.477311
      vertex 5 -2.5 2.5
      vertex 1.92701 -2.5 0.605227
    endloop
  endfacet
  facet normal 0 -1 0
    outer loop
      vertex 2.35114 -2.5 0.336067
      vertex 5 -2.5 2.5
      vertex 2.14331 -2.5 0.477311
    endloop
  endfacet
  facet normal 0 -1 0
    outer loop
      vertex 2.5497 -2.5 0.182053
      vertex 5 -2.5 2.5
      vertex 2.35114 -2.5 0.336067
    endloop
  endfacet
  facet normal 0 -1 0
    outer loop
      vertex 2.73819 -2.5 0.0158739
      vertex 5 -2.5 2.5
      vertex 2.5497 -2.5 0.182053
    endloop
  endfacet
  facet normal 0 -1 0
    outer loop
      vertex 2.91587 -2.5 -0.161811
      vertex 5 -2.5 2.5
      vertex 2.73819 -2.5 0.0158739
    endloop
  endfacet
  facet normal 0 -1 0
    outer loop
      vertex 3.08205 -2.5 -0.350304
      vertex 5 -2.5 2.5
      vertex 2.91587 -2.5 -0.161811
    endloop
  endfacet
  facet normal 0 -1 0
    outer loop
      vertex 3.23607 -2.5 -0.548859
      vertex 5 -2.5 2.5
      vertex 3.08205 -2.5 -0.350304
    endloop
  endfacet
  facet normal 0 -1 0
    outer loop
      vertex 3.37731 -2.5 -0.756692
      vertex 5 -2.5 2.5
      vertex 3.23607 -2.5 -0.548859
    endloop
  endfacet
  facet normal 0 -1 0
    outer loop
      vertex 3.50523 -2.5 -0.972985
      vertex 5 -2.5 2.5
      vertex 3.37731 -2.5 -0.756692
    endloop
  endfacet
  facet normal 0 -1 0
    outer loop
      vertex 3.61931 -2.5 -1.19688
      vertex 5 -2.5 2.5
      vertex 3.50523 -2.5 -0.972985
    endloop
  endfacet
  facet normal 0 -1 0
    outer loop
      vertex 5 -2.5 -2.5
      vertex 3.61931 -2.5 -1.19688
      vertex 3.71911 -2.5 -1.4275
    endloop
  endfacet
  facet normal 0 -1 0
    outer loop
      vertex 5 -2.5 -2.5
      vertex 3.71911 -2.5 -1.4275
      vertex 3.80423 -2.5 -1.66393
    endloop
  endfacet
  facet normal 0 -1 0
    outer loop
      vertex 5 -2.5 -2.5
      vertex 3.80423 -2.5 -1.66393
      vertex 3.87433 -2.5 -1.90524
    endloop
  endfacet
  facet normal 0 -1 0
    outer loop
      vertex 5 -2.5 -2.5
      vertex 3.87433 -2.5 -1.90524
      vertex 3.92915 -2.5 -2.15047
    endloop
  endfacet
  facet normal 0 -1 0
    outer loop
      vertex 5 -2.5 -2.5
      vertex 3.92915 -2.5 -2.15047
      vertex 3.96846 -2.5 -2.39867
    endloop
  endfacet
  facet normal 0 -1 0
    outer loop
      vertex 5 -2.5 -2.5
      vertex 3.96846 -2.5 -2.39867
      vertex 3.97804 -2.5 -2.5
    endloop
  endfacet
  facet normal 0 -1 0
    outer loop
      vertex 3.61931 -2.5 -1.19688
      vertex 5 -2.5 -2.5
      vertex 5 -2.5 2.5
    endloop
  endfacet
  facet normal 0.987688 0 -0.156434
    outer loop
      vertex -3.92915 -2.5 -2.15047
      vertex -3.96846 2.5 -2.39867
      vertex -3.92915 2.5 -2.15047
    endloop
  endfacet
  facet normal 0.987688 0 -0.156434
    outer loop
      vertex -3.96846 2.5 -2.39867
      vertex -3.92915 -2.5 -2.15047
      vertex -3.96846 -2.5 -2.39867
    endloop
  endfacet
  facet normal 0.995562 0 -0.0941092
    outer loop
      vertex -3.96846 -2.5 -2.39867
      vertex -3.97804 2.5 -2.5
      vertex -3.96846 2.5 -2.39867
    endloop
  endfacet
  facet normal 0.995562 0 -0.0941092
    outer loop
      vertex -3.97804 2.5 -2.5
      vertex -3.96846 -2.5 -2.39867
      vertex -3.97804 -2.5 -2.5
    endloop
  endfacet
  facet normal -0.975917 0 -0.218143
    outer loop
      vertex 3.92915 -2.5 -2.15047
      vertex 3.87433 2.5 -1.90524
      vertex 3.92915 2.5 -2.15047
    endloop
  endfacet
  facet normal -0.975917 -0 -0.218143
    outer loop
      vertex 3.87433 2.5 -1.90524
      vertex 3.92915 -2.5 -2.15047
      vertex 3.87433 -2.5 -1.90524
    endloop
  endfacet
  facet normal 0.397147 0 -0.917755
    outer loop
      vertex -1.70312 -2.5 0.719308
      vertex -1.4725 2.5 0.819105
      vertex -1.4725 -2.5 0.819105
    endloop
  endfacet
  facet normal 0.397147 0 -0.917755
    outer loop
      vertex -1.4725 2.5 0.819105
      vertex -1.70312 -2.5 0.719308
      vertex -1.70312 2.5 0.719308
    endloop
  endfacet
  facet normal 0.917754 0 -0.397149
    outer loop
      vertex -3.61931 -2.5 -1.19688
      vertex -3.71911 2.5 -1.4275
      vertex -3.61931 2.5 -1.19688
    endloop
  endfacet
  facet normal 0.917754 0 -0.397149
    outer loop
      vertex -3.71911 2.5 -1.4275
      vertex -3.61931 -2.5 -1.19688
      vertex -3.71911 -2.5 -1.4275
    endloop
  endfacet
  facet normal -0.917754 0 -0.397149
    outer loop
      vertex 3.71911 -2.5 -1.4275
      vertex 3.61931 2.5 -1.19688
      vertex 3.71911 2.5 -1.4275
    endloop
  endfacet
  facet normal -0.917754 -0 -0.397149
    outer loop
      vertex 3.61931 2.5 -1.19688
      vertex 3.71911 -2.5 -1.4275
      vertex 3.61931 -2.5 -1.19688
    endloop
  endfacet
  facet normal -0.707103 0 -0.707111
    outer loop
      vertex 2.73819 -2.5 0.0158739
      vertex 2.91587 2.5 -0.161811
      vertex 2.91587 -2.5 -0.161811
    endloop
  endfacet
  facet normal -0.707103 0 -0.707111
    outer loop
      vertex 2.91587 2.5 -0.161811
      vertex 2.73819 -2.5 0.0158739
      vertex 2.73819 2.5 0.0158739
    endloop
  endfacet
  facet normal -0.094109 0 -0.995562
    outer loop
      vertex 0.251162 -2.5 1.09211
      vertex 0.501332 2.5 1.06846
      vertex 0.501332 -2.5 1.06846
    endloop
  endfacet
  facet normal -0.094109 0 -0.995562
    outer loop
      vertex 0.501332 2.5 1.06846
      vertex 0.251162 -2.5 1.09211
      vertex 0.251162 2.5 1.09211
    endloop
  endfacet
  facet normal -0.509043 0 -0.860741
    outer loop
      vertex 1.92701 -2.5 0.605227
      vertex 2.14331 2.5 0.477311
      vertex 2.14331 -2.5 0.477311
    endloop
  endfacet
  facet normal -0.509043 0 -0.860741
    outer loop
      vertex 2.14331 2.5 0.477311
      vertex 1.92701 -2.5 0.605227
      vertex 1.92701 2.5 0.605227
    endloop
  endfacet
  facet normal 0.612908 0 -0.790154
    outer loop
      vertex -2.5497 -2.5 0.182053
      vertex -2.35114 2.5 0.336067
      vertex -2.35114 -2.5 0.336067
    endloop
  endfacet
  facet normal 0.612908 0 -0.790154
    outer loop
      vertex -2.35114 2.5 0.336067
      vertex -2.5497 -2.5 0.182053
      vertex -2.5497 2.5 0.182053
    endloop
  endfacet
  facet normal 0.094109 0 -0.995562
    outer loop
      vertex -0.501332 -2.5 1.06846
      vertex -0.251162 2.5 1.09211
      vertex -0.251162 -2.5 1.09211
    endloop
  endfacet
  facet normal 0.094109 0 -0.995562
    outer loop
      vertex -0.251162 2.5 1.09211
      vertex -0.501332 -2.5 1.06846
      vertex -0.501332 2.5 1.06846
    endloop
  endfacet
  facet normal 0.0314089 0 -0.999507
    outer loop
      vertex -0.251162 -2.5 1.09211
      vertex 0 2.5 1.1
      vertex 0 -2.5 1.1
    endloop
  endfacet
  facet normal 0.0314089 0 -0.999507
    outer loop
      vertex 0 2.5 1.1
      vertex -0.251162 -2.5 1.09211
      vertex -0.251162 2.5 1.09211
    endloop
  endfacet
  facet normal 0.960294 0 -0.278991
    outer loop
      vertex -3.80423 -2.5 -1.66393
      vertex -3.87433 2.5 -1.90524
      vertex -3.80423 2.5 -1.66393
    endloop
  endfacet
  facet normal 0.960294 0 -0.278991
    outer loop
      vertex -3.87433 2.5 -1.90524
      vertex -3.80423 -2.5 -1.66393
      vertex -3.87433 -2.5 -1.90524
    endloop
  endfacet
  facet normal -0.995562 0 -0.0941092
    outer loop
      vertex 3.97804 -2.5 -2.5
      vertex 3.96846 2.5 -2.39867
      vertex 3.97804 2.5 -2.5
    endloop
  endfacet
  facet normal -0.995562 -0 -0.0941092
    outer loop
      vertex 3.96846 2.5 -2.39867
      vertex 3.97804 -2.5 -2.5
      vertex 3.96846 -2.5 -2.39867
    endloop
  endfacet
  facet normal -0.987688 0 -0.156434
    outer loop
      vertex 3.96846 -2.5 -2.39867
      vertex 3.92915 2.5 -2.15047
      vertex 3.96846 2.5 -2.39867
    endloop
  endfacet
  facet normal -0.987688 -0 -0.156434
    outer loop
      vertex 3.92915 2.5 -2.15047
      vertex 3.96846 -2.5 -2.39867
      vertex 3.92915 -2.5 -2.15047
    endloop
  endfacet
  facet normal -0.827081 0 -0.562082
    outer loop
      vertex 3.37731 -2.5 -0.756692
      vertex 3.23607 2.5 -0.548859
      vertex 3.37731 2.5 -0.756692
    endloop
  endfacet
  facet normal -0.827081 -0 -0.562082
    outer loop
      vertex 3.23607 2.5 -0.548859
      vertex 3.37731 -2.5 -0.756692
      vertex 3.23607 -2.5 -0.548859
    endloop
  endfacet
  facet normal -0.940881 0 -0.338738
    outer loop
      vertex 3.80423 -2.5 -1.66393
      vertex 3.71911 2.5 -1.4275
      vertex 3.80423 2.5 -1.66393
    endloop
  endfacet
  facet normal -0.940881 -0 -0.338738
    outer loop
      vertex 3.71911 2.5 -1.4275
      vertex 3.80423 -2.5 -1.66393
      vertex 3.71911 -2.5 -1.4275
    endloop
  endfacet
  facet normal -0.750113 0 -0.66131
    outer loop
      vertex 3.08205 -2.5 -0.350304
      vertex 2.91587 2.5 -0.161811
      vertex 3.08205 2.5 -0.350304
    endloop
  endfacet
  facet normal -0.750113 -0 -0.66131
    outer loop
      vertex 2.91587 2.5 -0.161811
      vertex 3.08205 -2.5 -0.350304
      vertex 2.91587 -2.5 -0.161811
    endloop
  endfacet
  facet normal -0.790154 0 -0.612908
    outer loop
      vertex 3.23607 -2.5 -0.548859
      vertex 3.08205 2.5 -0.350304
      vertex 3.23607 2.5 -0.548859
    endloop
  endfacet
  facet normal -0.790154 -0 -0.612908
    outer loop
      vertex 3.08205 2.5 -0.350304
      vertex 3.23607 -2.5 -0.548859
      vertex 3.08205 -2.5 -0.350304
    endloop
  endfacet
  facet normal -0.612908 0 -0.790154
    outer loop
      vertex 2.35114 -2.5 0.336067
      vertex 2.5497 2.5 0.182053
      vertex 2.5497 -2.5 0.182053
    endloop
  endfacet
  facet normal -0.612908 0 -0.790154
    outer loop
      vertex 2.5497 2.5 0.182053
      vertex 2.35114 -2.5 0.336067
      vertex 2.35114 2.5 0.336067
    endloop
  endfacet
  facet normal -0.661312 0 -0.750111
    outer loop
      vertex 2.5497 -2.5 0.182053
      vertex 2.73819 2.5 0.0158739
      vertex 2.73819 -2.5 0.0158739
    endloop
  endfacet
  facet normal -0.661312 0 -0.750111
    outer loop
      vertex 2.73819 2.5 0.0158739
      vertex 2.5497 -2.5 0.182053
      vertex 2.5497 2.5 0.182053
    endloop
  endfacet
  facet normal -0.27899 0 -0.960294
    outer loop
      vertex 0.994759 -2.5 0.974332
      vertex 1.23607 2.5 0.904225
      vertex 1.23607 -2.5 0.904225
    endloop
  endfacet
  facet normal -0.27899 0 -0.960294
    outer loop
      vertex 1.23607 2.5 0.904225
      vertex 0.994759 -2.5 0.974332
      vertex 0.994759 2.5 0.974332
    endloop
  endfacet
  facet normal -0.156437 0 -0.987688
    outer loop
      vertex 0.501332 -2.5 1.06846
      vertex 0.749525 2.5 1.02915
      vertex 0.749525 -2.5 1.02915
    endloop
  endfacet
  facet normal -0.156437 0 -0.987688
    outer loop
      vertex 0.749525 2.5 1.02915
      vertex 0.501332 -2.5 1.06846
      vertex 0.501332 2.5 1.06846
    endloop
  endfacet
  facet normal -0.562083 0 -0.827081
    outer loop
      vertex 2.14331 -2.5 0.477311
      vertex 2.35114 2.5 0.336067
      vertex 2.35114 -2.5 0.336067
    endloop
  endfacet
  facet normal -0.562083 0 -0.827081
    outer loop
      vertex 2.35114 2.5 0.336067
      vertex 2.14331 -2.5 0.477311
      vertex 2.14331 2.5 0.477311
    endloop
  endfacet
  facet normal -0.45399 0 -0.891007
    outer loop
      vertex 1.70312 -2.5 0.719308
      vertex 1.92701 2.5 0.605227
      vertex 1.92701 -2.5 0.605227
    endloop
  endfacet
  facet normal -0.45399 0 -0.891007
    outer loop
      vertex 1.92701 2.5 0.605227
      vertex 1.70312 -2.5 0.719308
      vertex 1.70312 2.5 0.719308
    endloop
  endfacet
  facet normal -0.338738 0 -0.940881
    outer loop
      vertex 1.23607 -2.5 0.904225
      vertex 1.4725 2.5 0.819105
      vertex 1.4725 -2.5 0.819105
    endloop
  endfacet
  facet normal -0.338738 0 -0.940881
    outer loop
      vertex 1.4725 2.5 0.819105
      vertex 1.23607 -2.5 0.904225
      vertex 1.23607 2.5 0.904225
    endloop
  endfacet
  facet normal 0.45399 0 -0.891007
    outer loop
      vertex -1.92701 -2.5 0.605227
      vertex -1.70312 2.5 0.719308
      vertex -1.70312 -2.5 0.719308
    endloop
  endfacet
  facet normal 0.45399 0 -0.891007
    outer loop
      vertex -1.70312 2.5 0.719308
      vertex -1.92701 -2.5 0.605227
      vertex -1.92701 2.5 0.605227
    endloop
  endfacet
  facet normal 0.562083 0 -0.827081
    outer loop
      vertex -2.35114 -2.5 0.336067
      vertex -2.14331 2.5 0.477311
      vertex -2.14331 -2.5 0.477311
    endloop
  endfacet
  facet normal 0.562083 0 -0.827081
    outer loop
      vertex -2.14331 2.5 0.477311
      vertex -2.35114 -2.5 0.336067
      vertex -2.35114 2.5 0.336067
    endloop
  endfacet
  facet normal 0.707103 0 -0.707111
    outer loop
      vertex -2.91587 -2.5 -0.161811
      vertex -2.73819 2.5 0.0158739
      vertex -2.73819 -2.5 0.0158739
    endloop
  endfacet
  facet normal 0.707103 0 -0.707111
    outer loop
      vertex -2.73819 2.5 0.0158739
      vertex -2.91587 -2.5 -0.161811
      vertex -2.91587 2.5 -0.161811
    endloop
  endfacet
  facet normal 0.338738 0 -0.940881
    outer loop
      vertex -1.4725 -2.5 0.819105
      vertex -1.23607 2.5 0.904225
      vertex -1.23607 -2.5 0.904225
    endloop
  endfacet
  facet normal 0.338738 0 -0.940881
    outer loop
      vertex -1.23607 2.5 0.904225
      vertex -1.4725 -2.5 0.819105
      vertex -1.4725 2.5 0.819105
    endloop
  endfacet
  facet normal 0.27899 0 -0.960294
    outer loop
      vertex -1.23607 -2.5 0.904225
      vertex -0.994759 2.5 0.974332
      vertex -0.994759 -2.5 0.974332
    endloop
  endfacet
  facet normal 0.27899 0 -0.960294
    outer loop
      vertex -0.994759 2.5 0.974332
      vertex -1.23607 -2.5 0.904225
      vertex -1.23607 2.5 0.904225
    endloop
  endfacet
  facet normal 0.790154 0 -0.612908
    outer loop
      vertex -3.08205 -2.5 -0.350304
      vertex -3.23607 2.5 -0.548859
      vertex -3.08205 2.5 -0.350304
    endloop
  endfacet
  facet normal 0.790154 0 -0.612908
    outer loop
      vertex -3.23607 2.5 -0.548859
      vertex -3.08205 -2.5 -0.350304
      vertex -3.23607 -2.5 -0.548859
    endloop
  endfacet
  facet normal 0.750113 0 -0.66131
    outer loop
      vertex -2.91587 -2.5 -0.161811
      vertex -3.08205 2.5 -0.350304
      vertex -2.91587 2.5 -0.161811
    endloop
  endfacet
  facet normal 0.750113 0 -0.66131
    outer loop
      vertex -3.08205 2.5 -0.350304
      vertex -2.91587 -2.5 -0.161811
      vertex -3.08205 -2.5 -0.350304
    endloop
  endfacet
  facet normal 0.975917 0 -0.218143
    outer loop
      vertex -3.87433 -2.5 -1.90524
      vertex -3.92915 2.5 -2.15047
      vertex -3.87433 2.5 -1.90524
    endloop
  endfacet
  facet normal 0.975917 0 -0.218143
    outer loop
      vertex -3.92915 2.5 -2.15047
      vertex -3.87433 -2.5 -1.90524
      vertex -3.92915 -2.5 -2.15047
    endloop
  endfacet
  facet normal -0.860742 0 -0.509041
    outer loop
      vertex 3.50523 -2.5 -0.972985
      vertex 3.37731 2.5 -0.756692
      vertex 3.50523 2.5 -0.972985
    endloop
  endfacet
  facet normal -0.860742 -0 -0.509041
    outer loop
      vertex 3.37731 2.5 -0.756692
      vertex 3.50523 -2.5 -0.972985
      vertex 3.37731 -2.5 -0.756692
    endloop
  endfacet
  facet normal -0.960294 0 -0.278991
    outer loop
      vertex 3.87433 -2.5 -1.90524
      vertex 3.80423 2.5 -1.66393
      vertex 3.87433 2.5 -1.90524
    endloop
  endfacet
  facet normal -0.960294 -0 -0.278991
    outer loop
      vertex 3.80423 2.5 -1.66393
      vertex 3.87433 -2.5 -1.90524
      vertex 3.80423 -2.5 -1.66393
    endloop
  endfacet
  facet normal -0.0314089 0 -0.999507
    outer loop
      vertex 0 -2.5 1.1
      vertex 0.251162 2.5 1.09211
      vertex 0.251162 -2.5 1.09211
    endloop
  endfacet
  facet normal -0.0314089 0 -0.999507
    outer loop
      vertex 0.251162 2.5 1.09211
      vertex 0 -2.5 1.1
      vertex 0 2.5 1.1
    endloop
  endfacet
  facet normal -0.218143 0 -0.975917
    outer loop
      vertex 0.749525 -2.5 1.02915
      vertex 0.994759 2.5 0.974332
      vertex 0.994759 -2.5 0.974332
    endloop
  endfacet
  facet normal -0.218143 0 -0.975917
    outer loop
      vertex 0.994759 2.5 0.974332
      vertex 0.749525 -2.5 1.02915
      vertex 0.749525 2.5 1.02915
    endloop
  endfacet
  facet normal -0.397147 0 -0.917755
    outer loop
      vertex 1.4725 -2.5 0.819105
      vertex 1.70312 2.5 0.719308
      vertex 1.70312 -2.5 0.719308
    endloop
  endfacet
  facet normal -0.397147 0 -0.917755
    outer loop
      vertex 1.70312 2.5 0.719308
      vertex 1.4725 -2.5 0.819105
      vertex 1.4725 2.5 0.819105
    endloop
  endfacet
  facet normal 0.661312 0 -0.750111
    outer loop
      vertex -2.73819 -2.5 0.0158739
      vertex -2.5497 2.5 0.182053
      vertex -2.5497 -2.5 0.182053
    endloop
  endfacet
  facet normal 0.661312 0 -0.750111
    outer loop
      vertex -2.5497 2.5 0.182053
      vertex -2.73819 -2.5 0.0158739
      vertex -2.73819 2.5 0.0158739
    endloop
  endfacet
  facet normal 0.156437 0 -0.987688
    outer loop
      vertex -0.749525 -2.5 1.02915
      vertex -0.501332 2.5 1.06846
      vertex -0.501332 -2.5 1.06846
    endloop
  endfacet
  facet normal 0.156437 0 -0.987688
    outer loop
      vertex -0.501332 2.5 1.06846
      vertex -0.749525 -2.5 1.02915
      vertex -0.749525 2.5 1.02915
    endloop
  endfacet
  facet normal 0.218143 0 -0.975917
    outer loop
      vertex -0.994759 -2.5 0.974332
      vertex -0.749525 2.5 1.02915
      vertex -0.749525 -2.5 1.02915
    endloop
  endfacet
  facet normal 0.218143 0 -0.975917
    outer loop
      vertex -0.749525 2.5 1.02915
      vertex -0.994759 -2.5 0.974332
      vertex -0.994759 2.5 0.974332
    endloop
  endfacet
  facet normal 0.940881 0 -0.338738
    outer loop
      vertex -3.71911 -2.5 -1.4275
      vertex -3.80423 2.5 -1.66393
      vertex -3.71911 2.5 -1.4275
    endloop
  endfacet
  facet normal 0.940881 0 -0.338738
    outer loop
      vertex -3.80423 2.5 -1.66393
      vertex -3.71911 -2.5 -1.4275
      vertex -3.80423 -2.5 -1.66393
    endloop
  endfacet
  facet normal 0.827081 0 -0.562082
    outer loop
      vertex -3.23607 -2.5 -0.548859
      vertex -3.37731 2.5 -0.756692
      vertex -3.23607 2.5 -0.548859
    endloop
  endfacet
  facet normal 0.827081 0 -0.562082
    outer loop
      vertex -3.37731 2.5 -0.756692
      vertex -3.23607 -2.5 -0.548859
      vertex -3.37731 -2.5 -0.756692
    endloop
  endfacet
  facet normal -0.891006 0 -0.453991
    outer loop
      vertex 3.61931 -2.5 -1.19688
      vertex 3.50523 2.5 -0.972985
      vertex 3.61931 2.5 -1.19688
    endloop
  endfacet
  facet normal -0.891006 -0 -0.453991
    outer loop
      vertex 3.50523 2.5 -0.972985
      vertex 3.61931 -2.5 -1.19688
      vertex 3.50523 -2.5 -0.972985
    endloop
  endfacet
  facet normal 0.509043 0 -0.860741
    outer loop
      vertex -2.14331 -2.5 0.477311
      vertex -1.92701 2.5 0.605227
      vertex -1.92701 -2.5 0.605227
    endloop
  endfacet
  facet normal 0.509043 0 -0.860741
    outer loop
      vertex -1.92701 2.5 0.605227
      vertex -2.14331 -2.5 0.477311
      vertex -2.14331 2.5 0.477311
    endloop
  endfacet
  facet normal 0.860742 0 -0.509041
    outer loop
      vertex -3.37731 -2.5 -0.756692
      vertex -3.50523 2.5 -0.972985
      vertex -3.37731 2.5 -0.756692
    endloop
  endfacet
  facet normal 0.860742 0 -0.509041
    outer loop
      vertex -3.50523 2.5 -0.972985
      vertex -3.37731 -2.5 -0.756692
      vertex -3.50523 -2.5 -0.972985
    endloop
  endfacet
  facet normal 0.891006 0 -0.453991
    outer loop
      vertex -3.50523 -2.5 -0.972985
      vertex -3.61931 2.5 -1.19688
      vertex -3.50523 2.5 -0.972985
    endloop
  endfacet
  facet normal 0.891006 0 -0.453991
    outer loop
      vertex -3.61931 2.5 -1.19688
      vertex -3.50523 -2.5 -0.972985
      vertex -3.61931 -2.5 -1.19688
    endloop
  endfacet
endsolid OpenSCAD_Model
