solid OpenSCAD_Model
  facet normal -1 0 0
    outer loop
      vertex -5 -2.5 -2.5
      vertex -5 2.5 2.5
      vertex -5 2.5 -2.5
    endloop
  endfacet
  facet normal -1 -0 0
    outer loop
      vertex -5 2.5 2.5
      vertex -5 -2.5 -2.5
      vertex -5 -2.5 2.5
    endloop
  endfacet
  facet normal -0 0 1
    outer loop
      vertex -5 2.5 2.5
      vertex 5 -2.5 2.5
      vertex 5 2.5 2.5
    endloop
  endfacet
  facet normal 0 0 1
    outer loop
      vertex 5 -2.5 2.5
      vertex -5 2.5 2.5
      vertex -5 -2.5 2.5
    endloop
  endfacet
  facet normal 1 -0 0
    outer loop
      vertex 5 -2.5 2.5
      vertex 5 2.5 -2.5
      vertex 5 2.5 2.5
    endloop
  endfacet
  facet normal 1 0 0
    outer loop
      vertex 5 2.5 -2.5
      vertex 5 -2.5 2.5
      vertex 5 -2.5 -2.5
    endloop
  endfacet
  facet normal 0 1 0
    outer loop
      vertex 5 2.5 2.5
      vertex 0 2.5 1.4
      vertex -5 2.5 2.5
    endloop
  endfacet
  facet normal 0 1 0
    outer loop
      vertex 5 2.5 2.5
      vertex 0.232325 2.5 1.3927
      vertex 0 2.5 1.4
    endloop
  endfacet
  facet normal 0 1 0
    outer loop
      vertex 5 2.5 2.5
      vertex 0.463733 2.5 1.37082
      vertex 0.232325 2.5 1.3927
    endloop
  endfacet
  facet normal 0 1 0
    outer loop
      vertex 5 2.5 2.5
      vertex 0.693311 2.5 1.33446
      vertex 0.463733 2.5 1.37082
    endloop
  endfacet
  facet normal 0 1 0
    outer loop
      vertex 5 2.5 2.5
      vertex 0.920152 2.5 1.28376
      vertex 0.693311 2.5 1.33446
    endloop
  endfacet
  facet normal 0 1 0
    outer loop
      vertex 5 2.5 2.5
      vertex 1.14336 2.5 1.21891
      vertex 0.920152 2.5 1.28376
    endloop
  endfacet
  facet normal 0 1 0
    outer loop
      vertex 5 2.5 2.5
      vertex 1.36206 2.5 1.14017
      vertex 1.14336 2.5 1.21891
    endloop
  endfacet
  facet normal 0 1 0
    outer loop
      vertex 5 2.5 2.5
      vertex 1.57538 2.5 1.04786
      vertex 1.36206 2.5 1.14017
    endloop
  endfacet
  facet normal 0 1 0
    outer loop
      vertex 5 2.5 2.5
      vertex 1.78249 2.5 0.942334
      vertex 1.57538 2.5 1.04786
    endloop
  endfacet
  facet normal 0 1 0
    outer loop
      vertex 5 2.5 2.5
      vertex 1.98256 2.5 0.824013
      vertex 1.78249 2.5 0.942334
    endloop
  endfacet
  facet normal 0 1 0
    outer loop
      vertex 5 2.5 2.5
      vertex 2.1748 2.5 0.693362
      vertex 1.98256 2.5 0.824013
    endloop
  endfacet
  facet normal 0 1 0
    outer loop
      vertex 5 2.5 2.5
      vertex 2.35847 2.5 0.550899
      vertex 2.1748 2.5 0.693362
    endloop
  endfacet
  facet normal 0 1 0
    outer loop
      vertex 5 2.5 2.5
      vertex 2.53282 2.5 0.397183
      vertex 2.35847 2.5 0.550899
    endloop
  endfacet
  facet normal 0 1 0
    outer loop
      vertex 5 2.5 2.5
      vertex 2.69718 2.5 0.232823
      vertex 2.53282 2.5 0.397183
    endloop
  endfacet
  facet normal 0 1 0
    outer loop
      vertex 5 2.5 2.5
      vertex 2.8509 2.5 0.0584679
      vertex 2.69718 2.5 0.232823
    endloop
  endfacet
  facet normal 0 1 0
    outer loop
      vertex 5 2.5 2.5
      vertex 2.99336 2.5 -0.125195
      vertex 2.8509 2.5 0.0584679
    endloop
  endfacet
  facet normal 0 1 0
    outer loop
      vertex 5 2.5 2.5
      vertex 3.12401 2.5 -0.31744
      vertex 2.99336 2.5 -0.125195
    endloop
  endfacet
  facet normal 0 1 0
    outer loop
      vertex 5 2.5 2.5
      vertex 3.24233 2.5 -0.517511
      vertex 3.12401 2.5 -0.31744
    endloop
  endfacet
  facet normal 0 1 0
    outer loop
      vertex 5 2.5 2.5
      vertex 3.34786 2.5 -0.724616
      vertex 3.24233 2.5 -0.517511
    endloop
  endfacet
  facet normal 0 1 0
    outer loop
      vertex 5 2.5 2.5
      vertex 3.44017 2.5 -0.937939
      vertex 3.34786 2.5 -0.724616
    endloop
  endfacet
  facet normal 0 1 -0
    outer loop
      vertex 5 2.5 -2.5
      vertex 3.44017 2.5 -0.937939
      vertex 5 2.5 2.5
    endloop
  endfacet
  facet normal 0 1 0
    outer loop
      vertex 3.44017 2.5 -0.937939
      vertex 5 2.5 -2.5
      vertex 3.51891 2.5 -1.15664
    endloop
  endfacet
  facet normal 0 1 0
    outer loop
      vertex 3.51891 2.5 -1.15664
      vertex 5 2.5 -2.5
      vertex 3.58376 2.5 -1.37985
    endloop
  endfacet
  facet normal 0 1 0
    outer loop
      vertex 3.58376 2.5 -1.37985
      vertex 5 2.5 -2.5
      vertex 3.63446 2.5 -1.60669
    endloop
  endfacet
  facet normal 0 1 0
    outer loop
      vertex 3.63446 2.5 -1.60669
      vertex 5 2.5 -2.5
      vertex 3.67082 2.5 -1.83627
    endloop
  endfacet
  facet normal 0 1 0
    outer loop
      vertex 3.67082 2.5 -1.83627
      vertex 5 2.5 -2.5
      vertex 3.6927 2.5 -2.06767
    endloop
  endfacet
  facet normal 0 1 0
    outer loop
      vertex 3.6927 2.5 -2.06767
      vertex 5 2.5 -2.5
      vertex 3.7 2.5 -2.3
    endloop
  endfacet
  facet normal 0 1 0
    outer loop
      vertex 3.7 2.5 -2.3
      vertex 5 2.5 -2.5
      vertex 3.69371 2.5 -2.5
    endloop
  endfacet
  facet normal 0 1 -0
    outer loop
      vertex -0.232325 2.5 1.3927
      vertex -5 2.5 2.5
      vertex 0 2.5 1.4
    endloop
  endfacet
  facet normal 0 1 -0
    outer loop
      vertex -0.463733 2.5 1.37082
      vertex -5 2.5 2.5
      vertex -0.232325 2.5 1.3927
    endloop
  endfacet
  facet normal 0 1 -0
    outer loop
      vertex -0.693311 2.5 1.33446
      vertex -5 2.5 2.5
      vertex -0.463733 2.5 1.37082
    endloop
  endfacet
  facet normal 0 1 -0
    outer loop
      vertex -0.920152 2.5 1.28376
      vertex -5 2.5 2.5
      vertex -0.693311 2.5 1.33446
    endloop
  endfacet
  facet normal 0 1 -0
    outer loop
      vertex -1.14336 2.5 1.21891
      vertex -5 2.5 2.5
      vertex -0.920152 2.5 1.28376
    endloop
  endfacet
  facet normal 0 1 -0
    outer loop
      vertex -1.36206 2.5 1.14017
      vertex -5 2.5 2.5
      vertex -1.14336 2.5 1.21891
    endloop
  endfacet
  facet normal 0 1 -0
    outer loop
      vertex -1.57538 2.5 1.04786
      vertex -5 2.5 2.5
      vertex -1.36206 2.5 1.14017
    endloop
  endfacet
  facet normal 0 1 -0
    outer loop
      vertex -1.78249 2.5 0.942334
      vertex -5 2.5 2.5
      vertex -1.57538 2.5 1.04786
    endloop
  endfacet
  facet normal 0 1 -0
    outer loop
      vertex -1.98256 2.5 0.824013
      vertex -5 2.5 2.5
      vertex -1.78249 2.5 0.942334
    endloop
  endfacet
  facet normal 0 1 -0
    outer loop
      vertex -2.1748 2.5 0.693362
      vertex -5 2.5 2.5
      vertex -1.98256 2.5 0.824013
    endloop
  endfacet
  facet normal 0 1 -0
    outer loop
      vertex -2.35847 2.5 0.550899
      vertex -5 2.5 2.5
      vertex -2.1748 2.5 0.693362
    endloop
  endfacet
  facet normal 0 1 -0
    outer loop
      vertex -2.53282 2.5 0.397183
      vertex -5 2.5 2.5
      vertex -2.35847 2.5 0.550899
    endloop
  endfacet
  facet normal 0 1 -0
    outer loop
      vertex -2.69718 2.5 0.232823
      vertex -5 2.5 2.5
      vertex -2.53282 2.5 0.397183
    endloop
  endfacet
  facet normal 0 1 -0
    outer loop
      vertex -2.8509 2.5 0.0584679
      vertex -5 2.5 2.5
      vertex -2.69718 2.5 0.232823
    endloop
  endfacet
  facet normal 0 1 -0
    outer loop
      vertex -2.99336 2.5 -0.125195
      vertex -5 2.5 2.5
      vertex -2.8509 2.5 0.0584679
    endloop
  endfacet
  facet normal 0 1 -0
    outer loop
      vertex -3.12401 2.5 -0.31744
      vertex -5 2.5 2.5
      vertex -2.99336 2.5 -0.125195
    endloop
  endfacet
  facet normal 0 1 -0
    outer loop
      vertex -3.24233 2.5 -0.517511
      vertex -5 2.5 2.5
      vertex -3.12401 2.5 -0.31744
    endloop
  endfacet
  facet normal 0 1 -0
    outer loop
      vertex -3.34786 2.5 -0.724616
      vertex -5 2.5 2.5
      vertex -3.24233 2.5 -0.517511
    endloop
  endfacet
  facet normal 0 1 -0
    outer loop
      vertex -3.44017 2.5 -0.937939
      vertex -5 2.5 2.5
      vertex -3.34786 2.5 -0.724616
    endloop
  endfacet
  facet normal 0 1 0
    outer loop
      vertex -5 2.5 -2.5
      vertex -3.44017 2.5 -0.937939
      vertex -3.51891 2.5 -1.15664
    endloop
  endfacet
  facet normal 0 1 0
    outer loop
      vertex -5 2.5 -2.5
      vertex -3.51891 2.5 -1.15664
      vertex -3.58376 2.5 -1.37985
    endloop
  endfacet
  facet normal 0 1 0
    outer loop
      vertex -5 2.5 -2.5
      vertex -3.58376 2.5 -1.37985
      vertex -3.63446 2.5 -1.60669
    endloop
  endfacet
  facet normal 0 1 0
    outer loop
      vertex -5 2.5 -2.5
      vertex -3.63446 2.5 -1.60669
      vertex -3.67082 2.5 -1.83627
    endloop
  endfacet
  facet normal 0 1 0
    outer loop
      vertex -5 2.5 -2.5
      vertex -3.67082 2.5 -1.83627
      vertex -3.6927 2.5 -2.06767
    endloop
  endfacet
  facet normal 0 1 0
    outer loop
      vertex -5 2.5 -2.5
      vertex -3.6927 2.5 -2.06767
      vertex -3.7 2.5 -2.3
    endloop
  endfacet
  facet normal 0 1 0
    outer loop
      vertex -5 2.5 -2.5
      vertex -3.7 2.5 -2.3
      vertex -3.69371 2.5 -2.5
    endloop
  endfacet
  facet normal 0 1 0
    outer loop
      vertex -3.44017 2.5 -0.937939
      vertex -5 2.5 -2.5
      vertex -5 2.5 2.5
    endloop
  endfacet
  facet normal 0 0 -1
    outer loop
      vertex -5 -2.5 -2.5
      vertex -3.69371 2.5 -2.5
      vertex -3.69371 -2.5 -2.5
    endloop
  endfacet
  facet normal -0 0 -1
    outer loop
      vertex -3.69371 2.5 -2.5
      vertex -5 -2.5 -2.5
      vertex -5 2.5 -2.5
    endloop
  endfacet
  facet normal 0 0 -1
    outer loop
      vertex 3.69371 -2.5 -2.5
      vertex 5 2.5 -2.5
      vertex 5 -2.5 -2.5
    endloop
  endfacet
  facet normal -0 0 -1
    outer loop
      vertex 5 2.5 -2.5
      vertex 3.69371 -2.5 -2.5
      vertex 3.69371 2.5 -2.5
    endloop
  endfacet
  facet normal 0 -1 0
    outer loop
      vertex -5 -2.5 2.5
      vertex 0 -2.5 1.4
      vertex 5 -2.5 2.5
    endloop
  endfacet
  facet normal 0 -1 0
    outer loop
      vertex -5 -2.5 2.5
      vertex -0.232325 -2.5 1.3927
      vertex 0 -2.5 1.4
    endloop
  endfacet
  facet normal 0 -1 0
    outer loop
      vertex -5 -2.5 2.5
      vertex -0.463733 -2.5 1.37082
      vertex -0.232325 -2.5 1.3927
    endloop
  endfacet
  facet normal 0 -1 0
    outer loop
      vertex -5 -2.5 2.5
      vertex -0.693311 -2.5 1.33446
      vertex -0.463733 -2.5 1.37082
    endloop
  endfacet
  facet normal 0 -1 0
    outer loop
      vertex -5 -2.5 2.5
      vertex -0.920152 -2.5 1.28376
      vertex -0.693311 -2.5 1.33446
    endloop
  endfacet
  facet normal 0 -1 0
    outer loop
      vertex -5 -2.5 2.5
      vertex -1.14336 -2.5 1.21891
      vertex -0.920152 -2.5 1.28376
    endloop
  endfacet
  facet normal 0 -1 0
    outer loop
      vertex -5 -2.5 2.5
      vertex -1.36206 -2.5 1.14017
      vertex -1.14336 -2.5 1.21891
    endloop
  endfacet
  facet normal 0 -1 0
    outer loop
      vertex -5 -2.5 2.5
      vertex -1.57538 -2.5 1.04786
      vertex -1.36206 -2.5 1.14017
    endloop
  endfacet
  facet normal 0 -1 0
    outer loop
      vertex -5 -2.5 2.5
      vertex -1.78249 -2.5 0.942334
      vertex -1.57538 -2.5 1.04786
    endloop
  endfacet
  facet normal 0 -1 0
    outer loop
      vertex -5 -2.5 2.5
      vertex -1.98256 -2.5 0.824013
      vertex -1.78249 -2.5 0.942334
    endloop
  endfacet
  facet normal 0 -1 0
    outer loop
      vertex -5 -2.5 2.5
      vertex -2.1748 -2.5 0.693362
      vertex -1.98256 -2.5 0.824013
    endloop
  endfacet
  facet normal 0 -1 0
    outer loop
      vertex -5 -2.5 2.5
      vertex -2.35847 -2.5 0.550899
      vertex -2.1748 -2.5 0.693362
    endloop
  endfacet
  facet normal 0 -1 0
    outer loop
      vertex -5 -2.5 2.5
      vertex -2.53282 -2.5 0.397183
      vertex -2.35847 -2.5 0.550899
    endloop
  endfacet
  facet normal 0 -1 0
    outer loop
      vertex -5 -2.5 2.5
      vertex -2.69718 -2.5 0.232823
      vertex -2.53282 -2.5 0.397183
    endloop
  endfacet
  facet normal 0 -1 0
    outer loop
      vertex -5 -2.5 2.5
      vertex -2.8509 -2.5 0.0584679
      vertex -2.69718 -2.5 0.232823
    endloop
  endfacet
  facet normal 0 -1 0
    outer loop
      vertex -5 -2.5 2.5
      vertex -2.99336 -2.5 -0.125195
      vertex -2.8509 -2.5 0.0584679
    endloop
  endfacet
  facet normal 0 -1 0
    outer loop
      vertex -5 -2.5 2.5
      vertex -3.12401 -2.5 -0.31744
      vertex -2.99336 -2.5 -0.125195
    endloop
  endfacet
  facet normal 0 -1 0
    outer loop
      vertex -5 -2.5 2.5
      vertex -3.24233 -2.5 -0.517511
      vertex -3.12401 -2.5 -0.31744
    endloop
  endfacet
  facet normal 0 -1 0
    outer loop
      vertex -5 -2.5 2.5
      vertex -3.34786 -2.5 -0.724616
      vertex -3.24233 -2.5 -0.517511
    endloop
  endfacet
  facet normal 0 -1 0
    outer loop
      vertex -5 -2.5 2.5
      vertex -3.44017 -2.5 -0.937939
      vertex -3.34786 -2.5 -0.724616
    endloop
  endfacet
  facet normal 0 -1 0
    outer loop
      vertex -5 -2.5 -2.5
      vertex -3.44017 -2.5 -0.937939
      vertex -5 -2.5 2.5
    endloop
  endfacet
  facet normal 0 -1 0
    outer loop
      vertex -3.44017 -2.5 -0.937939
      vertex -5 -2.5 -2.5
      vertex -3.51891 -2.5 -1.15664
    endloop
  endfacet
  facet normal 0 -1 0
    outer loop
      vertex -3.51891 -2.5 -1.15664
      vertex -5 -2.5 -2.5
      vertex -3.58376 -2.5 -1.37985
    endloop
  endfacet
  facet normal 0 -1 0
    outer loop
      vertex -3.58376 -2.5 -1.37985
      vertex -5 -2.5 -2.5
      vertex -3.63446 -2.5 -1.60669
    endloop
  endfacet
  facet normal 0 -1 0
    outer loop
      vertex -3.63446 -2.5 -1.60669
      vertex -5 -2.5 -2.5
      vertex -3.67082 -2.5 -1.83627
    endloop
  endfacet
  facet normal 0 -1 0
    outer loop
      vertex -3.67082 -2.5 -1.83627
      vertex -5 -2.5 -2.5
      vertex -3.6927 -2.5 -2.06767
    endloop
  endfacet
  facet normal 0 -1 0
    outer loop
      vertex -3.6927 -2.5 -2.06767
      vertex -5 -2.5 -2.5
      vertex -3.7 -2.5 -2.3
    endloop
  endfacet
  facet normal 0 -1 -0
    outer loop
      vertex -3.7 -2.5 -2.3
      vertex -5 -2.5 -2.5
      vertex -3.69371 -2.5 -2.5
    endloop
  endfacet
  facet normal 0 -1 0
    outer loop
      vertex 0.232325 -2.5 1.3927
      vertex 5 -2.5 2.5
      vertex 0 -2.5 1.4
    endloop
  endfacet
  facet normal 0 -1 0
    outer loop
      vertex 0.463733 -2.5 1.37082
      vertex 5 -2.5 2.5
      vertex 0.232325 -2.5 1.3927
    endloop
  endfacet
  facet normal 0 -1 0
    outer loop
      vertex 0.693311 -2.5 1.33446
      vertex 5 -2.5 2.5
      vertex 0.463733 -2.5 1.37082
    endloop
  endfacet
  facet normal 0 -1 0
    outer loop
      vertex 0.920152 -2.5 1.28376
      vertex 5 -2.5 2.5
      vertex 0.693311 -2.5 1.33446
    endloop
  endfacet
  facet normal 0 -1 0
    outer loop
      vertex 1.14336 -2.5 1.21891
      vertex 5 -2.5 2.5
      vertex 0.920152 -2.5 1.28376
    endloop
  endfacet
  facet normal 0 -1 0
    outer loop
      vertex 1.36206 -2.5 1.14017
      vertex 5 -2.5 2.5
      vertex 1.14336 -2.5 1.21891
    endloop
  endfacet
  facet normal 0 -1 0
    outer loop
      vertex 1.57538 -2.5 1.04786
      vertex 5 -2.5 2.5
      vertex 1.36206 -2.5 1.14017
    endloop
  endfacet
  facet normal 0 -1 0
    outer loop
      vertex 1.78249 -2.5 0.942334
      vertex 5 -2.5 2.5
      vertex 1.57538 -2.5 1.04786
    endloop
  endfacet
  facet normal 0 -1 0
    outer loop
      vertex 1.98256 -2.5 0.824013
      vertex 5 -2.5 2.5
      vertex 1.78249 -2.5 0.942334
    endloop
  endfacet
  facet normal 0 -1 0
    outer loop
      vertex 2.1748 -2.5 0.693362
      vertex 5 -2.5 2.5
      vertex 1.98256 -2.5 0.824013
    endloop
  endfacet
  facet normal 0 -1 0
    outer loop
      vertex 2.35847 -2.5 0.550899
      vertex 5 -2.5 2.5
      vertex 2.1748 -2.5 0.693362
    endloop
  endfacet
  facet normal 0 -1 0
    outer loop
      vertex 2.53282 -2.5 0.397183
      vertex 5 -2.5 2.5
      vertex 2.35847 -2.5 0.550899
    endloop
  endfacet
  facet normal 0 -1 0
    outer loop
      vertex 2.69718 -2.5 0.232823
      vertex 5 -2.5 2.5
      vertex 2.53282 -2.5 0.397183
    endloop
  endfacet
  facet normal 0 -1 0
    outer loop
      vertex 2.8509 -2.5 0.0584679
      vertex 5 -2.5 2.5
      vertex 2.69718 -2.5 0.232823
    endloop
  endfacet
  facet normal 0 -1 0
    outer loop
      vertex 2.99336 -2.5 -0.125195
      vertex 5 -2.5 2.5
      vertex 2.8509 -2.5 0.0584679
    endloop
  endfacet
  facet normal 0 -1 0
    outer loop
      vertex 3.12401 -2.5 -0.31744
      vertex 5 -2.5 2.5
      vertex 2.99336 -2.5 -0.125195
    endloop
  endfacet
  facet normal 0 -1 0
    outer loop
      vertex 3.24233 -2.5 -0.517511
      vertex 5 -2.5 2.5
      vertex 3.12401 -2.5 -0.31744
    endloop
  endfacet
  facet normal 0 -1 0
    outer loop
      vertex 3.34786 -2.5 -0.724616
      vertex 5 -2.5 2.5
      vertex 3.24233 -2.5 -0.517511
    endloop
  endfacet
  facet normal 0 -1 0
    outer loop
      vertex 3.44017 -2.5 -0.937939
      vertex 5 -2.5 2.5
      vertex 3.34786 -2.5 -0.724616
    endloop
  endfacet
  facet normal 0 -1 0
    outer loop
      vertex 5 -2.5 -2.5
      vertex 3.44017 -2.5 -0.937939
      vertex 3.51891 -2.5 -1.15664
    endloop
  endfacet
  facet normal 0 -1 0
    outer loop
      vertex 5 -2.5 -2.5
      vertex 3.51891 -2.5 -1.15664
      vertex 3.58376 -2.5 -1.37985
    endloop
  endfacet
  facet normal 0 -1 0
    outer loop
      vertex 5 -2.5 -2.5
      vertex 3.58376 -2.5 -1.37985
      vertex 3.63446 -2.5 -1.60669
    endloop
  endfacet
  facet normal 0 -1 0
    outer loop
      vertex 5 -2.5 -2.5
      vertex 3.63446 -2.5 -1.60669
      vertex 3.67082 -2.5 -1.83627
    endloop
  endfacet
  facet normal 0 -1 0
    outer loop
      vertex 5 -2.5 -2.5
      vertex 3.67082 -2.5 -1.83627
      vertex 3.6927 -2.5 -2.06767
    endloop
  endfacet
  facet normal 0 -1 0
    outer loop
      vertex 5 -2.5 -2.5
      vertex 3.6927 -2.5 -2.06767
      vertex 3.7 -2.5 -2.3
    endloop
  endfacet
  facet normal 0 -1 0
    outer loop
      vertex 5 -2.5 -2.5
      vertex 3.7 -2.5 -2.3
      vertex 3.69371 -2.5 -2.5
    endloop
  endfacet
  facet normal 0 -1 0
    outer loop
      vertex 3.44017 -2.5 -0.937939
      vertex 5 -2.5 -2.5
      vertex 5 -2.5 2.5
    endloop
  endfacet
  facet normal -0.999507 0 -0.0314118
    outer loop
      vertex 3.7 -2.5 -2.3
      vertex 3.6927 2.5 -2.06767
      vertex 3.7 2.5 -2.3
    endloop
  endfacet
  facet normal -0.999507 -0 -0.0314118
    outer loop
      vertex 3.6927 2.5 -2.06767
      vertex 3.7 -2.5 -2.3
      vertex 3.6927 -2.5 -2.06767
    endloop
  endfacet
  facet normal 0.0314118 0 -0.999507
    outer loop
      vertex -0.232325 -2.5 1.3927
      vertex 0 2.5 1.4
      vertex 0 -2.5 1.4
    endloop
  endfacet
  facet normal 0.0314118 0 -0.999507
    outer loop
      vertex 0 2.5 1.4
      vertex -0.232325 -2.5 1.3927
      vertex -0.232325 2.5 1.3927
    endloop
  endfacet
  facet normal -0.995562 0 -0.094108
    outer loop
      vertex 3.6927 -2.5 -2.06767
      vertex 3.67082 2.5 -1.83627
      vertex 3.6927 2.5 -2.06767
    endloop
  endfacet
  facet normal -0.995562 -0 -0.094108
    outer loop
      vertex 3.67082 2.5 -1.83627
      vertex 3.6927 -2.5 -2.06767
      vertex 3.67082 -2.5 -1.83627
    endloop
  endfacet
  facet normal 0.999507 0 -0.0314118
    outer loop
      vertex -3.6927 -2.5 -2.06767
      vertex -3.7 2.5 -2.3
      vertex -3.6927 2.5 -2.06767
    endloop
  endfacet
  facet normal 0.999507 0 -0.0314118
    outer loop
      vertex -3.7 2.5 -2.3
      vertex -3.6927 -2.5 -2.06767
      vertex -3.7 -2.5 -2.3
    endloop
  endfacet
  facet normal 0.999507 -0 0.0314115
    outer loop
      vertex -3.7 -2.5 -2.3
      vertex -3.69371 2.5 -2.5
      vertex -3.7 2.5 -2.3
    endloop
  endfacet
  facet normal 0.999507 0 0.0314115
    outer loop
      vertex -3.69371 2.5 -2.5
      vertex -3.7 -2.5 -2.3
      vertex -3.69371 -2.5 -2.5
    endloop
  endfacet
  facet normal 0.45399 0 -0.891007
    outer loop
      vertex -1.78249 -2.5 0.942334
      vertex -1.57538 2.5 1.04786
      vertex -1.57538 -2.5 1.04786
    endloop
  endfacet
  facet normal 0.45399 0 -0.891007
    outer loop
      vertex -1.57538 2.5 1.04786
      vertex -1.78249 -2.5 0.942334
      vertex -1.78249 2.5 0.942334
    endloop
  endfacet
  facet normal 0.790154 0 -0.612908
    outer loop
      vertex -2.8509 -2.5 0.0584679
      vertex -2.99336 2.5 -0.125195
      vertex -2.8509 2.5 0.0584679
    endloop
  endfacet
  facet normal 0.790154 0 -0.612908
    outer loop
      vertex -2.99336 2.5 -0.125195
      vertex -2.8509 -2.5 0.0584679
      vertex -2.99336 -2.5 -0.125195
    endloop
  endfacet
  facet normal 0.987688 0 -0.156435
    outer loop
      vertex -3.63446 -2.5 -1.60669
      vertex -3.67082 2.5 -1.83627
      vertex -3.63446 2.5 -1.60669
    endloop
  endfacet
  facet normal 0.987688 0 -0.156435
    outer loop
      vertex -3.67082 2.5 -1.83627
      vertex -3.63446 -2.5 -1.60669
      vertex -3.67082 -2.5 -1.83627
    endloop
  endfacet
  facet normal 0.094108 0 -0.995562
    outer loop
      vertex -0.463733 -2.5 1.37082
      vertex -0.232325 2.5 1.3927
      vertex -0.232325 -2.5 1.3927
    endloop
  endfacet
  facet normal 0.094108 0 -0.995562
    outer loop
      vertex -0.232325 2.5 1.3927
      vertex -0.463733 -2.5 1.37082
      vertex -0.463733 2.5 1.37082
    endloop
  endfacet
  facet normal -0.509042 0 -0.860742
    outer loop
      vertex 1.78249 -2.5 0.942334
      vertex 1.98256 2.5 0.824013
      vertex 1.98256 -2.5 0.824013
    endloop
  endfacet
  facet normal -0.509042 0 -0.860742
    outer loop
      vertex 1.98256 2.5 0.824013
      vertex 1.78249 -2.5 0.942334
      vertex 1.78249 2.5 0.942334
    endloop
  endfacet
  facet normal -0.338734 0 -0.940882
    outer loop
      vertex 1.14336 -2.5 1.21891
      vertex 1.36206 2.5 1.14017
      vertex 1.36206 -2.5 1.14017
    endloop
  endfacet
  facet normal -0.338734 0 -0.940882
    outer loop
      vertex 1.36206 2.5 1.14017
      vertex 1.14336 -2.5 1.21891
      vertex 1.14336 2.5 1.21891
    endloop
  endfacet
  facet normal -0.975917 0 -0.218142
    outer loop
      vertex 3.63446 -2.5 -1.60669
      vertex 3.58376 2.5 -1.37985
      vertex 3.63446 2.5 -1.60669
    endloop
  endfacet
  facet normal -0.975917 -0 -0.218142
    outer loop
      vertex 3.58376 2.5 -1.37985
      vertex 3.63446 -2.5 -1.60669
      vertex 3.58376 -2.5 -1.37985
    endloop
  endfacet
  facet normal 0.661312 0 -0.750111
    outer loop
      vertex -2.53282 -2.5 0.397183
      vertex -2.35847 2.5 0.550899
      vertex -2.35847 -2.5 0.550899
    endloop
  endfacet
  facet normal 0.661312 0 -0.750111
    outer loop
      vertex -2.35847 2.5 0.550899
      vertex -2.53282 -2.5 0.397183
      vertex -2.53282 2.5 0.397183
    endloop
  endfacet
  facet normal 0.995562 0 -0.094108
    outer loop
      vertex -3.67082 -2.5 -1.83627
      vertex -3.6927 2.5 -2.06767
      vertex -3.67082 2.5 -1.83627
    endloop
  endfacet
  facet normal 0.995562 0 -0.094108
    outer loop
      vertex -3.6927 2.5 -2.06767
      vertex -3.67082 -2.5 -1.83627
      vertex -3.6927 -2.5 -2.06767
    endloop
  endfacet
  facet normal -0.999507 0 0.0314115
    outer loop
      vertex 3.69371 -2.5 -2.5
      vertex 3.7 2.5 -2.3
      vertex 3.69371 2.5 -2.5
    endloop
  endfacet
  facet normal -0.999507 0 0.0314115
    outer loop
      vertex 3.7 2.5 -2.3
      vertex 3.69371 -2.5 -2.5
      vertex 3.7 -2.5 -2.3
    endloop
  endfacet
  facet normal -0.0314118 0 -0.999507
    outer loop
      vertex 0 -2.5 1.4
      vertex 0.232325 2.5 1.3927
      vertex 0.232325 -2.5 1.3927
    endloop
  endfacet
  facet normal -0.0314118 0 -0.999507
    outer loop
      vertex 0.232325 2.5 1.3927
      vertex 0 -2.5 1.4
      vertex 0 2.5 1.4
    endloop
  endfacet
  facet normal -0.278992 0 -0.960293
    outer loop
      vertex 0.920152 -2.5 1.28376
      vertex 1.14336 2.5 1.21891
      vertex 1.14336 -2.5 1.21891
    endloop
  endfacet
  facet normal -0.278992 0 -0.960293
    outer loop
      vertex 1.14336 2.5 1.21891
      vertex 0.920152 -2.5 1.28376
      vertex 0.920152 2.5 1.28376
    endloop
  endfacet
  facet normal -0.156435 0 -0.987688
    outer loop
      vertex 0.463733 -2.5 1.37082
      vertex 0.693311 2.5 1.33446
      vertex 0.693311 -2.5 1.33446
    endloop
  endfacet
  facet normal -0.156435 0 -0.987688
    outer loop
      vertex 0.693311 2.5 1.33446
      vertex 0.463733 -2.5 1.37082
      vertex 0.463733 2.5 1.37082
    endloop
  endfacet
  facet normal -0.562083 0 -0.827081
    outer loop
      vertex 1.98256 -2.5 0.824013
      vertex 2.1748 2.5 0.693362
      vertex 2.1748 -2.5 0.693362
    endloop
  endfacet
  facet normal -0.562083 0 -0.827081
    outer loop
      vertex 2.1748 2.5 0.693362
      vertex 1.98256 -2.5 0.824013
      vertex 1.98256 2.5 0.824013
    endloop
  endfacet
  facet normal -0.397151 0 -0.917753
    outer loop
      vertex 1.36206 -2.5 1.14017
      vertex 1.57538 2.5 1.04786
      vertex 1.57538 -2.5 1.04786
    endloop
  endfacet
  facet normal -0.397151 0 -0.917753
    outer loop
      vertex 1.57538 2.5 1.04786
      vertex 1.36206 -2.5 1.14017
      vertex 1.36206 2.5 1.14017
    endloop
  endfacet
  facet normal -0.987688 0 -0.156435
    outer loop
      vertex 3.67082 -2.5 -1.83627
      vertex 3.63446 2.5 -1.60669
      vertex 3.67082 2.5 -1.83627
    endloop
  endfacet
  facet normal -0.987688 -0 -0.156435
    outer loop
      vertex 3.63446 2.5 -1.60669
      vertex 3.67082 -2.5 -1.83627
      vertex 3.63446 -2.5 -1.60669
    endloop
  endfacet
  facet normal -0.891007 0 -0.45399
    outer loop
      vertex 3.34786 -2.5 -0.724616
      vertex 3.24233 2.5 -0.517511
      vertex 3.34786 2.5 -0.724616
    endloop
  endfacet
  facet normal -0.891007 -0 -0.45399
    outer loop
      vertex 3.24233 2.5 -0.517511
      vertex 3.34786 -2.5 -0.724616
      vertex 3.24233 -2.5 -0.517511
    endloop
  endfacet
  facet normal -0.94088 0 -0.338739
    outer loop
      vertex 3.51891 -2.5 -1.15664
      vertex 3.44017 2.5 -0.937939
      vertex 3.51891 2.5 -1.15664
    endloop
  endfacet
  facet normal -0.94088 -0 -0.338739
    outer loop
      vertex 3.44017 2.5 -0.937939
      vertex 3.51891 -2.5 -1.15664
      vertex 3.44017 -2.5 -0.937939
    endloop
  endfacet
  facet normal -0.790154 0 -0.612908
    outer loop
      vertex 2.99336 -2.5 -0.125195
      vertex 2.8509 2.5 0.0584679
      vertex 2.99336 2.5 -0.125195
    endloop
  endfacet
  facet normal -0.790154 -0 -0.612908
    outer loop
      vertex 2.8509 2.5 0.0584679
      vertex 2.99336 -2.5 -0.125195
      vertex 2.8509 -2.5 0.0584679
    endloop
  endfacet
  facet normal -0.860743 0 -0.50904
    outer loop
      vertex 3.24233 -2.5 -0.517511
      vertex 3.12401 2.5 -0.31744
      vertex 3.24233 2.5 -0.517511
    endloop
  endfacet
  facet normal -0.860743 -0 -0.50904
    outer loop
      vertex 3.12401 2.5 -0.31744
      vertex 3.24233 -2.5 -0.517511
      vertex 3.12401 -2.5 -0.31744
    endloop
  endfacet
  facet normal -0.750111 0 -0.661312
    outer loop
      vertex 2.8509 -2.5 0.0584679
      vertex 2.69718 2.5 0.232823
      vertex 2.8509 2.5 0.0584679
    endloop
  endfacet
  facet normal -0.750111 -0 -0.661312
    outer loop
      vertex 2.69718 2.5 0.232823
      vertex 2.8509 -2.5 0.0584679
      vertex 2.69718 -2.5 0.232823
    endloop
  endfacet
  facet normal -0.661312 0 -0.750111
    outer loop
      vertex 2.35847 -2.5 0.550899
      vertex 2.53282 2.5 0.397183
      vertex 2.53282 -2.5 0.397183
    endloop
  endfacet
  facet normal -0.661312 0 -0.750111
    outer loop
      vertex 2.53282 2.5 0.397183
      vertex 2.35847 -2.5 0.550899
      vertex 2.35847 2.5 0.550899
    endloop
  endfacet
  facet normal 0.509042 0 -0.860742
    outer loop
      vertex -1.98256 -2.5 0.824013
      vertex -1.78249 2.5 0.942334
      vertex -1.78249 -2.5 0.942334
    endloop
  endfacet
  facet normal 0.509042 0 -0.860742
    outer loop
      vertex -1.78249 2.5 0.942334
      vertex -1.98256 -2.5 0.824013
      vertex -1.98256 2.5 0.824013
    endloop
  endfacet
  facet normal 0.707107 0 -0.707107
    outer loop
      vertex -2.53282 -2.5 0.397183
      vertex -2.69718 2.5 0.232823
      vertex -2.53282 2.5 0.397183
    endloop
  endfacet
  facet normal 0.707107 0 -0.707107
    outer loop
      vertex -2.69718 2.5 0.232823
      vertex -2.53282 -2.5 0.397183
      vertex -2.69718 -2.5 0.232823
    endloop
  endfacet
  facet normal 0.338734 0 -0.940882
    outer loop
      vertex -1.36206 -2.5 1.14017
      vertex -1.14336 2.5 1.21891
      vertex -1.14336 -2.5 1.21891
    endloop
  endfacet
  facet normal 0.338734 0 -0.940882
    outer loop
      vertex -1.14336 2.5 1.21891
      vertex -1.36206 -2.5 1.14017
      vertex -1.36206 2.5 1.14017
    endloop
  endfacet
  facet normal 0.156435 0 -0.987688
    outer loop
      vertex -0.693311 -2.5 1.33446
      vertex -0.463733 2.5 1.37082
      vertex -0.463733 -2.5 1.37082
    endloop
  endfacet
  facet normal 0.156435 0 -0.987688
    outer loop
      vertex -0.463733 2.5 1.37082
      vertex -0.693311 -2.5 1.33446
      vertex -0.693311 2.5 1.33446
    endloop
  endfacet
  facet normal 0.218143 0 -0.975917
    outer loop
      vertex -0.920152 -2.5 1.28376
      vertex -0.693311 2.5 1.33446
      vertex -0.693311 -2.5 1.33446
    endloop
  endfacet
  facet normal 0.218143 0 -0.975917
    outer loop
      vertex -0.693311 2.5 1.33446
      vertex -0.920152 -2.5 1.28376
      vertex -0.920152 2.5 1.28376
    endloop
  endfacet
  facet normal 0.860743 0 -0.50904
    outer loop
      vertex -3.12401 -2.5 -0.31744
      vertex -3.24233 2.5 -0.517511
      vertex -3.12401 2.5 -0.31744
    endloop
  endfacet
  facet normal 0.860743 0 -0.50904
    outer loop
      vertex -3.24233 2.5 -0.517511
      vertex -3.12401 -2.5 -0.31744
      vertex -3.24233 -2.5 -0.517511
    endloop
  endfacet
  facet normal 0.960293 0 -0.278992
    outer loop
      vertex -3.51891 -2.5 -1.15664
      vertex -3.58376 2.5 -1.37985
      vertex -3.51891 2.5 -1.15664
    endloop
  endfacet
  facet normal 0.960293 0 -0.278992
    outer loop
      vertex -3.58376 2.5 -1.37985
      vertex -3.51891 -2.5 -1.15664
      vertex -3.58376 -2.5 -1.37985
    endloop
  endfacet
  facet normal -0.094108 0 -0.995562
    outer loop
      vertex 0.232325 -2.5 1.3927
      vertex 0.463733 2.5 1.37082
      vertex 0.463733 -2.5 1.37082
    endloop
  endfacet
  facet normal -0.094108 0 -0.995562
    outer loop
      vertex 0.463733 2.5 1.37082
      vertex 0.232325 -2.5 1.3927
      vertex 0.232325 2.5 1.3927
    endloop
  endfacet
  facet normal -0.218143 0 -0.975917
    outer loop
      vertex 0.693311 -2.5 1.33446
      vertex 0.920152 2.5 1.28376
      vertex 0.920152 -2.5 1.28376
    endloop
  endfacet
  facet normal -0.218143 0 -0.975917
    outer loop
      vertex 0.920152 2.5 1.28376
      vertex 0.693311 -2.5 1.33446
      vertex 0.693311 2.5 1.33446
    endloop
  endfacet
  facet normal -0.612906 0 -0.790155
    outer loop
      vertex 2.1748 -2.5 0.693362
      vertex 2.35847 2.5 0.550899
      vertex 2.35847 -2.5 0.550899
    endloop
  endfacet
  facet normal -0.612906 0 -0.790155
    outer loop
      vertex 2.35847 2.5 0.550899
      vertex 2.1748 -2.5 0.693362
      vertex 2.1748 2.5 0.693362
    endloop
  endfacet
  facet normal -0.45399 0 -0.891007
    outer loop
      vertex 1.57538 -2.5 1.04786
      vertex 1.78249 2.5 0.942334
      vertex 1.78249 -2.5 0.942334
    endloop
  endfacet
  facet normal -0.45399 0 -0.891007
    outer loop
      vertex 1.78249 2.5 0.942334
      vertex 1.57538 -2.5 1.04786
      vertex 1.57538 2.5 1.04786
    endloop
  endfacet
  facet normal -0.917755 0 -0.397147
    outer loop
      vertex 3.44017 -2.5 -0.937939
      vertex 3.34786 2.5 -0.724616
      vertex 3.44017 2.5 -0.937939
    endloop
  endfacet
  facet normal -0.917755 -0 -0.397147
    outer loop
      vertex 3.34786 2.5 -0.724616
      vertex 3.44017 -2.5 -0.937939
      vertex 3.34786 -2.5 -0.724616
    endloop
  endfacet
  facet normal -0.960293 0 -0.278992
    outer loop
      vertex 3.58376 -2.5 -1.37985
      vertex 3.51891 2.5 -1.15664
      vertex 3.58376 2.5 -1.37985
    endloop
  endfacet
  facet normal -0.960293 -0 -0.278992
    outer loop
      vertex 3.51891 2.5 -1.15664
      vertex 3.58376 -2.5 -1.37985
      vertex 3.51891 -2.5 -1.15664
    endloop
  endfacet
  facet normal -0.827079 0 -0.562085
    outer loop
      vertex 3.12401 -2.5 -0.31744
      vertex 2.99336 2.5 -0.125195
      vertex 3.12401 2.5 -0.31744
    endloop
  endfacet
  facet normal -0.827079 -0 -0.562085
    outer loop
      vertex 2.99336 2.5 -0.125195
      vertex 3.12401 -2.5 -0.31744
      vertex 2.99336 -2.5 -0.125195
    endloop
  endfacet
  facet normal -0.707107 0 -0.707107
    outer loop
      vertex 2.69718 -2.5 0.232823
      vertex 2.53282 2.5 0.397183
      vertex 2.69718 2.5 0.232823
    endloop
  endfacet
  facet normal -0.707107 -0 -0.707107
    outer loop
      vertex 2.53282 2.5 0.397183
      vertex 2.69718 -2.5 0.232823
      vertex 2.53282 -2.5 0.397183
    endloop
  endfacet
  facet normal 0.612906 0 -0.790155
    outer loop
      vertex -2.35847 -2.5 0.550899
      vertex -2.1748 2.5 0.693362
      vertex -2.1748 -2.5 0.693362
    endloop
  endfacet
  facet normal 0.612906 0 -0.790155
    outer loop
      vertex -2.1748 2.5 0.693362
      vertex -2.35847 -2.5 0.550899
      vertex -2.35847 2.5 0.550899
    endloop
  endfacet
  facet normal 0.750111 0 -0.661312
    outer loop
      vertex -2.69718 -2.5 0.232823
      vertex -2.8509 2.5 0.0584679
      vertex -2.69718 2.5 0.232823
    endloop
  endfacet
  facet normal 0.750111 0 -0.661312
    outer loop
      vertex -2.8509 2.5 0.0584679
      vertex -2.69718 -2.5 0.232823
      vertex -2.8509 -2.5 0.0584679
    endloop
  endfacet
  facet normal 0.278992 0 -0.960293
    outer loop
      vertex -1.14336 -2.5 1.21891
      vertex -0.920152 2.5 1.28376
      vertex -0.920152 -2.5 1.28376
    endloop
  endfacet
  facet normal 0.278992 0 -0.960293
    outer loop
      vertex -0.920152 2.5 1.28376
      vertex -1.14336 -2.5 1.21891
      vertex -1.14336 2.5 1.21891
    endloop
  endfacet
  facet normal 0.891007 0 -0.45399
    outer loop
      vertex -3.24233 -2.5 -0.517511
      vertex -3.34786 2.5 -0.724616
      vertex -3.24233 2.5 -0.517511
    endloop
  endfacet
  facet normal 0.891007 0 -0.45399
    outer loop
      vertex -3.34786 2.5 -0.724616
      vertex -3.24233 -2.5 -0.517511
      vertex -3.34786 -2.5 -0.724616
    endloop
  endfacet
  facet normal 0.827079 0 -0.562085
    outer loop
      vertex -2.99336 -2.5 -0.125195
      vertex -3.12401 2.5 -0.31744
      vertex -2.99336 2.5 -0.125195
    endloop
  endfacet
  facet normal 0.827079 0 -0.562085
    outer loop
      vertex -3.12401 2.5 -0.31744
      vertex -2.99336 -2.5 -0.125195
      vertex -3.12401 -2.5 -0.31744
    endloop
  endfacet
  facet normal 0.975917 0 -0.218142
    outer loop
      vertex -3.58376 -2.5 -1.37985
      vertex -3.63446 2.5 -1.60669
      vertex -3.58376 2.5 -1.37985
    endloop
  endfacet
  facet normal 0.975917 0 -0.218142
    outer loop
      vertex -3.63446 2.5 -1.60669
      vertex -3.58376 -2.5 -1.37985
      vertex -3.63446 -2.5 -1.60669
    endloop
  endfacet
  facet normal 0.397151 0 -0.917753
    outer loop
      vertex -1.57538 -2.5 1.04786
      vertex -1.36206 2.5 1.14017
      vertex -1.36206 -2.5 1.14017
    endloop
  endfacet
  facet normal 0.397151 0 -0.917753
    outer loop
      vertex -1.36206 2.5 1.14017
      vertex -1.57538 -2.5 1.04786
      vertex -1.57538 2.5 1.04786
    endloop
  endfacet
  facet normal 0.562083 0 -0.827081
    outer loop
      vertex -2.1748 -2.5 0.693362
      vertex -1.98256 2.5 0.824013
      vertex -1.98256 -2.5 0.824013
    endloop
  endfacet
  facet normal 0.562083 0 -0.827081
    outer loop
      vertex -1.98256 2.5 0.824013
      vertex -2.1748 -2.5 0.693362
      vertex -2.1748 2.5 0.693362
    endloop
  endfacet
  facet normal 0.917755 0 -0.397147
    outer loop
      vertex -3.34786 -2.5 -0.724616
      vertex -3.44017 2.5 -0.937939
      vertex -3.34786 2.5 -0.724616
    endloop
  endfacet
  facet normal 0.917755 0 -0.397147
    outer loop
      vertex -3.44017 2.5 -0.937939
      vertex -3.34786 -2.5 -0.724616
      vertex -3.44017 -2.5 -0.937939
    endloop
  endfacet
  facet normal 0.94088 0 -0.338739
    outer loop
      vertex -3.44017 -2.5 -0.937939
      vertex -3.51891 2.5 -1.15664
      vertex -3.44017 2.5 -0.937939
    endloop
  endfacet
  facet normal 0.94088 0 -0.338739
    outer loop
      vertex -3.51891 2.5 -1.15664
      vertex -3.44017 -2.5 -0.937939
      vertex -3.51891 -2.5 -1.15664
    endloop
  endfacet
endsolid OpenSCAD_Model
