solid OpenSCAD_Model
  facet normal -1 0 0
    outer loop
      vertex -5 -2.5 -2.5
      vertex -5 2.5 2.5
      vertex -5 2.5 -2.5
    endloop
  endfacet
  facet normal -1 -0 0
    outer loop
      vertex -5 2.5 2.5
      vertex -5 -2.5 -2.5
      vertex -5 -2.5 2.5
    endloop
  endfacet
  facet normal -0 0 1
    outer loop
      vertex -5 2.5 2.5
      vertex 5 -2.5 2.5
      vertex 5 2.5 2.5
    endloop
  endfacet
  facet normal 0 0 1
    outer loop
      vertex 5 -2.5 2.5
      vertex -5 2.5 2.5
      vertex -5 -2.5 2.5
    endloop
  endfacet
  facet normal 1 -0 0
    outer loop
      vertex 5 -2.5 2.5
      vertex 5 2.5 -2.5
      vertex 5 2.5 2.5
    endloop
  endfacet
  facet normal 1 0 0
    outer loop
      vertex 5 2.5 -2.5
      vertex 5 -2.5 2.5
      vertex 5 -2.5 -2.5
    endloop
  endfacet
  facet normal 0 1 0
    outer loop
      vertex 5 2.5 2.5
      vertex 0 2.5 1.3
      vertex -5 2.5 2.5
    endloop
  endfacet
  facet normal 0 1 0
    outer loop
      vertex 5 2.5 2.5
      vertex 0.226046 2.5 1.2929
      vertex 0 2.5 1.3
    endloop
  endfacet
  facet normal 0 1 0
    outer loop
      vertex 5 2.5 2.5
      vertex 0.4512 2.5 1.27161
      vertex 0.226046 2.5 1.2929
    endloop
  endfacet
  facet normal 0 1 0
    outer loop
      vertex 5 2.5 2.5
      vertex 0.674572 2.5 1.23623
      vertex 0.4512 2.5 1.27161
    endloop
  endfacet
  facet normal 0 1 0
    outer loop
      vertex 5 2.5 2.5
      vertex 0.895283 2.5 1.1869
      vertex 0.674572 2.5 1.23623
    endloop
  endfacet
  facet normal 0 1 0
    outer loop
      vertex 5 2.5 2.5
      vertex 1.11246 2.5 1.1238
      vertex 0.895283 2.5 1.1869
    endloop
  endfacet
  facet normal 0 1 0
    outer loop
      vertex 5 2.5 2.5
      vertex 1.32525 2.5 1.04719
      vertex 1.11246 2.5 1.1238
    endloop
  endfacet
  facet normal 0 1 0
    outer loop
      vertex 5 2.5 2.5
      vertex 1.53281 2.5 0.957376
      vertex 1.32525 2.5 1.04719
    endloop
  endfacet
  facet normal 0 1 0
    outer loop
      vertex 5 2.5 2.5
      vertex 1.73431 2.5 0.854704
      vertex 1.53281 2.5 0.957376
    endloop
  endfacet
  facet normal 0 1 0
    outer loop
      vertex 5 2.5 2.5
      vertex 1.92898 2.5 0.73958
      vertex 1.73431 2.5 0.854704
    endloop
  endfacet
  facet normal 0 1 0
    outer loop
      vertex 5 2.5 2.5
      vertex 2.11603 2.5 0.612461
      vertex 1.92898 2.5 0.73958
    endloop
  endfacet
  facet normal 0 1 0
    outer loop
      vertex 5 2.5 2.5
      vertex 2.29473 2.5 0.473847
      vertex 2.11603 2.5 0.612461
    endloop
  endfacet
  facet normal 0 1 0
    outer loop
      vertex 5 2.5 2.5
      vertex 2.46437 2.5 0.324286
      vertex 2.29473 2.5 0.473847
    endloop
  endfacet
  facet normal 0 1 0
    outer loop
      vertex 5 2.5 2.5
      vertex 2.62429 2.5 0.164369
      vertex 2.46437 2.5 0.324286
    endloop
  endfacet
  facet normal 0 1 0
    outer loop
      vertex 5 2.5 2.5
      vertex 2.77385 2.5 -0.00527287
      vertex 2.62429 2.5 0.164369
    endloop
  endfacet
  facet normal 0 1 0
    outer loop
      vertex 5 2.5 2.5
      vertex 2.91246 2.5 -0.183972
      vertex 2.77385 2.5 -0.00527287
    endloop
  endfacet
  facet normal 0 1 0
    outer loop
      vertex 5 2.5 2.5
      vertex 3.03958 2.5 -0.371023
      vertex 2.91246 2.5 -0.183972
    endloop
  endfacet
  facet normal 0 1 0
    outer loop
      vertex 5 2.5 2.5
      vertex 3.1547 2.5 -0.565686
      vertex 3.03958 2.5 -0.371023
    endloop
  endfacet
  facet normal 0 1 0
    outer loop
      vertex 5 2.5 2.5
      vertex 3.25738 2.5 -0.767194
      vertex 3.1547 2.5 -0.565686
    endloop
  endfacet
  facet normal 0 1 0
    outer loop
      vertex 5 2.5 2.5
      vertex 3.34719 2.5 -0.974751
      vertex 3.25738 2.5 -0.767194
    endloop
  endfacet
  facet normal 0 1 -0
    outer loop
      vertex 5 2.5 -2.5
      vertex 3.34719 2.5 -0.974751
      vertex 5 2.5 2.5
    endloop
  endfacet
  facet normal 0 1 0
    outer loop
      vertex 3.34719 2.5 -0.974751
      vertex 5 2.5 -2.5
      vertex 3.4238 2.5 -1.18754
    endloop
  endfacet
  facet normal 0 1 0
    outer loop
      vertex 3.4238 2.5 -1.18754
      vertex 5 2.5 -2.5
      vertex 3.4869 2.5 -1.40472
    endloop
  endfacet
  facet normal 0 1 0
    outer loop
      vertex 3.4869 2.5 -1.40472
      vertex 5 2.5 -2.5
      vertex 3.53623 2.5 -1.62543
    endloop
  endfacet
  facet normal 0 1 0
    outer loop
      vertex 3.53623 2.5 -1.62543
      vertex 5 2.5 -2.5
      vertex 3.57161 2.5 -1.8488
    endloop
  endfacet
  facet normal 0 1 0
    outer loop
      vertex 3.57161 2.5 -1.8488
      vertex 5 2.5 -2.5
      vertex 3.5929 2.5 -2.07395
    endloop
  endfacet
  facet normal 0 1 0
    outer loop
      vertex 3.5929 2.5 -2.07395
      vertex 5 2.5 -2.5
      vertex 3.6 2.5 -2.3
    endloop
  endfacet
  facet normal 0 1 0
    outer loop
      vertex 3.6 2.5 -2.3
      vertex 5 2.5 -2.5
      vertex 3.59371 2.5 -2.5
    endloop
  endfacet
  facet normal 0 1 -0
    outer loop
      vertex -0.226046 2.5 1.2929
      vertex -5 2.5 2.5
      vertex 0 2.5 1.3
    endloop
  endfacet
  facet normal 0 1 -0
    outer loop
      vertex -0.4512 2.5 1.27161
      vertex -5 2.5 2.5
      vertex -0.226046 2.5 1.2929
    endloop
  endfacet
  facet normal 0 1 -0
    outer loop
      vertex -0.674572 2.5 1.23623
      vertex -5 2.5 2.5
      vertex -0.4512 2.5 1.27161
    endloop
  endfacet
  facet normal 0 1 -0
    outer loop
      vertex -0.895283 2.5 1.1869
      vertex -5 2.5 2.5
      vertex -0.674572 2.5 1.23623
    endloop
  endfacet
  facet normal 0 1 -0
    outer loop
      vertex -1.11246 2.5 1.1238
      vertex -5 2.5 2.5
      vertex -0.895283 2.5 1.1869
    endloop
  endfacet
  facet normal 0 1 -0
    outer loop
      vertex -1.32525 2.5 1.04719
      vertex -5 2.5 2.5
      vertex -1.11246 2.5 1.1238
    endloop
  endfacet
  facet normal 0 1 -0
    outer loop
      vertex -1.53281 2.5 0.957376
      vertex -5 2.5 2.5
      vertex -1.32525 2.5 1.04719
    endloop
  endfacet
  facet normal 0 1 -0
    outer loop
      vertex -1.73431 2.5 0.854704
      vertex -5 2.5 2.5
      vertex -1.53281 2.5 0.957376
    endloop
  endfacet
  facet normal 0 1 -0
    outer loop
      vertex -1.92898 2.5 0.73958
      vertex -5 2.5 2.5
      vertex -1.73431 2.5 0.854704
    endloop
  endfacet
  facet normal 0 1 -0
    outer loop
      vertex -2.11603 2.5 0.612461
      vertex -5 2.5 2.5
      vertex -1.92898 2.5 0.73958
    endloop
  endfacet
  facet normal 0 1 -0
    outer loop
      vertex -2.29473 2.5 0.473847
      vertex -5 2.5 2.5
      vertex -2.11603 2.5 0.612461
    endloop
  endfacet
  facet normal 0 1 -0
    outer loop
      vertex -2.46437 2.5 0.324286
      vertex -5 2.5 2.5
      vertex -2.29473 2.5 0.473847
    endloop
  endfacet
  facet normal 0 1 -0
    outer loop
      vertex -2.62429 2.5 0.164369
      vertex -5 2.5 2.5
      vertex -2.46437 2.5 0.324286
    endloop
  endfacet
  facet normal 0 1 -0
    outer loop
      vertex -2.77385 2.5 -0.00527287
      vertex -5 2.5 2.5
      vertex -2.62429 2.5 0.164369
    endloop
  endfacet
  facet normal 0 1 -0
    outer loop
      vertex -2.91246 2.5 -0.183972
      vertex -5 2.5 2.5
      vertex -2.77385 2.5 -0.00527287
    endloop
  endfacet
  facet normal 0 1 -0
    outer loop
      vertex -3.03958 2.5 -0.371023
      vertex -5 2.5 2.5
      vertex -2.91246 2.5 -0.183972
    endloop
  endfacet
  facet normal 0 1 -0
    outer loop
      vertex -3.1547 2.5 -0.565686
      vertex -5 2.5 2.5
      vertex -3.03958 2.5 -0.371023
    endloop
  endfacet
  facet normal 0 1 -0
    outer loop
      vertex -3.25738 2.5 -0.767194
      vertex -5 2.5 2.5
      vertex -3.1547 2.5 -0.565686
    endloop
  endfacet
  facet normal 0 1 -0
    outer loop
      vertex -3.34719 2.5 -0.974751
      vertex -5 2.5 2.5
      vertex -3.25738 2.5 -0.767194
    endloop
  endfacet
  facet normal 0 1 0
    outer loop
      vertex -5 2.5 -2.5
      vertex -3.34719 2.5 -0.974751
      vertex -3.4238 2.5 -1.18754
    endloop
  endfacet
  facet normal 0 1 0
    outer loop
      vertex -5 2.5 -2.5
      vertex -3.4238 2.5 -1.18754
      vertex -3.4869 2.5 -1.40472
    endloop
  endfacet
  facet normal 0 1 0
    outer loop
      vertex -5 2.5 -2.5
      vertex -3.4869 2.5 -1.40472
      vertex -3.53623 2.5 -1.62543
    endloop
  endfacet
  facet normal 0 1 0
    outer loop
      vertex -5 2.5 -2.5
      vertex -3.53623 2.5 -1.62543
      vertex -3.57161 2.5 -1.8488
    endloop
  endfacet
  facet normal 0 1 0
    outer loop
      vertex -5 2.5 -2.5
      vertex -3.57161 2.5 -1.8488
      vertex -3.5929 2.5 -2.07395
    endloop
  endfacet
  facet normal 0 1 0
    outer loop
      vertex -5 2.5 -2.5
      vertex -3.5929 2.5 -2.07395
      vertex -3.6 2.5 -2.3
    endloop
  endfacet
  facet normal 0 1 0
    outer loop
      vertex -5 2.5 -2.5
      vertex -3.6 2.5 -2.3
      vertex -3.59371 2.5 -2.5
    endloop
  endfacet
  facet normal 0 1 0
    outer loop
      vertex -3.34719 2.5 -0.974751
      vertex -5 2.5 -2.5
      vertex -5 2.5 2.5
    endloop
  endfacet
  facet normal 0 0 -1
    outer loop
      vertex -5 -2.5 -2.5
      vertex -3.59371 2.5 -2.5
      vertex -3.59371 -2.5 -2.5
    endloop
  endfacet
  facet normal -0 0 -1
    outer loop
      vertex -3.59371 2.5 -2.5
      vertex -5 -2.5 -2.5
      vertex -5 2.5 -2.5
    endloop
  endfacet
  facet normal 0 0 -1
    outer loop
      vertex 3.59371 -2.5 -2.5
      vertex 5 2.5 -2.5
      vertex 5 -2.5 -2.5
    endloop
  endfacet
  facet normal -0 0 -1
    outer loop
      vertex 5 2.5 -2.5
      vertex 3.59371 -2.5 -2.5
      vertex 3.59371 2.5 -2.5
    endloop
  endfacet
  facet normal 0 -1 0
    outer loop
      vertex -5 -2.5 2.5
      vertex 0 -2.5 1.3
      vertex 5 -2.5 2.5
    endloop
  endfacet
  facet normal 0 -1 0
    outer loop
      vertex -5 -2.5 2.5
      vertex -0.226046 -2.5 1.2929
      vertex 0 -2.5 1.3
    endloop
  endfacet
  facet normal 0 -1 0
    outer loop
      vertex -5 -2.5 2.5
      vertex -0.4512 -2.5 1.27161
      vertex -0.226046 -2.5 1.2929
    endloop
  endfacet
  facet normal 0 -1 0
    outer loop
      vertex -5 -2.5 2.5
      vertex -0.674572 -2.5 1.23623
      vertex -0.4512 -2.5 1.27161
    endloop
  endfacet
  facet normal 0 -1 0
    outer loop
      vertex -5 -2.5 2.5
      vertex -0.895283 -2.5 1.1869
      vertex -0.674572 -2.5 1.23623
    endloop
  endfacet
  facet normal 0 -1 0
    outer loop
      vertex -5 -2.5 2.5
      vertex -1.11246 -2.5 1.1238
      vertex -0.895283 -2.5 1.1869
    endloop
  endfacet
  facet normal 0 -1 0
    outer loop
      vertex -5 -2.5 2.5
      vertex -1.32525 -2.5 1.04719
      vertex -1.11246 -2.5 1.1238
    endloop
  endfacet
  facet normal 0 -1 0
    outer loop
      vertex -5 -2.5 2.5
      vertex -1.53281 -2.5 0.957376
      vertex -1.32525 -2.5 1.04719
    endloop
  endfacet
  facet normal 0 -1 0
    outer loop
      vertex -5 -2.5 2.5
      vertex -1.73431 -2.5 0.854704
      vertex -1.53281 -2.5 0.957376
    endloop
  endfacet
  facet normal 0 -1 0
    outer loop
      vertex -5 -2.5 2.5
      vertex -1.92898 -2.5 0.73958
      vertex -1.73431 -2.5 0.854704
    endloop
  endfacet
  facet normal 0 -1 0
    outer loop
      vertex -5 -2.5 2.5
      vertex -2.11603 -2.5 0.612461
      vertex -1.92898 -2.5 0.73958
    endloop
  endfacet
  facet normal 0 -1 0
    outer loop
      vertex -5 -2.5 2.5
      vertex -2.29473 -2.5 0.473847
      vertex -2.11603 -2.5 0.612461
    endloop
  endfacet
  facet normal 0 -1 0
    outer loop
      vertex -5 -2.5 2.5
      vertex -2.46437 -2.5 0.324286
      vertex -2.29473 -2.5 0.473847
    endloop
  endfacet
  facet normal 0 -1 0
    outer loop
      vertex -5 -2.5 2.5
      vertex -2.62429 -2.5 0.164369
      vertex -2.46437 -2.5 0.324286
    endloop
  endfacet
  facet normal 0 -1 0
    outer loop
      vertex -5 -2.5 2.5
      vertex -2.77385 -2.5 -0.00527287
      vertex -2.62429 -2.5 0.164369
    endloop
  endfacet
  facet normal 0 -1 0
    outer loop
      vertex -5 -2.5 2.5
      vertex -2.91246 -2.5 -0.183972
      vertex -2.77385 -2.5 -0.00527287
    endloop
  endfacet
  facet normal 0 -1 0
    outer loop
      vertex -5 -2.5 2.5
      vertex -3.03958 -2.5 -0.371023
      vertex -2.91246 -2.5 -0.183972
    endloop
  endfacet
  facet normal 0 -1 0
    outer loop
      vertex -5 -2.5 2.5
      vertex -3.1547 -2.5 -0.565686
      vertex -3.03958 -2.5 -0.371023
    endloop
  endfacet
  facet normal 0 -1 0
    outer loop
      vertex -5 -2.5 2.5
      vertex -3.25738 -2.5 -0.767194
      vertex -3.1547 -2.5 -0.565686
    endloop
  endfacet
  facet normal 0 -1 0
    outer loop
      vertex -5 -2.5 2.5
      vertex -3.34719 -2.5 -0.974751
      vertex -3.25738 -2.5 -0.767194
    endloop
  endfacet
  facet normal 0 -1 0
    outer loop
      vertex -5 -2.5 -2.5
      vertex -3.34719 -2.5 -0.974751
      vertex -5 -2.5 2.5
    endloop
  endfacet
  facet normal 0 -1 0
    outer loop
      vertex -3.34719 -2.5 -0.974751
      vertex -5 -2.5 -2.5
      vertex -3.4238 -2.5 -1.18754
    endloop
  endfacet
  facet normal 0 -1 0
    outer loop
      vertex -3.4238 -2.5 -1.18754
      vertex -5 -2.5 -2.5
      vertex -3.4869 -2.5 -1.40472
    endloop
  endfacet
  facet normal 0 -1 0
    outer loop
      vertex -3.4869 -2.5 -1.40472
      vertex -5 -2.5 -2.5
      vertex -3.53623 -2.5 -1.62543
    endloop
  endfacet
  facet normal 0 -1 0
    outer loop
      vertex -3.53623 -2.5 -1.62543
      vertex -5 -2.5 -2.5
      vertex -3.57161 -2.5 -1.8488
    endloop
  endfacet
  facet normal 0 -1 0
    outer loop
      vertex -3.57161 -2.5 -1.8488
      vertex -5 -2.5 -2.5
      vertex -3.5929 -2.5 -2.07395
    endloop
  endfacet
  facet normal 0 -1 0
    outer loop
      vertex -3.5929 -2.5 -2.07395
      vertex -5 -2.5 -2.5
      vertex -3.6 -2.5 -2.3
    endloop
  endfacet
  facet normal 0 -1 -0
    outer loop
      vertex -3.6 -2.5 -2.3
      vertex -5 -2.5 -2.5
      vertex -3.59371 -2.5 -2.5
    endloop
  endfacet
  facet normal 0 -1 0
    outer loop
      vertex 0.226046 -2.5 1.2929
      vertex 5 -2.5 2.5
      vertex 0 -2.5 1.3
    endloop
  endfacet
  facet normal 0 -1 0
    outer loop
      vertex 0.4512 -2.5 1.27161
      vertex 5 -2.5 2.5
      vertex 0.226046 -2.5 1.2929
    endloop
  endfacet
  facet normal 0 -1 0
    outer loop
      vertex 0.674572 -2.5 1.23623
      vertex 5 -2.5 2.5
      vertex 0.4512 -2.5 1.27161
    endloop
  endfacet
  facet normal 0 -1 0
    outer loop
      vertex 0.895283 -2.5 1.1869
      vertex 5 -2.5 2.5
      vertex 0.674572 -2.5 1.23623
    endloop
  endfacet
  facet normal 0 -1 0
    outer loop
      vertex 1.11246 -2.5 1.1238
      vertex 5 -2.5 2.5
      vertex 0.895283 -2.5 1.1869
    endloop
  endfacet
  facet normal 0 -1 0
    outer loop
      vertex 1.32525 -2.5 1.04719
      vertex 5 -2.5 2.5
      vertex 1.11246 -2.5 1.1238
    endloop
  endfacet
  facet normal 0 -1 0
    outer loop
      vertex 1.53281 -2.5 0.957376
      vertex 5 -2.5 2.5
      vertex 1.32525 -2.5 1.04719
    endloop
  endfacet
  facet normal 0 -1 0
    outer loop
      vertex 1.73431 -2.5 0.854704
      vertex 5 -2.5 2.5
      vertex 1.53281 -2.5 0.957376
    endloop
  endfacet
  facet normal 0 -1 0
    outer loop
      vertex 1.92898 -2.5 0.73958
      vertex 5 -2.5 2.5
      vertex 1.73431 -2.5 0.854704
    endloop
  endfacet
  facet normal 0 -1 0
    outer loop
      vertex 2.11603 -2.5 0.612461
      vertex 5 -2.5 2.5
      vertex 1.92898 -2.5 0.73958
    endloop
  endfacet
  facet normal 0 -1 0
    outer loop
      vertex 2.29473 -2.5 0.473847
      vertex 5 -2.5 2.5
      vertex 2.11603 -2.5 0.612461
    endloop
  endfacet
  facet normal 0 -1 0
    outer loop
      vertex 2.46437 -2.5 0.324286
      vertex 5 -2.5 2.5
      vertex 2.29473 -2.5 0.473847
    endloop
  endfacet
  facet normal 0 -1 0
    outer loop
      vertex 2.62429 -2.5 0.164369
      vertex 5 -2.5 2.5
      vertex 2.46437 -2.5 0.324286
    endloop
  endfacet
  facet normal 0 -1 0
    outer loop
      vertex 2.77385 -2.5 -0.00527287
      vertex 5 -2.5 2.5
      vertex 2.62429 -2.5 0.164369
    endloop
  endfacet
  facet normal 0 -1 0
    outer loop
      vertex 2.91246 -2.5 -0.183972
      vertex 5 -2.5 2.5
      vertex 2.77385 -2.5 -0.00527287
    endloop
  endfacet
  facet normal 0 -1 0
    outer loop
      vertex 3.03958 -2.5 -0.371023
      vertex 5 -2.5 2.5
      vertex 2.91246 -2.5 -0.183972
    endloop
  endfacet
  facet normal 0 -1 0
    outer loop
      vertex 3.1547 -2.5 -0.565686
      vertex 5 -2.5 2.5
      vertex 3.03958 -2.5 -0.371023
    endloop
  endfacet
  facet normal 0 -1 0
    outer loop
      vertex 3.25738 -2.5 -0.767194
      vertex 5 -2.5 2.5
      vertex 3.1547 -2.5 -0.565686
    endloop
  endfacet
  facet normal 0 -1 0
    outer loop
      vertex 3.34719 -2.5 -0.974751
      vertex 5 -2.5 2.5
      vertex 3.25738 -2.5 -0.767194
    endloop
  endfacet
  facet normal 0 -1 0
    outer loop
      vertex 5 -2.5 -2.5
      vertex 3.34719 -2.5 -0.974751
      vertex 3.4238 -2.5 -1.18754
    endloop
  endfacet
  facet normal 0 -1 0
    outer loop
      vertex 5 -2.5 -2.5
      vertex 3.4238 -2.5 -1.18754
      vertex 3.4869 -2.5 -1.40472
    endloop
  endfacet
  facet normal 0 -1 0
    outer loop
      vertex 5 -2.5 -2.5
      vertex 3.4869 -2.5 -1.40472
      vertex 3.53623 -2.5 -1.62543
    endloop
  endfacet
  facet normal 0 -1 0
    outer loop
      vertex 5 -2.5 -2.5
      vertex 3.53623 -2.5 -1.62543
      vertex 3.57161 -2.5 -1.8488
    endloop
  endfacet
  facet normal 0 -1 0
    outer loop
      vertex 5 -2.5 -2.5
      vertex 3.57161 -2.5 -1.8488
      vertex 3.5929 -2.5 -2.07395
    endloop
  endfacet
  facet normal 0 -1 0
    outer loop
      vertex 5 -2.5 -2.5
      vertex 3.5929 -2.5 -2.07395
      vertex 3.6 -2.5 -2.3
    endloop
  endfacet
  facet normal 0 -1 0
    outer loop
      vertex 5 -2.5 -2.5
      vertex 3.6 -2.5 -2.3
      vertex 3.59371 -2.5 -2.5
    endloop
  endfacet
  facet normal 0 -1 0
    outer loop
      vertex 3.34719 -2.5 -0.974751
      vertex 5 -2.5 -2.5
      vertex 5 -2.5 2.5
    endloop
  endfacet
  facet normal -0.999507 0 -0.0314114
    outer loop
      vertex 3.6 -2.5 -2.3
      vertex 3.5929 2.5 -2.07395
      vertex 3.6 2.5 -2.3
    endloop
  endfacet
  facet normal -0.999507 -0 -0.0314114
    outer loop
      vertex 3.5929 2.5 -2.07395
      vertex 3.6 -2.5 -2.3
      vertex 3.5929 -2.5 -2.07395
    endloop
  endfacet
  facet normal 0.0314114 0 -0.999507
    outer loop
      vertex -0.226046 -2.5 1.2929
      vertex 0 2.5 1.3
      vertex 0 -2.5 1.3
    endloop
  endfacet
  facet normal 0.0314114 0 -0.999507
    outer loop
      vertex 0 2.5 1.3
      vertex -0.226046 -2.5 1.2929
      vertex -0.226046 2.5 1.2929
    endloop
  endfacet
  facet normal 0.0941076 0 -0.995562
    outer loop
      vertex -0.4512 -2.5 1.27161
      vertex -0.226046 2.5 1.2929
      vertex -0.226046 -2.5 1.2929
    endloop
  endfacet
  facet normal 0.0941076 0 -0.995562
    outer loop
      vertex -0.226046 2.5 1.2929
      vertex -0.4512 -2.5 1.27161
      vertex -0.4512 2.5 1.27161
    endloop
  endfacet
  facet normal 0.995562 0 -0.0941076
    outer loop
      vertex -3.57161 -2.5 -1.8488
      vertex -3.5929 2.5 -2.07395
      vertex -3.57161 2.5 -1.8488
    endloop
  endfacet
  facet normal 0.995562 0 -0.0941076
    outer loop
      vertex -3.5929 2.5 -2.07395
      vertex -3.57161 -2.5 -1.8488
      vertex -3.5929 -2.5 -2.07395
    endloop
  endfacet
  facet normal -0.995562 0 -0.0941076
    outer loop
      vertex 3.5929 -2.5 -2.07395
      vertex 3.57161 2.5 -1.8488
      vertex 3.5929 2.5 -2.07395
    endloop
  endfacet
  facet normal -0.995562 -0 -0.0941076
    outer loop
      vertex 3.57161 2.5 -1.8488
      vertex 3.5929 -2.5 -2.07395
      vertex 3.57161 -2.5 -1.8488
    endloop
  endfacet
  facet normal 0.987689 0 -0.156433
    outer loop
      vertex -3.53623 -2.5 -1.62543
      vertex -3.57161 2.5 -1.8488
      vertex -3.53623 2.5 -1.62543
    endloop
  endfacet
  facet normal 0.987689 0 -0.156433
    outer loop
      vertex -3.57161 2.5 -1.8488
      vertex -3.53623 -2.5 -1.62543
      vertex -3.57161 -2.5 -1.8488
    endloop
  endfacet
  facet normal 0.156433 0 -0.987689
    outer loop
      vertex -0.674572 -2.5 1.23623
      vertex -0.4512 2.5 1.27161
      vertex -0.4512 -2.5 1.27161
    endloop
  endfacet
  facet normal 0.156433 0 -0.987689
    outer loop
      vertex -0.4512 2.5 1.27161
      vertex -0.674572 -2.5 1.23623
      vertex -0.674572 2.5 1.23623
    endloop
  endfacet
  facet normal 0.999507 0 -0.0314114
    outer loop
      vertex -3.5929 -2.5 -2.07395
      vertex -3.6 2.5 -2.3
      vertex -3.5929 2.5 -2.07395
    endloop
  endfacet
  facet normal 0.999507 0 -0.0314114
    outer loop
      vertex -3.6 2.5 -2.3
      vertex -3.5929 -2.5 -2.07395
      vertex -3.6 -2.5 -2.3
    endloop
  endfacet
  facet normal 0.999507 -0 0.0314115
    outer loop
      vertex -3.6 -2.5 -2.3
      vertex -3.59371 2.5 -2.5
      vertex -3.6 2.5 -2.3
    endloop
  endfacet
  facet normal 0.999507 0 0.0314115
    outer loop
      vertex -3.59371 2.5 -2.5
      vertex -3.6 -2.5 -2.3
      vertex -3.59371 -2.5 -2.5
    endloop
  endfacet
  facet normal 0.82708 0 -0.562085
    outer loop
      vertex -2.91246 -2.5 -0.183972
      vertex -3.03958 2.5 -0.371023
      vertex -2.91246 2.5 -0.183972
    endloop
  endfacet
  facet normal 0.82708 0 -0.562085
    outer loop
      vertex -3.03958 2.5 -0.371023
      vertex -2.91246 -2.5 -0.183972
      vertex -3.03958 -2.5 -0.371023
    endloop
  endfacet
  facet normal -0.891006 0 -0.453992
    outer loop
      vertex 3.25738 -2.5 -0.767194
      vertex 3.1547 2.5 -0.565686
      vertex 3.25738 2.5 -0.767194
    endloop
  endfacet
  facet normal -0.891006 -0 -0.453992
    outer loop
      vertex 3.1547 2.5 -0.565686
      vertex 3.25738 -2.5 -0.767194
      vertex 3.1547 -2.5 -0.565686
    endloop
  endfacet
  facet normal -0.975917 0 -0.218142
    outer loop
      vertex 3.53623 -2.5 -1.62543
      vertex 3.4869 2.5 -1.40472
      vertex 3.53623 2.5 -1.62543
    endloop
  endfacet
  facet normal -0.975917 -0 -0.218142
    outer loop
      vertex 3.4869 2.5 -1.40472
      vertex 3.53623 -2.5 -1.62543
      vertex 3.4869 -2.5 -1.40472
    endloop
  endfacet
  facet normal -0.999507 0 0.0314115
    outer loop
      vertex 3.59371 -2.5 -2.5
      vertex 3.6 2.5 -2.3
      vertex 3.59371 2.5 -2.5
    endloop
  endfacet
  facet normal -0.999507 0 0.0314115
    outer loop
      vertex 3.6 2.5 -2.3
      vertex 3.59371 -2.5 -2.5
      vertex 3.6 -2.5 -2.3
    endloop
  endfacet
  facet normal 0.278991 0 -0.960294
    outer loop
      vertex -1.11246 -2.5 1.1238
      vertex -0.895283 2.5 1.1869
      vertex -0.895283 -2.5 1.1869
    endloop
  endfacet
  facet normal 0.278991 0 -0.960294
    outer loop
      vertex -0.895283 2.5 1.1869
      vertex -1.11246 -2.5 1.1238
      vertex -1.11246 2.5 1.1238
    endloop
  endfacet
  facet normal -0.0314114 0 -0.999507
    outer loop
      vertex 0 -2.5 1.3
      vertex 0.226046 2.5 1.2929
      vertex 0.226046 -2.5 1.2929
    endloop
  endfacet
  facet normal -0.0314114 0 -0.999507
    outer loop
      vertex 0.226046 2.5 1.2929
      vertex 0 -2.5 1.3
      vertex 0 2.5 1.3
    endloop
  endfacet
  facet normal -0.278991 0 -0.960294
    outer loop
      vertex 0.895283 -2.5 1.1869
      vertex 1.11246 2.5 1.1238
      vertex 1.11246 -2.5 1.1238
    endloop
  endfacet
  facet normal -0.278991 0 -0.960294
    outer loop
      vertex 1.11246 2.5 1.1238
      vertex 0.895283 -2.5 1.1869
      vertex 0.895283 2.5 1.1869
    endloop
  endfacet
  facet normal -0.156433 0 -0.987689
    outer loop
      vertex 0.4512 -2.5 1.27161
      vertex 0.674572 2.5 1.23623
      vertex 0.674572 -2.5 1.23623
    endloop
  endfacet
  facet normal -0.156433 0 -0.987689
    outer loop
      vertex 0.674572 2.5 1.23623
      vertex 0.4512 -2.5 1.27161
      vertex 0.4512 2.5 1.27161
    endloop
  endfacet
  facet normal -0.509043 0 -0.860741
    outer loop
      vertex 1.73431 -2.5 0.854704
      vertex 1.92898 2.5 0.73958
      vertex 1.92898 -2.5 0.73958
    endloop
  endfacet
  facet normal -0.509043 0 -0.860741
    outer loop
      vertex 1.92898 2.5 0.73958
      vertex 1.73431 -2.5 0.854704
      vertex 1.73431 2.5 0.854704
    endloop
  endfacet
  facet normal -0.61291 0 -0.790153
    outer loop
      vertex 2.11603 -2.5 0.612461
      vertex 2.29473 2.5 0.473847
      vertex 2.29473 -2.5 0.473847
    endloop
  endfacet
  facet normal -0.61291 0 -0.790153
    outer loop
      vertex 2.29473 2.5 0.473847
      vertex 2.11603 -2.5 0.612461
      vertex 2.11603 2.5 0.612461
    endloop
  endfacet
  facet normal -0.453988 0 -0.891008
    outer loop
      vertex 1.53281 -2.5 0.957376
      vertex 1.73431 2.5 0.854704
      vertex 1.73431 -2.5 0.854704
    endloop
  endfacet
  facet normal -0.453988 0 -0.891008
    outer loop
      vertex 1.73431 2.5 0.854704
      vertex 1.53281 -2.5 0.957376
      vertex 1.53281 2.5 0.957376
    endloop
  endfacet
  facet normal -0.338741 0 -0.94088
    outer loop
      vertex 1.11246 -2.5 1.1238
      vertex 1.32525 2.5 1.04719
      vertex 1.32525 -2.5 1.04719
    endloop
  endfacet
  facet normal -0.338741 0 -0.94088
    outer loop
      vertex 1.32525 2.5 1.04719
      vertex 1.11246 -2.5 1.1238
      vertex 1.11246 2.5 1.1238
    endloop
  endfacet
  facet normal -0.987689 0 -0.156433
    outer loop
      vertex 3.57161 -2.5 -1.8488
      vertex 3.53623 2.5 -1.62543
      vertex 3.57161 2.5 -1.8488
    endloop
  endfacet
  facet normal -0.987689 -0 -0.156433
    outer loop
      vertex 3.53623 2.5 -1.62543
      vertex 3.57161 -2.5 -1.8488
      vertex 3.53623 -2.5 -1.62543
    endloop
  endfacet
  facet normal -0.661312 0 -0.750111
    outer loop
      vertex 2.29473 -2.5 0.473847
      vertex 2.46437 2.5 0.324286
      vertex 2.46437 -2.5 0.324286
    endloop
  endfacet
  facet normal -0.661312 0 -0.750111
    outer loop
      vertex 2.46437 2.5 0.324286
      vertex 2.29473 -2.5 0.473847
      vertex 2.29473 2.5 0.473847
    endloop
  endfacet
  facet normal -0.960293 0 -0.278992
    outer loop
      vertex 3.4869 -2.5 -1.40472
      vertex 3.4238 2.5 -1.18754
      vertex 3.4869 2.5 -1.40472
    endloop
  endfacet
  facet normal -0.960293 -0 -0.278992
    outer loop
      vertex 3.4238 2.5 -1.18754
      vertex 3.4869 -2.5 -1.40472
      vertex 3.4238 -2.5 -1.18754
    endloop
  endfacet
  facet normal 0.218143 0 -0.975917
    outer loop
      vertex -0.895283 -2.5 1.1869
      vertex -0.674572 2.5 1.23623
      vertex -0.674572 -2.5 1.23623
    endloop
  endfacet
  facet normal 0.218143 0 -0.975917
    outer loop
      vertex -0.674572 2.5 1.23623
      vertex -0.895283 -2.5 1.1869
      vertex -0.895283 2.5 1.1869
    endloop
  endfacet
  facet normal 0.562082 0 -0.827082
    outer loop
      vertex -2.11603 -2.5 0.612461
      vertex -1.92898 2.5 0.73958
      vertex -1.92898 -2.5 0.73958
    endloop
  endfacet
  facet normal 0.562082 0 -0.827082
    outer loop
      vertex -1.92898 2.5 0.73958
      vertex -2.11603 -2.5 0.612461
      vertex -2.11603 2.5 0.612461
    endloop
  endfacet
  facet normal 0.750107 0 -0.661316
    outer loop
      vertex -2.62429 -2.5 0.164369
      vertex -2.77385 2.5 -0.00527287
      vertex -2.62429 2.5 0.164369
    endloop
  endfacet
  facet normal 0.750107 0 -0.661316
    outer loop
      vertex -2.77385 2.5 -0.00527287
      vertex -2.62429 -2.5 0.164369
      vertex -2.77385 -2.5 -0.00527287
    endloop
  endfacet
  facet normal 0.661312 0 -0.750111
    outer loop
      vertex -2.46437 -2.5 0.324286
      vertex -2.29473 2.5 0.473847
      vertex -2.29473 -2.5 0.473847
    endloop
  endfacet
  facet normal 0.661312 0 -0.750111
    outer loop
      vertex -2.29473 2.5 0.473847
      vertex -2.46437 -2.5 0.324286
      vertex -2.46437 2.5 0.324286
    endloop
  endfacet
  facet normal 0.917755 0 -0.397147
    outer loop
      vertex -3.25738 -2.5 -0.767194
      vertex -3.34719 2.5 -0.974751
      vertex -3.25738 2.5 -0.767194
    endloop
  endfacet
  facet normal 0.917755 0 -0.397147
    outer loop
      vertex -3.34719 2.5 -0.974751
      vertex -3.25738 -2.5 -0.767194
      vertex -3.34719 -2.5 -0.974751
    endloop
  endfacet
  facet normal 0.975917 0 -0.218142
    outer loop
      vertex -3.4869 -2.5 -1.40472
      vertex -3.53623 2.5 -1.62543
      vertex -3.4869 2.5 -1.40472
    endloop
  endfacet
  facet normal 0.975917 0 -0.218142
    outer loop
      vertex -3.53623 2.5 -1.62543
      vertex -3.4869 -2.5 -1.40472
      vertex -3.53623 -2.5 -1.62543
    endloop
  endfacet
  facet normal -0.0941076 0 -0.995562
    outer loop
      vertex 0.226046 -2.5 1.2929
      vertex 0.4512 2.5 1.27161
      vertex 0.4512 -2.5 1.27161
    endloop
  endfacet
  facet normal -0.0941076 0 -0.995562
    outer loop
      vertex 0.4512 2.5 1.27161
      vertex 0.226046 -2.5 1.2929
      vertex 0.226046 2.5 1.2929
    endloop
  endfacet
  facet normal -0.218143 0 -0.975917
    outer loop
      vertex 0.674572 -2.5 1.23623
      vertex 0.895283 2.5 1.1869
      vertex 0.895283 -2.5 1.1869
    endloop
  endfacet
  facet normal -0.218143 0 -0.975917
    outer loop
      vertex 0.895283 2.5 1.1869
      vertex 0.674572 -2.5 1.23623
      vertex 0.674572 2.5 1.23623
    endloop
  endfacet
  facet normal -0.562082 0 -0.827082
    outer loop
      vertex 1.92898 -2.5 0.73958
      vertex 2.11603 2.5 0.612461
      vertex 2.11603 -2.5 0.612461
    endloop
  endfacet
  facet normal -0.562082 0 -0.827082
    outer loop
      vertex 2.11603 2.5 0.612461
      vertex 1.92898 -2.5 0.73958
      vertex 1.92898 2.5 0.73958
    endloop
  endfacet
  facet normal -0.397147 0 -0.917755
    outer loop
      vertex 1.32525 -2.5 1.04719
      vertex 1.53281 2.5 0.957376
      vertex 1.53281 -2.5 0.957376
    endloop
  endfacet
  facet normal -0.397147 0 -0.917755
    outer loop
      vertex 1.53281 2.5 0.957376
      vertex 1.32525 -2.5 1.04719
      vertex 1.32525 2.5 1.04719
    endloop
  endfacet
  facet normal -0.860743 0 -0.509039
    outer loop
      vertex 3.1547 -2.5 -0.565686
      vertex 3.03958 2.5 -0.371023
      vertex 3.1547 2.5 -0.565686
    endloop
  endfacet
  facet normal -0.860743 -0 -0.509039
    outer loop
      vertex 3.03958 2.5 -0.371023
      vertex 3.1547 -2.5 -0.565686
      vertex 3.03958 -2.5 -0.371023
    endloop
  endfacet
  facet normal -0.707107 0 -0.707107
    outer loop
      vertex 2.62429 -2.5 0.164369
      vertex 2.46437 2.5 0.324286
      vertex 2.62429 2.5 0.164369
    endloop
  endfacet
  facet normal -0.707107 -0 -0.707107
    outer loop
      vertex 2.46437 2.5 0.324286
      vertex 2.62429 -2.5 0.164369
      vertex 2.46437 -2.5 0.324286
    endloop
  endfacet
  facet normal 0.397147 0 -0.917755
    outer loop
      vertex -1.53281 -2.5 0.957376
      vertex -1.32525 2.5 1.04719
      vertex -1.32525 -2.5 1.04719
    endloop
  endfacet
  facet normal 0.397147 0 -0.917755
    outer loop
      vertex -1.32525 2.5 1.04719
      vertex -1.53281 -2.5 0.957376
      vertex -1.53281 2.5 0.957376
    endloop
  endfacet
  facet normal 0.453988 0 -0.891008
    outer loop
      vertex -1.73431 -2.5 0.854704
      vertex -1.53281 2.5 0.957376
      vertex -1.53281 -2.5 0.957376
    endloop
  endfacet
  facet normal 0.453988 0 -0.891008
    outer loop
      vertex -1.53281 2.5 0.957376
      vertex -1.73431 -2.5 0.854704
      vertex -1.73431 2.5 0.854704
    endloop
  endfacet
  facet normal 0.509043 0 -0.860741
    outer loop
      vertex -1.92898 -2.5 0.73958
      vertex -1.73431 2.5 0.854704
      vertex -1.73431 -2.5 0.854704
    endloop
  endfacet
  facet normal 0.509043 0 -0.860741
    outer loop
      vertex -1.73431 2.5 0.854704
      vertex -1.92898 -2.5 0.73958
      vertex -1.92898 2.5 0.73958
    endloop
  endfacet
  facet normal 0.790157 0 -0.612905
    outer loop
      vertex -2.77385 -2.5 -0.00527287
      vertex -2.91246 2.5 -0.183972
      vertex -2.77385 2.5 -0.00527287
    endloop
  endfacet
  facet normal 0.790157 0 -0.612905
    outer loop
      vertex -2.91246 2.5 -0.183972
      vertex -2.77385 -2.5 -0.00527287
      vertex -2.91246 -2.5 -0.183972
    endloop
  endfacet
  facet normal 0.94088 0 -0.338741
    outer loop
      vertex -3.34719 -2.5 -0.974751
      vertex -3.4238 2.5 -1.18754
      vertex -3.34719 2.5 -0.974751
    endloop
  endfacet
  facet normal 0.94088 0 -0.338741
    outer loop
      vertex -3.4238 2.5 -1.18754
      vertex -3.34719 -2.5 -0.974751
      vertex -3.4238 -2.5 -1.18754
    endloop
  endfacet
  facet normal 0.960293 0 -0.278992
    outer loop
      vertex -3.4238 -2.5 -1.18754
      vertex -3.4869 2.5 -1.40472
      vertex -3.4238 2.5 -1.18754
    endloop
  endfacet
  facet normal 0.960293 0 -0.278992
    outer loop
      vertex -3.4869 2.5 -1.40472
      vertex -3.4238 -2.5 -1.18754
      vertex -3.4869 -2.5 -1.40472
    endloop
  endfacet
  facet normal 0.860743 0 -0.509039
    outer loop
      vertex -3.03958 -2.5 -0.371023
      vertex -3.1547 2.5 -0.565686
      vertex -3.03958 2.5 -0.371023
    endloop
  endfacet
  facet normal 0.860743 0 -0.509039
    outer loop
      vertex -3.1547 2.5 -0.565686
      vertex -3.03958 -2.5 -0.371023
      vertex -3.1547 -2.5 -0.565686
    endloop
  endfacet
  facet normal 0.891006 0 -0.453992
    outer loop
      vertex -3.1547 -2.5 -0.565686
      vertex -3.25738 2.5 -0.767194
      vertex -3.1547 2.5 -0.565686
    endloop
  endfacet
  facet normal 0.891006 0 -0.453992
    outer loop
      vertex -3.25738 2.5 -0.767194
      vertex -3.1547 -2.5 -0.565686
      vertex -3.25738 -2.5 -0.767194
    endloop
  endfacet
  facet normal -0.82708 0 -0.562085
    outer loop
      vertex 3.03958 -2.5 -0.371023
      vertex 2.91246 2.5 -0.183972
      vertex 3.03958 2.5 -0.371023
    endloop
  endfacet
  facet normal -0.82708 -0 -0.562085
    outer loop
      vertex 2.91246 2.5 -0.183972
      vertex 3.03958 -2.5 -0.371023
      vertex 2.91246 -2.5 -0.183972
    endloop
  endfacet
  facet normal -0.790157 0 -0.612905
    outer loop
      vertex 2.91246 -2.5 -0.183972
      vertex 2.77385 2.5 -0.00527287
      vertex 2.91246 2.5 -0.183972
    endloop
  endfacet
  facet normal -0.790157 -0 -0.612905
    outer loop
      vertex 2.77385 2.5 -0.00527287
      vertex 2.91246 -2.5 -0.183972
      vertex 2.77385 -2.5 -0.00527287
    endloop
  endfacet
  facet normal -0.750107 0 -0.661316
    outer loop
      vertex 2.77385 -2.5 -0.00527287
      vertex 2.62429 2.5 0.164369
      vertex 2.77385 2.5 -0.00527287
    endloop
  endfacet
  facet normal -0.750107 -0 -0.661316
    outer loop
      vertex 2.62429 2.5 0.164369
      vertex 2.77385 -2.5 -0.00527287
      vertex 2.62429 -2.5 0.164369
    endloop
  endfacet
  facet normal -0.94088 0 -0.338741
    outer loop
      vertex 3.4238 -2.5 -1.18754
      vertex 3.34719 2.5 -0.974751
      vertex 3.4238 2.5 -1.18754
    endloop
  endfacet
  facet normal -0.94088 -0 -0.338741
    outer loop
      vertex 3.34719 2.5 -0.974751
      vertex 3.4238 -2.5 -1.18754
      vertex 3.34719 -2.5 -0.974751
    endloop
  endfacet
  facet normal -0.917755 0 -0.397147
    outer loop
      vertex 3.34719 -2.5 -0.974751
      vertex 3.25738 2.5 -0.767194
      vertex 3.34719 2.5 -0.974751
    endloop
  endfacet
  facet normal -0.917755 -0 -0.397147
    outer loop
      vertex 3.25738 2.5 -0.767194
      vertex 3.34719 -2.5 -0.974751
      vertex 3.25738 -2.5 -0.767194
    endloop
  endfacet
  facet normal 0.61291 0 -0.790153
    outer loop
      vertex -2.29473 -2.5 0.473847
      vertex -2.11603 2.5 0.612461
      vertex -2.11603 -2.5 0.612461
    endloop
  endfacet
  facet normal 0.61291 0 -0.790153
    outer loop
      vertex -2.11603 2.5 0.612461
      vertex -2.29473 -2.5 0.473847
      vertex -2.29473 2.5 0.473847
    endloop
  endfacet
  facet normal 0.338741 0 -0.94088
    outer loop
      vertex -1.32525 -2.5 1.04719
      vertex -1.11246 2.5 1.1238
      vertex -1.11246 -2.5 1.1238
    endloop
  endfacet
  facet normal 0.338741 0 -0.94088
    outer loop
      vertex -1.11246 2.5 1.1238
      vertex -1.32525 -2.5 1.04719
      vertex -1.32525 2.5 1.04719
    endloop
  endfacet
  facet normal 0.707107 0 -0.707107
    outer loop
      vertex -2.46437 -2.5 0.324286
      vertex -2.62429 2.5 0.164369
      vertex -2.46437 2.5 0.324286
    endloop
  endfacet
  facet normal 0.707107 0 -0.707107
    outer loop
      vertex -2.62429 2.5 0.164369
      vertex -2.46437 -2.5 0.324286
      vertex -2.62429 -2.5 0.164369
    endloop
  endfacet
endsolid OpenSCAD_Model
