solid OpenSCAD_Model
  facet normal -1 0 0
    outer loop
      vertex -5 -2.5 -2.5
      vertex -5 2.5 2.5
      vertex -5 2.5 -2.5
    endloop
  endfacet
  facet normal -1 -0 0
    outer loop
      vertex -5 2.5 2.5
      vertex -5 -2.5 -2.5
      vertex -5 -2.5 2.5
    endloop
  endfacet
  facet normal -0 0 1
    outer loop
      vertex -5 2.5 2.5
      vertex 5 -2.5 2.5
      vertex 5 2.5 2.5
    endloop
  endfacet
  facet normal 0 0 1
    outer loop
      vertex 5 -2.5 2.5
      vertex -5 2.5 2.5
      vertex -5 -2.5 2.5
    endloop
  endfacet
  facet normal 1 -0 0
    outer loop
      vertex 5 -2.5 2.5
      vertex 5 2.5 -2.5
      vertex 5 2.5 2.5
    endloop
  endfacet
  facet normal 1 0 0
    outer loop
      vertex 5 2.5 -2.5
      vertex 5 -2.5 2.5
      vertex 5 -2.5 -2.5
    endloop
  endfacet
  facet normal 0 1 0
    outer loop
      vertex 5 2.5 2.5
      vertex 0 2.5 0.9
      vertex -5 2.5 2.5
    endloop
  endfacet
  facet normal 0 1 0
    outer loop
      vertex 5 2.5 2.5
      vertex 0.207209 2.5 0.893488
      vertex 0 2.5 0.9
    endloop
  endfacet
  facet normal 0 1 0
    outer loop
      vertex 5 2.5 2.5
      vertex 0.413599 2.5 0.873978
      vertex 0.207209 2.5 0.893488
    endloop
  endfacet
  facet normal 0 1 0
    outer loop
      vertex 5 2.5 2.5
      vertex 0.618358 2.5 0.841547
      vertex 0.413599 2.5 0.873978
    endloop
  endfacet
  facet normal 0 1 0
    outer loop
      vertex 5 2.5 2.5
      vertex 0.820676 2.5 0.796324
      vertex 0.618358 2.5 0.841547
    endloop
  endfacet
  facet normal 0 1 0
    outer loop
      vertex 5 2.5 2.5
      vertex 1.01976 2.5 0.738486
      vertex 0.820676 2.5 0.796324
    endloop
  endfacet
  facet normal 0 1 0
    outer loop
      vertex 5 2.5 2.5
      vertex 1.21481 2.5 0.668262
      vertex 1.01976 2.5 0.738486
    endloop
  endfacet
  facet normal 0 1 0
    outer loop
      vertex 5 2.5 2.5
      vertex 1.40507 2.5 0.585929
      vertex 1.21481 2.5 0.668262
    endloop
  endfacet
  facet normal 0 1 0
    outer loop
      vertex 5 2.5 2.5
      vertex 1.58979 2.5 0.491812
      vertex 1.40507 2.5 0.585929
    endloop
  endfacet
  facet normal 0 1 0
    outer loop
      vertex 5 2.5 2.5
      vertex 1.76823 2.5 0.386282
      vertex 1.58979 2.5 0.491812
    endloop
  endfacet
  facet normal 0 1 0
    outer loop
      vertex 5 2.5 2.5
      vertex 1.93969 2.5 0.269755
      vertex 1.76823 2.5 0.386282
    endloop
  endfacet
  facet normal 0 1 0
    outer loop
      vertex 5 2.5 2.5
      vertex 2.1035 2.5 0.142694
      vertex 1.93969 2.5 0.269755
    endloop
  endfacet
  facet normal 0 1 0
    outer loop
      vertex 5 2.5 2.5
      vertex 2.259 2.5 0.00559616
      vertex 2.1035 2.5 0.142694
    endloop
  endfacet
  facet normal 0 1 0
    outer loop
      vertex 5 2.5 2.5
      vertex 2.4056 2.5 -0.140994
      vertex 2.259 2.5 0.00559616
    endloop
  endfacet
  facet normal 0 1 0
    outer loop
      vertex 5 2.5 2.5
      vertex 2.54269 2.5 -0.2965
      vertex 2.4056 2.5 -0.140994
    endloop
  endfacet
  facet normal 0 1 0
    outer loop
      vertex 5 2.5 2.5
      vertex 2.66976 2.5 -0.460308
      vertex 2.54269 2.5 -0.2965
    endloop
  endfacet
  facet normal 0 1 0
    outer loop
      vertex 5 2.5 2.5
      vertex 2.78628 2.5 -0.631771
      vertex 2.66976 2.5 -0.460308
    endloop
  endfacet
  facet normal 0 1 0
    outer loop
      vertex 5 2.5 2.5
      vertex 2.89181 2.5 -0.810212
      vertex 2.78628 2.5 -0.631771
    endloop
  endfacet
  facet normal 0 1 0
    outer loop
      vertex 5 2.5 2.5
      vertex 2.98593 2.5 -0.994927
      vertex 2.89181 2.5 -0.810212
    endloop
  endfacet
  facet normal 0 1 -0
    outer loop
      vertex 5 2.5 -2.5
      vertex 2.98593 2.5 -0.994927
      vertex 5 2.5 2.5
    endloop
  endfacet
  facet normal 0 1 0
    outer loop
      vertex 2.98593 2.5 -0.994927
      vertex 5 2.5 -2.5
      vertex 3.06826 2.5 -1.18519
    endloop
  endfacet
  facet normal 0 1 0
    outer loop
      vertex 3.06826 2.5 -1.18519
      vertex 5 2.5 -2.5
      vertex 3.13849 2.5 -1.38024
    endloop
  endfacet
  facet normal 0 1 0
    outer loop
      vertex 3.13849 2.5 -1.38024
      vertex 5 2.5 -2.5
      vertex 3.19632 2.5 -1.57932
    endloop
  endfacet
  facet normal 0 1 0
    outer loop
      vertex 3.19632 2.5 -1.57932
      vertex 5 2.5 -2.5
      vertex 3.24155 2.5 -1.78164
    endloop
  endfacet
  facet normal 0 1 0
    outer loop
      vertex 3.24155 2.5 -1.78164
      vertex 5 2.5 -2.5
      vertex 3.27398 2.5 -1.9864
    endloop
  endfacet
  facet normal 0 1 0
    outer loop
      vertex 3.27398 2.5 -1.9864
      vertex 5 2.5 -2.5
      vertex 3.29349 2.5 -2.19279
    endloop
  endfacet
  facet normal 0 1 0
    outer loop
      vertex 3.29349 2.5 -2.19279
      vertex 5 2.5 -2.5
      vertex 3.3 2.5 -2.4
    endloop
  endfacet
  facet normal 0 1 0
    outer loop
      vertex 3.3 2.5 -2.4
      vertex 5 2.5 -2.5
      vertex 3.29686 2.5 -2.5
    endloop
  endfacet
  facet normal 0 1 -0
    outer loop
      vertex -0.207209 2.5 0.893488
      vertex -5 2.5 2.5
      vertex 0 2.5 0.9
    endloop
  endfacet
  facet normal 0 1 -0
    outer loop
      vertex -0.413599 2.5 0.873978
      vertex -5 2.5 2.5
      vertex -0.207209 2.5 0.893488
    endloop
  endfacet
  facet normal 0 1 -0
    outer loop
      vertex -0.618358 2.5 0.841547
      vertex -5 2.5 2.5
      vertex -0.413599 2.5 0.873978
    endloop
  endfacet
  facet normal 0 1 -0
    outer loop
      vertex -0.820676 2.5 0.796324
      vertex -5 2.5 2.5
      vertex -0.618358 2.5 0.841547
    endloop
  endfacet
  facet normal 0 1 -0
    outer loop
      vertex -1.01976 2.5 0.738486
      vertex -5 2.5 2.5
      vertex -0.820676 2.5 0.796324
    endloop
  endfacet
  facet normal 0 1 -0
    outer loop
      vertex -1.21481 2.5 0.668262
      vertex -5 2.5 2.5
      vertex -1.01976 2.5 0.738486
    endloop
  endfacet
  facet normal 0 1 -0
    outer loop
      vertex -1.40507 2.5 0.585929
      vertex -5 2.5 2.5
      vertex -1.21481 2.5 0.668262
    endloop
  endfacet
  facet normal 0 1 -0
    outer loop
      vertex -1.58979 2.5 0.491812
      vertex -5 2.5 2.5
      vertex -1.40507 2.5 0.585929
    endloop
  endfacet
  facet normal 0 1 -0
    outer loop
      vertex -1.76823 2.5 0.386282
      vertex -5 2.5 2.5
      vertex -1.58979 2.5 0.491812
    endloop
  endfacet
  facet normal 0 1 -0
    outer loop
      vertex -1.93969 2.5 0.269755
      vertex -5 2.5 2.5
      vertex -1.76823 2.5 0.386282
    endloop
  endfacet
  facet normal 0 1 -0
    outer loop
      vertex -2.1035 2.5 0.142694
      vertex -5 2.5 2.5
      vertex -1.93969 2.5 0.269755
    endloop
  endfacet
  facet normal 0 1 -0
    outer loop
      vertex -2.259 2.5 0.00559616
      vertex -5 2.5 2.5
      vertex -2.1035 2.5 0.142694
    endloop
  endfacet
  facet normal 0 1 -0
    outer loop
      vertex -2.4056 2.5 -0.140994
      vertex -5 2.5 2.5
      vertex -2.259 2.5 0.00559616
    endloop
  endfacet
  facet normal 0 1 -0
    outer loop
      vertex -2.54269 2.5 -0.2965
      vertex -5 2.5 2.5
      vertex -2.4056 2.5 -0.140994
    endloop
  endfacet
  facet normal 0 1 -0
    outer loop
      vertex -2.66976 2.5 -0.460308
      vertex -5 2.5 2.5
      vertex -2.54269 2.5 -0.2965
    endloop
  endfacet
  facet normal 0 1 -0
    outer loop
      vertex -2.78628 2.5 -0.631771
      vertex -5 2.5 2.5
      vertex -2.66976 2.5 -0.460308
    endloop
  endfacet
  facet normal 0 1 -0
    outer loop
      vertex -2.89181 2.5 -0.810212
      vertex -5 2.5 2.5
      vertex -2.78628 2.5 -0.631771
    endloop
  endfacet
  facet normal 0 1 -0
    outer loop
      vertex -2.98593 2.5 -0.994927
      vertex -5 2.5 2.5
      vertex -2.89181 2.5 -0.810212
    endloop
  endfacet
  facet normal 0 1 0
    outer loop
      vertex -5 2.5 -2.5
      vertex -2.98593 2.5 -0.994927
      vertex -3.06826 2.5 -1.18519
    endloop
  endfacet
  facet normal 0 1 0
    outer loop
      vertex -5 2.5 -2.5
      vertex -3.06826 2.5 -1.18519
      vertex -3.13849 2.5 -1.38024
    endloop
  endfacet
  facet normal 0 1 0
    outer loop
      vertex -5 2.5 -2.5
      vertex -3.13849 2.5 -1.38024
      vertex -3.19632 2.5 -1.57932
    endloop
  endfacet
  facet normal 0 1 0
    outer loop
      vertex -5 2.5 -2.5
      vertex -3.19632 2.5 -1.57932
      vertex -3.24155 2.5 -1.78164
    endloop
  endfacet
  facet normal 0 1 0
    outer loop
      vertex -5 2.5 -2.5
      vertex -3.24155 2.5 -1.78164
      vertex -3.27398 2.5 -1.9864
    endloop
  endfacet
  facet normal 0 1 0
    outer loop
      vertex -5 2.5 -2.5
      vertex -3.27398 2.5 -1.9864
      vertex -3.29349 2.5 -2.19279
    endloop
  endfacet
  facet normal 0 1 0
    outer loop
      vertex -5 2.5 -2.5
      vertex -3.29349 2.5 -2.19279
      vertex -3.3 2.5 -2.4
    endloop
  endfacet
  facet normal 0 1 0
    outer loop
      vertex -5 2.5 -2.5
      vertex -3.3 2.5 -2.4
      vertex -3.29686 2.5 -2.5
    endloop
  endfacet
  facet normal 0 1 0
    outer loop
      vertex -2.98593 2.5 -0.994927
      vertex -5 2.5 -2.5
      vertex -5 2.5 2.5
    endloop
  endfacet
  facet normal 0 0 -1
    outer loop
      vertex -5 -2.5 -2.5
      vertex -3.29686 2.5 -2.5
      vertex -3.29686 -2.5 -2.5
    endloop
  endfacet
  facet normal -0 0 -1
    outer loop
      vertex -3.29686 2.5 -2.5
      vertex -5 -2.5 -2.5
      vertex -5 2.5 -2.5
    endloop
  endfacet
  facet normal 0 0 -1
    outer loop
      vertex 3.29686 -2.5 -2.5
      vertex 5 2.5 -2.5
      vertex 5 -2.5 -2.5
    endloop
  endfacet
  facet normal -0 0 -1
    outer loop
      vertex 5 2.5 -2.5
      vertex 3.29686 -2.5 -2.5
      vertex 3.29686 2.5 -2.5
    endloop
  endfacet
  facet normal 0 -1 0
    outer loop
      vertex -5 -2.5 2.5
      vertex 0 -2.5 0.9
      vertex 5 -2.5 2.5
    endloop
  endfacet
  facet normal 0 -1 0
    outer loop
      vertex -5 -2.5 2.5
      vertex -0.207209 -2.5 0.893488
      vertex 0 -2.5 0.9
    endloop
  endfacet
  facet normal 0 -1 0
    outer loop
      vertex -5 -2.5 2.5
      vertex -0.413599 -2.5 0.873978
      vertex -0.207209 -2.5 0.893488
    endloop
  endfacet
  facet normal 0 -1 0
    outer loop
      vertex -5 -2.5 2.5
      vertex -0.618358 -2.5 0.841547
      vertex -0.413599 -2.5 0.873978
    endloop
  endfacet
  facet normal 0 -1 0
    outer loop
      vertex -5 -2.5 2.5
      vertex -0.820676 -2.5 0.796324
      vertex -0.618358 -2.5 0.841547
    endloop
  endfacet
  facet normal 0 -1 0
    outer loop
      vertex -5 -2.5 2.5
      vertex -1.01976 -2.5 0.738486
      vertex -0.820676 -2.5 0.796324
    endloop
  endfacet
  facet normal 0 -1 0
    outer loop
      vertex -5 -2.5 2.5
      vertex -1.21481 -2.5 0.668262
      vertex -1.01976 -2.5 0.738486
    endloop
  endfacet
  facet normal 0 -1 0
    outer loop
      vertex -5 -2.5 2.5
      vertex -1.40507 -2.5 0.585929
      vertex -1.21481 -2.5 0.668262
    endloop
  endfacet
  facet normal 0 -1 0
    outer loop
      vertex -5 -2.5 2.5
      vertex -1.58979 -2.5 0.491812
      vertex -1.40507 -2.5 0.585929
    endloop
  endfacet
  facet normal 0 -1 0
    outer loop
      vertex -5 -2.5 2.5
      vertex -1.76823 -2.5 0.386282
      vertex -1.58979 -2.5 0.491812
    endloop
  endfacet
  facet normal 0 -1 0
    outer loop
      vertex -5 -2.5 2.5
      vertex -1.93969 -2.5 0.269755
      vertex -1.76823 -2.5 0.386282
    endloop
  endfacet
  facet normal 0 -1 0
    outer loop
      vertex -5 -2.5 2.5
      vertex -2.1035 -2.5 0.142694
      vertex -1.93969 -2.5 0.269755
    endloop
  endfacet
  facet normal 0 -1 0
    outer loop
      vertex -5 -2.5 2.5
      vertex -2.259 -2.5 0.00559616
      vertex -2.1035 -2.5 0.142694
    endloop
  endfacet
  facet normal 0 -1 0
    outer loop
      vertex -5 -2.5 2.5
      vertex -2.4056 -2.5 -0.140994
      vertex -2.259 -2.5 0.00559616
    endloop
  endfacet
  facet normal 0 -1 0
    outer loop
      vertex -5 -2.5 2.5
      vertex -2.54269 -2.5 -0.2965
      vertex -2.4056 -2.5 -0.140994
    endloop
  endfacet
  facet normal 0 -1 0
    outer loop
      vertex -5 -2.5 2.5
      vertex -2.66976 -2.5 -0.460308
      vertex -2.54269 -2.5 -0.2965
    endloop
  endfacet
  facet normal 0 -1 0
    outer loop
      vertex -5 -2.5 2.5
      vertex -2.78628 -2.5 -0.631771
      vertex -2.66976 -2.5 -0.460308
    endloop
  endfacet
  facet normal 0 -1 0
    outer loop
      vertex -5 -2.5 2.5
      vertex -2.89181 -2.5 -0.810212
      vertex -2.78628 -2.5 -0.631771
    endloop
  endfacet
  facet normal 0 -1 0
    outer loop
      vertex -5 -2.5 2.5
      vertex -2.98593 -2.5 -0.994927
      vertex -2.89181 -2.5 -0.810212
    endloop
  endfacet
  facet normal 0 -1 0
    outer loop
      vertex -5 -2.5 -2.5
      vertex -2.98593 -2.5 -0.994927
      vertex -5 -2.5 2.5
    endloop
  endfacet
  facet normal 0 -1 0
    outer loop
      vertex -2.98593 -2.5 -0.994927
      vertex -5 -2.5 -2.5
      vertex -3.06826 -2.5 -1.18519
    endloop
  endfacet
  facet normal 0 -1 0
    outer loop
      vertex -3.06826 -2.5 -1.18519
      vertex -5 -2.5 -2.5
      vertex -3.13849 -2.5 -1.38024
    endloop
  endfacet
  facet normal 0 -1 0
    outer loop
      vertex -3.13849 -2.5 -1.38024
      vertex -5 -2.5 -2.5
      vertex -3.19632 -2.5 -1.57932
    endloop
  endfacet
  facet normal 0 -1 0
    outer loop
      vertex -3.19632 -2.5 -1.57932
      vertex -5 -2.5 -2.5
      vertex -3.24155 -2.5 -1.78164
    endloop
  endfacet
  facet normal 0 -1 0
    outer loop
      vertex -3.24155 -2.5 -1.78164
      vertex -5 -2.5 -2.5
      vertex -3.27398 -2.5 -1.9864
    endloop
  endfacet
  facet normal 0 -1 0
    outer loop
      vertex -3.27398 -2.5 -1.9864
      vertex -5 -2.5 -2.5
      vertex -3.29349 -2.5 -2.19279
    endloop
  endfacet
  facet normal 0 -1 0
    outer loop
      vertex -3.29349 -2.5 -2.19279
      vertex -5 -2.5 -2.5
      vertex -3.3 -2.5 -2.4
    endloop
  endfacet
  facet normal 0 -1 -0
    outer loop
      vertex -3.3 -2.5 -2.4
      vertex -5 -2.5 -2.5
      vertex -3.29686 -2.5 -2.5
    endloop
  endfacet
  facet normal 0 -1 0
    outer loop
      vertex 0.207209 -2.5 0.893488
      vertex 5 -2.5 2.5
      vertex 0 -2.5 0.9
    endloop
  endfacet
  facet normal 0 -1 0
    outer loop
      vertex 0.413599 -2.5 0.873978
      vertex 5 -2.5 2.5
      vertex 0.207209 -2.5 0.893488
    endloop
  endfacet
  facet normal 0 -1 0
    outer loop
      vertex 0.618358 -2.5 0.841547
      vertex 5 -2.5 2.5
      vertex 0.413599 -2.5 0.873978
    endloop
  endfacet
  facet normal 0 -1 0
    outer loop
      vertex 0.820676 -2.5 0.796324
      vertex 5 -2.5 2.5
      vertex 0.618358 -2.5 0.841547
    endloop
  endfacet
  facet normal 0 -1 0
    outer loop
      vertex 1.01976 -2.5 0.738486
      vertex 5 -2.5 2.5
      vertex 0.820676 -2.5 0.796324
    endloop
  endfacet
  facet normal 0 -1 0
    outer loop
      vertex 1.21481 -2.5 0.668262
      vertex 5 -2.5 2.5
      vertex 1.01976 -2.5 0.738486
    endloop
  endfacet
  facet normal 0 -1 0
    outer loop
      vertex 1.40507 -2.5 0.585929
      vertex 5 -2.5 2.5
      vertex 1.21481 -2.5 0.668262
    endloop
  endfacet
  facet normal 0 -1 0
    outer loop
      vertex 1.58979 -2.5 0.491812
      vertex 5 -2.5 2.5
      vertex 1.40507 -2.5 0.585929
    endloop
  endfacet
  facet normal 0 -1 0
    outer loop
      vertex 1.76823 -2.5 0.386282
      vertex 5 -2.5 2.5
      vertex 1.58979 -2.5 0.491812
    endloop
  endfacet
  facet normal 0 -1 0
    outer loop
      vertex 1.93969 -2.5 0.269755
      vertex 5 -2.5 2.5
      vertex 1.76823 -2.5 0.386282
    endloop
  endfacet
  facet normal 0 -1 0
    outer loop
      vertex 2.1035 -2.5 0.142694
      vertex 5 -2.5 2.5
      vertex 1.93969 -2.5 0.269755
    endloop
  endfacet
  facet normal 0 -1 0
    outer loop
      vertex 2.259 -2.5 0.00559616
      vertex 5 -2.5 2.5
      vertex 2.1035 -2.5 0.142694
    endloop
  endfacet
  facet normal 0 -1 0
    outer loop
      vertex 2.4056 -2.5 -0.140994
      vertex 5 -2.5 2.5
      vertex 2.259 -2.5 0.00559616
    endloop
  endfacet
  facet normal 0 -1 0
    outer loop
      vertex 2.54269 -2.5 -0.2965
      vertex 5 -2.5 2.5
      vertex 2.4056 -2.5 -0.140994
    endloop
  endfacet
  facet normal 0 -1 0
    outer loop
      vertex 2.66976 -2.5 -0.460308
      vertex 5 -2.5 2.5
      vertex 2.54269 -2.5 -0.2965
    endloop
  endfacet
  facet normal 0 -1 0
    outer loop
      vertex 2.78628 -2.5 -0.631771
      vertex 5 -2.5 2.5
      vertex 2.66976 -2.5 -0.460308
    endloop
  endfacet
  facet normal 0 -1 0
    outer loop
      vertex 2.89181 -2.5 -0.810212
      vertex 5 -2.5 2.5
      vertex 2.78628 -2.5 -0.631771
    endloop
  endfacet
  facet normal 0 -1 0
    outer loop
      vertex 2.98593 -2.5 -0.994927
      vertex 5 -2.5 2.5
      vertex 2.89181 -2.5 -0.810212
    endloop
  endfacet
  facet normal 0 -1 0
    outer loop
      vertex 5 -2.5 -2.5
      vertex 2.98593 -2.5 -0.994927
      vertex 3.06826 -2.5 -1.18519
    endloop
  endfacet
  facet normal 0 -1 0
    outer loop
      vertex 5 -2.5 -2.5
      vertex 3.06826 -2.5 -1.18519
      vertex 3.13849 -2.5 -1.38024
    endloop
  endfacet
  facet normal 0 -1 0
    outer loop
      vertex 5 -2.5 -2.5
      vertex 3.13849 -2.5 -1.38024
      vertex 3.19632 -2.5 -1.57932
    endloop
  endfacet
  facet normal 0 -1 0
    outer loop
      vertex 5 -2.5 -2.5
      vertex 3.19632 -2.5 -1.57932
      vertex 3.24155 -2.5 -1.78164
    endloop
  endfacet
  facet normal 0 -1 0
    outer loop
      vertex 5 -2.5 -2.5
      vertex 3.24155 -2.5 -1.78164
      vertex 3.27398 -2.5 -1.9864
    endloop
  endfacet
  facet normal 0 -1 0
    outer loop
      vertex 5 -2.5 -2.5
      vertex 3.27398 -2.5 -1.9864
      vertex 3.29349 -2.5 -2.19279
    endloop
  endfacet
  facet normal 0 -1 0
    outer loop
      vertex 5 -2.5 -2.5
      vertex 3.29349 -2.5 -2.19279
      vertex 3.3 -2.5 -2.4
    endloop
  endfacet
  facet normal 0 -1 0
    outer loop
      vertex 5 -2.5 -2.5
      vertex 3.3 -2.5 -2.4
      vertex 3.29686 -2.5 -2.5
    endloop
  endfacet
  facet normal 0 -1 0
    outer loop
      vertex 2.98593 -2.5 -0.994927
      vertex 5 -2.5 -2.5
      vertex 5 -2.5 2.5
    endloop
  endfacet
  facet normal -0.999507 0 -0.0314103
    outer loop
      vertex 3.3 -2.5 -2.4
      vertex 3.29349 2.5 -2.19279
      vertex 3.3 2.5 -2.4
    endloop
  endfacet
  facet normal -0.999507 -0 -0.0314103
    outer loop
      vertex 3.29349 2.5 -2.19279
      vertex 3.3 -2.5 -2.4
      vertex 3.29349 -2.5 -2.19279
    endloop
  endfacet
  facet normal 0.999507 0 -0.0314103
    outer loop
      vertex -3.29349 -2.5 -2.19279
      vertex -3.3 2.5 -2.4
      vertex -3.29349 2.5 -2.19279
    endloop
  endfacet
  facet normal 0.999507 0 -0.0314103
    outer loop
      vertex -3.3 2.5 -2.4
      vertex -3.29349 -2.5 -2.19279
      vertex -3.3 -2.5 -2.4
    endloop
  endfacet
  facet normal 0.0314103 0 -0.999507
    outer loop
      vertex -0.207209 -2.5 0.893488
      vertex 0 2.5 0.9
      vertex 0 -2.5 0.9
    endloop
  endfacet
  facet normal 0.0314103 0 -0.999507
    outer loop
      vertex 0 2.5 0.9
      vertex -0.207209 -2.5 0.893488
      vertex -0.207209 2.5 0.893488
    endloop
  endfacet
  facet normal 0.0941113 0 -0.995562
    outer loop
      vertex -0.413599 -2.5 0.873978
      vertex -0.207209 2.5 0.893488
      vertex -0.207209 -2.5 0.893488
    endloop
  endfacet
  facet normal 0.0941113 0 -0.995562
    outer loop
      vertex -0.207209 2.5 0.893488
      vertex -0.413599 -2.5 0.873978
      vertex -0.413599 2.5 0.873978
    endloop
  endfacet
  facet normal -0.995562 0 -0.0941064
    outer loop
      vertex 3.29349 -2.5 -2.19279
      vertex 3.27398 2.5 -1.9864
      vertex 3.29349 2.5 -2.19279
    endloop
  endfacet
  facet normal -0.995562 -0 -0.0941064
    outer loop
      vertex 3.27398 2.5 -1.9864
      vertex 3.29349 -2.5 -2.19279
      vertex 3.27398 -2.5 -1.9864
    endloop
  endfacet
  facet normal 0.995562 0 -0.0941064
    outer loop
      vertex -3.27398 -2.5 -1.9864
      vertex -3.29349 2.5 -2.19279
      vertex -3.27398 2.5 -1.9864
    endloop
  endfacet
  facet normal 0.995562 0 -0.0941064
    outer loop
      vertex -3.29349 2.5 -2.19279
      vertex -3.27398 -2.5 -1.9864
      vertex -3.29349 -2.5 -2.19279
    endloop
  endfacet
  facet normal 0.987688 0 -0.156435
    outer loop
      vertex -3.24155 -2.5 -1.78164
      vertex -3.27398 2.5 -1.9864
      vertex -3.24155 2.5 -1.78164
    endloop
  endfacet
  facet normal 0.987688 0 -0.156435
    outer loop
      vertex -3.27398 2.5 -1.9864
      vertex -3.24155 -2.5 -1.78164
      vertex -3.27398 -2.5 -1.9864
    endloop
  endfacet
  facet normal 0.156435 0 -0.987688
    outer loop
      vertex -0.618358 -2.5 0.841547
      vertex -0.413599 2.5 0.873978
      vertex -0.413599 -2.5 0.873978
    endloop
  endfacet
  facet normal 0.156435 0 -0.987688
    outer loop
      vertex -0.413599 2.5 0.873978
      vertex -0.618358 -2.5 0.841547
      vertex -0.618358 2.5 0.841547
    endloop
  endfacet
  facet normal -0.891006 0 -0.453991
    outer loop
      vertex 2.98593 -2.5 -0.994927
      vertex 2.89181 2.5 -0.810212
      vertex 2.98593 2.5 -0.994927
    endloop
  endfacet
  facet normal -0.891006 -0 -0.453991
    outer loop
      vertex 2.89181 2.5 -0.810212
      vertex 2.98593 -2.5 -0.994927
      vertex 2.89181 -2.5 -0.810212
    endloop
  endfacet
  facet normal 0.453991 0 -0.891006
    outer loop
      vertex -1.58979 -2.5 0.491812
      vertex -1.40507 2.5 0.585929
      vertex -1.40507 -2.5 0.585929
    endloop
  endfacet
  facet normal 0.453991 0 -0.891006
    outer loop
      vertex -1.40507 2.5 0.585929
      vertex -1.58979 -2.5 0.491812
      vertex -1.58979 2.5 0.491812
    endloop
  endfacet
  facet normal -0.509042 0 -0.860742
    outer loop
      vertex 1.58979 -2.5 0.491812
      vertex 1.76823 2.5 0.386282
      vertex 1.76823 -2.5 0.386282
    endloop
  endfacet
  facet normal -0.509042 0 -0.860742
    outer loop
      vertex 1.76823 2.5 0.386282
      vertex 1.58979 -2.5 0.491812
      vertex 1.58979 2.5 0.491812
    endloop
  endfacet
  facet normal -0.960293 0 -0.278993
    outer loop
      vertex 3.19632 -2.5 -1.57932
      vertex 3.13849 2.5 -1.38024
      vertex 3.19632 2.5 -1.57932
    endloop
  endfacet
  facet normal -0.960293 -0 -0.278993
    outer loop
      vertex 3.13849 2.5 -1.38024
      vertex 3.19632 -2.5 -1.57932
      vertex 3.13849 -2.5 -1.38024
    endloop
  endfacet
  facet normal -0.860742 0 -0.509042
    outer loop
      vertex 2.89181 -2.5 -0.810212
      vertex 2.78628 2.5 -0.631771
      vertex 2.89181 2.5 -0.810212
    endloop
  endfacet
  facet normal -0.860742 -0 -0.509042
    outer loop
      vertex 2.78628 2.5 -0.631771
      vertex 2.89181 -2.5 -0.810212
      vertex 2.78628 -2.5 -0.631771
    endloop
  endfacet
  facet normal -0.999507 0 0.0314103
    outer loop
      vertex 3.29686 -2.5 -2.5
      vertex 3.3 2.5 -2.4
      vertex 3.29686 2.5 -2.5
    endloop
  endfacet
  facet normal -0.999507 0 0.0314103
    outer loop
      vertex 3.3 2.5 -2.4
      vertex 3.29686 -2.5 -2.5
      vertex 3.3 -2.5 -2.4
    endloop
  endfacet
  facet normal 0.999507 -0 0.0314103
    outer loop
      vertex -3.3 -2.5 -2.4
      vertex -3.29686 2.5 -2.5
      vertex -3.3 2.5 -2.4
    endloop
  endfacet
  facet normal 0.999507 0 0.0314103
    outer loop
      vertex -3.29686 2.5 -2.5
      vertex -3.3 -2.5 -2.4
      vertex -3.29686 -2.5 -2.5
    endloop
  endfacet
  facet normal 0.338741 0 -0.94088
    outer loop
      vertex -1.21481 -2.5 0.668262
      vertex -1.01976 2.5 0.738486
      vertex -1.01976 -2.5 0.738486
    endloop
  endfacet
  facet normal 0.338741 0 -0.94088
    outer loop
      vertex -1.01976 2.5 0.738486
      vertex -1.21481 -2.5 0.668262
      vertex -1.21481 2.5 0.668262
    endloop
  endfacet
  facet normal 0.891006 0 -0.453991
    outer loop
      vertex -2.89181 -2.5 -0.810212
      vertex -2.98593 2.5 -0.994927
      vertex -2.89181 2.5 -0.810212
    endloop
  endfacet
  facet normal 0.891006 0 -0.453991
    outer loop
      vertex -2.98593 2.5 -0.994927
      vertex -2.89181 -2.5 -0.810212
      vertex -2.98593 -2.5 -0.994927
    endloop
  endfacet
  facet normal 0.975917 0 -0.218142
    outer loop
      vertex -3.19632 -2.5 -1.57932
      vertex -3.24155 2.5 -1.78164
      vertex -3.19632 2.5 -1.57932
    endloop
  endfacet
  facet normal 0.975917 0 -0.218142
    outer loop
      vertex -3.24155 2.5 -1.78164
      vertex -3.19632 -2.5 -1.57932
      vertex -3.24155 -2.5 -1.78164
    endloop
  endfacet
  facet normal -0.0941113 0 -0.995562
    outer loop
      vertex 0.207209 -2.5 0.893488
      vertex 0.413599 2.5 0.873978
      vertex 0.413599 -2.5 0.873978
    endloop
  endfacet
  facet normal -0.0941113 0 -0.995562
    outer loop
      vertex 0.413599 2.5 0.873978
      vertex 0.207209 -2.5 0.893488
      vertex 0.207209 2.5 0.893488
    endloop
  endfacet
  facet normal -0.278989 0 -0.960294
    outer loop
      vertex 0.820676 -2.5 0.796324
      vertex 1.01976 2.5 0.738486
      vertex 1.01976 -2.5 0.738486
    endloop
  endfacet
  facet normal -0.278989 0 -0.960294
    outer loop
      vertex 1.01976 2.5 0.738486
      vertex 0.820676 -2.5 0.796324
      vertex 0.820676 2.5 0.796324
    endloop
  endfacet
  facet normal -0.156435 0 -0.987688
    outer loop
      vertex 0.413599 -2.5 0.873978
      vertex 0.618358 2.5 0.841547
      vertex 0.618358 -2.5 0.841547
    endloop
  endfacet
  facet normal -0.156435 0 -0.987688
    outer loop
      vertex 0.618358 2.5 0.841547
      vertex 0.413599 -2.5 0.873978
      vertex 0.413599 2.5 0.873978
    endloop
  endfacet
  facet normal -0.562085 0 -0.82708
    outer loop
      vertex 1.76823 -2.5 0.386282
      vertex 1.93969 2.5 0.269755
      vertex 1.93969 -2.5 0.269755
    endloop
  endfacet
  facet normal -0.562085 0 -0.82708
    outer loop
      vertex 1.93969 2.5 0.269755
      vertex 1.76823 -2.5 0.386282
      vertex 1.76823 2.5 0.386282
    endloop
  endfacet
  facet normal -0.453991 0 -0.891006
    outer loop
      vertex 1.40507 -2.5 0.585929
      vertex 1.58979 2.5 0.491812
      vertex 1.58979 -2.5 0.491812
    endloop
  endfacet
  facet normal -0.453991 0 -0.891006
    outer loop
      vertex 1.58979 2.5 0.491812
      vertex 1.40507 -2.5 0.585929
      vertex 1.40507 2.5 0.585929
    endloop
  endfacet
  facet normal -0.338741 0 -0.94088
    outer loop
      vertex 1.01976 -2.5 0.738486
      vertex 1.21481 2.5 0.668262
      vertex 1.21481 -2.5 0.668262
    endloop
  endfacet
  facet normal -0.338741 0 -0.94088
    outer loop
      vertex 1.21481 2.5 0.668262
      vertex 1.01976 -2.5 0.738486
      vertex 1.01976 2.5 0.738486
    endloop
  endfacet
  facet normal -0.987688 0 -0.156435
    outer loop
      vertex 3.27398 -2.5 -1.9864
      vertex 3.24155 2.5 -1.78164
      vertex 3.27398 2.5 -1.9864
    endloop
  endfacet
  facet normal -0.987688 -0 -0.156435
    outer loop
      vertex 3.24155 2.5 -1.78164
      vertex 3.27398 -2.5 -1.9864
      vertex 3.24155 -2.5 -1.78164
    endloop
  endfacet
  facet normal -0.917754 0 -0.397149
    outer loop
      vertex 3.06826 -2.5 -1.18519
      vertex 2.98593 2.5 -0.994927
      vertex 3.06826 2.5 -1.18519
    endloop
  endfacet
  facet normal -0.917754 -0 -0.397149
    outer loop
      vertex 2.98593 2.5 -0.994927
      vertex 3.06826 -2.5 -1.18519
      vertex 2.98593 -2.5 -0.994927
    endloop
  endfacet
  facet normal -0.975917 0 -0.218142
    outer loop
      vertex 3.24155 -2.5 -1.78164
      vertex 3.19632 2.5 -1.57932
      vertex 3.24155 2.5 -1.78164
    endloop
  endfacet
  facet normal -0.975917 -0 -0.218142
    outer loop
      vertex 3.19632 2.5 -1.57932
      vertex 3.24155 -2.5 -1.78164
      vertex 3.19632 -2.5 -1.57932
    endloop
  endfacet
  facet normal 0.218142 0 -0.975917
    outer loop
      vertex -0.820676 -2.5 0.796324
      vertex -0.618358 2.5 0.841547
      vertex -0.618358 -2.5 0.841547
    endloop
  endfacet
  facet normal 0.218142 0 -0.975917
    outer loop
      vertex -0.618358 2.5 0.841547
      vertex -0.820676 -2.5 0.796324
      vertex -0.820676 2.5 0.796324
    endloop
  endfacet
  facet normal 0.562085 0 -0.82708
    outer loop
      vertex -1.93969 -2.5 0.269755
      vertex -1.76823 2.5 0.386282
      vertex -1.76823 -2.5 0.386282
    endloop
  endfacet
  facet normal 0.562085 0 -0.82708
    outer loop
      vertex -1.76823 2.5 0.386282
      vertex -1.93969 -2.5 0.269755
      vertex -1.93969 2.5 0.269755
    endloop
  endfacet
  facet normal 0.278989 0 -0.960294
    outer loop
      vertex -1.01976 -2.5 0.738486
      vertex -0.820676 2.5 0.796324
      vertex -0.820676 -2.5 0.796324
    endloop
  endfacet
  facet normal 0.278989 0 -0.960294
    outer loop
      vertex -0.820676 2.5 0.796324
      vertex -1.01976 -2.5 0.738486
      vertex -1.01976 2.5 0.738486
    endloop
  endfacet
  facet normal 0.75011 0 -0.661313
    outer loop
      vertex -2.4056 -2.5 -0.140994
      vertex -2.54269 2.5 -0.2965
      vertex -2.4056 2.5 -0.140994
    endloop
  endfacet
  facet normal 0.75011 0 -0.661313
    outer loop
      vertex -2.54269 2.5 -0.2965
      vertex -2.4056 -2.5 -0.140994
      vertex -2.54269 -2.5 -0.2965
    endloop
  endfacet
  facet normal 0.790154 0 -0.612908
    outer loop
      vertex -2.54269 -2.5 -0.2965
      vertex -2.66976 2.5 -0.460308
      vertex -2.54269 2.5 -0.2965
    endloop
  endfacet
  facet normal 0.790154 0 -0.612908
    outer loop
      vertex -2.66976 2.5 -0.460308
      vertex -2.54269 -2.5 -0.2965
      vertex -2.66976 -2.5 -0.460308
    endloop
  endfacet
  facet normal -0.0314103 0 -0.999507
    outer loop
      vertex 0 -2.5 0.9
      vertex 0.207209 2.5 0.893488
      vertex 0.207209 -2.5 0.893488
    endloop
  endfacet
  facet normal -0.0314103 0 -0.999507
    outer loop
      vertex 0.207209 2.5 0.893488
      vertex 0 -2.5 0.9
      vertex 0 2.5 0.9
    endloop
  endfacet
  facet normal -0.218142 0 -0.975917
    outer loop
      vertex 0.618358 -2.5 0.841547
      vertex 0.820676 2.5 0.796324
      vertex 0.820676 -2.5 0.796324
    endloop
  endfacet
  facet normal -0.218142 0 -0.975917
    outer loop
      vertex 0.820676 2.5 0.796324
      vertex 0.618358 -2.5 0.841547
      vertex 0.618358 2.5 0.841547
    endloop
  endfacet
  facet normal -0.612905 0 -0.790156
    outer loop
      vertex 1.93969 -2.5 0.269755
      vertex 2.1035 2.5 0.142694
      vertex 2.1035 -2.5 0.142694
    endloop
  endfacet
  facet normal -0.612905 0 -0.790156
    outer loop
      vertex 2.1035 2.5 0.142694
      vertex 1.93969 -2.5 0.269755
      vertex 1.93969 2.5 0.269755
    endloop
  endfacet
  facet normal -0.397145 0 -0.917756
    outer loop
      vertex 1.21481 -2.5 0.668262
      vertex 1.40507 2.5 0.585929
      vertex 1.40507 -2.5 0.585929
    endloop
  endfacet
  facet normal -0.397145 0 -0.917756
    outer loop
      vertex 1.40507 2.5 0.585929
      vertex 1.21481 -2.5 0.668262
      vertex 1.21481 2.5 0.668262
    endloop
  endfacet
  facet normal -0.75011 0 -0.661313
    outer loop
      vertex 2.54269 -2.5 -0.2965
      vertex 2.4056 2.5 -0.140994
      vertex 2.54269 2.5 -0.2965
    endloop
  endfacet
  facet normal -0.75011 -0 -0.661313
    outer loop
      vertex 2.4056 2.5 -0.140994
      vertex 2.54269 -2.5 -0.2965
      vertex 2.4056 -2.5 -0.140994
    endloop
  endfacet
  facet normal -0.827082 0 -0.562082
    outer loop
      vertex 2.78628 -2.5 -0.631771
      vertex 2.66976 2.5 -0.460308
      vertex 2.78628 2.5 -0.631771
    endloop
  endfacet
  facet normal -0.827082 -0 -0.562082
    outer loop
      vertex 2.66976 2.5 -0.460308
      vertex 2.78628 -2.5 -0.631771
      vertex 2.66976 -2.5 -0.460308
    endloop
  endfacet
  facet normal -0.940881 0 -0.338737
    outer loop
      vertex 3.13849 -2.5 -1.38024
      vertex 3.06826 2.5 -1.18519
      vertex 3.13849 2.5 -1.38024
    endloop
  endfacet
  facet normal -0.940881 -0 -0.338737
    outer loop
      vertex 3.06826 2.5 -1.18519
      vertex 3.13849 -2.5 -1.38024
      vertex 3.06826 -2.5 -1.18519
    endloop
  endfacet
  facet normal 0.707104 0 -0.707109
    outer loop
      vertex -2.4056 -2.5 -0.140994
      vertex -2.259 2.5 0.00559616
      vertex -2.259 -2.5 0.00559616
    endloop
  endfacet
  facet normal 0.707104 0 -0.707109
    outer loop
      vertex -2.259 2.5 0.00559616
      vertex -2.4056 -2.5 -0.140994
      vertex -2.4056 2.5 -0.140994
    endloop
  endfacet
  facet normal 0.612905 0 -0.790156
    outer loop
      vertex -2.1035 -2.5 0.142694
      vertex -1.93969 2.5 0.269755
      vertex -1.93969 -2.5 0.269755
    endloop
  endfacet
  facet normal 0.612905 0 -0.790156
    outer loop
      vertex -1.93969 2.5 0.269755
      vertex -2.1035 -2.5 0.142694
      vertex -2.1035 2.5 0.142694
    endloop
  endfacet
  facet normal 0.661313 0 -0.75011
    outer loop
      vertex -2.259 -2.5 0.00559616
      vertex -2.1035 2.5 0.142694
      vertex -2.1035 -2.5 0.142694
    endloop
  endfacet
  facet normal 0.661313 0 -0.75011
    outer loop
      vertex -2.1035 2.5 0.142694
      vertex -2.259 -2.5 0.00559616
      vertex -2.259 2.5 0.00559616
    endloop
  endfacet
  facet normal 0.397145 0 -0.917756
    outer loop
      vertex -1.40507 -2.5 0.585929
      vertex -1.21481 2.5 0.668262
      vertex -1.21481 -2.5 0.668262
    endloop
  endfacet
  facet normal 0.397145 0 -0.917756
    outer loop
      vertex -1.21481 2.5 0.668262
      vertex -1.40507 -2.5 0.585929
      vertex -1.40507 2.5 0.585929
    endloop
  endfacet
  facet normal 0.860742 0 -0.509042
    outer loop
      vertex -2.78628 -2.5 -0.631771
      vertex -2.89181 2.5 -0.810212
      vertex -2.78628 2.5 -0.631771
    endloop
  endfacet
  facet normal 0.860742 0 -0.509042
    outer loop
      vertex -2.89181 2.5 -0.810212
      vertex -2.78628 -2.5 -0.631771
      vertex -2.89181 -2.5 -0.810212
    endloop
  endfacet
  facet normal 0.960293 0 -0.278993
    outer loop
      vertex -3.13849 -2.5 -1.38024
      vertex -3.19632 2.5 -1.57932
      vertex -3.13849 2.5 -1.38024
    endloop
  endfacet
  facet normal 0.960293 0 -0.278993
    outer loop
      vertex -3.19632 2.5 -1.57932
      vertex -3.13849 -2.5 -1.38024
      vertex -3.19632 -2.5 -1.57932
    endloop
  endfacet
  facet normal 0.917754 0 -0.397149
    outer loop
      vertex -2.98593 -2.5 -0.994927
      vertex -3.06826 2.5 -1.18519
      vertex -2.98593 2.5 -0.994927
    endloop
  endfacet
  facet normal 0.917754 0 -0.397149
    outer loop
      vertex -3.06826 2.5 -1.18519
      vertex -2.98593 -2.5 -0.994927
      vertex -3.06826 -2.5 -1.18519
    endloop
  endfacet
  facet normal -0.790154 0 -0.612908
    outer loop
      vertex 2.66976 -2.5 -0.460308
      vertex 2.54269 2.5 -0.2965
      vertex 2.66976 2.5 -0.460308
    endloop
  endfacet
  facet normal -0.790154 -0 -0.612908
    outer loop
      vertex 2.54269 2.5 -0.2965
      vertex 2.66976 -2.5 -0.460308
      vertex 2.54269 -2.5 -0.2965
    endloop
  endfacet
  facet normal -0.707104 0 -0.707109
    outer loop
      vertex 2.259 -2.5 0.00559616
      vertex 2.4056 2.5 -0.140994
      vertex 2.4056 -2.5 -0.140994
    endloop
  endfacet
  facet normal -0.707104 0 -0.707109
    outer loop
      vertex 2.4056 2.5 -0.140994
      vertex 2.259 -2.5 0.00559616
      vertex 2.259 2.5 0.00559616
    endloop
  endfacet
  facet normal -0.661313 0 -0.75011
    outer loop
      vertex 2.1035 -2.5 0.142694
      vertex 2.259 2.5 0.00559616
      vertex 2.259 -2.5 0.00559616
    endloop
  endfacet
  facet normal -0.661313 0 -0.75011
    outer loop
      vertex 2.259 2.5 0.00559616
      vertex 2.1035 -2.5 0.142694
      vertex 2.1035 2.5 0.142694
    endloop
  endfacet
  facet normal 0.509042 0 -0.860742
    outer loop
      vertex -1.76823 -2.5 0.386282
      vertex -1.58979 2.5 0.491812
      vertex -1.58979 -2.5 0.491812
    endloop
  endfacet
  facet normal 0.509042 0 -0.860742
    outer loop
      vertex -1.58979 2.5 0.491812
      vertex -1.76823 -2.5 0.386282
      vertex -1.76823 2.5 0.386282
    endloop
  endfacet
  facet normal 0.940881 0 -0.338737
    outer loop
      vertex -3.06826 -2.5 -1.18519
      vertex -3.13849 2.5 -1.38024
      vertex -3.06826 2.5 -1.18519
    endloop
  endfacet
  facet normal 0.940881 0 -0.338737
    outer loop
      vertex -3.13849 2.5 -1.38024
      vertex -3.06826 -2.5 -1.18519
      vertex -3.13849 -2.5 -1.38024
    endloop
  endfacet
  facet normal 0.827082 0 -0.562082
    outer loop
      vertex -2.66976 -2.5 -0.460308
      vertex -2.78628 2.5 -0.631771
      vertex -2.66976 2.5 -0.460308
    endloop
  endfacet
  facet normal 0.827082 0 -0.562082
    outer loop
      vertex -2.78628 2.5 -0.631771
      vertex -2.66976 -2.5 -0.460308
      vertex -2.78628 -2.5 -0.631771
    endloop
  endfacet
endsolid OpenSCAD_Model
