solid OpenSCAD_Model
  facet normal -1 0 0
    outer loop
      vertex -5 -2.5 -2.5
      vertex -5 2.5 2.5
      vertex -5 2.5 -2.5
    endloop
  endfacet
  facet normal -1 -0 0
    outer loop
      vertex -5 2.5 2.5
      vertex -5 -2.5 -2.5
      vertex -5 -2.5 2.5
    endloop
  endfacet
  facet normal -0 0 1
    outer loop
      vertex -5 2.5 2.5
      vertex 5 -2.5 2.5
      vertex 5 2.5 2.5
    endloop
  endfacet
  facet normal 0 0 1
    outer loop
      vertex 5 -2.5 2.5
      vertex -5 2.5 2.5
      vertex -5 -2.5 2.5
    endloop
  endfacet
  facet normal 1 -0 0
    outer loop
      vertex 5 -2.5 2.5
      vertex 5 2.5 -2.5
      vertex 5 2.5 2.5
    endloop
  endfacet
  facet normal 1 0 0
    outer loop
      vertex 5 2.5 -2.5
      vertex 5 -2.5 2.5
      vertex 5 -2.5 -2.5
    endloop
  endfacet
  facet normal 0 1 0
    outer loop
      vertex 5 2.5 2.5
      vertex 0 2.5 1.2
      vertex -5 2.5 2.5
    endloop
  endfacet
  facet normal 0 1 0
    outer loop
      vertex 5 2.5 2.5
      vertex 0.244883 2.5 1.1923
      vertex 0 2.5 1.2
    endloop
  endfacet
  facet normal 0 1 0
    outer loop
      vertex 5 2.5 2.5
      vertex 0.488799 2.5 1.16925
      vertex 0.244883 2.5 1.1923
    endloop
  endfacet
  facet normal 0 1 0
    outer loop
      vertex 5 2.5 2.5
      vertex 0.730786 2.5 1.13092
      vertex 0.488799 2.5 1.16925
    endloop
  endfacet
  facet normal 0 1 0
    outer loop
      vertex 5 2.5 2.5
      vertex 0.96989 2.5 1.07747
      vertex 0.730786 2.5 1.13092
    endloop
  endfacet
  facet normal 0 1 0
    outer loop
      vertex 5 2.5 2.5
      vertex 1.20517 2.5 1.00912
      vertex 0.96989 2.5 1.07747
    endloop
  endfacet
  facet normal 0 1 0
    outer loop
      vertex 5 2.5 2.5
      vertex 1.43569 2.5 0.926127
      vertex 1.20517 2.5 1.00912
    endloop
  endfacet
  facet normal 0 1 0
    outer loop
      vertex 5 2.5 2.5
      vertex 1.66054 2.5 0.828825
      vertex 1.43569 2.5 0.926127
    endloop
  endfacet
  facet normal 0 1 0
    outer loop
      vertex 5 2.5 2.5
      vertex 1.87884 2.5 0.717595
      vertex 1.66054 2.5 0.828825
    endloop
  endfacet
  facet normal 0 1 0
    outer loop
      vertex 5 2.5 2.5
      vertex 2.08972 2.5 0.592878
      vertex 1.87884 2.5 0.717595
    endloop
  endfacet
  facet normal 0 1 0
    outer loop
      vertex 5 2.5 2.5
      vertex 2.29236 2.5 0.455166
      vertex 2.08972 2.5 0.592878
    endloop
  endfacet
  facet normal 0 1 0
    outer loop
      vertex 5 2.5 2.5
      vertex 2.48595 2.5 0.305001
      vertex 2.29236 2.5 0.455166
    endloop
  endfacet
  facet normal 0 1 0
    outer loop
      vertex 5 2.5 2.5
      vertex 2.66973 2.5 0.142977
      vertex 2.48595 2.5 0.305001
    endloop
  endfacet
  facet normal 0 1 0
    outer loop
      vertex 5 2.5 2.5
      vertex 2.84298 2.5 -0.0302658
      vertex 2.66973 2.5 0.142977
    endloop
  endfacet
  facet normal 0 1 0
    outer loop
      vertex 5 2.5 2.5
      vertex 3.005 2.5 -0.214046
      vertex 2.84298 2.5 -0.0302658
    endloop
  endfacet
  facet normal 0 1 0
    outer loop
      vertex 5 2.5 2.5
      vertex 3.15517 2.5 -0.407637
      vertex 3.005 2.5 -0.214046
    endloop
  endfacet
  facet normal 0 1 0
    outer loop
      vertex 5 2.5 2.5
      vertex 3.29288 2.5 -0.610275
      vertex 3.15517 2.5 -0.407637
    endloop
  endfacet
  facet normal 0 1 0
    outer loop
      vertex 5 2.5 2.5
      vertex 3.4176 2.5 -0.82116
      vertex 3.29288 2.5 -0.610275
    endloop
  endfacet
  facet normal 0 1 0
    outer loop
      vertex 5 2.5 2.5
      vertex 3.52882 2.5 -1.03946
      vertex 3.4176 2.5 -0.82116
    endloop
  endfacet
  facet normal 0 1 -0
    outer loop
      vertex 5 2.5 -2.5
      vertex 3.52882 2.5 -1.03946
      vertex 5 2.5 2.5
    endloop
  endfacet
  facet normal 0 1 0
    outer loop
      vertex 3.52882 2.5 -1.03946
      vertex 5 2.5 -2.5
      vertex 3.62613 2.5 -1.26431
    endloop
  endfacet
  facet normal 0 1 0
    outer loop
      vertex 3.62613 2.5 -1.26431
      vertex 5 2.5 -2.5
      vertex 3.70912 2.5 -1.49483
    endloop
  endfacet
  facet normal 0 1 0
    outer loop
      vertex 3.70912 2.5 -1.49483
      vertex 5 2.5 -2.5
      vertex 3.77747 2.5 -1.73011
    endloop
  endfacet
  facet normal 0 1 0
    outer loop
      vertex 3.77747 2.5 -1.73011
      vertex 5 2.5 -2.5
      vertex 3.83092 2.5 -1.96921
    endloop
  endfacet
  facet normal 0 1 0
    outer loop
      vertex 3.83092 2.5 -1.96921
      vertex 5 2.5 -2.5
      vertex 3.86925 2.5 -2.2112
    endloop
  endfacet
  facet normal 0 1 0
    outer loop
      vertex 3.86925 2.5 -2.2112
      vertex 5 2.5 -2.5
      vertex 3.8923 2.5 -2.45512
    endloop
  endfacet
  facet normal 0 1 0
    outer loop
      vertex 3.8923 2.5 -2.45512
      vertex 5 2.5 -2.5
      vertex 3.89371 2.5 -2.5
    endloop
  endfacet
  facet normal 0 1 -0
    outer loop
      vertex -0.244883 2.5 1.1923
      vertex -5 2.5 2.5
      vertex 0 2.5 1.2
    endloop
  endfacet
  facet normal 0 1 -0
    outer loop
      vertex -0.488799 2.5 1.16925
      vertex -5 2.5 2.5
      vertex -0.244883 2.5 1.1923
    endloop
  endfacet
  facet normal 0 1 -0
    outer loop
      vertex -0.730786 2.5 1.13092
      vertex -5 2.5 2.5
      vertex -0.488799 2.5 1.16925
    endloop
  endfacet
  facet normal 0 1 -0
    outer loop
      vertex -0.96989 2.5 1.07747
      vertex -5 2.5 2.5
      vertex -0.730786 2.5 1.13092
    endloop
  endfacet
  facet normal 0 1 -0
    outer loop
      vertex -1.20517 2.5 1.00912
      vertex -5 2.5 2.5
      vertex -0.96989 2.5 1.07747
    endloop
  endfacet
  facet normal 0 1 -0
    outer loop
      vertex -1.43569 2.5 0.926127
      vertex -5 2.5 2.5
      vertex -1.20517 2.5 1.00912
    endloop
  endfacet
  facet normal 0 1 -0
    outer loop
      vertex -1.66054 2.5 0.828825
      vertex -5 2.5 2.5
      vertex -1.43569 2.5 0.926127
    endloop
  endfacet
  facet normal 0 1 -0
    outer loop
      vertex -1.87884 2.5 0.717595
      vertex -5 2.5 2.5
      vertex -1.66054 2.5 0.828825
    endloop
  endfacet
  facet normal 0 1 -0
    outer loop
      vertex -2.08972 2.5 0.592878
      vertex -5 2.5 2.5
      vertex -1.87884 2.5 0.717595
    endloop
  endfacet
  facet normal 0 1 -0
    outer loop
      vertex -2.29236 2.5 0.455166
      vertex -5 2.5 2.5
      vertex -2.08972 2.5 0.592878
    endloop
  endfacet
  facet normal 0 1 -0
    outer loop
      vertex -2.48595 2.5 0.305001
      vertex -5 2.5 2.5
      vertex -2.29236 2.5 0.455166
    endloop
  endfacet
  facet normal 0 1 -0
    outer loop
      vertex -2.66973 2.5 0.142977
      vertex -5 2.5 2.5
      vertex -2.48595 2.5 0.305001
    endloop
  endfacet
  facet normal 0 1 -0
    outer loop
      vertex -2.84298 2.5 -0.0302658
      vertex -5 2.5 2.5
      vertex -2.66973 2.5 0.142977
    endloop
  endfacet
  facet normal 0 1 -0
    outer loop
      vertex -3.005 2.5 -0.214046
      vertex -5 2.5 2.5
      vertex -2.84298 2.5 -0.0302658
    endloop
  endfacet
  facet normal 0 1 -0
    outer loop
      vertex -3.15517 2.5 -0.407637
      vertex -5 2.5 2.5
      vertex -3.005 2.5 -0.214046
    endloop
  endfacet
  facet normal 0 1 -0
    outer loop
      vertex -3.29288 2.5 -0.610275
      vertex -5 2.5 2.5
      vertex -3.15517 2.5 -0.407637
    endloop
  endfacet
  facet normal 0 1 -0
    outer loop
      vertex -3.4176 2.5 -0.82116
      vertex -5 2.5 2.5
      vertex -3.29288 2.5 -0.610275
    endloop
  endfacet
  facet normal 0 1 -0
    outer loop
      vertex -3.52882 2.5 -1.03946
      vertex -5 2.5 2.5
      vertex -3.4176 2.5 -0.82116
    endloop
  endfacet
  facet normal 0 1 0
    outer loop
      vertex -5 2.5 -2.5
      vertex -3.52882 2.5 -1.03946
      vertex -3.62613 2.5 -1.26431
    endloop
  endfacet
  facet normal 0 1 0
    outer loop
      vertex -5 2.5 -2.5
      vertex -3.62613 2.5 -1.26431
      vertex -3.70912 2.5 -1.49483
    endloop
  endfacet
  facet normal 0 1 0
    outer loop
      vertex -5 2.5 -2.5
      vertex -3.70912 2.5 -1.49483
      vertex -3.77747 2.5 -1.73011
    endloop
  endfacet
  facet normal 0 1 0
    outer loop
      vertex -5 2.5 -2.5
      vertex -3.77747 2.5 -1.73011
      vertex -3.83092 2.5 -1.96921
    endloop
  endfacet
  facet normal 0 1 0
    outer loop
      vertex -5 2.5 -2.5
      vertex -3.83092 2.5 -1.96921
      vertex -3.86925 2.5 -2.2112
    endloop
  endfacet
  facet normal 0 1 0
    outer loop
      vertex -5 2.5 -2.5
      vertex -3.86925 2.5 -2.2112
      vertex -3.8923 2.5 -2.45512
    endloop
  endfacet
  facet normal 0 1 0
    outer loop
      vertex -5 2.5 -2.5
      vertex -3.8923 2.5 -2.45512
      vertex -3.89371 2.5 -2.5
    endloop
  endfacet
  facet normal 0 1 0
    outer loop
      vertex -3.52882 2.5 -1.03946
      vertex -5 2.5 -2.5
      vertex -5 2.5 2.5
    endloop
  endfacet
  facet normal 0 0 -1
    outer loop
      vertex -5 -2.5 -2.5
      vertex -3.89371 2.5 -2.5
      vertex -3.89371 -2.5 -2.5
    endloop
  endfacet
  facet normal -0 0 -1
    outer loop
      vertex -3.89371 2.5 -2.5
      vertex -5 -2.5 -2.5
      vertex -5 2.5 -2.5
    endloop
  endfacet
  facet normal 0 0 -1
    outer loop
      vertex 3.89371 -2.5 -2.5
      vertex 5 2.5 -2.5
      vertex 5 -2.5 -2.5
    endloop
  endfacet
  facet normal -0 0 -1
    outer loop
      vertex 5 2.5 -2.5
      vertex 3.89371 -2.5 -2.5
      vertex 3.89371 2.5 -2.5
    endloop
  endfacet
  facet normal 0 -1 0
    outer loop
      vertex -5 -2.5 2.5
      vertex 0 -2.5 1.2
      vertex 5 -2.5 2.5
    endloop
  endfacet
  facet normal 0 -1 0
    outer loop
      vertex -5 -2.5 2.5
      vertex -0.244883 -2.5 1.1923
      vertex 0 -2.5 1.2
    endloop
  endfacet
  facet normal 0 -1 0
    outer loop
      vertex -5 -2.5 2.5
      vertex -0.488799 -2.5 1.16925
      vertex -0.244883 -2.5 1.1923
    endloop
  endfacet
  facet normal 0 -1 0
    outer loop
      vertex -5 -2.5 2.5
      vertex -0.730786 -2.5 1.13092
      vertex -0.488799 -2.5 1.16925
    endloop
  endfacet
  facet normal 0 -1 0
    outer loop
      vertex -5 -2.5 2.5
      vertex -0.96989 -2.5 1.07747
      vertex -0.730786 -2.5 1.13092
    endloop
  endfacet
  facet normal 0 -1 0
    outer loop
      vertex -5 -2.5 2.5
      vertex -1.20517 -2.5 1.00912
      vertex -0.96989 -2.5 1.07747
    endloop
  endfacet
  facet normal 0 -1 0
    outer loop
      vertex -5 -2.5 2.5
      vertex -1.43569 -2.5 0.926127
      vertex -1.20517 -2.5 1.00912
    endloop
  endfacet
  facet normal 0 -1 0
    outer loop
      vertex -5 -2.5 2.5
      vertex -1.66054 -2.5 0.828825
      vertex -1.43569 -2.5 0.926127
    endloop
  endfacet
  facet normal 0 -1 0
    outer loop
      vertex -5 -2.5 2.5
      vertex -1.87884 -2.5 0.717595
      vertex -1.66054 -2.5 0.828825
    endloop
  endfacet
  facet normal 0 -1 0
    outer loop
      vertex -5 -2.5 2.5
      vertex -2.08972 -2.5 0.592878
      vertex -1.87884 -2.5 0.717595
    endloop
  endfacet
  facet normal 0 -1 0
    outer loop
      vertex -5 -2.5 2.5
      vertex -2.29236 -2.5 0.455166
      vertex -2.08972 -2.5 0.592878
    endloop
  endfacet
  facet normal 0 -1 0
    outer loop
      vertex -5 -2.5 2.5
      vertex -2.48595 -2.5 0.305001
      vertex -2.29236 -2.5 0.455166
    endloop
  endfacet
  facet normal 0 -1 0
    outer loop
      vertex -5 -2.5 2.5
      vertex -2.66973 -2.5 0.142977
      vertex -2.48595 -2.5 0.305001
    endloop
  endfacet
  facet normal 0 -1 0
    outer loop
      vertex -5 -2.5 2.5
      vertex -2.84298 -2.5 -0.0302658
      vertex -2.66973 -2.5 0.142977
    endloop
  endfacet
  facet normal 0 -1 0
    outer loop
      vertex -5 -2.5 2.5
      vertex -3.005 -2.5 -0.214046
      vertex -2.84298 -2.5 -0.0302658
    endloop
  endfacet
  facet normal 0 -1 0
    outer loop
      vertex -5 -2.5 2.5
      vertex -3.15517 -2.5 -0.407637
      vertex -3.005 -2.5 -0.214046
    endloop
  endfacet
  facet normal 0 -1 0
    outer loop
      vertex -5 -2.5 2.5
      vertex -3.29288 -2.5 -0.610275
      vertex -3.15517 -2.5 -0.407637
    endloop
  endfacet
  facet normal 0 -1 0
    outer loop
      vertex -5 -2.5 2.5
      vertex -3.4176 -2.5 -0.82116
      vertex -3.29288 -2.5 -0.610275
    endloop
  endfacet
  facet normal 0 -1 0
    outer loop
      vertex -5 -2.5 2.5
      vertex -3.52882 -2.5 -1.03946
      vertex -3.4176 -2.5 -0.82116
    endloop
  endfacet
  facet normal 0 -1 0
    outer loop
      vertex -5 -2.5 -2.5
      vertex -3.52882 -2.5 -1.03946
      vertex -5 -2.5 2.5
    endloop
  endfacet
  facet normal 0 -1 0
    outer loop
      vertex -3.52882 -2.5 -1.03946
      vertex -5 -2.5 -2.5
      vertex -3.62613 -2.5 -1.26431
    endloop
  endfacet
  facet normal 0 -1 0
    outer loop
      vertex -3.62613 -2.5 -1.26431
      vertex -5 -2.5 -2.5
      vertex -3.70912 -2.5 -1.49483
    endloop
  endfacet
  facet normal 0 -1 0
    outer loop
      vertex -3.70912 -2.5 -1.49483
      vertex -5 -2.5 -2.5
      vertex -3.77747 -2.5 -1.73011
    endloop
  endfacet
  facet normal 0 -1 0
    outer loop
      vertex -3.77747 -2.5 -1.73011
      vertex -5 -2.5 -2.5
      vertex -3.83092 -2.5 -1.96921
    endloop
  endfacet
  facet normal 0 -1 0
    outer loop
      vertex -3.83092 -2.5 -1.96921
      vertex -5 -2.5 -2.5
      vertex -3.86925 -2.5 -2.2112
    endloop
  endfacet
  facet normal 0 -1 0
    outer loop
      vertex -3.86925 -2.5 -2.2112
      vertex -5 -2.5 -2.5
      vertex -3.8923 -2.5 -2.45512
    endloop
  endfacet
  facet normal 0 -1 0
    outer loop
      vertex -3.8923 -2.5 -2.45512
      vertex -5 -2.5 -2.5
      vertex -3.89371 -2.5 -2.5
    endloop
  endfacet
  facet normal 0 -1 0
    outer loop
      vertex 0.244883 -2.5 1.1923
      vertex 5 -2.5 2.5
      vertex 0 -2.5 1.2
    endloop
  endfacet
  facet normal 0 -1 0
    outer loop
      vertex 0.488799 -2.5 1.16925
      vertex 5 -2.5 2.5
      vertex 0.244883 -2.5 1.1923
    endloop
  endfacet
  facet normal 0 -1 0
    outer loop
      vertex 0.730786 -2.5 1.13092
      vertex 5 -2.5 2.5
      vertex 0.488799 -2.5 1.16925
    endloop
  endfacet
  facet normal 0 -1 0
    outer loop
      vertex 0.96989 -2.5 1.07747
      vertex 5 -2.5 2.5
      vertex 0.730786 -2.5 1.13092
    endloop
  endfacet
  facet normal 0 -1 0
    outer loop
      vertex 1.20517 -2.5 1.00912
      vertex 5 -2.5 2.5
      vertex 0.96989 -2.5 1.07747
    endloop
  endfacet
  facet normal 0 -1 0
    outer loop
      vertex 1.43569 -2.5 0.926127
      vertex 5 -2.5 2.5
      vertex 1.20517 -2.5 1.00912
    endloop
  endfacet
  facet normal 0 -1 0
    outer loop
      vertex 1.66054 -2.5 0.828825
      vertex 5 -2.5 2.5
      vertex 1.43569 -2.5 0.926127
    endloop
  endfacet
  facet normal 0 -1 0
    outer loop
      vertex 1.87884 -2.5 0.717595
      vertex 5 -2.5 2.5
      vertex 1.66054 -2.5 0.828825
    endloop
  endfacet
  facet normal 0 -1 0
    outer loop
      vertex 2.08972 -2.5 0.592878
      vertex 5 -2.5 2.5
      vertex 1.87884 -2.5 0.717595
    endloop
  endfacet
  facet normal 0 -1 0
    outer loop
      vertex 2.29236 -2.5 0.455166
      vertex 5 -2.5 2.5
      vertex 2.08972 -2.5 0.592878
    endloop
  endfacet
  facet normal 0 -1 0
    outer loop
      vertex 2.48595 -2.5 0.305001
      vertex 5 -2.5 2.5
      vertex 2.29236 -2.5 0.455166
    endloop
  endfacet
  facet normal 0 -1 0
    outer loop
      vertex 2.66973 -2.5 0.142977
      vertex 5 -2.5 2.5
      vertex 2.48595 -2.5 0.305001
    endloop
  endfacet
  facet normal 0 -1 0
    outer loop
      vertex 2.84298 -2.5 -0.0302658
      vertex 5 -2.5 2.5
      vertex 2.66973 -2.5 0.142977
    endloop
  endfacet
  facet normal 0 -1 0
    outer loop
      vertex 3.005 -2.5 -0.214046
      vertex 5 -2.5 2.5
      vertex 2.84298 -2.5 -0.0302658
    endloop
  endfacet
  facet normal 0 -1 0
    outer loop
      vertex 3.15517 -2.5 -0.407637
      vertex 5 -2.5 2.5
      vertex 3.005 -2.5 -0.214046
    endloop
  endfacet
  facet normal 0 -1 0
    outer loop
      vertex 3.29288 -2.5 -0.610275
      vertex 5 -2.5 2.5
      vertex 3.15517 -2.5 -0.407637
    endloop
  endfacet
  facet normal 0 -1 0
    outer loop
      vertex 3.4176 -2.5 -0.82116
      vertex 5 -2.5 2.5
      vertex 3.29288 -2.5 -0.610275
    endloop
  endfacet
  facet normal 0 -1 0
    outer loop
      vertex 3.52882 -2.5 -1.03946
      vertex 5 -2.5 2.5
      vertex 3.4176 -2.5 -0.82116
    endloop
  endfacet
  facet normal 0 -1 0
    outer loop
      vertex 5 -2.5 -2.5
      vertex 3.52882 -2.5 -1.03946
      vertex 3.62613 -2.5 -1.26431
    endloop
  endfacet
  facet normal 0 -1 0
    outer loop
      vertex 5 -2.5 -2.5
      vertex 3.62613 -2.5 -1.26431
      vertex 3.70912 -2.5 -1.49483
    endloop
  endfacet
  facet normal 0 -1 0
    outer loop
      vertex 5 -2.5 -2.5
      vertex 3.70912 -2.5 -1.49483
      vertex 3.77747 -2.5 -1.73011
    endloop
  endfacet
  facet normal 0 -1 0
    outer loop
      vertex 5 -2.5 -2.5
      vertex 3.77747 -2.5 -1.73011
      vertex 3.83092 -2.5 -1.96921
    endloop
  endfacet
  facet normal 0 -1 0
    outer loop
      vertex 5 -2.5 -2.5
      vertex 3.83092 -2.5 -1.96921
      vertex 3.86925 -2.5 -2.2112
    endloop
  endfacet
  facet normal 0 -1 0
    outer loop
      vertex 5 -2.5 -2.5
      vertex 3.86925 -2.5 -2.2112
      vertex 3.8923 -2.5 -2.45512
    endloop
  endfacet
  facet normal 0 -1 0
    outer loop
      vertex 5 -2.5 -2.5
      vertex 3.8923 -2.5 -2.45512
      vertex 3.89371 -2.5 -2.5
    endloop
  endfacet
  facet normal 0 -1 0
    outer loop
      vertex 3.52882 -2.5 -1.03946
      vertex 5 -2.5 -2.5
      vertex 5 -2.5 2.5
    endloop
  endfacet
  facet normal -0.999507 0 -0.0314098
    outer loop
      vertex 3.89371 -2.5 -2.5
      vertex 3.8923 2.5 -2.45512
      vertex 3.89371 2.5 -2.5
    endloop
  endfacet
  facet normal -0.999507 -0 -0.0314098
    outer loop
      vertex 3.8923 2.5 -2.45512
      vertex 3.89371 -2.5 -2.5
      vertex 3.8923 -2.5 -2.45512
    endloop
  endfacet
  facet normal -0.995562 0 -0.0941087
    outer loop
      vertex 3.8923 -2.5 -2.45512
      vertex 3.86925 2.5 -2.2112
      vertex 3.8923 2.5 -2.45512
    endloop
  endfacet
  facet normal -0.995562 -0 -0.0941087
    outer loop
      vertex 3.86925 2.5 -2.2112
      vertex 3.8923 -2.5 -2.45512
      vertex 3.86925 -2.5 -2.2112
    endloop
  endfacet
  facet normal 0.999507 0 -0.0314098
    outer loop
      vertex -3.8923 -2.5 -2.45512
      vertex -3.89371 2.5 -2.5
      vertex -3.8923 2.5 -2.45512
    endloop
  endfacet
  facet normal 0.999507 0 -0.0314098
    outer loop
      vertex -3.89371 2.5 -2.5
      vertex -3.8923 -2.5 -2.45512
      vertex -3.89371 -2.5 -2.5
    endloop
  endfacet
  facet normal 0.0314124 0 -0.999507
    outer loop
      vertex -0.244883 -2.5 1.1923
      vertex 0 2.5 1.2
      vertex 0 -2.5 1.2
    endloop
  endfacet
  facet normal 0.0314124 0 -0.999507
    outer loop
      vertex 0 2.5 1.2
      vertex -0.244883 -2.5 1.1923
      vertex -0.244883 2.5 1.1923
    endloop
  endfacet
  facet normal -0.0314124 0 -0.999507
    outer loop
      vertex 0 -2.5 1.2
      vertex 0.244883 2.5 1.1923
      vertex 0.244883 -2.5 1.1923
    endloop
  endfacet
  facet normal -0.0314124 0 -0.999507
    outer loop
      vertex 0.244883 2.5 1.1923
      vertex 0 -2.5 1.2
      vertex 0 2.5 1.2
    endloop
  endfacet
  facet normal 0.987689 0 -0.156431
    outer loop
      vertex -3.83092 -2.5 -1.96921
      vertex -3.86925 2.5 -2.2112
      vertex -3.83092 2.5 -1.96921
    endloop
  endfacet
  facet normal 0.987689 0 -0.156431
    outer loop
      vertex -3.86925 2.5 -2.2112
      vertex -3.83092 -2.5 -1.96921
      vertex -3.86925 -2.5 -2.2112
    endloop
  endfacet
  facet normal -0.987689 0 -0.156431
    outer loop
      vertex 3.86925 -2.5 -2.2112
      vertex 3.83092 2.5 -1.96921
      vertex 3.86925 2.5 -2.2112
    endloop
  endfacet
  facet normal -0.987689 -0 -0.156431
    outer loop
      vertex 3.83092 2.5 -1.96921
      vertex 3.86925 -2.5 -2.2112
      vertex 3.83092 -2.5 -1.96921
    endloop
  endfacet
  facet normal -0.661314 0 -0.750109
    outer loop
      vertex 2.48595 -2.5 0.305001
      vertex 2.66973 2.5 0.142977
      vertex 2.66973 -2.5 0.142977
    endloop
  endfacet
  facet normal -0.661314 0 -0.750109
    outer loop
      vertex 2.66973 2.5 0.142977
      vertex 2.48595 -2.5 0.305001
      vertex 2.48595 2.5 0.305001
    endloop
  endfacet
  facet normal 0.975916 0 -0.218147
    outer loop
      vertex -3.77747 -2.5 -1.73011
      vertex -3.83092 2.5 -1.96921
      vertex -3.77747 2.5 -1.73011
    endloop
  endfacet
  facet normal 0.975916 0 -0.218147
    outer loop
      vertex -3.83092 2.5 -1.96921
      vertex -3.77747 -2.5 -1.73011
      vertex -3.83092 -2.5 -1.96921
    endloop
  endfacet
  facet normal 0.0941087 0 -0.995562
    outer loop
      vertex -0.488799 -2.5 1.16925
      vertex -0.244883 2.5 1.1923
      vertex -0.244883 -2.5 1.1923
    endloop
  endfacet
  facet normal 0.0941087 0 -0.995562
    outer loop
      vertex -0.244883 2.5 1.1923
      vertex -0.488799 -2.5 1.16925
      vertex -0.488799 2.5 1.16925
    endloop
  endfacet
  facet normal -0.33874 0 -0.94088
    outer loop
      vertex 1.20517 -2.5 1.00912
      vertex 1.43569 2.5 0.926127
      vertex 1.43569 -2.5 0.926127
    endloop
  endfacet
  facet normal -0.33874 0 -0.94088
    outer loop
      vertex 1.43569 2.5 0.926127
      vertex 1.20517 -2.5 1.00912
      vertex 1.20517 2.5 1.00912
    endloop
  endfacet
  facet normal 0.995562 0 -0.0941087
    outer loop
      vertex -3.86925 -2.5 -2.2112
      vertex -3.8923 2.5 -2.45512
      vertex -3.86925 2.5 -2.2112
    endloop
  endfacet
  facet normal 0.995562 0 -0.0941087
    outer loop
      vertex -3.8923 2.5 -2.45512
      vertex -3.86925 -2.5 -2.2112
      vertex -3.8923 -2.5 -2.45512
    endloop
  endfacet
  facet normal 0.790155 0 -0.612907
    outer loop
      vertex -3.005 -2.5 -0.214046
      vertex -3.15517 2.5 -0.407637
      vertex -3.005 2.5 -0.214046
    endloop
  endfacet
  facet normal 0.790155 0 -0.612907
    outer loop
      vertex -3.15517 2.5 -0.407637
      vertex -3.005 -2.5 -0.214046
      vertex -3.15517 -2.5 -0.407637
    endloop
  endfacet
  facet normal -0.891007 0 -0.453989
    outer loop
      vertex 3.52882 -2.5 -1.03946
      vertex 3.4176 2.5 -0.82116
      vertex 3.52882 2.5 -1.03946
    endloop
  endfacet
  facet normal -0.891007 -0 -0.453989
    outer loop
      vertex 3.4176 2.5 -0.82116
      vertex 3.52882 -2.5 -1.03946
      vertex 3.4176 -2.5 -0.82116
    endloop
  endfacet
  facet normal -0.0941087 0 -0.995562
    outer loop
      vertex 0.244883 -2.5 1.1923
      vertex 0.488799 2.5 1.16925
      vertex 0.488799 -2.5 1.16925
    endloop
  endfacet
  facet normal -0.0941087 0 -0.995562
    outer loop
      vertex 0.488799 2.5 1.16925
      vertex 0.244883 -2.5 1.1923
      vertex 0.244883 2.5 1.1923
    endloop
  endfacet
  facet normal 0.33874 0 -0.94088
    outer loop
      vertex -1.43569 -2.5 0.926127
      vertex -1.20517 2.5 1.00912
      vertex -1.20517 -2.5 1.00912
    endloop
  endfacet
  facet normal 0.33874 0 -0.94088
    outer loop
      vertex -1.20517 2.5 1.00912
      vertex -1.43569 -2.5 0.926127
      vertex -1.43569 2.5 0.926127
    endloop
  endfacet
  facet normal 0.860741 0 -0.509043
    outer loop
      vertex -3.29288 -2.5 -0.610275
      vertex -3.4176 2.5 -0.82116
      vertex -3.29288 2.5 -0.610275
    endloop
  endfacet
  facet normal 0.860741 0 -0.509043
    outer loop
      vertex -3.4176 2.5 -0.82116
      vertex -3.29288 -2.5 -0.610275
      vertex -3.4176 -2.5 -0.82116
    endloop
  endfacet
  facet normal -0.50904 0 -0.860743
    outer loop
      vertex 1.87884 -2.5 0.717595
      vertex 2.08972 2.5 0.592878
      vertex 2.08972 -2.5 0.592878
    endloop
  endfacet
  facet normal -0.50904 0 -0.860743
    outer loop
      vertex 2.08972 2.5 0.592878
      vertex 1.87884 -2.5 0.717595
      vertex 1.87884 2.5 0.717595
    endloop
  endfacet
  facet normal -0.975916 0 -0.218147
    outer loop
      vertex 3.83092 -2.5 -1.96921
      vertex 3.77747 2.5 -1.73011
      vertex 3.83092 2.5 -1.96921
    endloop
  endfacet
  facet normal -0.975916 -0 -0.218147
    outer loop
      vertex 3.77747 2.5 -1.73011
      vertex 3.83092 -2.5 -1.96921
      vertex 3.77747 -2.5 -1.73011
    endloop
  endfacet
  facet normal -0.860741 0 -0.509043
    outer loop
      vertex 3.4176 -2.5 -0.82116
      vertex 3.29288 2.5 -0.610275
      vertex 3.4176 2.5 -0.82116
    endloop
  endfacet
  facet normal -0.860741 -0 -0.509043
    outer loop
      vertex 3.29288 2.5 -0.610275
      vertex 3.4176 -2.5 -0.82116
      vertex 3.29288 -2.5 -0.610275
    endloop
  endfacet
  facet normal 0.50904 0 -0.860743
    outer loop
      vertex -2.08972 -2.5 0.592878
      vertex -1.87884 2.5 0.717595
      vertex -1.87884 -2.5 0.717595
    endloop
  endfacet
  facet normal 0.50904 0 -0.860743
    outer loop
      vertex -1.87884 2.5 0.717595
      vertex -2.08972 -2.5 0.592878
      vertex -2.08972 2.5 0.592878
    endloop
  endfacet
  facet normal 0.707103 0 -0.707111
    outer loop
      vertex -2.84298 -2.5 -0.0302658
      vertex -2.66973 2.5 0.142977
      vertex -2.66973 -2.5 0.142977
    endloop
  endfacet
  facet normal 0.707103 0 -0.707111
    outer loop
      vertex -2.66973 2.5 0.142977
      vertex -2.84298 -2.5 -0.0302658
      vertex -2.84298 2.5 -0.0302658
    endloop
  endfacet
  facet normal -0.218143 0 -0.975917
    outer loop
      vertex 0.730786 -2.5 1.13092
      vertex 0.96989 2.5 1.07747
      vertex 0.96989 -2.5 1.07747
    endloop
  endfacet
  facet normal -0.218143 0 -0.975917
    outer loop
      vertex 0.96989 2.5 1.07747
      vertex 0.730786 -2.5 1.13092
      vertex 0.730786 2.5 1.13092
    endloop
  endfacet
  facet normal -0.453992 0 -0.891006
    outer loop
      vertex 1.66054 -2.5 0.828825
      vertex 1.87884 2.5 0.717595
      vertex 1.87884 -2.5 0.717595
    endloop
  endfacet
  facet normal -0.453992 0 -0.891006
    outer loop
      vertex 1.87884 2.5 0.717595
      vertex 1.66054 -2.5 0.828825
      vertex 1.66054 2.5 0.828825
    endloop
  endfacet
  facet normal -0.917754 0 -0.39715
    outer loop
      vertex 3.62613 -2.5 -1.26431
      vertex 3.52882 2.5 -1.03946
      vertex 3.62613 2.5 -1.26431
    endloop
  endfacet
  facet normal -0.917754 -0 -0.39715
    outer loop
      vertex 3.52882 2.5 -1.03946
      vertex 3.62613 -2.5 -1.26431
      vertex 3.52882 -2.5 -1.03946
    endloop
  endfacet
  facet normal -0.156435 0 -0.987688
    outer loop
      vertex 0.488799 -2.5 1.16925
      vertex 0.730786 2.5 1.13092
      vertex 0.730786 -2.5 1.13092
    endloop
  endfacet
  facet normal -0.156435 0 -0.987688
    outer loop
      vertex 0.730786 2.5 1.13092
      vertex 0.488799 -2.5 1.16925
      vertex 0.488799 2.5 1.16925
    endloop
  endfacet
  facet normal 0.156435 0 -0.987688
    outer loop
      vertex -0.730786 -2.5 1.13092
      vertex -0.488799 2.5 1.16925
      vertex -0.488799 -2.5 1.16925
    endloop
  endfacet
  facet normal 0.156435 0 -0.987688
    outer loop
      vertex -0.488799 2.5 1.16925
      vertex -0.730786 -2.5 1.13092
      vertex -0.730786 2.5 1.13092
    endloop
  endfacet
  facet normal 0.562082 0 -0.827082
    outer loop
      vertex -2.29236 -2.5 0.455166
      vertex -2.08972 2.5 0.592878
      vertex -2.08972 -2.5 0.592878
    endloop
  endfacet
  facet normal 0.562082 0 -0.827082
    outer loop
      vertex -2.08972 2.5 0.592878
      vertex -2.29236 -2.5 0.455166
      vertex -2.29236 2.5 0.455166
    endloop
  endfacet
  facet normal 0.453992 0 -0.891006
    outer loop
      vertex -1.87884 -2.5 0.717595
      vertex -1.66054 2.5 0.828825
      vertex -1.66054 -2.5 0.828825
    endloop
  endfacet
  facet normal 0.453992 0 -0.891006
    outer loop
      vertex -1.66054 2.5 0.828825
      vertex -1.87884 -2.5 0.717595
      vertex -1.87884 2.5 0.717595
    endloop
  endfacet
  facet normal 0.27899 0 -0.960294
    outer loop
      vertex -1.20517 -2.5 1.00912
      vertex -0.96989 2.5 1.07747
      vertex -0.96989 -2.5 1.07747
    endloop
  endfacet
  facet normal 0.27899 0 -0.960294
    outer loop
      vertex -0.96989 2.5 1.07747
      vertex -1.20517 -2.5 1.00912
      vertex -1.20517 2.5 1.00912
    endloop
  endfacet
  facet normal 0.612907 0 -0.790155
    outer loop
      vertex -2.48595 -2.5 0.305001
      vertex -2.29236 2.5 0.455166
      vertex -2.29236 -2.5 0.455166
    endloop
  endfacet
  facet normal 0.612907 0 -0.790155
    outer loop
      vertex -2.29236 2.5 0.455166
      vertex -2.48595 -2.5 0.305001
      vertex -2.48595 2.5 0.305001
    endloop
  endfacet
  facet normal 0.917754 0 -0.39715
    outer loop
      vertex -3.52882 -2.5 -1.03946
      vertex -3.62613 2.5 -1.26431
      vertex -3.52882 2.5 -1.03946
    endloop
  endfacet
  facet normal 0.917754 0 -0.39715
    outer loop
      vertex -3.62613 2.5 -1.26431
      vertex -3.52882 -2.5 -1.03946
      vertex -3.62613 -2.5 -1.26431
    endloop
  endfacet
  facet normal 0.891007 0 -0.453989
    outer loop
      vertex -3.4176 -2.5 -0.82116
      vertex -3.52882 2.5 -1.03946
      vertex -3.4176 2.5 -0.82116
    endloop
  endfacet
  facet normal 0.891007 0 -0.453989
    outer loop
      vertex -3.52882 2.5 -1.03946
      vertex -3.4176 -2.5 -0.82116
      vertex -3.52882 -2.5 -1.03946
    endloop
  endfacet
  facet normal -0.27899 0 -0.960294
    outer loop
      vertex 0.96989 -2.5 1.07747
      vertex 1.20517 2.5 1.00912
      vertex 1.20517 -2.5 1.00912
    endloop
  endfacet
  facet normal -0.27899 0 -0.960294
    outer loop
      vertex 1.20517 2.5 1.00912
      vertex 0.96989 -2.5 1.07747
      vertex 0.96989 2.5 1.07747
    endloop
  endfacet
  facet normal -0.562082 0 -0.827082
    outer loop
      vertex 2.08972 -2.5 0.592878
      vertex 2.29236 2.5 0.455166
      vertex 2.29236 -2.5 0.455166
    endloop
  endfacet
  facet normal -0.562082 0 -0.827082
    outer loop
      vertex 2.29236 2.5 0.455166
      vertex 2.08972 -2.5 0.592878
      vertex 2.08972 2.5 0.592878
    endloop
  endfacet
  facet normal -0.612907 0 -0.790155
    outer loop
      vertex 2.29236 -2.5 0.455166
      vertex 2.48595 2.5 0.305001
      vertex 2.48595 -2.5 0.305001
    endloop
  endfacet
  facet normal -0.612907 0 -0.790155
    outer loop
      vertex 2.48595 2.5 0.305001
      vertex 2.29236 -2.5 0.455166
      vertex 2.29236 2.5 0.455166
    endloop
  endfacet
  facet normal -0.750111 0 -0.661312
    outer loop
      vertex 3.005 -2.5 -0.214046
      vertex 2.84298 2.5 -0.0302658
      vertex 3.005 2.5 -0.214046
    endloop
  endfacet
  facet normal -0.750111 -0 -0.661312
    outer loop
      vertex 2.84298 2.5 -0.0302658
      vertex 3.005 -2.5 -0.214046
      vertex 2.84298 -2.5 -0.0302658
    endloop
  endfacet
  facet normal -0.827082 0 -0.562082
    outer loop
      vertex 3.29288 -2.5 -0.610275
      vertex 3.15517 2.5 -0.407637
      vertex 3.29288 2.5 -0.610275
    endloop
  endfacet
  facet normal -0.827082 -0 -0.562082
    outer loop
      vertex 3.15517 2.5 -0.407637
      vertex 3.29288 -2.5 -0.610275
      vertex 3.15517 -2.5 -0.407637
    endloop
  endfacet
  facet normal 0.397147 0 -0.917755
    outer loop
      vertex -1.66054 -2.5 0.828825
      vertex -1.43569 2.5 0.926127
      vertex -1.43569 -2.5 0.926127
    endloop
  endfacet
  facet normal 0.397147 0 -0.917755
    outer loop
      vertex -1.43569 2.5 0.926127
      vertex -1.66054 -2.5 0.828825
      vertex -1.66054 2.5 0.828825
    endloop
  endfacet
  facet normal 0.218143 0 -0.975917
    outer loop
      vertex -0.96989 -2.5 1.07747
      vertex -0.730786 2.5 1.13092
      vertex -0.730786 -2.5 1.13092
    endloop
  endfacet
  facet normal 0.218143 0 -0.975917
    outer loop
      vertex -0.730786 2.5 1.13092
      vertex -0.96989 -2.5 1.07747
      vertex -0.96989 2.5 1.07747
    endloop
  endfacet
  facet normal 0.661314 0 -0.750109
    outer loop
      vertex -2.66973 -2.5 0.142977
      vertex -2.48595 2.5 0.305001
      vertex -2.48595 -2.5 0.305001
    endloop
  endfacet
  facet normal 0.661314 0 -0.750109
    outer loop
      vertex -2.48595 2.5 0.305001
      vertex -2.66973 -2.5 0.142977
      vertex -2.66973 2.5 0.142977
    endloop
  endfacet
  facet normal 0.750111 0 -0.661312
    outer loop
      vertex -2.84298 -2.5 -0.0302658
      vertex -3.005 2.5 -0.214046
      vertex -2.84298 2.5 -0.0302658
    endloop
  endfacet
  facet normal 0.750111 0 -0.661312
    outer loop
      vertex -3.005 2.5 -0.214046
      vertex -2.84298 -2.5 -0.0302658
      vertex -3.005 -2.5 -0.214046
    endloop
  endfacet
  facet normal 0.940881 0 -0.338736
    outer loop
      vertex -3.62613 -2.5 -1.26431
      vertex -3.70912 2.5 -1.49483
      vertex -3.62613 2.5 -1.26431
    endloop
  endfacet
  facet normal 0.940881 0 -0.338736
    outer loop
      vertex -3.70912 2.5 -1.49483
      vertex -3.62613 -2.5 -1.26431
      vertex -3.70912 -2.5 -1.49483
    endloop
  endfacet
  facet normal 0.960294 0 -0.27899
    outer loop
      vertex -3.70912 -2.5 -1.49483
      vertex -3.77747 2.5 -1.73011
      vertex -3.70912 2.5 -1.49483
    endloop
  endfacet
  facet normal 0.960294 0 -0.27899
    outer loop
      vertex -3.77747 2.5 -1.73011
      vertex -3.70912 -2.5 -1.49483
      vertex -3.77747 -2.5 -1.73011
    endloop
  endfacet
  facet normal 0.827082 0 -0.562082
    outer loop
      vertex -3.15517 -2.5 -0.407637
      vertex -3.29288 2.5 -0.610275
      vertex -3.15517 2.5 -0.407637
    endloop
  endfacet
  facet normal 0.827082 0 -0.562082
    outer loop
      vertex -3.29288 2.5 -0.610275
      vertex -3.15517 -2.5 -0.407637
      vertex -3.29288 -2.5 -0.610275
    endloop
  endfacet
  facet normal -0.397147 0 -0.917755
    outer loop
      vertex 1.43569 -2.5 0.926127
      vertex 1.66054 2.5 0.828825
      vertex 1.66054 -2.5 0.828825
    endloop
  endfacet
  facet normal -0.397147 0 -0.917755
    outer loop
      vertex 1.66054 2.5 0.828825
      vertex 1.43569 -2.5 0.926127
      vertex 1.43569 2.5 0.926127
    endloop
  endfacet
  facet normal -0.960294 0 -0.27899
    outer loop
      vertex 3.77747 -2.5 -1.73011
      vertex 3.70912 2.5 -1.49483
      vertex 3.77747 2.5 -1.73011
    endloop
  endfacet
  facet normal -0.960294 -0 -0.27899
    outer loop
      vertex 3.70912 2.5 -1.49483
      vertex 3.77747 -2.5 -1.73011
      vertex 3.70912 -2.5 -1.49483
    endloop
  endfacet
  facet normal -0.940881 0 -0.338736
    outer loop
      vertex 3.70912 -2.5 -1.49483
      vertex 3.62613 2.5 -1.26431
      vertex 3.70912 2.5 -1.49483
    endloop
  endfacet
  facet normal -0.940881 -0 -0.338736
    outer loop
      vertex 3.62613 2.5 -1.26431
      vertex 3.70912 -2.5 -1.49483
      vertex 3.62613 -2.5 -1.26431
    endloop
  endfacet
  facet normal -0.790155 0 -0.612907
    outer loop
      vertex 3.15517 -2.5 -0.407637
      vertex 3.005 2.5 -0.214046
      vertex 3.15517 2.5 -0.407637
    endloop
  endfacet
  facet normal -0.790155 -0 -0.612907
    outer loop
      vertex 3.005 2.5 -0.214046
      vertex 3.15517 -2.5 -0.407637
      vertex 3.005 -2.5 -0.214046
    endloop
  endfacet
  facet normal -0.707103 0 -0.707111
    outer loop
      vertex 2.66973 -2.5 0.142977
      vertex 2.84298 2.5 -0.0302658
      vertex 2.84298 -2.5 -0.0302658
    endloop
  endfacet
  facet normal -0.707103 0 -0.707111
    outer loop
      vertex 2.84298 2.5 -0.0302658
      vertex 2.66973 -2.5 0.142977
      vertex 2.66973 2.5 0.142977
    endloop
  endfacet
endsolid OpenSCAD_Model
