solid OpenSCAD_Model
  facet normal -1 0 0
    outer loop
      vertex -5 -2.5 -2.5
      vertex -5 2.5 2.5
      vertex -5 2.5 -2.5
    endloop
  endfacet
  facet normal -1 -0 0
    outer loop
      vertex -5 2.5 2.5
      vertex -5 -2.5 -2.5
      vertex -5 -2.5 2.5
    endloop
  endfacet
  facet normal -0 0 1
    outer loop
      vertex -5 2.5 2.5
      vertex 5 -2.5 2.5
      vertex 5 2.5 2.5
    endloop
  endfacet
  facet normal 0 0 1
    outer loop
      vertex 5 -2.5 2.5
      vertex -5 2.5 2.5
      vertex -5 -2.5 2.5
    endloop
  endfacet
  facet normal 1 -0 0
    outer loop
      vertex 5 -2.5 2.5
      vertex 5 2.5 -2.5
      vertex 5 2.5 2.5
    endloop
  endfacet
  facet normal 1 0 0
    outer loop
      vertex 5 2.5 -2.5
      vertex 5 -2.5 2.5
      vertex 5 -2.5 -2.5
    endloop
  endfacet
  facet normal 0 1 0
    outer loop
      vertex 5 2.5 2.5
      vertex 0 2.5 1.5
      vertex -5 2.5 2.5
    endloop
  endfacet
  facet normal 0 1 0
    outer loop
      vertex 5 2.5 2.5
      vertex 0.174243 2.5 1.49452
      vertex 0 2.5 1.5
    endloop
  endfacet
  facet normal 0 1 0
    outer loop
      vertex 5 2.5 2.5
      vertex 0.232325 2.5 1.4927
      vertex 0.174243 2.5 1.49452
    endloop
  endfacet
  facet normal 0 1 0
    outer loop
      vertex 5 2.5 2.5
      vertex 0.463733 2.5 1.47082
      vertex 0.232325 2.5 1.4927
    endloop
  endfacet
  facet normal 0 1 0
    outer loop
      vertex 5 2.5 2.5
      vertex 0.693311 2.5 1.43446
      vertex 0.463733 2.5 1.47082
    endloop
  endfacet
  facet normal 0 1 0
    outer loop
      vertex 5 2.5 2.5
      vertex 0.920152 2.5 1.38376
      vertex 0.693311 2.5 1.43446
    endloop
  endfacet
  facet normal 0 1 0
    outer loop
      vertex 5 2.5 2.5
      vertex 1.14336 2.5 1.31891
      vertex 0.920152 2.5 1.38376
    endloop
  endfacet
  facet normal 0 1 0
    outer loop
      vertex 5 2.5 2.5
      vertex 1.36206 2.5 1.24017
      vertex 1.14336 2.5 1.31891
    endloop
  endfacet
  facet normal 0 1 0
    outer loop
      vertex 5 2.5 2.5
      vertex 1.57538 2.5 1.14786
      vertex 1.36206 2.5 1.24017
    endloop
  endfacet
  facet normal 0 1 0
    outer loop
      vertex 5 2.5 2.5
      vertex 1.78249 2.5 1.04233
      vertex 1.57538 2.5 1.14786
    endloop
  endfacet
  facet normal 0 1 0
    outer loop
      vertex 5 2.5 2.5
      vertex 1.98256 2.5 0.924013
      vertex 1.78249 2.5 1.04233
    endloop
  endfacet
  facet normal 0 1 0
    outer loop
      vertex 5 2.5 2.5
      vertex 2.1748 2.5 0.793363
      vertex 1.98256 2.5 0.924013
    endloop
  endfacet
  facet normal 0 1 0
    outer loop
      vertex 5 2.5 2.5
      vertex 2.35847 2.5 0.650899
      vertex 2.1748 2.5 0.793363
    endloop
  endfacet
  facet normal 0 1 0
    outer loop
      vertex 5 2.5 2.5
      vertex 2.53282 2.5 0.497184
      vertex 2.35847 2.5 0.650899
    endloop
  endfacet
  facet normal 0 1 0
    outer loop
      vertex 5 2.5 2.5
      vertex 2.69718 2.5 0.332824
      vertex 2.53282 2.5 0.497184
    endloop
  endfacet
  facet normal 0 1 0
    outer loop
      vertex 5 2.5 2.5
      vertex 2.8509 2.5 0.158468
      vertex 2.69718 2.5 0.332824
    endloop
  endfacet
  facet normal 0 1 0
    outer loop
      vertex 5 2.5 2.5
      vertex 2.99336 2.5 -0.0251942
      vertex 2.8509 2.5 0.158468
    endloop
  endfacet
  facet normal 0 1 0
    outer loop
      vertex 5 2.5 2.5
      vertex 3.12401 2.5 -0.217441
      vertex 2.99336 2.5 -0.0251942
    endloop
  endfacet
  facet normal 0 1 0
    outer loop
      vertex 5 2.5 2.5
      vertex 3.24233 2.5 -0.417511
      vertex 3.12401 2.5 -0.217441
    endloop
  endfacet
  facet normal 0 1 0
    outer loop
      vertex 5 2.5 2.5
      vertex 3.34786 2.5 -0.624616
      vertex 3.24233 2.5 -0.417511
    endloop
  endfacet
  facet normal 0 1 0
    outer loop
      vertex 5 2.5 2.5
      vertex 3.44017 2.5 -0.837938
      vertex 3.34786 2.5 -0.624616
    endloop
  endfacet
  facet normal 0 1 -0
    outer loop
      vertex 5 2.5 -2.5
      vertex 3.44017 2.5 -0.837938
      vertex 5 2.5 2.5
    endloop
  endfacet
  facet normal 0 1 0
    outer loop
      vertex 3.44017 2.5 -0.837938
      vertex 5 2.5 -2.5
      vertex 3.51891 2.5 -1.05664
    endloop
  endfacet
  facet normal 0 1 0
    outer loop
      vertex 3.51891 2.5 -1.05664
      vertex 5 2.5 -2.5
      vertex 3.58376 2.5 -1.27985
    endloop
  endfacet
  facet normal 0 1 0
    outer loop
      vertex 3.58376 2.5 -1.27985
      vertex 5 2.5 -2.5
      vertex 3.63446 2.5 -1.50669
    endloop
  endfacet
  facet normal 0 1 0
    outer loop
      vertex 3.63446 2.5 -1.50669
      vertex 5 2.5 -2.5
      vertex 3.67082 2.5 -1.73627
    endloop
  endfacet
  facet normal 0 1 0
    outer loop
      vertex 3.67082 2.5 -1.73627
      vertex 5 2.5 -2.5
      vertex 3.6927 2.5 -1.96767
    endloop
  endfacet
  facet normal 0 1 0
    outer loop
      vertex 3.6927 2.5 -1.96767
      vertex 5 2.5 -2.5
      vertex 3.7 2.5 -2.2
    endloop
  endfacet
  facet normal 0 1 0
    outer loop
      vertex 3.7 2.5 -2.2
      vertex 5 2.5 -2.5
      vertex 3.6927 2.5 -2.43232
    endloop
  endfacet
  facet normal 0 1 0
    outer loop
      vertex 3.6927 2.5 -2.43232
      vertex 5 2.5 -2.5
      vertex 3.6863 2.5 -2.5
    endloop
  endfacet
  facet normal 0 1 -0
    outer loop
      vertex -0.174243 2.5 1.49452
      vertex -5 2.5 2.5
      vertex 0 2.5 1.5
    endloop
  endfacet
  facet normal 0 1 -0
    outer loop
      vertex -0.232325 2.5 1.4927
      vertex -5 2.5 2.5
      vertex -0.174243 2.5 1.49452
    endloop
  endfacet
  facet normal 0 1 -0
    outer loop
      vertex -0.463733 2.5 1.47082
      vertex -5 2.5 2.5
      vertex -0.232325 2.5 1.4927
    endloop
  endfacet
  facet normal 0 1 -0
    outer loop
      vertex -0.693311 2.5 1.43446
      vertex -5 2.5 2.5
      vertex -0.463733 2.5 1.47082
    endloop
  endfacet
  facet normal 0 1 -0
    outer loop
      vertex -0.920152 2.5 1.38376
      vertex -5 2.5 2.5
      vertex -0.693311 2.5 1.43446
    endloop
  endfacet
  facet normal 0 1 -0
    outer loop
      vertex -1.14336 2.5 1.31891
      vertex -5 2.5 2.5
      vertex -0.920152 2.5 1.38376
    endloop
  endfacet
  facet normal 0 1 -0
    outer loop
      vertex -1.36206 2.5 1.24017
      vertex -5 2.5 2.5
      vertex -1.14336 2.5 1.31891
    endloop
  endfacet
  facet normal 0 1 -0
    outer loop
      vertex -1.57538 2.5 1.14786
      vertex -5 2.5 2.5
      vertex -1.36206 2.5 1.24017
    endloop
  endfacet
  facet normal 0 1 -0
    outer loop
      vertex -1.78249 2.5 1.04233
      vertex -5 2.5 2.5
      vertex -1.57538 2.5 1.14786
    endloop
  endfacet
  facet normal 0 1 -0
    outer loop
      vertex -1.98256 2.5 0.924013
      vertex -5 2.5 2.5
      vertex -1.78249 2.5 1.04233
    endloop
  endfacet
  facet normal 0 1 -0
    outer loop
      vertex -2.1748 2.5 0.793363
      vertex -5 2.5 2.5
      vertex -1.98256 2.5 0.924013
    endloop
  endfacet
  facet normal 0 1 -0
    outer loop
      vertex -2.35847 2.5 0.650899
      vertex -5 2.5 2.5
      vertex -2.1748 2.5 0.793363
    endloop
  endfacet
  facet normal 0 1 -0
    outer loop
      vertex -2.53282 2.5 0.497184
      vertex -5 2.5 2.5
      vertex -2.35847 2.5 0.650899
    endloop
  endfacet
  facet normal 0 1 -0
    outer loop
      vertex -2.69718 2.5 0.332824
      vertex -5 2.5 2.5
      vertex -2.53282 2.5 0.497184
    endloop
  endfacet
  facet normal 0 1 -0
    outer loop
      vertex -2.8509 2.5 0.158468
      vertex -5 2.5 2.5
      vertex -2.69718 2.5 0.332824
    endloop
  endfacet
  facet normal 0 1 -0
    outer loop
      vertex -2.99336 2.5 -0.0251942
      vertex -5 2.5 2.5
      vertex -2.8509 2.5 0.158468
    endloop
  endfacet
  facet normal 0 1 -0
    outer loop
      vertex -3.12401 2.5 -0.217441
      vertex -5 2.5 2.5
      vertex -2.99336 2.5 -0.0251942
    endloop
  endfacet
  facet normal 0 1 -0
    outer loop
      vertex -3.24233 2.5 -0.417511
      vertex -5 2.5 2.5
      vertex -3.12401 2.5 -0.217441
    endloop
  endfacet
  facet normal 0 1 -0
    outer loop
      vertex -3.34786 2.5 -0.624616
      vertex -5 2.5 2.5
      vertex -3.24233 2.5 -0.417511
    endloop
  endfacet
  facet normal 0 1 -0
    outer loop
      vertex -3.44017 2.5 -0.837938
      vertex -5 2.5 2.5
      vertex -3.34786 2.5 -0.624616
    endloop
  endfacet
  facet normal 0 1 0
    outer loop
      vertex -5 2.5 -2.5
      vertex -3.44017 2.5 -0.837938
      vertex -3.51891 2.5 -1.05664
    endloop
  endfacet
  facet normal 0 1 0
    outer loop
      vertex -5 2.5 -2.5
      vertex -3.51891 2.5 -1.05664
      vertex -3.58376 2.5 -1.27985
    endloop
  endfacet
  facet normal 0 1 0
    outer loop
      vertex -5 2.5 -2.5
      vertex -3.58376 2.5 -1.27985
      vertex -3.63446 2.5 -1.50669
    endloop
  endfacet
  facet normal 0 1 0
    outer loop
      vertex -5 2.5 -2.5
      vertex -3.63446 2.5 -1.50669
      vertex -3.67082 2.5 -1.73627
    endloop
  endfacet
  facet normal 0 1 0
    outer loop
      vertex -5 2.5 -2.5
      vertex -3.67082 2.5 -1.73627
      vertex -3.6927 2.5 -1.96767
    endloop
  endfacet
  facet normal 0 1 0
    outer loop
      vertex -5 2.5 -2.5
      vertex -3.6927 2.5 -1.96767
      vertex -3.7 2.5 -2.2
    endloop
  endfacet
  facet normal 0 1 0
    outer loop
      vertex -5 2.5 -2.5
      vertex -3.7 2.5 -2.2
      vertex -3.6927 2.5 -2.43232
    endloop
  endfacet
  facet normal 0 1 0
    outer loop
      vertex -5 2.5 -2.5
      vertex -3.6927 2.5 -2.43232
      vertex -3.6863 2.5 -2.5
    endloop
  endfacet
  facet normal 0 1 0
    outer loop
      vertex -3.44017 2.5 -0.837938
      vertex -5 2.5 -2.5
      vertex -5 2.5 2.5
    endloop
  endfacet
  facet normal 0 0 -1
    outer loop
      vertex -5 -2.5 -2.5
      vertex -3.6863 2.5 -2.5
      vertex -3.6863 -2.5 -2.5
    endloop
  endfacet
  facet normal -0 0 -1
    outer loop
      vertex -3.6863 2.5 -2.5
      vertex -5 -2.5 -2.5
      vertex -5 2.5 -2.5
    endloop
  endfacet
  facet normal 0 0 -1
    outer loop
      vertex 3.6863 -2.5 -2.5
      vertex 5 2.5 -2.5
      vertex 5 -2.5 -2.5
    endloop
  endfacet
  facet normal -0 0 -1
    outer loop
      vertex 5 2.5 -2.5
      vertex 3.6863 -2.5 -2.5
      vertex 3.6863 2.5 -2.5
    endloop
  endfacet
  facet normal 0 -1 0
    outer loop
      vertex -5 -2.5 2.5
      vertex 0 -2.5 1.5
      vertex 5 -2.5 2.5
    endloop
  endfacet
  facet normal 0 -1 0
    outer loop
      vertex -5 -2.5 2.5
      vertex -0.0580812 -2.5 1.49817
      vertex 0 -2.5 1.5
    endloop
  endfacet
  facet normal 0 -1 0
    outer loop
      vertex -5 -2.5 2.5
      vertex -0.232325 -2.5 1.4927
      vertex -0.0580812 -2.5 1.49817
    endloop
  endfacet
  facet normal 0 -1 0
    outer loop
      vertex -5 -2.5 2.5
      vertex -0.463733 -2.5 1.47082
      vertex -0.232325 -2.5 1.4927
    endloop
  endfacet
  facet normal 0 -1 0
    outer loop
      vertex -5 -2.5 2.5
      vertex -0.693311 -2.5 1.43446
      vertex -0.463733 -2.5 1.47082
    endloop
  endfacet
  facet normal 0 -1 0
    outer loop
      vertex -5 -2.5 2.5
      vertex -0.920152 -2.5 1.38376
      vertex -0.693311 -2.5 1.43446
    endloop
  endfacet
  facet normal 0 -1 0
    outer loop
      vertex -5 -2.5 2.5
      vertex -1.14336 -2.5 1.31891
      vertex -0.920152 -2.5 1.38376
    endloop
  endfacet
  facet normal 0 -1 0
    outer loop
      vertex -5 -2.5 2.5
      vertex -1.36206 -2.5 1.24017
      vertex -1.14336 -2.5 1.31891
    endloop
  endfacet
  facet normal 0 -1 0
    outer loop
      vertex -5 -2.5 2.5
      vertex -1.57538 -2.5 1.14786
      vertex -1.36206 -2.5 1.24017
    endloop
  endfacet
  facet normal 0 -1 0
    outer loop
      vertex -5 -2.5 2.5
      vertex -1.78249 -2.5 1.04233
      vertex -1.57538 -2.5 1.14786
    endloop
  endfacet
  facet normal 0 -1 0
    outer loop
      vertex -5 -2.5 2.5
      vertex -1.98256 -2.5 0.924013
      vertex -1.78249 -2.5 1.04233
    endloop
  endfacet
  facet normal 0 -1 0
    outer loop
      vertex -5 -2.5 2.5
      vertex -2.1748 -2.5 0.793363
      vertex -1.98256 -2.5 0.924013
    endloop
  endfacet
  facet normal 0 -1 0
    outer loop
      vertex -5 -2.5 2.5
      vertex -2.35847 -2.5 0.650899
      vertex -2.1748 -2.5 0.793363
    endloop
  endfacet
  facet normal 0 -1 0
    outer loop
      vertex -5 -2.5 2.5
      vertex -2.53282 -2.5 0.497184
      vertex -2.35847 -2.5 0.650899
    endloop
  endfacet
  facet normal 0 -1 0
    outer loop
      vertex -5 -2.5 2.5
      vertex -2.69718 -2.5 0.332824
      vertex -2.53282 -2.5 0.497184
    endloop
  endfacet
  facet normal 0 -1 0
    outer loop
      vertex -5 -2.5 2.5
      vertex -2.8509 -2.5 0.158468
      vertex -2.69718 -2.5 0.332824
    endloop
  endfacet
  facet normal 0 -1 0
    outer loop
      vertex -5 -2.5 2.5
      vertex -2.99336 -2.5 -0.0251942
      vertex -2.8509 -2.5 0.158468
    endloop
  endfacet
  facet normal 0 -1 0
    outer loop
      vertex -5 -2.5 2.5
      vertex -3.12401 -2.5 -0.217441
      vertex -2.99336 -2.5 -0.0251942
    endloop
  endfacet
  facet normal 0 -1 0
    outer loop
      vertex -5 -2.5 2.5
      vertex -3.24233 -2.5 -0.417511
      vertex -3.12401 -2.5 -0.217441
    endloop
  endfacet
  facet normal 0 -1 0
    outer loop
      vertex -5 -2.5 2.5
      vertex -3.34786 -2.5 -0.624616
      vertex -3.24233 -2.5 -0.417511
    endloop
  endfacet
  facet normal 0 -1 0
    outer loop
      vertex -5 -2.5 2.5
      vertex -3.44017 -2.5 -0.837938
      vertex -3.34786 -2.5 -0.624616
    endloop
  endfacet
  facet normal 0 -1 0
    outer loop
      vertex -5 -2.5 -2.5
      vertex -3.44017 -2.5 -0.837938
      vertex -5 -2.5 2.5
    endloop
  endfacet
  facet normal 0 -1 0
    outer loop
      vertex -3.44017 -2.5 -0.837938
      vertex -5 -2.5 -2.5
      vertex -3.51891 -2.5 -1.05664
    endloop
  endfacet
  facet normal 0 -1 0
    outer loop
      vertex -3.51891 -2.5 -1.05664
      vertex -5 -2.5 -2.5
      vertex -3.58376 -2.5 -1.27985
    endloop
  endfacet
  facet normal 0 -1 0
    outer loop
      vertex -3.58376 -2.5 -1.27985
      vertex -5 -2.5 -2.5
      vertex -3.63446 -2.5 -1.50669
    endloop
  endfacet
  facet normal 0 -1 0
    outer loop
      vertex -3.63446 -2.5 -1.50669
      vertex -5 -2.5 -2.5
      vertex -3.67082 -2.5 -1.73627
    endloop
  endfacet
  facet normal 0 -1 0
    outer loop
      vertex -3.67082 -2.5 -1.73627
      vertex -5 -2.5 -2.5
      vertex -3.6927 -2.5 -1.96767
    endloop
  endfacet
  facet normal 0 -1 0
    outer loop
      vertex -3.6927 -2.5 -1.96767
      vertex -5 -2.5 -2.5
      vertex -3.7 -2.5 -2.2
    endloop
  endfacet
  facet normal 0 -1 -0
    outer loop
      vertex -3.7 -2.5 -2.2
      vertex -5 -2.5 -2.5
      vertex -3.6927 -2.5 -2.43232
    endloop
  endfacet
  facet normal 0 -1 -0
    outer loop
      vertex -3.6927 -2.5 -2.43232
      vertex -5 -2.5 -2.5
      vertex -3.6863 -2.5 -2.5
    endloop
  endfacet
  facet normal 0 -1 0
    outer loop
      vertex 0.0580812 -2.5 1.49817
      vertex 5 -2.5 2.5
      vertex 0 -2.5 1.5
    endloop
  endfacet
  facet normal 0 -1 0
    outer loop
      vertex 0.232325 -2.5 1.4927
      vertex 5 -2.5 2.5
      vertex 0.0580812 -2.5 1.49817
    endloop
  endfacet
  facet normal 0 -1 0
    outer loop
      vertex 0.463733 -2.5 1.47082
      vertex 5 -2.5 2.5
      vertex 0.232325 -2.5 1.4927
    endloop
  endfacet
  facet normal 0 -1 0
    outer loop
      vertex 0.693311 -2.5 1.43446
      vertex 5 -2.5 2.5
      vertex 0.463733 -2.5 1.47082
    endloop
  endfacet
  facet normal 0 -1 0
    outer loop
      vertex 0.920152 -2.5 1.38376
      vertex 5 -2.5 2.5
      vertex 0.693311 -2.5 1.43446
    endloop
  endfacet
  facet normal 0 -1 0
    outer loop
      vertex 1.14336 -2.5 1.31891
      vertex 5 -2.5 2.5
      vertex 0.920152 -2.5 1.38376
    endloop
  endfacet
  facet normal 0 -1 0
    outer loop
      vertex 1.36206 -2.5 1.24017
      vertex 5 -2.5 2.5
      vertex 1.14336 -2.5 1.31891
    endloop
  endfacet
  facet normal 0 -1 0
    outer loop
      vertex 1.57538 -2.5 1.14786
      vertex 5 -2.5 2.5
      vertex 1.36206 -2.5 1.24017
    endloop
  endfacet
  facet normal 0 -1 0
    outer loop
      vertex 1.78249 -2.5 1.04233
      vertex 5 -2.5 2.5
      vertex 1.57538 -2.5 1.14786
    endloop
  endfacet
  facet normal 0 -1 0
    outer loop
      vertex 1.98256 -2.5 0.924013
      vertex 5 -2.5 2.5
      vertex 1.78249 -2.5 1.04233
    endloop
  endfacet
  facet normal 0 -1 0
    outer loop
      vertex 2.1748 -2.5 0.793363
      vertex 5 -2.5 2.5
      vertex 1.98256 -2.5 0.924013
    endloop
  endfacet
  facet normal 0 -1 0
    outer loop
      vertex 2.35847 -2.5 0.650899
      vertex 5 -2.5 2.5
      vertex 2.1748 -2.5 0.793363
    endloop
  endfacet
  facet normal 0 -1 0
    outer loop
      vertex 2.53282 -2.5 0.497184
      vertex 5 -2.5 2.5
      vertex 2.35847 -2.5 0.650899
    endloop
  endfacet
  facet normal 0 -1 0
    outer loop
      vertex 2.69718 -2.5 0.332824
      vertex 5 -2.5 2.5
      vertex 2.53282 -2.5 0.497184
    endloop
  endfacet
  facet normal 0 -1 0
    outer loop
      vertex 2.8509 -2.5 0.158468
      vertex 5 -2.5 2.5
      vertex 2.69718 -2.5 0.332824
    endloop
  endfacet
  facet normal 0 -1 0
    outer loop
      vertex 2.99336 -2.5 -0.0251942
      vertex 5 -2.5 2.5
      vertex 2.8509 -2.5 0.158468
    endloop
  endfacet
  facet normal 0 -1 0
    outer loop
      vertex 3.12401 -2.5 -0.217441
      vertex 5 -2.5 2.5
      vertex 2.99336 -2.5 -0.0251942
    endloop
  endfacet
  facet normal 0 -1 0
    outer loop
      vertex 3.24233 -2.5 -0.417511
      vertex 5 -2.5 2.5
      vertex 3.12401 -2.5 -0.217441
    endloop
  endfacet
  facet normal 0 -1 0
    outer loop
      vertex 3.34786 -2.5 -0.624616
      vertex 5 -2.5 2.5
      vertex 3.24233 -2.5 -0.417511
    endloop
  endfacet
  facet normal 0 -1 0
    outer loop
      vertex 3.44017 -2.5 -0.837938
      vertex 5 -2.5 2.5
      vertex 3.34786 -2.5 -0.624616
    endloop
  endfacet
  facet normal 0 -1 0
    outer loop
      vertex 5 -2.5 -2.5
      vertex 3.44017 -2.5 -0.837938
      vertex 3.51891 -2.5 -1.05664
    endloop
  endfacet
  facet normal 0 -1 0
    outer loop
      vertex 5 -2.5 -2.5
      vertex 3.51891 -2.5 -1.05664
      vertex 3.58376 -2.5 -1.27985
    endloop
  endfacet
  facet normal 0 -1 0
    outer loop
      vertex 5 -2.5 -2.5
      vertex 3.58376 -2.5 -1.27985
      vertex 3.63446 -2.5 -1.50669
    endloop
  endfacet
  facet normal 0 -1 0
    outer loop
      vertex 5 -2.5 -2.5
      vertex 3.63446 -2.5 -1.50669
      vertex 3.67082 -2.5 -1.73627
    endloop
  endfacet
  facet normal 0 -1 0
    outer loop
      vertex 5 -2.5 -2.5
      vertex 3.67082 -2.5 -1.73627
      vertex 3.6927 -2.5 -1.96767
    endloop
  endfacet
  facet normal 0 -1 0
    outer loop
      vertex 5 -2.5 -2.5
      vertex 3.6927 -2.5 -1.96767
      vertex 3.7 -2.5 -2.2
    endloop
  endfacet
  facet normal 0 -1 0
    outer loop
      vertex 5 -2.5 -2.5
      vertex 3.7 -2.5 -2.2
      vertex 3.6927 -2.5 -2.43232
    endloop
  endfacet
  facet normal 0 -1 0
    outer loop
      vertex 5 -2.5 -2.5
      vertex 3.6927 -2.5 -2.43232
      vertex 3.6863 -2.5 -2.5
    endloop
  endfacet
  facet normal 0 -1 0
    outer loop
      vertex 3.44017 -2.5 -0.837938
      vertex 5 -2.5 -2.5
      vertex 5 -2.5 2.5
    endloop
  endfacet
  facet normal -0.999507 0 -0.0314116
    outer loop
      vertex 3.7 -2.5 -2.2
      vertex 3.6927 2.5 -1.96767
      vertex 3.7 2.5 -2.2
    endloop
  endfacet
  facet normal -0.999507 -0 -0.0314116
    outer loop
      vertex 3.6927 2.5 -1.96767
      vertex 3.7 -2.5 -2.2
      vertex 3.6927 -2.5 -1.96767
    endloop
  endfacet
  facet normal 0.0314118 0 -0.999507
    outer loop
      vertex -0.232325 -2.5 1.4927
      vertex -0.174243 2.5 1.49452
      vertex -0.0580812 -2.5 1.49817
    endloop
  endfacet
  facet normal 0.0314118 0 -0.999507
    outer loop
      vertex -0.174243 2.5 1.49452
      vertex -0.232325 -2.5 1.4927
      vertex -0.232325 2.5 1.4927
    endloop
  endfacet
  facet normal -0.661312 0 -0.750111
    outer loop
      vertex 2.35847 -2.5 0.650899
      vertex 2.53282 2.5 0.497184
      vertex 2.53282 -2.5 0.497184
    endloop
  endfacet
  facet normal -0.661312 0 -0.750111
    outer loop
      vertex 2.53282 2.5 0.497184
      vertex 2.35847 -2.5 0.650899
      vertex 2.35847 2.5 0.650899
    endloop
  endfacet
  facet normal -0.891007 0 -0.45399
    outer loop
      vertex 3.34786 -2.5 -0.624616
      vertex 3.24233 2.5 -0.417511
      vertex 3.34786 2.5 -0.624616
    endloop
  endfacet
  facet normal -0.891007 -0 -0.45399
    outer loop
      vertex 3.24233 2.5 -0.417511
      vertex 3.34786 -2.5 -0.624616
      vertex 3.24233 -2.5 -0.417511
    endloop
  endfacet
  facet normal 0.995562 0 -0.094108
    outer loop
      vertex -3.67082 -2.5 -1.73627
      vertex -3.6927 2.5 -1.96767
      vertex -3.67082 2.5 -1.73627
    endloop
  endfacet
  facet normal 0.995562 0 -0.094108
    outer loop
      vertex -3.6927 2.5 -1.96767
      vertex -3.67082 -2.5 -1.73627
      vertex -3.6927 -2.5 -1.96767
    endloop
  endfacet
  facet normal -0.156435 0 -0.987688
    outer loop
      vertex 0.463733 -2.5 1.47082
      vertex 0.693311 2.5 1.43446
      vertex 0.693311 -2.5 1.43446
    endloop
  endfacet
  facet normal -0.156435 0 -0.987688
    outer loop
      vertex 0.693311 2.5 1.43446
      vertex 0.463733 -2.5 1.47082
      vertex 0.463733 2.5 1.47082
    endloop
  endfacet
  facet normal -0.0314077 -9.53204e-08 -0.999507
    outer loop
      vertex 0 2.5 1.5
      vertex 0.0580812 -2.5 1.49817
      vertex 0 -2.5 1.5
    endloop
  endfacet
  facet normal -0.0314077 -9.53204e-08 -0.999507
    outer loop
      vertex 0.0580812 -2.5 1.49817
      vertex 0 2.5 1.5
      vertex 0.174243 2.5 1.49452
    endloop
  endfacet
  facet normal -0.707107 0 -0.707107
    outer loop
      vertex 2.69718 -2.5 0.332824
      vertex 2.53282 2.5 0.497184
      vertex 2.69718 2.5 0.332824
    endloop
  endfacet
  facet normal -0.707107 -0 -0.707107
    outer loop
      vertex 2.53282 2.5 0.497184
      vertex 2.69718 -2.5 0.332824
      vertex 2.53282 -2.5 0.497184
    endloop
  endfacet
  facet normal -0.917755 0 -0.397147
    outer loop
      vertex 3.44017 -2.5 -0.837938
      vertex 3.34786 2.5 -0.624616
      vertex 3.44017 2.5 -0.837938
    endloop
  endfacet
  facet normal -0.917755 -0 -0.397147
    outer loop
      vertex 3.34786 2.5 -0.624616
      vertex 3.44017 -2.5 -0.837938
      vertex 3.34786 -2.5 -0.624616
    endloop
  endfacet
  facet normal -0.995562 0 -0.094108
    outer loop
      vertex 3.6927 -2.5 -1.96767
      vertex 3.67082 2.5 -1.73627
      vertex 3.6927 2.5 -1.96767
    endloop
  endfacet
  facet normal -0.995562 -0 -0.094108
    outer loop
      vertex 3.67082 2.5 -1.73627
      vertex 3.6927 -2.5 -1.96767
      vertex 3.67082 -2.5 -1.73627
    endloop
  endfacet
  facet normal -0.975917 0 -0.218142
    outer loop
      vertex 3.63446 -2.5 -1.50669
      vertex 3.58376 2.5 -1.27985
      vertex 3.63446 2.5 -1.50669
    endloop
  endfacet
  facet normal -0.975917 -0 -0.218142
    outer loop
      vertex 3.58376 2.5 -1.27985
      vertex 3.63446 -2.5 -1.50669
      vertex 3.58376 -2.5 -1.27985
    endloop
  endfacet
  facet normal 0.995562 -0 0.0941086
    outer loop
      vertex -3.6927 -2.5 -2.43232
      vertex -3.6863 2.5 -2.5
      vertex -3.6927 2.5 -2.43232
    endloop
  endfacet
  facet normal 0.995562 0 0.0941086
    outer loop
      vertex -3.6863 2.5 -2.5
      vertex -3.6927 -2.5 -2.43232
      vertex -3.6863 -2.5 -2.5
    endloop
  endfacet
  facet normal 0.0314077 -9.53204e-08 -0.999507
    outer loop
      vertex -0.0580812 -2.5 1.49817
      vertex 0 2.5 1.5
      vertex 0 -2.5 1.5
    endloop
  endfacet
  facet normal 0.0314077 -9.53204e-08 -0.999507
    outer loop
      vertex 0 2.5 1.5
      vertex -0.0580812 -2.5 1.49817
      vertex -0.174243 2.5 1.49452
    endloop
  endfacet
  facet normal -0.827081 0 -0.562083
    outer loop
      vertex 3.12401 -2.5 -0.217441
      vertex 2.99336 2.5 -0.0251942
      vertex 3.12401 2.5 -0.217441
    endloop
  endfacet
  facet normal -0.827081 -0 -0.562083
    outer loop
      vertex 2.99336 2.5 -0.0251942
      vertex 3.12401 -2.5 -0.217441
      vertex 2.99336 -2.5 -0.0251942
    endloop
  endfacet
  facet normal -0.750111 0 -0.661312
    outer loop
      vertex 2.8509 -2.5 0.158468
      vertex 2.69718 2.5 0.332824
      vertex 2.8509 2.5 0.158468
    endloop
  endfacet
  facet normal -0.750111 -0 -0.661312
    outer loop
      vertex 2.69718 2.5 0.332824
      vertex 2.8509 -2.5 0.158468
      vertex 2.69718 -2.5 0.332824
    endloop
  endfacet
  facet normal -0.940881 0 -0.338738
    outer loop
      vertex 3.51891 -2.5 -1.05664
      vertex 3.44017 2.5 -0.837938
      vertex 3.51891 2.5 -1.05664
    endloop
  endfacet
  facet normal -0.940881 -0 -0.338738
    outer loop
      vertex 3.44017 2.5 -0.837938
      vertex 3.51891 -2.5 -1.05664
      vertex 3.44017 -2.5 -0.837938
    endloop
  endfacet
  facet normal -0.960293 0 -0.278992
    outer loop
      vertex 3.58376 -2.5 -1.27985
      vertex 3.51891 2.5 -1.05664
      vertex 3.58376 2.5 -1.27985
    endloop
  endfacet
  facet normal -0.960293 -0 -0.278992
    outer loop
      vertex 3.51891 2.5 -1.05664
      vertex 3.58376 -2.5 -1.27985
      vertex 3.51891 -2.5 -1.05664
    endloop
  endfacet
  facet normal -0.987688 0 -0.156436
    outer loop
      vertex 3.67082 -2.5 -1.73627
      vertex 3.63446 2.5 -1.50669
      vertex 3.67082 2.5 -1.73627
    endloop
  endfacet
  facet normal -0.987688 -0 -0.156436
    outer loop
      vertex 3.63446 2.5 -1.50669
      vertex 3.67082 -2.5 -1.73627
      vertex 3.63446 -2.5 -1.50669
    endloop
  endfacet
  facet normal -0.995562 0 0.0941086
    outer loop
      vertex 3.6863 -2.5 -2.5
      vertex 3.6927 2.5 -2.43232
      vertex 3.6863 2.5 -2.5
    endloop
  endfacet
  facet normal -0.995562 0 0.0941086
    outer loop
      vertex 3.6927 2.5 -2.43232
      vertex 3.6863 -2.5 -2.5
      vertex 3.6927 -2.5 -2.43232
    endloop
  endfacet
  facet normal -0.999507 0 0.0314118
    outer loop
      vertex 3.6927 -2.5 -2.43232
      vertex 3.7 2.5 -2.2
      vertex 3.6927 2.5 -2.43232
    endloop
  endfacet
  facet normal -0.999507 0 0.0314118
    outer loop
      vertex 3.7 2.5 -2.2
      vertex 3.6927 -2.5 -2.43232
      vertex 3.7 -2.5 -2.2
    endloop
  endfacet
  facet normal 0.661312 0 -0.750111
    outer loop
      vertex -2.53282 -2.5 0.497184
      vertex -2.35847 2.5 0.650899
      vertex -2.35847 -2.5 0.650899
    endloop
  endfacet
  facet normal 0.661312 0 -0.750111
    outer loop
      vertex -2.35847 2.5 0.650899
      vertex -2.53282 -2.5 0.497184
      vertex -2.53282 2.5 0.497184
    endloop
  endfacet
  facet normal 0.509042 0 -0.860742
    outer loop
      vertex -1.98256 -2.5 0.924013
      vertex -1.78249 2.5 1.04233
      vertex -1.78249 -2.5 1.04233
    endloop
  endfacet
  facet normal 0.509042 0 -0.860742
    outer loop
      vertex -1.78249 2.5 1.04233
      vertex -1.98256 -2.5 0.924013
      vertex -1.98256 2.5 0.924013
    endloop
  endfacet
  facet normal 0.156435 0 -0.987688
    outer loop
      vertex -0.693311 -2.5 1.43446
      vertex -0.463733 2.5 1.47082
      vertex -0.463733 -2.5 1.47082
    endloop
  endfacet
  facet normal 0.156435 0 -0.987688
    outer loop
      vertex -0.463733 2.5 1.47082
      vertex -0.693311 -2.5 1.43446
      vertex -0.693311 2.5 1.43446
    endloop
  endfacet
  facet normal 0.891007 0 -0.45399
    outer loop
      vertex -3.24233 -2.5 -0.417511
      vertex -3.34786 2.5 -0.624616
      vertex -3.24233 2.5 -0.417511
    endloop
  endfacet
  facet normal 0.891007 0 -0.45399
    outer loop
      vertex -3.34786 2.5 -0.624616
      vertex -3.24233 -2.5 -0.417511
      vertex -3.34786 -2.5 -0.624616
    endloop
  endfacet
  facet normal 0.999507 -0 0.0314118
    outer loop
      vertex -3.7 -2.5 -2.2
      vertex -3.6927 2.5 -2.43232
      vertex -3.7 2.5 -2.2
    endloop
  endfacet
  facet normal 0.999507 0 0.0314118
    outer loop
      vertex -3.6927 2.5 -2.43232
      vertex -3.7 -2.5 -2.2
      vertex -3.6927 -2.5 -2.43232
    endloop
  endfacet
  facet normal -0.612906 0 -0.790155
    outer loop
      vertex 2.1748 -2.5 0.793363
      vertex 2.35847 2.5 0.650899
      vertex 2.35847 -2.5 0.650899
    endloop
  endfacet
  facet normal -0.612906 0 -0.790155
    outer loop
      vertex 2.35847 2.5 0.650899
      vertex 2.1748 -2.5 0.793363
      vertex 2.1748 2.5 0.793363
    endloop
  endfacet
  facet normal -0.509042 0 -0.860742
    outer loop
      vertex 1.78249 -2.5 1.04233
      vertex 1.98256 2.5 0.924013
      vertex 1.98256 -2.5 0.924013
    endloop
  endfacet
  facet normal -0.509042 0 -0.860742
    outer loop
      vertex 1.98256 2.5 0.924013
      vertex 1.78249 -2.5 1.04233
      vertex 1.78249 2.5 1.04233
    endloop
  endfacet
  facet normal -0.562083 0 -0.827081
    outer loop
      vertex 1.98256 -2.5 0.924013
      vertex 2.1748 2.5 0.793363
      vertex 2.1748 -2.5 0.793363
    endloop
  endfacet
  facet normal -0.562083 0 -0.827081
    outer loop
      vertex 2.1748 2.5 0.793363
      vertex 1.98256 -2.5 0.924013
      vertex 1.98256 2.5 0.924013
    endloop
  endfacet
  facet normal -0.278992 0 -0.960293
    outer loop
      vertex 0.920152 -2.5 1.38376
      vertex 1.14336 2.5 1.31891
      vertex 1.14336 -2.5 1.31891
    endloop
  endfacet
  facet normal -0.278992 0 -0.960293
    outer loop
      vertex 1.14336 2.5 1.31891
      vertex 0.920152 -2.5 1.38376
      vertex 0.920152 2.5 1.38376
    endloop
  endfacet
  facet normal -0.338738 0 -0.940881
    outer loop
      vertex 1.14336 -2.5 1.31891
      vertex 1.36206 2.5 1.24017
      vertex 1.36206 -2.5 1.24017
    endloop
  endfacet
  facet normal -0.338738 0 -0.940881
    outer loop
      vertex 1.36206 2.5 1.24017
      vertex 1.14336 -2.5 1.31891
      vertex 1.14336 2.5 1.31891
    endloop
  endfacet
  facet normal -0.094108 0 -0.995562
    outer loop
      vertex 0.232325 -2.5 1.4927
      vertex 0.463733 2.5 1.47082
      vertex 0.463733 -2.5 1.47082
    endloop
  endfacet
  facet normal -0.094108 0 -0.995562
    outer loop
      vertex 0.463733 2.5 1.47082
      vertex 0.232325 -2.5 1.4927
      vertex 0.232325 2.5 1.4927
    endloop
  endfacet
  facet normal -0.0314118 0 -0.999507
    outer loop
      vertex 0.232325 -2.5 1.4927
      vertex 0.174243 2.5 1.49452
      vertex 0.232325 2.5 1.4927
    endloop
  endfacet
  facet normal -0.0314118 0 -0.999507
    outer loop
      vertex 0.174243 2.5 1.49452
      vertex 0.232325 -2.5 1.4927
      vertex 0.0580812 -2.5 1.49817
    endloop
  endfacet
  facet normal -0.860742 0 -0.509042
    outer loop
      vertex 3.24233 -2.5 -0.417511
      vertex 3.12401 2.5 -0.217441
      vertex 3.24233 2.5 -0.417511
    endloop
  endfacet
  facet normal -0.860742 -0 -0.509042
    outer loop
      vertex 3.12401 2.5 -0.217441
      vertex 3.24233 -2.5 -0.417511
      vertex 3.12401 -2.5 -0.217441
    endloop
  endfacet
  facet normal -0.790154 0 -0.612908
    outer loop
      vertex 2.99336 -2.5 -0.0251942
      vertex 2.8509 2.5 0.158468
      vertex 2.99336 2.5 -0.0251942
    endloop
  endfacet
  facet normal -0.790154 -0 -0.612908
    outer loop
      vertex 2.8509 2.5 0.158468
      vertex 2.99336 -2.5 -0.0251942
      vertex 2.8509 -2.5 0.158468
    endloop
  endfacet
  facet normal 0.094108 0 -0.995562
    outer loop
      vertex -0.463733 -2.5 1.47082
      vertex -0.232325 2.5 1.4927
      vertex -0.232325 -2.5 1.4927
    endloop
  endfacet
  facet normal 0.094108 0 -0.995562
    outer loop
      vertex -0.232325 2.5 1.4927
      vertex -0.463733 -2.5 1.47082
      vertex -0.463733 2.5 1.47082
    endloop
  endfacet
  facet normal 0.612906 0 -0.790155
    outer loop
      vertex -2.35847 -2.5 0.650899
      vertex -2.1748 2.5 0.793363
      vertex -2.1748 -2.5 0.793363
    endloop
  endfacet
  facet normal 0.612906 0 -0.790155
    outer loop
      vertex -2.1748 2.5 0.793363
      vertex -2.35847 -2.5 0.650899
      vertex -2.35847 2.5 0.650899
    endloop
  endfacet
  facet normal 0.45399 0 -0.891007
    outer loop
      vertex -1.78249 -2.5 1.04233
      vertex -1.57538 2.5 1.14786
      vertex -1.57538 -2.5 1.14786
    endloop
  endfacet
  facet normal 0.45399 0 -0.891007
    outer loop
      vertex -1.57538 2.5 1.14786
      vertex -1.78249 -2.5 1.04233
      vertex -1.78249 2.5 1.04233
    endloop
  endfacet
  facet normal 0.338738 0 -0.940881
    outer loop
      vertex -1.36206 -2.5 1.24017
      vertex -1.14336 2.5 1.31891
      vertex -1.14336 -2.5 1.31891
    endloop
  endfacet
  facet normal 0.338738 0 -0.940881
    outer loop
      vertex -1.14336 2.5 1.31891
      vertex -1.36206 -2.5 1.24017
      vertex -1.36206 2.5 1.24017
    endloop
  endfacet
  facet normal 0.987688 0 -0.156436
    outer loop
      vertex -3.63446 -2.5 -1.50669
      vertex -3.67082 2.5 -1.73627
      vertex -3.63446 2.5 -1.50669
    endloop
  endfacet
  facet normal 0.987688 0 -0.156436
    outer loop
      vertex -3.67082 2.5 -1.73627
      vertex -3.63446 -2.5 -1.50669
      vertex -3.67082 -2.5 -1.73627
    endloop
  endfacet
  facet normal 0.917755 0 -0.397147
    outer loop
      vertex -3.34786 -2.5 -0.624616
      vertex -3.44017 2.5 -0.837938
      vertex -3.34786 2.5 -0.624616
    endloop
  endfacet
  facet normal 0.917755 0 -0.397147
    outer loop
      vertex -3.44017 2.5 -0.837938
      vertex -3.34786 -2.5 -0.624616
      vertex -3.44017 -2.5 -0.837938
    endloop
  endfacet
  facet normal 0.960293 0 -0.278992
    outer loop
      vertex -3.51891 -2.5 -1.05664
      vertex -3.58376 2.5 -1.27985
      vertex -3.51891 2.5 -1.05664
    endloop
  endfacet
  facet normal 0.960293 0 -0.278992
    outer loop
      vertex -3.58376 2.5 -1.27985
      vertex -3.51891 -2.5 -1.05664
      vertex -3.58376 -2.5 -1.27985
    endloop
  endfacet
  facet normal 0.860742 0 -0.509042
    outer loop
      vertex -3.12401 -2.5 -0.217441
      vertex -3.24233 2.5 -0.417511
      vertex -3.12401 2.5 -0.217441
    endloop
  endfacet
  facet normal 0.860742 0 -0.509042
    outer loop
      vertex -3.24233 2.5 -0.417511
      vertex -3.12401 -2.5 -0.217441
      vertex -3.24233 -2.5 -0.417511
    endloop
  endfacet
  facet normal 0.790154 0 -0.612908
    outer loop
      vertex -2.8509 -2.5 0.158468
      vertex -2.99336 2.5 -0.0251942
      vertex -2.8509 2.5 0.158468
    endloop
  endfacet
  facet normal 0.790154 0 -0.612908
    outer loop
      vertex -2.99336 2.5 -0.0251942
      vertex -2.8509 -2.5 0.158468
      vertex -2.99336 -2.5 -0.0251942
    endloop
  endfacet
  facet normal 0.707107 0 -0.707107
    outer loop
      vertex -2.53282 -2.5 0.497184
      vertex -2.69718 2.5 0.332824
      vertex -2.53282 2.5 0.497184
    endloop
  endfacet
  facet normal 0.707107 0 -0.707107
    outer loop
      vertex -2.69718 2.5 0.332824
      vertex -2.53282 -2.5 0.497184
      vertex -2.69718 -2.5 0.332824
    endloop
  endfacet
  facet normal 0.999507 0 -0.0314116
    outer loop
      vertex -3.6927 -2.5 -1.96767
      vertex -3.7 2.5 -2.2
      vertex -3.6927 2.5 -1.96767
    endloop
  endfacet
  facet normal 0.999507 0 -0.0314116
    outer loop
      vertex -3.7 2.5 -2.2
      vertex -3.6927 -2.5 -1.96767
      vertex -3.7 -2.5 -2.2
    endloop
  endfacet
  facet normal -0.45399 0 -0.891007
    outer loop
      vertex 1.57538 -2.5 1.14786
      vertex 1.78249 2.5 1.04233
      vertex 1.78249 -2.5 1.04233
    endloop
  endfacet
  facet normal -0.45399 0 -0.891007
    outer loop
      vertex 1.78249 2.5 1.04233
      vertex 1.57538 -2.5 1.14786
      vertex 1.57538 2.5 1.14786
    endloop
  endfacet
  facet normal -0.397147 0 -0.917755
    outer loop
      vertex 1.36206 -2.5 1.24017
      vertex 1.57538 2.5 1.14786
      vertex 1.57538 -2.5 1.14786
    endloop
  endfacet
  facet normal -0.397147 0 -0.917755
    outer loop
      vertex 1.57538 2.5 1.14786
      vertex 1.36206 -2.5 1.24017
      vertex 1.36206 2.5 1.24017
    endloop
  endfacet
  facet normal -0.218143 0 -0.975917
    outer loop
      vertex 0.693311 -2.5 1.43446
      vertex 0.920152 2.5 1.38376
      vertex 0.920152 -2.5 1.38376
    endloop
  endfacet
  facet normal -0.218143 0 -0.975917
    outer loop
      vertex 0.920152 2.5 1.38376
      vertex 0.693311 -2.5 1.43446
      vertex 0.693311 2.5 1.43446
    endloop
  endfacet
  facet normal 0.218143 0 -0.975917
    outer loop
      vertex -0.920152 -2.5 1.38376
      vertex -0.693311 2.5 1.43446
      vertex -0.693311 -2.5 1.43446
    endloop
  endfacet
  facet normal 0.218143 0 -0.975917
    outer loop
      vertex -0.693311 2.5 1.43446
      vertex -0.920152 -2.5 1.38376
      vertex -0.920152 2.5 1.38376
    endloop
  endfacet
  facet normal 0.562083 0 -0.827081
    outer loop
      vertex -2.1748 -2.5 0.793363
      vertex -1.98256 2.5 0.924013
      vertex -1.98256 -2.5 0.924013
    endloop
  endfacet
  facet normal 0.562083 0 -0.827081
    outer loop
      vertex -1.98256 2.5 0.924013
      vertex -2.1748 -2.5 0.793363
      vertex -2.1748 2.5 0.793363
    endloop
  endfacet
  facet normal 0.397147 0 -0.917755
    outer loop
      vertex -1.57538 -2.5 1.14786
      vertex -1.36206 2.5 1.24017
      vertex -1.36206 -2.5 1.24017
    endloop
  endfacet
  facet normal 0.397147 0 -0.917755
    outer loop
      vertex -1.36206 2.5 1.24017
      vertex -1.57538 -2.5 1.14786
      vertex -1.57538 2.5 1.14786
    endloop
  endfacet
  facet normal 0.975917 0 -0.218142
    outer loop
      vertex -3.58376 -2.5 -1.27985
      vertex -3.63446 2.5 -1.50669
      vertex -3.58376 2.5 -1.27985
    endloop
  endfacet
  facet normal 0.975917 0 -0.218142
    outer loop
      vertex -3.63446 2.5 -1.50669
      vertex -3.58376 -2.5 -1.27985
      vertex -3.63446 -2.5 -1.50669
    endloop
  endfacet
  facet normal 0.940881 0 -0.338738
    outer loop
      vertex -3.44017 -2.5 -0.837938
      vertex -3.51891 2.5 -1.05664
      vertex -3.44017 2.5 -0.837938
    endloop
  endfacet
  facet normal 0.940881 0 -0.338738
    outer loop
      vertex -3.51891 2.5 -1.05664
      vertex -3.44017 -2.5 -0.837938
      vertex -3.51891 -2.5 -1.05664
    endloop
  endfacet
  facet normal 0.827081 0 -0.562083
    outer loop
      vertex -2.99336 -2.5 -0.0251942
      vertex -3.12401 2.5 -0.217441
      vertex -2.99336 2.5 -0.0251942
    endloop
  endfacet
  facet normal 0.827081 0 -0.562083
    outer loop
      vertex -3.12401 2.5 -0.217441
      vertex -2.99336 -2.5 -0.0251942
      vertex -3.12401 -2.5 -0.217441
    endloop
  endfacet
  facet normal 0.750111 0 -0.661312
    outer loop
      vertex -2.69718 -2.5 0.332824
      vertex -2.8509 2.5 0.158468
      vertex -2.69718 2.5 0.332824
    endloop
  endfacet
  facet normal 0.750111 0 -0.661312
    outer loop
      vertex -2.8509 2.5 0.158468
      vertex -2.69718 -2.5 0.332824
      vertex -2.8509 -2.5 0.158468
    endloop
  endfacet
  facet normal 0.278992 0 -0.960293
    outer loop
      vertex -1.14336 -2.5 1.31891
      vertex -0.920152 2.5 1.38376
      vertex -0.920152 -2.5 1.38376
    endloop
  endfacet
  facet normal 0.278992 0 -0.960293
    outer loop
      vertex -0.920152 2.5 1.38376
      vertex -1.14336 -2.5 1.31891
      vertex -1.14336 2.5 1.31891
    endloop
  endfacet
endsolid OpenSCAD_Model
