solid OpenSCAD_Model
  facet normal -1 0 0
    outer loop
      vertex -5 -2.5 -2.5
      vertex -5 2.5 2.5
      vertex -5 2.5 -2.5
    endloop
  endfacet
  facet normal -1 -0 0
    outer loop
      vertex -5 2.5 2.5
      vertex -5 -2.5 -2.5
      vertex -5 -2.5 2.5
    endloop
  endfacet
  facet normal -0 0 1
    outer loop
      vertex -5 2.5 2.5
      vertex 5 -2.5 2.5
      vertex 5 2.5 2.5
    endloop
  endfacet
  facet normal 0 0 1
    outer loop
      vertex 5 -2.5 2.5
      vertex -5 2.5 2.5
      vertex -5 -2.5 2.5
    endloop
  endfacet
  facet normal 1 -0 0
    outer loop
      vertex 5 -2.5 2.5
      vertex 5 2.5 -2.5
      vertex 5 2.5 2.5
    endloop
  endfacet
  facet normal 1 0 0
    outer loop
      vertex 5 2.5 -2.5
      vertex 5 -2.5 2.5
      vertex 5 -2.5 -2.5
    endloop
  endfacet
  facet normal 0 1 0
    outer loop
      vertex 5 2.5 2.5
      vertex 0 2.5 0.499999
      vertex -5 2.5 2.5
    endloop
  endfacet
  facet normal 0 1 0
    outer loop
      vertex 5 2.5 2.5
      vertex 0.145987 2.5 0.495412
      vertex 0 2.5 0.499999
    endloop
  endfacet
  facet normal 0 1 0
    outer loop
      vertex 5 2.5 2.5
      vertex 0.19465 2.5 0.493882
      vertex 0.145987 2.5 0.495412
    endloop
  endfacet
  facet normal 0 1 0
    outer loop
      vertex 5 2.5 2.5
      vertex 0.388533 2.5 0.475555
      vertex 0.19465 2.5 0.493882
    endloop
  endfacet
  facet normal 0 1 0
    outer loop
      vertex 5 2.5 2.5
      vertex 0.580882 2.5 0.44509
      vertex 0.388533 2.5 0.475555
    endloop
  endfacet
  facet normal 0 1 0
    outer loop
      vertex 5 2.5 2.5
      vertex 0.770938 2.5 0.402607
      vertex 0.580882 2.5 0.44509
    endloop
  endfacet
  facet normal 0 1 0
    outer loop
      vertex 5 2.5 2.5
      vertex 0.957952 2.5 0.348275
      vertex 0.770938 2.5 0.402607
    endloop
  endfacet
  facet normal 0 1 0
    outer loop
      vertex 5 2.5 2.5
      vertex 1.14119 2.5 0.282307
      vertex 0.957952 2.5 0.348275
    endloop
  endfacet
  facet normal 0 1 0
    outer loop
      vertex 5 2.5 2.5
      vertex 1.31992 2.5 0.204964
      vertex 1.14119 2.5 0.282307
    endloop
  endfacet
  facet normal 0 1 0
    outer loop
      vertex 5 2.5 2.5
      vertex 1.49344 2.5 0.11655
      vertex 1.31992 2.5 0.204964
    endloop
  endfacet
  facet normal 0 1 0
    outer loop
      vertex 5 2.5 2.5
      vertex 1.66106 2.5 0.017416
      vertex 1.49344 2.5 0.11655
    endloop
  endfacet
  facet normal 0 1 0
    outer loop
      vertex 5 2.5 2.5
      vertex 1.82213 2.5 -0.0920467
      vertex 1.66106 2.5 0.017416
    endloop
  endfacet
  facet normal 0 1 0
    outer loop
      vertex 5 2.5 2.5
      vertex 1.97601 2.5 -0.211409
      vertex 1.82213 2.5 -0.0920467
    endloop
  endfacet
  facet normal 0 1 0
    outer loop
      vertex 5 2.5 2.5
      vertex 2.1221 2.5 -0.340197
      vertex 1.97601 2.5 -0.211409
    endloop
  endfacet
  facet normal 0 1 0
    outer loop
      vertex 5 2.5 2.5
      vertex 2.2598 2.5 -0.477903
      vertex 2.1221 2.5 -0.340197
    endloop
  endfacet
  facet normal 0 1 0
    outer loop
      vertex 5 2.5 2.5
      vertex 2.38859 2.5 -0.623985
      vertex 2.2598 2.5 -0.477903
    endloop
  endfacet
  facet normal 0 1 0
    outer loop
      vertex 5 2.5 2.5
      vertex 2.50795 2.5 -0.777865
      vertex 2.38859 2.5 -0.623985
    endloop
  endfacet
  facet normal 0 1 0
    outer loop
      vertex 5 2.5 2.5
      vertex 2.61742 2.5 -0.938936
      vertex 2.50795 2.5 -0.777865
    endloop
  endfacet
  facet normal 0 1 0
    outer loop
      vertex 5 2.5 2.5
      vertex 2.71655 2.5 -1.10656
      vertex 2.61742 2.5 -0.938936
    endloop
  endfacet
  facet normal 0 1 -0
    outer loop
      vertex 5 2.5 -2.5
      vertex 2.71655 2.5 -1.10656
      vertex 5 2.5 2.5
    endloop
  endfacet
  facet normal 0 1 0
    outer loop
      vertex 2.71655 2.5 -1.10656
      vertex 5 2.5 -2.5
      vertex 2.80496 2.5 -1.28008
    endloop
  endfacet
  facet normal 0 1 0
    outer loop
      vertex 2.80496 2.5 -1.28008
      vertex 5 2.5 -2.5
      vertex 2.88231 2.5 -1.45881
    endloop
  endfacet
  facet normal 0 1 0
    outer loop
      vertex 2.88231 2.5 -1.45881
      vertex 5 2.5 -2.5
      vertex 2.94827 2.5 -1.64205
    endloop
  endfacet
  facet normal 0 1 0
    outer loop
      vertex 2.94827 2.5 -1.64205
      vertex 5 2.5 -2.5
      vertex 3.00261 2.5 -1.82906
    endloop
  endfacet
  facet normal 0 1 0
    outer loop
      vertex 3.00261 2.5 -1.82906
      vertex 5 2.5 -2.5
      vertex 3.04509 2.5 -2.01912
    endloop
  endfacet
  facet normal 0 1 0
    outer loop
      vertex 3.04509 2.5 -2.01912
      vertex 5 2.5 -2.5
      vertex 3.07555 2.5 -2.21147
    endloop
  endfacet
  facet normal 0 1 0
    outer loop
      vertex 3.07555 2.5 -2.21147
      vertex 5 2.5 -2.5
      vertex 3.09388 2.5 -2.40535
    endloop
  endfacet
  facet normal 0 1 0
    outer loop
      vertex 3.09388 2.5 -2.40535
      vertex 5 2.5 -2.5
      vertex 3.09686 2.5 -2.5
    endloop
  endfacet
  facet normal 0 1 -0
    outer loop
      vertex -0.145987 2.5 0.495412
      vertex -5 2.5 2.5
      vertex 0 2.5 0.499999
    endloop
  endfacet
  facet normal 0 1 -0
    outer loop
      vertex -0.19465 2.5 0.493882
      vertex -5 2.5 2.5
      vertex -0.145987 2.5 0.495412
    endloop
  endfacet
  facet normal 0 1 -0
    outer loop
      vertex -0.388533 2.5 0.475555
      vertex -5 2.5 2.5
      vertex -0.19465 2.5 0.493882
    endloop
  endfacet
  facet normal 0 1 -0
    outer loop
      vertex -0.580882 2.5 0.44509
      vertex -5 2.5 2.5
      vertex -0.388533 2.5 0.475555
    endloop
  endfacet
  facet normal 0 1 -0
    outer loop
      vertex -0.770938 2.5 0.402607
      vertex -5 2.5 2.5
      vertex -0.580882 2.5 0.44509
    endloop
  endfacet
  facet normal 0 1 -0
    outer loop
      vertex -0.957952 2.5 0.348275
      vertex -5 2.5 2.5
      vertex -0.770938 2.5 0.402607
    endloop
  endfacet
  facet normal 0 1 -0
    outer loop
      vertex -1.14119 2.5 0.282307
      vertex -5 2.5 2.5
      vertex -0.957952 2.5 0.348275
    endloop
  endfacet
  facet normal 0 1 -0
    outer loop
      vertex -1.31992 2.5 0.204964
      vertex -5 2.5 2.5
      vertex -1.14119 2.5 0.282307
    endloop
  endfacet
  facet normal 0 1 -0
    outer loop
      vertex -1.49344 2.5 0.11655
      vertex -5 2.5 2.5
      vertex -1.31992 2.5 0.204964
    endloop
  endfacet
  facet normal 0 1 -0
    outer loop
      vertex -1.66106 2.5 0.017416
      vertex -5 2.5 2.5
      vertex -1.49344 2.5 0.11655
    endloop
  endfacet
  facet normal 0 1 -0
    outer loop
      vertex -1.82213 2.5 -0.0920467
      vertex -5 2.5 2.5
      vertex -1.66106 2.5 0.017416
    endloop
  endfacet
  facet normal 0 1 -0
    outer loop
      vertex -1.97601 2.5 -0.211409
      vertex -5 2.5 2.5
      vertex -1.82213 2.5 -0.0920467
    endloop
  endfacet
  facet normal 0 1 -0
    outer loop
      vertex -2.1221 2.5 -0.340197
      vertex -5 2.5 2.5
      vertex -1.97601 2.5 -0.211409
    endloop
  endfacet
  facet normal 0 1 -0
    outer loop
      vertex -2.2598 2.5 -0.477903
      vertex -5 2.5 2.5
      vertex -2.1221 2.5 -0.340197
    endloop
  endfacet
  facet normal 0 1 -0
    outer loop
      vertex -2.38859 2.5 -0.623985
      vertex -5 2.5 2.5
      vertex -2.2598 2.5 -0.477903
    endloop
  endfacet
  facet normal 0 1 -0
    outer loop
      vertex -2.50795 2.5 -0.777865
      vertex -5 2.5 2.5
      vertex -2.38859 2.5 -0.623985
    endloop
  endfacet
  facet normal 0 1 -0
    outer loop
      vertex -2.61742 2.5 -0.938936
      vertex -5 2.5 2.5
      vertex -2.50795 2.5 -0.777865
    endloop
  endfacet
  facet normal 0 1 -0
    outer loop
      vertex -2.71655 2.5 -1.10656
      vertex -5 2.5 2.5
      vertex -2.61742 2.5 -0.938936
    endloop
  endfacet
  facet normal 0 1 0
    outer loop
      vertex -5 2.5 -2.5
      vertex -2.71655 2.5 -1.10656
      vertex -2.80496 2.5 -1.28008
    endloop
  endfacet
  facet normal 0 1 0
    outer loop
      vertex -5 2.5 -2.5
      vertex -2.80496 2.5 -1.28008
      vertex -2.88231 2.5 -1.45881
    endloop
  endfacet
  facet normal 0 1 0
    outer loop
      vertex -5 2.5 -2.5
      vertex -2.88231 2.5 -1.45881
      vertex -2.94827 2.5 -1.64205
    endloop
  endfacet
  facet normal 0 1 0
    outer loop
      vertex -5 2.5 -2.5
      vertex -2.94827 2.5 -1.64205
      vertex -3.00261 2.5 -1.82906
    endloop
  endfacet
  facet normal 0 1 0
    outer loop
      vertex -5 2.5 -2.5
      vertex -3.00261 2.5 -1.82906
      vertex -3.04509 2.5 -2.01912
    endloop
  endfacet
  facet normal 0 1 0
    outer loop
      vertex -5 2.5 -2.5
      vertex -3.04509 2.5 -2.01912
      vertex -3.07555 2.5 -2.21147
    endloop
  endfacet
  facet normal 0 1 0
    outer loop
      vertex -5 2.5 -2.5
      vertex -3.07555 2.5 -2.21147
      vertex -3.09388 2.5 -2.40535
    endloop
  endfacet
  facet normal 0 1 0
    outer loop
      vertex -5 2.5 -2.5
      vertex -3.09388 2.5 -2.40535
      vertex -3.09686 2.5 -2.5
    endloop
  endfacet
  facet normal 0 1 0
    outer loop
      vertex -2.71655 2.5 -1.10656
      vertex -5 2.5 -2.5
      vertex -5 2.5 2.5
    endloop
  endfacet
  facet normal 0 0 -1
    outer loop
      vertex -5 -2.5 -2.5
      vertex -3.09686 2.5 -2.5
      vertex -3.09686 -2.5 -2.5
    endloop
  endfacet
  facet normal -0 0 -1
    outer loop
      vertex -3.09686 2.5 -2.5
      vertex -5 -2.5 -2.5
      vertex -5 2.5 -2.5
    endloop
  endfacet
  facet normal 0 0 -1
    outer loop
      vertex 3.09686 -2.5 -2.5
      vertex 5 2.5 -2.5
      vertex 5 -2.5 -2.5
    endloop
  endfacet
  facet normal -0 0 -1
    outer loop
      vertex 5 2.5 -2.5
      vertex 3.09686 -2.5 -2.5
      vertex 3.09686 2.5 -2.5
    endloop
  endfacet
  facet normal 0 -1 0
    outer loop
      vertex -5 -2.5 2.5
      vertex 0 -2.5 0.5
      vertex 5 -2.5 2.5
    endloop
  endfacet
  facet normal 0 -1 0
    outer loop
      vertex -5 -2.5 2.5
      vertex -0.0486624 -2.5 0.498471
      vertex 0 -2.5 0.5
    endloop
  endfacet
  facet normal 0 -1 0
    outer loop
      vertex -5 -2.5 2.5
      vertex -0.19465 -2.5 0.493882
      vertex -0.0486624 -2.5 0.498471
    endloop
  endfacet
  facet normal 0 -1 0
    outer loop
      vertex -5 -2.5 2.5
      vertex -0.388533 -2.5 0.475555
      vertex -0.19465 -2.5 0.493882
    endloop
  endfacet
  facet normal 0 -1 0
    outer loop
      vertex -5 -2.5 2.5
      vertex -0.580882 -2.5 0.44509
      vertex -0.388533 -2.5 0.475555
    endloop
  endfacet
  facet normal 0 -1 0
    outer loop
      vertex -5 -2.5 2.5
      vertex -0.770938 -2.5 0.402607
      vertex -0.580882 -2.5 0.44509
    endloop
  endfacet
  facet normal 0 -1 0
    outer loop
      vertex -5 -2.5 2.5
      vertex -0.957952 -2.5 0.348275
      vertex -0.770938 -2.5 0.402607
    endloop
  endfacet
  facet normal 0 -1 0
    outer loop
      vertex -5 -2.5 2.5
      vertex -1.14119 -2.5 0.282307
      vertex -0.957952 -2.5 0.348275
    endloop
  endfacet
  facet normal 0 -1 0
    outer loop
      vertex -5 -2.5 2.5
      vertex -1.31992 -2.5 0.204964
      vertex -1.14119 -2.5 0.282307
    endloop
  endfacet
  facet normal 0 -1 0
    outer loop
      vertex -5 -2.5 2.5
      vertex -1.49344 -2.5 0.11655
      vertex -1.31992 -2.5 0.204964
    endloop
  endfacet
  facet normal 0 -1 0
    outer loop
      vertex -5 -2.5 2.5
      vertex -1.66106 -2.5 0.017416
      vertex -1.49344 -2.5 0.11655
    endloop
  endfacet
  facet normal 0 -1 0
    outer loop
      vertex -5 -2.5 2.5
      vertex -1.82213 -2.5 -0.0920467
      vertex -1.66106 -2.5 0.017416
    endloop
  endfacet
  facet normal 0 -1 0
    outer loop
      vertex -5 -2.5 2.5
      vertex -1.97601 -2.5 -0.211409
      vertex -1.82213 -2.5 -0.0920467
    endloop
  endfacet
  facet normal 0 -1 0
    outer loop
      vertex -5 -2.5 2.5
      vertex -2.1221 -2.5 -0.340197
      vertex -1.97601 -2.5 -0.211409
    endloop
  endfacet
  facet normal 0 -1 0
    outer loop
      vertex -5 -2.5 2.5
      vertex -2.2598 -2.5 -0.477903
      vertex -2.1221 -2.5 -0.340197
    endloop
  endfacet
  facet normal 0 -1 0
    outer loop
      vertex -5 -2.5 2.5
      vertex -2.38859 -2.5 -0.623985
      vertex -2.2598 -2.5 -0.477903
    endloop
  endfacet
  facet normal 0 -1 0
    outer loop
      vertex -5 -2.5 2.5
      vertex -2.50795 -2.5 -0.777865
      vertex -2.38859 -2.5 -0.623985
    endloop
  endfacet
  facet normal 0 -1 0
    outer loop
      vertex -5 -2.5 2.5
      vertex -2.61742 -2.5 -0.938936
      vertex -2.50795 -2.5 -0.777865
    endloop
  endfacet
  facet normal 0 -1 0
    outer loop
      vertex -5 -2.5 2.5
      vertex -2.71655 -2.5 -1.10656
      vertex -2.61742 -2.5 -0.938936
    endloop
  endfacet
  facet normal 0 -1 0
    outer loop
      vertex -5 -2.5 -2.5
      vertex -2.71655 -2.5 -1.10656
      vertex -5 -2.5 2.5
    endloop
  endfacet
  facet normal 0 -1 0
    outer loop
      vertex -2.71655 -2.5 -1.10656
      vertex -5 -2.5 -2.5
      vertex -2.80496 -2.5 -1.28008
    endloop
  endfacet
  facet normal 0 -1 0
    outer loop
      vertex -2.80496 -2.5 -1.28008
      vertex -5 -2.5 -2.5
      vertex -2.88231 -2.5 -1.45881
    endloop
  endfacet
  facet normal 0 -1 0
    outer loop
      vertex -2.88231 -2.5 -1.45881
      vertex -5 -2.5 -2.5
      vertex -2.94827 -2.5 -1.64205
    endloop
  endfacet
  facet normal 0 -1 0
    outer loop
      vertex -2.94827 -2.5 -1.64205
      vertex -5 -2.5 -2.5
      vertex -3.00261 -2.5 -1.82906
    endloop
  endfacet
  facet normal 0 -1 0
    outer loop
      vertex -3.00261 -2.5 -1.82906
      vertex -5 -2.5 -2.5
      vertex -3.04509 -2.5 -2.01912
    endloop
  endfacet
  facet normal 0 -1 0
    outer loop
      vertex -3.04509 -2.5 -2.01912
      vertex -5 -2.5 -2.5
      vertex -3.07555 -2.5 -2.21147
    endloop
  endfacet
  facet normal 0 -1 0
    outer loop
      vertex -3.07555 -2.5 -2.21147
      vertex -5 -2.5 -2.5
      vertex -3.09388 -2.5 -2.40535
    endloop
  endfacet
  facet normal 0 -1 0
    outer loop
      vertex -3.09388 -2.5 -2.40535
      vertex -5 -2.5 -2.5
      vertex -3.09686 -2.5 -2.5
    endloop
  endfacet
  facet normal 0 -1 0
    outer loop
      vertex 0.0486624 -2.5 0.498471
      vertex 5 -2.5 2.5
      vertex 0 -2.5 0.5
    endloop
  endfacet
  facet normal 0 -1 0
    outer loop
      vertex 0.19465 -2.5 0.493882
      vertex 5 -2.5 2.5
      vertex 0.0486624 -2.5 0.498471
    endloop
  endfacet
  facet normal 0 -1 0
    outer loop
      vertex 0.388533 -2.5 0.475555
      vertex 5 -2.5 2.5
      vertex 0.19465 -2.5 0.493882
    endloop
  endfacet
  facet normal 0 -1 0
    outer loop
      vertex 0.580882 -2.5 0.44509
      vertex 5 -2.5 2.5
      vertex 0.388533 -2.5 0.475555
    endloop
  endfacet
  facet normal 0 -1 0
    outer loop
      vertex 0.770938 -2.5 0.402607
      vertex 5 -2.5 2.5
      vertex 0.580882 -2.5 0.44509
    endloop
  endfacet
  facet normal 0 -1 0
    outer loop
      vertex 0.957952 -2.5 0.348275
      vertex 5 -2.5 2.5
      vertex 0.770938 -2.5 0.402607
    endloop
  endfacet
  facet normal 0 -1 0
    outer loop
      vertex 1.14119 -2.5 0.282307
      vertex 5 -2.5 2.5
      vertex 0.957952 -2.5 0.348275
    endloop
  endfacet
  facet normal 0 -1 0
    outer loop
      vertex 1.31992 -2.5 0.204964
      vertex 5 -2.5 2.5
      vertex 1.14119 -2.5 0.282307
    endloop
  endfacet
  facet normal 0 -1 0
    outer loop
      vertex 1.49344 -2.5 0.11655
      vertex 5 -2.5 2.5
      vertex 1.31992 -2.5 0.204964
    endloop
  endfacet
  facet normal 0 -1 0
    outer loop
      vertex 1.66106 -2.5 0.017416
      vertex 5 -2.5 2.5
      vertex 1.49344 -2.5 0.11655
    endloop
  endfacet
  facet normal 0 -1 0
    outer loop
      vertex 1.82213 -2.5 -0.0920467
      vertex 5 -2.5 2.5
      vertex 1.66106 -2.5 0.017416
    endloop
  endfacet
  facet normal 0 -1 0
    outer loop
      vertex 1.97601 -2.5 -0.211409
      vertex 5 -2.5 2.5
      vertex 1.82213 -2.5 -0.0920467
    endloop
  endfacet
  facet normal 0 -1 0
    outer loop
      vertex 2.1221 -2.5 -0.340197
      vertex 5 -2.5 2.5
      vertex 1.97601 -2.5 -0.211409
    endloop
  endfacet
  facet normal 0 -1 0
    outer loop
      vertex 2.2598 -2.5 -0.477903
      vertex 5 -2.5 2.5
      vertex 2.1221 -2.5 -0.340197
    endloop
  endfacet
  facet normal 0 -1 0
    outer loop
      vertex 2.38859 -2.5 -0.623985
      vertex 5 -2.5 2.5
      vertex 2.2598 -2.5 -0.477903
    endloop
  endfacet
  facet normal 0 -1 0
    outer loop
      vertex 2.50795 -2.5 -0.777865
      vertex 5 -2.5 2.5
      vertex 2.38859 -2.5 -0.623985
    endloop
  endfacet
  facet normal 0 -1 0
    outer loop
      vertex 2.61742 -2.5 -0.938936
      vertex 5 -2.5 2.5
      vertex 2.50795 -2.5 -0.777865
    endloop
  endfacet
  facet normal 0 -1 0
    outer loop
      vertex 2.71655 -2.5 -1.10656
      vertex 5 -2.5 2.5
      vertex 2.61742 -2.5 -0.938936
    endloop
  endfacet
  facet normal 0 -1 0
    outer loop
      vertex 5 -2.5 -2.5
      vertex 2.71655 -2.5 -1.10656
      vertex 2.80496 -2.5 -1.28008
    endloop
  endfacet
  facet normal 0 -1 0
    outer loop
      vertex 5 -2.5 -2.5
      vertex 2.80496 -2.5 -1.28008
      vertex 2.88231 -2.5 -1.45881
    endloop
  endfacet
  facet normal 0 -1 0
    outer loop
      vertex 5 -2.5 -2.5
      vertex 2.88231 -2.5 -1.45881
      vertex 2.94827 -2.5 -1.64205
    endloop
  endfacet
  facet normal 0 -1 0
    outer loop
      vertex 5 -2.5 -2.5
      vertex 2.94827 -2.5 -1.64205
      vertex 3.00261 -2.5 -1.82906
    endloop
  endfacet
  facet normal 0 -1 0
    outer loop
      vertex 5 -2.5 -2.5
      vertex 3.00261 -2.5 -1.82906
      vertex 3.04509 -2.5 -2.01912
    endloop
  endfacet
  facet normal 0 -1 0
    outer loop
      vertex 5 -2.5 -2.5
      vertex 3.04509 -2.5 -2.01912
      vertex 3.07555 -2.5 -2.21147
    endloop
  endfacet
  facet normal 0 -1 0
    outer loop
      vertex 5 -2.5 -2.5
      vertex 3.07555 -2.5 -2.21147
      vertex 3.09388 -2.5 -2.40535
    endloop
  endfacet
  facet normal 0 -1 0
    outer loop
      vertex 5 -2.5 -2.5
      vertex 3.09388 -2.5 -2.40535
      vertex 3.09686 -2.5 -2.5
    endloop
  endfacet
  facet normal 0 -1 0
    outer loop
      vertex 2.71655 -2.5 -1.10656
      vertex 5 -2.5 -2.5
      vertex 5 -2.5 2.5
    endloop
  endfacet
  facet normal -0.999507 0 -0.0314105
    outer loop
      vertex 3.09686 -2.5 -2.5
      vertex 3.09388 2.5 -2.40535
      vertex 3.09686 2.5 -2.5
    endloop
  endfacet
  facet normal -0.999507 -0 -0.0314105
    outer loop
      vertex 3.09388 2.5 -2.40535
      vertex 3.09686 -2.5 -2.5
      vertex 3.09388 -2.5 -2.40535
    endloop
  endfacet
  facet normal 0.0314144 0 -0.999506
    outer loop
      vertex -0.19465 -2.5 0.493882
      vertex -0.145987 2.5 0.495412
      vertex -0.0486624 -2.5 0.498471
    endloop
  endfacet
  facet normal 0.0314144 0 -0.999506
    outer loop
      vertex -0.145987 2.5 0.495412
      vertex -0.19465 -2.5 0.493882
      vertex -0.19465 2.5 0.493882
    endloop
  endfacet
  facet normal -0.995562 0 -0.0941107
    outer loop
      vertex 3.09388 -2.5 -2.40535
      vertex 3.07555 2.5 -2.21147
      vertex 3.09388 2.5 -2.40535
    endloop
  endfacet
  facet normal -0.995562 -0 -0.0941107
    outer loop
      vertex 3.07555 2.5 -2.21147
      vertex 3.09388 -2.5 -2.40535
      vertex 3.07555 -2.5 -2.21147
    endloop
  endfacet
  facet normal -0.975917 0 -0.218142
    outer loop
      vertex 3.04509 -2.5 -2.01912
      vertex 3.00261 2.5 -1.82906
      vertex 3.04509 2.5 -2.01912
    endloop
  endfacet
  facet normal -0.975917 -0 -0.218142
    outer loop
      vertex 3.00261 2.5 -1.82906
      vertex 3.04509 -2.5 -2.01912
      vertex 3.00261 -2.5 -1.82906
    endloop
  endfacet
  facet normal -0.917754 0 -0.39715
    outer loop
      vertex 2.88231 -2.5 -1.45881
      vertex 2.80496 2.5 -1.28008
      vertex 2.88231 2.5 -1.45881
    endloop
  endfacet
  facet normal -0.917754 -0 -0.39715
    outer loop
      vertex 2.80496 2.5 -1.28008
      vertex 2.88231 -2.5 -1.45881
      vertex 2.80496 -2.5 -1.28008
    endloop
  endfacet
  facet normal -0.987688 0 -0.156434
    outer loop
      vertex 3.07555 -2.5 -2.21147
      vertex 3.04509 2.5 -2.01912
      vertex 3.07555 2.5 -2.21147
    endloop
  endfacet
  facet normal -0.987688 -0 -0.156434
    outer loop
      vertex 3.04509 2.5 -2.01912
      vertex 3.07555 -2.5 -2.21147
      vertex 3.04509 -2.5 -2.01912
    endloop
  endfacet
  facet normal -0.397146 0 -0.917755
    outer loop
      vertex 1.14119 -2.5 0.282307
      vertex 1.31992 2.5 0.204964
      vertex 1.31992 -2.5 0.204964
    endloop
  endfacet
  facet normal -0.397146 0 -0.917755
    outer loop
      vertex 1.31992 2.5 0.204964
      vertex 1.14119 -2.5 0.282307
      vertex 1.14119 2.5 0.282307
    endloop
  endfacet
  facet normal 0.987688 0 -0.156434
    outer loop
      vertex -3.04509 -2.5 -2.01912
      vertex -3.07555 2.5 -2.21147
      vertex -3.04509 2.5 -2.01912
    endloop
  endfacet
  facet normal 0.987688 0 -0.156434
    outer loop
      vertex -3.07555 2.5 -2.21147
      vertex -3.04509 -2.5 -2.01912
      vertex -3.07555 -2.5 -2.21147
    endloop
  endfacet
  facet normal 0.612908 0 -0.790154
    outer loop
      vertex -1.97601 -2.5 -0.211409
      vertex -1.82213 2.5 -0.0920467
      vertex -1.82213 -2.5 -0.0920467
    endloop
  endfacet
  facet normal 0.612908 0 -0.790154
    outer loop
      vertex -1.82213 2.5 -0.0920467
      vertex -1.97601 -2.5 -0.211409
      vertex -1.97601 2.5 -0.211409
    endloop
  endfacet
  facet normal 0.33874 0 -0.94088
    outer loop
      vertex -1.14119 -2.5 0.282307
      vertex -0.957952 2.5 0.348275
      vertex -0.957952 -2.5 0.348275
    endloop
  endfacet
  facet normal 0.33874 0 -0.94088
    outer loop
      vertex -0.957952 2.5 0.348275
      vertex -1.14119 -2.5 0.282307
      vertex -1.14119 2.5 0.282307
    endloop
  endfacet
  facet normal -0.156434 0 -0.987688
    outer loop
      vertex 0.388533 -2.5 0.475555
      vertex 0.580882 2.5 0.44509
      vertex 0.580882 -2.5 0.44509
    endloop
  endfacet
  facet normal -0.156434 0 -0.987688
    outer loop
      vertex 0.580882 2.5 0.44509
      vertex 0.388533 -2.5 0.475555
      vertex 0.388533 2.5 0.475555
    endloop
  endfacet
  facet normal -0.562078 0 -0.827084
    outer loop
      vertex 1.66106 -2.5 0.017416
      vertex 1.82213 2.5 -0.0920467
      vertex 1.82213 -2.5 -0.0920467
    endloop
  endfacet
  facet normal -0.562078 0 -0.827084
    outer loop
      vertex 1.82213 2.5 -0.0920467
      vertex 1.66106 -2.5 0.017416
      vertex 1.66106 2.5 0.017416
    endloop
  endfacet
  facet normal 0.156434 0 -0.987688
    outer loop
      vertex -0.580882 -2.5 0.44509
      vertex -0.388533 2.5 0.475555
      vertex -0.388533 -2.5 0.475555
    endloop
  endfacet
  facet normal 0.156434 0 -0.987688
    outer loop
      vertex -0.388533 2.5 0.475555
      vertex -0.580882 -2.5 0.44509
      vertex -0.580882 2.5 0.44509
    endloop
  endfacet
  facet normal 0.960293 0 -0.278992
    outer loop
      vertex -2.94827 -2.5 -1.64205
      vertex -3.00261 2.5 -1.82906
      vertex -2.94827 2.5 -1.64205
    endloop
  endfacet
  facet normal 0.960293 0 -0.278992
    outer loop
      vertex -3.00261 2.5 -1.82906
      vertex -2.94827 -2.5 -1.64205
      vertex -3.00261 -2.5 -1.82906
    endloop
  endfacet
  facet normal 0.917754 0 -0.39715
    outer loop
      vertex -2.80496 -2.5 -1.28008
      vertex -2.88231 2.5 -1.45881
      vertex -2.80496 2.5 -1.28008
    endloop
  endfacet
  facet normal 0.917754 0 -0.39715
    outer loop
      vertex -2.88231 2.5 -1.45881
      vertex -2.80496 -2.5 -1.28008
      vertex -2.88231 -2.5 -1.45881
    endloop
  endfacet
  facet normal -0.827078 0 -0.562087
    outer loop
      vertex 2.61742 -2.5 -0.938936
      vertex 2.50795 2.5 -0.777865
      vertex 2.61742 2.5 -0.938936
    endloop
  endfacet
  facet normal -0.827078 -0 -0.562087
    outer loop
      vertex 2.50795 2.5 -0.777865
      vertex 2.61742 -2.5 -0.938936
      vertex 2.50795 -2.5 -0.777865
    endloop
  endfacet
  facet normal -0.0314095 -9.53204e-08 -0.999507
    outer loop
      vertex 0 2.5 0.499999
      vertex 0.0486624 -2.5 0.498471
      vertex 0 -2.5 0.5
    endloop
  endfacet
  facet normal -0.0314095 -9.53204e-08 -0.999507
    outer loop
      vertex 0.0486624 -2.5 0.498471
      vertex 0 2.5 0.499999
      vertex 0.145987 2.5 0.495412
    endloop
  endfacet
  facet normal -0.33874 0 -0.94088
    outer loop
      vertex 0.957952 -2.5 0.348275
      vertex 1.14119 2.5 0.282307
      vertex 1.14119 -2.5 0.282307
    endloop
  endfacet
  facet normal -0.33874 0 -0.94088
    outer loop
      vertex 1.14119 2.5 0.282307
      vertex 0.957952 -2.5 0.348275
      vertex 0.957952 2.5 0.348275
    endloop
  endfacet
  facet normal -0.453992 0 -0.891006
    outer loop
      vertex 1.31992 -2.5 0.204964
      vertex 1.49344 2.5 0.11655
      vertex 1.49344 -2.5 0.11655
    endloop
  endfacet
  facet normal -0.453992 0 -0.891006
    outer loop
      vertex 1.49344 2.5 0.11655
      vertex 1.31992 -2.5 0.204964
      vertex 1.31992 2.5 0.204964
    endloop
  endfacet
  facet normal 0.995562 0 -0.0941107
    outer loop
      vertex -3.07555 -2.5 -2.21147
      vertex -3.09388 2.5 -2.40535
      vertex -3.07555 2.5 -2.21147
    endloop
  endfacet
  facet normal 0.995562 0 -0.0941107
    outer loop
      vertex -3.09388 2.5 -2.40535
      vertex -3.07555 -2.5 -2.21147
      vertex -3.09388 -2.5 -2.40535
    endloop
  endfacet
  facet normal 0.0941054 0 -0.995562
    outer loop
      vertex -0.388533 -2.5 0.475555
      vertex -0.19465 2.5 0.493882
      vertex -0.19465 -2.5 0.493882
    endloop
  endfacet
  facet normal 0.0941054 0 -0.995562
    outer loop
      vertex -0.19465 2.5 0.493882
      vertex -0.388533 -2.5 0.475555
      vertex -0.388533 2.5 0.475555
    endloop
  endfacet
  facet normal 0.453992 0 -0.891006
    outer loop
      vertex -1.49344 -2.5 0.11655
      vertex -1.31992 2.5 0.204964
      vertex -1.31992 -2.5 0.204964
    endloop
  endfacet
  facet normal 0.453992 0 -0.891006
    outer loop
      vertex -1.31992 2.5 0.204964
      vertex -1.49344 -2.5 0.11655
      vertex -1.49344 2.5 0.11655
    endloop
  endfacet
  facet normal 0.397146 0 -0.917755
    outer loop
      vertex -1.31992 -2.5 0.204964
      vertex -1.14119 2.5 0.282307
      vertex -1.14119 -2.5 0.282307
    endloop
  endfacet
  facet normal 0.397146 0 -0.917755
    outer loop
      vertex -1.14119 2.5 0.282307
      vertex -1.31992 -2.5 0.204964
      vertex -1.31992 2.5 0.204964
    endloop
  endfacet
  facet normal 0.975917 0 -0.218142
    outer loop
      vertex -3.00261 -2.5 -1.82906
      vertex -3.04509 2.5 -2.01912
      vertex -3.00261 2.5 -1.82906
    endloop
  endfacet
  facet normal 0.975917 0 -0.218142
    outer loop
      vertex -3.04509 2.5 -2.01912
      vertex -3.00261 -2.5 -1.82906
      vertex -3.04509 -2.5 -2.01912
    endloop
  endfacet
  facet normal 0.827078 0 -0.562087
    outer loop
      vertex -2.50795 -2.5 -0.777865
      vertex -2.61742 2.5 -0.938936
      vertex -2.50795 2.5 -0.777865
    endloop
  endfacet
  facet normal 0.827078 0 -0.562087
    outer loop
      vertex -2.61742 2.5 -0.938936
      vertex -2.50795 -2.5 -0.777865
      vertex -2.61742 -2.5 -0.938936
    endloop
  endfacet
  facet normal 0.661313 0 -0.75011
    outer loop
      vertex -2.1221 -2.5 -0.340197
      vertex -1.97601 2.5 -0.211409
      vertex -1.97601 -2.5 -0.211409
    endloop
  endfacet
  facet normal 0.661313 0 -0.75011
    outer loop
      vertex -1.97601 2.5 -0.211409
      vertex -2.1221 -2.5 -0.340197
      vertex -2.1221 2.5 -0.340197
    endloop
  endfacet
  facet normal 0.891006 0 -0.453992
    outer loop
      vertex -2.71655 -2.5 -1.10656
      vertex -2.80496 2.5 -1.28008
      vertex -2.71655 2.5 -1.10656
    endloop
  endfacet
  facet normal 0.891006 0 -0.453992
    outer loop
      vertex -2.80496 2.5 -1.28008
      vertex -2.71655 -2.5 -1.10656
      vertex -2.80496 -2.5 -1.28008
    endloop
  endfacet
  facet normal -0.960293 0 -0.278992
    outer loop
      vertex 3.00261 -2.5 -1.82906
      vertex 2.94827 2.5 -1.64205
      vertex 3.00261 2.5 -1.82906
    endloop
  endfacet
  facet normal -0.960293 -0 -0.278992
    outer loop
      vertex 2.94827 2.5 -1.64205
      vertex 3.00261 -2.5 -1.82906
      vertex 2.94827 -2.5 -1.64205
    endloop
  endfacet
  facet normal -0.75011 0 -0.661313
    outer loop
      vertex 2.38859 -2.5 -0.623985
      vertex 2.2598 2.5 -0.477903
      vertex 2.38859 2.5 -0.623985
    endloop
  endfacet
  facet normal -0.75011 -0 -0.661313
    outer loop
      vertex 2.2598 2.5 -0.477903
      vertex 2.38859 -2.5 -0.623985
      vertex 2.2598 -2.5 -0.477903
    endloop
  endfacet
  facet normal -0.940882 0 -0.338736
    outer loop
      vertex 2.94827 -2.5 -1.64205
      vertex 2.88231 2.5 -1.45881
      vertex 2.94827 2.5 -1.64205
    endloop
  endfacet
  facet normal -0.940882 -0 -0.338736
    outer loop
      vertex 2.88231 2.5 -1.45881
      vertex 2.94827 -2.5 -1.64205
      vertex 2.88231 -2.5 -1.45881
    endloop
  endfacet
  facet normal -0.0941054 0 -0.995562
    outer loop
      vertex 0.19465 -2.5 0.493882
      vertex 0.388533 2.5 0.475555
      vertex 0.388533 -2.5 0.475555
    endloop
  endfacet
  facet normal -0.0941054 0 -0.995562
    outer loop
      vertex 0.388533 2.5 0.475555
      vertex 0.19465 -2.5 0.493882
      vertex 0.19465 2.5 0.493882
    endloop
  endfacet
  facet normal -0.0314144 0 -0.999506
    outer loop
      vertex 0.19465 -2.5 0.493882
      vertex 0.145987 2.5 0.495412
      vertex 0.19465 2.5 0.493882
    endloop
  endfacet
  facet normal -0.0314144 0 -0.999506
    outer loop
      vertex 0.145987 2.5 0.495412
      vertex 0.19465 -2.5 0.493882
      vertex 0.0486624 -2.5 0.498471
    endloop
  endfacet
  facet normal 0.0314095 -9.53204e-08 -0.999507
    outer loop
      vertex -0.0486624 -2.5 0.498471
      vertex 0 2.5 0.499999
      vertex 0 -2.5 0.5
    endloop
  endfacet
  facet normal 0.0314095 -9.53204e-08 -0.999507
    outer loop
      vertex 0 2.5 0.499999
      vertex -0.0486624 -2.5 0.498471
      vertex -0.145987 2.5 0.495412
    endloop
  endfacet
  facet normal -0.218147 0 -0.975916
    outer loop
      vertex 0.580882 -2.5 0.44509
      vertex 0.770938 2.5 0.402607
      vertex 0.770938 -2.5 0.402607
    endloop
  endfacet
  facet normal -0.218147 0 -0.975916
    outer loop
      vertex 0.770938 2.5 0.402607
      vertex 0.580882 -2.5 0.44509
      vertex 0.580882 2.5 0.44509
    endloop
  endfacet
  facet normal -0.612908 0 -0.790154
    outer loop
      vertex 1.82213 -2.5 -0.0920467
      vertex 1.97601 2.5 -0.211409
      vertex 1.97601 -2.5 -0.211409
    endloop
  endfacet
  facet normal -0.612908 0 -0.790154
    outer loop
      vertex 1.97601 2.5 -0.211409
      vertex 1.82213 -2.5 -0.0920467
      vertex 1.82213 2.5 -0.0920467
    endloop
  endfacet
  facet normal 0.999507 0 -0.0314105
    outer loop
      vertex -3.09388 -2.5 -2.40535
      vertex -3.09686 2.5 -2.5
      vertex -3.09388 2.5 -2.40535
    endloop
  endfacet
  facet normal 0.999507 0 -0.0314105
    outer loop
      vertex -3.09686 2.5 -2.5
      vertex -3.09388 -2.5 -2.40535
      vertex -3.09686 -2.5 -2.5
    endloop
  endfacet
  facet normal 0.509043 0 -0.860741
    outer loop
      vertex -1.66106 -2.5 0.017416
      vertex -1.49344 2.5 0.11655
      vertex -1.49344 -2.5 0.11655
    endloop
  endfacet
  facet normal 0.509043 0 -0.860741
    outer loop
      vertex -1.49344 2.5 0.11655
      vertex -1.66106 -2.5 0.017416
      vertex -1.66106 2.5 0.017416
    endloop
  endfacet
  facet normal 0.562078 0 -0.827084
    outer loop
      vertex -1.82213 -2.5 -0.0920467
      vertex -1.66106 2.5 0.017416
      vertex -1.66106 -2.5 0.017416
    endloop
  endfacet
  facet normal 0.562078 0 -0.827084
    outer loop
      vertex -1.66106 2.5 0.017416
      vertex -1.82213 -2.5 -0.0920467
      vertex -1.82213 2.5 -0.0920467
    endloop
  endfacet
  facet normal 0.278986 0 -0.960295
    outer loop
      vertex -0.957952 -2.5 0.348275
      vertex -0.770938 2.5 0.402607
      vertex -0.770938 -2.5 0.402607
    endloop
  endfacet
  facet normal 0.278986 0 -0.960295
    outer loop
      vertex -0.770938 2.5 0.402607
      vertex -0.957952 -2.5 0.348275
      vertex -0.957952 2.5 0.348275
    endloop
  endfacet
  facet normal 0.940882 0 -0.338736
    outer loop
      vertex -2.88231 -2.5 -1.45881
      vertex -2.94827 2.5 -1.64205
      vertex -2.88231 2.5 -1.45881
    endloop
  endfacet
  facet normal 0.940882 0 -0.338736
    outer loop
      vertex -2.94827 2.5 -1.64205
      vertex -2.88231 -2.5 -1.45881
      vertex -2.94827 -2.5 -1.64205
    endloop
  endfacet
  facet normal 0.790157 0 -0.612905
    outer loop
      vertex -2.38859 -2.5 -0.623985
      vertex -2.50795 2.5 -0.777865
      vertex -2.38859 2.5 -0.623985
    endloop
  endfacet
  facet normal 0.790157 0 -0.612905
    outer loop
      vertex -2.50795 2.5 -0.777865
      vertex -2.38859 -2.5 -0.623985
      vertex -2.50795 -2.5 -0.777865
    endloop
  endfacet
  facet normal 0.75011 0 -0.661313
    outer loop
      vertex -2.2598 -2.5 -0.477903
      vertex -2.38859 2.5 -0.623985
      vertex -2.2598 2.5 -0.477903
    endloop
  endfacet
  facet normal 0.75011 0 -0.661313
    outer loop
      vertex -2.38859 2.5 -0.623985
      vertex -2.2598 -2.5 -0.477903
      vertex -2.38859 -2.5 -0.623985
    endloop
  endfacet
  facet normal 0.860744 0 -0.509037
    outer loop
      vertex -2.61742 -2.5 -0.938936
      vertex -2.71655 2.5 -1.10656
      vertex -2.61742 2.5 -0.938936
    endloop
  endfacet
  facet normal 0.860744 0 -0.509037
    outer loop
      vertex -2.71655 2.5 -1.10656
      vertex -2.61742 -2.5 -0.938936
      vertex -2.71655 -2.5 -1.10656
    endloop
  endfacet
  facet normal -0.790157 0 -0.612905
    outer loop
      vertex 2.50795 -2.5 -0.777865
      vertex 2.38859 2.5 -0.623985
      vertex 2.50795 2.5 -0.777865
    endloop
  endfacet
  facet normal -0.790157 -0 -0.612905
    outer loop
      vertex 2.38859 2.5 -0.623985
      vertex 2.50795 -2.5 -0.777865
      vertex 2.38859 -2.5 -0.623985
    endloop
  endfacet
  facet normal -0.860744 0 -0.509037
    outer loop
      vertex 2.71655 -2.5 -1.10656
      vertex 2.61742 2.5 -0.938936
      vertex 2.71655 2.5 -1.10656
    endloop
  endfacet
  facet normal -0.860744 -0 -0.509037
    outer loop
      vertex 2.61742 2.5 -0.938936
      vertex 2.71655 -2.5 -1.10656
      vertex 2.61742 -2.5 -0.938936
    endloop
  endfacet
  facet normal -0.278986 0 -0.960295
    outer loop
      vertex 0.770938 -2.5 0.402607
      vertex 0.957952 2.5 0.348275
      vertex 0.957952 -2.5 0.348275
    endloop
  endfacet
  facet normal -0.278986 0 -0.960295
    outer loop
      vertex 0.957952 2.5 0.348275
      vertex 0.770938 -2.5 0.402607
      vertex 0.770938 2.5 0.402607
    endloop
  endfacet
  facet normal -0.509043 0 -0.860741
    outer loop
      vertex 1.49344 -2.5 0.11655
      vertex 1.66106 2.5 0.017416
      vertex 1.66106 -2.5 0.017416
    endloop
  endfacet
  facet normal -0.509043 0 -0.860741
    outer loop
      vertex 1.66106 2.5 0.017416
      vertex 1.49344 -2.5 0.11655
      vertex 1.49344 2.5 0.11655
    endloop
  endfacet
  facet normal 0.218147 0 -0.975916
    outer loop
      vertex -0.770938 -2.5 0.402607
      vertex -0.580882 2.5 0.44509
      vertex -0.580882 -2.5 0.44509
    endloop
  endfacet
  facet normal 0.218147 0 -0.975916
    outer loop
      vertex -0.580882 2.5 0.44509
      vertex -0.770938 -2.5 0.402607
      vertex -0.770938 2.5 0.402607
    endloop
  endfacet
  facet normal 0.707107 0 -0.707107
    outer loop
      vertex -2.1221 -2.5 -0.340197
      vertex -2.2598 2.5 -0.477903
      vertex -2.1221 2.5 -0.340197
    endloop
  endfacet
  facet normal 0.707107 0 -0.707107
    outer loop
      vertex -2.2598 2.5 -0.477903
      vertex -2.1221 -2.5 -0.340197
      vertex -2.2598 -2.5 -0.477903
    endloop
  endfacet
  facet normal -0.707107 0 -0.707107
    outer loop
      vertex 2.2598 -2.5 -0.477903
      vertex 2.1221 2.5 -0.340197
      vertex 2.2598 2.5 -0.477903
    endloop
  endfacet
  facet normal -0.707107 -0 -0.707107
    outer loop
      vertex 2.1221 2.5 -0.340197
      vertex 2.2598 -2.5 -0.477903
      vertex 2.1221 -2.5 -0.340197
    endloop
  endfacet
  facet normal -0.661313 0 -0.75011
    outer loop
      vertex 1.97601 -2.5 -0.211409
      vertex 2.1221 2.5 -0.340197
      vertex 2.1221 -2.5 -0.340197
    endloop
  endfacet
  facet normal -0.661313 0 -0.75011
    outer loop
      vertex 2.1221 2.5 -0.340197
      vertex 1.97601 -2.5 -0.211409
      vertex 1.97601 2.5 -0.211409
    endloop
  endfacet
  facet normal -0.891006 0 -0.453992
    outer loop
      vertex 2.80496 -2.5 -1.28008
      vertex 2.71655 2.5 -1.10656
      vertex 2.80496 2.5 -1.28008
    endloop
  endfacet
  facet normal -0.891006 -0 -0.453992
    outer loop
      vertex 2.71655 2.5 -1.10656
      vertex 2.80496 -2.5 -1.28008
      vertex 2.71655 -2.5 -1.10656
    endloop
  endfacet
endsolid OpenSCAD_Model
