solid OpenSCAD_Model
  facet normal -1 0 0
    outer loop
      vertex -5 -2.5 -2.5
      vertex -5 2.5 2.5
      vertex -5 2.5 -2.5
    endloop
  endfacet
  facet normal -1 -0 0
    outer loop
      vertex -5 2.5 2.5
      vertex -5 -2.5 -2.5
      vertex -5 -2.5 2.5
    endloop
  endfacet
  facet normal -0 0 1
    outer loop
      vertex -5 2.5 2.5
      vertex 5 -2.5 2.5
      vertex 5 2.5 2.5
    endloop
  endfacet
  facet normal 0 0 1
    outer loop
      vertex 5 -2.5 2.5
      vertex -5 2.5 2.5
      vertex -5 -2.5 2.5
    endloop
  endfacet
  facet normal 1 -0 0
    outer loop
      vertex 5 -2.5 2.5
      vertex 5 2.5 -2.5
      vertex 5 2.5 2.5
    endloop
  endfacet
  facet normal 1 0 0
    outer loop
      vertex 5 2.5 -2.5
      vertex 5 -2.5 2.5
      vertex 5 -2.5 -2.5
    endloop
  endfacet
  facet normal 0 1 0
    outer loop
      vertex 5 2.5 2.5
      vertex 0 2.5 1.3
      vertex -5 2.5 2.5
    endloop
  endfacet
  facet normal 0 1 0
    outer loop
      vertex 5 2.5 2.5
      vertex 0.244883 2.5 1.2923
      vertex 0 2.5 1.3
    endloop
  endfacet
  facet normal 0 1 0
    outer loop
      vertex 5 2.5 2.5
      vertex 0.488799 2.5 1.26925
      vertex 0.244883 2.5 1.2923
    endloop
  endfacet
  facet normal 0 1 0
    outer loop
      vertex 5 2.5 2.5
      vertex 0.730786 2.5 1.23092
      vertex 0.488799 2.5 1.26925
    endloop
  endfacet
  facet normal 0 1 0
    outer loop
      vertex 5 2.5 2.5
      vertex 0.96989 2.5 1.17747
      vertex 0.730786 2.5 1.23092
    endloop
  endfacet
  facet normal 0 1 0
    outer loop
      vertex 5 2.5 2.5
      vertex 1.20517 2.5 1.10912
      vertex 0.96989 2.5 1.17747
    endloop
  endfacet
  facet normal 0 1 0
    outer loop
      vertex 5 2.5 2.5
      vertex 1.43569 2.5 1.02613
      vertex 1.20517 2.5 1.10912
    endloop
  endfacet
  facet normal 0 1 0
    outer loop
      vertex 5 2.5 2.5
      vertex 1.66054 2.5 0.928825
      vertex 1.43569 2.5 1.02613
    endloop
  endfacet
  facet normal 0 1 0
    outer loop
      vertex 5 2.5 2.5
      vertex 1.87884 2.5 0.817595
      vertex 1.66054 2.5 0.928825
    endloop
  endfacet
  facet normal 0 1 0
    outer loop
      vertex 5 2.5 2.5
      vertex 2.08972 2.5 0.692879
      vertex 1.87884 2.5 0.817595
    endloop
  endfacet
  facet normal 0 1 0
    outer loop
      vertex 5 2.5 2.5
      vertex 2.29236 2.5 0.555166
      vertex 2.08972 2.5 0.692879
    endloop
  endfacet
  facet normal 0 1 0
    outer loop
      vertex 5 2.5 2.5
      vertex 2.48595 2.5 0.405002
      vertex 2.29236 2.5 0.555166
    endloop
  endfacet
  facet normal 0 1 0
    outer loop
      vertex 5 2.5 2.5
      vertex 2.66973 2.5 0.242977
      vertex 2.48595 2.5 0.405002
    endloop
  endfacet
  facet normal 0 1 0
    outer loop
      vertex 5 2.5 2.5
      vertex 2.84298 2.5 0.0697336
      vertex 2.66973 2.5 0.242977
    endloop
  endfacet
  facet normal 0 1 0
    outer loop
      vertex 5 2.5 2.5
      vertex 3.005 2.5 -0.114046
      vertex 2.84298 2.5 0.0697336
    endloop
  endfacet
  facet normal 0 1 0
    outer loop
      vertex 5 2.5 2.5
      vertex 3.15517 2.5 -0.307637
      vertex 3.005 2.5 -0.114046
    endloop
  endfacet
  facet normal 0 1 0
    outer loop
      vertex 5 2.5 2.5
      vertex 3.29288 2.5 -0.510275
      vertex 3.15517 2.5 -0.307637
    endloop
  endfacet
  facet normal 0 1 0
    outer loop
      vertex 5 2.5 2.5
      vertex 3.4176 2.5 -0.72116
      vertex 3.29288 2.5 -0.510275
    endloop
  endfacet
  facet normal 0 1 0
    outer loop
      vertex 5 2.5 2.5
      vertex 3.52882 2.5 -0.939461
      vertex 3.4176 2.5 -0.72116
    endloop
  endfacet
  facet normal 0 1 0
    outer loop
      vertex 5 2.5 2.5
      vertex 3.62613 2.5 -1.16431
      vertex 3.52882 2.5 -0.939461
    endloop
  endfacet
  facet normal 0 1 -0
    outer loop
      vertex 5 2.5 -2.5
      vertex 3.62613 2.5 -1.16431
      vertex 5 2.5 2.5
    endloop
  endfacet
  facet normal 0 1 0
    outer loop
      vertex 3.62613 2.5 -1.16431
      vertex 5 2.5 -2.5
      vertex 3.70912 2.5 -1.39483
    endloop
  endfacet
  facet normal 0 1 0
    outer loop
      vertex 3.70912 2.5 -1.39483
      vertex 5 2.5 -2.5
      vertex 3.77747 2.5 -1.63011
    endloop
  endfacet
  facet normal 0 1 0
    outer loop
      vertex 3.77747 2.5 -1.63011
      vertex 5 2.5 -2.5
      vertex 3.83092 2.5 -1.86921
    endloop
  endfacet
  facet normal 0 1 0
    outer loop
      vertex 3.83092 2.5 -1.86921
      vertex 5 2.5 -2.5
      vertex 3.86925 2.5 -2.1112
    endloop
  endfacet
  facet normal 0 1 0
    outer loop
      vertex 3.86925 2.5 -2.1112
      vertex 5 2.5 -2.5
      vertex 3.8923 2.5 -2.35512
    endloop
  endfacet
  facet normal 0 1 0
    outer loop
      vertex 3.8923 2.5 -2.35512
      vertex 5 2.5 -2.5
      vertex 3.89686 2.5 -2.5
    endloop
  endfacet
  facet normal 0 1 -0
    outer loop
      vertex -0.244883 2.5 1.2923
      vertex -5 2.5 2.5
      vertex 0 2.5 1.3
    endloop
  endfacet
  facet normal 0 1 -0
    outer loop
      vertex -0.488799 2.5 1.26925
      vertex -5 2.5 2.5
      vertex -0.244883 2.5 1.2923
    endloop
  endfacet
  facet normal 0 1 -0
    outer loop
      vertex -0.730786 2.5 1.23092
      vertex -5 2.5 2.5
      vertex -0.488799 2.5 1.26925
    endloop
  endfacet
  facet normal 0 1 -0
    outer loop
      vertex -0.96989 2.5 1.17747
      vertex -5 2.5 2.5
      vertex -0.730786 2.5 1.23092
    endloop
  endfacet
  facet normal 0 1 -0
    outer loop
      vertex -1.20517 2.5 1.10912
      vertex -5 2.5 2.5
      vertex -0.96989 2.5 1.17747
    endloop
  endfacet
  facet normal 0 1 -0
    outer loop
      vertex -1.43569 2.5 1.02613
      vertex -5 2.5 2.5
      vertex -1.20517 2.5 1.10912
    endloop
  endfacet
  facet normal 0 1 -0
    outer loop
      vertex -1.66054 2.5 0.928825
      vertex -5 2.5 2.5
      vertex -1.43569 2.5 1.02613
    endloop
  endfacet
  facet normal 0 1 -0
    outer loop
      vertex -1.87884 2.5 0.817595
      vertex -5 2.5 2.5
      vertex -1.66054 2.5 0.928825
    endloop
  endfacet
  facet normal 0 1 -0
    outer loop
      vertex -2.08972 2.5 0.692879
      vertex -5 2.5 2.5
      vertex -1.87884 2.5 0.817595
    endloop
  endfacet
  facet normal 0 1 -0
    outer loop
      vertex -2.29236 2.5 0.555166
      vertex -5 2.5 2.5
      vertex -2.08972 2.5 0.692879
    endloop
  endfacet
  facet normal 0 1 -0
    outer loop
      vertex -2.48595 2.5 0.405002
      vertex -5 2.5 2.5
      vertex -2.29236 2.5 0.555166
    endloop
  endfacet
  facet normal 0 1 -0
    outer loop
      vertex -2.66973 2.5 0.242977
      vertex -5 2.5 2.5
      vertex -2.48595 2.5 0.405002
    endloop
  endfacet
  facet normal 0 1 -0
    outer loop
      vertex -2.84298 2.5 0.0697336
      vertex -5 2.5 2.5
      vertex -2.66973 2.5 0.242977
    endloop
  endfacet
  facet normal 0 1 -0
    outer loop
      vertex -3.005 2.5 -0.114046
      vertex -5 2.5 2.5
      vertex -2.84298 2.5 0.0697336
    endloop
  endfacet
  facet normal 0 1 -0
    outer loop
      vertex -3.15517 2.5 -0.307637
      vertex -5 2.5 2.5
      vertex -3.005 2.5 -0.114046
    endloop
  endfacet
  facet normal 0 1 -0
    outer loop
      vertex -3.29288 2.5 -0.510275
      vertex -5 2.5 2.5
      vertex -3.15517 2.5 -0.307637
    endloop
  endfacet
  facet normal 0 1 -0
    outer loop
      vertex -3.4176 2.5 -0.72116
      vertex -5 2.5 2.5
      vertex -3.29288 2.5 -0.510275
    endloop
  endfacet
  facet normal 0 1 -0
    outer loop
      vertex -3.52882 2.5 -0.939461
      vertex -5 2.5 2.5
      vertex -3.4176 2.5 -0.72116
    endloop
  endfacet
  facet normal 0 1 -0
    outer loop
      vertex -3.62613 2.5 -1.16431
      vertex -5 2.5 2.5
      vertex -3.52882 2.5 -0.939461
    endloop
  endfacet
  facet normal 0 1 0
    outer loop
      vertex -5 2.5 -2.5
      vertex -3.62613 2.5 -1.16431
      vertex -3.70912 2.5 -1.39483
    endloop
  endfacet
  facet normal 0 1 0
    outer loop
      vertex -5 2.5 -2.5
      vertex -3.70912 2.5 -1.39483
      vertex -3.77747 2.5 -1.63011
    endloop
  endfacet
  facet normal 0 1 0
    outer loop
      vertex -5 2.5 -2.5
      vertex -3.77747 2.5 -1.63011
      vertex -3.83092 2.5 -1.86921
    endloop
  endfacet
  facet normal 0 1 0
    outer loop
      vertex -5 2.5 -2.5
      vertex -3.83092 2.5 -1.86921
      vertex -3.86925 2.5 -2.1112
    endloop
  endfacet
  facet normal 0 1 0
    outer loop
      vertex -5 2.5 -2.5
      vertex -3.86925 2.5 -2.1112
      vertex -3.8923 2.5 -2.35512
    endloop
  endfacet
  facet normal 0 1 0
    outer loop
      vertex -5 2.5 -2.5
      vertex -3.8923 2.5 -2.35512
      vertex -3.89686 2.5 -2.5
    endloop
  endfacet
  facet normal 0 1 0
    outer loop
      vertex -3.62613 2.5 -1.16431
      vertex -5 2.5 -2.5
      vertex -5 2.5 2.5
    endloop
  endfacet
  facet normal 0 0 -1
    outer loop
      vertex -5 -2.5 -2.5
      vertex -3.89686 2.5 -2.5
      vertex -3.89686 -2.5 -2.5
    endloop
  endfacet
  facet normal -0 0 -1
    outer loop
      vertex -3.89686 2.5 -2.5
      vertex -5 -2.5 -2.5
      vertex -5 2.5 -2.5
    endloop
  endfacet
  facet normal 0 0 -1
    outer loop
      vertex 3.89686 -2.5 -2.5
      vertex 5 2.5 -2.5
      vertex 5 -2.5 -2.5
    endloop
  endfacet
  facet normal -0 0 -1
    outer loop
      vertex 5 2.5 -2.5
      vertex 3.89686 -2.5 -2.5
      vertex 3.89686 2.5 -2.5
    endloop
  endfacet
  facet normal 0 -1 0
    outer loop
      vertex -5 -2.5 2.5
      vertex 0 -2.5 1.3
      vertex 5 -2.5 2.5
    endloop
  endfacet
  facet normal 0 -1 0
    outer loop
      vertex -5 -2.5 2.5
      vertex -0.244883 -2.5 1.2923
      vertex 0 -2.5 1.3
    endloop
  endfacet
  facet normal 0 -1 0
    outer loop
      vertex -5 -2.5 2.5
      vertex -0.488799 -2.5 1.26925
      vertex -0.244883 -2.5 1.2923
    endloop
  endfacet
  facet normal 0 -1 0
    outer loop
      vertex -5 -2.5 2.5
      vertex -0.730786 -2.5 1.23092
      vertex -0.488799 -2.5 1.26925
    endloop
  endfacet
  facet normal 0 -1 0
    outer loop
      vertex -5 -2.5 2.5
      vertex -0.96989 -2.5 1.17747
      vertex -0.730786 -2.5 1.23092
    endloop
  endfacet
  facet normal 0 -1 0
    outer loop
      vertex -5 -2.5 2.5
      vertex -1.20517 -2.5 1.10912
      vertex -0.96989 -2.5 1.17747
    endloop
  endfacet
  facet normal 0 -1 0
    outer loop
      vertex -5 -2.5 2.5
      vertex -1.43569 -2.5 1.02613
      vertex -1.20517 -2.5 1.10912
    endloop
  endfacet
  facet normal 0 -1 0
    outer loop
      vertex -5 -2.5 2.5
      vertex -1.66054 -2.5 0.928825
      vertex -1.43569 -2.5 1.02613
    endloop
  endfacet
  facet normal 0 -1 0
    outer loop
      vertex -5 -2.5 2.5
      vertex -1.87884 -2.5 0.817595
      vertex -1.66054 -2.5 0.928825
    endloop
  endfacet
  facet normal 0 -1 0
    outer loop
      vertex -5 -2.5 2.5
      vertex -2.08972 -2.5 0.692879
      vertex -1.87884 -2.5 0.817595
    endloop
  endfacet
  facet normal 0 -1 0
    outer loop
      vertex -5 -2.5 2.5
      vertex -2.29236 -2.5 0.555166
      vertex -2.08972 -2.5 0.692879
    endloop
  endfacet
  facet normal 0 -1 0
    outer loop
      vertex -5 -2.5 2.5
      vertex -2.48595 -2.5 0.405002
      vertex -2.29236 -2.5 0.555166
    endloop
  endfacet
  facet normal 0 -1 0
    outer loop
      vertex -5 -2.5 2.5
      vertex -2.66973 -2.5 0.242977
      vertex -2.48595 -2.5 0.405002
    endloop
  endfacet
  facet normal 0 -1 0
    outer loop
      vertex -5 -2.5 2.5
      vertex -2.84298 -2.5 0.0697336
      vertex -2.66973 -2.5 0.242977
    endloop
  endfacet
  facet normal 0 -1 0
    outer loop
      vertex -5 -2.5 2.5
      vertex -3.005 -2.5 -0.114046
      vertex -2.84298 -2.5 0.0697336
    endloop
  endfacet
  facet normal 0 -1 0
    outer loop
      vertex -5 -2.5 2.5
      vertex -3.15517 -2.5 -0.307637
      vertex -3.005 -2.5 -0.114046
    endloop
  endfacet
  facet normal 0 -1 0
    outer loop
      vertex -5 -2.5 2.5
      vertex -3.29288 -2.5 -0.510275
      vertex -3.15517 -2.5 -0.307637
    endloop
  endfacet
  facet normal 0 -1 0
    outer loop
      vertex -5 -2.5 2.5
      vertex -3.4176 -2.5 -0.72116
      vertex -3.29288 -2.5 -0.510275
    endloop
  endfacet
  facet normal 0 -1 0
    outer loop
      vertex -5 -2.5 2.5
      vertex -3.52882 -2.5 -0.939461
      vertex -3.4176 -2.5 -0.72116
    endloop
  endfacet
  facet normal 0 -1 0
    outer loop
      vertex -5 -2.5 2.5
      vertex -3.62613 -2.5 -1.16431
      vertex -3.52882 -2.5 -0.939461
    endloop
  endfacet
  facet normal 0 -1 0
    outer loop
      vertex -5 -2.5 -2.5
      vertex -3.62613 -2.5 -1.16431
      vertex -5 -2.5 2.5
    endloop
  endfacet
  facet normal 0 -1 0
    outer loop
      vertex -3.62613 -2.5 -1.16431
      vertex -5 -2.5 -2.5
      vertex -3.70912 -2.5 -1.39483
    endloop
  endfacet
  facet normal 0 -1 0
    outer loop
      vertex -3.70912 -2.5 -1.39483
      vertex -5 -2.5 -2.5
      vertex -3.77747 -2.5 -1.63011
    endloop
  endfacet
  facet normal 0 -1 0
    outer loop
      vertex -3.77747 -2.5 -1.63011
      vertex -5 -2.5 -2.5
      vertex -3.83092 -2.5 -1.86921
    endloop
  endfacet
  facet normal 0 -1 0
    outer loop
      vertex -3.83092 -2.5 -1.86921
      vertex -5 -2.5 -2.5
      vertex -3.86925 -2.5 -2.1112
    endloop
  endfacet
  facet normal 0 -1 0
    outer loop
      vertex -3.86925 -2.5 -2.1112
      vertex -5 -2.5 -2.5
      vertex -3.8923 -2.5 -2.35512
    endloop
  endfacet
  facet normal 0 -1 0
    outer loop
      vertex -3.8923 -2.5 -2.35512
      vertex -5 -2.5 -2.5
      vertex -3.89686 -2.5 -2.5
    endloop
  endfacet
  facet normal 0 -1 0
    outer loop
      vertex 0.244883 -2.5 1.2923
      vertex 5 -2.5 2.5
      vertex 0 -2.5 1.3
    endloop
  endfacet
  facet normal 0 -1 0
    outer loop
      vertex 0.488799 -2.5 1.26925
      vertex 5 -2.5 2.5
      vertex 0.244883 -2.5 1.2923
    endloop
  endfacet
  facet normal 0 -1 0
    outer loop
      vertex 0.730786 -2.5 1.23092
      vertex 5 -2.5 2.5
      vertex 0.488799 -2.5 1.26925
    endloop
  endfacet
  facet normal 0 -1 0
    outer loop
      vertex 0.96989 -2.5 1.17747
      vertex 5 -2.5 2.5
      vertex 0.730786 -2.5 1.23092
    endloop
  endfacet
  facet normal 0 -1 0
    outer loop
      vertex 1.20517 -2.5 1.10912
      vertex 5 -2.5 2.5
      vertex 0.96989 -2.5 1.17747
    endloop
  endfacet
  facet normal 0 -1 0
    outer loop
      vertex 1.43569 -2.5 1.02613
      vertex 5 -2.5 2.5
      vertex 1.20517 -2.5 1.10912
    endloop
  endfacet
  facet normal 0 -1 0
    outer loop
      vertex 1.66054 -2.5 0.928825
      vertex 5 -2.5 2.5
      vertex 1.43569 -2.5 1.02613
    endloop
  endfacet
  facet normal 0 -1 0
    outer loop
      vertex 1.87884 -2.5 0.817595
      vertex 5 -2.5 2.5
      vertex 1.66054 -2.5 0.928825
    endloop
  endfacet
  facet normal 0 -1 0
    outer loop
      vertex 2.08972 -2.5 0.692879
      vertex 5 -2.5 2.5
      vertex 1.87884 -2.5 0.817595
    endloop
  endfacet
  facet normal 0 -1 0
    outer loop
      vertex 2.29236 -2.5 0.555166
      vertex 5 -2.5 2.5
      vertex 2.08972 -2.5 0.692879
    endloop
  endfacet
  facet normal 0 -1 0
    outer loop
      vertex 2.48595 -2.5 0.405002
      vertex 5 -2.5 2.5
      vertex 2.29236 -2.5 0.555166
    endloop
  endfacet
  facet normal 0 -1 0
    outer loop
      vertex 2.66973 -2.5 0.242977
      vertex 5 -2.5 2.5
      vertex 2.48595 -2.5 0.405002
    endloop
  endfacet
  facet normal 0 -1 0
    outer loop
      vertex 2.84298 -2.5 0.0697336
      vertex 5 -2.5 2.5
      vertex 2.66973 -2.5 0.242977
    endloop
  endfacet
  facet normal 0 -1 0
    outer loop
      vertex 3.005 -2.5 -0.114046
      vertex 5 -2.5 2.5
      vertex 2.84298 -2.5 0.0697336
    endloop
  endfacet
  facet normal 0 -1 0
    outer loop
      vertex 3.15517 -2.5 -0.307637
      vertex 5 -2.5 2.5
      vertex 3.005 -2.5 -0.114046
    endloop
  endfacet
  facet normal 0 -1 0
    outer loop
      vertex 3.29288 -2.5 -0.510275
      vertex 5 -2.5 2.5
      vertex 3.15517 -2.5 -0.307637
    endloop
  endfacet
  facet normal 0 -1 0
    outer loop
      vertex 3.4176 -2.5 -0.72116
      vertex 5 -2.5 2.5
      vertex 3.29288 -2.5 -0.510275
    endloop
  endfacet
  facet normal 0 -1 0
    outer loop
      vertex 3.52882 -2.5 -0.939461
      vertex 5 -2.5 2.5
      vertex 3.4176 -2.5 -0.72116
    endloop
  endfacet
  facet normal 0 -1 0
    outer loop
      vertex 3.62613 -2.5 -1.16431
      vertex 5 -2.5 2.5
      vertex 3.52882 -2.5 -0.939461
    endloop
  endfacet
  facet normal 0 -1 0
    outer loop
      vertex 5 -2.5 -2.5
      vertex 3.62613 -2.5 -1.16431
      vertex 3.70912 -2.5 -1.39483
    endloop
  endfacet
  facet normal 0 -1 0
    outer loop
      vertex 5 -2.5 -2.5
      vertex 3.70912 -2.5 -1.39483
      vertex 3.77747 -2.5 -1.63011
    endloop
  endfacet
  facet normal 0 -1 0
    outer loop
      vertex 5 -2.5 -2.5
      vertex 3.77747 -2.5 -1.63011
      vertex 3.83092 -2.5 -1.86921
    endloop
  endfacet
  facet normal 0 -1 0
    outer loop
      vertex 5 -2.5 -2.5
      vertex 3.83092 -2.5 -1.86921
      vertex 3.86925 -2.5 -2.1112
    endloop
  endfacet
  facet normal 0 -1 0
    outer loop
      vertex 5 -2.5 -2.5
      vertex 3.86925 -2.5 -2.1112
      vertex 3.8923 -2.5 -2.35512
    endloop
  endfacet
  facet normal 0 -1 0
    outer loop
      vertex 5 -2.5 -2.5
      vertex 3.8923 -2.5 -2.35512
      vertex 3.89686 -2.5 -2.5
    endloop
  endfacet
  facet normal 0 -1 0
    outer loop
      vertex 3.62613 -2.5 -1.16431
      vertex 5 -2.5 -2.5
      vertex 5 -2.5 2.5
    endloop
  endfacet
  facet normal -0.999507 0 -0.031412
    outer loop
      vertex 3.89686 -2.5 -2.5
      vertex 3.8923 2.5 -2.35512
      vertex 3.89686 2.5 -2.5
    endloop
  endfacet
  facet normal -0.999507 -0 -0.031412
    outer loop
      vertex 3.8923 2.5 -2.35512
      vertex 3.89686 -2.5 -2.5
      vertex 3.8923 -2.5 -2.35512
    endloop
  endfacet
  facet normal -0.995562 0 -0.0941087
    outer loop
      vertex 3.8923 -2.5 -2.35512
      vertex 3.86925 2.5 -2.1112
      vertex 3.8923 2.5 -2.35512
    endloop
  endfacet
  facet normal -0.995562 -0 -0.0941087
    outer loop
      vertex 3.86925 2.5 -2.1112
      vertex 3.8923 -2.5 -2.35512
      vertex 3.86925 -2.5 -2.1112
    endloop
  endfacet
  facet normal 0.0314085 0 -0.999507
    outer loop
      vertex -0.244883 -2.5 1.2923
      vertex 0 2.5 1.3
      vertex 0 -2.5 1.3
    endloop
  endfacet
  facet normal 0.0314085 0 -0.999507
    outer loop
      vertex 0 2.5 1.3
      vertex -0.244883 -2.5 1.2923
      vertex -0.244883 2.5 1.2923
    endloop
  endfacet
  facet normal -0.987689 0 -0.156431
    outer loop
      vertex 3.86925 -2.5 -2.1112
      vertex 3.83092 2.5 -1.86921
      vertex 3.86925 2.5 -2.1112
    endloop
  endfacet
  facet normal -0.987689 -0 -0.156431
    outer loop
      vertex 3.83092 2.5 -1.86921
      vertex 3.86925 -2.5 -2.1112
      vertex 3.83092 -2.5 -1.86921
    endloop
  endfacet
  facet normal 0.995562 0 -0.0941087
    outer loop
      vertex -3.86925 -2.5 -2.1112
      vertex -3.8923 2.5 -2.35512
      vertex -3.86925 2.5 -2.1112
    endloop
  endfacet
  facet normal 0.995562 0 -0.0941087
    outer loop
      vertex -3.8923 2.5 -2.35512
      vertex -3.86925 -2.5 -2.1112
      vertex -3.8923 -2.5 -2.35512
    endloop
  endfacet
  facet normal 0.999507 0 -0.031412
    outer loop
      vertex -3.8923 -2.5 -2.35512
      vertex -3.89686 2.5 -2.5
      vertex -3.8923 2.5 -2.35512
    endloop
  endfacet
  facet normal 0.999507 0 -0.031412
    outer loop
      vertex -3.89686 2.5 -2.5
      vertex -3.8923 -2.5 -2.35512
      vertex -3.89686 -2.5 -2.5
    endloop
  endfacet
  facet normal -0.940882 0 -0.338735
    outer loop
      vertex 3.70912 -2.5 -1.39483
      vertex 3.62613 2.5 -1.16431
      vertex 3.70912 2.5 -1.39483
    endloop
  endfacet
  facet normal -0.940882 -0 -0.338735
    outer loop
      vertex 3.62613 2.5 -1.16431
      vertex 3.70912 -2.5 -1.39483
      vertex 3.62613 -2.5 -1.16431
    endloop
  endfacet
  facet normal 0.397147 0 -0.917755
    outer loop
      vertex -1.66054 -2.5 0.928825
      vertex -1.43569 2.5 1.02613
      vertex -1.43569 -2.5 1.02613
    endloop
  endfacet
  facet normal 0.397147 0 -0.917755
    outer loop
      vertex -1.43569 2.5 1.02613
      vertex -1.66054 -2.5 0.928825
      vertex -1.66054 2.5 0.928825
    endloop
  endfacet
  facet normal 0.975916 0 -0.218147
    outer loop
      vertex -3.77747 -2.5 -1.63011
      vertex -3.83092 2.5 -1.86921
      vertex -3.77747 2.5 -1.63011
    endloop
  endfacet
  facet normal 0.975916 0 -0.218147
    outer loop
      vertex -3.83092 2.5 -1.86921
      vertex -3.77747 -2.5 -1.63011
      vertex -3.83092 -2.5 -1.86921
    endloop
  endfacet
  facet normal -0.790155 0 -0.612907
    outer loop
      vertex 3.15517 -2.5 -0.307637
      vertex 3.005 2.5 -0.114046
      vertex 3.15517 2.5 -0.307637
    endloop
  endfacet
  facet normal -0.790155 -0 -0.612907
    outer loop
      vertex 3.005 2.5 -0.114046
      vertex 3.15517 -2.5 -0.307637
      vertex 3.005 -2.5 -0.114046
    endloop
  endfacet
  facet normal 0.612907 0 -0.790155
    outer loop
      vertex -2.48595 -2.5 0.405002
      vertex -2.29236 2.5 0.555166
      vertex -2.29236 -2.5 0.555166
    endloop
  endfacet
  facet normal 0.612907 0 -0.790155
    outer loop
      vertex -2.29236 2.5 0.555166
      vertex -2.48595 -2.5 0.405002
      vertex -2.48595 2.5 0.405002
    endloop
  endfacet
  facet normal 0.987689 0 -0.156431
    outer loop
      vertex -3.83092 -2.5 -1.86921
      vertex -3.86925 2.5 -2.1112
      vertex -3.83092 2.5 -1.86921
    endloop
  endfacet
  facet normal 0.987689 0 -0.156431
    outer loop
      vertex -3.86925 2.5 -2.1112
      vertex -3.83092 -2.5 -1.86921
      vertex -3.86925 -2.5 -2.1112
    endloop
  endfacet
  facet normal -0.0941087 0 -0.995562
    outer loop
      vertex 0.244883 -2.5 1.2923
      vertex 0.488799 2.5 1.26925
      vertex 0.488799 -2.5 1.26925
    endloop
  endfacet
  facet normal -0.0941087 0 -0.995562
    outer loop
      vertex 0.488799 2.5 1.26925
      vertex 0.244883 -2.5 1.2923
      vertex 0.244883 2.5 1.2923
    endloop
  endfacet
  facet normal -0.27899 0 -0.960294
    outer loop
      vertex 0.96989 -2.5 1.17747
      vertex 1.20517 2.5 1.10912
      vertex 1.20517 -2.5 1.10912
    endloop
  endfacet
  facet normal -0.27899 0 -0.960294
    outer loop
      vertex 1.20517 2.5 1.10912
      vertex 0.96989 -2.5 1.17747
      vertex 0.96989 2.5 1.17747
    endloop
  endfacet
  facet normal -0.156435 0 -0.987688
    outer loop
      vertex 0.488799 -2.5 1.26925
      vertex 0.730786 2.5 1.23092
      vertex 0.730786 -2.5 1.23092
    endloop
  endfacet
  facet normal -0.156435 0 -0.987688
    outer loop
      vertex 0.730786 2.5 1.23092
      vertex 0.488799 -2.5 1.26925
      vertex 0.488799 2.5 1.26925
    endloop
  endfacet
  facet normal -0.50904 0 -0.860743
    outer loop
      vertex 1.87884 -2.5 0.817595
      vertex 2.08972 2.5 0.692879
      vertex 2.08972 -2.5 0.692879
    endloop
  endfacet
  facet normal -0.50904 0 -0.860743
    outer loop
      vertex 2.08972 2.5 0.692879
      vertex 1.87884 -2.5 0.817595
      vertex 1.87884 2.5 0.817595
    endloop
  endfacet
  facet normal -0.612907 0 -0.790155
    outer loop
      vertex 2.29236 -2.5 0.555166
      vertex 2.48595 2.5 0.405002
      vertex 2.48595 -2.5 0.405002
    endloop
  endfacet
  facet normal -0.612907 0 -0.790155
    outer loop
      vertex 2.48595 2.5 0.405002
      vertex 2.29236 -2.5 0.555166
      vertex 2.29236 2.5 0.555166
    endloop
  endfacet
  facet normal -0.453992 0 -0.891006
    outer loop
      vertex 1.66054 -2.5 0.928825
      vertex 1.87884 2.5 0.817595
      vertex 1.87884 -2.5 0.817595
    endloop
  endfacet
  facet normal -0.453992 0 -0.891006
    outer loop
      vertex 1.87884 2.5 0.817595
      vertex 1.66054 -2.5 0.928825
      vertex 1.66054 2.5 0.928825
    endloop
  endfacet
  facet normal -0.33874 0 -0.94088
    outer loop
      vertex 1.20517 -2.5 1.10912
      vertex 1.43569 2.5 1.02613
      vertex 1.43569 -2.5 1.02613
    endloop
  endfacet
  facet normal -0.33874 0 -0.94088
    outer loop
      vertex 1.43569 2.5 1.02613
      vertex 1.20517 -2.5 1.10912
      vertex 1.20517 2.5 1.10912
    endloop
  endfacet
  facet normal -0.975916 0 -0.218147
    outer loop
      vertex 3.83092 -2.5 -1.86921
      vertex 3.77747 2.5 -1.63011
      vertex 3.83092 2.5 -1.86921
    endloop
  endfacet
  facet normal -0.975916 -0 -0.218147
    outer loop
      vertex 3.77747 2.5 -1.63011
      vertex 3.83092 -2.5 -1.86921
      vertex 3.77747 -2.5 -1.63011
    endloop
  endfacet
  facet normal -0.960294 0 -0.278991
    outer loop
      vertex 3.77747 -2.5 -1.63011
      vertex 3.70912 2.5 -1.39483
      vertex 3.77747 2.5 -1.63011
    endloop
  endfacet
  facet normal -0.960294 -0 -0.278991
    outer loop
      vertex 3.70912 2.5 -1.39483
      vertex 3.77747 -2.5 -1.63011
      vertex 3.70912 -2.5 -1.39483
    endloop
  endfacet
  facet normal -0.82708 0 -0.562084
    outer loop
      vertex 3.29288 -2.5 -0.510275
      vertex 3.15517 2.5 -0.307637
      vertex 3.29288 2.5 -0.510275
    endloop
  endfacet
  facet normal -0.82708 -0 -0.562084
    outer loop
      vertex 3.15517 2.5 -0.307637
      vertex 3.29288 -2.5 -0.510275
      vertex 3.15517 -2.5 -0.307637
    endloop
  endfacet
  facet normal -0.750111 0 -0.661312
    outer loop
      vertex 3.005 -2.5 -0.114046
      vertex 2.84298 2.5 0.0697336
      vertex 3.005 2.5 -0.114046
    endloop
  endfacet
  facet normal -0.750111 -0 -0.661312
    outer loop
      vertex 2.84298 2.5 0.0697336
      vertex 3.005 -2.5 -0.114046
      vertex 2.84298 -2.5 0.0697336
    endloop
  endfacet
  facet normal -0.661314 0 -0.750109
    outer loop
      vertex 2.48595 -2.5 0.405002
      vertex 2.66973 2.5 0.242977
      vertex 2.66973 -2.5 0.242977
    endloop
  endfacet
  facet normal -0.661314 0 -0.750109
    outer loop
      vertex 2.66973 2.5 0.242977
      vertex 2.48595 -2.5 0.405002
      vertex 2.48595 2.5 0.405002
    endloop
  endfacet
  facet normal 0.453992 0 -0.891006
    outer loop
      vertex -1.87884 -2.5 0.817595
      vertex -1.66054 2.5 0.928825
      vertex -1.66054 -2.5 0.928825
    endloop
  endfacet
  facet normal 0.453992 0 -0.891006
    outer loop
      vertex -1.66054 2.5 0.928825
      vertex -1.87884 -2.5 0.817595
      vertex -1.87884 2.5 0.817595
    endloop
  endfacet
  facet normal 0.707105 0 -0.707109
    outer loop
      vertex -2.84298 -2.5 0.0697336
      vertex -2.66973 2.5 0.242977
      vertex -2.66973 -2.5 0.242977
    endloop
  endfacet
  facet normal 0.707105 0 -0.707109
    outer loop
      vertex -2.66973 2.5 0.242977
      vertex -2.84298 -2.5 0.0697336
      vertex -2.84298 2.5 0.0697336
    endloop
  endfacet
  facet normal 0.33874 0 -0.94088
    outer loop
      vertex -1.43569 -2.5 1.02613
      vertex -1.20517 2.5 1.10912
      vertex -1.20517 -2.5 1.10912
    endloop
  endfacet
  facet normal 0.33874 0 -0.94088
    outer loop
      vertex -1.20517 2.5 1.10912
      vertex -1.43569 -2.5 1.02613
      vertex -1.43569 2.5 1.02613
    endloop
  endfacet
  facet normal 0.27899 0 -0.960294
    outer loop
      vertex -1.20517 -2.5 1.10912
      vertex -0.96989 2.5 1.17747
      vertex -0.96989 -2.5 1.17747
    endloop
  endfacet
  facet normal 0.27899 0 -0.960294
    outer loop
      vertex -0.96989 2.5 1.17747
      vertex -1.20517 -2.5 1.10912
      vertex -1.20517 2.5 1.10912
    endloop
  endfacet
  facet normal 0.82708 0 -0.562084
    outer loop
      vertex -3.15517 -2.5 -0.307637
      vertex -3.29288 2.5 -0.510275
      vertex -3.15517 2.5 -0.307637
    endloop
  endfacet
  facet normal 0.82708 0 -0.562084
    outer loop
      vertex -3.29288 2.5 -0.510275
      vertex -3.15517 -2.5 -0.307637
      vertex -3.29288 -2.5 -0.510275
    endloop
  endfacet
  facet normal 0.750111 0 -0.661312
    outer loop
      vertex -2.84298 -2.5 0.0697336
      vertex -3.005 2.5 -0.114046
      vertex -2.84298 2.5 0.0697336
    endloop
  endfacet
  facet normal 0.750111 0 -0.661312
    outer loop
      vertex -3.005 2.5 -0.114046
      vertex -2.84298 -2.5 0.0697336
      vertex -3.005 -2.5 -0.114046
    endloop
  endfacet
  facet normal 0.940882 0 -0.338735
    outer loop
      vertex -3.62613 -2.5 -1.16431
      vertex -3.70912 2.5 -1.39483
      vertex -3.62613 2.5 -1.16431
    endloop
  endfacet
  facet normal 0.940882 0 -0.338735
    outer loop
      vertex -3.70912 2.5 -1.39483
      vertex -3.62613 -2.5 -1.16431
      vertex -3.70912 -2.5 -1.39483
    endloop
  endfacet
  facet normal -0.0314085 0 -0.999507
    outer loop
      vertex 0 -2.5 1.3
      vertex 0.244883 2.5 1.2923
      vertex 0.244883 -2.5 1.2923
    endloop
  endfacet
  facet normal -0.0314085 0 -0.999507
    outer loop
      vertex 0.244883 2.5 1.2923
      vertex 0 -2.5 1.3
      vertex 0 2.5 1.3
    endloop
  endfacet
  facet normal -0.218143 0 -0.975917
    outer loop
      vertex 0.730786 -2.5 1.23092
      vertex 0.96989 2.5 1.17747
      vertex 0.96989 -2.5 1.17747
    endloop
  endfacet
  facet normal -0.218143 0 -0.975917
    outer loop
      vertex 0.96989 2.5 1.17747
      vertex 0.730786 -2.5 1.23092
      vertex 0.730786 2.5 1.23092
    endloop
  endfacet
  facet normal -0.562082 0 -0.827082
    outer loop
      vertex 2.08972 -2.5 0.692879
      vertex 2.29236 2.5 0.555166
      vertex 2.29236 -2.5 0.555166
    endloop
  endfacet
  facet normal -0.562082 0 -0.827082
    outer loop
      vertex 2.29236 2.5 0.555166
      vertex 2.08972 -2.5 0.692879
      vertex 2.08972 2.5 0.692879
    endloop
  endfacet
  facet normal -0.397147 0 -0.917755
    outer loop
      vertex 1.43569 -2.5 1.02613
      vertex 1.66054 2.5 0.928825
      vertex 1.66054 -2.5 0.928825
    endloop
  endfacet
  facet normal -0.397147 0 -0.917755
    outer loop
      vertex 1.66054 2.5 0.928825
      vertex 1.43569 -2.5 1.02613
      vertex 1.43569 2.5 1.02613
    endloop
  endfacet
  facet normal -0.917753 0 -0.397151
    outer loop
      vertex 3.62613 -2.5 -1.16431
      vertex 3.52882 2.5 -0.939461
      vertex 3.62613 2.5 -1.16431
    endloop
  endfacet
  facet normal -0.917753 -0 -0.397151
    outer loop
      vertex 3.52882 2.5 -0.939461
      vertex 3.62613 -2.5 -1.16431
      vertex 3.52882 -2.5 -0.939461
    endloop
  endfacet
  facet normal -0.891008 0 -0.453988
    outer loop
      vertex 3.52882 -2.5 -0.939461
      vertex 3.4176 2.5 -0.72116
      vertex 3.52882 2.5 -0.939461
    endloop
  endfacet
  facet normal -0.891008 -0 -0.453988
    outer loop
      vertex 3.4176 2.5 -0.72116
      vertex 3.52882 -2.5 -0.939461
      vertex 3.4176 -2.5 -0.72116
    endloop
  endfacet
  facet normal -0.860741 0 -0.509043
    outer loop
      vertex 3.4176 -2.5 -0.72116
      vertex 3.29288 2.5 -0.510275
      vertex 3.4176 2.5 -0.72116
    endloop
  endfacet
  facet normal -0.860741 -0 -0.509043
    outer loop
      vertex 3.29288 2.5 -0.510275
      vertex 3.4176 -2.5 -0.72116
      vertex 3.29288 -2.5 -0.510275
    endloop
  endfacet
  facet normal -0.707105 0 -0.707109
    outer loop
      vertex 2.66973 -2.5 0.242977
      vertex 2.84298 2.5 0.0697336
      vertex 2.84298 -2.5 0.0697336
    endloop
  endfacet
  facet normal -0.707105 0 -0.707109
    outer loop
      vertex 2.84298 2.5 0.0697336
      vertex 2.66973 -2.5 0.242977
      vertex 2.66973 2.5 0.242977
    endloop
  endfacet
  facet normal 0.562082 0 -0.827082
    outer loop
      vertex -2.29236 -2.5 0.555166
      vertex -2.08972 2.5 0.692879
      vertex -2.08972 -2.5 0.692879
    endloop
  endfacet
  facet normal 0.562082 0 -0.827082
    outer loop
      vertex -2.08972 2.5 0.692879
      vertex -2.29236 -2.5 0.555166
      vertex -2.29236 2.5 0.555166
    endloop
  endfacet
  facet normal 0.50904 0 -0.860743
    outer loop
      vertex -2.08972 -2.5 0.692879
      vertex -1.87884 2.5 0.817595
      vertex -1.87884 -2.5 0.817595
    endloop
  endfacet
  facet normal 0.50904 0 -0.860743
    outer loop
      vertex -1.87884 2.5 0.817595
      vertex -2.08972 -2.5 0.692879
      vertex -2.08972 2.5 0.692879
    endloop
  endfacet
  facet normal 0.661314 0 -0.750109
    outer loop
      vertex -2.66973 -2.5 0.242977
      vertex -2.48595 2.5 0.405002
      vertex -2.48595 -2.5 0.405002
    endloop
  endfacet
  facet normal 0.661314 0 -0.750109
    outer loop
      vertex -2.48595 2.5 0.405002
      vertex -2.66973 -2.5 0.242977
      vertex -2.66973 2.5 0.242977
    endloop
  endfacet
  facet normal 0.156435 0 -0.987688
    outer loop
      vertex -0.730786 -2.5 1.23092
      vertex -0.488799 2.5 1.26925
      vertex -0.488799 -2.5 1.26925
    endloop
  endfacet
  facet normal 0.156435 0 -0.987688
    outer loop
      vertex -0.488799 2.5 1.26925
      vertex -0.730786 -2.5 1.23092
      vertex -0.730786 2.5 1.23092
    endloop
  endfacet
  facet normal 0.218143 0 -0.975917
    outer loop
      vertex -0.96989 -2.5 1.17747
      vertex -0.730786 2.5 1.23092
      vertex -0.730786 -2.5 1.23092
    endloop
  endfacet
  facet normal 0.218143 0 -0.975917
    outer loop
      vertex -0.730786 2.5 1.23092
      vertex -0.96989 -2.5 1.17747
      vertex -0.96989 2.5 1.17747
    endloop
  endfacet
  facet normal 0.0941087 0 -0.995562
    outer loop
      vertex -0.488799 -2.5 1.26925
      vertex -0.244883 2.5 1.2923
      vertex -0.244883 -2.5 1.2923
    endloop
  endfacet
  facet normal 0.0941087 0 -0.995562
    outer loop
      vertex -0.244883 2.5 1.2923
      vertex -0.488799 -2.5 1.26925
      vertex -0.488799 2.5 1.26925
    endloop
  endfacet
  facet normal 0.860741 0 -0.509043
    outer loop
      vertex -3.29288 -2.5 -0.510275
      vertex -3.4176 2.5 -0.72116
      vertex -3.29288 2.5 -0.510275
    endloop
  endfacet
  facet normal 0.860741 0 -0.509043
    outer loop
      vertex -3.4176 2.5 -0.72116
      vertex -3.29288 -2.5 -0.510275
      vertex -3.4176 -2.5 -0.72116
    endloop
  endfacet
  facet normal 0.960294 0 -0.278991
    outer loop
      vertex -3.70912 -2.5 -1.39483
      vertex -3.77747 2.5 -1.63011
      vertex -3.70912 2.5 -1.39483
    endloop
  endfacet
  facet normal 0.960294 0 -0.278991
    outer loop
      vertex -3.77747 2.5 -1.63011
      vertex -3.70912 -2.5 -1.39483
      vertex -3.77747 -2.5 -1.63011
    endloop
  endfacet
  facet normal 0.790155 0 -0.612907
    outer loop
      vertex -3.005 -2.5 -0.114046
      vertex -3.15517 2.5 -0.307637
      vertex -3.005 2.5 -0.114046
    endloop
  endfacet
  facet normal 0.790155 0 -0.612907
    outer loop
      vertex -3.15517 2.5 -0.307637
      vertex -3.005 -2.5 -0.114046
      vertex -3.15517 -2.5 -0.307637
    endloop
  endfacet
  facet normal 0.891008 0 -0.453988
    outer loop
      vertex -3.4176 -2.5 -0.72116
      vertex -3.52882 2.5 -0.939461
      vertex -3.4176 2.5 -0.72116
    endloop
  endfacet
  facet normal 0.891008 0 -0.453988
    outer loop
      vertex -3.52882 2.5 -0.939461
      vertex -3.4176 -2.5 -0.72116
      vertex -3.52882 -2.5 -0.939461
    endloop
  endfacet
  facet normal 0.917753 0 -0.397151
    outer loop
      vertex -3.52882 -2.5 -0.939461
      vertex -3.62613 2.5 -1.16431
      vertex -3.52882 2.5 -0.939461
    endloop
  endfacet
  facet normal 0.917753 0 -0.397151
    outer loop
      vertex -3.62613 2.5 -1.16431
      vertex -3.52882 -2.5 -0.939461
      vertex -3.62613 -2.5 -1.16431
    endloop
  endfacet
endsolid OpenSCAD_Model
