solid OpenSCAD_Model
  facet normal -1 0 0
    outer loop
      vertex -5 -2.5 -2.5
      vertex -5 2.5 2.5
      vertex -5 2.5 -2.5
    endloop
  endfacet
  facet normal -1 -0 0
    outer loop
      vertex -5 2.5 2.5
      vertex -5 -2.5 -2.5
      vertex -5 -2.5 2.5
    endloop
  endfacet
  facet normal -0 0 1
    outer loop
      vertex -5 2.5 2.5
      vertex 5 -2.5 2.5
      vertex 5 2.5 2.5
    endloop
  endfacet
  facet normal 0 0 1
    outer loop
      vertex 5 -2.5 2.5
      vertex -5 2.5 2.5
      vertex -5 -2.5 2.5
    endloop
  endfacet
  facet normal 1 -0 0
    outer loop
      vertex 5 -2.5 2.5
      vertex 5 2.5 -2.5
      vertex 5 2.5 2.5
    endloop
  endfacet
  facet normal 1 0 0
    outer loop
      vertex 5 2.5 -2.5
      vertex 5 -2.5 2.5
      vertex 5 -2.5 -2.5
    endloop
  endfacet
  facet normal 0 1 0
    outer loop
      vertex 5 2.5 2.5
      vertex 0 2.5 0.599999
      vertex -5 2.5 2.5
    endloop
  endfacet
  facet normal 0 1 0
    outer loop
      vertex 5 2.5 2.5
      vertex 0.188371 2.5 0.59408
      vertex 0 2.5 0.599999
    endloop
  endfacet
  facet normal 0 1 0
    outer loop
      vertex 5 2.5 2.5
      vertex 0.375999 2.5 0.576344
      vertex 0.188371 2.5 0.59408
    endloop
  endfacet
  facet normal 0 1 0
    outer loop
      vertex 5 2.5 2.5
      vertex 0.562143 2.5 0.546862
      vertex 0.375999 2.5 0.576344
    endloop
  endfacet
  facet normal 0 1 0
    outer loop
      vertex 5 2.5 2.5
      vertex 0.746069 2.5 0.505749
      vertex 0.562143 2.5 0.546862
    endloop
  endfacet
  facet normal 0 1 0
    outer loop
      vertex 5 2.5 2.5
      vertex 0.927051 2.5 0.453169
      vertex 0.746069 2.5 0.505749
    endloop
  endfacet
  facet normal 0 1 0
    outer loop
      vertex 5 2.5 2.5
      vertex 1.10437 2.5 0.389329
      vertex 0.927051 2.5 0.453169
    endloop
  endfacet
  facet normal 0 1 0
    outer loop
      vertex 5 2.5 2.5
      vertex 1.27734 2.5 0.314481
      vertex 1.10437 2.5 0.389329
    endloop
  endfacet
  facet normal 0 1 0
    outer loop
      vertex 5 2.5 2.5
      vertex 1.44526 2.5 0.22892
      vertex 1.27734 2.5 0.314481
    endloop
  endfacet
  facet normal 0 1 0
    outer loop
      vertex 5 2.5 2.5
      vertex 1.60748 2.5 0.132983
      vertex 1.44526 2.5 0.22892
    endloop
  endfacet
  facet normal 0 1 0
    outer loop
      vertex 5 2.5 2.5
      vertex 1.76336 2.5 0.027051
      vertex 1.60748 2.5 0.132983
    endloop
  endfacet
  facet normal 0 1 0
    outer loop
      vertex 5 2.5 2.5
      vertex 1.91227 2.5 -0.08846
      vertex 1.76336 2.5 0.027051
    endloop
  endfacet
  facet normal 0 1 0
    outer loop
      vertex 5 2.5 2.5
      vertex 2.05364 2.5 -0.213094
      vertex 1.91227 2.5 -0.08846
    endloop
  endfacet
  facet normal 0 1 0
    outer loop
      vertex 5 2.5 2.5
      vertex 2.18691 2.5 -0.346358
      vertex 2.05364 2.5 -0.213094
    endloop
  endfacet
  facet normal 0 1 0
    outer loop
      vertex 5 2.5 2.5
      vertex 2.31154 2.5 -0.487727
      vertex 2.18691 2.5 -0.346358
    endloop
  endfacet
  facet normal 0 1 0
    outer loop
      vertex 5 2.5 2.5
      vertex 2.42705 2.5 -0.636643
      vertex 2.31154 2.5 -0.487727
    endloop
  endfacet
  facet normal 0 1 0
    outer loop
      vertex 5 2.5 2.5
      vertex 2.53298 2.5 -0.79252
      vertex 2.42705 2.5 -0.636643
    endloop
  endfacet
  facet normal 0 1 0
    outer loop
      vertex 5 2.5 2.5
      vertex 2.62892 2.5 -0.954739
      vertex 2.53298 2.5 -0.79252
    endloop
  endfacet
  facet normal 0 1 0
    outer loop
      vertex 5 2.5 2.5
      vertex 2.71448 2.5 -1.12266
      vertex 2.62892 2.5 -0.954739
    endloop
  endfacet
  facet normal 0 1 -0
    outer loop
      vertex 5 2.5 -2.5
      vertex 2.71448 2.5 -1.12266
      vertex 5 2.5 2.5
    endloop
  endfacet
  facet normal 0 1 0
    outer loop
      vertex 2.71448 2.5 -1.12266
      vertex 5 2.5 -2.5
      vertex 2.78933 2.5 -1.29563
    endloop
  endfacet
  facet normal 0 1 0
    outer loop
      vertex 2.78933 2.5 -1.29563
      vertex 5 2.5 -2.5
      vertex 2.85317 2.5 -1.47295
    endloop
  endfacet
  facet normal 0 1 0
    outer loop
      vertex 2.85317 2.5 -1.47295
      vertex 5 2.5 -2.5
      vertex 2.90575 2.5 -1.65393
    endloop
  endfacet
  facet normal 0 1 0
    outer loop
      vertex 2.90575 2.5 -1.65393
      vertex 5 2.5 -2.5
      vertex 2.94686 2.5 -1.83786
    endloop
  endfacet
  facet normal 0 1 0
    outer loop
      vertex 2.94686 2.5 -1.83786
      vertex 5 2.5 -2.5
      vertex 2.97634 2.5 -2.024
    endloop
  endfacet
  facet normal 0 1 0
    outer loop
      vertex 2.97634 2.5 -2.024
      vertex 5 2.5 -2.5
      vertex 2.99408 2.5 -2.21163
    endloop
  endfacet
  facet normal 0 1 0
    outer loop
      vertex 2.99408 2.5 -2.21163
      vertex 5 2.5 -2.5
      vertex 3 2.5 -2.4
    endloop
  endfacet
  facet normal 0 1 0
    outer loop
      vertex 3 2.5 -2.4
      vertex 5 2.5 -2.5
      vertex 2.99686 2.5 -2.5
    endloop
  endfacet
  facet normal 0 1 -0
    outer loop
      vertex -0.188371 2.5 0.59408
      vertex -5 2.5 2.5
      vertex 0 2.5 0.599999
    endloop
  endfacet
  facet normal 0 1 -0
    outer loop
      vertex -0.375999 2.5 0.576344
      vertex -5 2.5 2.5
      vertex -0.188371 2.5 0.59408
    endloop
  endfacet
  facet normal 0 1 -0
    outer loop
      vertex -0.562143 2.5 0.546862
      vertex -5 2.5 2.5
      vertex -0.375999 2.5 0.576344
    endloop
  endfacet
  facet normal 0 1 -0
    outer loop
      vertex -0.746069 2.5 0.505749
      vertex -5 2.5 2.5
      vertex -0.562143 2.5 0.546862
    endloop
  endfacet
  facet normal 0 1 -0
    outer loop
      vertex -0.927051 2.5 0.453169
      vertex -5 2.5 2.5
      vertex -0.746069 2.5 0.505749
    endloop
  endfacet
  facet normal 0 1 -0
    outer loop
      vertex -1.10437 2.5 0.389329
      vertex -5 2.5 2.5
      vertex -0.927051 2.5 0.453169
    endloop
  endfacet
  facet normal 0 1 -0
    outer loop
      vertex -1.27734 2.5 0.314481
      vertex -5 2.5 2.5
      vertex -1.10437 2.5 0.389329
    endloop
  endfacet
  facet normal 0 1 -0
    outer loop
      vertex -1.44526 2.5 0.22892
      vertex -5 2.5 2.5
      vertex -1.27734 2.5 0.314481
    endloop
  endfacet
  facet normal 0 1 -0
    outer loop
      vertex -1.60748 2.5 0.132983
      vertex -5 2.5 2.5
      vertex -1.44526 2.5 0.22892
    endloop
  endfacet
  facet normal 0 1 -0
    outer loop
      vertex -1.76336 2.5 0.027051
      vertex -5 2.5 2.5
      vertex -1.60748 2.5 0.132983
    endloop
  endfacet
  facet normal 0 1 -0
    outer loop
      vertex -1.91227 2.5 -0.08846
      vertex -5 2.5 2.5
      vertex -1.76336 2.5 0.027051
    endloop
  endfacet
  facet normal 0 1 -0
    outer loop
      vertex -2.05364 2.5 -0.213094
      vertex -5 2.5 2.5
      vertex -1.91227 2.5 -0.08846
    endloop
  endfacet
  facet normal 0 1 -0
    outer loop
      vertex -2.18691 2.5 -0.346358
      vertex -5 2.5 2.5
      vertex -2.05364 2.5 -0.213094
    endloop
  endfacet
  facet normal 0 1 -0
    outer loop
      vertex -2.31154 2.5 -0.487727
      vertex -5 2.5 2.5
      vertex -2.18691 2.5 -0.346358
    endloop
  endfacet
  facet normal 0 1 -0
    outer loop
      vertex -2.42705 2.5 -0.636643
      vertex -5 2.5 2.5
      vertex -2.31154 2.5 -0.487727
    endloop
  endfacet
  facet normal 0 1 -0
    outer loop
      vertex -2.53298 2.5 -0.79252
      vertex -5 2.5 2.5
      vertex -2.42705 2.5 -0.636643
    endloop
  endfacet
  facet normal 0 1 -0
    outer loop
      vertex -2.62892 2.5 -0.954739
      vertex -5 2.5 2.5
      vertex -2.53298 2.5 -0.79252
    endloop
  endfacet
  facet normal 0 1 -0
    outer loop
      vertex -2.71448 2.5 -1.12266
      vertex -5 2.5 2.5
      vertex -2.62892 2.5 -0.954739
    endloop
  endfacet
  facet normal 0 1 0
    outer loop
      vertex -5 2.5 -2.5
      vertex -2.71448 2.5 -1.12266
      vertex -2.78933 2.5 -1.29563
    endloop
  endfacet
  facet normal 0 1 0
    outer loop
      vertex -5 2.5 -2.5
      vertex -2.78933 2.5 -1.29563
      vertex -2.85317 2.5 -1.47295
    endloop
  endfacet
  facet normal 0 1 0
    outer loop
      vertex -5 2.5 -2.5
      vertex -2.85317 2.5 -1.47295
      vertex -2.90575 2.5 -1.65393
    endloop
  endfacet
  facet normal 0 1 0
    outer loop
      vertex -5 2.5 -2.5
      vertex -2.90575 2.5 -1.65393
      vertex -2.94686 2.5 -1.83786
    endloop
  endfacet
  facet normal 0 1 0
    outer loop
      vertex -5 2.5 -2.5
      vertex -2.94686 2.5 -1.83786
      vertex -2.97634 2.5 -2.024
    endloop
  endfacet
  facet normal 0 1 0
    outer loop
      vertex -5 2.5 -2.5
      vertex -2.97634 2.5 -2.024
      vertex -2.99408 2.5 -2.21163
    endloop
  endfacet
  facet normal 0 1 0
    outer loop
      vertex -5 2.5 -2.5
      vertex -2.99408 2.5 -2.21163
      vertex -3 2.5 -2.4
    endloop
  endfacet
  facet normal 0 1 0
    outer loop
      vertex -5 2.5 -2.5
      vertex -3 2.5 -2.4
      vertex -2.99686 2.5 -2.5
    endloop
  endfacet
  facet normal 0 1 0
    outer loop
      vertex -2.71448 2.5 -1.12266
      vertex -5 2.5 -2.5
      vertex -5 2.5 2.5
    endloop
  endfacet
  facet normal 0 0 -1
    outer loop
      vertex -5 -2.5 -2.5
      vertex -2.99686 2.5 -2.5
      vertex -2.99686 -2.5 -2.5
    endloop
  endfacet
  facet normal -0 0 -1
    outer loop
      vertex -2.99686 2.5 -2.5
      vertex -5 -2.5 -2.5
      vertex -5 2.5 -2.5
    endloop
  endfacet
  facet normal 0 0 -1
    outer loop
      vertex 2.99686 -2.5 -2.5
      vertex 5 2.5 -2.5
      vertex 5 -2.5 -2.5
    endloop
  endfacet
  facet normal -0 0 -1
    outer loop
      vertex 5 2.5 -2.5
      vertex 2.99686 -2.5 -2.5
      vertex 2.99686 2.5 -2.5
    endloop
  endfacet
  facet normal 0 -1 0
    outer loop
      vertex -5 -2.5 2.5
      vertex 0 -2.5 0.599999
      vertex 5 -2.5 2.5
    endloop
  endfacet
  facet normal 0 -1 0
    outer loop
      vertex -5 -2.5 2.5
      vertex -0.188371 -2.5 0.59408
      vertex 0 -2.5 0.599999
    endloop
  endfacet
  facet normal 0 -1 0
    outer loop
      vertex -5 -2.5 2.5
      vertex -0.375999 -2.5 0.576344
      vertex -0.188371 -2.5 0.59408
    endloop
  endfacet
  facet normal 0 -1 0
    outer loop
      vertex -5 -2.5 2.5
      vertex -0.562143 -2.5 0.546862
      vertex -0.375999 -2.5 0.576344
    endloop
  endfacet
  facet normal 0 -1 0
    outer loop
      vertex -5 -2.5 2.5
      vertex -0.746069 -2.5 0.505749
      vertex -0.562143 -2.5 0.546862
    endloop
  endfacet
  facet normal 0 -1 0
    outer loop
      vertex -5 -2.5 2.5
      vertex -0.927051 -2.5 0.453169
      vertex -0.746069 -2.5 0.505749
    endloop
  endfacet
  facet normal 0 -1 0
    outer loop
      vertex -5 -2.5 2.5
      vertex -1.10437 -2.5 0.389329
      vertex -0.927051 -2.5 0.453169
    endloop
  endfacet
  facet normal 0 -1 0
    outer loop
      vertex -5 -2.5 2.5
      vertex -1.27734 -2.5 0.314481
      vertex -1.10437 -2.5 0.389329
    endloop
  endfacet
  facet normal 0 -1 0
    outer loop
      vertex -5 -2.5 2.5
      vertex -1.44526 -2.5 0.22892
      vertex -1.27734 -2.5 0.314481
    endloop
  endfacet
  facet normal 0 -1 0
    outer loop
      vertex -5 -2.5 2.5
      vertex -1.60748 -2.5 0.132983
      vertex -1.44526 -2.5 0.22892
    endloop
  endfacet
  facet normal 0 -1 0
    outer loop
      vertex -5 -2.5 2.5
      vertex -1.76336 -2.5 0.027051
      vertex -1.60748 -2.5 0.132983
    endloop
  endfacet
  facet normal 0 -1 0
    outer loop
      vertex -5 -2.5 2.5
      vertex -1.91227 -2.5 -0.08846
      vertex -1.76336 -2.5 0.027051
    endloop
  endfacet
  facet normal 0 -1 0
    outer loop
      vertex -5 -2.5 2.5
      vertex -2.05364 -2.5 -0.213094
      vertex -1.91227 -2.5 -0.08846
    endloop
  endfacet
  facet normal 0 -1 0
    outer loop
      vertex -5 -2.5 2.5
      vertex -2.18691 -2.5 -0.346358
      vertex -2.05364 -2.5 -0.213094
    endloop
  endfacet
  facet normal 0 -1 0
    outer loop
      vertex -5 -2.5 2.5
      vertex -2.31154 -2.5 -0.487727
      vertex -2.18691 -2.5 -0.346358
    endloop
  endfacet
  facet normal 0 -1 0
    outer loop
      vertex -5 -2.5 2.5
      vertex -2.42705 -2.5 -0.636643
      vertex -2.31154 -2.5 -0.487727
    endloop
  endfacet
  facet normal 0 -1 0
    outer loop
      vertex -5 -2.5 2.5
      vertex -2.53298 -2.5 -0.79252
      vertex -2.42705 -2.5 -0.636643
    endloop
  endfacet
  facet normal 0 -1 0
    outer loop
      vertex -5 -2.5 2.5
      vertex -2.62892 -2.5 -0.954739
      vertex -2.53298 -2.5 -0.79252
    endloop
  endfacet
  facet normal 0 -1 0
    outer loop
      vertex -5 -2.5 2.5
      vertex -2.71448 -2.5 -1.12266
      vertex -2.62892 -2.5 -0.954739
    endloop
  endfacet
  facet normal 0 -1 0
    outer loop
      vertex -5 -2.5 -2.5
      vertex -2.71448 -2.5 -1.12266
      vertex -5 -2.5 2.5
    endloop
  endfacet
  facet normal 0 -1 0
    outer loop
      vertex -2.71448 -2.5 -1.12266
      vertex -5 -2.5 -2.5
      vertex -2.78933 -2.5 -1.29563
    endloop
  endfacet
  facet normal 0 -1 0
    outer loop
      vertex -2.78933 -2.5 -1.29563
      vertex -5 -2.5 -2.5
      vertex -2.85317 -2.5 -1.47295
    endloop
  endfacet
  facet normal 0 -1 0
    outer loop
      vertex -2.85317 -2.5 -1.47295
      vertex -5 -2.5 -2.5
      vertex -2.90575 -2.5 -1.65393
    endloop
  endfacet
  facet normal 0 -1 0
    outer loop
      vertex -2.90575 -2.5 -1.65393
      vertex -5 -2.5 -2.5
      vertex -2.94686 -2.5 -1.83786
    endloop
  endfacet
  facet normal 0 -1 0
    outer loop
      vertex -2.94686 -2.5 -1.83786
      vertex -5 -2.5 -2.5
      vertex -2.97634 -2.5 -2.024
    endloop
  endfacet
  facet normal 0 -1 0
    outer loop
      vertex -2.97634 -2.5 -2.024
      vertex -5 -2.5 -2.5
      vertex -2.99408 -2.5 -2.21163
    endloop
  endfacet
  facet normal 0 -1 0
    outer loop
      vertex -2.99408 -2.5 -2.21163
      vertex -5 -2.5 -2.5
      vertex -3 -2.5 -2.4
    endloop
  endfacet
  facet normal 0 -1 -0
    outer loop
      vertex -3 -2.5 -2.4
      vertex -5 -2.5 -2.5
      vertex -2.99686 -2.5 -2.5
    endloop
  endfacet
  facet normal 0 -1 0
    outer loop
      vertex 0.188371 -2.5 0.59408
      vertex 5 -2.5 2.5
      vertex 0 -2.5 0.599999
    endloop
  endfacet
  facet normal 0 -1 0
    outer loop
      vertex 0.375999 -2.5 0.576344
      vertex 5 -2.5 2.5
      vertex 0.188371 -2.5 0.59408
    endloop
  endfacet
  facet normal 0 -1 0
    outer loop
      vertex 0.562143 -2.5 0.546862
      vertex 5 -2.5 2.5
      vertex 0.375999 -2.5 0.576344
    endloop
  endfacet
  facet normal 0 -1 0
    outer loop
      vertex 0.746069 -2.5 0.505749
      vertex 5 -2.5 2.5
      vertex 0.562143 -2.5 0.546862
    endloop
  endfacet
  facet normal 0 -1 0
    outer loop
      vertex 0.927051 -2.5 0.453169
      vertex 5 -2.5 2.5
      vertex 0.746069 -2.5 0.505749
    endloop
  endfacet
  facet normal 0 -1 0
    outer loop
      vertex 1.10437 -2.5 0.389329
      vertex 5 -2.5 2.5
      vertex 0.927051 -2.5 0.453169
    endloop
  endfacet
  facet normal 0 -1 0
    outer loop
      vertex 1.27734 -2.5 0.314481
      vertex 5 -2.5 2.5
      vertex 1.10437 -2.5 0.389329
    endloop
  endfacet
  facet normal 0 -1 0
    outer loop
      vertex 1.44526 -2.5 0.22892
      vertex 5 -2.5 2.5
      vertex 1.27734 -2.5 0.314481
    endloop
  endfacet
  facet normal 0 -1 0
    outer loop
      vertex 1.60748 -2.5 0.132983
      vertex 5 -2.5 2.5
      vertex 1.44526 -2.5 0.22892
    endloop
  endfacet
  facet normal 0 -1 0
    outer loop
      vertex 1.76336 -2.5 0.027051
      vertex 5 -2.5 2.5
      vertex 1.60748 -2.5 0.132983
    endloop
  endfacet
  facet normal 0 -1 0
    outer loop
      vertex 1.91227 -2.5 -0.08846
      vertex 5 -2.5 2.5
      vertex 1.76336 -2.5 0.027051
    endloop
  endfacet
  facet normal 0 -1 0
    outer loop
      vertex 2.05364 -2.5 -0.213094
      vertex 5 -2.5 2.5
      vertex 1.91227 -2.5 -0.08846
    endloop
  endfacet
  facet normal 0 -1 0
    outer loop
      vertex 2.18691 -2.5 -0.346358
      vertex 5 -2.5 2.5
      vertex 2.05364 -2.5 -0.213094
    endloop
  endfacet
  facet normal 0 -1 0
    outer loop
      vertex 2.31154 -2.5 -0.487727
      vertex 5 -2.5 2.5
      vertex 2.18691 -2.5 -0.346358
    endloop
  endfacet
  facet normal 0 -1 0
    outer loop
      vertex 2.42705 -2.5 -0.636643
      vertex 5 -2.5 2.5
      vertex 2.31154 -2.5 -0.487727
    endloop
  endfacet
  facet normal 0 -1 0
    outer loop
      vertex 2.53298 -2.5 -0.79252
      vertex 5 -2.5 2.5
      vertex 2.42705 -2.5 -0.636643
    endloop
  endfacet
  facet normal 0 -1 0
    outer loop
      vertex 2.62892 -2.5 -0.954739
      vertex 5 -2.5 2.5
      vertex 2.53298 -2.5 -0.79252
    endloop
  endfacet
  facet normal 0 -1 0
    outer loop
      vertex 2.71448 -2.5 -1.12266
      vertex 5 -2.5 2.5
      vertex 2.62892 -2.5 -0.954739
    endloop
  endfacet
  facet normal 0 -1 0
    outer loop
      vertex 5 -2.5 -2.5
      vertex 2.71448 -2.5 -1.12266
      vertex 2.78933 -2.5 -1.29563
    endloop
  endfacet
  facet normal 0 -1 0
    outer loop
      vertex 5 -2.5 -2.5
      vertex 2.78933 -2.5 -1.29563
      vertex 2.85317 -2.5 -1.47295
    endloop
  endfacet
  facet normal 0 -1 0
    outer loop
      vertex 5 -2.5 -2.5
      vertex 2.85317 -2.5 -1.47295
      vertex 2.90575 -2.5 -1.65393
    endloop
  endfacet
  facet normal 0 -1 0
    outer loop
      vertex 5 -2.5 -2.5
      vertex 2.90575 -2.5 -1.65393
      vertex 2.94686 -2.5 -1.83786
    endloop
  endfacet
  facet normal 0 -1 0
    outer loop
      vertex 5 -2.5 -2.5
      vertex 2.94686 -2.5 -1.83786
      vertex 2.97634 -2.5 -2.024
    endloop
  endfacet
  facet normal 0 -1 0
    outer loop
      vertex 5 -2.5 -2.5
      vertex 2.97634 -2.5 -2.024
      vertex 2.99408 -2.5 -2.21163
    endloop
  endfacet
  facet normal 0 -1 0
    outer loop
      vertex 5 -2.5 -2.5
      vertex 2.99408 -2.5 -2.21163
      vertex 3 -2.5 -2.4
    endloop
  endfacet
  facet normal 0 -1 0
    outer loop
      vertex 5 -2.5 -2.5
      vertex 3 -2.5 -2.4
      vertex 2.99686 -2.5 -2.5
    endloop
  endfacet
  facet normal 0 -1 0
    outer loop
      vertex 2.71448 -2.5 -1.12266
      vertex 5 -2.5 -2.5
      vertex 5 -2.5 2.5
    endloop
  endfacet
  facet normal -0.999506 0 -0.0314139
    outer loop
      vertex 3 -2.5 -2.4
      vertex 2.99408 2.5 -2.21163
      vertex 3 2.5 -2.4
    endloop
  endfacet
  facet normal -0.999506 -0 -0.0314139
    outer loop
      vertex 2.99408 2.5 -2.21163
      vertex 3 -2.5 -2.4
      vertex 2.99408 -2.5 -2.21163
    endloop
  endfacet
  facet normal 0.999506 0 -0.0314139
    outer loop
      vertex -2.99408 -2.5 -2.21163
      vertex -3 2.5 -2.4
      vertex -2.99408 2.5 -2.21163
    endloop
  endfacet
  facet normal 0.999506 0 -0.0314139
    outer loop
      vertex -3 2.5 -2.4
      vertex -2.99408 -2.5 -2.21163
      vertex -3 -2.5 -2.4
    endloop
  endfacet
  facet normal -0.453987 0 -0.891008
    outer loop
      vertex 1.27734 -2.5 0.314481
      vertex 1.44526 2.5 0.22892
      vertex 1.44526 -2.5 0.22892
    endloop
  endfacet
  facet normal -0.453987 0 -0.891008
    outer loop
      vertex 1.44526 2.5 0.22892
      vertex 1.27734 -2.5 0.314481
      vertex 1.27734 2.5 0.314481
    endloop
  endfacet
  facet normal 0.987689 0 -0.156432
    outer loop
      vertex -2.94686 -2.5 -1.83786
      vertex -2.97634 2.5 -2.024
      vertex -2.94686 2.5 -1.83786
    endloop
  endfacet
  facet normal 0.987689 0 -0.156432
    outer loop
      vertex -2.97634 2.5 -2.024
      vertex -2.94686 -2.5 -1.83786
      vertex -2.97634 -2.5 -2.024
    endloop
  endfacet
  facet normal 0.995562 0 -0.0941103
    outer loop
      vertex -2.97634 -2.5 -2.024
      vertex -2.99408 2.5 -2.21163
      vertex -2.97634 2.5 -2.024
    endloop
  endfacet
  facet normal 0.995562 0 -0.0941103
    outer loop
      vertex -2.99408 2.5 -2.21163
      vertex -2.97634 -2.5 -2.024
      vertex -2.99408 -2.5 -2.21163
    endloop
  endfacet
  facet normal 0.0941099 0 -0.995562
    outer loop
      vertex -0.375999 -2.5 0.576344
      vertex -0.188371 2.5 0.59408
      vertex -0.188371 -2.5 0.59408
    endloop
  endfacet
  facet normal 0.0941099 0 -0.995562
    outer loop
      vertex -0.188371 2.5 0.59408
      vertex -0.375999 -2.5 0.576344
      vertex -0.375999 2.5 0.576344
    endloop
  endfacet
  facet normal -0.661313 0 -0.75011
    outer loop
      vertex 1.91227 -2.5 -0.08846
      vertex 2.05364 2.5 -0.213094
      vertex 2.05364 -2.5 -0.213094
    endloop
  endfacet
  facet normal -0.661313 0 -0.75011
    outer loop
      vertex 2.05364 2.5 -0.213094
      vertex 1.91227 -2.5 -0.08846
      vertex 1.91227 2.5 -0.08846
    endloop
  endfacet
  facet normal 0.661313 0 -0.75011
    outer loop
      vertex -2.05364 -2.5 -0.213094
      vertex -1.91227 2.5 -0.08846
      vertex -1.91227 -2.5 -0.08846
    endloop
  endfacet
  facet normal 0.661313 0 -0.75011
    outer loop
      vertex -1.91227 2.5 -0.08846
      vertex -2.05364 -2.5 -0.213094
      vertex -2.05364 2.5 -0.213094
    endloop
  endfacet
  facet normal -0.27899 0 -0.960294
    outer loop
      vertex 0.746069 -2.5 0.505749
      vertex 0.927051 2.5 0.453169
      vertex 0.927051 -2.5 0.453169
    endloop
  endfacet
  facet normal -0.27899 0 -0.960294
    outer loop
      vertex 0.927051 2.5 0.453169
      vertex 0.746069 -2.5 0.505749
      vertex 0.746069 2.5 0.505749
    endloop
  endfacet
  facet normal 0.031409 0 -0.999507
    outer loop
      vertex -0.188371 -2.5 0.59408
      vertex 0 2.5 0.599999
      vertex 0 -2.5 0.599999
    endloop
  endfacet
  facet normal 0.031409 0 -0.999507
    outer loop
      vertex 0 2.5 0.599999
      vertex -0.188371 -2.5 0.59408
      vertex -0.188371 2.5 0.59408
    endloop
  endfacet
  facet normal 0.999506 -0 0.0314151
    outer loop
      vertex -3 -2.5 -2.4
      vertex -2.99686 2.5 -2.5
      vertex -3 2.5 -2.4
    endloop
  endfacet
  facet normal 0.999506 0 0.0314151
    outer loop
      vertex -2.99686 2.5 -2.5
      vertex -3 -2.5 -2.4
      vertex -2.99686 -2.5 -2.5
    endloop
  endfacet
  facet normal 0.156432 0 -0.987689
    outer loop
      vertex -0.562143 -2.5 0.546862
      vertex -0.375999 2.5 0.576344
      vertex -0.375999 -2.5 0.576344
    endloop
  endfacet
  facet normal 0.156432 0 -0.987689
    outer loop
      vertex -0.375999 2.5 0.576344
      vertex -0.562143 -2.5 0.546862
      vertex -0.562143 2.5 0.546862
    endloop
  endfacet
  facet normal -0.156432 0 -0.987689
    outer loop
      vertex 0.375999 -2.5 0.576344
      vertex 0.562143 2.5 0.546862
      vertex 0.562143 -2.5 0.546862
    endloop
  endfacet
  facet normal -0.156432 0 -0.987689
    outer loop
      vertex 0.562143 2.5 0.546862
      vertex 0.375999 -2.5 0.576344
      vertex 0.375999 2.5 0.576344
    endloop
  endfacet
  facet normal -0.338738 0 -0.940881
    outer loop
      vertex 0.927051 -2.5 0.453169
      vertex 1.10437 2.5 0.389329
      vertex 1.10437 -2.5 0.389329
    endloop
  endfacet
  facet normal -0.338738 0 -0.940881
    outer loop
      vertex 1.10437 2.5 0.389329
      vertex 0.927051 -2.5 0.453169
      vertex 0.927051 2.5 0.453169
    endloop
  endfacet
  facet normal -0.790156 0 -0.612906
    outer loop
      vertex 2.42705 -2.5 -0.636643
      vertex 2.31154 2.5 -0.487727
      vertex 2.42705 2.5 -0.636643
    endloop
  endfacet
  facet normal -0.790156 -0 -0.612906
    outer loop
      vertex 2.31154 2.5 -0.487727
      vertex 2.42705 -2.5 -0.636643
      vertex 2.31154 -2.5 -0.487727
    endloop
  endfacet
  facet normal -0.891007 0 -0.45399
    outer loop
      vertex 2.71448 -2.5 -1.12266
      vertex 2.62892 2.5 -0.954739
      vertex 2.71448 2.5 -1.12266
    endloop
  endfacet
  facet normal -0.891007 -0 -0.45399
    outer loop
      vertex 2.62892 2.5 -0.954739
      vertex 2.71448 -2.5 -1.12266
      vertex 2.62892 -2.5 -0.954739
    endloop
  endfacet
  facet normal -0.995562 0 -0.0941103
    outer loop
      vertex 2.99408 -2.5 -2.21163
      vertex 2.97634 2.5 -2.024
      vertex 2.99408 2.5 -2.21163
    endloop
  endfacet
  facet normal -0.995562 -0 -0.0941103
    outer loop
      vertex 2.97634 2.5 -2.024
      vertex 2.99408 -2.5 -2.21163
      vertex 2.97634 -2.5 -2.024
    endloop
  endfacet
  facet normal -0.987689 0 -0.156432
    outer loop
      vertex 2.97634 -2.5 -2.024
      vertex 2.94686 2.5 -1.83786
      vertex 2.97634 2.5 -2.024
    endloop
  endfacet
  facet normal -0.987689 -0 -0.156432
    outer loop
      vertex 2.94686 2.5 -1.83786
      vertex 2.97634 -2.5 -2.024
      vertex 2.94686 -2.5 -1.83786
    endloop
  endfacet
  facet normal 0.338738 0 -0.940881
    outer loop
      vertex -1.10437 -2.5 0.389329
      vertex -0.927051 2.5 0.453169
      vertex -0.927051 -2.5 0.453169
    endloop
  endfacet
  facet normal 0.338738 0 -0.940881
    outer loop
      vertex -0.927051 2.5 0.453169
      vertex -1.10437 -2.5 0.389329
      vertex -1.10437 2.5 0.389329
    endloop
  endfacet
  facet normal 0.790156 0 -0.612906
    outer loop
      vertex -2.31154 -2.5 -0.487727
      vertex -2.42705 2.5 -0.636643
      vertex -2.31154 2.5 -0.487727
    endloop
  endfacet
  facet normal 0.790156 0 -0.612906
    outer loop
      vertex -2.42705 2.5 -0.636643
      vertex -2.31154 -2.5 -0.487727
      vertex -2.42705 -2.5 -0.636643
    endloop
  endfacet
  facet normal -0.0941099 0 -0.995562
    outer loop
      vertex 0.188371 -2.5 0.59408
      vertex 0.375999 2.5 0.576344
      vertex 0.375999 -2.5 0.576344
    endloop
  endfacet
  facet normal -0.0941099 0 -0.995562
    outer loop
      vertex 0.375999 2.5 0.576344
      vertex 0.188371 -2.5 0.59408
      vertex 0.188371 2.5 0.59408
    endloop
  endfacet
  facet normal -0.218147 0 -0.975916
    outer loop
      vertex 0.562143 -2.5 0.546862
      vertex 0.746069 2.5 0.505749
      vertex 0.746069 -2.5 0.505749
    endloop
  endfacet
  facet normal -0.218147 0 -0.975916
    outer loop
      vertex 0.746069 2.5 0.505749
      vertex 0.562143 -2.5 0.546862
      vertex 0.562143 2.5 0.546862
    endloop
  endfacet
  facet normal -0.509044 0 -0.86074
    outer loop
      vertex 1.44526 -2.5 0.22892
      vertex 1.60748 2.5 0.132983
      vertex 1.60748 -2.5 0.132983
    endloop
  endfacet
  facet normal -0.509044 0 -0.86074
    outer loop
      vertex 1.60748 2.5 0.132983
      vertex 1.44526 -2.5 0.22892
      vertex 1.44526 2.5 0.22892
    endloop
  endfacet
  facet normal -0.612906 0 -0.790156
    outer loop
      vertex 1.76336 -2.5 0.027051
      vertex 1.91227 2.5 -0.08846
      vertex 1.91227 -2.5 -0.08846
    endloop
  endfacet
  facet normal -0.612906 0 -0.790156
    outer loop
      vertex 1.91227 2.5 -0.08846
      vertex 1.76336 -2.5 0.027051
      vertex 1.76336 2.5 0.027051
    endloop
  endfacet
  facet normal -0.397148 0 -0.917755
    outer loop
      vertex 1.10437 -2.5 0.389329
      vertex 1.27734 2.5 0.314481
      vertex 1.27734 -2.5 0.314481
    endloop
  endfacet
  facet normal -0.397148 0 -0.917755
    outer loop
      vertex 1.27734 2.5 0.314481
      vertex 1.10437 -2.5 0.389329
      vertex 1.10437 2.5 0.389329
    endloop
  endfacet
  facet normal -0.75011 0 -0.661313
    outer loop
      vertex 2.31154 -2.5 -0.487727
      vertex 2.18691 2.5 -0.346358
      vertex 2.31154 2.5 -0.487727
    endloop
  endfacet
  facet normal -0.75011 -0 -0.661313
    outer loop
      vertex 2.18691 2.5 -0.346358
      vertex 2.31154 -2.5 -0.487727
      vertex 2.18691 -2.5 -0.346358
    endloop
  endfacet
  facet normal -0.827083 0 -0.562079
    outer loop
      vertex 2.53298 -2.5 -0.79252
      vertex 2.42705 2.5 -0.636643
      vertex 2.53298 2.5 -0.79252
    endloop
  endfacet
  facet normal -0.827083 -0 -0.562079
    outer loop
      vertex 2.42705 2.5 -0.636643
      vertex 2.53298 -2.5 -0.79252
      vertex 2.42705 -2.5 -0.636643
    endloop
  endfacet
  facet normal -0.917755 0 -0.397148
    outer loop
      vertex 2.78933 -2.5 -1.29563
      vertex 2.71448 2.5 -1.12266
      vertex 2.78933 2.5 -1.29563
    endloop
  endfacet
  facet normal -0.917755 -0 -0.397148
    outer loop
      vertex 2.71448 2.5 -1.12266
      vertex 2.78933 -2.5 -1.29563
      vertex 2.71448 -2.5 -1.12266
    endloop
  endfacet
  facet normal 0.612906 0 -0.790156
    outer loop
      vertex -1.91227 -2.5 -0.08846
      vertex -1.76336 2.5 0.027051
      vertex -1.76336 -2.5 0.027051
    endloop
  endfacet
  facet normal 0.612906 0 -0.790156
    outer loop
      vertex -1.76336 2.5 0.027051
      vertex -1.91227 -2.5 -0.08846
      vertex -1.91227 2.5 -0.08846
    endloop
  endfacet
  facet normal 0.707104 0 -0.707109
    outer loop
      vertex -2.18691 -2.5 -0.346358
      vertex -2.05364 2.5 -0.213094
      vertex -2.05364 -2.5 -0.213094
    endloop
  endfacet
  facet normal 0.707104 0 -0.707109
    outer loop
      vertex -2.05364 2.5 -0.213094
      vertex -2.18691 -2.5 -0.346358
      vertex -2.18691 2.5 -0.346358
    endloop
  endfacet
  facet normal 0.453987 0 -0.891008
    outer loop
      vertex -1.44526 -2.5 0.22892
      vertex -1.27734 2.5 0.314481
      vertex -1.27734 -2.5 0.314481
    endloop
  endfacet
  facet normal 0.453987 0 -0.891008
    outer loop
      vertex -1.27734 2.5 0.314481
      vertex -1.44526 -2.5 0.22892
      vertex -1.44526 2.5 0.22892
    endloop
  endfacet
  facet normal 0.27899 0 -0.960294
    outer loop
      vertex -0.927051 -2.5 0.453169
      vertex -0.746069 2.5 0.505749
      vertex -0.746069 -2.5 0.505749
    endloop
  endfacet
  facet normal 0.27899 0 -0.960294
    outer loop
      vertex -0.746069 2.5 0.505749
      vertex -0.927051 -2.5 0.453169
      vertex -0.927051 2.5 0.453169
    endloop
  endfacet
  facet normal 0.218147 0 -0.975916
    outer loop
      vertex -0.746069 -2.5 0.505749
      vertex -0.562143 2.5 0.546862
      vertex -0.562143 -2.5 0.546862
    endloop
  endfacet
  facet normal 0.218147 0 -0.975916
    outer loop
      vertex -0.562143 2.5 0.546862
      vertex -0.746069 -2.5 0.505749
      vertex -0.746069 2.5 0.505749
    endloop
  endfacet
  facet normal 0.75011 0 -0.661313
    outer loop
      vertex -2.18691 -2.5 -0.346358
      vertex -2.31154 2.5 -0.487727
      vertex -2.18691 2.5 -0.346358
    endloop
  endfacet
  facet normal 0.75011 0 -0.661313
    outer loop
      vertex -2.31154 2.5 -0.487727
      vertex -2.18691 -2.5 -0.346358
      vertex -2.31154 -2.5 -0.487727
    endloop
  endfacet
  facet normal 0.975917 0 -0.218142
    outer loop
      vertex -2.90575 -2.5 -1.65393
      vertex -2.94686 2.5 -1.83786
      vertex -2.90575 2.5 -1.65393
    endloop
  endfacet
  facet normal 0.975917 0 -0.218142
    outer loop
      vertex -2.94686 2.5 -1.83786
      vertex -2.90575 -2.5 -1.65393
      vertex -2.94686 -2.5 -1.83786
    endloop
  endfacet
  facet normal -0.031409 0 -0.999507
    outer loop
      vertex 0 -2.5 0.599999
      vertex 0.188371 2.5 0.59408
      vertex 0.188371 -2.5 0.59408
    endloop
  endfacet
  facet normal -0.031409 0 -0.999507
    outer loop
      vertex 0.188371 2.5 0.59408
      vertex 0 -2.5 0.599999
      vertex 0 2.5 0.599999
    endloop
  endfacet
  facet normal -0.562082 0 -0.827082
    outer loop
      vertex 1.60748 -2.5 0.132983
      vertex 1.76336 2.5 0.027051
      vertex 1.76336 -2.5 0.027051
    endloop
  endfacet
  facet normal -0.562082 0 -0.827082
    outer loop
      vertex 1.76336 2.5 0.027051
      vertex 1.60748 -2.5 0.132983
      vertex 1.60748 2.5 0.132983
    endloop
  endfacet
  facet normal -0.707104 0 -0.707109
    outer loop
      vertex 2.05364 -2.5 -0.213094
      vertex 2.18691 2.5 -0.346358
      vertex 2.18691 -2.5 -0.346358
    endloop
  endfacet
  facet normal -0.707104 0 -0.707109
    outer loop
      vertex 2.18691 2.5 -0.346358
      vertex 2.05364 -2.5 -0.213094
      vertex 2.05364 2.5 -0.213094
    endloop
  endfacet
  facet normal -0.86074 0 -0.509044
    outer loop
      vertex 2.62892 -2.5 -0.954739
      vertex 2.53298 2.5 -0.79252
      vertex 2.62892 2.5 -0.954739
    endloop
  endfacet
  facet normal -0.86074 -0 -0.509044
    outer loop
      vertex 2.53298 2.5 -0.79252
      vertex 2.62892 -2.5 -0.954739
      vertex 2.53298 -2.5 -0.79252
    endloop
  endfacet
  facet normal -0.975917 0 -0.218142
    outer loop
      vertex 2.94686 -2.5 -1.83786
      vertex 2.90575 2.5 -1.65393
      vertex 2.94686 2.5 -1.83786
    endloop
  endfacet
  facet normal -0.975917 -0 -0.218142
    outer loop
      vertex 2.90575 2.5 -1.65393
      vertex 2.94686 -2.5 -1.83786
      vertex 2.90575 -2.5 -1.65393
    endloop
  endfacet
  facet normal -0.960294 0 -0.27899
    outer loop
      vertex 2.90575 -2.5 -1.65393
      vertex 2.85317 2.5 -1.47295
      vertex 2.90575 2.5 -1.65393
    endloop
  endfacet
  facet normal -0.960294 -0 -0.27899
    outer loop
      vertex 2.85317 2.5 -1.47295
      vertex 2.90575 -2.5 -1.65393
      vertex 2.85317 -2.5 -1.47295
    endloop
  endfacet
  facet normal -0.940879 0 -0.338742
    outer loop
      vertex 2.85317 -2.5 -1.47295
      vertex 2.78933 2.5 -1.29563
      vertex 2.85317 2.5 -1.47295
    endloop
  endfacet
  facet normal -0.940879 -0 -0.338742
    outer loop
      vertex 2.78933 2.5 -1.29563
      vertex 2.85317 -2.5 -1.47295
      vertex 2.78933 -2.5 -1.29563
    endloop
  endfacet
  facet normal -0.999506 0 0.0314151
    outer loop
      vertex 2.99686 -2.5 -2.5
      vertex 3 2.5 -2.4
      vertex 2.99686 2.5 -2.5
    endloop
  endfacet
  facet normal -0.999506 0 0.0314151
    outer loop
      vertex 3 2.5 -2.4
      vertex 2.99686 -2.5 -2.5
      vertex 3 -2.5 -2.4
    endloop
  endfacet
  facet normal 0.562082 0 -0.827082
    outer loop
      vertex -1.76336 -2.5 0.027051
      vertex -1.60748 2.5 0.132983
      vertex -1.60748 -2.5 0.132983
    endloop
  endfacet
  facet normal 0.562082 0 -0.827082
    outer loop
      vertex -1.60748 2.5 0.132983
      vertex -1.76336 -2.5 0.027051
      vertex -1.76336 2.5 0.027051
    endloop
  endfacet
  facet normal 0.509044 0 -0.86074
    outer loop
      vertex -1.60748 -2.5 0.132983
      vertex -1.44526 2.5 0.22892
      vertex -1.44526 -2.5 0.22892
    endloop
  endfacet
  facet normal 0.509044 0 -0.86074
    outer loop
      vertex -1.44526 2.5 0.22892
      vertex -1.60748 -2.5 0.132983
      vertex -1.60748 2.5 0.132983
    endloop
  endfacet
  facet normal 0.397148 0 -0.917755
    outer loop
      vertex -1.27734 -2.5 0.314481
      vertex -1.10437 2.5 0.389329
      vertex -1.10437 -2.5 0.389329
    endloop
  endfacet
  facet normal 0.397148 0 -0.917755
    outer loop
      vertex -1.10437 2.5 0.389329
      vertex -1.27734 -2.5 0.314481
      vertex -1.27734 2.5 0.314481
    endloop
  endfacet
  facet normal 0.940879 0 -0.338742
    outer loop
      vertex -2.78933 -2.5 -1.29563
      vertex -2.85317 2.5 -1.47295
      vertex -2.78933 2.5 -1.29563
    endloop
  endfacet
  facet normal 0.940879 0 -0.338742
    outer loop
      vertex -2.85317 2.5 -1.47295
      vertex -2.78933 -2.5 -1.29563
      vertex -2.85317 -2.5 -1.47295
    endloop
  endfacet
  facet normal 0.891007 0 -0.45399
    outer loop
      vertex -2.62892 -2.5 -0.954739
      vertex -2.71448 2.5 -1.12266
      vertex -2.62892 2.5 -0.954739
    endloop
  endfacet
  facet normal 0.891007 0 -0.45399
    outer loop
      vertex -2.71448 2.5 -1.12266
      vertex -2.62892 -2.5 -0.954739
      vertex -2.71448 -2.5 -1.12266
    endloop
  endfacet
  facet normal 0.960294 0 -0.27899
    outer loop
      vertex -2.85317 -2.5 -1.47295
      vertex -2.90575 2.5 -1.65393
      vertex -2.85317 2.5 -1.47295
    endloop
  endfacet
  facet normal 0.960294 0 -0.27899
    outer loop
      vertex -2.90575 2.5 -1.65393
      vertex -2.85317 -2.5 -1.47295
      vertex -2.90575 -2.5 -1.65393
    endloop
  endfacet
  facet normal 0.827083 0 -0.562079
    outer loop
      vertex -2.42705 -2.5 -0.636643
      vertex -2.53298 2.5 -0.79252
      vertex -2.42705 2.5 -0.636643
    endloop
  endfacet
  facet normal 0.827083 0 -0.562079
    outer loop
      vertex -2.53298 2.5 -0.79252
      vertex -2.42705 -2.5 -0.636643
      vertex -2.53298 -2.5 -0.79252
    endloop
  endfacet
  facet normal 0.86074 0 -0.509044
    outer loop
      vertex -2.53298 -2.5 -0.79252
      vertex -2.62892 2.5 -0.954739
      vertex -2.53298 2.5 -0.79252
    endloop
  endfacet
  facet normal 0.86074 0 -0.509044
    outer loop
      vertex -2.62892 2.5 -0.954739
      vertex -2.53298 -2.5 -0.79252
      vertex -2.62892 -2.5 -0.954739
    endloop
  endfacet
  facet normal 0.917755 0 -0.397148
    outer loop
      vertex -2.71448 -2.5 -1.12266
      vertex -2.78933 2.5 -1.29563
      vertex -2.71448 2.5 -1.12266
    endloop
  endfacet
  facet normal 0.917755 0 -0.397148
    outer loop
      vertex -2.78933 2.5 -1.29563
      vertex -2.71448 -2.5 -1.12266
      vertex -2.78933 -2.5 -1.29563
    endloop
  endfacet
endsolid OpenSCAD_Model
