solid OpenSCAD_Model
  facet normal -1 0 0
    outer loop
      vertex -5 -2.5 -2.5
      vertex -5 2.5 2.5
      vertex -5 2.5 -2.5
    endloop
  endfacet
  facet normal -1 -0 0
    outer loop
      vertex -5 2.5 2.5
      vertex -5 -2.5 -2.5
      vertex -5 -2.5 2.5
    endloop
  endfacet
  facet normal -0 0 1
    outer loop
      vertex -5 2.5 2.5
      vertex 5 -2.5 2.5
      vertex 5 2.5 2.5
    endloop
  endfacet
  facet normal 0 0 1
    outer loop
      vertex 5 -2.5 2.5
      vertex -5 2.5 2.5
      vertex -5 -2.5 2.5
    endloop
  endfacet
  facet normal 1 -0 0
    outer loop
      vertex 5 -2.5 2.5
      vertex 5 2.5 -2.5
      vertex 5 2.5 2.5
    endloop
  endfacet
  facet normal 1 0 0
    outer loop
      vertex 5 2.5 -2.5
      vertex 5 -2.5 2.5
      vertex 5 -2.5 -2.5
    endloop
  endfacet
  facet normal 0 1 0
    outer loop
      vertex 5 2.5 2.5
      vertex 0 2.5 1.8
      vertex -5 2.5 2.5
    endloop
  endfacet
  facet normal 0 1 0
    outer loop
      vertex 5 2.5 2.5
      vertex 0.238604 2.5 1.7925
      vertex 0 2.5 1.8
    endloop
  endfacet
  facet normal 0 1 0
    outer loop
      vertex 5 2.5 2.5
      vertex 0.476266 2.5 1.77004
      vertex 0.238604 2.5 1.7925
    endloop
  endfacet
  facet normal 0 1 0
    outer loop
      vertex 5 2.5 2.5
      vertex 0.712049 2.5 1.73269
      vertex 0.476266 2.5 1.77004
    endloop
  endfacet
  facet normal 0 1 0
    outer loop
      vertex 5 2.5 2.5
      vertex 0.945021 2.5 1.68062
      vertex 0.712049 2.5 1.73269
    endloop
  endfacet
  facet normal 0 1 0
    outer loop
      vertex 5 2.5 2.5
      vertex 1.17426 2.5 1.61401
      vertex 0.945021 2.5 1.68062
    endloop
  endfacet
  facet normal 0 1 0
    outer loop
      vertex 5 2.5 2.5
      vertex 1.39887 2.5 1.53315
      vertex 1.17426 2.5 1.61401
    endloop
  endfacet
  facet normal 0 1 0
    outer loop
      vertex 5 2.5 2.5
      vertex 1.61796 2.5 1.43834
      vertex 1.39887 2.5 1.53315
    endloop
  endfacet
  facet normal 0 1 0
    outer loop
      vertex 5 2.5 2.5
      vertex 1.83066 2.5 1.32996
      vertex 1.61796 2.5 1.43834
    endloop
  endfacet
  facet normal 0 1 0
    outer loop
      vertex 5 2.5 2.5
      vertex 2.03614 2.5 1.20845
      vertex 1.83066 2.5 1.32996
    endloop
  endfacet
  facet normal 0 1 0
    outer loop
      vertex 5 2.5 2.5
      vertex 2.23358 2.5 1.07426
      vertex 2.03614 2.5 1.20845
    endloop
  endfacet
  facet normal 0 1 0
    outer loop
      vertex 5 2.5 2.5
      vertex 2.42221 2.5 0.92795
      vertex 2.23358 2.5 1.07426
    endloop
  endfacet
  facet normal 0 1 0
    outer loop
      vertex 5 2.5 2.5
      vertex 2.60128 2.5 0.770081
      vertex 2.42221 2.5 0.92795
    endloop
  endfacet
  facet normal 0 1 0
    outer loop
      vertex 5 2.5 2.5
      vertex 2.77008 2.5 0.601278
      vertex 2.60128 2.5 0.770081
    endloop
  endfacet
  facet normal 0 1 0
    outer loop
      vertex 5 2.5 2.5
      vertex 2.92795 2.5 0.422211
      vertex 2.77008 2.5 0.601278
    endloop
  endfacet
  facet normal 0 1 0
    outer loop
      vertex 5 2.5 2.5
      vertex 3.07426 2.5 0.233583
      vertex 2.92795 2.5 0.422211
    endloop
  endfacet
  facet normal 0 1 0
    outer loop
      vertex 5 2.5 2.5
      vertex 3.20845 2.5 0.0361414
      vertex 3.07426 2.5 0.233583
    endloop
  endfacet
  facet normal 0 1 0
    outer loop
      vertex 5 2.5 2.5
      vertex 3.32996 2.5 -0.169335
      vertex 3.20845 2.5 0.0361414
    endloop
  endfacet
  facet normal 0 1 0
    outer loop
      vertex 5 2.5 2.5
      vertex 3.43834 2.5 -0.382038
      vertex 3.32996 2.5 -0.169335
    endloop
  endfacet
  facet normal 0 1 0
    outer loop
      vertex 5 2.5 2.5
      vertex 3.53315 2.5 -0.601127
      vertex 3.43834 2.5 -0.382038
    endloop
  endfacet
  facet normal 0 1 0
    outer loop
      vertex 5 2.5 2.5
      vertex 3.61401 2.5 -0.825735
      vertex 3.53315 2.5 -0.601127
    endloop
  endfacet
  facet normal 0 1 -0
    outer loop
      vertex 5 2.5 -2.5
      vertex 3.61401 2.5 -0.825735
      vertex 5 2.5 2.5
    endloop
  endfacet
  facet normal 0 1 0
    outer loop
      vertex 3.61401 2.5 -0.825735
      vertex 5 2.5 -2.5
      vertex 3.68062 2.5 -1.05498
    endloop
  endfacet
  facet normal 0 1 0
    outer loop
      vertex 3.68062 2.5 -1.05498
      vertex 5 2.5 -2.5
      vertex 3.73269 2.5 -1.28795
    endloop
  endfacet
  facet normal 0 1 0
    outer loop
      vertex 3.73269 2.5 -1.28795
      vertex 5 2.5 -2.5
      vertex 3.77004 2.5 -1.52373
    endloop
  endfacet
  facet normal 0 1 0
    outer loop
      vertex 3.77004 2.5 -1.52373
      vertex 5 2.5 -2.5
      vertex 3.7925 2.5 -1.7614
    endloop
  endfacet
  facet normal 0 1 0
    outer loop
      vertex 3.7925 2.5 -1.7614
      vertex 5 2.5 -2.5
      vertex 3.79438 2.5 -1.82105
    endloop
  endfacet
  facet normal 0 1 0
    outer loop
      vertex 3.79438 2.5 -1.82105
      vertex 5 2.5 -2.5
      vertex 3.8 2.5 -2
    endloop
  endfacet
  facet normal 0 1 0
    outer loop
      vertex 3.8 2.5 -2
      vertex 5 2.5 -2.5
      vertex 3.79812 2.5 -2.05965
    endloop
  endfacet
  facet normal 0 1 0
    outer loop
      vertex 3.79812 2.5 -2.05965
      vertex 5 2.5 -2.5
      vertex 3.7925 2.5 -2.2386
    endloop
  endfacet
  facet normal 0 1 0
    outer loop
      vertex 3.7925 2.5 -2.2386
      vertex 5 2.5 -2.5
      vertex 3.77004 2.5 -2.47627
    endloop
  endfacet
  facet normal 0 1 0
    outer loop
      vertex 3.77004 2.5 -2.47627
      vertex 5 2.5 -2.5
      vertex 3.76628 2.5 -2.5
    endloop
  endfacet
  facet normal 0 1 -0
    outer loop
      vertex -0.238604 2.5 1.7925
      vertex -5 2.5 2.5
      vertex 0 2.5 1.8
    endloop
  endfacet
  facet normal 0 1 -0
    outer loop
      vertex -0.476266 2.5 1.77004
      vertex -5 2.5 2.5
      vertex -0.238604 2.5 1.7925
    endloop
  endfacet
  facet normal 0 1 -0
    outer loop
      vertex -0.712049 2.5 1.73269
      vertex -5 2.5 2.5
      vertex -0.476266 2.5 1.77004
    endloop
  endfacet
  facet normal 0 1 -0
    outer loop
      vertex -0.945021 2.5 1.68062
      vertex -5 2.5 2.5
      vertex -0.712049 2.5 1.73269
    endloop
  endfacet
  facet normal 0 1 -0
    outer loop
      vertex -1.17426 2.5 1.61401
      vertex -5 2.5 2.5
      vertex -0.945021 2.5 1.68062
    endloop
  endfacet
  facet normal 0 1 -0
    outer loop
      vertex -1.39887 2.5 1.53315
      vertex -5 2.5 2.5
      vertex -1.17426 2.5 1.61401
    endloop
  endfacet
  facet normal 0 1 -0
    outer loop
      vertex -1.61796 2.5 1.43834
      vertex -5 2.5 2.5
      vertex -1.39887 2.5 1.53315
    endloop
  endfacet
  facet normal 0 1 -0
    outer loop
      vertex -1.83066 2.5 1.32996
      vertex -5 2.5 2.5
      vertex -1.61796 2.5 1.43834
    endloop
  endfacet
  facet normal 0 1 -0
    outer loop
      vertex -2.03614 2.5 1.20845
      vertex -5 2.5 2.5
      vertex -1.83066 2.5 1.32996
    endloop
  endfacet
  facet normal 0 1 -0
    outer loop
      vertex -2.23358 2.5 1.07426
      vertex -5 2.5 2.5
      vertex -2.03614 2.5 1.20845
    endloop
  endfacet
  facet normal 0 1 -0
    outer loop
      vertex -2.42221 2.5 0.92795
      vertex -5 2.5 2.5
      vertex -2.23358 2.5 1.07426
    endloop
  endfacet
  facet normal 0 1 -0
    outer loop
      vertex -2.60128 2.5 0.770081
      vertex -5 2.5 2.5
      vertex -2.42221 2.5 0.92795
    endloop
  endfacet
  facet normal 0 1 -0
    outer loop
      vertex -2.77008 2.5 0.601278
      vertex -5 2.5 2.5
      vertex -2.60128 2.5 0.770081
    endloop
  endfacet
  facet normal 0 1 -0
    outer loop
      vertex -2.92795 2.5 0.422211
      vertex -5 2.5 2.5
      vertex -2.77008 2.5 0.601278
    endloop
  endfacet
  facet normal 0 1 -0
    outer loop
      vertex -3.07426 2.5 0.233583
      vertex -5 2.5 2.5
      vertex -2.92795 2.5 0.422211
    endloop
  endfacet
  facet normal 0 1 -0
    outer loop
      vertex -3.20845 2.5 0.0361414
      vertex -5 2.5 2.5
      vertex -3.07426 2.5 0.233583
    endloop
  endfacet
  facet normal 0 1 -0
    outer loop
      vertex -3.32996 2.5 -0.169335
      vertex -5 2.5 2.5
      vertex -3.20845 2.5 0.0361414
    endloop
  endfacet
  facet normal 0 1 -0
    outer loop
      vertex -3.43834 2.5 -0.382038
      vertex -5 2.5 2.5
      vertex -3.32996 2.5 -0.169335
    endloop
  endfacet
  facet normal 0 1 -0
    outer loop
      vertex -3.53315 2.5 -0.601127
      vertex -5 2.5 2.5
      vertex -3.43834 2.5 -0.382038
    endloop
  endfacet
  facet normal 0 1 -0
    outer loop
      vertex -3.61401 2.5 -0.825735
      vertex -5 2.5 2.5
      vertex -3.53315 2.5 -0.601127
    endloop
  endfacet
  facet normal 0 1 0
    outer loop
      vertex -5 2.5 -2.5
      vertex -3.61401 2.5 -0.825735
      vertex -3.68062 2.5 -1.05498
    endloop
  endfacet
  facet normal 0 1 0
    outer loop
      vertex -5 2.5 -2.5
      vertex -3.68062 2.5 -1.05498
      vertex -3.73269 2.5 -1.28795
    endloop
  endfacet
  facet normal 0 1 0
    outer loop
      vertex -5 2.5 -2.5
      vertex -3.73269 2.5 -1.28795
      vertex -3.77004 2.5 -1.52373
    endloop
  endfacet
  facet normal 0 1 0
    outer loop
      vertex -5 2.5 -2.5
      vertex -3.77004 2.5 -1.52373
      vertex -3.7925 2.5 -1.7614
    endloop
  endfacet
  facet normal 0 1 0
    outer loop
      vertex -5 2.5 -2.5
      vertex -3.7925 2.5 -1.7614
      vertex -3.79438 2.5 -1.82105
    endloop
  endfacet
  facet normal 0 1 0
    outer loop
      vertex -5 2.5 -2.5
      vertex -3.79438 2.5 -1.82105
      vertex -3.8 2.5 -2
    endloop
  endfacet
  facet normal 0 1 0
    outer loop
      vertex -5 2.5 -2.5
      vertex -3.8 2.5 -2
      vertex -3.79812 2.5 -2.05965
    endloop
  endfacet
  facet normal 0 1 0
    outer loop
      vertex -5 2.5 -2.5
      vertex -3.79812 2.5 -2.05965
      vertex -3.7925 2.5 -2.2386
    endloop
  endfacet
  facet normal 0 1 0
    outer loop
      vertex -5 2.5 -2.5
      vertex -3.7925 2.5 -2.2386
      vertex -3.77004 2.5 -2.47627
    endloop
  endfacet
  facet normal 0 1 0
    outer loop
      vertex -5 2.5 -2.5
      vertex -3.77004 2.5 -2.47627
      vertex -3.76628 2.5 -2.5
    endloop
  endfacet
  facet normal 0 1 0
    outer loop
      vertex -3.61401 2.5 -0.825735
      vertex -5 2.5 -2.5
      vertex -5 2.5 2.5
    endloop
  endfacet
  facet normal 0 0 -1
    outer loop
      vertex -5 -2.5 -2.5
      vertex -3.76628 2.5 -2.5
      vertex -3.76628 -2.5 -2.5
    endloop
  endfacet
  facet normal -0 0 -1
    outer loop
      vertex -3.76628 2.5 -2.5
      vertex -5 -2.5 -2.5
      vertex -5 2.5 -2.5
    endloop
  endfacet
  facet normal 0 0 -1
    outer loop
      vertex 3.76628 -2.5 -2.5
      vertex 5 2.5 -2.5
      vertex 5 -2.5 -2.5
    endloop
  endfacet
  facet normal -0 0 -1
    outer loop
      vertex 5 2.5 -2.5
      vertex 3.76628 -2.5 -2.5
      vertex 3.76628 2.5 -2.5
    endloop
  endfacet
  facet normal 0 -1 0
    outer loop
      vertex -5 -2.5 2.5
      vertex 0 -2.5 1.8
      vertex 5 -2.5 2.5
    endloop
  endfacet
  facet normal 0 -1 0
    outer loop
      vertex -5 -2.5 2.5
      vertex -0.238604 -2.5 1.7925
      vertex 0 -2.5 1.8
    endloop
  endfacet
  facet normal 0 -1 0
    outer loop
      vertex -5 -2.5 2.5
      vertex -0.476266 -2.5 1.77004
      vertex -0.238604 -2.5 1.7925
    endloop
  endfacet
  facet normal 0 -1 0
    outer loop
      vertex -5 -2.5 2.5
      vertex -0.712049 -2.5 1.73269
      vertex -0.476266 -2.5 1.77004
    endloop
  endfacet
  facet normal 0 -1 0
    outer loop
      vertex -5 -2.5 2.5
      vertex -0.945021 -2.5 1.68062
      vertex -0.712049 -2.5 1.73269
    endloop
  endfacet
  facet normal 0 -1 0
    outer loop
      vertex -5 -2.5 2.5
      vertex -1.17426 -2.5 1.61401
      vertex -0.945021 -2.5 1.68062
    endloop
  endfacet
  facet normal 0 -1 0
    outer loop
      vertex -5 -2.5 2.5
      vertex -1.39887 -2.5 1.53315
      vertex -1.17426 -2.5 1.61401
    endloop
  endfacet
  facet normal 0 -1 0
    outer loop
      vertex -5 -2.5 2.5
      vertex -1.61796 -2.5 1.43834
      vertex -1.39887 -2.5 1.53315
    endloop
  endfacet
  facet normal 0 -1 0
    outer loop
      vertex -5 -2.5 2.5
      vertex -1.83066 -2.5 1.32996
      vertex -1.61796 -2.5 1.43834
    endloop
  endfacet
  facet normal 0 -1 0
    outer loop
      vertex -5 -2.5 2.5
      vertex -2.03614 -2.5 1.20845
      vertex -1.83066 -2.5 1.32996
    endloop
  endfacet
  facet normal 0 -1 0
    outer loop
      vertex -5 -2.5 2.5
      vertex -2.23358 -2.5 1.07426
      vertex -2.03614 -2.5 1.20845
    endloop
  endfacet
  facet normal 0 -1 0
    outer loop
      vertex -5 -2.5 2.5
      vertex -2.42221 -2.5 0.92795
      vertex -2.23358 -2.5 1.07426
    endloop
  endfacet
  facet normal 0 -1 0
    outer loop
      vertex -5 -2.5 2.5
      vertex -2.60128 -2.5 0.770081
      vertex -2.42221 -2.5 0.92795
    endloop
  endfacet
  facet normal 0 -1 0
    outer loop
      vertex -5 -2.5 2.5
      vertex -2.77008 -2.5 0.601278
      vertex -2.60128 -2.5 0.770081
    endloop
  endfacet
  facet normal 0 -1 0
    outer loop
      vertex -5 -2.5 2.5
      vertex -2.92795 -2.5 0.422211
      vertex -2.77008 -2.5 0.601278
    endloop
  endfacet
  facet normal 0 -1 0
    outer loop
      vertex -5 -2.5 2.5
      vertex -3.07426 -2.5 0.233583
      vertex -2.92795 -2.5 0.422211
    endloop
  endfacet
  facet normal 0 -1 0
    outer loop
      vertex -5 -2.5 2.5
      vertex -3.20845 -2.5 0.0361414
      vertex -3.07426 -2.5 0.233583
    endloop
  endfacet
  facet normal 0 -1 0
    outer loop
      vertex -5 -2.5 2.5
      vertex -3.32996 -2.5 -0.169335
      vertex -3.20845 -2.5 0.0361414
    endloop
  endfacet
  facet normal 0 -1 0
    outer loop
      vertex -5 -2.5 2.5
      vertex -3.43834 -2.5 -0.382038
      vertex -3.32996 -2.5 -0.169335
    endloop
  endfacet
  facet normal 0 -1 0
    outer loop
      vertex -5 -2.5 2.5
      vertex -3.53315 -2.5 -0.601127
      vertex -3.43834 -2.5 -0.382038
    endloop
  endfacet
  facet normal 0 -1 0
    outer loop
      vertex -5 -2.5 2.5
      vertex -3.61401 -2.5 -0.825735
      vertex -3.53315 -2.5 -0.601127
    endloop
  endfacet
  facet normal 0 -1 0
    outer loop
      vertex -5 -2.5 -2.5
      vertex -3.61401 -2.5 -0.825735
      vertex -5 -2.5 2.5
    endloop
  endfacet
  facet normal 0 -1 0
    outer loop
      vertex -3.61401 -2.5 -0.825735
      vertex -5 -2.5 -2.5
      vertex -3.68062 -2.5 -1.05498
    endloop
  endfacet
  facet normal 0 -1 0
    outer loop
      vertex -3.68062 -2.5 -1.05498
      vertex -5 -2.5 -2.5
      vertex -3.73269 -2.5 -1.28795
    endloop
  endfacet
  facet normal 0 -1 0
    outer loop
      vertex -3.73269 -2.5 -1.28795
      vertex -5 -2.5 -2.5
      vertex -3.77004 -2.5 -1.52373
    endloop
  endfacet
  facet normal 0 -1 0
    outer loop
      vertex -3.77004 -2.5 -1.52373
      vertex -5 -2.5 -2.5
      vertex -3.7925 -2.5 -1.7614
    endloop
  endfacet
  facet normal 0 -1 0
    outer loop
      vertex -3.7925 -2.5 -1.7614
      vertex -5 -2.5 -2.5
      vertex -3.79812 -2.5 -1.94035
    endloop
  endfacet
  facet normal 0 -1 0
    outer loop
      vertex -3.79812 -2.5 -1.94035
      vertex -5 -2.5 -2.5
      vertex -3.8 -2.5 -2
    endloop
  endfacet
  facet normal 0 -1 -0
    outer loop
      vertex -3.8 -2.5 -2
      vertex -5 -2.5 -2.5
      vertex -3.79438 -2.5 -2.17895
    endloop
  endfacet
  facet normal 0 -1 -0
    outer loop
      vertex -3.79438 -2.5 -2.17895
      vertex -5 -2.5 -2.5
      vertex -3.7925 -2.5 -2.2386
    endloop
  endfacet
  facet normal 0 -1 -0
    outer loop
      vertex -3.7925 -2.5 -2.2386
      vertex -5 -2.5 -2.5
      vertex -3.77004 -2.5 -2.47627
    endloop
  endfacet
  facet normal 0 -1 -0
    outer loop
      vertex -3.77004 -2.5 -2.47627
      vertex -5 -2.5 -2.5
      vertex -3.76628 -2.5 -2.5
    endloop
  endfacet
  facet normal 0 -1 0
    outer loop
      vertex 0.238604 -2.5 1.7925
      vertex 5 -2.5 2.5
      vertex 0 -2.5 1.8
    endloop
  endfacet
  facet normal 0 -1 0
    outer loop
      vertex 0.476266 -2.5 1.77004
      vertex 5 -2.5 2.5
      vertex 0.238604 -2.5 1.7925
    endloop
  endfacet
  facet normal 0 -1 0
    outer loop
      vertex 0.712049 -2.5 1.73269
      vertex 5 -2.5 2.5
      vertex 0.476266 -2.5 1.77004
    endloop
  endfacet
  facet normal 0 -1 0
    outer loop
      vertex 0.945021 -2.5 1.68062
      vertex 5 -2.5 2.5
      vertex 0.712049 -2.5 1.73269
    endloop
  endfacet
  facet normal 0 -1 0
    outer loop
      vertex 1.17426 -2.5 1.61401
      vertex 5 -2.5 2.5
      vertex 0.945021 -2.5 1.68062
    endloop
  endfacet
  facet normal 0 -1 0
    outer loop
      vertex 1.39887 -2.5 1.53315
      vertex 5 -2.5 2.5
      vertex 1.17426 -2.5 1.61401
    endloop
  endfacet
  facet normal 0 -1 0
    outer loop
      vertex 1.61796 -2.5 1.43834
      vertex 5 -2.5 2.5
      vertex 1.39887 -2.5 1.53315
    endloop
  endfacet
  facet normal 0 -1 0
    outer loop
      vertex 1.83066 -2.5 1.32996
      vertex 5 -2.5 2.5
      vertex 1.61796 -2.5 1.43834
    endloop
  endfacet
  facet normal 0 -1 0
    outer loop
      vertex 2.03614 -2.5 1.20845
      vertex 5 -2.5 2.5
      vertex 1.83066 -2.5 1.32996
    endloop
  endfacet
  facet normal 0 -1 0
    outer loop
      vertex 2.23358 -2.5 1.07426
      vertex 5 -2.5 2.5
      vertex 2.03614 -2.5 1.20845
    endloop
  endfacet
  facet normal 0 -1 0
    outer loop
      vertex 2.42221 -2.5 0.92795
      vertex 5 -2.5 2.5
      vertex 2.23358 -2.5 1.07426
    endloop
  endfacet
  facet normal 0 -1 0
    outer loop
      vertex 2.60128 -2.5 0.770081
      vertex 5 -2.5 2.5
      vertex 2.42221 -2.5 0.92795
    endloop
  endfacet
  facet normal 0 -1 0
    outer loop
      vertex 2.77008 -2.5 0.601278
      vertex 5 -2.5 2.5
      vertex 2.60128 -2.5 0.770081
    endloop
  endfacet
  facet normal 0 -1 0
    outer loop
      vertex 2.92795 -2.5 0.422211
      vertex 5 -2.5 2.5
      vertex 2.77008 -2.5 0.601278
    endloop
  endfacet
  facet normal 0 -1 0
    outer loop
      vertex 3.07426 -2.5 0.233583
      vertex 5 -2.5 2.5
      vertex 2.92795 -2.5 0.422211
    endloop
  endfacet
  facet normal 0 -1 0
    outer loop
      vertex 3.20845 -2.5 0.0361414
      vertex 5 -2.5 2.5
      vertex 3.07426 -2.5 0.233583
    endloop
  endfacet
  facet normal 0 -1 0
    outer loop
      vertex 3.32996 -2.5 -0.169335
      vertex 5 -2.5 2.5
      vertex 3.20845 -2.5 0.0361414
    endloop
  endfacet
  facet normal 0 -1 0
    outer loop
      vertex 3.43834 -2.5 -0.382038
      vertex 5 -2.5 2.5
      vertex 3.32996 -2.5 -0.169335
    endloop
  endfacet
  facet normal 0 -1 0
    outer loop
      vertex 3.53315 -2.5 -0.601127
      vertex 5 -2.5 2.5
      vertex 3.43834 -2.5 -0.382038
    endloop
  endfacet
  facet normal 0 -1 0
    outer loop
      vertex 3.61401 -2.5 -0.825735
      vertex 5 -2.5 2.5
      vertex 3.53315 -2.5 -0.601127
    endloop
  endfacet
  facet normal 0 -1 0
    outer loop
      vertex 5 -2.5 -2.5
      vertex 3.61401 -2.5 -0.825735
      vertex 3.68062 -2.5 -1.05498
    endloop
  endfacet
  facet normal 0 -1 0
    outer loop
      vertex 5 -2.5 -2.5
      vertex 3.68062 -2.5 -1.05498
      vertex 3.73269 -2.5 -1.28795
    endloop
  endfacet
  facet normal 0 -1 0
    outer loop
      vertex 5 -2.5 -2.5
      vertex 3.73269 -2.5 -1.28795
      vertex 3.77004 -2.5 -1.52373
    endloop
  endfacet
  facet normal 0 -1 0
    outer loop
      vertex 5 -2.5 -2.5
      vertex 3.77004 -2.5 -1.52373
      vertex 3.7925 -2.5 -1.7614
    endloop
  endfacet
  facet normal 0 -1 0
    outer loop
      vertex 5 -2.5 -2.5
      vertex 3.7925 -2.5 -1.7614
      vertex 3.79812 -2.5 -1.94035
    endloop
  endfacet
  facet normal 0 -1 0
    outer loop
      vertex 5 -2.5 -2.5
      vertex 3.79812 -2.5 -1.94035
      vertex 3.8 -2.5 -2
    endloop
  endfacet
  facet normal 0 -1 0
    outer loop
      vertex 5 -2.5 -2.5
      vertex 3.8 -2.5 -2
      vertex 3.79438 -2.5 -2.17895
    endloop
  endfacet
  facet normal 0 -1 0
    outer loop
      vertex 5 -2.5 -2.5
      vertex 3.79438 -2.5 -2.17895
      vertex 3.7925 -2.5 -2.2386
    endloop
  endfacet
  facet normal 0 -1 0
    outer loop
      vertex 5 -2.5 -2.5
      vertex 3.7925 -2.5 -2.2386
      vertex 3.77004 -2.5 -2.47627
    endloop
  endfacet
  facet normal 0 -1 0
    outer loop
      vertex 5 -2.5 -2.5
      vertex 3.77004 -2.5 -2.47627
      vertex 3.76628 -2.5 -2.5
    endloop
  endfacet
  facet normal 0 -1 0
    outer loop
      vertex 3.61401 -2.5 -0.825735
      vertex 5 -2.5 -2.5
      vertex 5 -2.5 2.5
    endloop
  endfacet
  facet normal -0.999507 0 -0.0314081
    outer loop
      vertex 3.7925 -2.5 -1.7614
      vertex 3.79438 2.5 -1.82105
      vertex 3.79812 -2.5 -1.94035
    endloop
  endfacet
  facet normal -0.999507 0 -0.0314081
    outer loop
      vertex 3.79438 2.5 -1.82105
      vertex 3.7925 -2.5 -1.7614
      vertex 3.7925 2.5 -1.7614
    endloop
  endfacet
  facet normal -0.999507 -2.9953e-09 -0.031408
    outer loop
      vertex 3.79812 -2.5 -1.94035
      vertex 3.8 2.5 -2
      vertex 3.8 -2.5 -2
    endloop
  endfacet
  facet normal -0.999507 -2.9953e-09 -0.031408
    outer loop
      vertex 3.8 2.5 -2
      vertex 3.79812 -2.5 -1.94035
      vertex 3.79438 2.5 -1.82105
    endloop
  endfacet
  facet normal -0.338741 0 -0.94088
    outer loop
      vertex 1.17426 -2.5 1.61401
      vertex 1.39887 2.5 1.53315
      vertex 1.39887 -2.5 1.53315
    endloop
  endfacet
  facet normal -0.338741 0 -0.94088
    outer loop
      vertex 1.39887 2.5 1.53315
      vertex 1.17426 -2.5 1.61401
      vertex 1.17426 2.5 1.61401
    endloop
  endfacet
  facet normal -0.891007 0 -0.45399
    outer loop
      vertex 3.43834 -2.5 -0.382038
      vertex 3.32996 2.5 -0.169335
      vertex 3.43834 2.5 -0.382038
    endloop
  endfacet
  facet normal -0.891007 -0 -0.45399
    outer loop
      vertex 3.32996 2.5 -0.169335
      vertex 3.43834 -2.5 -0.382038
      vertex 3.32996 -2.5 -0.169335
    endloop
  endfacet
  facet normal -0.860741 0 -0.509043
    outer loop
      vertex 3.32996 -2.5 -0.169335
      vertex 3.20845 2.5 0.0361414
      vertex 3.32996 2.5 -0.169335
    endloop
  endfacet
  facet normal -0.860741 -0 -0.509043
    outer loop
      vertex 3.20845 2.5 0.0361414
      vertex 3.32996 -2.5 -0.169335
      vertex 3.20845 -2.5 0.0361414
    endloop
  endfacet
  facet normal -0.509041 0 -0.860742
    outer loop
      vertex 1.83066 -2.5 1.32996
      vertex 2.03614 2.5 1.20845
      vertex 2.03614 -2.5 1.20845
    endloop
  endfacet
  facet normal -0.509041 0 -0.860742
    outer loop
      vertex 2.03614 2.5 1.20845
      vertex 1.83066 -2.5 1.32996
      vertex 1.83066 2.5 1.32996
    endloop
  endfacet
  facet normal 0.94088 0 -0.338741
    outer loop
      vertex -3.53315 -2.5 -0.601127
      vertex -3.61401 2.5 -0.825735
      vertex -3.53315 2.5 -0.601127
    endloop
  endfacet
  facet normal 0.94088 0 -0.338741
    outer loop
      vertex -3.61401 2.5 -0.825735
      vertex -3.53315 -2.5 -0.601127
      vertex -3.61401 -2.5 -0.825735
    endloop
  endfacet
  facet normal -0.999507 2.9953e-09 0.031408
    outer loop
      vertex 3.8 -2.5 -2
      vertex 3.79812 2.5 -2.05965
      vertex 3.79438 -2.5 -2.17895
    endloop
  endfacet
  facet normal -0.999507 2.9953e-09 0.031408
    outer loop
      vertex 3.79812 2.5 -2.05965
      vertex 3.8 -2.5 -2
      vertex 3.8 2.5 -2
    endloop
  endfacet
  facet normal 0.995562 -0 0.0941083
    outer loop
      vertex -3.7925 -2.5 -2.2386
      vertex -3.77004 2.5 -2.47627
      vertex -3.7925 2.5 -2.2386
    endloop
  endfacet
  facet normal 0.995562 0 0.0941083
    outer loop
      vertex -3.77004 2.5 -2.47627
      vertex -3.7925 -2.5 -2.2386
      vertex -3.77004 -2.5 -2.47627
    endloop
  endfacet
  facet normal -0.790154 0 -0.612908
    outer loop
      vertex 3.07426 -2.5 0.233583
      vertex 2.92795 2.5 0.422211
      vertex 3.07426 2.5 0.233583
    endloop
  endfacet
  facet normal -0.790154 -0 -0.612908
    outer loop
      vertex 2.92795 2.5 0.422211
      vertex 3.07426 -2.5 0.233583
      vertex 2.92795 -2.5 0.422211
    endloop
  endfacet
  facet normal -0.661312 0 -0.750111
    outer loop
      vertex 2.42221 -2.5 0.92795
      vertex 2.60128 2.5 0.770081
      vertex 2.60128 -2.5 0.770081
    endloop
  endfacet
  facet normal -0.661312 0 -0.750111
    outer loop
      vertex 2.60128 2.5 0.770081
      vertex 2.42221 -2.5 0.92795
      vertex 2.42221 2.5 0.92795
    endloop
  endfacet
  facet normal 0.0314081 0 -0.999507
    outer loop
      vertex -0.238604 -2.5 1.7925
      vertex 0 2.5 1.8
      vertex 0 -2.5 1.8
    endloop
  endfacet
  facet normal 0.0314081 0 -0.999507
    outer loop
      vertex 0 2.5 1.8
      vertex -0.238604 -2.5 1.7925
      vertex -0.238604 2.5 1.7925
    endloop
  endfacet
  facet normal -0.278989 0 -0.960294
    outer loop
      vertex 0.945021 -2.5 1.68062
      vertex 1.17426 2.5 1.61401
      vertex 1.17426 -2.5 1.61401
    endloop
  endfacet
  facet normal -0.278989 0 -0.960294
    outer loop
      vertex 1.17426 2.5 1.61401
      vertex 0.945021 -2.5 1.68062
      vertex 0.945021 2.5 1.68062
    endloop
  endfacet
  facet normal -0.156437 0 -0.987688
    outer loop
      vertex 0.476266 -2.5 1.77004
      vertex 0.712049 2.5 1.73269
      vertex 0.712049 -2.5 1.73269
    endloop
  endfacet
  facet normal -0.156437 0 -0.987688
    outer loop
      vertex 0.712049 2.5 1.73269
      vertex 0.476266 -2.5 1.77004
      vertex 0.476266 2.5 1.77004
    endloop
  endfacet
  facet normal -0.612908 0 -0.790154
    outer loop
      vertex 2.23358 -2.5 1.07426
      vertex 2.42221 2.5 0.92795
      vertex 2.42221 -2.5 0.92795
    endloop
  endfacet
  facet normal -0.612908 0 -0.790154
    outer loop
      vertex 2.42221 2.5 0.92795
      vertex 2.23358 -2.5 1.07426
      vertex 2.23358 2.5 1.07426
    endloop
  endfacet
  facet normal 0.999507 2.9953e-09 0.031408
    outer loop
      vertex -3.8 -2.5 -2
      vertex -3.79812 2.5 -2.05965
      vertex -3.8 2.5 -2
    endloop
  endfacet
  facet normal 0.999507 2.9953e-09 0.031408
    outer loop
      vertex -3.79812 2.5 -2.05965
      vertex -3.8 -2.5 -2
      vertex -3.79438 -2.5 -2.17895
    endloop
  endfacet
  facet normal -0.827081 0 -0.562082
    outer loop
      vertex 3.20845 -2.5 0.0361414
      vertex 3.07426 2.5 0.233583
      vertex 3.20845 2.5 0.0361414
    endloop
  endfacet
  facet normal -0.827081 -0 -0.562082
    outer loop
      vertex 3.07426 2.5 0.233583
      vertex 3.20845 -2.5 0.0361414
      vertex 3.07426 -2.5 0.233583
    endloop
  endfacet
  facet normal -0.750111 0 -0.661312
    outer loop
      vertex 2.92795 -2.5 0.422211
      vertex 2.77008 2.5 0.601278
      vertex 2.92795 2.5 0.422211
    endloop
  endfacet
  facet normal -0.750111 -0 -0.661312
    outer loop
      vertex 2.77008 2.5 0.601278
      vertex 2.92795 -2.5 0.422211
      vertex 2.77008 -2.5 0.601278
    endloop
  endfacet
  facet normal -0.0941083 0 -0.995562
    outer loop
      vertex 0.238604 -2.5 1.7925
      vertex 0.476266 2.5 1.77004
      vertex 0.476266 -2.5 1.77004
    endloop
  endfacet
  facet normal -0.0941083 0 -0.995562
    outer loop
      vertex 0.476266 2.5 1.77004
      vertex 0.238604 -2.5 1.7925
      vertex 0.238604 2.5 1.7925
    endloop
  endfacet
  facet normal -0.45399 0 -0.891007
    outer loop
      vertex 1.61796 -2.5 1.43834
      vertex 1.83066 2.5 1.32996
      vertex 1.83066 -2.5 1.32996
    endloop
  endfacet
  facet normal -0.45399 0 -0.891007
    outer loop
      vertex 1.83066 2.5 1.32996
      vertex 1.61796 -2.5 1.43834
      vertex 1.61796 2.5 1.43834
    endloop
  endfacet
  facet normal 0.999507 -2.9953e-09 -0.031408
    outer loop
      vertex -3.79812 -2.5 -1.94035
      vertex -3.8 2.5 -2
      vertex -3.79438 2.5 -1.82105
    endloop
  endfacet
  facet normal 0.999507 -2.9953e-09 -0.031408
    outer loop
      vertex -3.8 2.5 -2
      vertex -3.79812 -2.5 -1.94035
      vertex -3.8 -2.5 -2
    endloop
  endfacet
  facet normal 0.0941083 0 -0.995562
    outer loop
      vertex -0.476266 -2.5 1.77004
      vertex -0.238604 2.5 1.7925
      vertex -0.238604 -2.5 1.7925
    endloop
  endfacet
  facet normal 0.0941083 0 -0.995562
    outer loop
      vertex -0.238604 2.5 1.7925
      vertex -0.476266 -2.5 1.77004
      vertex -0.476266 2.5 1.77004
    endloop
  endfacet
  facet normal 0.707107 0 -0.707107
    outer loop
      vertex -2.60128 -2.5 0.770081
      vertex -2.77008 2.5 0.601278
      vertex -2.60128 2.5 0.770081
    endloop
  endfacet
  facet normal 0.707107 0 -0.707107
    outer loop
      vertex -2.77008 2.5 0.601278
      vertex -2.60128 -2.5 0.770081
      vertex -2.77008 -2.5 0.601278
    endloop
  endfacet
  facet normal 0.750111 0 -0.661312
    outer loop
      vertex -2.77008 -2.5 0.601278
      vertex -2.92795 2.5 0.422211
      vertex -2.77008 2.5 0.601278
    endloop
  endfacet
  facet normal 0.750111 0 -0.661312
    outer loop
      vertex -2.92795 2.5 0.422211
      vertex -2.77008 -2.5 0.601278
      vertex -2.92795 -2.5 0.422211
    endloop
  endfacet
  facet normal 0.790154 0 -0.612908
    outer loop
      vertex -2.92795 -2.5 0.422211
      vertex -3.07426 2.5 0.233583
      vertex -2.92795 2.5 0.422211
    endloop
  endfacet
  facet normal 0.790154 0 -0.612908
    outer loop
      vertex -3.07426 2.5 0.233583
      vertex -2.92795 -2.5 0.422211
      vertex -3.07426 -2.5 0.233583
    endloop
  endfacet
  facet normal 0.999507 0 -0.0314081
    outer loop
      vertex -3.7925 -2.5 -1.7614
      vertex -3.79438 2.5 -1.82105
      vertex -3.7925 2.5 -1.7614
    endloop
  endfacet
  facet normal 0.999507 0 -0.0314081
    outer loop
      vertex -3.79438 2.5 -1.82105
      vertex -3.7925 -2.5 -1.7614
      vertex -3.79812 -2.5 -1.94035
    endloop
  endfacet
  facet normal -0.995562 0 0.0941083
    outer loop
      vertex 3.77004 -2.5 -2.47627
      vertex 3.7925 2.5 -2.2386
      vertex 3.77004 2.5 -2.47627
    endloop
  endfacet
  facet normal -0.995562 0 0.0941083
    outer loop
      vertex 3.7925 2.5 -2.2386
      vertex 3.77004 -2.5 -2.47627
      vertex 3.7925 -2.5 -2.2386
    endloop
  endfacet
  facet normal 0.999507 0 0.0314081
    outer loop
      vertex -3.79438 -2.5 -2.17895
      vertex -3.7925 2.5 -2.2386
      vertex -3.79812 2.5 -2.05965
    endloop
  endfacet
  facet normal 0.999507 0 0.0314081
    outer loop
      vertex -3.7925 2.5 -2.2386
      vertex -3.79438 -2.5 -2.17895
      vertex -3.7925 -2.5 -2.2386
    endloop
  endfacet
  facet normal -0.975917 0 -0.218143
    outer loop
      vertex 3.73269 -2.5 -1.28795
      vertex 3.68062 2.5 -1.05498
      vertex 3.73269 2.5 -1.28795
    endloop
  endfacet
  facet normal -0.975917 -0 -0.218143
    outer loop
      vertex 3.68062 2.5 -1.05498
      vertex 3.73269 -2.5 -1.28795
      vertex 3.68062 -2.5 -1.05498
    endloop
  endfacet
  facet normal -0.917755 0 -0.397146
    outer loop
      vertex 3.53315 -2.5 -0.601127
      vertex 3.43834 2.5 -0.382038
      vertex 3.53315 2.5 -0.601127
    endloop
  endfacet
  facet normal -0.917755 -0 -0.397146
    outer loop
      vertex 3.43834 2.5 -0.382038
      vertex 3.53315 -2.5 -0.601127
      vertex 3.43834 -2.5 -0.382038
    endloop
  endfacet
  facet normal -0.707107 0 -0.707107
    outer loop
      vertex 2.77008 -2.5 0.601278
      vertex 2.60128 2.5 0.770081
      vertex 2.77008 2.5 0.601278
    endloop
  endfacet
  facet normal -0.707107 -0 -0.707107
    outer loop
      vertex 2.60128 2.5 0.770081
      vertex 2.77008 -2.5 0.601278
      vertex 2.60128 -2.5 0.770081
    endloop
  endfacet
  facet normal -0.0314081 0 -0.999507
    outer loop
      vertex 0 -2.5 1.8
      vertex 0.238604 2.5 1.7925
      vertex 0.238604 -2.5 1.7925
    endloop
  endfacet
  facet normal -0.0314081 0 -0.999507
    outer loop
      vertex 0.238604 2.5 1.7925
      vertex 0 -2.5 1.8
      vertex 0 2.5 1.8
    endloop
  endfacet
  facet normal -0.218143 0 -0.975917
    outer loop
      vertex 0.712049 -2.5 1.73269
      vertex 0.945021 2.5 1.68062
      vertex 0.945021 -2.5 1.68062
    endloop
  endfacet
  facet normal -0.218143 0 -0.975917
    outer loop
      vertex 0.945021 2.5 1.68062
      vertex 0.712049 -2.5 1.73269
      vertex 0.712049 2.5 1.73269
    endloop
  endfacet
  facet normal -0.397146 0 -0.917755
    outer loop
      vertex 1.39887 -2.5 1.53315
      vertex 1.61796 2.5 1.43834
      vertex 1.61796 -2.5 1.43834
    endloop
  endfacet
  facet normal -0.397146 0 -0.917755
    outer loop
      vertex 1.61796 2.5 1.43834
      vertex 1.39887 -2.5 1.53315
      vertex 1.39887 2.5 1.53315
    endloop
  endfacet
  facet normal -0.562082 0 -0.827081
    outer loop
      vertex 2.03614 -2.5 1.20845
      vertex 2.23358 2.5 1.07426
      vertex 2.23358 -2.5 1.07426
    endloop
  endfacet
  facet normal -0.562082 0 -0.827081
    outer loop
      vertex 2.23358 2.5 1.07426
      vertex 2.03614 -2.5 1.20845
      vertex 2.03614 2.5 1.20845
    endloop
  endfacet
  facet normal 0.995562 0 -0.0941083
    outer loop
      vertex -3.77004 -2.5 -1.52373
      vertex -3.7925 2.5 -1.7614
      vertex -3.77004 2.5 -1.52373
    endloop
  endfacet
  facet normal 0.995562 0 -0.0941083
    outer loop
      vertex -3.7925 2.5 -1.7614
      vertex -3.77004 -2.5 -1.52373
      vertex -3.7925 -2.5 -1.7614
    endloop
  endfacet
  facet normal 0.397146 0 -0.917755
    outer loop
      vertex -1.61796 -2.5 1.43834
      vertex -1.39887 2.5 1.53315
      vertex -1.39887 -2.5 1.53315
    endloop
  endfacet
  facet normal 0.397146 0 -0.917755
    outer loop
      vertex -1.39887 2.5 1.53315
      vertex -1.61796 -2.5 1.43834
      vertex -1.61796 2.5 1.43834
    endloop
  endfacet
  facet normal 0.278989 0 -0.960294
    outer loop
      vertex -1.17426 -2.5 1.61401
      vertex -0.945021 2.5 1.68062
      vertex -0.945021 -2.5 1.68062
    endloop
  endfacet
  facet normal 0.278989 0 -0.960294
    outer loop
      vertex -0.945021 2.5 1.68062
      vertex -1.17426 -2.5 1.61401
      vertex -1.17426 2.5 1.61401
    endloop
  endfacet
  facet normal 0.218143 0 -0.975917
    outer loop
      vertex -0.945021 -2.5 1.68062
      vertex -0.712049 2.5 1.73269
      vertex -0.712049 -2.5 1.73269
    endloop
  endfacet
  facet normal 0.218143 0 -0.975917
    outer loop
      vertex -0.712049 2.5 1.73269
      vertex -0.945021 -2.5 1.68062
      vertex -0.945021 2.5 1.68062
    endloop
  endfacet
  facet normal 0.661312 0 -0.750111
    outer loop
      vertex -2.60128 -2.5 0.770081
      vertex -2.42221 2.5 0.92795
      vertex -2.42221 -2.5 0.92795
    endloop
  endfacet
  facet normal 0.661312 0 -0.750111
    outer loop
      vertex -2.42221 2.5 0.92795
      vertex -2.60128 -2.5 0.770081
      vertex -2.60128 2.5 0.770081
    endloop
  endfacet
  facet normal 0.45399 0 -0.891007
    outer loop
      vertex -1.83066 -2.5 1.32996
      vertex -1.61796 2.5 1.43834
      vertex -1.61796 -2.5 1.43834
    endloop
  endfacet
  facet normal 0.45399 0 -0.891007
    outer loop
      vertex -1.61796 2.5 1.43834
      vertex -1.83066 -2.5 1.32996
      vertex -1.83066 2.5 1.32996
    endloop
  endfacet
  facet normal 0.562082 0 -0.827081
    outer loop
      vertex -2.23358 -2.5 1.07426
      vertex -2.03614 2.5 1.20845
      vertex -2.03614 -2.5 1.20845
    endloop
  endfacet
  facet normal 0.562082 0 -0.827081
    outer loop
      vertex -2.03614 2.5 1.20845
      vertex -2.23358 -2.5 1.07426
      vertex -2.23358 2.5 1.07426
    endloop
  endfacet
  facet normal 0.987688 0 -0.156437
    outer loop
      vertex -3.73269 -2.5 -1.28795
      vertex -3.77004 2.5 -1.52373
      vertex -3.73269 2.5 -1.28795
    endloop
  endfacet
  facet normal 0.987688 0 -0.156437
    outer loop
      vertex -3.77004 2.5 -1.52373
      vertex -3.73269 -2.5 -1.28795
      vertex -3.77004 -2.5 -1.52373
    endloop
  endfacet
  facet normal -0.999507 0 0.0314081
    outer loop
      vertex 3.79438 -2.5 -2.17895
      vertex 3.7925 2.5 -2.2386
      vertex 3.7925 -2.5 -2.2386
    endloop
  endfacet
  facet normal -0.999507 0 0.0314081
    outer loop
      vertex 3.7925 2.5 -2.2386
      vertex 3.79438 -2.5 -2.17895
      vertex 3.79812 2.5 -2.05965
    endloop
  endfacet
  facet normal 0.987688 -0 0.156436
    outer loop
      vertex -3.77004 -2.5 -2.47627
      vertex -3.76628 2.5 -2.5
      vertex -3.77004 2.5 -2.47627
    endloop
  endfacet
  facet normal 0.987688 0 0.156436
    outer loop
      vertex -3.76628 2.5 -2.5
      vertex -3.77004 -2.5 -2.47627
      vertex -3.76628 -2.5 -2.5
    endloop
  endfacet
  facet normal -0.960294 0 -0.278989
    outer loop
      vertex 3.68062 -2.5 -1.05498
      vertex 3.61401 2.5 -0.825735
      vertex 3.68062 2.5 -1.05498
    endloop
  endfacet
  facet normal -0.960294 -0 -0.278989
    outer loop
      vertex 3.61401 2.5 -0.825735
      vertex 3.68062 -2.5 -1.05498
      vertex 3.61401 -2.5 -0.825735
    endloop
  endfacet
  facet normal -0.995562 0 -0.0941083
    outer loop
      vertex 3.7925 -2.5 -1.7614
      vertex 3.77004 2.5 -1.52373
      vertex 3.7925 2.5 -1.7614
    endloop
  endfacet
  facet normal -0.995562 -0 -0.0941083
    outer loop
      vertex 3.77004 2.5 -1.52373
      vertex 3.7925 -2.5 -1.7614
      vertex 3.77004 -2.5 -1.52373
    endloop
  endfacet
  facet normal 0.338741 0 -0.94088
    outer loop
      vertex -1.39887 -2.5 1.53315
      vertex -1.17426 2.5 1.61401
      vertex -1.17426 -2.5 1.61401
    endloop
  endfacet
  facet normal 0.338741 0 -0.94088
    outer loop
      vertex -1.17426 2.5 1.61401
      vertex -1.39887 -2.5 1.53315
      vertex -1.39887 2.5 1.53315
    endloop
  endfacet
  facet normal 0.156437 0 -0.987688
    outer loop
      vertex -0.712049 -2.5 1.73269
      vertex -0.476266 2.5 1.77004
      vertex -0.476266 -2.5 1.77004
    endloop
  endfacet
  facet normal 0.156437 0 -0.987688
    outer loop
      vertex -0.476266 2.5 1.77004
      vertex -0.712049 -2.5 1.73269
      vertex -0.712049 2.5 1.73269
    endloop
  endfacet
  facet normal 0.612908 0 -0.790154
    outer loop
      vertex -2.42221 -2.5 0.92795
      vertex -2.23358 2.5 1.07426
      vertex -2.23358 -2.5 1.07426
    endloop
  endfacet
  facet normal 0.612908 0 -0.790154
    outer loop
      vertex -2.23358 2.5 1.07426
      vertex -2.42221 -2.5 0.92795
      vertex -2.42221 2.5 0.92795
    endloop
  endfacet
  facet normal 0.509041 0 -0.860742
    outer loop
      vertex -2.03614 -2.5 1.20845
      vertex -1.83066 2.5 1.32996
      vertex -1.83066 -2.5 1.32996
    endloop
  endfacet
  facet normal 0.509041 0 -0.860742
    outer loop
      vertex -1.83066 2.5 1.32996
      vertex -2.03614 -2.5 1.20845
      vertex -2.03614 2.5 1.20845
    endloop
  endfacet
  facet normal 0.891007 0 -0.45399
    outer loop
      vertex -3.32996 -2.5 -0.169335
      vertex -3.43834 2.5 -0.382038
      vertex -3.32996 2.5 -0.169335
    endloop
  endfacet
  facet normal 0.891007 0 -0.45399
    outer loop
      vertex -3.43834 2.5 -0.382038
      vertex -3.32996 -2.5 -0.169335
      vertex -3.43834 -2.5 -0.382038
    endloop
  endfacet
  facet normal 0.917755 0 -0.397146
    outer loop
      vertex -3.43834 -2.5 -0.382038
      vertex -3.53315 2.5 -0.601127
      vertex -3.43834 2.5 -0.382038
    endloop
  endfacet
  facet normal 0.917755 0 -0.397146
    outer loop
      vertex -3.53315 2.5 -0.601127
      vertex -3.43834 -2.5 -0.382038
      vertex -3.53315 -2.5 -0.601127
    endloop
  endfacet
  facet normal 0.960294 0 -0.278989
    outer loop
      vertex -3.61401 -2.5 -0.825735
      vertex -3.68062 2.5 -1.05498
      vertex -3.61401 2.5 -0.825735
    endloop
  endfacet
  facet normal 0.960294 0 -0.278989
    outer loop
      vertex -3.68062 2.5 -1.05498
      vertex -3.61401 -2.5 -0.825735
      vertex -3.68062 -2.5 -1.05498
    endloop
  endfacet
  facet normal 0.975917 0 -0.218143
    outer loop
      vertex -3.68062 -2.5 -1.05498
      vertex -3.73269 2.5 -1.28795
      vertex -3.68062 2.5 -1.05498
    endloop
  endfacet
  facet normal 0.975917 0 -0.218143
    outer loop
      vertex -3.73269 2.5 -1.28795
      vertex -3.68062 -2.5 -1.05498
      vertex -3.73269 -2.5 -1.28795
    endloop
  endfacet
  facet normal -0.987688 0 0.156436
    outer loop
      vertex 3.76628 -2.5 -2.5
      vertex 3.77004 2.5 -2.47627
      vertex 3.76628 2.5 -2.5
    endloop
  endfacet
  facet normal -0.987688 0 0.156436
    outer loop
      vertex 3.77004 2.5 -2.47627
      vertex 3.76628 -2.5 -2.5
      vertex 3.77004 -2.5 -2.47627
    endloop
  endfacet
  facet normal -0.94088 0 -0.338741
    outer loop
      vertex 3.61401 -2.5 -0.825735
      vertex 3.53315 2.5 -0.601127
      vertex 3.61401 2.5 -0.825735
    endloop
  endfacet
  facet normal -0.94088 -0 -0.338741
    outer loop
      vertex 3.53315 2.5 -0.601127
      vertex 3.61401 -2.5 -0.825735
      vertex 3.53315 -2.5 -0.601127
    endloop
  endfacet
  facet normal -0.987688 0 -0.156437
    outer loop
      vertex 3.77004 -2.5 -1.52373
      vertex 3.73269 2.5 -1.28795
      vertex 3.77004 2.5 -1.52373
    endloop
  endfacet
  facet normal -0.987688 -0 -0.156437
    outer loop
      vertex 3.73269 2.5 -1.28795
      vertex 3.77004 -2.5 -1.52373
      vertex 3.73269 -2.5 -1.28795
    endloop
  endfacet
  facet normal 0.860741 0 -0.509043
    outer loop
      vertex -3.20845 -2.5 0.0361414
      vertex -3.32996 2.5 -0.169335
      vertex -3.20845 2.5 0.0361414
    endloop
  endfacet
  facet normal 0.860741 0 -0.509043
    outer loop
      vertex -3.32996 2.5 -0.169335
      vertex -3.20845 -2.5 0.0361414
      vertex -3.32996 -2.5 -0.169335
    endloop
  endfacet
  facet normal 0.827081 0 -0.562082
    outer loop
      vertex -3.07426 -2.5 0.233583
      vertex -3.20845 2.5 0.0361414
      vertex -3.07426 2.5 0.233583
    endloop
  endfacet
  facet normal 0.827081 0 -0.562082
    outer loop
      vertex -3.20845 2.5 0.0361414
      vertex -3.07426 -2.5 0.233583
      vertex -3.20845 -2.5 0.0361414
    endloop
  endfacet
endsolid OpenSCAD_Model
