solid OpenSCAD_Model
  facet normal -1 0 0
    outer loop
      vertex -5 -2.5 -2.5
      vertex -5 2.5 2.5
      vertex -5 2.5 -2.5
    endloop
  endfacet
  facet normal -1 -0 0
    outer loop
      vertex -5 2.5 2.5
      vertex -5 -2.5 -2.5
      vertex -5 -2.5 2.5
    endloop
  endfacet
  facet normal -0 0 1
    outer loop
      vertex -5 2.5 2.5
      vertex 5 -2.5 2.5
      vertex 5 2.5 2.5
    endloop
  endfacet
  facet normal 0 0 1
    outer loop
      vertex 5 -2.5 2.5
      vertex -5 2.5 2.5
      vertex -5 -2.5 2.5
    endloop
  endfacet
  facet normal 1 -0 0
    outer loop
      vertex 5 -2.5 2.5
      vertex 5 2.5 -2.5
      vertex 5 2.5 2.5
    endloop
  endfacet
  facet normal 1 0 0
    outer loop
      vertex 5 2.5 -2.5
      vertex 5 -2.5 2.5
      vertex 5 -2.5 -2.5
    endloop
  endfacet
  facet normal 0 1 0
    outer loop
      vertex 5 2.5 2.5
      vertex 0 2.5 0.4
      vertex -5 2.5 2.5
    endloop
  endfacet
  facet normal 0 1 0
    outer loop
      vertex 5 2.5 2.5
      vertex 0.20093 2.5 0.393685
      vertex 0 2.5 0.4
    endloop
  endfacet
  facet normal 0 1 0
    outer loop
      vertex 5 2.5 2.5
      vertex 0.401066 2.5 0.374766
      vertex 0.20093 2.5 0.393685
    endloop
  endfacet
  facet normal 0 1 0
    outer loop
      vertex 5 2.5 2.5
      vertex 0.59962 2.5 0.343319
      vertex 0.401066 2.5 0.374766
    endloop
  endfacet
  facet normal 0 1 0
    outer loop
      vertex 5 2.5 2.5
      vertex 0.795807 2.5 0.299465
      vertex 0.59962 2.5 0.343319
    endloop
  endfacet
  facet normal 0 1 0
    outer loop
      vertex 5 2.5 2.5
      vertex 0.988853 2.5 0.243381
      vertex 0.795807 2.5 0.299465
    endloop
  endfacet
  facet normal 0 1 0
    outer loop
      vertex 5 2.5 2.5
      vertex 1.178 2.5 0.175284
      vertex 0.988853 2.5 0.243381
    endloop
  endfacet
  facet normal 0 1 0
    outer loop
      vertex 5 2.5 2.5
      vertex 1.36249 2.5 0.0954456
      vertex 1.178 2.5 0.175284
    endloop
  endfacet
  facet normal 0 1 0
    outer loop
      vertex 5 2.5 2.5
      vertex 1.54161 2.5 0.00418091
      vertex 1.36249 2.5 0.0954456
    endloop
  endfacet
  facet normal 0 1 0
    outer loop
      vertex 5 2.5 2.5
      vertex 1.71465 2.5 -0.0981503
      vertex 1.54161 2.5 0.00418091
    endloop
  endfacet
  facet normal 0 1 0
    outer loop
      vertex 5 2.5 2.5
      vertex 1.88091 2.5 -0.211145
      vertex 1.71465 2.5 -0.0981503
    endloop
  endfacet
  facet normal 0 1 0
    outer loop
      vertex 5 2.5 2.5
      vertex 2.03976 2.5 -0.334357
      vertex 1.88091 2.5 -0.211145
    endloop
  endfacet
  facet normal 0 1 0
    outer loop
      vertex 5 2.5 2.5
      vertex 2.19055 2.5 -0.467299
      vertex 2.03976 2.5 -0.334357
    endloop
  endfacet
  facet normal 0 1 0
    outer loop
      vertex 5 2.5 2.5
      vertex 2.3327 2.5 -0.609448
      vertex 2.19055 2.5 -0.467299
    endloop
  endfacet
  facet normal 0 1 0
    outer loop
      vertex 5 2.5 2.5
      vertex 2.46564 2.5 -0.760242
      vertex 2.3327 2.5 -0.609448
    endloop
  endfacet
  facet normal 0 1 0
    outer loop
      vertex 5 2.5 2.5
      vertex 2.58885 2.5 -0.919086
      vertex 2.46564 2.5 -0.760242
    endloop
  endfacet
  facet normal 0 1 0
    outer loop
      vertex 5 2.5 2.5
      vertex 2.70185 2.5 -1.08535
      vertex 2.58885 2.5 -0.919086
    endloop
  endfacet
  facet normal 0 1 0
    outer loop
      vertex 5 2.5 2.5
      vertex 2.80418 2.5 -1.25839
      vertex 2.70185 2.5 -1.08535
    endloop
  endfacet
  facet normal 0 1 -0
    outer loop
      vertex 5 2.5 -2.5
      vertex 2.80418 2.5 -1.25839
      vertex 5 2.5 2.5
    endloop
  endfacet
  facet normal 0 1 0
    outer loop
      vertex 2.80418 2.5 -1.25839
      vertex 5 2.5 -2.5
      vertex 2.89545 2.5 -1.43751
    endloop
  endfacet
  facet normal 0 1 0
    outer loop
      vertex 2.89545 2.5 -1.43751
      vertex 5 2.5 -2.5
      vertex 2.97528 2.5 -1.622
    endloop
  endfacet
  facet normal 0 1 0
    outer loop
      vertex 2.97528 2.5 -1.622
      vertex 5 2.5 -2.5
      vertex 3.04338 2.5 -1.81114
    endloop
  endfacet
  facet normal 0 1 0
    outer loop
      vertex 3.04338 2.5 -1.81114
      vertex 5 2.5 -2.5
      vertex 3.09947 2.5 -2.00419
    endloop
  endfacet
  facet normal 0 1 0
    outer loop
      vertex 3.09947 2.5 -2.00419
      vertex 5 2.5 -2.5
      vertex 3.14332 2.5 -2.20038
    endloop
  endfacet
  facet normal 0 1 0
    outer loop
      vertex 3.14332 2.5 -2.20038
      vertex 5 2.5 -2.5
      vertex 3.17477 2.5 -2.39893
    endloop
  endfacet
  facet normal 0 1 0
    outer loop
      vertex 3.17477 2.5 -2.39893
      vertex 5 2.5 -2.5
      vertex 3.18432 2.5 -2.5
    endloop
  endfacet
  facet normal 0 1 -0
    outer loop
      vertex -0.20093 2.5 0.393685
      vertex -5 2.5 2.5
      vertex 0 2.5 0.4
    endloop
  endfacet
  facet normal 0 1 -0
    outer loop
      vertex -0.401066 2.5 0.374766
      vertex -5 2.5 2.5
      vertex -0.20093 2.5 0.393685
    endloop
  endfacet
  facet normal 0 1 -0
    outer loop
      vertex -0.59962 2.5 0.343319
      vertex -5 2.5 2.5
      vertex -0.401066 2.5 0.374766
    endloop
  endfacet
  facet normal 0 1 -0
    outer loop
      vertex -0.795807 2.5 0.299465
      vertex -5 2.5 2.5
      vertex -0.59962 2.5 0.343319
    endloop
  endfacet
  facet normal 0 1 -0
    outer loop
      vertex -0.988853 2.5 0.243381
      vertex -5 2.5 2.5
      vertex -0.795807 2.5 0.299465
    endloop
  endfacet
  facet normal 0 1 -0
    outer loop
      vertex -1.178 2.5 0.175284
      vertex -5 2.5 2.5
      vertex -0.988853 2.5 0.243381
    endloop
  endfacet
  facet normal 0 1 -0
    outer loop
      vertex -1.36249 2.5 0.0954456
      vertex -5 2.5 2.5
      vertex -1.178 2.5 0.175284
    endloop
  endfacet
  facet normal 0 1 -0
    outer loop
      vertex -1.54161 2.5 0.00418091
      vertex -5 2.5 2.5
      vertex -1.36249 2.5 0.0954456
    endloop
  endfacet
  facet normal 0 1 -0
    outer loop
      vertex -1.71465 2.5 -0.0981503
      vertex -5 2.5 2.5
      vertex -1.54161 2.5 0.00418091
    endloop
  endfacet
  facet normal 0 1 -0
    outer loop
      vertex -1.88091 2.5 -0.211145
      vertex -5 2.5 2.5
      vertex -1.71465 2.5 -0.0981503
    endloop
  endfacet
  facet normal 0 1 -0
    outer loop
      vertex -2.03976 2.5 -0.334357
      vertex -5 2.5 2.5
      vertex -1.88091 2.5 -0.211145
    endloop
  endfacet
  facet normal 0 1 -0
    outer loop
      vertex -2.19055 2.5 -0.467299
      vertex -5 2.5 2.5
      vertex -2.03976 2.5 -0.334357
    endloop
  endfacet
  facet normal 0 1 -0
    outer loop
      vertex -2.3327 2.5 -0.609448
      vertex -5 2.5 2.5
      vertex -2.19055 2.5 -0.467299
    endloop
  endfacet
  facet normal 0 1 -0
    outer loop
      vertex -2.46564 2.5 -0.760242
      vertex -5 2.5 2.5
      vertex -2.3327 2.5 -0.609448
    endloop
  endfacet
  facet normal 0 1 -0
    outer loop
      vertex -2.58885 2.5 -0.919086
      vertex -5 2.5 2.5
      vertex -2.46564 2.5 -0.760242
    endloop
  endfacet
  facet normal 0 1 -0
    outer loop
      vertex -2.70185 2.5 -1.08535
      vertex -5 2.5 2.5
      vertex -2.58885 2.5 -0.919086
    endloop
  endfacet
  facet normal 0 1 -0
    outer loop
      vertex -2.80418 2.5 -1.25839
      vertex -5 2.5 2.5
      vertex -2.70185 2.5 -1.08535
    endloop
  endfacet
  facet normal 0 1 0
    outer loop
      vertex -5 2.5 -2.5
      vertex -2.80418 2.5 -1.25839
      vertex -2.89545 2.5 -1.43751
    endloop
  endfacet
  facet normal 0 1 0
    outer loop
      vertex -5 2.5 -2.5
      vertex -2.89545 2.5 -1.43751
      vertex -2.97528 2.5 -1.622
    endloop
  endfacet
  facet normal 0 1 0
    outer loop
      vertex -5 2.5 -2.5
      vertex -2.97528 2.5 -1.622
      vertex -3.04338 2.5 -1.81114
    endloop
  endfacet
  facet normal 0 1 0
    outer loop
      vertex -5 2.5 -2.5
      vertex -3.04338 2.5 -1.81114
      vertex -3.09947 2.5 -2.00419
    endloop
  endfacet
  facet normal 0 1 0
    outer loop
      vertex -5 2.5 -2.5
      vertex -3.09947 2.5 -2.00419
      vertex -3.14332 2.5 -2.20038
    endloop
  endfacet
  facet normal 0 1 0
    outer loop
      vertex -5 2.5 -2.5
      vertex -3.14332 2.5 -2.20038
      vertex -3.17477 2.5 -2.39893
    endloop
  endfacet
  facet normal 0 1 0
    outer loop
      vertex -5 2.5 -2.5
      vertex -3.17477 2.5 -2.39893
      vertex -3.18432 2.5 -2.5
    endloop
  endfacet
  facet normal 0 1 0
    outer loop
      vertex -2.80418 2.5 -1.25839
      vertex -5 2.5 -2.5
      vertex -5 2.5 2.5
    endloop
  endfacet
  facet normal 0 0 -1
    outer loop
      vertex -5 -2.5 -2.5
      vertex -3.18432 2.5 -2.5
      vertex -3.18432 -2.5 -2.5
    endloop
  endfacet
  facet normal -0 0 -1
    outer loop
      vertex -3.18432 2.5 -2.5
      vertex -5 -2.5 -2.5
      vertex -5 2.5 -2.5
    endloop
  endfacet
  facet normal 0 0 -1
    outer loop
      vertex 3.18432 -2.5 -2.5
      vertex 5 2.5 -2.5
      vertex 5 -2.5 -2.5
    endloop
  endfacet
  facet normal -0 0 -1
    outer loop
      vertex 5 2.5 -2.5
      vertex 3.18432 -2.5 -2.5
      vertex 3.18432 2.5 -2.5
    endloop
  endfacet
  facet normal 0 -1 0
    outer loop
      vertex -5 -2.5 2.5
      vertex 0 -2.5 0.4
      vertex 5 -2.5 2.5
    endloop
  endfacet
  facet normal 0 -1 0
    outer loop
      vertex -5 -2.5 2.5
      vertex -0.20093 -2.5 0.393685
      vertex 0 -2.5 0.4
    endloop
  endfacet
  facet normal 0 -1 0
    outer loop
      vertex -5 -2.5 2.5
      vertex -0.401066 -2.5 0.374766
      vertex -0.20093 -2.5 0.393685
    endloop
  endfacet
  facet normal 0 -1 0
    outer loop
      vertex -5 -2.5 2.5
      vertex -0.59962 -2.5 0.343319
      vertex -0.401066 -2.5 0.374766
    endloop
  endfacet
  facet normal 0 -1 0
    outer loop
      vertex -5 -2.5 2.5
      vertex -0.795807 -2.5 0.299465
      vertex -0.59962 -2.5 0.343319
    endloop
  endfacet
  facet normal 0 -1 0
    outer loop
      vertex -5 -2.5 2.5
      vertex -0.988853 -2.5 0.243381
      vertex -0.795807 -2.5 0.299465
    endloop
  endfacet
  facet normal 0 -1 0
    outer loop
      vertex -5 -2.5 2.5
      vertex -1.178 -2.5 0.175284
      vertex -0.988853 -2.5 0.243381
    endloop
  endfacet
  facet normal 0 -1 0
    outer loop
      vertex -5 -2.5 2.5
      vertex -1.36249 -2.5 0.0954456
      vertex -1.178 -2.5 0.175284
    endloop
  endfacet
  facet normal 0 -1 0
    outer loop
      vertex -5 -2.5 2.5
      vertex -1.54161 -2.5 0.00418091
      vertex -1.36249 -2.5 0.0954456
    endloop
  endfacet
  facet normal 0 -1 0
    outer loop
      vertex -5 -2.5 2.5
      vertex -1.71465 -2.5 -0.0981503
      vertex -1.54161 -2.5 0.00418091
    endloop
  endfacet
  facet normal 0 -1 0
    outer loop
      vertex -5 -2.5 2.5
      vertex -1.88091 -2.5 -0.211145
      vertex -1.71465 -2.5 -0.0981503
    endloop
  endfacet
  facet normal 0 -1 0
    outer loop
      vertex -5 -2.5 2.5
      vertex -2.03976 -2.5 -0.334357
      vertex -1.88091 -2.5 -0.211145
    endloop
  endfacet
  facet normal 0 -1 0
    outer loop
      vertex -5 -2.5 2.5
      vertex -2.19055 -2.5 -0.467299
      vertex -2.03976 -2.5 -0.334357
    endloop
  endfacet
  facet normal 0 -1 0
    outer loop
      vertex -5 -2.5 2.5
      vertex -2.3327 -2.5 -0.609448
      vertex -2.19055 -2.5 -0.467299
    endloop
  endfacet
  facet normal 0 -1 0
    outer loop
      vertex -5 -2.5 2.5
      vertex -2.46564 -2.5 -0.760242
      vertex -2.3327 -2.5 -0.609448
    endloop
  endfacet
  facet normal 0 -1 0
    outer loop
      vertex -5 -2.5 2.5
      vertex -2.58885 -2.5 -0.919086
      vertex -2.46564 -2.5 -0.760242
    endloop
  endfacet
  facet normal 0 -1 0
    outer loop
      vertex -5 -2.5 2.5
      vertex -2.70185 -2.5 -1.08535
      vertex -2.58885 -2.5 -0.919086
    endloop
  endfacet
  facet normal 0 -1 0
    outer loop
      vertex -5 -2.5 2.5
      vertex -2.80418 -2.5 -1.25839
      vertex -2.70185 -2.5 -1.08535
    endloop
  endfacet
  facet normal 0 -1 0
    outer loop
      vertex -5 -2.5 -2.5
      vertex -2.80418 -2.5 -1.25839
      vertex -5 -2.5 2.5
    endloop
  endfacet
  facet normal 0 -1 0
    outer loop
      vertex -2.80418 -2.5 -1.25839
      vertex -5 -2.5 -2.5
      vertex -2.89545 -2.5 -1.43751
    endloop
  endfacet
  facet normal 0 -1 0
    outer loop
      vertex -2.89545 -2.5 -1.43751
      vertex -5 -2.5 -2.5
      vertex -2.97528 -2.5 -1.622
    endloop
  endfacet
  facet normal 0 -1 0
    outer loop
      vertex -2.97528 -2.5 -1.622
      vertex -5 -2.5 -2.5
      vertex -3.04338 -2.5 -1.81114
    endloop
  endfacet
  facet normal 0 -1 0
    outer loop
      vertex -3.04338 -2.5 -1.81114
      vertex -5 -2.5 -2.5
      vertex -3.09947 -2.5 -2.00419
    endloop
  endfacet
  facet normal 0 -1 0
    outer loop
      vertex -3.09947 -2.5 -2.00419
      vertex -5 -2.5 -2.5
      vertex -3.14332 -2.5 -2.20038
    endloop
  endfacet
  facet normal 0 -1 0
    outer loop
      vertex -3.14332 -2.5 -2.20038
      vertex -5 -2.5 -2.5
      vertex -3.17477 -2.5 -2.39893
    endloop
  endfacet
  facet normal 0 -1 0
    outer loop
      vertex -3.17477 -2.5 -2.39893
      vertex -5 -2.5 -2.5
      vertex -3.18432 -2.5 -2.5
    endloop
  endfacet
  facet normal 0 -1 0
    outer loop
      vertex 0.20093 -2.5 0.393685
      vertex 5 -2.5 2.5
      vertex 0 -2.5 0.4
    endloop
  endfacet
  facet normal 0 -1 0
    outer loop
      vertex 0.401066 -2.5 0.374766
      vertex 5 -2.5 2.5
      vertex 0.20093 -2.5 0.393685
    endloop
  endfacet
  facet normal 0 -1 0
    outer loop
      vertex 0.59962 -2.5 0.343319
      vertex 5 -2.5 2.5
      vertex 0.401066 -2.5 0.374766
    endloop
  endfacet
  facet normal 0 -1 0
    outer loop
      vertex 0.795807 -2.5 0.299465
      vertex 5 -2.5 2.5
      vertex 0.59962 -2.5 0.343319
    endloop
  endfacet
  facet normal 0 -1 0
    outer loop
      vertex 0.988853 -2.5 0.243381
      vertex 5 -2.5 2.5
      vertex 0.795807 -2.5 0.299465
    endloop
  endfacet
  facet normal 0 -1 0
    outer loop
      vertex 1.178 -2.5 0.175284
      vertex 5 -2.5 2.5
      vertex 0.988853 -2.5 0.243381
    endloop
  endfacet
  facet normal 0 -1 0
    outer loop
      vertex 1.36249 -2.5 0.0954456
      vertex 5 -2.5 2.5
      vertex 1.178 -2.5 0.175284
    endloop
  endfacet
  facet normal 0 -1 0
    outer loop
      vertex 1.54161 -2.5 0.00418091
      vertex 5 -2.5 2.5
      vertex 1.36249 -2.5 0.0954456
    endloop
  endfacet
  facet normal 0 -1 0
    outer loop
      vertex 1.71465 -2.5 -0.0981503
      vertex 5 -2.5 2.5
      vertex 1.54161 -2.5 0.00418091
    endloop
  endfacet
  facet normal 0 -1 0
    outer loop
      vertex 1.88091 -2.5 -0.211145
      vertex 5 -2.5 2.5
      vertex 1.71465 -2.5 -0.0981503
    endloop
  endfacet
  facet normal 0 -1 0
    outer loop
      vertex 2.03976 -2.5 -0.334357
      vertex 5 -2.5 2.5
      vertex 1.88091 -2.5 -0.211145
    endloop
  endfacet
  facet normal 0 -1 0
    outer loop
      vertex 2.19055 -2.5 -0.467299
      vertex 5 -2.5 2.5
      vertex 2.03976 -2.5 -0.334357
    endloop
  endfacet
  facet normal 0 -1 0
    outer loop
      vertex 2.3327 -2.5 -0.609448
      vertex 5 -2.5 2.5
      vertex 2.19055 -2.5 -0.467299
    endloop
  endfacet
  facet normal 0 -1 0
    outer loop
      vertex 2.46564 -2.5 -0.760242
      vertex 5 -2.5 2.5
      vertex 2.3327 -2.5 -0.609448
    endloop
  endfacet
  facet normal 0 -1 0
    outer loop
      vertex 2.58885 -2.5 -0.919086
      vertex 5 -2.5 2.5
      vertex 2.46564 -2.5 -0.760242
    endloop
  endfacet
  facet normal 0 -1 0
    outer loop
      vertex 2.70185 -2.5 -1.08535
      vertex 5 -2.5 2.5
      vertex 2.58885 -2.5 -0.919086
    endloop
  endfacet
  facet normal 0 -1 0
    outer loop
      vertex 2.80418 -2.5 -1.25839
      vertex 5 -2.5 2.5
      vertex 2.70185 -2.5 -1.08535
    endloop
  endfacet
  facet normal 0 -1 0
    outer loop
      vertex 5 -2.5 -2.5
      vertex 2.80418 -2.5 -1.25839
      vertex 2.89545 -2.5 -1.43751
    endloop
  endfacet
  facet normal 0 -1 0
    outer loop
      vertex 5 -2.5 -2.5
      vertex 2.89545 -2.5 -1.43751
      vertex 2.97528 -2.5 -1.622
    endloop
  endfacet
  facet normal 0 -1 0
    outer loop
      vertex 5 -2.5 -2.5
      vertex 2.97528 -2.5 -1.622
      vertex 3.04338 -2.5 -1.81114
    endloop
  endfacet
  facet normal 0 -1 0
    outer loop
      vertex 5 -2.5 -2.5
      vertex 3.04338 -2.5 -1.81114
      vertex 3.09947 -2.5 -2.00419
    endloop
  endfacet
  facet normal 0 -1 0
    outer loop
      vertex 5 -2.5 -2.5
      vertex 3.09947 -2.5 -2.00419
      vertex 3.14332 -2.5 -2.20038
    endloop
  endfacet
  facet normal 0 -1 0
    outer loop
      vertex 5 -2.5 -2.5
      vertex 3.14332 -2.5 -2.20038
      vertex 3.17477 -2.5 -2.39893
    endloop
  endfacet
  facet normal 0 -1 0
    outer loop
      vertex 5 -2.5 -2.5
      vertex 3.17477 -2.5 -2.39893
      vertex 3.18432 -2.5 -2.5
    endloop
  endfacet
  facet normal 0 -1 0
    outer loop
      vertex 2.80418 -2.5 -1.25839
      vertex 5 -2.5 -2.5
      vertex 5 -2.5 2.5
    endloop
  endfacet
  facet normal -0.975916 0 -0.218147
    outer loop
      vertex 3.14332 -2.5 -2.20038
      vertex 3.09947 2.5 -2.00419
      vertex 3.14332 2.5 -2.20038
    endloop
  endfacet
  facet normal -0.975916 -0 -0.218147
    outer loop
      vertex 3.09947 2.5 -2.00419
      vertex 3.14332 -2.5 -2.20038
      vertex 3.09947 -2.5 -2.00419
    endloop
  endfacet
  facet normal -0.995562 0 -0.0941066
    outer loop
      vertex 3.18432 -2.5 -2.5
      vertex 3.17477 2.5 -2.39893
      vertex 3.18432 2.5 -2.5
    endloop
  endfacet
  facet normal -0.995562 -0 -0.0941066
    outer loop
      vertex 3.17477 2.5 -2.39893
      vertex 3.18432 -2.5 -2.5
      vertex 3.17477 -2.5 -2.39893
    endloop
  endfacet
  facet normal 0.0314098 0 -0.999507
    outer loop
      vertex -0.20093 -2.5 0.393685
      vertex 0 2.5 0.4
      vertex 0 -2.5 0.4
    endloop
  endfacet
  facet normal 0.0314098 0 -0.999507
    outer loop
      vertex 0 2.5 0.4
      vertex -0.20093 -2.5 0.393685
      vertex -0.20093 2.5 0.393685
    endloop
  endfacet
  facet normal -0.987689 0 -0.156432
    outer loop
      vertex 3.17477 -2.5 -2.39893
      vertex 3.14332 2.5 -2.20038
      vertex 3.17477 2.5 -2.39893
    endloop
  endfacet
  facet normal -0.987689 -0 -0.156432
    outer loop
      vertex 3.14332 2.5 -2.20038
      vertex 3.17477 -2.5 -2.39893
      vertex 3.14332 -2.5 -2.20038
    endloop
  endfacet
  facet normal -0.0314098 0 -0.999507
    outer loop
      vertex 0 -2.5 0.4
      vertex 0.20093 2.5 0.393685
      vertex 0.20093 -2.5 0.393685
    endloop
  endfacet
  facet normal -0.0314098 0 -0.999507
    outer loop
      vertex 0.20093 2.5 0.393685
      vertex 0 -2.5 0.4
      vertex 0 2.5 0.4
    endloop
  endfacet
  facet normal -0.156432 0 -0.987689
    outer loop
      vertex 0.401066 -2.5 0.374766
      vertex 0.59962 2.5 0.343319
      vertex 0.59962 -2.5 0.343319
    endloop
  endfacet
  facet normal -0.156432 0 -0.987689
    outer loop
      vertex 0.59962 2.5 0.343319
      vertex 0.401066 -2.5 0.374766
      vertex 0.401066 2.5 0.374766
    endloop
  endfacet
  facet normal 0.995562 0 -0.0941066
    outer loop
      vertex -3.17477 -2.5 -2.39893
      vertex -3.18432 2.5 -2.5
      vertex -3.17477 2.5 -2.39893
    endloop
  endfacet
  facet normal 0.995562 0 -0.0941066
    outer loop
      vertex -3.18432 2.5 -2.5
      vertex -3.17477 -2.5 -2.39893
      vertex -3.18432 -2.5 -2.5
    endloop
  endfacet
  facet normal 0.975916 0 -0.218147
    outer loop
      vertex -3.09947 -2.5 -2.00419
      vertex -3.14332 2.5 -2.20038
      vertex -3.09947 2.5 -2.00419
    endloop
  endfacet
  facet normal 0.975916 0 -0.218147
    outer loop
      vertex -3.14332 2.5 -2.20038
      vertex -3.09947 -2.5 -2.00419
      vertex -3.14332 -2.5 -2.20038
    endloop
  endfacet
  facet normal -0.917753 0 -0.397151
    outer loop
      vertex 2.97528 -2.5 -1.622
      vertex 2.89545 2.5 -1.43751
      vertex 2.97528 2.5 -1.622
    endloop
  endfacet
  facet normal -0.917753 -0 -0.397151
    outer loop
      vertex 2.89545 2.5 -1.43751
      vertex 2.97528 -2.5 -1.622
      vertex 2.89545 -2.5 -1.43751
    endloop
  endfacet
  facet normal 0.397151 0 -0.917753
    outer loop
      vertex -1.36249 -2.5 0.0954456
      vertex -1.178 2.5 0.175284
      vertex -1.178 -2.5 0.175284
    endloop
  endfacet
  facet normal 0.397151 0 -0.917753
    outer loop
      vertex -1.178 2.5 0.175284
      vertex -1.36249 -2.5 0.0954456
      vertex -1.36249 2.5 0.0954456
    endloop
  endfacet
  facet normal -0.338737 0 -0.940881
    outer loop
      vertex 0.988853 -2.5 0.243381
      vertex 1.178 2.5 0.175284
      vertex 1.178 -2.5 0.175284
    endloop
  endfacet
  facet normal -0.338737 0 -0.940881
    outer loop
      vertex 1.178 2.5 0.175284
      vertex 0.988853 -2.5 0.243381
      vertex 0.988853 2.5 0.243381
    endloop
  endfacet
  facet normal 0.987689 0 -0.156432
    outer loop
      vertex -3.14332 -2.5 -2.20038
      vertex -3.17477 2.5 -2.39893
      vertex -3.14332 2.5 -2.20038
    endloop
  endfacet
  facet normal 0.987689 0 -0.156432
    outer loop
      vertex -3.17477 2.5 -2.39893
      vertex -3.14332 -2.5 -2.20038
      vertex -3.17477 -2.5 -2.39893
    endloop
  endfacet
  facet normal 0.940881 0 -0.338738
    outer loop
      vertex -2.97528 -2.5 -1.622
      vertex -3.04338 2.5 -1.81114
      vertex -2.97528 2.5 -1.622
    endloop
  endfacet
  facet normal 0.940881 0 -0.338738
    outer loop
      vertex -3.04338 2.5 -1.81114
      vertex -2.97528 -2.5 -1.622
      vertex -3.04338 -2.5 -1.81114
    endloop
  endfacet
  facet normal -0.562083 0 -0.827081
    outer loop
      vertex 1.71465 -2.5 -0.0981503
      vertex 1.88091 2.5 -0.211145
      vertex 1.88091 -2.5 -0.211145
    endloop
  endfacet
  facet normal -0.562083 0 -0.827081
    outer loop
      vertex 1.88091 2.5 -0.211145
      vertex 1.71465 -2.5 -0.0981503
      vertex 1.71465 2.5 -0.0981503
    endloop
  endfacet
  facet normal -0.827081 0 -0.562083
    outer loop
      vertex 2.70185 -2.5 -1.08535
      vertex 2.58885 2.5 -0.919086
      vertex 2.70185 2.5 -1.08535
    endloop
  endfacet
  facet normal -0.827081 -0 -0.562083
    outer loop
      vertex 2.58885 2.5 -0.919086
      vertex 2.70185 -2.5 -1.08535
      vertex 2.58885 -2.5 -0.919086
    endloop
  endfacet
  facet normal -0.790155 0 -0.612907
    outer loop
      vertex 2.58885 -2.5 -0.919086
      vertex 2.46564 2.5 -0.760242
      vertex 2.58885 2.5 -0.919086
    endloop
  endfacet
  facet normal -0.790155 -0 -0.612907
    outer loop
      vertex 2.46564 2.5 -0.760242
      vertex 2.58885 -2.5 -0.919086
      vertex 2.46564 -2.5 -0.760242
    endloop
  endfacet
  facet normal -0.891008 0 -0.453988
    outer loop
      vertex 2.89545 -2.5 -1.43751
      vertex 2.80418 2.5 -1.25839
      vertex 2.89545 2.5 -1.43751
    endloop
  endfacet
  facet normal -0.891008 -0 -0.453988
    outer loop
      vertex 2.80418 2.5 -1.25839
      vertex 2.89545 -2.5 -1.43751
      vertex 2.80418 -2.5 -1.25839
    endloop
  endfacet
  facet normal -0.960295 0 -0.278987
    outer loop
      vertex 3.09947 -2.5 -2.00419
      vertex 3.04338 2.5 -1.81114
      vertex 3.09947 2.5 -2.00419
    endloop
  endfacet
  facet normal -0.960295 -0 -0.278987
    outer loop
      vertex 3.04338 2.5 -1.81114
      vertex 3.09947 -2.5 -2.00419
      vertex 3.04338 -2.5 -1.81114
    endloop
  endfacet
  facet normal 0.562083 0 -0.827081
    outer loop
      vertex -1.88091 -2.5 -0.211145
      vertex -1.71465 2.5 -0.0981503
      vertex -1.71465 -2.5 -0.0981503
    endloop
  endfacet
  facet normal 0.562083 0 -0.827081
    outer loop
      vertex -1.71465 2.5 -0.0981503
      vertex -1.88091 -2.5 -0.211145
      vertex -1.88091 2.5 -0.211145
    endloop
  endfacet
  facet normal 0.66131 0 -0.750113
    outer loop
      vertex -2.19055 -2.5 -0.467299
      vertex -2.03976 2.5 -0.334357
      vertex -2.03976 -2.5 -0.334357
    endloop
  endfacet
  facet normal 0.66131 0 -0.750113
    outer loop
      vertex -2.03976 2.5 -0.334357
      vertex -2.19055 -2.5 -0.467299
      vertex -2.19055 2.5 -0.467299
    endloop
  endfacet
  facet normal 0.218147 0 -0.975916
    outer loop
      vertex -0.795807 -2.5 0.299465
      vertex -0.59962 2.5 0.343319
      vertex -0.59962 -2.5 0.343319
    endloop
  endfacet
  facet normal 0.218147 0 -0.975916
    outer loop
      vertex -0.59962 2.5 0.343319
      vertex -0.795807 -2.5 0.299465
      vertex -0.795807 2.5 0.299465
    endloop
  endfacet
  facet normal 0.707107 0 -0.707107
    outer loop
      vertex -2.19055 -2.5 -0.467299
      vertex -2.3327 2.5 -0.609448
      vertex -2.19055 2.5 -0.467299
    endloop
  endfacet
  facet normal 0.707107 0 -0.707107
    outer loop
      vertex -2.3327 2.5 -0.609448
      vertex -2.19055 -2.5 -0.467299
      vertex -2.3327 -2.5 -0.609448
    endloop
  endfacet
  facet normal 0.960295 0 -0.278987
    outer loop
      vertex -3.04338 -2.5 -1.81114
      vertex -3.09947 2.5 -2.00419
      vertex -3.04338 2.5 -1.81114
    endloop
  endfacet
  facet normal 0.960295 0 -0.278987
    outer loop
      vertex -3.09947 2.5 -2.00419
      vertex -3.04338 -2.5 -1.81114
      vertex -3.09947 -2.5 -2.00419
    endloop
  endfacet
  facet normal 0.156432 0 -0.987689
    outer loop
      vertex -0.59962 -2.5 0.343319
      vertex -0.401066 2.5 0.374766
      vertex -0.401066 -2.5 0.374766
    endloop
  endfacet
  facet normal 0.156432 0 -0.987689
    outer loop
      vertex -0.401066 2.5 0.374766
      vertex -0.59962 -2.5 0.343319
      vertex -0.59962 2.5 0.343319
    endloop
  endfacet
  facet normal 0.094111 0 -0.995562
    outer loop
      vertex -0.401066 -2.5 0.374766
      vertex -0.20093 2.5 0.393685
      vertex -0.20093 -2.5 0.393685
    endloop
  endfacet
  facet normal 0.094111 0 -0.995562
    outer loop
      vertex -0.20093 2.5 0.393685
      vertex -0.401066 -2.5 0.374766
      vertex -0.401066 2.5 0.374766
    endloop
  endfacet
  facet normal -0.612909 0 -0.790154
    outer loop
      vertex 1.88091 -2.5 -0.211145
      vertex 2.03976 2.5 -0.334357
      vertex 2.03976 -2.5 -0.334357
    endloop
  endfacet
  facet normal -0.612909 0 -0.790154
    outer loop
      vertex 2.03976 2.5 -0.334357
      vertex 1.88091 -2.5 -0.211145
      vertex 1.88091 2.5 -0.211145
    endloop
  endfacet
  facet normal -0.509039 0 -0.860744
    outer loop
      vertex 1.54161 -2.5 0.00418091
      vertex 1.71465 2.5 -0.0981503
      vertex 1.71465 -2.5 -0.0981503
    endloop
  endfacet
  facet normal -0.509039 0 -0.860744
    outer loop
      vertex 1.71465 2.5 -0.0981503
      vertex 1.54161 -2.5 0.00418091
      vertex 1.54161 2.5 0.00418091
    endloop
  endfacet
  facet normal 0.453988 0 -0.891008
    outer loop
      vertex -1.54161 -2.5 0.00418091
      vertex -1.36249 2.5 0.0954456
      vertex -1.36249 -2.5 0.0954456
    endloop
  endfacet
  facet normal 0.453988 0 -0.891008
    outer loop
      vertex -1.36249 2.5 0.0954456
      vertex -1.54161 -2.5 0.00418091
      vertex -1.54161 2.5 0.00418091
    endloop
  endfacet
  facet normal 0.612909 0 -0.790154
    outer loop
      vertex -2.03976 -2.5 -0.334357
      vertex -1.88091 2.5 -0.211145
      vertex -1.88091 -2.5 -0.211145
    endloop
  endfacet
  facet normal 0.612909 0 -0.790154
    outer loop
      vertex -1.88091 2.5 -0.211145
      vertex -2.03976 -2.5 -0.334357
      vertex -2.03976 2.5 -0.334357
    endloop
  endfacet
  facet normal 0.338737 0 -0.940881
    outer loop
      vertex -1.178 -2.5 0.175284
      vertex -0.988853 2.5 0.243381
      vertex -0.988853 -2.5 0.243381
    endloop
  endfacet
  facet normal 0.338737 0 -0.940881
    outer loop
      vertex -0.988853 2.5 0.243381
      vertex -1.178 -2.5 0.175284
      vertex -1.178 2.5 0.175284
    endloop
  endfacet
  facet normal -0.094111 0 -0.995562
    outer loop
      vertex 0.20093 -2.5 0.393685
      vertex 0.401066 2.5 0.374766
      vertex 0.401066 -2.5 0.374766
    endloop
  endfacet
  facet normal -0.094111 0 -0.995562
    outer loop
      vertex 0.401066 2.5 0.374766
      vertex 0.20093 -2.5 0.393685
      vertex 0.20093 2.5 0.393685
    endloop
  endfacet
  facet normal -0.218147 0 -0.975916
    outer loop
      vertex 0.59962 -2.5 0.343319
      vertex 0.795807 2.5 0.299465
      vertex 0.795807 -2.5 0.299465
    endloop
  endfacet
  facet normal -0.218147 0 -0.975916
    outer loop
      vertex 0.795807 2.5 0.299465
      vertex 0.59962 -2.5 0.343319
      vertex 0.59962 2.5 0.343319
    endloop
  endfacet
  facet normal 0.790155 0 -0.612907
    outer loop
      vertex -2.46564 -2.5 -0.760242
      vertex -2.58885 2.5 -0.919086
      vertex -2.46564 2.5 -0.760242
    endloop
  endfacet
  facet normal 0.790155 0 -0.612907
    outer loop
      vertex -2.58885 2.5 -0.919086
      vertex -2.46564 -2.5 -0.760242
      vertex -2.58885 -2.5 -0.919086
    endloop
  endfacet
  facet normal 0.75011 0 -0.661313
    outer loop
      vertex -2.3327 -2.5 -0.609448
      vertex -2.46564 2.5 -0.760242
      vertex -2.3327 2.5 -0.609448
    endloop
  endfacet
  facet normal 0.75011 0 -0.661313
    outer loop
      vertex -2.46564 2.5 -0.760242
      vertex -2.3327 -2.5 -0.609448
      vertex -2.46564 -2.5 -0.760242
    endloop
  endfacet
  facet normal 0.917753 0 -0.397151
    outer loop
      vertex -2.89545 -2.5 -1.43751
      vertex -2.97528 2.5 -1.622
      vertex -2.89545 2.5 -1.43751
    endloop
  endfacet
  facet normal 0.917753 0 -0.397151
    outer loop
      vertex -2.97528 2.5 -1.622
      vertex -2.89545 -2.5 -1.43751
      vertex -2.97528 -2.5 -1.622
    endloop
  endfacet
  facet normal -0.397151 0 -0.917753
    outer loop
      vertex 1.178 -2.5 0.175284
      vertex 1.36249 2.5 0.0954456
      vertex 1.36249 -2.5 0.0954456
    endloop
  endfacet
  facet normal -0.397151 0 -0.917753
    outer loop
      vertex 1.36249 2.5 0.0954456
      vertex 1.178 -2.5 0.175284
      vertex 1.178 2.5 0.175284
    endloop
  endfacet
  facet normal -0.860741 0 -0.509042
    outer loop
      vertex 2.80418 -2.5 -1.25839
      vertex 2.70185 2.5 -1.08535
      vertex 2.80418 2.5 -1.25839
    endloop
  endfacet
  facet normal -0.860741 -0 -0.509042
    outer loop
      vertex 2.70185 2.5 -1.08535
      vertex 2.80418 -2.5 -1.25839
      vertex 2.70185 -2.5 -1.08535
    endloop
  endfacet
  facet normal -0.940881 0 -0.338738
    outer loop
      vertex 3.04338 -2.5 -1.81114
      vertex 2.97528 2.5 -1.622
      vertex 3.04338 2.5 -1.81114
    endloop
  endfacet
  facet normal -0.940881 -0 -0.338738
    outer loop
      vertex 2.97528 2.5 -1.622
      vertex 3.04338 -2.5 -1.81114
      vertex 2.97528 -2.5 -1.622
    endloop
  endfacet
  facet normal -0.75011 0 -0.661313
    outer loop
      vertex 2.46564 -2.5 -0.760242
      vertex 2.3327 2.5 -0.609448
      vertex 2.46564 2.5 -0.760242
    endloop
  endfacet
  facet normal -0.75011 -0 -0.661313
    outer loop
      vertex 2.3327 2.5 -0.609448
      vertex 2.46564 -2.5 -0.760242
      vertex 2.3327 -2.5 -0.609448
    endloop
  endfacet
  facet normal -0.707107 0 -0.707107
    outer loop
      vertex 2.3327 -2.5 -0.609448
      vertex 2.19055 2.5 -0.467299
      vertex 2.3327 2.5 -0.609448
    endloop
  endfacet
  facet normal -0.707107 -0 -0.707107
    outer loop
      vertex 2.19055 2.5 -0.467299
      vertex 2.3327 -2.5 -0.609448
      vertex 2.19055 -2.5 -0.467299
    endloop
  endfacet
  facet normal -0.66131 0 -0.750113
    outer loop
      vertex 2.03976 -2.5 -0.334357
      vertex 2.19055 2.5 -0.467299
      vertex 2.19055 -2.5 -0.467299
    endloop
  endfacet
  facet normal -0.66131 0 -0.750113
    outer loop
      vertex 2.19055 2.5 -0.467299
      vertex 2.03976 -2.5 -0.334357
      vertex 2.03976 2.5 -0.334357
    endloop
  endfacet
  facet normal 0.509039 0 -0.860744
    outer loop
      vertex -1.71465 -2.5 -0.0981503
      vertex -1.54161 2.5 0.00418091
      vertex -1.54161 -2.5 0.00418091
    endloop
  endfacet
  facet normal 0.509039 0 -0.860744
    outer loop
      vertex -1.54161 2.5 0.00418091
      vertex -1.71465 -2.5 -0.0981503
      vertex -1.71465 2.5 -0.0981503
    endloop
  endfacet
  facet normal -0.278988 0 -0.960294
    outer loop
      vertex 0.795807 -2.5 0.299465
      vertex 0.988853 2.5 0.243381
      vertex 0.988853 -2.5 0.243381
    endloop
  endfacet
  facet normal -0.278988 0 -0.960294
    outer loop
      vertex 0.988853 2.5 0.243381
      vertex 0.795807 -2.5 0.299465
      vertex 0.795807 2.5 0.299465
    endloop
  endfacet
  facet normal 0.827081 0 -0.562083
    outer loop
      vertex -2.58885 -2.5 -0.919086
      vertex -2.70185 2.5 -1.08535
      vertex -2.58885 2.5 -0.919086
    endloop
  endfacet
  facet normal 0.827081 0 -0.562083
    outer loop
      vertex -2.70185 2.5 -1.08535
      vertex -2.58885 -2.5 -0.919086
      vertex -2.70185 -2.5 -1.08535
    endloop
  endfacet
  facet normal 0.860741 0 -0.509042
    outer loop
      vertex -2.70185 -2.5 -1.08535
      vertex -2.80418 2.5 -1.25839
      vertex -2.70185 2.5 -1.08535
    endloop
  endfacet
  facet normal 0.860741 0 -0.509042
    outer loop
      vertex -2.80418 2.5 -1.25839
      vertex -2.70185 -2.5 -1.08535
      vertex -2.80418 -2.5 -1.25839
    endloop
  endfacet
  facet normal 0.891008 0 -0.453988
    outer loop
      vertex -2.80418 -2.5 -1.25839
      vertex -2.89545 2.5 -1.43751
      vertex -2.80418 2.5 -1.25839
    endloop
  endfacet
  facet normal 0.891008 0 -0.453988
    outer loop
      vertex -2.89545 2.5 -1.43751
      vertex -2.80418 -2.5 -1.25839
      vertex -2.89545 -2.5 -1.43751
    endloop
  endfacet
  facet normal -0.453988 0 -0.891008
    outer loop
      vertex 1.36249 -2.5 0.0954456
      vertex 1.54161 2.5 0.00418091
      vertex 1.54161 -2.5 0.00418091
    endloop
  endfacet
  facet normal -0.453988 0 -0.891008
    outer loop
      vertex 1.54161 2.5 0.00418091
      vertex 1.36249 -2.5 0.0954456
      vertex 1.36249 2.5 0.0954456
    endloop
  endfacet
  facet normal 0.278988 0 -0.960294
    outer loop
      vertex -0.988853 -2.5 0.243381
      vertex -0.795807 2.5 0.299465
      vertex -0.795807 -2.5 0.299465
    endloop
  endfacet
  facet normal 0.278988 0 -0.960294
    outer loop
      vertex -0.795807 2.5 0.299465
      vertex -0.988853 -2.5 0.243381
      vertex -0.988853 2.5 0.243381
    endloop
  endfacet
endsolid OpenSCAD_Model
