solid OpenSCAD_Model
  facet normal -1 0 0
    outer loop
      vertex -5 -2.5 -2.5
      vertex -5 2.5 2.5
      vertex -5 2.5 -2.5
    endloop
  endfacet
  facet normal -1 -0 0
    outer loop
      vertex -5 2.5 2.5
      vertex -5 -2.5 -2.5
      vertex -5 -2.5 2.5
    endloop
  endfacet
  facet normal -0 0 1
    outer loop
      vertex -5 2.5 2.5
      vertex 5 -2.5 2.5
      vertex 5 2.5 2.5
    endloop
  endfacet
  facet normal 0 0 1
    outer loop
      vertex 5 -2.5 2.5
      vertex -5 2.5 2.5
      vertex -5 -2.5 2.5
    endloop
  endfacet
  facet normal 1 -0 0
    outer loop
      vertex 5 -2.5 2.5
      vertex 5 2.5 -2.5
      vertex 5 2.5 2.5
    endloop
  endfacet
  facet normal 1 0 0
    outer loop
      vertex 5 2.5 -2.5
      vertex 5 -2.5 2.5
      vertex 5 -2.5 -2.5
    endloop
  endfacet
  facet normal 0 1 0
    outer loop
      vertex 5 2.5 2.5
      vertex 0 2.5 1.2
      vertex -5 2.5 2.5
    endloop
  endfacet
  facet normal 0 1 0
    outer loop
      vertex 5 2.5 2.5
      vertex 0.251162 2.5 1.19211
      vertex 0 2.5 1.2
    endloop
  endfacet
  facet normal 0 1 0
    outer loop
      vertex 5 2.5 2.5
      vertex 0.501332 2.5 1.16846
      vertex 0.251162 2.5 1.19211
    endloop
  endfacet
  facet normal 0 1 0
    outer loop
      vertex 5 2.5 2.5
      vertex 0.749525 2.5 1.12915
      vertex 0.501332 2.5 1.16846
    endloop
  endfacet
  facet normal 0 1 0
    outer loop
      vertex 5 2.5 2.5
      vertex 0.994759 2.5 1.07433
      vertex 0.749525 2.5 1.12915
    endloop
  endfacet
  facet normal 0 1 0
    outer loop
      vertex 5 2.5 2.5
      vertex 1.23607 2.5 1.00423
      vertex 0.994759 2.5 1.07433
    endloop
  endfacet
  facet normal 0 1 0
    outer loop
      vertex 5 2.5 2.5
      vertex 1.4725 2.5 0.919106
      vertex 1.23607 2.5 1.00423
    endloop
  endfacet
  facet normal 0 1 0
    outer loop
      vertex 5 2.5 2.5
      vertex 1.70312 2.5 0.819307
      vertex 1.4725 2.5 0.919106
    endloop
  endfacet
  facet normal 0 1 0
    outer loop
      vertex 5 2.5 2.5
      vertex 1.92701 2.5 0.705226
      vertex 1.70312 2.5 0.819307
    endloop
  endfacet
  facet normal 0 1 0
    outer loop
      vertex 5 2.5 2.5
      vertex 2.14331 2.5 0.577312
      vertex 1.92701 2.5 0.705226
    endloop
  endfacet
  facet normal 0 1 0
    outer loop
      vertex 5 2.5 2.5
      vertex 2.35114 2.5 0.436068
      vertex 2.14331 2.5 0.577312
    endloop
  endfacet
  facet normal 0 1 0
    outer loop
      vertex 5 2.5 2.5
      vertex 2.5497 2.5 0.282052
      vertex 2.35114 2.5 0.436068
    endloop
  endfacet
  facet normal 0 1 0
    outer loop
      vertex 5 2.5 2.5
      vertex 2.73819 2.5 0.115874
      vertex 2.5497 2.5 0.282052
    endloop
  endfacet
  facet normal 0 1 0
    outer loop
      vertex 5 2.5 2.5
      vertex 2.91587 2.5 -0.0618114
      vertex 2.73819 2.5 0.115874
    endloop
  endfacet
  facet normal 0 1 0
    outer loop
      vertex 5 2.5 2.5
      vertex 3.08205 2.5 -0.250303
      vertex 2.91587 2.5 -0.0618114
    endloop
  endfacet
  facet normal 0 1 0
    outer loop
      vertex 5 2.5 2.5
      vertex 3.23607 2.5 -0.448858
      vertex 3.08205 2.5 -0.250303
    endloop
  endfacet
  facet normal 0 1 0
    outer loop
      vertex 5 2.5 2.5
      vertex 3.37731 2.5 -0.656693
      vertex 3.23607 2.5 -0.448858
    endloop
  endfacet
  facet normal 0 1 0
    outer loop
      vertex 5 2.5 2.5
      vertex 3.50523 2.5 -0.872985
      vertex 3.37731 2.5 -0.656693
    endloop
  endfacet
  facet normal 0 1 0
    outer loop
      vertex 5 2.5 2.5
      vertex 3.61931 2.5 -1.09688
      vertex 3.50523 2.5 -0.872985
    endloop
  endfacet
  facet normal 0 1 -0
    outer loop
      vertex 5 2.5 -2.5
      vertex 3.61931 2.5 -1.09688
      vertex 5 2.5 2.5
    endloop
  endfacet
  facet normal 0 1 0
    outer loop
      vertex 3.61931 2.5 -1.09688
      vertex 5 2.5 -2.5
      vertex 3.71911 2.5 -1.3275
    endloop
  endfacet
  facet normal 0 1 0
    outer loop
      vertex 3.71911 2.5 -1.3275
      vertex 5 2.5 -2.5
      vertex 3.80423 2.5 -1.56393
    endloop
  endfacet
  facet normal 0 1 0
    outer loop
      vertex 3.80423 2.5 -1.56393
      vertex 5 2.5 -2.5
      vertex 3.87433 2.5 -1.80524
    endloop
  endfacet
  facet normal 0 1 0
    outer loop
      vertex 3.87433 2.5 -1.80524
      vertex 5 2.5 -2.5
      vertex 3.92915 2.5 -2.05047
    endloop
  endfacet
  facet normal 0 1 0
    outer loop
      vertex 3.92915 2.5 -2.05047
      vertex 5 2.5 -2.5
      vertex 3.96846 2.5 -2.29867
    endloop
  endfacet
  facet normal 0 1 0
    outer loop
      vertex 3.96846 2.5 -2.29867
      vertex 5 2.5 -2.5
      vertex 3.98749 2.5 -2.5
    endloop
  endfacet
  facet normal 0 1 -0
    outer loop
      vertex -0.251162 2.5 1.19211
      vertex -5 2.5 2.5
      vertex 0 2.5 1.2
    endloop
  endfacet
  facet normal 0 1 -0
    outer loop
      vertex -0.501332 2.5 1.16846
      vertex -5 2.5 2.5
      vertex -0.251162 2.5 1.19211
    endloop
  endfacet
  facet normal 0 1 -0
    outer loop
      vertex -0.749525 2.5 1.12915
      vertex -5 2.5 2.5
      vertex -0.501332 2.5 1.16846
    endloop
  endfacet
  facet normal 0 1 -0
    outer loop
      vertex -0.994759 2.5 1.07433
      vertex -5 2.5 2.5
      vertex -0.749525 2.5 1.12915
    endloop
  endfacet
  facet normal 0 1 -0
    outer loop
      vertex -1.23607 2.5 1.00423
      vertex -5 2.5 2.5
      vertex -0.994759 2.5 1.07433
    endloop
  endfacet
  facet normal 0 1 -0
    outer loop
      vertex -1.4725 2.5 0.919106
      vertex -5 2.5 2.5
      vertex -1.23607 2.5 1.00423
    endloop
  endfacet
  facet normal 0 1 -0
    outer loop
      vertex -1.70312 2.5 0.819307
      vertex -5 2.5 2.5
      vertex -1.4725 2.5 0.919106
    endloop
  endfacet
  facet normal 0 1 -0
    outer loop
      vertex -1.92701 2.5 0.705226
      vertex -5 2.5 2.5
      vertex -1.70312 2.5 0.819307
    endloop
  endfacet
  facet normal 0 1 -0
    outer loop
      vertex -2.14331 2.5 0.577312
      vertex -5 2.5 2.5
      vertex -1.92701 2.5 0.705226
    endloop
  endfacet
  facet normal 0 1 -0
    outer loop
      vertex -2.35114 2.5 0.436068
      vertex -5 2.5 2.5
      vertex -2.14331 2.5 0.577312
    endloop
  endfacet
  facet normal 0 1 -0
    outer loop
      vertex -2.5497 2.5 0.282052
      vertex -5 2.5 2.5
      vertex -2.35114 2.5 0.436068
    endloop
  endfacet
  facet normal 0 1 -0
    outer loop
      vertex -2.73819 2.5 0.115874
      vertex -5 2.5 2.5
      vertex -2.5497 2.5 0.282052
    endloop
  endfacet
  facet normal 0 1 -0
    outer loop
      vertex -2.91587 2.5 -0.0618114
      vertex -5 2.5 2.5
      vertex -2.73819 2.5 0.115874
    endloop
  endfacet
  facet normal 0 1 -0
    outer loop
      vertex -3.08205 2.5 -0.250303
      vertex -5 2.5 2.5
      vertex -2.91587 2.5 -0.0618114
    endloop
  endfacet
  facet normal 0 1 -0
    outer loop
      vertex -3.23607 2.5 -0.448858
      vertex -5 2.5 2.5
      vertex -3.08205 2.5 -0.250303
    endloop
  endfacet
  facet normal 0 1 -0
    outer loop
      vertex -3.37731 2.5 -0.656693
      vertex -5 2.5 2.5
      vertex -3.23607 2.5 -0.448858
    endloop
  endfacet
  facet normal 0 1 -0
    outer loop
      vertex -3.50523 2.5 -0.872985
      vertex -5 2.5 2.5
      vertex -3.37731 2.5 -0.656693
    endloop
  endfacet
  facet normal 0 1 -0
    outer loop
      vertex -3.61931 2.5 -1.09688
      vertex -5 2.5 2.5
      vertex -3.50523 2.5 -0.872985
    endloop
  endfacet
  facet normal 0 1 0
    outer loop
      vertex -5 2.5 -2.5
      vertex -3.61931 2.5 -1.09688
      vertex -3.71911 2.5 -1.3275
    endloop
  endfacet
  facet normal 0 1 0
    outer loop
      vertex -5 2.5 -2.5
      vertex -3.71911 2.5 -1.3275
      vertex -3.80423 2.5 -1.56393
    endloop
  endfacet
  facet normal 0 1 0
    outer loop
      vertex -5 2.5 -2.5
      vertex -3.80423 2.5 -1.56393
      vertex -3.87433 2.5 -1.80524
    endloop
  endfacet
  facet normal 0 1 0
    outer loop
      vertex -5 2.5 -2.5
      vertex -3.87433 2.5 -1.80524
      vertex -3.92915 2.5 -2.05047
    endloop
  endfacet
  facet normal 0 1 0
    outer loop
      vertex -5 2.5 -2.5
      vertex -3.92915 2.5 -2.05047
      vertex -3.96846 2.5 -2.29867
    endloop
  endfacet
  facet normal 0 1 0
    outer loop
      vertex -5 2.5 -2.5
      vertex -3.96846 2.5 -2.29867
      vertex -3.98749 2.5 -2.5
    endloop
  endfacet
  facet normal 0 1 0
    outer loop
      vertex -3.61931 2.5 -1.09688
      vertex -5 2.5 -2.5
      vertex -5 2.5 2.5
    endloop
  endfacet
  facet normal 0 0 -1
    outer loop
      vertex -5 -2.5 -2.5
      vertex -3.98749 2.5 -2.5
      vertex -3.98749 -2.5 -2.5
    endloop
  endfacet
  facet normal -0 0 -1
    outer loop
      vertex -3.98749 2.5 -2.5
      vertex -5 -2.5 -2.5
      vertex -5 2.5 -2.5
    endloop
  endfacet
  facet normal 0 0 -1
    outer loop
      vertex 3.98749 -2.5 -2.5
      vertex 5 2.5 -2.5
      vertex 5 -2.5 -2.5
    endloop
  endfacet
  facet normal -0 0 -1
    outer loop
      vertex 5 2.5 -2.5
      vertex 3.98749 -2.5 -2.5
      vertex 3.98749 2.5 -2.5
    endloop
  endfacet
  facet normal 0 -1 0
    outer loop
      vertex -5 -2.5 2.5
      vertex 0 -2.5 1.2
      vertex 5 -2.5 2.5
    endloop
  endfacet
  facet normal 0 -1 0
    outer loop
      vertex -5 -2.5 2.5
      vertex -0.251162 -2.5 1.19211
      vertex 0 -2.5 1.2
    endloop
  endfacet
  facet normal 0 -1 0
    outer loop
      vertex -5 -2.5 2.5
      vertex -0.501332 -2.5 1.16846
      vertex -0.251162 -2.5 1.19211
    endloop
  endfacet
  facet normal 0 -1 0
    outer loop
      vertex -5 -2.5 2.5
      vertex -0.749525 -2.5 1.12915
      vertex -0.501332 -2.5 1.16846
    endloop
  endfacet
  facet normal 0 -1 0
    outer loop
      vertex -5 -2.5 2.5
      vertex -0.994759 -2.5 1.07433
      vertex -0.749525 -2.5 1.12915
    endloop
  endfacet
  facet normal 0 -1 0
    outer loop
      vertex -5 -2.5 2.5
      vertex -1.23607 -2.5 1.00423
      vertex -0.994759 -2.5 1.07433
    endloop
  endfacet
  facet normal 0 -1 0
    outer loop
      vertex -5 -2.5 2.5
      vertex -1.4725 -2.5 0.919106
      vertex -1.23607 -2.5 1.00423
    endloop
  endfacet
  facet normal 0 -1 0
    outer loop
      vertex -5 -2.5 2.5
      vertex -1.70312 -2.5 0.819307
      vertex -1.4725 -2.5 0.919106
    endloop
  endfacet
  facet normal 0 -1 0
    outer loop
      vertex -5 -2.5 2.5
      vertex -1.92701 -2.5 0.705226
      vertex -1.70312 -2.5 0.819307
    endloop
  endfacet
  facet normal 0 -1 0
    outer loop
      vertex -5 -2.5 2.5
      vertex -2.14331 -2.5 0.577312
      vertex -1.92701 -2.5 0.705226
    endloop
  endfacet
  facet normal 0 -1 0
    outer loop
      vertex -5 -2.5 2.5
      vertex -2.35114 -2.5 0.436068
      vertex -2.14331 -2.5 0.577312
    endloop
  endfacet
  facet normal 0 -1 0
    outer loop
      vertex -5 -2.5 2.5
      vertex -2.5497 -2.5 0.282052
      vertex -2.35114 -2.5 0.436068
    endloop
  endfacet
  facet normal 0 -1 0
    outer loop
      vertex -5 -2.5 2.5
      vertex -2.73819 -2.5 0.115874
      vertex -2.5497 -2.5 0.282052
    endloop
  endfacet
  facet normal 0 -1 0
    outer loop
      vertex -5 -2.5 2.5
      vertex -2.91587 -2.5 -0.0618114
      vertex -2.73819 -2.5 0.115874
    endloop
  endfacet
  facet normal 0 -1 0
    outer loop
      vertex -5 -2.5 2.5
      vertex -3.08205 -2.5 -0.250303
      vertex -2.91587 -2.5 -0.0618114
    endloop
  endfacet
  facet normal 0 -1 0
    outer loop
      vertex -5 -2.5 2.5
      vertex -3.23607 -2.5 -0.448858
      vertex -3.08205 -2.5 -0.250303
    endloop
  endfacet
  facet normal 0 -1 0
    outer loop
      vertex -5 -2.5 2.5
      vertex -3.37731 -2.5 -0.656693
      vertex -3.23607 -2.5 -0.448858
    endloop
  endfacet
  facet normal 0 -1 0
    outer loop
      vertex -5 -2.5 2.5
      vertex -3.50523 -2.5 -0.872985
      vertex -3.37731 -2.5 -0.656693
    endloop
  endfacet
  facet normal 0 -1 0
    outer loop
      vertex -5 -2.5 2.5
      vertex -3.61931 -2.5 -1.09688
      vertex -3.50523 -2.5 -0.872985
    endloop
  endfacet
  facet normal 0 -1 0
    outer loop
      vertex -5 -2.5 -2.5
      vertex -3.61931 -2.5 -1.09688
      vertex -5 -2.5 2.5
    endloop
  endfacet
  facet normal 0 -1 0
    outer loop
      vertex -3.61931 -2.5 -1.09688
      vertex -5 -2.5 -2.5
      vertex -3.71911 -2.5 -1.3275
    endloop
  endfacet
  facet normal 0 -1 0
    outer loop
      vertex -3.71911 -2.5 -1.3275
      vertex -5 -2.5 -2.5
      vertex -3.80423 -2.5 -1.56393
    endloop
  endfacet
  facet normal 0 -1 0
    outer loop
      vertex -3.80423 -2.5 -1.56393
      vertex -5 -2.5 -2.5
      vertex -3.87433 -2.5 -1.80524
    endloop
  endfacet
  facet normal 0 -1 0
    outer loop
      vertex -3.87433 -2.5 -1.80524
      vertex -5 -2.5 -2.5
      vertex -3.92915 -2.5 -2.05047
    endloop
  endfacet
  facet normal 0 -1 0
    outer loop
      vertex -3.92915 -2.5 -2.05047
      vertex -5 -2.5 -2.5
      vertex -3.96846 -2.5 -2.29867
    endloop
  endfacet
  facet normal 0 -1 0
    outer loop
      vertex -3.96846 -2.5 -2.29867
      vertex -5 -2.5 -2.5
      vertex -3.98749 -2.5 -2.5
    endloop
  endfacet
  facet normal 0 -1 0
    outer loop
      vertex 0.251162 -2.5 1.19211
      vertex 5 -2.5 2.5
      vertex 0 -2.5 1.2
    endloop
  endfacet
  facet normal 0 -1 0
    outer loop
      vertex 0.501332 -2.5 1.16846
      vertex 5 -2.5 2.5
      vertex 0.251162 -2.5 1.19211
    endloop
  endfacet
  facet normal 0 -1 0
    outer loop
      vertex 0.749525 -2.5 1.12915
      vertex 5 -2.5 2.5
      vertex 0.501332 -2.5 1.16846
    endloop
  endfacet
  facet normal 0 -1 0
    outer loop
      vertex 0.994759 -2.5 1.07433
      vertex 5 -2.5 2.5
      vertex 0.749525 -2.5 1.12915
    endloop
  endfacet
  facet normal 0 -1 0
    outer loop
      vertex 1.23607 -2.5 1.00423
      vertex 5 -2.5 2.5
      vertex 0.994759 -2.5 1.07433
    endloop
  endfacet
  facet normal 0 -1 0
    outer loop
      vertex 1.4725 -2.5 0.919106
      vertex 5 -2.5 2.5
      vertex 1.23607 -2.5 1.00423
    endloop
  endfacet
  facet normal 0 -1 0
    outer loop
      vertex 1.70312 -2.5 0.819307
      vertex 5 -2.5 2.5
      vertex 1.4725 -2.5 0.919106
    endloop
  endfacet
  facet normal 0 -1 0
    outer loop
      vertex 1.92701 -2.5 0.705226
      vertex 5 -2.5 2.5
      vertex 1.70312 -2.5 0.819307
    endloop
  endfacet
  facet normal 0 -1 0
    outer loop
      vertex 2.14331 -2.5 0.577312
      vertex 5 -2.5 2.5
      vertex 1.92701 -2.5 0.705226
    endloop
  endfacet
  facet normal 0 -1 0
    outer loop
      vertex 2.35114 -2.5 0.436068
      vertex 5 -2.5 2.5
      vertex 2.14331 -2.5 0.577312
    endloop
  endfacet
  facet normal 0 -1 0
    outer loop
      vertex 2.5497 -2.5 0.282052
      vertex 5 -2.5 2.5
      vertex 2.35114 -2.5 0.436068
    endloop
  endfacet
  facet normal 0 -1 0
    outer loop
      vertex 2.73819 -2.5 0.115874
      vertex 5 -2.5 2.5
      vertex 2.5497 -2.5 0.282052
    endloop
  endfacet
  facet normal 0 -1 0
    outer loop
      vertex 2.91587 -2.5 -0.0618114
      vertex 5 -2.5 2.5
      vertex 2.73819 -2.5 0.115874
    endloop
  endfacet
  facet normal 0 -1 0
    outer loop
      vertex 3.08205 -2.5 -0.250303
      vertex 5 -2.5 2.5
      vertex 2.91587 -2.5 -0.0618114
    endloop
  endfacet
  facet normal 0 -1 0
    outer loop
      vertex 3.23607 -2.5 -0.448858
      vertex 5 -2.5 2.5
      vertex 3.08205 -2.5 -0.250303
    endloop
  endfacet
  facet normal 0 -1 0
    outer loop
      vertex 3.37731 -2.5 -0.656693
      vertex 5 -2.5 2.5
      vertex 3.23607 -2.5 -0.448858
    endloop
  endfacet
  facet normal 0 -1 0
    outer loop
      vertex 3.50523 -2.5 -0.872985
      vertex 5 -2.5 2.5
      vertex 3.37731 -2.5 -0.656693
    endloop
  endfacet
  facet normal 0 -1 0
    outer loop
      vertex 3.61931 -2.5 -1.09688
      vertex 5 -2.5 2.5
      vertex 3.50523 -2.5 -0.872985
    endloop
  endfacet
  facet normal 0 -1 0
    outer loop
      vertex 5 -2.5 -2.5
      vertex 3.61931 -2.5 -1.09688
      vertex 3.71911 -2.5 -1.3275
    endloop
  endfacet
  facet normal 0 -1 0
    outer loop
      vertex 5 -2.5 -2.5
      vertex 3.71911 -2.5 -1.3275
      vertex 3.80423 -2.5 -1.56393
    endloop
  endfacet
  facet normal 0 -1 0
    outer loop
      vertex 5 -2.5 -2.5
      vertex 3.80423 -2.5 -1.56393
      vertex 3.87433 -2.5 -1.80524
    endloop
  endfacet
  facet normal 0 -1 0
    outer loop
      vertex 5 -2.5 -2.5
      vertex 3.87433 -2.5 -1.80524
      vertex 3.92915 -2.5 -2.05047
    endloop
  endfacet
  facet normal 0 -1 0
    outer loop
      vertex 5 -2.5 -2.5
      vertex 3.92915 -2.5 -2.05047
      vertex 3.96846 -2.5 -2.29867
    endloop
  endfacet
  facet normal 0 -1 0
    outer loop
      vertex 5 -2.5 -2.5
      vertex 3.96846 -2.5 -2.29867
      vertex 3.98749 -2.5 -2.5
    endloop
  endfacet
  facet normal 0 -1 0
    outer loop
      vertex 3.61931 -2.5 -1.09688
      vertex 5 -2.5 -2.5
      vertex 5 -2.5 2.5
    endloop
  endfacet
  facet normal 0.987689 0 -0.156433
    outer loop
      vertex -3.92915 -2.5 -2.05047
      vertex -3.96846 2.5 -2.29867
      vertex -3.92915 2.5 -2.05047
    endloop
  endfacet
  facet normal 0.987689 0 -0.156433
    outer loop
      vertex -3.96846 2.5 -2.29867
      vertex -3.92915 -2.5 -2.05047
      vertex -3.96846 -2.5 -2.29867
    endloop
  endfacet
  facet normal -0.987689 0 -0.156433
    outer loop
      vertex 3.96846 -2.5 -2.29867
      vertex 3.92915 2.5 -2.05047
      vertex 3.96846 2.5 -2.29867
    endloop
  endfacet
  facet normal -0.987689 -0 -0.156433
    outer loop
      vertex 3.92915 2.5 -2.05047
      vertex 3.96846 -2.5 -2.29867
      vertex 3.92915 -2.5 -2.05047
    endloop
  endfacet
  facet normal 0.707105 0 -0.707109
    outer loop
      vertex -2.91587 -2.5 -0.0618114
      vertex -2.73819 2.5 0.115874
      vertex -2.73819 -2.5 0.115874
    endloop
  endfacet
  facet normal 0.707105 0 -0.707109
    outer loop
      vertex -2.73819 2.5 0.115874
      vertex -2.91587 -2.5 -0.0618114
      vertex -2.91587 2.5 -0.0618114
    endloop
  endfacet
  facet normal 0.995562 0 -0.0941092
    outer loop
      vertex -3.96846 -2.5 -2.29867
      vertex -3.98749 2.5 -2.5
      vertex -3.96846 2.5 -2.29867
    endloop
  endfacet
  facet normal 0.995562 0 -0.0941092
    outer loop
      vertex -3.98749 2.5 -2.5
      vertex -3.96846 -2.5 -2.29867
      vertex -3.98749 -2.5 -2.5
    endloop
  endfacet
  facet normal -0.995562 0 -0.0941092
    outer loop
      vertex 3.98749 -2.5 -2.5
      vertex 3.96846 2.5 -2.29867
      vertex 3.98749 2.5 -2.5
    endloop
  endfacet
  facet normal -0.995562 -0 -0.0941092
    outer loop
      vertex 3.96846 2.5 -2.29867
      vertex 3.98749 -2.5 -2.5
      vertex 3.96846 -2.5 -2.29867
    endloop
  endfacet
  facet normal -0.975917 0 -0.218143
    outer loop
      vertex 3.92915 -2.5 -2.05047
      vertex 3.87433 2.5 -1.80524
      vertex 3.92915 2.5 -2.05047
    endloop
  endfacet
  facet normal -0.975917 -0 -0.218143
    outer loop
      vertex 3.87433 2.5 -1.80524
      vertex 3.92915 -2.5 -2.05047
      vertex 3.87433 -2.5 -1.80524
    endloop
  endfacet
  facet normal 0.39715 0 -0.917754
    outer loop
      vertex -1.70312 -2.5 0.819307
      vertex -1.4725 2.5 0.919106
      vertex -1.4725 -2.5 0.919106
    endloop
  endfacet
  facet normal 0.39715 0 -0.917754
    outer loop
      vertex -1.4725 2.5 0.919106
      vertex -1.70312 -2.5 0.819307
      vertex -1.70312 2.5 0.819307
    endloop
  endfacet
  facet normal 0.0314127 0 -0.999506
    outer loop
      vertex -0.251162 -2.5 1.19211
      vertex 0 2.5 1.2
      vertex 0 -2.5 1.2
    endloop
  endfacet
  facet normal 0.0314127 0 -0.999506
    outer loop
      vertex 0 2.5 1.2
      vertex -0.251162 -2.5 1.19211
      vertex -0.251162 2.5 1.19211
    endloop
  endfacet
  facet normal 0.917754 0 -0.39715
    outer loop
      vertex -3.61931 -2.5 -1.09688
      vertex -3.71911 2.5 -1.3275
      vertex -3.61931 2.5 -1.09688
    endloop
  endfacet
  facet normal 0.917754 0 -0.39715
    outer loop
      vertex -3.71911 2.5 -1.3275
      vertex -3.61931 -2.5 -1.09688
      vertex -3.71911 -2.5 -1.3275
    endloop
  endfacet
  facet normal 0.156433 0 -0.987689
    outer loop
      vertex -0.749525 -2.5 1.12915
      vertex -0.501332 2.5 1.16846
      vertex -0.501332 -2.5 1.16846
    endloop
  endfacet
  facet normal 0.156433 0 -0.987689
    outer loop
      vertex -0.501332 2.5 1.16846
      vertex -0.749525 -2.5 1.12915
      vertex -0.749525 2.5 1.12915
    endloop
  endfacet
  facet normal -0.917754 0 -0.39715
    outer loop
      vertex 3.71911 -2.5 -1.3275
      vertex 3.61931 2.5 -1.09688
      vertex 3.71911 2.5 -1.3275
    endloop
  endfacet
  facet normal -0.917754 -0 -0.39715
    outer loop
      vertex 3.61931 2.5 -1.09688
      vertex 3.71911 -2.5 -1.3275
      vertex 3.61931 -2.5 -1.09688
    endloop
  endfacet
  facet normal -0.707105 0 -0.707109
    outer loop
      vertex 2.73819 -2.5 0.115874
      vertex 2.91587 2.5 -0.0618114
      vertex 2.91587 -2.5 -0.0618114
    endloop
  endfacet
  facet normal -0.707105 0 -0.707109
    outer loop
      vertex 2.91587 2.5 -0.0618114
      vertex 2.73819 -2.5 0.115874
      vertex 2.73819 2.5 0.115874
    endloop
  endfacet
  facet normal -0.156433 0 -0.987689
    outer loop
      vertex 0.501332 -2.5 1.16846
      vertex 0.749525 2.5 1.12915
      vertex 0.749525 -2.5 1.12915
    endloop
  endfacet
  facet normal -0.156433 0 -0.987689
    outer loop
      vertex 0.749525 2.5 1.12915
      vertex 0.501332 -2.5 1.16846
      vertex 0.501332 2.5 1.16846
    endloop
  endfacet
  facet normal -0.50904 0 -0.860743
    outer loop
      vertex 1.92701 -2.5 0.705226
      vertex 2.14331 2.5 0.577312
      vertex 2.14331 -2.5 0.577312
    endloop
  endfacet
  facet normal -0.50904 0 -0.860743
    outer loop
      vertex 2.14331 2.5 0.577312
      vertex 1.92701 -2.5 0.705226
      vertex 1.92701 2.5 0.705226
    endloop
  endfacet
  facet normal 0.218143 0 -0.975917
    outer loop
      vertex -0.994759 -2.5 1.07433
      vertex -0.749525 2.5 1.12915
      vertex -0.749525 -2.5 1.12915
    endloop
  endfacet
  facet normal 0.218143 0 -0.975917
    outer loop
      vertex -0.749525 2.5 1.12915
      vertex -0.994759 -2.5 1.07433
      vertex -0.994759 2.5 1.07433
    endloop
  endfacet
  facet normal 0.45399 0 -0.891007
    outer loop
      vertex -1.92701 -2.5 0.705226
      vertex -1.70312 2.5 0.819307
      vertex -1.70312 -2.5 0.819307
    endloop
  endfacet
  facet normal 0.45399 0 -0.891007
    outer loop
      vertex -1.70312 2.5 0.819307
      vertex -1.92701 -2.5 0.705226
      vertex -1.92701 2.5 0.705226
    endloop
  endfacet
  facet normal 0.960294 0 -0.278991
    outer loop
      vertex -3.80423 -2.5 -1.56393
      vertex -3.87433 2.5 -1.80524
      vertex -3.80423 2.5 -1.56393
    endloop
  endfacet
  facet normal 0.960294 0 -0.278991
    outer loop
      vertex -3.87433 2.5 -1.80524
      vertex -3.80423 -2.5 -1.56393
      vertex -3.87433 -2.5 -1.80524
    endloop
  endfacet
  facet normal 0.094109 0 -0.995562
    outer loop
      vertex -0.501332 -2.5 1.16846
      vertex -0.251162 2.5 1.19211
      vertex -0.251162 -2.5 1.19211
    endloop
  endfacet
  facet normal 0.094109 0 -0.995562
    outer loop
      vertex -0.251162 2.5 1.19211
      vertex -0.501332 -2.5 1.16846
      vertex -0.501332 2.5 1.16846
    endloop
  endfacet
  facet normal -0.827082 0 -0.562081
    outer loop
      vertex 3.37731 -2.5 -0.656693
      vertex 3.23607 2.5 -0.448858
      vertex 3.37731 2.5 -0.656693
    endloop
  endfacet
  facet normal -0.827082 -0 -0.562081
    outer loop
      vertex 3.23607 2.5 -0.448858
      vertex 3.37731 -2.5 -0.656693
      vertex 3.23607 -2.5 -0.448858
    endloop
  endfacet
  facet normal -0.940881 0 -0.338738
    outer loop
      vertex 3.80423 -2.5 -1.56393
      vertex 3.71911 2.5 -1.3275
      vertex 3.80423 2.5 -1.56393
    endloop
  endfacet
  facet normal -0.940881 -0 -0.338738
    outer loop
      vertex 3.71911 2.5 -1.3275
      vertex 3.80423 -2.5 -1.56393
      vertex 3.71911 -2.5 -1.3275
    endloop
  endfacet
  facet normal -0.750111 0 -0.661312
    outer loop
      vertex 3.08205 -2.5 -0.250303
      vertex 2.91587 2.5 -0.0618114
      vertex 3.08205 2.5 -0.250303
    endloop
  endfacet
  facet normal -0.750111 -0 -0.661312
    outer loop
      vertex 2.91587 2.5 -0.0618114
      vertex 3.08205 -2.5 -0.250303
      vertex 2.91587 -2.5 -0.0618114
    endloop
  endfacet
  facet normal -0.790154 0 -0.612908
    outer loop
      vertex 3.23607 -2.5 -0.448858
      vertex 3.08205 2.5 -0.250303
      vertex 3.23607 2.5 -0.448858
    endloop
  endfacet
  facet normal -0.790154 -0 -0.612908
    outer loop
      vertex 3.08205 2.5 -0.250303
      vertex 3.23607 -2.5 -0.448858
      vertex 3.08205 -2.5 -0.250303
    endloop
  endfacet
  facet normal -0.0314127 0 -0.999506
    outer loop
      vertex 0 -2.5 1.2
      vertex 0.251162 2.5 1.19211
      vertex 0.251162 -2.5 1.19211
    endloop
  endfacet
  facet normal -0.0314127 0 -0.999506
    outer loop
      vertex 0.251162 2.5 1.19211
      vertex 0 -2.5 1.2
      vertex 0 2.5 1.2
    endloop
  endfacet
  facet normal -0.218143 0 -0.975917
    outer loop
      vertex 0.749525 -2.5 1.12915
      vertex 0.994759 2.5 1.07433
      vertex 0.994759 -2.5 1.07433
    endloop
  endfacet
  facet normal -0.218143 0 -0.975917
    outer loop
      vertex 0.994759 2.5 1.07433
      vertex 0.749525 -2.5 1.12915
      vertex 0.749525 2.5 1.12915
    endloop
  endfacet
  facet normal -0.61291 0 -0.790153
    outer loop
      vertex 2.35114 -2.5 0.436068
      vertex 2.5497 2.5 0.282052
      vertex 2.5497 -2.5 0.282052
    endloop
  endfacet
  facet normal -0.61291 0 -0.790153
    outer loop
      vertex 2.5497 2.5 0.282052
      vertex 2.35114 -2.5 0.436068
      vertex 2.35114 2.5 0.436068
    endloop
  endfacet
  facet normal -0.562083 0 -0.827081
    outer loop
      vertex 2.14331 -2.5 0.577312
      vertex 2.35114 2.5 0.436068
      vertex 2.35114 -2.5 0.436068
    endloop
  endfacet
  facet normal -0.562083 0 -0.827081
    outer loop
      vertex 2.35114 2.5 0.436068
      vertex 2.14331 -2.5 0.577312
      vertex 2.14331 2.5 0.577312
    endloop
  endfacet
  facet normal 0.61291 0 -0.790153
    outer loop
      vertex -2.5497 -2.5 0.282052
      vertex -2.35114 2.5 0.436068
      vertex -2.35114 -2.5 0.436068
    endloop
  endfacet
  facet normal 0.61291 0 -0.790153
    outer loop
      vertex -2.35114 2.5 0.436068
      vertex -2.5497 -2.5 0.282052
      vertex -2.5497 2.5 0.282052
    endloop
  endfacet
  facet normal 0.338738 0 -0.940881
    outer loop
      vertex -1.4725 -2.5 0.919106
      vertex -1.23607 2.5 1.00423
      vertex -1.23607 -2.5 1.00423
    endloop
  endfacet
  facet normal 0.338738 0 -0.940881
    outer loop
      vertex -1.23607 2.5 1.00423
      vertex -1.4725 -2.5 0.919106
      vertex -1.4725 2.5 0.919106
    endloop
  endfacet
  facet normal 0.50904 0 -0.860743
    outer loop
      vertex -2.14331 -2.5 0.577312
      vertex -1.92701 2.5 0.705226
      vertex -1.92701 -2.5 0.705226
    endloop
  endfacet
  facet normal 0.50904 0 -0.860743
    outer loop
      vertex -1.92701 2.5 0.705226
      vertex -2.14331 -2.5 0.577312
      vertex -2.14331 2.5 0.577312
    endloop
  endfacet
  facet normal 0.562083 0 -0.827081
    outer loop
      vertex -2.35114 -2.5 0.436068
      vertex -2.14331 2.5 0.577312
      vertex -2.14331 -2.5 0.577312
    endloop
  endfacet
  facet normal 0.562083 0 -0.827081
    outer loop
      vertex -2.14331 2.5 0.577312
      vertex -2.35114 -2.5 0.436068
      vertex -2.35114 2.5 0.436068
    endloop
  endfacet
  facet normal 0.66131 0 -0.750113
    outer loop
      vertex -2.73819 -2.5 0.115874
      vertex -2.5497 2.5 0.282052
      vertex -2.5497 -2.5 0.282052
    endloop
  endfacet
  facet normal 0.66131 0 -0.750113
    outer loop
      vertex -2.5497 2.5 0.282052
      vertex -2.73819 -2.5 0.115874
      vertex -2.73819 2.5 0.115874
    endloop
  endfacet
  facet normal 0.790154 0 -0.612908
    outer loop
      vertex -3.08205 -2.5 -0.250303
      vertex -3.23607 2.5 -0.448858
      vertex -3.08205 2.5 -0.250303
    endloop
  endfacet
  facet normal 0.790154 0 -0.612908
    outer loop
      vertex -3.23607 2.5 -0.448858
      vertex -3.08205 -2.5 -0.250303
      vertex -3.23607 -2.5 -0.448858
    endloop
  endfacet
  facet normal 0.750111 0 -0.661312
    outer loop
      vertex -2.91587 -2.5 -0.0618114
      vertex -3.08205 2.5 -0.250303
      vertex -2.91587 2.5 -0.0618114
    endloop
  endfacet
  facet normal 0.750111 0 -0.661312
    outer loop
      vertex -3.08205 2.5 -0.250303
      vertex -2.91587 -2.5 -0.0618114
      vertex -3.08205 -2.5 -0.250303
    endloop
  endfacet
  facet normal 0.975917 0 -0.218143
    outer loop
      vertex -3.87433 -2.5 -1.80524
      vertex -3.92915 2.5 -2.05047
      vertex -3.87433 2.5 -1.80524
    endloop
  endfacet
  facet normal 0.975917 0 -0.218143
    outer loop
      vertex -3.92915 2.5 -2.05047
      vertex -3.87433 -2.5 -1.80524
      vertex -3.92915 -2.5 -2.05047
    endloop
  endfacet
  facet normal -0.891007 0 -0.45399
    outer loop
      vertex 3.61931 -2.5 -1.09688
      vertex 3.50523 2.5 -0.872985
      vertex 3.61931 2.5 -1.09688
    endloop
  endfacet
  facet normal -0.891007 -0 -0.45399
    outer loop
      vertex 3.50523 2.5 -0.872985
      vertex 3.61931 -2.5 -1.09688
      vertex 3.50523 -2.5 -0.872985
    endloop
  endfacet
  facet normal -0.960294 0 -0.278991
    outer loop
      vertex 3.87433 -2.5 -1.80524
      vertex 3.80423 2.5 -1.56393
      vertex 3.87433 2.5 -1.80524
    endloop
  endfacet
  facet normal -0.960294 -0 -0.278991
    outer loop
      vertex 3.80423 2.5 -1.56393
      vertex 3.87433 -2.5 -1.80524
      vertex 3.80423 -2.5 -1.56393
    endloop
  endfacet
  facet normal -0.094109 0 -0.995562
    outer loop
      vertex 0.251162 -2.5 1.19211
      vertex 0.501332 2.5 1.16846
      vertex 0.501332 -2.5 1.16846
    endloop
  endfacet
  facet normal -0.094109 0 -0.995562
    outer loop
      vertex 0.501332 2.5 1.16846
      vertex 0.251162 -2.5 1.19211
      vertex 0.251162 2.5 1.19211
    endloop
  endfacet
  facet normal -0.27899 0 -0.960294
    outer loop
      vertex 0.994759 -2.5 1.07433
      vertex 1.23607 2.5 1.00423
      vertex 1.23607 -2.5 1.00423
    endloop
  endfacet
  facet normal -0.27899 0 -0.960294
    outer loop
      vertex 1.23607 2.5 1.00423
      vertex 0.994759 -2.5 1.07433
      vertex 0.994759 2.5 1.07433
    endloop
  endfacet
  facet normal -0.66131 0 -0.750113
    outer loop
      vertex 2.5497 -2.5 0.282052
      vertex 2.73819 2.5 0.115874
      vertex 2.73819 -2.5 0.115874
    endloop
  endfacet
  facet normal -0.66131 0 -0.750113
    outer loop
      vertex 2.73819 2.5 0.115874
      vertex 2.5497 -2.5 0.282052
      vertex 2.5497 2.5 0.282052
    endloop
  endfacet
  facet normal -0.45399 0 -0.891007
    outer loop
      vertex 1.70312 -2.5 0.819307
      vertex 1.92701 2.5 0.705226
      vertex 1.92701 -2.5 0.705226
    endloop
  endfacet
  facet normal -0.45399 0 -0.891007
    outer loop
      vertex 1.92701 2.5 0.705226
      vertex 1.70312 -2.5 0.819307
      vertex 1.70312 2.5 0.819307
    endloop
  endfacet
  facet normal 0.940881 0 -0.338738
    outer loop
      vertex -3.71911 -2.5 -1.3275
      vertex -3.80423 2.5 -1.56393
      vertex -3.71911 2.5 -1.3275
    endloop
  endfacet
  facet normal 0.940881 0 -0.338738
    outer loop
      vertex -3.80423 2.5 -1.56393
      vertex -3.71911 -2.5 -1.3275
      vertex -3.80423 -2.5 -1.56393
    endloop
  endfacet
  facet normal 0.860741 0 -0.509043
    outer loop
      vertex -3.37731 -2.5 -0.656693
      vertex -3.50523 2.5 -0.872985
      vertex -3.37731 2.5 -0.656693
    endloop
  endfacet
  facet normal 0.860741 0 -0.509043
    outer loop
      vertex -3.50523 2.5 -0.872985
      vertex -3.37731 -2.5 -0.656693
      vertex -3.50523 -2.5 -0.872985
    endloop
  endfacet
  facet normal 0.891007 0 -0.45399
    outer loop
      vertex -3.50523 -2.5 -0.872985
      vertex -3.61931 2.5 -1.09688
      vertex -3.50523 2.5 -0.872985
    endloop
  endfacet
  facet normal 0.891007 0 -0.45399
    outer loop
      vertex -3.61931 2.5 -1.09688
      vertex -3.50523 -2.5 -0.872985
      vertex -3.61931 -2.5 -1.09688
    endloop
  endfacet
  facet normal 0.827082 0 -0.562081
    outer loop
      vertex -3.23607 -2.5 -0.448858
      vertex -3.37731 2.5 -0.656693
      vertex -3.23607 2.5 -0.448858
    endloop
  endfacet
  facet normal 0.827082 0 -0.562081
    outer loop
      vertex -3.37731 2.5 -0.656693
      vertex -3.23607 -2.5 -0.448858
      vertex -3.37731 -2.5 -0.656693
    endloop
  endfacet
  facet normal -0.860741 0 -0.509043
    outer loop
      vertex 3.50523 -2.5 -0.872985
      vertex 3.37731 2.5 -0.656693
      vertex 3.50523 2.5 -0.872985
    endloop
  endfacet
  facet normal -0.860741 -0 -0.509043
    outer loop
      vertex 3.37731 2.5 -0.656693
      vertex 3.50523 -2.5 -0.872985
      vertex 3.37731 -2.5 -0.656693
    endloop
  endfacet
  facet normal -0.39715 0 -0.917754
    outer loop
      vertex 1.4725 -2.5 0.919106
      vertex 1.70312 2.5 0.819307
      vertex 1.70312 -2.5 0.819307
    endloop
  endfacet
  facet normal -0.39715 0 -0.917754
    outer loop
      vertex 1.70312 2.5 0.819307
      vertex 1.4725 -2.5 0.919106
      vertex 1.4725 2.5 0.919106
    endloop
  endfacet
  facet normal -0.338738 0 -0.940881
    outer loop
      vertex 1.23607 -2.5 1.00423
      vertex 1.4725 2.5 0.919106
      vertex 1.4725 -2.5 0.919106
    endloop
  endfacet
  facet normal -0.338738 0 -0.940881
    outer loop
      vertex 1.4725 2.5 0.919106
      vertex 1.23607 -2.5 1.00423
      vertex 1.23607 2.5 1.00423
    endloop
  endfacet
  facet normal 0.27899 0 -0.960294
    outer loop
      vertex -1.23607 -2.5 1.00423
      vertex -0.994759 2.5 1.07433
      vertex -0.994759 -2.5 1.07433
    endloop
  endfacet
  facet normal 0.27899 0 -0.960294
    outer loop
      vertex -0.994759 2.5 1.07433
      vertex -1.23607 -2.5 1.00423
      vertex -1.23607 2.5 1.00423
    endloop
  endfacet
endsolid OpenSCAD_Model
