solid OpenSCAD_Model
  facet normal -1 0 0
    outer loop
      vertex -5 -2.5 -2.5
      vertex -5 2.5 2.5
      vertex -5 2.5 -2.5
    endloop
  endfacet
  facet normal -1 -0 0
    outer loop
      vertex -5 2.5 2.5
      vertex -5 -2.5 -2.5
      vertex -5 -2.5 2.5
    endloop
  endfacet
  facet normal -0 0 1
    outer loop
      vertex -5 2.5 2.5
      vertex 5 -2.5 2.5
      vertex 5 2.5 2.5
    endloop
  endfacet
  facet normal 0 0 1
    outer loop
      vertex 5 -2.5 2.5
      vertex -5 2.5 2.5
      vertex -5 -2.5 2.5
    endloop
  endfacet
  facet normal 1 -0 0
    outer loop
      vertex 5 -2.5 2.5
      vertex 5 2.5 -2.5
      vertex 5 2.5 2.5
    endloop
  endfacet
  facet normal 1 0 0
    outer loop
      vertex 5 2.5 -2.5
      vertex 5 -2.5 2.5
      vertex 5 -2.5 -2.5
    endloop
  endfacet
  facet normal 0 1 0
    outer loop
      vertex 5 2.5 2.5
      vertex 0 2.5 1.2
      vertex -5 2.5 2.5
    endloop
  endfacet
  facet normal 0 1 0
    outer loop
      vertex 5 2.5 2.5
      vertex 0.213488 2.5 1.19329
      vertex 0 2.5 1.2
    endloop
  endfacet
  facet normal 0 1 0
    outer loop
      vertex 5 2.5 2.5
      vertex 0.426132 2.5 1.17319
      vertex 0.213488 2.5 1.19329
    endloop
  endfacet
  facet normal 0 1 0
    outer loop
      vertex 5 2.5 2.5
      vertex 0.637096 2.5 1.13978
      vertex 0.426132 2.5 1.17319
    endloop
  endfacet
  facet normal 0 1 0
    outer loop
      vertex 5 2.5 2.5
      vertex 0.845545 2.5 1.09318
      vertex 0.637096 2.5 1.13978
    endloop
  endfacet
  facet normal 0 1 0
    outer loop
      vertex 5 2.5 2.5
      vertex 1.05066 2.5 1.03359
      vertex 0.845545 2.5 1.09318
    endloop
  endfacet
  facet normal 0 1 0
    outer loop
      vertex 5 2.5 2.5
      vertex 1.25162 2.5 0.96124
      vertex 1.05066 2.5 1.03359
    endloop
  endfacet
  facet normal 0 1 0
    outer loop
      vertex 5 2.5 2.5
      vertex 1.44765 2.5 0.876411
      vertex 1.25162 2.5 0.96124
    endloop
  endfacet
  facet normal 0 1 0
    outer loop
      vertex 5 2.5 2.5
      vertex 1.63796 2.5 0.779442
      vertex 1.44765 2.5 0.876411
    endloop
  endfacet
  facet normal 0 1 0
    outer loop
      vertex 5 2.5 2.5
      vertex 1.82181 2.5 0.670714
      vertex 1.63796 2.5 0.779442
    endloop
  endfacet
  facet normal 0 1 0
    outer loop
      vertex 5 2.5 2.5
      vertex 1.99847 2.5 0.550657
      vertex 1.82181 2.5 0.670714
    endloop
  endfacet
  facet normal 0 1 0
    outer loop
      vertex 5 2.5 2.5
      vertex 2.16724 2.5 0.419744
      vertex 1.99847 2.5 0.550657
    endloop
  endfacet
  facet normal 0 1 0
    outer loop
      vertex 5 2.5 2.5
      vertex 2.32746 2.5 0.278493
      vertex 2.16724 2.5 0.419744
    endloop
  endfacet
  facet normal 0 1 0
    outer loop
      vertex 5 2.5 2.5
      vertex 2.47849 2.5 0.12746
      vertex 2.32746 2.5 0.278493
    endloop
  endfacet
  facet normal 0 1 0
    outer loop
      vertex 5 2.5 2.5
      vertex 2.61974 2.5 -0.0327578
      vertex 2.47849 2.5 0.12746
    endloop
  endfacet
  facet normal 0 1 0
    outer loop
      vertex 5 2.5 2.5
      vertex 2.75066 2.5 -0.20153
      vertex 2.61974 2.5 -0.0327578
    endloop
  endfacet
  facet normal 0 1 0
    outer loop
      vertex 5 2.5 2.5
      vertex 2.87071 2.5 -0.378188
      vertex 2.75066 2.5 -0.20153
    endloop
  endfacet
  facet normal 0 1 0
    outer loop
      vertex 5 2.5 2.5
      vertex 2.97944 2.5 -0.562037
      vertex 2.87071 2.5 -0.378188
    endloop
  endfacet
  facet normal 0 1 0
    outer loop
      vertex 5 2.5 2.5
      vertex 3.07641 2.5 -0.75235
      vertex 2.97944 2.5 -0.562037
    endloop
  endfacet
  facet normal 0 1 0
    outer loop
      vertex 5 2.5 2.5
      vertex 3.16124 2.5 -0.948376
      vertex 3.07641 2.5 -0.75235
    endloop
  endfacet
  facet normal 0 1 -0
    outer loop
      vertex 5 2.5 -2.5
      vertex 3.16124 2.5 -0.948376
      vertex 5 2.5 2.5
    endloop
  endfacet
  facet normal 0 1 0
    outer loop
      vertex 3.16124 2.5 -0.948376
      vertex 5 2.5 -2.5
      vertex 3.23359 2.5 -1.14934
    endloop
  endfacet
  facet normal 0 1 0
    outer loop
      vertex 3.23359 2.5 -1.14934
      vertex 5 2.5 -2.5
      vertex 3.29318 2.5 -1.35445
    endloop
  endfacet
  facet normal 0 1 0
    outer loop
      vertex 3.29318 2.5 -1.35445
      vertex 5 2.5 -2.5
      vertex 3.33978 2.5 -1.5629
    endloop
  endfacet
  facet normal 0 1 0
    outer loop
      vertex 3.33978 2.5 -1.5629
      vertex 5 2.5 -2.5
      vertex 3.37319 2.5 -1.77387
    endloop
  endfacet
  facet normal 0 1 0
    outer loop
      vertex 3.37319 2.5 -1.77387
      vertex 5 2.5 -2.5
      vertex 3.39329 2.5 -1.98651
    endloop
  endfacet
  facet normal 0 1 0
    outer loop
      vertex 3.39329 2.5 -1.98651
      vertex 5 2.5 -2.5
      vertex 3.4 2.5 -2.2
    endloop
  endfacet
  facet normal 0 1 0
    outer loop
      vertex 3.4 2.5 -2.2
      vertex 5 2.5 -2.5
      vertex 3.39329 2.5 -2.41349
    endloop
  endfacet
  facet normal 0 1 0
    outer loop
      vertex 3.39329 2.5 -2.41349
      vertex 5 2.5 -2.5
      vertex 3.38511 2.5 -2.5
    endloop
  endfacet
  facet normal 0 1 -0
    outer loop
      vertex -0.213488 2.5 1.19329
      vertex -5 2.5 2.5
      vertex 0 2.5 1.2
    endloop
  endfacet
  facet normal 0 1 -0
    outer loop
      vertex -0.426132 2.5 1.17319
      vertex -5 2.5 2.5
      vertex -0.213488 2.5 1.19329
    endloop
  endfacet
  facet normal 0 1 -0
    outer loop
      vertex -0.637096 2.5 1.13978
      vertex -5 2.5 2.5
      vertex -0.426132 2.5 1.17319
    endloop
  endfacet
  facet normal 0 1 -0
    outer loop
      vertex -0.845545 2.5 1.09318
      vertex -5 2.5 2.5
      vertex -0.637096 2.5 1.13978
    endloop
  endfacet
  facet normal 0 1 -0
    outer loop
      vertex -1.05066 2.5 1.03359
      vertex -5 2.5 2.5
      vertex -0.845545 2.5 1.09318
    endloop
  endfacet
  facet normal 0 1 -0
    outer loop
      vertex -1.25162 2.5 0.96124
      vertex -5 2.5 2.5
      vertex -1.05066 2.5 1.03359
    endloop
  endfacet
  facet normal 0 1 -0
    outer loop
      vertex -1.44765 2.5 0.876411
      vertex -5 2.5 2.5
      vertex -1.25162 2.5 0.96124
    endloop
  endfacet
  facet normal 0 1 -0
    outer loop
      vertex -1.63796 2.5 0.779442
      vertex -5 2.5 2.5
      vertex -1.44765 2.5 0.876411
    endloop
  endfacet
  facet normal 0 1 -0
    outer loop
      vertex -1.82181 2.5 0.670714
      vertex -5 2.5 2.5
      vertex -1.63796 2.5 0.779442
    endloop
  endfacet
  facet normal 0 1 -0
    outer loop
      vertex -1.99847 2.5 0.550657
      vertex -5 2.5 2.5
      vertex -1.82181 2.5 0.670714
    endloop
  endfacet
  facet normal 0 1 -0
    outer loop
      vertex -2.16724 2.5 0.419744
      vertex -5 2.5 2.5
      vertex -1.99847 2.5 0.550657
    endloop
  endfacet
  facet normal 0 1 -0
    outer loop
      vertex -2.32746 2.5 0.278493
      vertex -5 2.5 2.5
      vertex -2.16724 2.5 0.419744
    endloop
  endfacet
  facet normal 0 1 -0
    outer loop
      vertex -2.47849 2.5 0.12746
      vertex -5 2.5 2.5
      vertex -2.32746 2.5 0.278493
    endloop
  endfacet
  facet normal 0 1 -0
    outer loop
      vertex -2.61974 2.5 -0.0327578
      vertex -5 2.5 2.5
      vertex -2.47849 2.5 0.12746
    endloop
  endfacet
  facet normal 0 1 -0
    outer loop
      vertex -2.75066 2.5 -0.20153
      vertex -5 2.5 2.5
      vertex -2.61974 2.5 -0.0327578
    endloop
  endfacet
  facet normal 0 1 -0
    outer loop
      vertex -2.87071 2.5 -0.378188
      vertex -5 2.5 2.5
      vertex -2.75066 2.5 -0.20153
    endloop
  endfacet
  facet normal 0 1 -0
    outer loop
      vertex -2.97944 2.5 -0.562037
      vertex -5 2.5 2.5
      vertex -2.87071 2.5 -0.378188
    endloop
  endfacet
  facet normal 0 1 -0
    outer loop
      vertex -3.07641 2.5 -0.75235
      vertex -5 2.5 2.5
      vertex -2.97944 2.5 -0.562037
    endloop
  endfacet
  facet normal 0 1 -0
    outer loop
      vertex -3.16124 2.5 -0.948376
      vertex -5 2.5 2.5
      vertex -3.07641 2.5 -0.75235
    endloop
  endfacet
  facet normal 0 1 0
    outer loop
      vertex -5 2.5 -2.5
      vertex -3.16124 2.5 -0.948376
      vertex -3.23359 2.5 -1.14934
    endloop
  endfacet
  facet normal 0 1 0
    outer loop
      vertex -5 2.5 -2.5
      vertex -3.23359 2.5 -1.14934
      vertex -3.29318 2.5 -1.35445
    endloop
  endfacet
  facet normal 0 1 0
    outer loop
      vertex -5 2.5 -2.5
      vertex -3.29318 2.5 -1.35445
      vertex -3.33978 2.5 -1.5629
    endloop
  endfacet
  facet normal 0 1 0
    outer loop
      vertex -5 2.5 -2.5
      vertex -3.33978 2.5 -1.5629
      vertex -3.37319 2.5 -1.77387
    endloop
  endfacet
  facet normal 0 1 0
    outer loop
      vertex -5 2.5 -2.5
      vertex -3.37319 2.5 -1.77387
      vertex -3.39329 2.5 -1.98651
    endloop
  endfacet
  facet normal 0 1 0
    outer loop
      vertex -5 2.5 -2.5
      vertex -3.39329 2.5 -1.98651
      vertex -3.4 2.5 -2.2
    endloop
  endfacet
  facet normal 0 1 0
    outer loop
      vertex -5 2.5 -2.5
      vertex -3.4 2.5 -2.2
      vertex -3.39329 2.5 -2.41349
    endloop
  endfacet
  facet normal 0 1 0
    outer loop
      vertex -5 2.5 -2.5
      vertex -3.39329 2.5 -2.41349
      vertex -3.38511 2.5 -2.5
    endloop
  endfacet
  facet normal 0 1 0
    outer loop
      vertex -3.16124 2.5 -0.948376
      vertex -5 2.5 -2.5
      vertex -5 2.5 2.5
    endloop
  endfacet
  facet normal 0 0 -1
    outer loop
      vertex -5 -2.5 -2.5
      vertex -3.38511 2.5 -2.5
      vertex -3.38511 -2.5 -2.5
    endloop
  endfacet
  facet normal -0 0 -1
    outer loop
      vertex -3.38511 2.5 -2.5
      vertex -5 -2.5 -2.5
      vertex -5 2.5 -2.5
    endloop
  endfacet
  facet normal 0 0 -1
    outer loop
      vertex 3.38511 -2.5 -2.5
      vertex 5 2.5 -2.5
      vertex 5 -2.5 -2.5
    endloop
  endfacet
  facet normal -0 0 -1
    outer loop
      vertex 5 2.5 -2.5
      vertex 3.38511 -2.5 -2.5
      vertex 3.38511 2.5 -2.5
    endloop
  endfacet
  facet normal 0 -1 0
    outer loop
      vertex -5 -2.5 2.5
      vertex 0 -2.5 1.2
      vertex 5 -2.5 2.5
    endloop
  endfacet
  facet normal 0 -1 0
    outer loop
      vertex -5 -2.5 2.5
      vertex -0.213488 -2.5 1.19329
      vertex 0 -2.5 1.2
    endloop
  endfacet
  facet normal 0 -1 0
    outer loop
      vertex -5 -2.5 2.5
      vertex -0.426132 -2.5 1.17319
      vertex -0.213488 -2.5 1.19329
    endloop
  endfacet
  facet normal 0 -1 0
    outer loop
      vertex -5 -2.5 2.5
      vertex -0.637096 -2.5 1.13978
      vertex -0.426132 -2.5 1.17319
    endloop
  endfacet
  facet normal 0 -1 0
    outer loop
      vertex -5 -2.5 2.5
      vertex -0.845545 -2.5 1.09318
      vertex -0.637096 -2.5 1.13978
    endloop
  endfacet
  facet normal 0 -1 0
    outer loop
      vertex -5 -2.5 2.5
      vertex -1.05066 -2.5 1.03359
      vertex -0.845545 -2.5 1.09318
    endloop
  endfacet
  facet normal 0 -1 0
    outer loop
      vertex -5 -2.5 2.5
      vertex -1.25162 -2.5 0.96124
      vertex -1.05066 -2.5 1.03359
    endloop
  endfacet
  facet normal 0 -1 0
    outer loop
      vertex -5 -2.5 2.5
      vertex -1.44765 -2.5 0.876411
      vertex -1.25162 -2.5 0.96124
    endloop
  endfacet
  facet normal 0 -1 0
    outer loop
      vertex -5 -2.5 2.5
      vertex -1.63796 -2.5 0.779442
      vertex -1.44765 -2.5 0.876411
    endloop
  endfacet
  facet normal 0 -1 0
    outer loop
      vertex -5 -2.5 2.5
      vertex -1.82181 -2.5 0.670714
      vertex -1.63796 -2.5 0.779442
    endloop
  endfacet
  facet normal 0 -1 0
    outer loop
      vertex -5 -2.5 2.5
      vertex -1.99847 -2.5 0.550657
      vertex -1.82181 -2.5 0.670714
    endloop
  endfacet
  facet normal 0 -1 0
    outer loop
      vertex -5 -2.5 2.5
      vertex -2.16724 -2.5 0.419744
      vertex -1.99847 -2.5 0.550657
    endloop
  endfacet
  facet normal 0 -1 0
    outer loop
      vertex -5 -2.5 2.5
      vertex -2.32746 -2.5 0.278493
      vertex -2.16724 -2.5 0.419744
    endloop
  endfacet
  facet normal 0 -1 0
    outer loop
      vertex -5 -2.5 2.5
      vertex -2.47849 -2.5 0.12746
      vertex -2.32746 -2.5 0.278493
    endloop
  endfacet
  facet normal 0 -1 0
    outer loop
      vertex -5 -2.5 2.5
      vertex -2.61974 -2.5 -0.0327578
      vertex -2.47849 -2.5 0.12746
    endloop
  endfacet
  facet normal 0 -1 0
    outer loop
      vertex -5 -2.5 2.5
      vertex -2.75066 -2.5 -0.20153
      vertex -2.61974 -2.5 -0.0327578
    endloop
  endfacet
  facet normal 0 -1 0
    outer loop
      vertex -5 -2.5 2.5
      vertex -2.87071 -2.5 -0.378188
      vertex -2.75066 -2.5 -0.20153
    endloop
  endfacet
  facet normal 0 -1 0
    outer loop
      vertex -5 -2.5 2.5
      vertex -2.97944 -2.5 -0.562037
      vertex -2.87071 -2.5 -0.378188
    endloop
  endfacet
  facet normal 0 -1 0
    outer loop
      vertex -5 -2.5 2.5
      vertex -3.07641 -2.5 -0.75235
      vertex -2.97944 -2.5 -0.562037
    endloop
  endfacet
  facet normal 0 -1 0
    outer loop
      vertex -5 -2.5 2.5
      vertex -3.16124 -2.5 -0.948376
      vertex -3.07641 -2.5 -0.75235
    endloop
  endfacet
  facet normal 0 -1 0
    outer loop
      vertex -5 -2.5 -2.5
      vertex -3.16124 -2.5 -0.948376
      vertex -5 -2.5 2.5
    endloop
  endfacet
  facet normal 0 -1 0
    outer loop
      vertex -3.16124 -2.5 -0.948376
      vertex -5 -2.5 -2.5
      vertex -3.23359 -2.5 -1.14934
    endloop
  endfacet
  facet normal 0 -1 0
    outer loop
      vertex -3.23359 -2.5 -1.14934
      vertex -5 -2.5 -2.5
      vertex -3.29318 -2.5 -1.35445
    endloop
  endfacet
  facet normal 0 -1 0
    outer loop
      vertex -3.29318 -2.5 -1.35445
      vertex -5 -2.5 -2.5
      vertex -3.33978 -2.5 -1.5629
    endloop
  endfacet
  facet normal 0 -1 0
    outer loop
      vertex -3.33978 -2.5 -1.5629
      vertex -5 -2.5 -2.5
      vertex -3.37319 -2.5 -1.77387
    endloop
  endfacet
  facet normal 0 -1 0
    outer loop
      vertex -3.37319 -2.5 -1.77387
      vertex -5 -2.5 -2.5
      vertex -3.39329 -2.5 -1.98651
    endloop
  endfacet
  facet normal 0 -1 0
    outer loop
      vertex -3.39329 -2.5 -1.98651
      vertex -5 -2.5 -2.5
      vertex -3.4 -2.5 -2.2
    endloop
  endfacet
  facet normal 0 -1 -0
    outer loop
      vertex -3.4 -2.5 -2.2
      vertex -5 -2.5 -2.5
      vertex -3.39329 -2.5 -2.41349
    endloop
  endfacet
  facet normal 0 -1 -0
    outer loop
      vertex -3.39329 -2.5 -2.41349
      vertex -5 -2.5 -2.5
      vertex -3.38511 -2.5 -2.5
    endloop
  endfacet
  facet normal 0 -1 0
    outer loop
      vertex 0.213488 -2.5 1.19329
      vertex 5 -2.5 2.5
      vertex 0 -2.5 1.2
    endloop
  endfacet
  facet normal 0 -1 0
    outer loop
      vertex 0.426132 -2.5 1.17319
      vertex 5 -2.5 2.5
      vertex 0.213488 -2.5 1.19329
    endloop
  endfacet
  facet normal 0 -1 0
    outer loop
      vertex 0.637096 -2.5 1.13978
      vertex 5 -2.5 2.5
      vertex 0.426132 -2.5 1.17319
    endloop
  endfacet
  facet normal 0 -1 0
    outer loop
      vertex 0.845545 -2.5 1.09318
      vertex 5 -2.5 2.5
      vertex 0.637096 -2.5 1.13978
    endloop
  endfacet
  facet normal 0 -1 0
    outer loop
      vertex 1.05066 -2.5 1.03359
      vertex 5 -2.5 2.5
      vertex 0.845545 -2.5 1.09318
    endloop
  endfacet
  facet normal 0 -1 0
    outer loop
      vertex 1.25162 -2.5 0.96124
      vertex 5 -2.5 2.5
      vertex 1.05066 -2.5 1.03359
    endloop
  endfacet
  facet normal 0 -1 0
    outer loop
      vertex 1.44765 -2.5 0.876411
      vertex 5 -2.5 2.5
      vertex 1.25162 -2.5 0.96124
    endloop
  endfacet
  facet normal 0 -1 0
    outer loop
      vertex 1.63796 -2.5 0.779442
      vertex 5 -2.5 2.5
      vertex 1.44765 -2.5 0.876411
    endloop
  endfacet
  facet normal 0 -1 0
    outer loop
      vertex 1.82181 -2.5 0.670714
      vertex 5 -2.5 2.5
      vertex 1.63796 -2.5 0.779442
    endloop
  endfacet
  facet normal 0 -1 0
    outer loop
      vertex 1.99847 -2.5 0.550657
      vertex 5 -2.5 2.5
      vertex 1.82181 -2.5 0.670714
    endloop
  endfacet
  facet normal 0 -1 0
    outer loop
      vertex 2.16724 -2.5 0.419744
      vertex 5 -2.5 2.5
      vertex 1.99847 -2.5 0.550657
    endloop
  endfacet
  facet normal 0 -1 0
    outer loop
      vertex 2.32746 -2.5 0.278493
      vertex 5 -2.5 2.5
      vertex 2.16724 -2.5 0.419744
    endloop
  endfacet
  facet normal 0 -1 0
    outer loop
      vertex 2.47849 -2.5 0.12746
      vertex 5 -2.5 2.5
      vertex 2.32746 -2.5 0.278493
    endloop
  endfacet
  facet normal 0 -1 0
    outer loop
      vertex 2.61974 -2.5 -0.0327578
      vertex 5 -2.5 2.5
      vertex 2.47849 -2.5 0.12746
    endloop
  endfacet
  facet normal 0 -1 0
    outer loop
      vertex 2.75066 -2.5 -0.20153
      vertex 5 -2.5 2.5
      vertex 2.61974 -2.5 -0.0327578
    endloop
  endfacet
  facet normal 0 -1 0
    outer loop
      vertex 2.87071 -2.5 -0.378188
      vertex 5 -2.5 2.5
      vertex 2.75066 -2.5 -0.20153
    endloop
  endfacet
  facet normal 0 -1 0
    outer loop
      vertex 2.97944 -2.5 -0.562037
      vertex 5 -2.5 2.5
      vertex 2.87071 -2.5 -0.378188
    endloop
  endfacet
  facet normal 0 -1 0
    outer loop
      vertex 3.07641 -2.5 -0.75235
      vertex 5 -2.5 2.5
      vertex 2.97944 -2.5 -0.562037
    endloop
  endfacet
  facet normal 0 -1 0
    outer loop
      vertex 3.16124 -2.5 -0.948376
      vertex 5 -2.5 2.5
      vertex 3.07641 -2.5 -0.75235
    endloop
  endfacet
  facet normal 0 -1 0
    outer loop
      vertex 5 -2.5 -2.5
      vertex 3.16124 -2.5 -0.948376
      vertex 3.23359 -2.5 -1.14934
    endloop
  endfacet
  facet normal 0 -1 0
    outer loop
      vertex 5 -2.5 -2.5
      vertex 3.23359 -2.5 -1.14934
      vertex 3.29318 -2.5 -1.35445
    endloop
  endfacet
  facet normal 0 -1 0
    outer loop
      vertex 5 -2.5 -2.5
      vertex 3.29318 -2.5 -1.35445
      vertex 3.33978 -2.5 -1.5629
    endloop
  endfacet
  facet normal 0 -1 0
    outer loop
      vertex 5 -2.5 -2.5
      vertex 3.33978 -2.5 -1.5629
      vertex 3.37319 -2.5 -1.77387
    endloop
  endfacet
  facet normal 0 -1 0
    outer loop
      vertex 5 -2.5 -2.5
      vertex 3.37319 -2.5 -1.77387
      vertex 3.39329 -2.5 -1.98651
    endloop
  endfacet
  facet normal 0 -1 0
    outer loop
      vertex 5 -2.5 -2.5
      vertex 3.39329 -2.5 -1.98651
      vertex 3.4 -2.5 -2.2
    endloop
  endfacet
  facet normal 0 -1 0
    outer loop
      vertex 5 -2.5 -2.5
      vertex 3.4 -2.5 -2.2
      vertex 3.39329 -2.5 -2.41349
    endloop
  endfacet
  facet normal 0 -1 0
    outer loop
      vertex 5 -2.5 -2.5
      vertex 3.39329 -2.5 -2.41349
      vertex 3.38511 -2.5 -2.5
    endloop
  endfacet
  facet normal 0 -1 0
    outer loop
      vertex 3.16124 -2.5 -0.948376
      vertex 5 -2.5 -2.5
      vertex 5 -2.5 2.5
    endloop
  endfacet
  facet normal -0.999507 0 -0.0314107
    outer loop
      vertex 3.4 -2.5 -2.2
      vertex 3.39329 2.5 -1.98651
      vertex 3.4 2.5 -2.2
    endloop
  endfacet
  facet normal -0.999507 -0 -0.0314107
    outer loop
      vertex 3.39329 2.5 -1.98651
      vertex 3.4 -2.5 -2.2
      vertex 3.39329 -2.5 -1.98651
    endloop
  endfacet
  facet normal -0.995562 0 -0.0941068
    outer loop
      vertex 3.39329 -2.5 -1.98651
      vertex 3.37319 2.5 -1.77387
      vertex 3.39329 2.5 -1.98651
    endloop
  endfacet
  facet normal -0.995562 -0 -0.0941068
    outer loop
      vertex 3.37319 2.5 -1.77387
      vertex 3.39329 -2.5 -1.98651
      vertex 3.37319 -2.5 -1.77387
    endloop
  endfacet
  facet normal 0.0314107 0 -0.999507
    outer loop
      vertex -0.213488 -2.5 1.19329
      vertex 0 2.5 1.2
      vertex 0 -2.5 1.2
    endloop
  endfacet
  facet normal 0.0314107 0 -0.999507
    outer loop
      vertex 0 2.5 1.2
      vertex -0.213488 -2.5 1.19329
      vertex -0.213488 2.5 1.19329
    endloop
  endfacet
  facet normal -0.661312 0 -0.750111
    outer loop
      vertex 2.16724 -2.5 0.419744
      vertex 2.32746 2.5 0.278493
      vertex 2.32746 -2.5 0.278493
    endloop
  endfacet
  facet normal -0.661312 0 -0.750111
    outer loop
      vertex 2.32746 2.5 0.278493
      vertex 2.16724 -2.5 0.419744
      vertex 2.16724 2.5 0.419744
    endloop
  endfacet
  facet normal -0.891007 0 -0.453989
    outer loop
      vertex 3.07641 -2.5 -0.75235
      vertex 2.97944 2.5 -0.562037
      vertex 3.07641 2.5 -0.75235
    endloop
  endfacet
  facet normal -0.891007 -0 -0.453989
    outer loop
      vertex 2.97944 2.5 -0.562037
      vertex 3.07641 -2.5 -0.75235
      vertex 2.97944 -2.5 -0.562037
    endloop
  endfacet
  facet normal -0.338735 0 -0.940882
    outer loop
      vertex 1.05066 -2.5 1.03359
      vertex 1.25162 2.5 0.96124
      vertex 1.25162 -2.5 0.96124
    endloop
  endfacet
  facet normal -0.338735 0 -0.940882
    outer loop
      vertex 1.25162 2.5 0.96124
      vertex 1.05066 -2.5 1.03359
      vertex 1.05066 2.5 1.03359
    endloop
  endfacet
  facet normal -0.509041 0 -0.860742
    outer loop
      vertex 1.63796 -2.5 0.779442
      vertex 1.82181 2.5 0.670714
      vertex 1.82181 -2.5 0.670714
    endloop
  endfacet
  facet normal -0.509041 0 -0.860742
    outer loop
      vertex 1.82181 2.5 0.670714
      vertex 1.63796 -2.5 0.779442
      vertex 1.63796 2.5 0.779442
    endloop
  endfacet
  facet normal -0.960294 0 -0.27899
    outer loop
      vertex 3.29318 -2.5 -1.35445
      vertex 3.23359 2.5 -1.14934
      vertex 3.29318 2.5 -1.35445
    endloop
  endfacet
  facet normal -0.960294 -0 -0.27899
    outer loop
      vertex 3.23359 2.5 -1.14934
      vertex 3.29318 -2.5 -1.35445
      vertex 3.23359 -2.5 -1.14934
    endloop
  endfacet
  facet normal -0.790155 0 -0.612907
    outer loop
      vertex 2.75066 -2.5 -0.20153
      vertex 2.61974 2.5 -0.0327578
      vertex 2.75066 2.5 -0.20153
    endloop
  endfacet
  facet normal -0.790155 -0 -0.612907
    outer loop
      vertex 2.61974 2.5 -0.0327578
      vertex 2.75066 -2.5 -0.20153
      vertex 2.61974 -2.5 -0.0327578
    endloop
  endfacet
  facet normal -0.827081 0 -0.562083
    outer loop
      vertex 2.87071 -2.5 -0.378188
      vertex 2.75066 2.5 -0.20153
      vertex 2.87071 2.5 -0.378188
    endloop
  endfacet
  facet normal -0.827081 -0 -0.562083
    outer loop
      vertex 2.75066 2.5 -0.20153
      vertex 2.87071 -2.5 -0.378188
      vertex 2.75066 -2.5 -0.20153
    endloop
  endfacet
  facet normal -0.156432 0 -0.987689
    outer loop
      vertex 0.426132 -2.5 1.17319
      vertex 0.637096 2.5 1.13978
      vertex 0.637096 -2.5 1.13978
    endloop
  endfacet
  facet normal -0.156432 0 -0.987689
    outer loop
      vertex 0.637096 2.5 1.13978
      vertex 0.426132 -2.5 1.17319
      vertex 0.426132 2.5 1.17319
    endloop
  endfacet
  facet normal -0.278994 0 -0.960293
    outer loop
      vertex 0.845545 -2.5 1.09318
      vertex 1.05066 2.5 1.03359
      vertex 1.05066 -2.5 1.03359
    endloop
  endfacet
  facet normal -0.278994 0 -0.960293
    outer loop
      vertex 1.05066 2.5 1.03359
      vertex 0.845545 -2.5 1.09318
      vertex 0.845545 2.5 1.09318
    endloop
  endfacet
  facet normal -0.562083 0 -0.827081
    outer loop
      vertex 1.82181 -2.5 0.670714
      vertex 1.99847 2.5 0.550657
      vertex 1.99847 -2.5 0.550657
    endloop
  endfacet
  facet normal -0.562083 0 -0.827081
    outer loop
      vertex 1.99847 2.5 0.550657
      vertex 1.82181 -2.5 0.670714
      vertex 1.82181 2.5 0.670714
    endloop
  endfacet
  facet normal 0.707107 0 -0.707107
    outer loop
      vertex -2.32746 -2.5 0.278493
      vertex -2.47849 2.5 0.12746
      vertex -2.32746 2.5 0.278493
    endloop
  endfacet
  facet normal 0.707107 0 -0.707107
    outer loop
      vertex -2.47849 2.5 0.12746
      vertex -2.32746 -2.5 0.278493
      vertex -2.47849 -2.5 0.12746
    endloop
  endfacet
  facet normal 0.94088 0 -0.338739
    outer loop
      vertex -3.16124 -2.5 -0.948376
      vertex -3.23359 2.5 -1.14934
      vertex -3.16124 2.5 -0.948376
    endloop
  endfacet
  facet normal 0.94088 0 -0.338739
    outer loop
      vertex -3.23359 2.5 -1.14934
      vertex -3.16124 -2.5 -0.948376
      vertex -3.23359 -2.5 -1.14934
    endloop
  endfacet
  facet normal -0.987688 0 -0.156437
    outer loop
      vertex 3.37319 -2.5 -1.77387
      vertex 3.33978 2.5 -1.5629
      vertex 3.37319 2.5 -1.77387
    endloop
  endfacet
  facet normal -0.987688 -0 -0.156437
    outer loop
      vertex 3.33978 2.5 -1.5629
      vertex 3.37319 -2.5 -1.77387
      vertex 3.33978 -2.5 -1.5629
    endloop
  endfacet
  facet normal -0.94088 0 -0.338739
    outer loop
      vertex 3.23359 -2.5 -1.14934
      vertex 3.16124 2.5 -0.948376
      vertex 3.23359 2.5 -1.14934
    endloop
  endfacet
  facet normal -0.94088 -0 -0.338739
    outer loop
      vertex 3.16124 2.5 -0.948376
      vertex 3.23359 -2.5 -1.14934
      vertex 3.16124 -2.5 -0.948376
    endloop
  endfacet
  facet normal -0.750109 0 -0.661315
    outer loop
      vertex 2.61974 -2.5 -0.0327578
      vertex 2.47849 2.5 0.12746
      vertex 2.61974 2.5 -0.0327578
    endloop
  endfacet
  facet normal -0.750109 -0 -0.661315
    outer loop
      vertex 2.47849 2.5 0.12746
      vertex 2.61974 -2.5 -0.0327578
      vertex 2.47849 -2.5 0.12746
    endloop
  endfacet
  facet normal -0.707107 0 -0.707107
    outer loop
      vertex 2.47849 -2.5 0.12746
      vertex 2.32746 2.5 0.278493
      vertex 2.47849 2.5 0.12746
    endloop
  endfacet
  facet normal -0.707107 -0 -0.707107
    outer loop
      vertex 2.32746 2.5 0.278493
      vertex 2.47849 -2.5 0.12746
      vertex 2.32746 -2.5 0.278493
    endloop
  endfacet
  facet normal -0.860742 0 -0.509042
    outer loop
      vertex 2.97944 -2.5 -0.562037
      vertex 2.87071 2.5 -0.378188
      vertex 2.97944 2.5 -0.562037
    endloop
  endfacet
  facet normal -0.860742 -0 -0.509042
    outer loop
      vertex 2.87071 2.5 -0.378188
      vertex 2.97944 -2.5 -0.562037
      vertex 2.87071 -2.5 -0.378188
    endloop
  endfacet
  facet normal -0.0941116 0 -0.995562
    outer loop
      vertex 0.213488 -2.5 1.19329
      vertex 0.426132 2.5 1.17319
      vertex 0.426132 -2.5 1.17319
    endloop
  endfacet
  facet normal -0.0941116 0 -0.995562
    outer loop
      vertex 0.426132 2.5 1.17319
      vertex 0.213488 -2.5 1.19329
      vertex 0.213488 2.5 1.19329
    endloop
  endfacet
  facet normal -0.453991 0 -0.891006
    outer loop
      vertex 1.44765 -2.5 0.876411
      vertex 1.63796 2.5 0.779442
      vertex 1.63796 -2.5 0.779442
    endloop
  endfacet
  facet normal -0.453991 0 -0.891006
    outer loop
      vertex 1.63796 2.5 0.779442
      vertex 1.44765 -2.5 0.876411
      vertex 1.44765 2.5 0.876411
    endloop
  endfacet
  facet normal -0.39715 0 -0.917754
    outer loop
      vertex 1.25162 -2.5 0.96124
      vertex 1.44765 2.5 0.876411
      vertex 1.44765 -2.5 0.876411
    endloop
  endfacet
  facet normal -0.39715 0 -0.917754
    outer loop
      vertex 1.44765 2.5 0.876411
      vertex 1.25162 -2.5 0.96124
      vertex 1.25162 2.5 0.96124
    endloop
  endfacet
  facet normal -0.612907 0 -0.790155
    outer loop
      vertex 1.99847 -2.5 0.550657
      vertex 2.16724 2.5 0.419744
      vertex 2.16724 -2.5 0.419744
    endloop
  endfacet
  facet normal -0.612907 0 -0.790155
    outer loop
      vertex 2.16724 2.5 0.419744
      vertex 1.99847 -2.5 0.550657
      vertex 1.99847 2.5 0.550657
    endloop
  endfacet
  facet normal 0.860742 0 -0.509042
    outer loop
      vertex -2.87071 -2.5 -0.378188
      vertex -2.97944 2.5 -0.562037
      vertex -2.87071 2.5 -0.378188
    endloop
  endfacet
  facet normal 0.860742 0 -0.509042
    outer loop
      vertex -2.97944 2.5 -0.562037
      vertex -2.87071 -2.5 -0.378188
      vertex -2.97944 -2.5 -0.562037
    endloop
  endfacet
  facet normal 0.827081 0 -0.562083
    outer loop
      vertex -2.75066 -2.5 -0.20153
      vertex -2.87071 2.5 -0.378188
      vertex -2.75066 2.5 -0.20153
    endloop
  endfacet
  facet normal 0.827081 0 -0.562083
    outer loop
      vertex -2.87071 2.5 -0.378188
      vertex -2.75066 -2.5 -0.20153
      vertex -2.87071 -2.5 -0.378188
    endloop
  endfacet
  facet normal 0.750109 0 -0.661315
    outer loop
      vertex -2.47849 -2.5 0.12746
      vertex -2.61974 2.5 -0.0327578
      vertex -2.47849 2.5 0.12746
    endloop
  endfacet
  facet normal 0.750109 0 -0.661315
    outer loop
      vertex -2.61974 2.5 -0.0327578
      vertex -2.47849 -2.5 0.12746
      vertex -2.61974 -2.5 -0.0327578
    endloop
  endfacet
  facet normal -0.975917 0 -0.218142
    outer loop
      vertex 3.33978 -2.5 -1.5629
      vertex 3.29318 2.5 -1.35445
      vertex 3.33978 2.5 -1.5629
    endloop
  endfacet
  facet normal -0.975917 -0 -0.218142
    outer loop
      vertex 3.29318 2.5 -1.35445
      vertex 3.33978 -2.5 -1.5629
      vertex 3.29318 -2.5 -1.35445
    endloop
  endfacet
  facet normal -0.917754 0 -0.39715
    outer loop
      vertex 3.16124 -2.5 -0.948376
      vertex 3.07641 2.5 -0.75235
      vertex 3.16124 2.5 -0.948376
    endloop
  endfacet
  facet normal -0.917754 -0 -0.39715
    outer loop
      vertex 3.07641 2.5 -0.75235
      vertex 3.16124 -2.5 -0.948376
      vertex 3.07641 -2.5 -0.75235
    endloop
  endfacet
  facet normal -0.218143 0 -0.975917
    outer loop
      vertex 0.637096 -2.5 1.13978
      vertex 0.845545 2.5 1.09318
      vertex 0.845545 -2.5 1.09318
    endloop
  endfacet
  facet normal -0.218143 0 -0.975917
    outer loop
      vertex 0.845545 2.5 1.09318
      vertex 0.637096 -2.5 1.13978
      vertex 0.637096 2.5 1.13978
    endloop
  endfacet
  facet normal -0.0314107 0 -0.999507
    outer loop
      vertex 0 -2.5 1.2
      vertex 0.213488 2.5 1.19329
      vertex 0.213488 -2.5 1.19329
    endloop
  endfacet
  facet normal -0.0314107 0 -0.999507
    outer loop
      vertex 0.213488 2.5 1.19329
      vertex 0 -2.5 1.2
      vertex 0 2.5 1.2
    endloop
  endfacet
  facet normal -0.995562 0 0.0941073
    outer loop
      vertex 3.38511 -2.5 -2.5
      vertex 3.39329 2.5 -2.41349
      vertex 3.38511 2.5 -2.5
    endloop
  endfacet
  facet normal -0.995562 0 0.0941073
    outer loop
      vertex 3.39329 2.5 -2.41349
      vertex 3.38511 -2.5 -2.5
      vertex 3.39329 -2.5 -2.41349
    endloop
  endfacet
  facet normal -0.999507 0 0.0314107
    outer loop
      vertex 3.39329 -2.5 -2.41349
      vertex 3.4 2.5 -2.2
      vertex 3.39329 2.5 -2.41349
    endloop
  endfacet
  facet normal -0.999507 0 0.0314107
    outer loop
      vertex 3.4 2.5 -2.2
      vertex 3.39329 -2.5 -2.41349
      vertex 3.4 -2.5 -2.2
    endloop
  endfacet
  facet normal 0.995562 -0 0.0941073
    outer loop
      vertex -3.39329 -2.5 -2.41349
      vertex -3.38511 2.5 -2.5
      vertex -3.39329 2.5 -2.41349
    endloop
  endfacet
  facet normal 0.995562 0 0.0941073
    outer loop
      vertex -3.38511 2.5 -2.5
      vertex -3.39329 -2.5 -2.41349
      vertex -3.38511 -2.5 -2.5
    endloop
  endfacet
  facet normal 0.999507 -0 0.0314107
    outer loop
      vertex -3.4 -2.5 -2.2
      vertex -3.39329 2.5 -2.41349
      vertex -3.4 2.5 -2.2
    endloop
  endfacet
  facet normal 0.999507 0 0.0314107
    outer loop
      vertex -3.39329 2.5 -2.41349
      vertex -3.4 -2.5 -2.2
      vertex -3.39329 -2.5 -2.41349
    endloop
  endfacet
  facet normal 0.39715 0 -0.917754
    outer loop
      vertex -1.44765 -2.5 0.876411
      vertex -1.25162 2.5 0.96124
      vertex -1.25162 -2.5 0.96124
    endloop
  endfacet
  facet normal 0.39715 0 -0.917754
    outer loop
      vertex -1.25162 2.5 0.96124
      vertex -1.44765 -2.5 0.876411
      vertex -1.44765 2.5 0.876411
    endloop
  endfacet
  facet normal 0.995562 0 -0.0941068
    outer loop
      vertex -3.37319 -2.5 -1.77387
      vertex -3.39329 2.5 -1.98651
      vertex -3.37319 2.5 -1.77387
    endloop
  endfacet
  facet normal 0.995562 0 -0.0941068
    outer loop
      vertex -3.39329 2.5 -1.98651
      vertex -3.37319 -2.5 -1.77387
      vertex -3.39329 -2.5 -1.98651
    endloop
  endfacet
  facet normal 0.999507 0 -0.0314107
    outer loop
      vertex -3.39329 -2.5 -1.98651
      vertex -3.4 2.5 -2.2
      vertex -3.39329 2.5 -1.98651
    endloop
  endfacet
  facet normal 0.999507 0 -0.0314107
    outer loop
      vertex -3.4 2.5 -2.2
      vertex -3.39329 -2.5 -1.98651
      vertex -3.4 -2.5 -2.2
    endloop
  endfacet
  facet normal 0.338735 0 -0.940882
    outer loop
      vertex -1.25162 -2.5 0.96124
      vertex -1.05066 2.5 1.03359
      vertex -1.05066 -2.5 1.03359
    endloop
  endfacet
  facet normal 0.338735 0 -0.940882
    outer loop
      vertex -1.05066 2.5 1.03359
      vertex -1.25162 -2.5 0.96124
      vertex -1.25162 2.5 0.96124
    endloop
  endfacet
  facet normal 0.218143 0 -0.975917
    outer loop
      vertex -0.845545 -2.5 1.09318
      vertex -0.637096 2.5 1.13978
      vertex -0.637096 -2.5 1.13978
    endloop
  endfacet
  facet normal 0.218143 0 -0.975917
    outer loop
      vertex -0.637096 2.5 1.13978
      vertex -0.845545 -2.5 1.09318
      vertex -0.845545 2.5 1.09318
    endloop
  endfacet
  facet normal 0.278994 0 -0.960293
    outer loop
      vertex -1.05066 -2.5 1.03359
      vertex -0.845545 2.5 1.09318
      vertex -0.845545 -2.5 1.09318
    endloop
  endfacet
  facet normal 0.278994 0 -0.960293
    outer loop
      vertex -0.845545 2.5 1.09318
      vertex -1.05066 -2.5 1.03359
      vertex -1.05066 2.5 1.03359
    endloop
  endfacet
  facet normal 0.509041 0 -0.860742
    outer loop
      vertex -1.82181 -2.5 0.670714
      vertex -1.63796 2.5 0.779442
      vertex -1.63796 -2.5 0.779442
    endloop
  endfacet
  facet normal 0.509041 0 -0.860742
    outer loop
      vertex -1.63796 2.5 0.779442
      vertex -1.82181 -2.5 0.670714
      vertex -1.82181 2.5 0.670714
    endloop
  endfacet
  facet normal 0.453991 0 -0.891006
    outer loop
      vertex -1.63796 -2.5 0.779442
      vertex -1.44765 2.5 0.876411
      vertex -1.44765 -2.5 0.876411
    endloop
  endfacet
  facet normal 0.453991 0 -0.891006
    outer loop
      vertex -1.44765 2.5 0.876411
      vertex -1.63796 -2.5 0.779442
      vertex -1.63796 2.5 0.779442
    endloop
  endfacet
  facet normal 0.562083 0 -0.827081
    outer loop
      vertex -1.99847 -2.5 0.550657
      vertex -1.82181 2.5 0.670714
      vertex -1.82181 -2.5 0.670714
    endloop
  endfacet
  facet normal 0.562083 0 -0.827081
    outer loop
      vertex -1.82181 2.5 0.670714
      vertex -1.99847 -2.5 0.550657
      vertex -1.99847 2.5 0.550657
    endloop
  endfacet
  facet normal 0.661312 0 -0.750111
    outer loop
      vertex -2.32746 -2.5 0.278493
      vertex -2.16724 2.5 0.419744
      vertex -2.16724 -2.5 0.419744
    endloop
  endfacet
  facet normal 0.661312 0 -0.750111
    outer loop
      vertex -2.16724 2.5 0.419744
      vertex -2.32746 -2.5 0.278493
      vertex -2.32746 2.5 0.278493
    endloop
  endfacet
  facet normal 0.987688 0 -0.156437
    outer loop
      vertex -3.33978 -2.5 -1.5629
      vertex -3.37319 2.5 -1.77387
      vertex -3.33978 2.5 -1.5629
    endloop
  endfacet
  facet normal 0.987688 0 -0.156437
    outer loop
      vertex -3.37319 2.5 -1.77387
      vertex -3.33978 -2.5 -1.5629
      vertex -3.37319 -2.5 -1.77387
    endloop
  endfacet
  facet normal 0.790155 0 -0.612907
    outer loop
      vertex -2.61974 -2.5 -0.0327578
      vertex -2.75066 2.5 -0.20153
      vertex -2.61974 2.5 -0.0327578
    endloop
  endfacet
  facet normal 0.790155 0 -0.612907
    outer loop
      vertex -2.75066 2.5 -0.20153
      vertex -2.61974 -2.5 -0.0327578
      vertex -2.75066 -2.5 -0.20153
    endloop
  endfacet
  facet normal 0.156432 0 -0.987689
    outer loop
      vertex -0.637096 -2.5 1.13978
      vertex -0.426132 2.5 1.17319
      vertex -0.426132 -2.5 1.17319
    endloop
  endfacet
  facet normal 0.156432 0 -0.987689
    outer loop
      vertex -0.426132 2.5 1.17319
      vertex -0.637096 -2.5 1.13978
      vertex -0.637096 2.5 1.13978
    endloop
  endfacet
  facet normal 0.0941116 0 -0.995562
    outer loop
      vertex -0.426132 -2.5 1.17319
      vertex -0.213488 2.5 1.19329
      vertex -0.213488 -2.5 1.19329
    endloop
  endfacet
  facet normal 0.0941116 0 -0.995562
    outer loop
      vertex -0.213488 2.5 1.19329
      vertex -0.426132 -2.5 1.17319
      vertex -0.426132 2.5 1.17319
    endloop
  endfacet
  facet normal 0.612907 0 -0.790155
    outer loop
      vertex -2.16724 -2.5 0.419744
      vertex -1.99847 2.5 0.550657
      vertex -1.99847 -2.5 0.550657
    endloop
  endfacet
  facet normal 0.612907 0 -0.790155
    outer loop
      vertex -1.99847 2.5 0.550657
      vertex -2.16724 -2.5 0.419744
      vertex -2.16724 2.5 0.419744
    endloop
  endfacet
  facet normal 0.960294 0 -0.27899
    outer loop
      vertex -3.23359 -2.5 -1.14934
      vertex -3.29318 2.5 -1.35445
      vertex -3.23359 2.5 -1.14934
    endloop
  endfacet
  facet normal 0.960294 0 -0.27899
    outer loop
      vertex -3.29318 2.5 -1.35445
      vertex -3.23359 -2.5 -1.14934
      vertex -3.29318 -2.5 -1.35445
    endloop
  endfacet
  facet normal 0.975917 0 -0.218142
    outer loop
      vertex -3.29318 -2.5 -1.35445
      vertex -3.33978 2.5 -1.5629
      vertex -3.29318 2.5 -1.35445
    endloop
  endfacet
  facet normal 0.975917 0 -0.218142
    outer loop
      vertex -3.33978 2.5 -1.5629
      vertex -3.29318 -2.5 -1.35445
      vertex -3.33978 -2.5 -1.5629
    endloop
  endfacet
  facet normal 0.891007 0 -0.453989
    outer loop
      vertex -2.97944 -2.5 -0.562037
      vertex -3.07641 2.5 -0.75235
      vertex -2.97944 2.5 -0.562037
    endloop
  endfacet
  facet normal 0.891007 0 -0.453989
    outer loop
      vertex -3.07641 2.5 -0.75235
      vertex -2.97944 -2.5 -0.562037
      vertex -3.07641 -2.5 -0.75235
    endloop
  endfacet
  facet normal 0.917754 0 -0.39715
    outer loop
      vertex -3.07641 -2.5 -0.75235
      vertex -3.16124 2.5 -0.948376
      vertex -3.07641 2.5 -0.75235
    endloop
  endfacet
  facet normal 0.917754 0 -0.39715
    outer loop
      vertex -3.16124 2.5 -0.948376
      vertex -3.07641 -2.5 -0.75235
      vertex -3.16124 -2.5 -0.948376
    endloop
  endfacet
endsolid OpenSCAD_Model
