solid OpenSCAD_Model
  facet normal -1 0 0
    outer loop
      vertex -5 -2.5 -2.5
      vertex -5 2.5 2.5
      vertex -5 2.5 -2.5
    endloop
  endfacet
  facet normal -1 -0 0
    outer loop
      vertex -5 2.5 2.5
      vertex -5 -2.5 -2.5
      vertex -5 -2.5 2.5
    endloop
  endfacet
  facet normal -0 0 1
    outer loop
      vertex -5 2.5 2.5
      vertex 5 -2.5 2.5
      vertex 5 2.5 2.5
    endloop
  endfacet
  facet normal 0 0 1
    outer loop
      vertex 5 -2.5 2.5
      vertex -5 2.5 2.5
      vertex -5 -2.5 2.5
    endloop
  endfacet
  facet normal 1 -0 0
    outer loop
      vertex 5 -2.5 2.5
      vertex 5 2.5 -2.5
      vertex 5 2.5 2.5
    endloop
  endfacet
  facet normal 1 0 0
    outer loop
      vertex 5 2.5 -2.5
      vertex 5 -2.5 2.5
      vertex 5 -2.5 -2.5
    endloop
  endfacet
  facet normal 0 1 0
    outer loop
      vertex 5 2.5 2.5
      vertex 0 2.5 0.999999
      vertex -5 2.5 2.5
    endloop
  endfacet
  facet normal 0 1 0
    outer loop
      vertex 5 2.5 2.5
      vertex 0.160116 2.5 0.994967
      vertex 0 2.5 0.999999
    endloop
  endfacet
  facet normal 0 1 0
    outer loop
      vertex 5 2.5 2.5
      vertex 0.213488 2.5 0.99329
      vertex 0.160116 2.5 0.994967
    endloop
  endfacet
  facet normal 0 1 0
    outer loop
      vertex 5 2.5 2.5
      vertex 0.426132 2.5 0.973189
      vertex 0.213488 2.5 0.99329
    endloop
  endfacet
  facet normal 0 1 0
    outer loop
      vertex 5 2.5 2.5
      vertex 0.637096 2.5 0.939776
      vertex 0.426132 2.5 0.973189
    endloop
  endfacet
  facet normal 0 1 0
    outer loop
      vertex 5 2.5 2.5
      vertex 0.845545 2.5 0.893182
      vertex 0.637096 2.5 0.939776
    endloop
  endfacet
  facet normal 0 1 0
    outer loop
      vertex 5 2.5 2.5
      vertex 1.05066 2.5 0.833591
      vertex 0.845545 2.5 0.893182
    endloop
  endfacet
  facet normal 0 1 0
    outer loop
      vertex 5 2.5 2.5
      vertex 1.25162 2.5 0.76124
      vertex 1.05066 2.5 0.833591
    endloop
  endfacet
  facet normal 0 1 0
    outer loop
      vertex 5 2.5 2.5
      vertex 1.44765 2.5 0.676412
      vertex 1.25162 2.5 0.76124
    endloop
  endfacet
  facet normal 0 1 0
    outer loop
      vertex 5 2.5 2.5
      vertex 1.63796 2.5 0.579442
      vertex 1.44765 2.5 0.676412
    endloop
  endfacet
  facet normal 0 1 0
    outer loop
      vertex 5 2.5 2.5
      vertex 1.82181 2.5 0.470715
      vertex 1.63796 2.5 0.579442
    endloop
  endfacet
  facet normal 0 1 0
    outer loop
      vertex 5 2.5 2.5
      vertex 1.99847 2.5 0.350657
      vertex 1.82181 2.5 0.470715
    endloop
  endfacet
  facet normal 0 1 0
    outer loop
      vertex 5 2.5 2.5
      vertex 2.16724 2.5 0.219745
      vertex 1.99847 2.5 0.350657
    endloop
  endfacet
  facet normal 0 1 0
    outer loop
      vertex 5 2.5 2.5
      vertex 2.32746 2.5 0.0784931
      vertex 2.16724 2.5 0.219745
    endloop
  endfacet
  facet normal 0 1 0
    outer loop
      vertex 5 2.5 2.5
      vertex 2.47849 2.5 -0.0725393
      vertex 2.32746 2.5 0.0784931
    endloop
  endfacet
  facet normal 0 1 0
    outer loop
      vertex 5 2.5 2.5
      vertex 2.61974 2.5 -0.232758
      vertex 2.47849 2.5 -0.0725393
    endloop
  endfacet
  facet normal 0 1 0
    outer loop
      vertex 5 2.5 2.5
      vertex 2.75066 2.5 -0.401529
      vertex 2.61974 2.5 -0.232758
    endloop
  endfacet
  facet normal 0 1 0
    outer loop
      vertex 5 2.5 2.5
      vertex 2.87071 2.5 -0.578189
      vertex 2.75066 2.5 -0.401529
    endloop
  endfacet
  facet normal 0 1 0
    outer loop
      vertex 5 2.5 2.5
      vertex 2.97944 2.5 -0.762037
      vertex 2.87071 2.5 -0.578189
    endloop
  endfacet
  facet normal 0 1 0
    outer loop
      vertex 5 2.5 2.5
      vertex 3.07641 2.5 -0.95235
      vertex 2.97944 2.5 -0.762037
    endloop
  endfacet
  facet normal 0 1 -0
    outer loop
      vertex 5 2.5 -2.5
      vertex 3.07641 2.5 -0.95235
      vertex 5 2.5 2.5
    endloop
  endfacet
  facet normal 0 1 0
    outer loop
      vertex 3.07641 2.5 -0.95235
      vertex 5 2.5 -2.5
      vertex 3.16124 2.5 -1.14838
    endloop
  endfacet
  facet normal 0 1 0
    outer loop
      vertex 3.16124 2.5 -1.14838
      vertex 5 2.5 -2.5
      vertex 3.23359 2.5 -1.34934
    endloop
  endfacet
  facet normal 0 1 0
    outer loop
      vertex 3.23359 2.5 -1.34934
      vertex 5 2.5 -2.5
      vertex 3.29318 2.5 -1.55445
    endloop
  endfacet
  facet normal 0 1 0
    outer loop
      vertex 3.29318 2.5 -1.55445
      vertex 5 2.5 -2.5
      vertex 3.33978 2.5 -1.7629
    endloop
  endfacet
  facet normal 0 1 0
    outer loop
      vertex 3.33978 2.5 -1.7629
      vertex 5 2.5 -2.5
      vertex 3.37319 2.5 -1.97387
    endloop
  endfacet
  facet normal 0 1 0
    outer loop
      vertex 3.37319 2.5 -1.97387
      vertex 5 2.5 -2.5
      vertex 3.39329 2.5 -2.18651
    endloop
  endfacet
  facet normal 0 1 0
    outer loop
      vertex 3.39329 2.5 -2.18651
      vertex 5 2.5 -2.5
      vertex 3.4 2.5 -2.4
    endloop
  endfacet
  facet normal 0 1 0
    outer loop
      vertex 3.4 2.5 -2.4
      vertex 5 2.5 -2.5
      vertex 3.39686 2.5 -2.5
    endloop
  endfacet
  facet normal 0 1 -0
    outer loop
      vertex -0.160116 2.5 0.994967
      vertex -5 2.5 2.5
      vertex 0 2.5 0.999999
    endloop
  endfacet
  facet normal 0 1 -0
    outer loop
      vertex -0.213488 2.5 0.99329
      vertex -5 2.5 2.5
      vertex -0.160116 2.5 0.994967
    endloop
  endfacet
  facet normal 0 1 -0
    outer loop
      vertex -0.426132 2.5 0.973189
      vertex -5 2.5 2.5
      vertex -0.213488 2.5 0.99329
    endloop
  endfacet
  facet normal 0 1 -0
    outer loop
      vertex -0.637096 2.5 0.939776
      vertex -5 2.5 2.5
      vertex -0.426132 2.5 0.973189
    endloop
  endfacet
  facet normal 0 1 -0
    outer loop
      vertex -0.845545 2.5 0.893182
      vertex -5 2.5 2.5
      vertex -0.637096 2.5 0.939776
    endloop
  endfacet
  facet normal 0 1 -0
    outer loop
      vertex -1.05066 2.5 0.833591
      vertex -5 2.5 2.5
      vertex -0.845545 2.5 0.893182
    endloop
  endfacet
  facet normal 0 1 -0
    outer loop
      vertex -1.25162 2.5 0.76124
      vertex -5 2.5 2.5
      vertex -1.05066 2.5 0.833591
    endloop
  endfacet
  facet normal 0 1 -0
    outer loop
      vertex -1.44765 2.5 0.676412
      vertex -5 2.5 2.5
      vertex -1.25162 2.5 0.76124
    endloop
  endfacet
  facet normal 0 1 -0
    outer loop
      vertex -1.63796 2.5 0.579442
      vertex -5 2.5 2.5
      vertex -1.44765 2.5 0.676412
    endloop
  endfacet
  facet normal 0 1 -0
    outer loop
      vertex -1.82181 2.5 0.470715
      vertex -5 2.5 2.5
      vertex -1.63796 2.5 0.579442
    endloop
  endfacet
  facet normal 0 1 -0
    outer loop
      vertex -1.99847 2.5 0.350657
      vertex -5 2.5 2.5
      vertex -1.82181 2.5 0.470715
    endloop
  endfacet
  facet normal 0 1 -0
    outer loop
      vertex -2.16724 2.5 0.219745
      vertex -5 2.5 2.5
      vertex -1.99847 2.5 0.350657
    endloop
  endfacet
  facet normal 0 1 -0
    outer loop
      vertex -2.32746 2.5 0.0784931
      vertex -5 2.5 2.5
      vertex -2.16724 2.5 0.219745
    endloop
  endfacet
  facet normal 0 1 -0
    outer loop
      vertex -2.47849 2.5 -0.0725393
      vertex -5 2.5 2.5
      vertex -2.32746 2.5 0.0784931
    endloop
  endfacet
  facet normal 0 1 -0
    outer loop
      vertex -2.61974 2.5 -0.232758
      vertex -5 2.5 2.5
      vertex -2.47849 2.5 -0.0725393
    endloop
  endfacet
  facet normal 0 1 -0
    outer loop
      vertex -2.75066 2.5 -0.401529
      vertex -5 2.5 2.5
      vertex -2.61974 2.5 -0.232758
    endloop
  endfacet
  facet normal 0 1 -0
    outer loop
      vertex -2.87071 2.5 -0.578189
      vertex -5 2.5 2.5
      vertex -2.75066 2.5 -0.401529
    endloop
  endfacet
  facet normal 0 1 -0
    outer loop
      vertex -2.97944 2.5 -0.762037
      vertex -5 2.5 2.5
      vertex -2.87071 2.5 -0.578189
    endloop
  endfacet
  facet normal 0 1 -0
    outer loop
      vertex -3.07641 2.5 -0.95235
      vertex -5 2.5 2.5
      vertex -2.97944 2.5 -0.762037
    endloop
  endfacet
  facet normal 0 1 0
    outer loop
      vertex -5 2.5 -2.5
      vertex -3.07641 2.5 -0.95235
      vertex -3.16124 2.5 -1.14838
    endloop
  endfacet
  facet normal 0 1 0
    outer loop
      vertex -5 2.5 -2.5
      vertex -3.16124 2.5 -1.14838
      vertex -3.23359 2.5 -1.34934
    endloop
  endfacet
  facet normal 0 1 0
    outer loop
      vertex -5 2.5 -2.5
      vertex -3.23359 2.5 -1.34934
      vertex -3.29318 2.5 -1.55445
    endloop
  endfacet
  facet normal 0 1 0
    outer loop
      vertex -5 2.5 -2.5
      vertex -3.29318 2.5 -1.55445
      vertex -3.33978 2.5 -1.7629
    endloop
  endfacet
  facet normal 0 1 0
    outer loop
      vertex -5 2.5 -2.5
      vertex -3.33978 2.5 -1.7629
      vertex -3.37319 2.5 -1.97387
    endloop
  endfacet
  facet normal 0 1 0
    outer loop
      vertex -5 2.5 -2.5
      vertex -3.37319 2.5 -1.97387
      vertex -3.39329 2.5 -2.18651
    endloop
  endfacet
  facet normal 0 1 0
    outer loop
      vertex -5 2.5 -2.5
      vertex -3.39329 2.5 -2.18651
      vertex -3.4 2.5 -2.4
    endloop
  endfacet
  facet normal 0 1 0
    outer loop
      vertex -5 2.5 -2.5
      vertex -3.4 2.5 -2.4
      vertex -3.39686 2.5 -2.5
    endloop
  endfacet
  facet normal 0 1 0
    outer loop
      vertex -3.07641 2.5 -0.95235
      vertex -5 2.5 -2.5
      vertex -5 2.5 2.5
    endloop
  endfacet
  facet normal 0 0 -1
    outer loop
      vertex -5 -2.5 -2.5
      vertex -3.39686 2.5 -2.5
      vertex -3.39686 -2.5 -2.5
    endloop
  endfacet
  facet normal -0 0 -1
    outer loop
      vertex -3.39686 2.5 -2.5
      vertex -5 -2.5 -2.5
      vertex -5 2.5 -2.5
    endloop
  endfacet
  facet normal 0 0 -1
    outer loop
      vertex 3.39686 -2.5 -2.5
      vertex 5 2.5 -2.5
      vertex 5 -2.5 -2.5
    endloop
  endfacet
  facet normal -0 0 -1
    outer loop
      vertex 5 2.5 -2.5
      vertex 3.39686 -2.5 -2.5
      vertex 3.39686 2.5 -2.5
    endloop
  endfacet
  facet normal 0 -1 0
    outer loop
      vertex -5 -2.5 2.5
      vertex 0 -2.5 1
      vertex 5 -2.5 2.5
    endloop
  endfacet
  facet normal 0 -1 0
    outer loop
      vertex -5 -2.5 2.5
      vertex -0.0533719 -2.5 0.998322
      vertex 0 -2.5 1
    endloop
  endfacet
  facet normal 0 -1 0
    outer loop
      vertex -5 -2.5 2.5
      vertex -0.213488 -2.5 0.99329
      vertex -0.0533719 -2.5 0.998322
    endloop
  endfacet
  facet normal 0 -1 0
    outer loop
      vertex -5 -2.5 2.5
      vertex -0.426132 -2.5 0.973189
      vertex -0.213488 -2.5 0.99329
    endloop
  endfacet
  facet normal 0 -1 0
    outer loop
      vertex -5 -2.5 2.5
      vertex -0.637096 -2.5 0.939776
      vertex -0.426132 -2.5 0.973189
    endloop
  endfacet
  facet normal 0 -1 0
    outer loop
      vertex -5 -2.5 2.5
      vertex -0.845545 -2.5 0.893182
      vertex -0.637096 -2.5 0.939776
    endloop
  endfacet
  facet normal 0 -1 0
    outer loop
      vertex -5 -2.5 2.5
      vertex -1.05066 -2.5 0.833591
      vertex -0.845545 -2.5 0.893182
    endloop
  endfacet
  facet normal 0 -1 0
    outer loop
      vertex -5 -2.5 2.5
      vertex -1.25162 -2.5 0.76124
      vertex -1.05066 -2.5 0.833591
    endloop
  endfacet
  facet normal 0 -1 0
    outer loop
      vertex -5 -2.5 2.5
      vertex -1.44765 -2.5 0.676412
      vertex -1.25162 -2.5 0.76124
    endloop
  endfacet
  facet normal 0 -1 0
    outer loop
      vertex -5 -2.5 2.5
      vertex -1.63796 -2.5 0.579442
      vertex -1.44765 -2.5 0.676412
    endloop
  endfacet
  facet normal 0 -1 0
    outer loop
      vertex -5 -2.5 2.5
      vertex -1.82181 -2.5 0.470715
      vertex -1.63796 -2.5 0.579442
    endloop
  endfacet
  facet normal 0 -1 0
    outer loop
      vertex -5 -2.5 2.5
      vertex -1.99847 -2.5 0.350657
      vertex -1.82181 -2.5 0.470715
    endloop
  endfacet
  facet normal 0 -1 0
    outer loop
      vertex -5 -2.5 2.5
      vertex -2.16724 -2.5 0.219745
      vertex -1.99847 -2.5 0.350657
    endloop
  endfacet
  facet normal 0 -1 0
    outer loop
      vertex -5 -2.5 2.5
      vertex -2.32746 -2.5 0.0784931
      vertex -2.16724 -2.5 0.219745
    endloop
  endfacet
  facet normal 0 -1 0
    outer loop
      vertex -5 -2.5 2.5
      vertex -2.47849 -2.5 -0.0725393
      vertex -2.32746 -2.5 0.0784931
    endloop
  endfacet
  facet normal 0 -1 0
    outer loop
      vertex -5 -2.5 2.5
      vertex -2.61974 -2.5 -0.232758
      vertex -2.47849 -2.5 -0.0725393
    endloop
  endfacet
  facet normal 0 -1 0
    outer loop
      vertex -5 -2.5 2.5
      vertex -2.75066 -2.5 -0.401529
      vertex -2.61974 -2.5 -0.232758
    endloop
  endfacet
  facet normal 0 -1 0
    outer loop
      vertex -5 -2.5 2.5
      vertex -2.87071 -2.5 -0.578189
      vertex -2.75066 -2.5 -0.401529
    endloop
  endfacet
  facet normal 0 -1 0
    outer loop
      vertex -5 -2.5 2.5
      vertex -2.97944 -2.5 -0.762037
      vertex -2.87071 -2.5 -0.578189
    endloop
  endfacet
  facet normal 0 -1 0
    outer loop
      vertex -5 -2.5 2.5
      vertex -3.07641 -2.5 -0.95235
      vertex -2.97944 -2.5 -0.762037
    endloop
  endfacet
  facet normal 0 -1 0
    outer loop
      vertex -5 -2.5 -2.5
      vertex -3.07641 -2.5 -0.95235
      vertex -5 -2.5 2.5
    endloop
  endfacet
  facet normal 0 -1 0
    outer loop
      vertex -3.07641 -2.5 -0.95235
      vertex -5 -2.5 -2.5
      vertex -3.16124 -2.5 -1.14838
    endloop
  endfacet
  facet normal 0 -1 0
    outer loop
      vertex -3.16124 -2.5 -1.14838
      vertex -5 -2.5 -2.5
      vertex -3.23359 -2.5 -1.34934
    endloop
  endfacet
  facet normal 0 -1 0
    outer loop
      vertex -3.23359 -2.5 -1.34934
      vertex -5 -2.5 -2.5
      vertex -3.29318 -2.5 -1.55445
    endloop
  endfacet
  facet normal 0 -1 0
    outer loop
      vertex -3.29318 -2.5 -1.55445
      vertex -5 -2.5 -2.5
      vertex -3.33978 -2.5 -1.7629
    endloop
  endfacet
  facet normal 0 -1 0
    outer loop
      vertex -3.33978 -2.5 -1.7629
      vertex -5 -2.5 -2.5
      vertex -3.37319 -2.5 -1.97387
    endloop
  endfacet
  facet normal 0 -1 0
    outer loop
      vertex -3.37319 -2.5 -1.97387
      vertex -5 -2.5 -2.5
      vertex -3.39329 -2.5 -2.18651
    endloop
  endfacet
  facet normal 0 -1 0
    outer loop
      vertex -3.39329 -2.5 -2.18651
      vertex -5 -2.5 -2.5
      vertex -3.4 -2.5 -2.4
    endloop
  endfacet
  facet normal 0 -1 -0
    outer loop
      vertex -3.4 -2.5 -2.4
      vertex -5 -2.5 -2.5
      vertex -3.39686 -2.5 -2.5
    endloop
  endfacet
  facet normal 0 -1 0
    outer loop
      vertex 0.0533719 -2.5 0.998322
      vertex 5 -2.5 2.5
      vertex 0 -2.5 1
    endloop
  endfacet
  facet normal 0 -1 0
    outer loop
      vertex 0.213488 -2.5 0.99329
      vertex 5 -2.5 2.5
      vertex 0.0533719 -2.5 0.998322
    endloop
  endfacet
  facet normal 0 -1 0
    outer loop
      vertex 0.426132 -2.5 0.973189
      vertex 5 -2.5 2.5
      vertex 0.213488 -2.5 0.99329
    endloop
  endfacet
  facet normal 0 -1 0
    outer loop
      vertex 0.637096 -2.5 0.939776
      vertex 5 -2.5 2.5
      vertex 0.426132 -2.5 0.973189
    endloop
  endfacet
  facet normal 0 -1 0
    outer loop
      vertex 0.845545 -2.5 0.893182
      vertex 5 -2.5 2.5
      vertex 0.637096 -2.5 0.939776
    endloop
  endfacet
  facet normal 0 -1 0
    outer loop
      vertex 1.05066 -2.5 0.833591
      vertex 5 -2.5 2.5
      vertex 0.845545 -2.5 0.893182
    endloop
  endfacet
  facet normal 0 -1 0
    outer loop
      vertex 1.25162 -2.5 0.76124
      vertex 5 -2.5 2.5
      vertex 1.05066 -2.5 0.833591
    endloop
  endfacet
  facet normal 0 -1 0
    outer loop
      vertex 1.44765 -2.5 0.676412
      vertex 5 -2.5 2.5
      vertex 1.25162 -2.5 0.76124
    endloop
  endfacet
  facet normal 0 -1 0
    outer loop
      vertex 1.63796 -2.5 0.579442
      vertex 5 -2.5 2.5
      vertex 1.44765 -2.5 0.676412
    endloop
  endfacet
  facet normal 0 -1 0
    outer loop
      vertex 1.82181 -2.5 0.470715
      vertex 5 -2.5 2.5
      vertex 1.63796 -2.5 0.579442
    endloop
  endfacet
  facet normal 0 -1 0
    outer loop
      vertex 1.99847 -2.5 0.350657
      vertex 5 -2.5 2.5
      vertex 1.82181 -2.5 0.470715
    endloop
  endfacet
  facet normal 0 -1 0
    outer loop
      vertex 2.16724 -2.5 0.219745
      vertex 5 -2.5 2.5
      vertex 1.99847 -2.5 0.350657
    endloop
  endfacet
  facet normal 0 -1 0
    outer loop
      vertex 2.32746 -2.5 0.0784931
      vertex 5 -2.5 2.5
      vertex 2.16724 -2.5 0.219745
    endloop
  endfacet
  facet normal 0 -1 0
    outer loop
      vertex 2.47849 -2.5 -0.0725393
      vertex 5 -2.5 2.5
      vertex 2.32746 -2.5 0.0784931
    endloop
  endfacet
  facet normal 0 -1 0
    outer loop
      vertex 2.61974 -2.5 -0.232758
      vertex 5 -2.5 2.5
      vertex 2.47849 -2.5 -0.0725393
    endloop
  endfacet
  facet normal 0 -1 0
    outer loop
      vertex 2.75066 -2.5 -0.401529
      vertex 5 -2.5 2.5
      vertex 2.61974 -2.5 -0.232758
    endloop
  endfacet
  facet normal 0 -1 0
    outer loop
      vertex 2.87071 -2.5 -0.578189
      vertex 5 -2.5 2.5
      vertex 2.75066 -2.5 -0.401529
    endloop
  endfacet
  facet normal 0 -1 0
    outer loop
      vertex 2.97944 -2.5 -0.762037
      vertex 5 -2.5 2.5
      vertex 2.87071 -2.5 -0.578189
    endloop
  endfacet
  facet normal 0 -1 0
    outer loop
      vertex 3.07641 -2.5 -0.95235
      vertex 5 -2.5 2.5
      vertex 2.97944 -2.5 -0.762037
    endloop
  endfacet
  facet normal 0 -1 0
    outer loop
      vertex 5 -2.5 -2.5
      vertex 3.07641 -2.5 -0.95235
      vertex 3.16124 -2.5 -1.14838
    endloop
  endfacet
  facet normal 0 -1 0
    outer loop
      vertex 5 -2.5 -2.5
      vertex 3.16124 -2.5 -1.14838
      vertex 3.23359 -2.5 -1.34934
    endloop
  endfacet
  facet normal 0 -1 0
    outer loop
      vertex 5 -2.5 -2.5
      vertex 3.23359 -2.5 -1.34934
      vertex 3.29318 -2.5 -1.55445
    endloop
  endfacet
  facet normal 0 -1 0
    outer loop
      vertex 5 -2.5 -2.5
      vertex 3.29318 -2.5 -1.55445
      vertex 3.33978 -2.5 -1.7629
    endloop
  endfacet
  facet normal 0 -1 0
    outer loop
      vertex 5 -2.5 -2.5
      vertex 3.33978 -2.5 -1.7629
      vertex 3.37319 -2.5 -1.97387
    endloop
  endfacet
  facet normal 0 -1 0
    outer loop
      vertex 5 -2.5 -2.5
      vertex 3.37319 -2.5 -1.97387
      vertex 3.39329 -2.5 -2.18651
    endloop
  endfacet
  facet normal 0 -1 0
    outer loop
      vertex 5 -2.5 -2.5
      vertex 3.39329 -2.5 -2.18651
      vertex 3.4 -2.5 -2.4
    endloop
  endfacet
  facet normal 0 -1 0
    outer loop
      vertex 5 -2.5 -2.5
      vertex 3.4 -2.5 -2.4
      vertex 3.39686 -2.5 -2.5
    endloop
  endfacet
  facet normal 0 -1 0
    outer loop
      vertex 3.07641 -2.5 -0.95235
      vertex 5 -2.5 -2.5
      vertex 5 -2.5 2.5
    endloop
  endfacet
  facet normal -0.999507 0 -0.0314107
    outer loop
      vertex 3.4 -2.5 -2.4
      vertex 3.39329 2.5 -2.18651
      vertex 3.4 2.5 -2.4
    endloop
  endfacet
  facet normal -0.999507 -0 -0.0314107
    outer loop
      vertex 3.39329 2.5 -2.18651
      vertex 3.4 -2.5 -2.4
      vertex 3.39329 -2.5 -2.18651
    endloop
  endfacet
  facet normal 0.0314151 0 -0.999506
    outer loop
      vertex -0.213488 -2.5 0.99329
      vertex -0.160116 2.5 0.994967
      vertex -0.0533719 -2.5 0.998322
    endloop
  endfacet
  facet normal 0.0314151 0 -0.999506
    outer loop
      vertex -0.160116 2.5 0.994967
      vertex -0.213488 -2.5 0.99329
      vertex -0.213488 2.5 0.99329
    endloop
  endfacet
  facet normal -0.995562 0 -0.0941068
    outer loop
      vertex 3.39329 -2.5 -2.18651
      vertex 3.37319 2.5 -1.97387
      vertex 3.39329 2.5 -2.18651
    endloop
  endfacet
  facet normal -0.995562 -0 -0.0941068
    outer loop
      vertex 3.37319 2.5 -1.97387
      vertex 3.39329 -2.5 -2.18651
      vertex 3.37319 -2.5 -1.97387
    endloop
  endfacet
  facet normal -0.661312 0 -0.750111
    outer loop
      vertex 2.16724 -2.5 0.219745
      vertex 2.32746 2.5 0.0784931
      vertex 2.32746 -2.5 0.0784931
    endloop
  endfacet
  facet normal -0.661312 0 -0.750111
    outer loop
      vertex 2.32746 2.5 0.0784931
      vertex 2.16724 -2.5 0.219745
      vertex 2.16724 2.5 0.219745
    endloop
  endfacet
  facet normal 0.995562 0 -0.0941068
    outer loop
      vertex -3.37319 -2.5 -1.97387
      vertex -3.39329 2.5 -2.18651
      vertex -3.37319 2.5 -1.97387
    endloop
  endfacet
  facet normal 0.995562 0 -0.0941068
    outer loop
      vertex -3.39329 2.5 -2.18651
      vertex -3.37319 -2.5 -1.97387
      vertex -3.39329 -2.5 -2.18651
    endloop
  endfacet
  facet normal -0.338735 0 -0.940882
    outer loop
      vertex 1.05066 -2.5 0.833591
      vertex 1.25162 2.5 0.76124
      vertex 1.25162 -2.5 0.76124
    endloop
  endfacet
  facet normal -0.338735 0 -0.940882
    outer loop
      vertex 1.25162 2.5 0.76124
      vertex 1.05066 -2.5 0.833591
      vertex 1.05066 2.5 0.833591
    endloop
  endfacet
  facet normal 0.338735 0 -0.940882
    outer loop
      vertex -1.25162 -2.5 0.76124
      vertex -1.05066 2.5 0.833591
      vertex -1.05066 -2.5 0.833591
    endloop
  endfacet
  facet normal 0.338735 0 -0.940882
    outer loop
      vertex -1.05066 2.5 0.833591
      vertex -1.25162 -2.5 0.76124
      vertex -1.25162 2.5 0.76124
    endloop
  endfacet
  facet normal -0.562083 0 -0.827081
    outer loop
      vertex 1.82181 -2.5 0.470715
      vertex 1.99847 2.5 0.350657
      vertex 1.99847 -2.5 0.350657
    endloop
  endfacet
  facet normal -0.562083 0 -0.827081
    outer loop
      vertex 1.99847 2.5 0.350657
      vertex 1.82181 -2.5 0.470715
      vertex 1.82181 2.5 0.470715
    endloop
  endfacet
  facet normal -0.975917 0 -0.218142
    outer loop
      vertex 3.33978 -2.5 -1.7629
      vertex 3.29318 2.5 -1.55445
      vertex 3.33978 2.5 -1.7629
    endloop
  endfacet
  facet normal -0.975917 -0 -0.218142
    outer loop
      vertex 3.29318 2.5 -1.55445
      vertex 3.33978 -2.5 -1.7629
      vertex 3.29318 -2.5 -1.55445
    endloop
  endfacet
  facet normal 0.999507 -0 0.0314103
    outer loop
      vertex -3.4 -2.5 -2.4
      vertex -3.39686 2.5 -2.5
      vertex -3.4 2.5 -2.4
    endloop
  endfacet
  facet normal 0.999507 0 0.0314103
    outer loop
      vertex -3.39686 2.5 -2.5
      vertex -3.4 -2.5 -2.4
      vertex -3.39686 -2.5 -2.5
    endloop
  endfacet
  facet normal 0.156432 0 -0.987689
    outer loop
      vertex -0.637096 -2.5 0.939776
      vertex -0.426132 2.5 0.973189
      vertex -0.426132 -2.5 0.973189
    endloop
  endfacet
  facet normal 0.156432 0 -0.987689
    outer loop
      vertex -0.426132 2.5 0.973189
      vertex -0.637096 -2.5 0.939776
      vertex -0.637096 2.5 0.939776
    endloop
  endfacet
  facet normal 0.960294 0 -0.27899
    outer loop
      vertex -3.23359 -2.5 -1.34934
      vertex -3.29318 2.5 -1.55445
      vertex -3.23359 2.5 -1.34934
    endloop
  endfacet
  facet normal 0.960294 0 -0.27899
    outer loop
      vertex -3.29318 2.5 -1.55445
      vertex -3.23359 -2.5 -1.34934
      vertex -3.29318 -2.5 -1.55445
    endloop
  endfacet
  facet normal 0.39715 0 -0.917754
    outer loop
      vertex -1.44765 -2.5 0.676412
      vertex -1.25162 2.5 0.76124
      vertex -1.25162 -2.5 0.76124
    endloop
  endfacet
  facet normal 0.39715 0 -0.917754
    outer loop
      vertex -1.25162 2.5 0.76124
      vertex -1.44765 -2.5 0.676412
      vertex -1.44765 2.5 0.676412
    endloop
  endfacet
  facet normal -0.707105 0 -0.707109
    outer loop
      vertex 2.32746 -2.5 0.0784931
      vertex 2.47849 2.5 -0.0725393
      vertex 2.47849 -2.5 -0.0725393
    endloop
  endfacet
  facet normal -0.707105 0 -0.707109
    outer loop
      vertex 2.47849 2.5 -0.0725393
      vertex 2.32746 -2.5 0.0784931
      vertex 2.32746 2.5 0.0784931
    endloop
  endfacet
  facet normal -0.960294 0 -0.27899
    outer loop
      vertex 3.29318 -2.5 -1.55445
      vertex 3.23359 2.5 -1.34934
      vertex 3.29318 2.5 -1.55445
    endloop
  endfacet
  facet normal -0.960294 -0 -0.27899
    outer loop
      vertex 3.23359 2.5 -1.34934
      vertex 3.29318 -2.5 -1.55445
      vertex 3.23359 -2.5 -1.34934
    endloop
  endfacet
  facet normal -0.156432 0 -0.987689
    outer loop
      vertex 0.426132 -2.5 0.973189
      vertex 0.637096 2.5 0.939776
      vertex 0.637096 -2.5 0.939776
    endloop
  endfacet
  facet normal -0.156432 0 -0.987689
    outer loop
      vertex 0.637096 2.5 0.939776
      vertex 0.426132 -2.5 0.973189
      vertex 0.426132 2.5 0.973189
    endloop
  endfacet
  facet normal 0.0941072 0 -0.995562
    outer loop
      vertex -0.426132 -2.5 0.973189
      vertex -0.213488 2.5 0.99329
      vertex -0.213488 -2.5 0.99329
    endloop
  endfacet
  facet normal 0.0941072 0 -0.995562
    outer loop
      vertex -0.213488 2.5 0.99329
      vertex -0.426132 -2.5 0.973189
      vertex -0.426132 2.5 0.973189
    endloop
  endfacet
  facet normal 0.987688 0 -0.156437
    outer loop
      vertex -3.33978 -2.5 -1.7629
      vertex -3.37319 2.5 -1.97387
      vertex -3.33978 2.5 -1.7629
    endloop
  endfacet
  facet normal 0.987688 0 -0.156437
    outer loop
      vertex -3.37319 2.5 -1.97387
      vertex -3.33978 -2.5 -1.7629
      vertex -3.37319 -2.5 -1.97387
    endloop
  endfacet
  facet normal 0.750111 0 -0.661312
    outer loop
      vertex -2.47849 -2.5 -0.0725393
      vertex -2.61974 2.5 -0.232758
      vertex -2.47849 2.5 -0.0725393
    endloop
  endfacet
  facet normal 0.750111 0 -0.661312
    outer loop
      vertex -2.61974 2.5 -0.232758
      vertex -2.47849 -2.5 -0.0725393
      vertex -2.61974 -2.5 -0.232758
    endloop
  endfacet
  facet normal 0.509041 0 -0.860742
    outer loop
      vertex -1.82181 -2.5 0.470715
      vertex -1.63796 2.5 0.579442
      vertex -1.63796 -2.5 0.579442
    endloop
  endfacet
  facet normal 0.509041 0 -0.860742
    outer loop
      vertex -1.63796 2.5 0.579442
      vertex -1.82181 -2.5 0.470715
      vertex -1.82181 2.5 0.470715
    endloop
  endfacet
  facet normal 0.891007 0 -0.453989
    outer loop
      vertex -2.97944 -2.5 -0.762037
      vertex -3.07641 2.5 -0.95235
      vertex -2.97944 2.5 -0.762037
    endloop
  endfacet
  facet normal 0.891007 0 -0.453989
    outer loop
      vertex -3.07641 2.5 -0.95235
      vertex -2.97944 -2.5 -0.762037
      vertex -3.07641 -2.5 -0.95235
    endloop
  endfacet
  facet normal 0.94088 0 -0.33874
    outer loop
      vertex -3.16124 -2.5 -1.14838
      vertex -3.23359 2.5 -1.34934
      vertex -3.16124 2.5 -1.14838
    endloop
  endfacet
  facet normal 0.94088 0 -0.33874
    outer loop
      vertex -3.23359 2.5 -1.34934
      vertex -3.16124 -2.5 -1.14838
      vertex -3.23359 -2.5 -1.34934
    endloop
  endfacet
  facet normal -0.218147 0 -0.975916
    outer loop
      vertex 0.637096 -2.5 0.939776
      vertex 0.845545 2.5 0.893182
      vertex 0.845545 -2.5 0.893182
    endloop
  endfacet
  facet normal -0.218147 0 -0.975916
    outer loop
      vertex 0.845545 2.5 0.893182
      vertex 0.637096 -2.5 0.939776
      vertex 0.637096 2.5 0.939776
    endloop
  endfacet
  facet normal -0.612907 0 -0.790155
    outer loop
      vertex 1.99847 -2.5 0.350657
      vertex 2.16724 2.5 0.219745
      vertex 2.16724 -2.5 0.219745
    endloop
  endfacet
  facet normal -0.612907 0 -0.790155
    outer loop
      vertex 2.16724 2.5 0.219745
      vertex 1.99847 -2.5 0.350657
      vertex 1.99847 2.5 0.350657
    endloop
  endfacet
  facet normal -0.509041 0 -0.860742
    outer loop
      vertex 1.63796 -2.5 0.579442
      vertex 1.82181 2.5 0.470715
      vertex 1.82181 -2.5 0.470715
    endloop
  endfacet
  facet normal -0.509041 0 -0.860742
    outer loop
      vertex 1.82181 2.5 0.470715
      vertex 1.63796 -2.5 0.579442
      vertex 1.63796 2.5 0.579442
    endloop
  endfacet
  facet normal -0.827082 0 -0.562081
    outer loop
      vertex 2.87071 -2.5 -0.578189
      vertex 2.75066 2.5 -0.401529
      vertex 2.87071 2.5 -0.578189
    endloop
  endfacet
  facet normal -0.827082 -0 -0.562081
    outer loop
      vertex 2.75066 2.5 -0.401529
      vertex 2.87071 -2.5 -0.578189
      vertex 2.75066 -2.5 -0.401529
    endloop
  endfacet
  facet normal -0.750111 0 -0.661312
    outer loop
      vertex 2.61974 -2.5 -0.232758
      vertex 2.47849 2.5 -0.0725393
      vertex 2.61974 2.5 -0.232758
    endloop
  endfacet
  facet normal -0.750111 -0 -0.661312
    outer loop
      vertex 2.47849 2.5 -0.0725393
      vertex 2.61974 -2.5 -0.232758
      vertex 2.47849 -2.5 -0.0725393
    endloop
  endfacet
  facet normal -0.790155 0 -0.612907
    outer loop
      vertex 2.75066 -2.5 -0.401529
      vertex 2.61974 2.5 -0.232758
      vertex 2.75066 2.5 -0.401529
    endloop
  endfacet
  facet normal -0.790155 -0 -0.612907
    outer loop
      vertex 2.61974 2.5 -0.232758
      vertex 2.75066 -2.5 -0.401529
      vertex 2.61974 -2.5 -0.232758
    endloop
  endfacet
  facet normal -0.917755 0 -0.397148
    outer loop
      vertex 3.16124 -2.5 -1.14838
      vertex 3.07641 2.5 -0.95235
      vertex 3.16124 2.5 -1.14838
    endloop
  endfacet
  facet normal -0.917755 -0 -0.397148
    outer loop
      vertex 3.07641 2.5 -0.95235
      vertex 3.16124 -2.5 -1.14838
      vertex 3.07641 -2.5 -0.95235
    endloop
  endfacet
  facet normal -0.987688 0 -0.156437
    outer loop
      vertex 3.37319 -2.5 -1.97387
      vertex 3.33978 2.5 -1.7629
      vertex 3.37319 2.5 -1.97387
    endloop
  endfacet
  facet normal -0.987688 -0 -0.156437
    outer loop
      vertex 3.33978 2.5 -1.7629
      vertex 3.37319 -2.5 -1.97387
      vertex 3.33978 -2.5 -1.7629
    endloop
  endfacet
  facet normal -0.999507 0 0.0314103
    outer loop
      vertex 3.39686 -2.5 -2.5
      vertex 3.4 2.5 -2.4
      vertex 3.39686 2.5 -2.5
    endloop
  endfacet
  facet normal -0.999507 0 0.0314103
    outer loop
      vertex 3.4 2.5 -2.4
      vertex 3.39686 -2.5 -2.5
      vertex 3.4 -2.5 -2.4
    endloop
  endfacet
  facet normal -0.0314107 -9.53204e-08 -0.999507
    outer loop
      vertex 0 2.5 0.999999
      vertex 0.0533719 -2.5 0.998322
      vertex 0 -2.5 1
    endloop
  endfacet
  facet normal -0.0314107 -9.53204e-08 -0.999507
    outer loop
      vertex 0.0533719 -2.5 0.998322
      vertex 0 2.5 0.999999
      vertex 0.160116 2.5 0.994967
    endloop
  endfacet
  facet normal 0.27899 0 -0.960294
    outer loop
      vertex -1.05066 -2.5 0.833591
      vertex -0.845545 2.5 0.893182
      vertex -0.845545 -2.5 0.893182
    endloop
  endfacet
  facet normal 0.27899 0 -0.960294
    outer loop
      vertex -0.845545 2.5 0.893182
      vertex -1.05066 -2.5 0.833591
      vertex -1.05066 2.5 0.833591
    endloop
  endfacet
  facet normal 0.790155 0 -0.612907
    outer loop
      vertex -2.61974 -2.5 -0.232758
      vertex -2.75066 2.5 -0.401529
      vertex -2.61974 2.5 -0.232758
    endloop
  endfacet
  facet normal 0.790155 0 -0.612907
    outer loop
      vertex -2.75066 2.5 -0.401529
      vertex -2.61974 -2.5 -0.232758
      vertex -2.75066 -2.5 -0.401529
    endloop
  endfacet
  facet normal 0.86074 0 -0.509044
    outer loop
      vertex -2.87071 -2.5 -0.578189
      vertex -2.97944 2.5 -0.762037
      vertex -2.87071 2.5 -0.578189
    endloop
  endfacet
  facet normal 0.86074 0 -0.509044
    outer loop
      vertex -2.97944 2.5 -0.762037
      vertex -2.87071 -2.5 -0.578189
      vertex -2.97944 -2.5 -0.762037
    endloop
  endfacet
  facet normal 0.707105 0 -0.707109
    outer loop
      vertex -2.47849 -2.5 -0.0725393
      vertex -2.32746 2.5 0.0784931
      vertex -2.32746 -2.5 0.0784931
    endloop
  endfacet
  facet normal 0.707105 0 -0.707109
    outer loop
      vertex -2.32746 2.5 0.0784931
      vertex -2.47849 -2.5 -0.0725393
      vertex -2.47849 2.5 -0.0725393
    endloop
  endfacet
  facet normal 0.661312 0 -0.750111
    outer loop
      vertex -2.32746 -2.5 0.0784931
      vertex -2.16724 2.5 0.219745
      vertex -2.16724 -2.5 0.219745
    endloop
  endfacet
  facet normal 0.661312 0 -0.750111
    outer loop
      vertex -2.16724 2.5 0.219745
      vertex -2.32746 -2.5 0.0784931
      vertex -2.32746 2.5 0.0784931
    endloop
  endfacet
  facet normal 0.562083 0 -0.827081
    outer loop
      vertex -1.99847 -2.5 0.350657
      vertex -1.82181 2.5 0.470715
      vertex -1.82181 -2.5 0.470715
    endloop
  endfacet
  facet normal 0.562083 0 -0.827081
    outer loop
      vertex -1.82181 2.5 0.470715
      vertex -1.99847 -2.5 0.350657
      vertex -1.99847 2.5 0.350657
    endloop
  endfacet
  facet normal 0.612907 0 -0.790155
    outer loop
      vertex -2.16724 -2.5 0.219745
      vertex -1.99847 2.5 0.350657
      vertex -1.99847 -2.5 0.350657
    endloop
  endfacet
  facet normal 0.612907 0 -0.790155
    outer loop
      vertex -1.99847 2.5 0.350657
      vertex -2.16724 -2.5 0.219745
      vertex -2.16724 2.5 0.219745
    endloop
  endfacet
  facet normal 0.453991 0 -0.891006
    outer loop
      vertex -1.63796 -2.5 0.579442
      vertex -1.44765 2.5 0.676412
      vertex -1.44765 -2.5 0.676412
    endloop
  endfacet
  facet normal 0.453991 0 -0.891006
    outer loop
      vertex -1.44765 2.5 0.676412
      vertex -1.63796 -2.5 0.579442
      vertex -1.63796 2.5 0.579442
    endloop
  endfacet
  facet normal 0.975917 0 -0.218142
    outer loop
      vertex -3.29318 -2.5 -1.55445
      vertex -3.33978 2.5 -1.7629
      vertex -3.29318 2.5 -1.55445
    endloop
  endfacet
  facet normal 0.975917 0 -0.218142
    outer loop
      vertex -3.33978 2.5 -1.7629
      vertex -3.29318 -2.5 -1.55445
      vertex -3.33978 -2.5 -1.7629
    endloop
  endfacet
  facet normal 0.917755 0 -0.397148
    outer loop
      vertex -3.07641 -2.5 -0.95235
      vertex -3.16124 2.5 -1.14838
      vertex -3.07641 2.5 -0.95235
    endloop
  endfacet
  facet normal 0.917755 0 -0.397148
    outer loop
      vertex -3.16124 2.5 -1.14838
      vertex -3.07641 -2.5 -0.95235
      vertex -3.16124 -2.5 -1.14838
    endloop
  endfacet
  facet normal -0.27899 0 -0.960294
    outer loop
      vertex 0.845545 -2.5 0.893182
      vertex 1.05066 2.5 0.833591
      vertex 1.05066 -2.5 0.833591
    endloop
  endfacet
  facet normal -0.27899 0 -0.960294
    outer loop
      vertex 1.05066 2.5 0.833591
      vertex 0.845545 -2.5 0.893182
      vertex 0.845545 2.5 0.893182
    endloop
  endfacet
  facet normal -0.39715 0 -0.917754
    outer loop
      vertex 1.25162 -2.5 0.76124
      vertex 1.44765 2.5 0.676412
      vertex 1.44765 -2.5 0.676412
    endloop
  endfacet
  facet normal -0.39715 0 -0.917754
    outer loop
      vertex 1.44765 2.5 0.676412
      vertex 1.25162 -2.5 0.76124
      vertex 1.25162 2.5 0.76124
    endloop
  endfacet
  facet normal -0.94088 0 -0.33874
    outer loop
      vertex 3.23359 -2.5 -1.34934
      vertex 3.16124 2.5 -1.14838
      vertex 3.23359 2.5 -1.34934
    endloop
  endfacet
  facet normal -0.94088 -0 -0.33874
    outer loop
      vertex 3.16124 2.5 -1.14838
      vertex 3.23359 -2.5 -1.34934
      vertex 3.16124 -2.5 -1.14838
    endloop
  endfacet
  facet normal -0.891007 0 -0.453989
    outer loop
      vertex 3.07641 -2.5 -0.95235
      vertex 2.97944 2.5 -0.762037
      vertex 3.07641 2.5 -0.95235
    endloop
  endfacet
  facet normal -0.891007 -0 -0.453989
    outer loop
      vertex 2.97944 2.5 -0.762037
      vertex 3.07641 -2.5 -0.95235
      vertex 2.97944 -2.5 -0.762037
    endloop
  endfacet
  facet normal 0.999507 0 -0.0314107
    outer loop
      vertex -3.39329 -2.5 -2.18651
      vertex -3.4 2.5 -2.4
      vertex -3.39329 2.5 -2.18651
    endloop
  endfacet
  facet normal 0.999507 0 -0.0314107
    outer loop
      vertex -3.4 2.5 -2.4
      vertex -3.39329 -2.5 -2.18651
      vertex -3.4 -2.5 -2.4
    endloop
  endfacet
  facet normal -0.0941072 0 -0.995562
    outer loop
      vertex 0.213488 -2.5 0.99329
      vertex 0.426132 2.5 0.973189
      vertex 0.426132 -2.5 0.973189
    endloop
  endfacet
  facet normal -0.0941072 0 -0.995562
    outer loop
      vertex 0.426132 2.5 0.973189
      vertex 0.213488 -2.5 0.99329
      vertex 0.213488 2.5 0.99329
    endloop
  endfacet
  facet normal -0.0314151 0 -0.999506
    outer loop
      vertex 0.213488 -2.5 0.99329
      vertex 0.160116 2.5 0.994967
      vertex 0.213488 2.5 0.99329
    endloop
  endfacet
  facet normal -0.0314151 0 -0.999506
    outer loop
      vertex 0.160116 2.5 0.994967
      vertex 0.213488 -2.5 0.99329
      vertex 0.0533719 -2.5 0.998322
    endloop
  endfacet
  facet normal 0.0314107 -9.53204e-08 -0.999507
    outer loop
      vertex -0.0533719 -2.5 0.998322
      vertex 0 2.5 0.999999
      vertex 0 -2.5 1
    endloop
  endfacet
  facet normal 0.0314107 -9.53204e-08 -0.999507
    outer loop
      vertex 0 2.5 0.999999
      vertex -0.0533719 -2.5 0.998322
      vertex -0.160116 2.5 0.994967
    endloop
  endfacet
  facet normal 0.218147 0 -0.975916
    outer loop
      vertex -0.845545 -2.5 0.893182
      vertex -0.637096 2.5 0.939776
      vertex -0.637096 -2.5 0.939776
    endloop
  endfacet
  facet normal 0.218147 0 -0.975916
    outer loop
      vertex -0.637096 2.5 0.939776
      vertex -0.845545 -2.5 0.893182
      vertex -0.845545 2.5 0.893182
    endloop
  endfacet
  facet normal 0.827082 0 -0.562081
    outer loop
      vertex -2.75066 -2.5 -0.401529
      vertex -2.87071 2.5 -0.578189
      vertex -2.75066 2.5 -0.401529
    endloop
  endfacet
  facet normal 0.827082 0 -0.562081
    outer loop
      vertex -2.87071 2.5 -0.578189
      vertex -2.75066 -2.5 -0.401529
      vertex -2.87071 -2.5 -0.578189
    endloop
  endfacet
  facet normal -0.453991 0 -0.891006
    outer loop
      vertex 1.44765 -2.5 0.676412
      vertex 1.63796 2.5 0.579442
      vertex 1.63796 -2.5 0.579442
    endloop
  endfacet
  facet normal -0.453991 0 -0.891006
    outer loop
      vertex 1.63796 2.5 0.579442
      vertex 1.44765 -2.5 0.676412
      vertex 1.44765 2.5 0.676412
    endloop
  endfacet
  facet normal -0.86074 0 -0.509044
    outer loop
      vertex 2.97944 -2.5 -0.762037
      vertex 2.87071 2.5 -0.578189
      vertex 2.97944 2.5 -0.762037
    endloop
  endfacet
  facet normal -0.86074 -0 -0.509044
    outer loop
      vertex 2.87071 2.5 -0.578189
      vertex 2.97944 -2.5 -0.762037
      vertex 2.87071 -2.5 -0.578189
    endloop
  endfacet
endsolid OpenSCAD_Model
