solid OpenSCAD_Model
  facet normal -1 0 0
    outer loop
      vertex -5 -2.5 -2.5
      vertex -5 2.5 2.5
      vertex -5 2.5 -2.5
    endloop
  endfacet
  facet normal -1 -0 0
    outer loop
      vertex -5 2.5 2.5
      vertex -5 -2.5 -2.5
      vertex -5 -2.5 2.5
    endloop
  endfacet
  facet normal -0 0 1
    outer loop
      vertex -5 2.5 2.5
      vertex 5 -2.5 2.5
      vertex 5 2.5 2.5
    endloop
  endfacet
  facet normal 0 0 1
    outer loop
      vertex 5 -2.5 2.5
      vertex -5 2.5 2.5
      vertex -5 -2.5 2.5
    endloop
  endfacet
  facet normal 1 -0 0
    outer loop
      vertex 5 -2.5 2.5
      vertex 5 2.5 -2.5
      vertex 5 2.5 2.5
    endloop
  endfacet
  facet normal 1 0 0
    outer loop
      vertex 5 2.5 -2.5
      vertex 5 -2.5 2.5
      vertex 5 -2.5 -2.5
    endloop
  endfacet
  facet normal 0 1 0
    outer loop
      vertex 5 2.5 2.5
      vertex 0 2.5 1.1
      vertex -5 2.5 2.5
    endloop
  endfacet
  facet normal 0 1 0
    outer loop
      vertex 5 2.5 2.5
      vertex 0.226046 2.5 1.0929
      vertex 0 2.5 1.1
    endloop
  endfacet
  facet normal 0 1 0
    outer loop
      vertex 5 2.5 2.5
      vertex 0.4512 2.5 1.07161
      vertex 0.226046 2.5 1.0929
    endloop
  endfacet
  facet normal 0 1 0
    outer loop
      vertex 5 2.5 2.5
      vertex 0.674572 2.5 1.03623
      vertex 0.4512 2.5 1.07161
    endloop
  endfacet
  facet normal 0 1 0
    outer loop
      vertex 5 2.5 2.5
      vertex 0.895283 2.5 0.986899
      vertex 0.674572 2.5 1.03623
    endloop
  endfacet
  facet normal 0 1 0
    outer loop
      vertex 5 2.5 2.5
      vertex 1.11246 2.5 0.923803
      vertex 0.895283 2.5 0.986899
    endloop
  endfacet
  facet normal 0 1 0
    outer loop
      vertex 5 2.5 2.5
      vertex 1.32525 2.5 0.847195
      vertex 1.11246 2.5 0.923803
    endloop
  endfacet
  facet normal 0 1 0
    outer loop
      vertex 5 2.5 2.5
      vertex 1.53281 2.5 0.757377
      vertex 1.32525 2.5 0.847195
    endloop
  endfacet
  facet normal 0 1 0
    outer loop
      vertex 5 2.5 2.5
      vertex 1.73431 2.5 0.654703
      vertex 1.53281 2.5 0.757377
    endloop
  endfacet
  facet normal 0 1 0
    outer loop
      vertex 5 2.5 2.5
      vertex 1.92898 2.5 0.53958
      vertex 1.73431 2.5 0.654703
    endloop
  endfacet
  facet normal 0 1 0
    outer loop
      vertex 5 2.5 2.5
      vertex 2.11603 2.5 0.41246
      vertex 1.92898 2.5 0.53958
    endloop
  endfacet
  facet normal 0 1 0
    outer loop
      vertex 5 2.5 2.5
      vertex 2.29473 2.5 0.273848
      vertex 2.11603 2.5 0.41246
    endloop
  endfacet
  facet normal 0 1 0
    outer loop
      vertex 5 2.5 2.5
      vertex 2.46437 2.5 0.124287
      vertex 2.29473 2.5 0.273848
    endloop
  endfacet
  facet normal 0 1 0
    outer loop
      vertex 5 2.5 2.5
      vertex 2.62429 2.5 -0.0356302
      vertex 2.46437 2.5 0.124287
    endloop
  endfacet
  facet normal 0 1 0
    outer loop
      vertex 5 2.5 2.5
      vertex 2.77385 2.5 -0.205274
      vertex 2.62429 2.5 -0.0356302
    endloop
  endfacet
  facet normal 0 1 0
    outer loop
      vertex 5 2.5 2.5
      vertex 2.91246 2.5 -0.383972
      vertex 2.77385 2.5 -0.205274
    endloop
  endfacet
  facet normal 0 1 0
    outer loop
      vertex 5 2.5 2.5
      vertex 3.03958 2.5 -0.571023
      vertex 2.91246 2.5 -0.383972
    endloop
  endfacet
  facet normal 0 1 0
    outer loop
      vertex 5 2.5 2.5
      vertex 3.1547 2.5 -0.765686
      vertex 3.03958 2.5 -0.571023
    endloop
  endfacet
  facet normal 0 1 0
    outer loop
      vertex 5 2.5 2.5
      vertex 3.25738 2.5 -0.967194
      vertex 3.1547 2.5 -0.765686
    endloop
  endfacet
  facet normal 0 1 -0
    outer loop
      vertex 5 2.5 -2.5
      vertex 3.25738 2.5 -0.967194
      vertex 5 2.5 2.5
    endloop
  endfacet
  facet normal 0 1 0
    outer loop
      vertex 3.25738 2.5 -0.967194
      vertex 5 2.5 -2.5
      vertex 3.34719 2.5 -1.17475
    endloop
  endfacet
  facet normal 0 1 0
    outer loop
      vertex 3.34719 2.5 -1.17475
      vertex 5 2.5 -2.5
      vertex 3.4238 2.5 -1.38754
    endloop
  endfacet
  facet normal 0 1 0
    outer loop
      vertex 3.4238 2.5 -1.38754
      vertex 5 2.5 -2.5
      vertex 3.4869 2.5 -1.60472
    endloop
  endfacet
  facet normal 0 1 0
    outer loop
      vertex 3.4869 2.5 -1.60472
      vertex 5 2.5 -2.5
      vertex 3.53623 2.5 -1.82543
    endloop
  endfacet
  facet normal 0 1 0
    outer loop
      vertex 3.53623 2.5 -1.82543
      vertex 5 2.5 -2.5
      vertex 3.57161 2.5 -2.0488
    endloop
  endfacet
  facet normal 0 1 0
    outer loop
      vertex 3.57161 2.5 -2.0488
      vertex 5 2.5 -2.5
      vertex 3.5929 2.5 -2.27395
    endloop
  endfacet
  facet normal 0 1 0
    outer loop
      vertex 3.5929 2.5 -2.27395
      vertex 5 2.5 -2.5
      vertex 3.59467 2.5 -2.33046
    endloop
  endfacet
  facet normal 0 1 0
    outer loop
      vertex 3.59467 2.5 -2.33046
      vertex 5 2.5 -2.5
      vertex 3.6 2.5 -2.5
    endloop
  endfacet
  facet normal 0 1 -0
    outer loop
      vertex -0.226046 2.5 1.0929
      vertex -5 2.5 2.5
      vertex 0 2.5 1.1
    endloop
  endfacet
  facet normal 0 1 -0
    outer loop
      vertex -0.4512 2.5 1.07161
      vertex -5 2.5 2.5
      vertex -0.226046 2.5 1.0929
    endloop
  endfacet
  facet normal 0 1 -0
    outer loop
      vertex -0.674572 2.5 1.03623
      vertex -5 2.5 2.5
      vertex -0.4512 2.5 1.07161
    endloop
  endfacet
  facet normal 0 1 -0
    outer loop
      vertex -0.895283 2.5 0.986899
      vertex -5 2.5 2.5
      vertex -0.674572 2.5 1.03623
    endloop
  endfacet
  facet normal 0 1 -0
    outer loop
      vertex -1.11246 2.5 0.923803
      vertex -5 2.5 2.5
      vertex -0.895283 2.5 0.986899
    endloop
  endfacet
  facet normal 0 1 -0
    outer loop
      vertex -1.32525 2.5 0.847195
      vertex -5 2.5 2.5
      vertex -1.11246 2.5 0.923803
    endloop
  endfacet
  facet normal 0 1 -0
    outer loop
      vertex -1.53281 2.5 0.757377
      vertex -5 2.5 2.5
      vertex -1.32525 2.5 0.847195
    endloop
  endfacet
  facet normal 0 1 -0
    outer loop
      vertex -1.73431 2.5 0.654703
      vertex -5 2.5 2.5
      vertex -1.53281 2.5 0.757377
    endloop
  endfacet
  facet normal 0 1 -0
    outer loop
      vertex -1.92898 2.5 0.53958
      vertex -5 2.5 2.5
      vertex -1.73431 2.5 0.654703
    endloop
  endfacet
  facet normal 0 1 -0
    outer loop
      vertex -2.11603 2.5 0.41246
      vertex -5 2.5 2.5
      vertex -1.92898 2.5 0.53958
    endloop
  endfacet
  facet normal 0 1 -0
    outer loop
      vertex -2.29473 2.5 0.273848
      vertex -5 2.5 2.5
      vertex -2.11603 2.5 0.41246
    endloop
  endfacet
  facet normal 0 1 -0
    outer loop
      vertex -2.46437 2.5 0.124287
      vertex -5 2.5 2.5
      vertex -2.29473 2.5 0.273848
    endloop
  endfacet
  facet normal 0 1 -0
    outer loop
      vertex -2.62429 2.5 -0.0356302
      vertex -5 2.5 2.5
      vertex -2.46437 2.5 0.124287
    endloop
  endfacet
  facet normal 0 1 -0
    outer loop
      vertex -2.77385 2.5 -0.205274
      vertex -5 2.5 2.5
      vertex -2.62429 2.5 -0.0356302
    endloop
  endfacet
  facet normal 0 1 -0
    outer loop
      vertex -2.91246 2.5 -0.383972
      vertex -5 2.5 2.5
      vertex -2.77385 2.5 -0.205274
    endloop
  endfacet
  facet normal 0 1 -0
    outer loop
      vertex -3.03958 2.5 -0.571023
      vertex -5 2.5 2.5
      vertex -2.91246 2.5 -0.383972
    endloop
  endfacet
  facet normal 0 1 -0
    outer loop
      vertex -3.1547 2.5 -0.765686
      vertex -5 2.5 2.5
      vertex -3.03958 2.5 -0.571023
    endloop
  endfacet
  facet normal 0 1 -0
    outer loop
      vertex -3.25738 2.5 -0.967194
      vertex -5 2.5 2.5
      vertex -3.1547 2.5 -0.765686
    endloop
  endfacet
  facet normal 0 1 0
    outer loop
      vertex -5 2.5 -2.5
      vertex -3.25738 2.5 -0.967194
      vertex -3.34719 2.5 -1.17475
    endloop
  endfacet
  facet normal 0 1 0
    outer loop
      vertex -5 2.5 -2.5
      vertex -3.34719 2.5 -1.17475
      vertex -3.4238 2.5 -1.38754
    endloop
  endfacet
  facet normal 0 1 0
    outer loop
      vertex -5 2.5 -2.5
      vertex -3.4238 2.5 -1.38754
      vertex -3.4869 2.5 -1.60472
    endloop
  endfacet
  facet normal 0 1 0
    outer loop
      vertex -5 2.5 -2.5
      vertex -3.4869 2.5 -1.60472
      vertex -3.53623 2.5 -1.82543
    endloop
  endfacet
  facet normal 0 1 0
    outer loop
      vertex -5 2.5 -2.5
      vertex -3.53623 2.5 -1.82543
      vertex -3.57161 2.5 -2.0488
    endloop
  endfacet
  facet normal 0 1 0
    outer loop
      vertex -5 2.5 -2.5
      vertex -3.57161 2.5 -2.0488
      vertex -3.5929 2.5 -2.27395
    endloop
  endfacet
  facet normal 0 1 0
    outer loop
      vertex -5 2.5 -2.5
      vertex -3.5929 2.5 -2.27395
      vertex -3.59467 2.5 -2.33046
    endloop
  endfacet
  facet normal 0 1 0
    outer loop
      vertex -5 2.5 -2.5
      vertex -3.59467 2.5 -2.33046
      vertex -3.6 2.5 -2.5
    endloop
  endfacet
  facet normal 0 1 0
    outer loop
      vertex -3.25738 2.5 -0.967194
      vertex -5 2.5 -2.5
      vertex -5 2.5 2.5
    endloop
  endfacet
  facet normal 0 0 -1
    outer loop
      vertex -5 -2.5 -2.5
      vertex -3.6 2.5 -2.5
      vertex -3.6 -2.5 -2.5
    endloop
  endfacet
  facet normal -0 0 -1
    outer loop
      vertex -3.6 2.5 -2.5
      vertex -5 -2.5 -2.5
      vertex -5 2.5 -2.5
    endloop
  endfacet
  facet normal 0 0 -1
    outer loop
      vertex 3.6 -2.5 -2.5
      vertex 5 2.5 -2.5
      vertex 5 -2.5 -2.5
    endloop
  endfacet
  facet normal -0 0 -1
    outer loop
      vertex 5 2.5 -2.5
      vertex 3.6 -2.5 -2.5
      vertex 3.6 2.5 -2.5
    endloop
  endfacet
  facet normal 0 -1 0
    outer loop
      vertex -5 -2.5 2.5
      vertex 0 -2.5 1.1
      vertex 5 -2.5 2.5
    endloop
  endfacet
  facet normal 0 -1 0
    outer loop
      vertex -5 -2.5 2.5
      vertex -0.226046 -2.5 1.0929
      vertex 0 -2.5 1.1
    endloop
  endfacet
  facet normal 0 -1 0
    outer loop
      vertex -5 -2.5 2.5
      vertex -0.4512 -2.5 1.07161
      vertex -0.226046 -2.5 1.0929
    endloop
  endfacet
  facet normal 0 -1 0
    outer loop
      vertex -5 -2.5 2.5
      vertex -0.674572 -2.5 1.03623
      vertex -0.4512 -2.5 1.07161
    endloop
  endfacet
  facet normal 0 -1 0
    outer loop
      vertex -5 -2.5 2.5
      vertex -0.895283 -2.5 0.986899
      vertex -0.674572 -2.5 1.03623
    endloop
  endfacet
  facet normal 0 -1 0
    outer loop
      vertex -5 -2.5 2.5
      vertex -1.11246 -2.5 0.923803
      vertex -0.895283 -2.5 0.986899
    endloop
  endfacet
  facet normal 0 -1 0
    outer loop
      vertex -5 -2.5 2.5
      vertex -1.32525 -2.5 0.847195
      vertex -1.11246 -2.5 0.923803
    endloop
  endfacet
  facet normal 0 -1 0
    outer loop
      vertex -5 -2.5 2.5
      vertex -1.53281 -2.5 0.757377
      vertex -1.32525 -2.5 0.847195
    endloop
  endfacet
  facet normal 0 -1 0
    outer loop
      vertex -5 -2.5 2.5
      vertex -1.73431 -2.5 0.654703
      vertex -1.53281 -2.5 0.757377
    endloop
  endfacet
  facet normal 0 -1 0
    outer loop
      vertex -5 -2.5 2.5
      vertex -1.92898 -2.5 0.53958
      vertex -1.73431 -2.5 0.654703
    endloop
  endfacet
  facet normal 0 -1 0
    outer loop
      vertex -5 -2.5 2.5
      vertex -2.11603 -2.5 0.41246
      vertex -1.92898 -2.5 0.53958
    endloop
  endfacet
  facet normal 0 -1 0
    outer loop
      vertex -5 -2.5 2.5
      vertex -2.29473 -2.5 0.273848
      vertex -2.11603 -2.5 0.41246
    endloop
  endfacet
  facet normal 0 -1 0
    outer loop
      vertex -5 -2.5 2.5
      vertex -2.46437 -2.5 0.124287
      vertex -2.29473 -2.5 0.273848
    endloop
  endfacet
  facet normal 0 -1 0
    outer loop
      vertex -5 -2.5 2.5
      vertex -2.62429 -2.5 -0.0356302
      vertex -2.46437 -2.5 0.124287
    endloop
  endfacet
  facet normal 0 -1 0
    outer loop
      vertex -5 -2.5 2.5
      vertex -2.77385 -2.5 -0.205274
      vertex -2.62429 -2.5 -0.0356302
    endloop
  endfacet
  facet normal 0 -1 0
    outer loop
      vertex -5 -2.5 2.5
      vertex -2.91246 -2.5 -0.383972
      vertex -2.77385 -2.5 -0.205274
    endloop
  endfacet
  facet normal 0 -1 0
    outer loop
      vertex -5 -2.5 2.5
      vertex -3.03958 -2.5 -0.571023
      vertex -2.91246 -2.5 -0.383972
    endloop
  endfacet
  facet normal 0 -1 0
    outer loop
      vertex -5 -2.5 2.5
      vertex -3.1547 -2.5 -0.765686
      vertex -3.03958 -2.5 -0.571023
    endloop
  endfacet
  facet normal 0 -1 0
    outer loop
      vertex -5 -2.5 2.5
      vertex -3.25738 -2.5 -0.967194
      vertex -3.1547 -2.5 -0.765686
    endloop
  endfacet
  facet normal 0 -1 0
    outer loop
      vertex -5 -2.5 -2.5
      vertex -3.25738 -2.5 -0.967194
      vertex -5 -2.5 2.5
    endloop
  endfacet
  facet normal 0 -1 0
    outer loop
      vertex -3.25738 -2.5 -0.967194
      vertex -5 -2.5 -2.5
      vertex -3.34719 -2.5 -1.17475
    endloop
  endfacet
  facet normal 0 -1 0
    outer loop
      vertex -3.34719 -2.5 -1.17475
      vertex -5 -2.5 -2.5
      vertex -3.4238 -2.5 -1.38754
    endloop
  endfacet
  facet normal 0 -1 0
    outer loop
      vertex -3.4238 -2.5 -1.38754
      vertex -5 -2.5 -2.5
      vertex -3.4869 -2.5 -1.60472
    endloop
  endfacet
  facet normal 0 -1 0
    outer loop
      vertex -3.4869 -2.5 -1.60472
      vertex -5 -2.5 -2.5
      vertex -3.53623 -2.5 -1.82543
    endloop
  endfacet
  facet normal 0 -1 0
    outer loop
      vertex -3.53623 -2.5 -1.82543
      vertex -5 -2.5 -2.5
      vertex -3.57161 -2.5 -2.0488
    endloop
  endfacet
  facet normal 0 -1 0
    outer loop
      vertex -3.57161 -2.5 -2.0488
      vertex -5 -2.5 -2.5
      vertex -3.5929 -2.5 -2.27395
    endloop
  endfacet
  facet normal 0 -1 0
    outer loop
      vertex -3.5929 -2.5 -2.27395
      vertex -5 -2.5 -2.5
      vertex -3.59822 -2.5 -2.44349
    endloop
  endfacet
  facet normal 0 -1 0
    outer loop
      vertex -3.59822 -2.5 -2.44349
      vertex -5 -2.5 -2.5
      vertex -3.6 -2.5 -2.5
    endloop
  endfacet
  facet normal 0 -1 0
    outer loop
      vertex 0.226046 -2.5 1.0929
      vertex 5 -2.5 2.5
      vertex 0 -2.5 1.1
    endloop
  endfacet
  facet normal 0 -1 0
    outer loop
      vertex 0.4512 -2.5 1.07161
      vertex 5 -2.5 2.5
      vertex 0.226046 -2.5 1.0929
    endloop
  endfacet
  facet normal 0 -1 0
    outer loop
      vertex 0.674572 -2.5 1.03623
      vertex 5 -2.5 2.5
      vertex 0.4512 -2.5 1.07161
    endloop
  endfacet
  facet normal 0 -1 0
    outer loop
      vertex 0.895283 -2.5 0.986899
      vertex 5 -2.5 2.5
      vertex 0.674572 -2.5 1.03623
    endloop
  endfacet
  facet normal 0 -1 0
    outer loop
      vertex 1.11246 -2.5 0.923803
      vertex 5 -2.5 2.5
      vertex 0.895283 -2.5 0.986899
    endloop
  endfacet
  facet normal 0 -1 0
    outer loop
      vertex 1.32525 -2.5 0.847195
      vertex 5 -2.5 2.5
      vertex 1.11246 -2.5 0.923803
    endloop
  endfacet
  facet normal 0 -1 0
    outer loop
      vertex 1.53281 -2.5 0.757377
      vertex 5 -2.5 2.5
      vertex 1.32525 -2.5 0.847195
    endloop
  endfacet
  facet normal 0 -1 0
    outer loop
      vertex 1.73431 -2.5 0.654703
      vertex 5 -2.5 2.5
      vertex 1.53281 -2.5 0.757377
    endloop
  endfacet
  facet normal 0 -1 0
    outer loop
      vertex 1.92898 -2.5 0.53958
      vertex 5 -2.5 2.5
      vertex 1.73431 -2.5 0.654703
    endloop
  endfacet
  facet normal 0 -1 0
    outer loop
      vertex 2.11603 -2.5 0.41246
      vertex 5 -2.5 2.5
      vertex 1.92898 -2.5 0.53958
    endloop
  endfacet
  facet normal 0 -1 0
    outer loop
      vertex 2.29473 -2.5 0.273848
      vertex 5 -2.5 2.5
      vertex 2.11603 -2.5 0.41246
    endloop
  endfacet
  facet normal 0 -1 0
    outer loop
      vertex 2.46437 -2.5 0.124287
      vertex 5 -2.5 2.5
      vertex 2.29473 -2.5 0.273848
    endloop
  endfacet
  facet normal 0 -1 0
    outer loop
      vertex 2.62429 -2.5 -0.0356302
      vertex 5 -2.5 2.5
      vertex 2.46437 -2.5 0.124287
    endloop
  endfacet
  facet normal 0 -1 0
    outer loop
      vertex 2.77385 -2.5 -0.205274
      vertex 5 -2.5 2.5
      vertex 2.62429 -2.5 -0.0356302
    endloop
  endfacet
  facet normal 0 -1 0
    outer loop
      vertex 2.91246 -2.5 -0.383972
      vertex 5 -2.5 2.5
      vertex 2.77385 -2.5 -0.205274
    endloop
  endfacet
  facet normal 0 -1 0
    outer loop
      vertex 3.03958 -2.5 -0.571023
      vertex 5 -2.5 2.5
      vertex 2.91246 -2.5 -0.383972
    endloop
  endfacet
  facet normal 0 -1 0
    outer loop
      vertex 3.1547 -2.5 -0.765686
      vertex 5 -2.5 2.5
      vertex 3.03958 -2.5 -0.571023
    endloop
  endfacet
  facet normal 0 -1 0
    outer loop
      vertex 3.25738 -2.5 -0.967194
      vertex 5 -2.5 2.5
      vertex 3.1547 -2.5 -0.765686
    endloop
  endfacet
  facet normal 0 -1 0
    outer loop
      vertex 5 -2.5 -2.5
      vertex 3.25738 -2.5 -0.967194
      vertex 3.34719 -2.5 -1.17475
    endloop
  endfacet
  facet normal 0 -1 0
    outer loop
      vertex 5 -2.5 -2.5
      vertex 3.34719 -2.5 -1.17475
      vertex 3.4238 -2.5 -1.38754
    endloop
  endfacet
  facet normal 0 -1 0
    outer loop
      vertex 5 -2.5 -2.5
      vertex 3.4238 -2.5 -1.38754
      vertex 3.4869 -2.5 -1.60472
    endloop
  endfacet
  facet normal 0 -1 0
    outer loop
      vertex 5 -2.5 -2.5
      vertex 3.4869 -2.5 -1.60472
      vertex 3.53623 -2.5 -1.82543
    endloop
  endfacet
  facet normal 0 -1 0
    outer loop
      vertex 5 -2.5 -2.5
      vertex 3.53623 -2.5 -1.82543
      vertex 3.57161 -2.5 -2.0488
    endloop
  endfacet
  facet normal 0 -1 0
    outer loop
      vertex 5 -2.5 -2.5
      vertex 3.57161 -2.5 -2.0488
      vertex 3.5929 -2.5 -2.27395
    endloop
  endfacet
  facet normal 0 -1 0
    outer loop
      vertex 5 -2.5 -2.5
      vertex 3.5929 -2.5 -2.27395
      vertex 3.59822 -2.5 -2.44349
    endloop
  endfacet
  facet normal 0 -1 0
    outer loop
      vertex 5 -2.5 -2.5
      vertex 3.59822 -2.5 -2.44349
      vertex 3.6 -2.5 -2.5
    endloop
  endfacet
  facet normal 0 -1 0
    outer loop
      vertex 3.25738 -2.5 -0.967194
      vertex 5 -2.5 -2.5
      vertex 5 -2.5 2.5
    endloop
  endfacet
  facet normal -0.999507 0 -0.0314114
    outer loop
      vertex 3.5929 -2.5 -2.27395
      vertex 3.59467 2.5 -2.33046
      vertex 3.59822 -2.5 -2.44349
    endloop
  endfacet
  facet normal -0.999507 0 -0.0314114
    outer loop
      vertex 3.59467 2.5 -2.33046
      vertex 3.5929 -2.5 -2.27395
      vertex 3.5929 2.5 -2.27395
    endloop
  endfacet
  facet normal -0.995562 0 -0.0941076
    outer loop
      vertex 3.5929 -2.5 -2.27395
      vertex 3.57161 2.5 -2.0488
      vertex 3.5929 2.5 -2.27395
    endloop
  endfacet
  facet normal -0.995562 -0 -0.0941076
    outer loop
      vertex 3.57161 2.5 -2.0488
      vertex 3.5929 -2.5 -2.27395
      vertex 3.57161 -2.5 -2.0488
    endloop
  endfacet
  facet normal -0.999507 -2.99561e-09 -0.0314113
    outer loop
      vertex 3.59822 -2.5 -2.44349
      vertex 3.6 2.5 -2.5
      vertex 3.6 -2.5 -2.5
    endloop
  endfacet
  facet normal -0.999507 -2.99561e-09 -0.0314113
    outer loop
      vertex 3.6 2.5 -2.5
      vertex 3.59822 -2.5 -2.44349
      vertex 3.59467 2.5 -2.33046
    endloop
  endfacet
  facet normal -0.987689 0 -0.156433
    outer loop
      vertex 3.57161 -2.5 -2.0488
      vertex 3.53623 2.5 -1.82543
      vertex 3.57161 2.5 -2.0488
    endloop
  endfacet
  facet normal -0.987689 -0 -0.156433
    outer loop
      vertex 3.53623 2.5 -1.82543
      vertex 3.57161 -2.5 -2.0488
      vertex 3.53623 -2.5 -1.82543
    endloop
  endfacet
  facet normal 0.661312 0 -0.750111
    outer loop
      vertex -2.46437 -2.5 0.124287
      vertex -2.29473 2.5 0.273848
      vertex -2.29473 -2.5 0.273848
    endloop
  endfacet
  facet normal 0.661312 0 -0.750111
    outer loop
      vertex -2.29473 2.5 0.273848
      vertex -2.46437 -2.5 0.124287
      vertex -2.46437 2.5 0.124287
    endloop
  endfacet
  facet normal 0.999507 -2.99561e-09 -0.0314113
    outer loop
      vertex -3.59822 -2.5 -2.44349
      vertex -3.6 2.5 -2.5
      vertex -3.59467 2.5 -2.33046
    endloop
  endfacet
  facet normal 0.999507 -2.99561e-09 -0.0314113
    outer loop
      vertex -3.6 2.5 -2.5
      vertex -3.59822 -2.5 -2.44349
      vertex -3.6 -2.5 -2.5
    endloop
  endfacet
  facet normal 0.995562 0 -0.0941076
    outer loop
      vertex -3.57161 -2.5 -2.0488
      vertex -3.5929 2.5 -2.27395
      vertex -3.57161 2.5 -2.0488
    endloop
  endfacet
  facet normal 0.995562 0 -0.0941076
    outer loop
      vertex -3.5929 2.5 -2.27395
      vertex -3.57161 -2.5 -2.0488
      vertex -3.5929 -2.5 -2.27395
    endloop
  endfacet
  facet normal 0.987689 0 -0.156433
    outer loop
      vertex -3.53623 -2.5 -1.82543
      vertex -3.57161 2.5 -2.0488
      vertex -3.53623 2.5 -1.82543
    endloop
  endfacet
  facet normal 0.987689 0 -0.156433
    outer loop
      vertex -3.57161 2.5 -2.0488
      vertex -3.53623 -2.5 -1.82543
      vertex -3.57161 -2.5 -2.0488
    endloop
  endfacet
  facet normal -0.0314114 0 -0.999507
    outer loop
      vertex 0 -2.5 1.1
      vertex 0.226046 2.5 1.0929
      vertex 0.226046 -2.5 1.0929
    endloop
  endfacet
  facet normal -0.0314114 0 -0.999507
    outer loop
      vertex 0.226046 2.5 1.0929
      vertex 0 -2.5 1.1
      vertex 0 2.5 1.1
    endloop
  endfacet
  facet normal 0.218143 0 -0.975917
    outer loop
      vertex -0.895283 -2.5 0.986899
      vertex -0.674572 2.5 1.03623
      vertex -0.674572 -2.5 1.03623
    endloop
  endfacet
  facet normal 0.218143 0 -0.975917
    outer loop
      vertex -0.674572 2.5 1.03623
      vertex -0.895283 -2.5 0.986899
      vertex -0.895283 2.5 0.986899
    endloop
  endfacet
  facet normal -0.509039 0 -0.860743
    outer loop
      vertex 1.73431 -2.5 0.654703
      vertex 1.92898 2.5 0.53958
      vertex 1.92898 -2.5 0.53958
    endloop
  endfacet
  facet normal -0.509039 0 -0.860743
    outer loop
      vertex 1.92898 2.5 0.53958
      vertex 1.73431 -2.5 0.654703
      vertex 1.73431 2.5 0.654703
    endloop
  endfacet
  facet normal 0.960294 0 -0.278991
    outer loop
      vertex -3.4238 -2.5 -1.38754
      vertex -3.4869 2.5 -1.60472
      vertex -3.4238 2.5 -1.38754
    endloop
  endfacet
  facet normal 0.960294 0 -0.278991
    outer loop
      vertex -3.4869 2.5 -1.60472
      vertex -3.4238 -2.5 -1.38754
      vertex -3.4869 -2.5 -1.60472
    endloop
  endfacet
  facet normal 0.917755 0 -0.397147
    outer loop
      vertex -3.25738 -2.5 -0.967194
      vertex -3.34719 2.5 -1.17475
      vertex -3.25738 2.5 -0.967194
    endloop
  endfacet
  facet normal 0.917755 0 -0.397147
    outer loop
      vertex -3.34719 2.5 -1.17475
      vertex -3.25738 -2.5 -0.967194
      vertex -3.34719 -2.5 -1.17475
    endloop
  endfacet
  facet normal 0.612907 0 -0.790155
    outer loop
      vertex -2.29473 -2.5 0.273848
      vertex -2.11603 2.5 0.41246
      vertex -2.11603 -2.5 0.41246
    endloop
  endfacet
  facet normal 0.612907 0 -0.790155
    outer loop
      vertex -2.11603 2.5 0.41246
      vertex -2.29473 -2.5 0.273848
      vertex -2.29473 2.5 0.273848
    endloop
  endfacet
  facet normal 0.278991 0 -0.960294
    outer loop
      vertex -1.11246 -2.5 0.923803
      vertex -0.895283 2.5 0.986899
      vertex -0.895283 -2.5 0.986899
    endloop
  endfacet
  facet normal 0.278991 0 -0.960294
    outer loop
      vertex -0.895283 2.5 0.986899
      vertex -1.11246 -2.5 0.923803
      vertex -1.11246 2.5 0.923803
    endloop
  endfacet
  facet normal 0.156433 0 -0.987689
    outer loop
      vertex -0.674572 -2.5 1.03623
      vertex -0.4512 2.5 1.07161
      vertex -0.4512 -2.5 1.07161
    endloop
  endfacet
  facet normal 0.156433 0 -0.987689
    outer loop
      vertex -0.4512 2.5 1.07161
      vertex -0.674572 -2.5 1.03623
      vertex -0.674572 2.5 1.03623
    endloop
  endfacet
  facet normal -0.156433 0 -0.987689
    outer loop
      vertex 0.4512 -2.5 1.07161
      vertex 0.674572 2.5 1.03623
      vertex 0.674572 -2.5 1.03623
    endloop
  endfacet
  facet normal -0.156433 0 -0.987689
    outer loop
      vertex 0.674572 2.5 1.03623
      vertex 0.4512 -2.5 1.07161
      vertex 0.4512 2.5 1.07161
    endloop
  endfacet
  facet normal -0.562085 0 -0.82708
    outer loop
      vertex 1.92898 -2.5 0.53958
      vertex 2.11603 2.5 0.41246
      vertex 2.11603 -2.5 0.41246
    endloop
  endfacet
  facet normal -0.562085 0 -0.82708
    outer loop
      vertex 2.11603 2.5 0.41246
      vertex 1.92898 -2.5 0.53958
      vertex 1.92898 2.5 0.53958
    endloop
  endfacet
  facet normal -0.453992 0 -0.891006
    outer loop
      vertex 1.53281 -2.5 0.757377
      vertex 1.73431 2.5 0.654703
      vertex 1.73431 -2.5 0.654703
    endloop
  endfacet
  facet normal -0.453992 0 -0.891006
    outer loop
      vertex 1.73431 2.5 0.654703
      vertex 1.53281 -2.5 0.757377
      vertex 1.53281 2.5 0.757377
    endloop
  endfacet
  facet normal -0.338741 0 -0.94088
    outer loop
      vertex 1.11246 -2.5 0.923803
      vertex 1.32525 2.5 0.847195
      vertex 1.32525 -2.5 0.847195
    endloop
  endfacet
  facet normal -0.338741 0 -0.94088
    outer loop
      vertex 1.32525 2.5 0.847195
      vertex 1.11246 -2.5 0.923803
      vertex 1.11246 2.5 0.923803
    endloop
  endfacet
  facet normal -0.960294 0 -0.278991
    outer loop
      vertex 3.4869 -2.5 -1.60472
      vertex 3.4238 2.5 -1.38754
      vertex 3.4869 2.5 -1.60472
    endloop
  endfacet
  facet normal -0.960294 -0 -0.278991
    outer loop
      vertex 3.4238 2.5 -1.38754
      vertex 3.4869 -2.5 -1.60472
      vertex 3.4238 -2.5 -1.38754
    endloop
  endfacet
  facet normal -0.975917 0 -0.218143
    outer loop
      vertex 3.53623 -2.5 -1.82543
      vertex 3.4869 2.5 -1.60472
      vertex 3.53623 2.5 -1.82543
    endloop
  endfacet
  facet normal -0.975917 -0 -0.218143
    outer loop
      vertex 3.4869 2.5 -1.60472
      vertex 3.53623 -2.5 -1.82543
      vertex 3.4869 -2.5 -1.60472
    endloop
  endfacet
  facet normal 0.891006 0 -0.453992
    outer loop
      vertex -3.1547 -2.5 -0.765686
      vertex -3.25738 2.5 -0.967194
      vertex -3.1547 2.5 -0.765686
    endloop
  endfacet
  facet normal 0.891006 0 -0.453992
    outer loop
      vertex -3.25738 2.5 -0.967194
      vertex -3.1547 -2.5 -0.765686
      vertex -3.25738 -2.5 -0.967194
    endloop
  endfacet
  facet normal 0.999507 0 -0.0314114
    outer loop
      vertex -3.5929 -2.5 -2.27395
      vertex -3.59467 2.5 -2.33046
      vertex -3.5929 2.5 -2.27395
    endloop
  endfacet
  facet normal 0.999507 0 -0.0314114
    outer loop
      vertex -3.59467 2.5 -2.33046
      vertex -3.5929 -2.5 -2.27395
      vertex -3.59822 -2.5 -2.44349
    endloop
  endfacet
  facet normal 0.562085 0 -0.82708
    outer loop
      vertex -2.11603 -2.5 0.41246
      vertex -1.92898 2.5 0.53958
      vertex -1.92898 -2.5 0.53958
    endloop
  endfacet
  facet normal 0.562085 0 -0.82708
    outer loop
      vertex -1.92898 2.5 0.53958
      vertex -2.11603 -2.5 0.41246
      vertex -2.11603 2.5 0.41246
    endloop
  endfacet
  facet normal 0.707105 0 -0.707109
    outer loop
      vertex -2.62429 -2.5 -0.0356302
      vertex -2.46437 2.5 0.124287
      vertex -2.46437 -2.5 0.124287
    endloop
  endfacet
  facet normal 0.707105 0 -0.707109
    outer loop
      vertex -2.46437 2.5 0.124287
      vertex -2.62429 -2.5 -0.0356302
      vertex -2.62429 2.5 -0.0356302
    endloop
  endfacet
  facet normal 0.397147 0 -0.917755
    outer loop
      vertex -1.53281 -2.5 0.757377
      vertex -1.32525 2.5 0.847195
      vertex -1.32525 -2.5 0.847195
    endloop
  endfacet
  facet normal 0.397147 0 -0.917755
    outer loop
      vertex -1.32525 2.5 0.847195
      vertex -1.53281 -2.5 0.757377
      vertex -1.53281 2.5 0.757377
    endloop
  endfacet
  facet normal 0.0941076 0 -0.995562
    outer loop
      vertex -0.4512 -2.5 1.07161
      vertex -0.226046 2.5 1.0929
      vertex -0.226046 -2.5 1.0929
    endloop
  endfacet
  facet normal 0.0941076 0 -0.995562
    outer loop
      vertex -0.226046 2.5 1.0929
      vertex -0.4512 -2.5 1.07161
      vertex -0.4512 2.5 1.07161
    endloop
  endfacet
  facet normal -0.0941076 0 -0.995562
    outer loop
      vertex 0.226046 -2.5 1.0929
      vertex 0.4512 2.5 1.07161
      vertex 0.4512 -2.5 1.07161
    endloop
  endfacet
  facet normal -0.0941076 0 -0.995562
    outer loop
      vertex 0.4512 2.5 1.07161
      vertex 0.226046 -2.5 1.0929
      vertex 0.226046 2.5 1.0929
    endloop
  endfacet
  facet normal -0.278991 0 -0.960294
    outer loop
      vertex 0.895283 -2.5 0.986899
      vertex 1.11246 2.5 0.923803
      vertex 1.11246 -2.5 0.923803
    endloop
  endfacet
  facet normal -0.278991 0 -0.960294
    outer loop
      vertex 1.11246 2.5 0.923803
      vertex 0.895283 -2.5 0.986899
      vertex 0.895283 2.5 0.986899
    endloop
  endfacet
  facet normal -0.218143 0 -0.975917
    outer loop
      vertex 0.674572 -2.5 1.03623
      vertex 0.895283 2.5 0.986899
      vertex 0.895283 -2.5 0.986899
    endloop
  endfacet
  facet normal -0.218143 0 -0.975917
    outer loop
      vertex 0.895283 2.5 0.986899
      vertex 0.674572 -2.5 1.03623
      vertex 0.674572 2.5 1.03623
    endloop
  endfacet
  facet normal -0.612907 0 -0.790155
    outer loop
      vertex 2.11603 -2.5 0.41246
      vertex 2.29473 2.5 0.273848
      vertex 2.29473 -2.5 0.273848
    endloop
  endfacet
  facet normal -0.612907 0 -0.790155
    outer loop
      vertex 2.29473 2.5 0.273848
      vertex 2.11603 -2.5 0.41246
      vertex 2.11603 2.5 0.41246
    endloop
  endfacet
  facet normal -0.397147 0 -0.917755
    outer loop
      vertex 1.32525 -2.5 0.847195
      vertex 1.53281 2.5 0.757377
      vertex 1.53281 -2.5 0.757377
    endloop
  endfacet
  facet normal -0.397147 0 -0.917755
    outer loop
      vertex 1.53281 2.5 0.757377
      vertex 1.32525 -2.5 0.847195
      vertex 1.32525 2.5 0.847195
    endloop
  endfacet
  facet normal -0.917755 0 -0.397147
    outer loop
      vertex 3.34719 -2.5 -1.17475
      vertex 3.25738 2.5 -0.967194
      vertex 3.34719 2.5 -1.17475
    endloop
  endfacet
  facet normal -0.917755 -0 -0.397147
    outer loop
      vertex 3.25738 2.5 -0.967194
      vertex 3.34719 -2.5 -1.17475
      vertex 3.25738 -2.5 -0.967194
    endloop
  endfacet
  facet normal -0.860743 0 -0.509039
    outer loop
      vertex 3.1547 -2.5 -0.765686
      vertex 3.03958 2.5 -0.571023
      vertex 3.1547 2.5 -0.765686
    endloop
  endfacet
  facet normal -0.860743 -0 -0.509039
    outer loop
      vertex 3.03958 2.5 -0.571023
      vertex 3.1547 -2.5 -0.765686
      vertex 3.03958 -2.5 -0.571023
    endloop
  endfacet
  facet normal -0.891006 0 -0.453992
    outer loop
      vertex 3.25738 -2.5 -0.967194
      vertex 3.1547 2.5 -0.765686
      vertex 3.25738 2.5 -0.967194
    endloop
  endfacet
  facet normal -0.891006 -0 -0.453992
    outer loop
      vertex 3.1547 2.5 -0.765686
      vertex 3.25738 -2.5 -0.967194
      vertex 3.1547 -2.5 -0.765686
    endloop
  endfacet
  facet normal -0.82708 0 -0.562085
    outer loop
      vertex 3.03958 -2.5 -0.571023
      vertex 2.91246 2.5 -0.383972
      vertex 3.03958 2.5 -0.571023
    endloop
  endfacet
  facet normal -0.82708 -0 -0.562085
    outer loop
      vertex 2.91246 2.5 -0.383972
      vertex 3.03958 -2.5 -0.571023
      vertex 2.91246 -2.5 -0.383972
    endloop
  endfacet
  facet normal -0.750111 0 -0.661312
    outer loop
      vertex 2.77385 -2.5 -0.205274
      vertex 2.62429 2.5 -0.0356302
      vertex 2.77385 2.5 -0.205274
    endloop
  endfacet
  facet normal -0.750111 -0 -0.661312
    outer loop
      vertex 2.62429 2.5 -0.0356302
      vertex 2.77385 -2.5 -0.205274
      vertex 2.62429 -2.5 -0.0356302
    endloop
  endfacet
  facet normal -0.790155 0 -0.612907
    outer loop
      vertex 2.91246 -2.5 -0.383972
      vertex 2.77385 2.5 -0.205274
      vertex 2.91246 2.5 -0.383972
    endloop
  endfacet
  facet normal -0.790155 -0 -0.612907
    outer loop
      vertex 2.77385 2.5 -0.205274
      vertex 2.91246 -2.5 -0.383972
      vertex 2.77385 -2.5 -0.205274
    endloop
  endfacet
  facet normal 0.82708 0 -0.562085
    outer loop
      vertex -2.91246 -2.5 -0.383972
      vertex -3.03958 2.5 -0.571023
      vertex -2.91246 2.5 -0.383972
    endloop
  endfacet
  facet normal 0.82708 0 -0.562085
    outer loop
      vertex -3.03958 2.5 -0.571023
      vertex -2.91246 -2.5 -0.383972
      vertex -3.03958 -2.5 -0.571023
    endloop
  endfacet
  facet normal 0.750111 0 -0.661312
    outer loop
      vertex -2.62429 -2.5 -0.0356302
      vertex -2.77385 2.5 -0.205274
      vertex -2.62429 2.5 -0.0356302
    endloop
  endfacet
  facet normal 0.750111 0 -0.661312
    outer loop
      vertex -2.77385 2.5 -0.205274
      vertex -2.62429 -2.5 -0.0356302
      vertex -2.77385 -2.5 -0.205274
    endloop
  endfacet
  facet normal 0.975917 0 -0.218143
    outer loop
      vertex -3.4869 -2.5 -1.60472
      vertex -3.53623 2.5 -1.82543
      vertex -3.4869 2.5 -1.60472
    endloop
  endfacet
  facet normal 0.975917 0 -0.218143
    outer loop
      vertex -3.53623 2.5 -1.82543
      vertex -3.4869 -2.5 -1.60472
      vertex -3.53623 -2.5 -1.82543
    endloop
  endfacet
  facet normal 0.94088 0 -0.338741
    outer loop
      vertex -3.34719 -2.5 -1.17475
      vertex -3.4238 2.5 -1.38754
      vertex -3.34719 2.5 -1.17475
    endloop
  endfacet
  facet normal 0.94088 0 -0.338741
    outer loop
      vertex -3.4238 2.5 -1.38754
      vertex -3.34719 -2.5 -1.17475
      vertex -3.4238 -2.5 -1.38754
    endloop
  endfacet
  facet normal 0.509039 0 -0.860743
    outer loop
      vertex -1.92898 -2.5 0.53958
      vertex -1.73431 2.5 0.654703
      vertex -1.73431 -2.5 0.654703
    endloop
  endfacet
  facet normal 0.509039 0 -0.860743
    outer loop
      vertex -1.73431 2.5 0.654703
      vertex -1.92898 -2.5 0.53958
      vertex -1.92898 2.5 0.53958
    endloop
  endfacet
  facet normal 0.453992 0 -0.891006
    outer loop
      vertex -1.73431 -2.5 0.654703
      vertex -1.53281 2.5 0.757377
      vertex -1.53281 -2.5 0.757377
    endloop
  endfacet
  facet normal 0.453992 0 -0.891006
    outer loop
      vertex -1.53281 2.5 0.757377
      vertex -1.73431 -2.5 0.654703
      vertex -1.73431 2.5 0.654703
    endloop
  endfacet
  facet normal 0.338741 0 -0.94088
    outer loop
      vertex -1.32525 -2.5 0.847195
      vertex -1.11246 2.5 0.923803
      vertex -1.11246 -2.5 0.923803
    endloop
  endfacet
  facet normal 0.338741 0 -0.94088
    outer loop
      vertex -1.11246 2.5 0.923803
      vertex -1.32525 -2.5 0.847195
      vertex -1.32525 2.5 0.847195
    endloop
  endfacet
  facet normal 0.0314114 0 -0.999507
    outer loop
      vertex -0.226046 -2.5 1.0929
      vertex 0 2.5 1.1
      vertex 0 -2.5 1.1
    endloop
  endfacet
  facet normal 0.0314114 0 -0.999507
    outer loop
      vertex 0 2.5 1.1
      vertex -0.226046 -2.5 1.0929
      vertex -0.226046 2.5 1.0929
    endloop
  endfacet
  facet normal -0.94088 0 -0.338741
    outer loop
      vertex 3.4238 -2.5 -1.38754
      vertex 3.34719 2.5 -1.17475
      vertex 3.4238 2.5 -1.38754
    endloop
  endfacet
  facet normal -0.94088 -0 -0.338741
    outer loop
      vertex 3.34719 2.5 -1.17475
      vertex 3.4238 -2.5 -1.38754
      vertex 3.34719 -2.5 -1.17475
    endloop
  endfacet
  facet normal -0.707105 0 -0.707109
    outer loop
      vertex 2.46437 -2.5 0.124287
      vertex 2.62429 2.5 -0.0356302
      vertex 2.62429 -2.5 -0.0356302
    endloop
  endfacet
  facet normal -0.707105 0 -0.707109
    outer loop
      vertex 2.62429 2.5 -0.0356302
      vertex 2.46437 -2.5 0.124287
      vertex 2.46437 2.5 0.124287
    endloop
  endfacet
  facet normal -0.661312 0 -0.750111
    outer loop
      vertex 2.29473 -2.5 0.273848
      vertex 2.46437 2.5 0.124287
      vertex 2.46437 -2.5 0.124287
    endloop
  endfacet
  facet normal -0.661312 0 -0.750111
    outer loop
      vertex 2.46437 2.5 0.124287
      vertex 2.29473 -2.5 0.273848
      vertex 2.29473 2.5 0.273848
    endloop
  endfacet
  facet normal 0.860743 0 -0.509039
    outer loop
      vertex -3.03958 -2.5 -0.571023
      vertex -3.1547 2.5 -0.765686
      vertex -3.03958 2.5 -0.571023
    endloop
  endfacet
  facet normal 0.860743 0 -0.509039
    outer loop
      vertex -3.1547 2.5 -0.765686
      vertex -3.03958 -2.5 -0.571023
      vertex -3.1547 -2.5 -0.765686
    endloop
  endfacet
  facet normal 0.790155 0 -0.612907
    outer loop
      vertex -2.77385 -2.5 -0.205274
      vertex -2.91246 2.5 -0.383972
      vertex -2.77385 2.5 -0.205274
    endloop
  endfacet
  facet normal 0.790155 0 -0.612907
    outer loop
      vertex -2.91246 2.5 -0.383972
      vertex -2.77385 -2.5 -0.205274
      vertex -2.91246 -2.5 -0.383972
    endloop
  endfacet
endsolid OpenSCAD_Model
