solid OpenSCAD_Model
  facet normal -1 0 0
    outer loop
      vertex -5 -2.5 -2.5
      vertex -5 2.5 2.5
      vertex -5 2.5 -2.5
    endloop
  endfacet
  facet normal -1 -0 0
    outer loop
      vertex -5 2.5 2.5
      vertex -5 -2.5 -2.5
      vertex -5 -2.5 2.5
    endloop
  endfacet
  facet normal -0 0 1
    outer loop
      vertex -5 2.5 2.5
      vertex 5 -2.5 2.5
      vertex 5 2.5 2.5
    endloop
  endfacet
  facet normal 0 0 1
    outer loop
      vertex 5 -2.5 2.5
      vertex -5 2.5 2.5
      vertex -5 -2.5 2.5
    endloop
  endfacet
  facet normal 1 -0 0
    outer loop
      vertex 5 -2.5 2.5
      vertex 5 2.5 -2.5
      vertex 5 2.5 2.5
    endloop
  endfacet
  facet normal 1 0 0
    outer loop
      vertex 5 2.5 -2.5
      vertex 5 -2.5 2.5
      vertex 5 -2.5 -2.5
    endloop
  endfacet
  facet normal 0 1 0
    outer loop
      vertex 5 2.5 2.5
      vertex 0 2.5 0.999999
      vertex -5 2.5 2.5
    endloop
  endfacet
  facet normal 0 1 0
    outer loop
      vertex 5 2.5 2.5
      vertex 0.150697 2.5 0.995264
      vertex 0 2.5 0.999999
    endloop
  endfacet
  facet normal 0 1 0
    outer loop
      vertex 5 2.5 2.5
      vertex 0.20093 2.5 0.993685
      vertex 0.150697 2.5 0.995264
    endloop
  endfacet
  facet normal 0 1 0
    outer loop
      vertex 5 2.5 2.5
      vertex 0.401066 2.5 0.974767
      vertex 0.20093 2.5 0.993685
    endloop
  endfacet
  facet normal 0 1 0
    outer loop
      vertex 5 2.5 2.5
      vertex 0.59962 2.5 0.943318
      vertex 0.401066 2.5 0.974767
    endloop
  endfacet
  facet normal 0 1 0
    outer loop
      vertex 5 2.5 2.5
      vertex 0.795807 2.5 0.899466
      vertex 0.59962 2.5 0.943318
    endloop
  endfacet
  facet normal 0 1 0
    outer loop
      vertex 5 2.5 2.5
      vertex 0.988853 2.5 0.84338
      vertex 0.795807 2.5 0.899466
    endloop
  endfacet
  facet normal 0 1 0
    outer loop
      vertex 5 2.5 2.5
      vertex 1.178 2.5 0.775284
      vertex 0.988853 2.5 0.84338
    endloop
  endfacet
  facet normal 0 1 0
    outer loop
      vertex 5 2.5 2.5
      vertex 1.36249 2.5 0.695446
      vertex 1.178 2.5 0.775284
    endloop
  endfacet
  facet normal 0 1 0
    outer loop
      vertex 5 2.5 2.5
      vertex 1.54161 2.5 0.604181
      vertex 1.36249 2.5 0.695446
    endloop
  endfacet
  facet normal 0 1 0
    outer loop
      vertex 5 2.5 2.5
      vertex 1.71465 2.5 0.501849
      vertex 1.54161 2.5 0.604181
    endloop
  endfacet
  facet normal 0 1 0
    outer loop
      vertex 5 2.5 2.5
      vertex 1.88091 2.5 0.388854
      vertex 1.71465 2.5 0.501849
    endloop
  endfacet
  facet normal 0 1 0
    outer loop
      vertex 5 2.5 2.5
      vertex 2.03976 2.5 0.265642
      vertex 1.88091 2.5 0.388854
    endloop
  endfacet
  facet normal 0 1 0
    outer loop
      vertex 5 2.5 2.5
      vertex 2.19055 2.5 0.132699
      vertex 2.03976 2.5 0.265642
    endloop
  endfacet
  facet normal 0 1 0
    outer loop
      vertex 5 2.5 2.5
      vertex 2.3327 2.5 -0.00944901
      vertex 2.19055 2.5 0.132699
    endloop
  endfacet
  facet normal 0 1 0
    outer loop
      vertex 5 2.5 2.5
      vertex 2.46564 2.5 -0.160243
      vertex 2.3327 2.5 -0.00944901
    endloop
  endfacet
  facet normal 0 1 0
    outer loop
      vertex 5 2.5 2.5
      vertex 2.58885 2.5 -0.319087
      vertex 2.46564 2.5 -0.160243
    endloop
  endfacet
  facet normal 0 1 0
    outer loop
      vertex 5 2.5 2.5
      vertex 2.70185 2.5 -0.485353
      vertex 2.58885 2.5 -0.319087
    endloop
  endfacet
  facet normal 0 1 0
    outer loop
      vertex 5 2.5 2.5
      vertex 2.80418 2.5 -0.658388
      vertex 2.70185 2.5 -0.485353
    endloop
  endfacet
  facet normal 0 1 0
    outer loop
      vertex 5 2.5 2.5
      vertex 2.89545 2.5 -0.837505
      vertex 2.80418 2.5 -0.658388
    endloop
  endfacet
  facet normal 0 1 0
    outer loop
      vertex 5 2.5 2.5
      vertex 2.97528 2.5 -1.022
      vertex 2.89545 2.5 -0.837505
    endloop
  endfacet
  facet normal 0 1 -0
    outer loop
      vertex 5 2.5 -2.5
      vertex 2.97528 2.5 -1.022
      vertex 5 2.5 2.5
    endloop
  endfacet
  facet normal 0 1 0
    outer loop
      vertex 2.97528 2.5 -1.022
      vertex 5 2.5 -2.5
      vertex 3.04338 2.5 -1.21115
    endloop
  endfacet
  facet normal 0 1 0
    outer loop
      vertex 3.04338 2.5 -1.21115
      vertex 5 2.5 -2.5
      vertex 3.09947 2.5 -1.40419
    endloop
  endfacet
  facet normal 0 1 0
    outer loop
      vertex 3.09947 2.5 -1.40419
      vertex 5 2.5 -2.5
      vertex 3.14332 2.5 -1.60038
    endloop
  endfacet
  facet normal 0 1 0
    outer loop
      vertex 3.14332 2.5 -1.60038
      vertex 5 2.5 -2.5
      vertex 3.17477 2.5 -1.79893
    endloop
  endfacet
  facet normal 0 1 0
    outer loop
      vertex 3.17477 2.5 -1.79893
      vertex 5 2.5 -2.5
      vertex 3.19368 2.5 -1.99907
    endloop
  endfacet
  facet normal 0 1 0
    outer loop
      vertex 3.19368 2.5 -1.99907
      vertex 5 2.5 -2.5
      vertex 3.2 2.5 -2.2
    endloop
  endfacet
  facet normal 0 1 0
    outer loop
      vertex 3.2 2.5 -2.2
      vertex 5 2.5 -2.5
      vertex 3.19368 2.5 -2.40093
    endloop
  endfacet
  facet normal 0 1 0
    outer loop
      vertex 3.19368 2.5 -2.40093
      vertex 5 2.5 -2.5
      vertex 3.18432 2.5 -2.5
    endloop
  endfacet
  facet normal 0 1 -0
    outer loop
      vertex -0.150697 2.5 0.995264
      vertex -5 2.5 2.5
      vertex 0 2.5 0.999999
    endloop
  endfacet
  facet normal 0 1 -0
    outer loop
      vertex -0.20093 2.5 0.993685
      vertex -5 2.5 2.5
      vertex -0.150697 2.5 0.995264
    endloop
  endfacet
  facet normal 0 1 -0
    outer loop
      vertex -0.401066 2.5 0.974767
      vertex -5 2.5 2.5
      vertex -0.20093 2.5 0.993685
    endloop
  endfacet
  facet normal 0 1 -0
    outer loop
      vertex -0.59962 2.5 0.943318
      vertex -5 2.5 2.5
      vertex -0.401066 2.5 0.974767
    endloop
  endfacet
  facet normal 0 1 -0
    outer loop
      vertex -0.795807 2.5 0.899466
      vertex -5 2.5 2.5
      vertex -0.59962 2.5 0.943318
    endloop
  endfacet
  facet normal 0 1 -0
    outer loop
      vertex -0.988853 2.5 0.84338
      vertex -5 2.5 2.5
      vertex -0.795807 2.5 0.899466
    endloop
  endfacet
  facet normal 0 1 -0
    outer loop
      vertex -1.178 2.5 0.775284
      vertex -5 2.5 2.5
      vertex -0.988853 2.5 0.84338
    endloop
  endfacet
  facet normal 0 1 -0
    outer loop
      vertex -1.36249 2.5 0.695446
      vertex -5 2.5 2.5
      vertex -1.178 2.5 0.775284
    endloop
  endfacet
  facet normal 0 1 -0
    outer loop
      vertex -1.54161 2.5 0.604181
      vertex -5 2.5 2.5
      vertex -1.36249 2.5 0.695446
    endloop
  endfacet
  facet normal 0 1 -0
    outer loop
      vertex -1.71465 2.5 0.501849
      vertex -5 2.5 2.5
      vertex -1.54161 2.5 0.604181
    endloop
  endfacet
  facet normal 0 1 -0
    outer loop
      vertex -1.88091 2.5 0.388854
      vertex -5 2.5 2.5
      vertex -1.71465 2.5 0.501849
    endloop
  endfacet
  facet normal 0 1 -0
    outer loop
      vertex -2.03976 2.5 0.265642
      vertex -5 2.5 2.5
      vertex -1.88091 2.5 0.388854
    endloop
  endfacet
  facet normal 0 1 -0
    outer loop
      vertex -2.19055 2.5 0.132699
      vertex -5 2.5 2.5
      vertex -2.03976 2.5 0.265642
    endloop
  endfacet
  facet normal 0 1 -0
    outer loop
      vertex -2.3327 2.5 -0.00944901
      vertex -5 2.5 2.5
      vertex -2.19055 2.5 0.132699
    endloop
  endfacet
  facet normal 0 1 -0
    outer loop
      vertex -2.46564 2.5 -0.160243
      vertex -5 2.5 2.5
      vertex -2.3327 2.5 -0.00944901
    endloop
  endfacet
  facet normal 0 1 -0
    outer loop
      vertex -2.58885 2.5 -0.319087
      vertex -5 2.5 2.5
      vertex -2.46564 2.5 -0.160243
    endloop
  endfacet
  facet normal 0 1 -0
    outer loop
      vertex -2.70185 2.5 -0.485353
      vertex -5 2.5 2.5
      vertex -2.58885 2.5 -0.319087
    endloop
  endfacet
  facet normal 0 1 -0
    outer loop
      vertex -2.80418 2.5 -0.658388
      vertex -5 2.5 2.5
      vertex -2.70185 2.5 -0.485353
    endloop
  endfacet
  facet normal 0 1 -0
    outer loop
      vertex -2.89545 2.5 -0.837505
      vertex -5 2.5 2.5
      vertex -2.80418 2.5 -0.658388
    endloop
  endfacet
  facet normal 0 1 -0
    outer loop
      vertex -2.97528 2.5 -1.022
      vertex -5 2.5 2.5
      vertex -2.89545 2.5 -0.837505
    endloop
  endfacet
  facet normal 0 1 0
    outer loop
      vertex -5 2.5 -2.5
      vertex -2.97528 2.5 -1.022
      vertex -3.04338 2.5 -1.21115
    endloop
  endfacet
  facet normal 0 1 0
    outer loop
      vertex -5 2.5 -2.5
      vertex -3.04338 2.5 -1.21115
      vertex -3.09947 2.5 -1.40419
    endloop
  endfacet
  facet normal 0 1 0
    outer loop
      vertex -5 2.5 -2.5
      vertex -3.09947 2.5 -1.40419
      vertex -3.14332 2.5 -1.60038
    endloop
  endfacet
  facet normal 0 1 0
    outer loop
      vertex -5 2.5 -2.5
      vertex -3.14332 2.5 -1.60038
      vertex -3.17477 2.5 -1.79893
    endloop
  endfacet
  facet normal 0 1 0
    outer loop
      vertex -5 2.5 -2.5
      vertex -3.17477 2.5 -1.79893
      vertex -3.19368 2.5 -1.99907
    endloop
  endfacet
  facet normal 0 1 0
    outer loop
      vertex -5 2.5 -2.5
      vertex -3.19368 2.5 -1.99907
      vertex -3.2 2.5 -2.2
    endloop
  endfacet
  facet normal 0 1 0
    outer loop
      vertex -5 2.5 -2.5
      vertex -3.2 2.5 -2.2
      vertex -3.19368 2.5 -2.40093
    endloop
  endfacet
  facet normal 0 1 0
    outer loop
      vertex -5 2.5 -2.5
      vertex -3.19368 2.5 -2.40093
      vertex -3.18432 2.5 -2.5
    endloop
  endfacet
  facet normal 0 1 0
    outer loop
      vertex -2.97528 2.5 -1.022
      vertex -5 2.5 -2.5
      vertex -5 2.5 2.5
    endloop
  endfacet
  facet normal 0 0 -1
    outer loop
      vertex -5 -2.5 -2.5
      vertex -3.18432 2.5 -2.5
      vertex -3.18432 -2.5 -2.5
    endloop
  endfacet
  facet normal -0 0 -1
    outer loop
      vertex -3.18432 2.5 -2.5
      vertex -5 -2.5 -2.5
      vertex -5 2.5 -2.5
    endloop
  endfacet
  facet normal 0 0 -1
    outer loop
      vertex 3.18432 -2.5 -2.5
      vertex 5 2.5 -2.5
      vertex 5 -2.5 -2.5
    endloop
  endfacet
  facet normal -0 0 -1
    outer loop
      vertex 5 2.5 -2.5
      vertex 3.18432 -2.5 -2.5
      vertex 3.18432 2.5 -2.5
    endloop
  endfacet
  facet normal 0 -1 0
    outer loop
      vertex -5 -2.5 2.5
      vertex 0 -2.5 1
      vertex 5 -2.5 2.5
    endloop
  endfacet
  facet normal 0 -1 0
    outer loop
      vertex -5 -2.5 2.5
      vertex -0.0502324 -2.5 0.998421
      vertex 0 -2.5 1
    endloop
  endfacet
  facet normal 0 -1 0
    outer loop
      vertex -5 -2.5 2.5
      vertex -0.20093 -2.5 0.993685
      vertex -0.0502324 -2.5 0.998421
    endloop
  endfacet
  facet normal 0 -1 0
    outer loop
      vertex -5 -2.5 2.5
      vertex -0.401066 -2.5 0.974767
      vertex -0.20093 -2.5 0.993685
    endloop
  endfacet
  facet normal 0 -1 0
    outer loop
      vertex -5 -2.5 2.5
      vertex -0.59962 -2.5 0.943318
      vertex -0.401066 -2.5 0.974767
    endloop
  endfacet
  facet normal 0 -1 0
    outer loop
      vertex -5 -2.5 2.5
      vertex -0.795807 -2.5 0.899466
      vertex -0.59962 -2.5 0.943318
    endloop
  endfacet
  facet normal 0 -1 0
    outer loop
      vertex -5 -2.5 2.5
      vertex -0.988853 -2.5 0.84338
      vertex -0.795807 -2.5 0.899466
    endloop
  endfacet
  facet normal 0 -1 0
    outer loop
      vertex -5 -2.5 2.5
      vertex -1.178 -2.5 0.775284
      vertex -0.988853 -2.5 0.84338
    endloop
  endfacet
  facet normal 0 -1 0
    outer loop
      vertex -5 -2.5 2.5
      vertex -1.36249 -2.5 0.695446
      vertex -1.178 -2.5 0.775284
    endloop
  endfacet
  facet normal 0 -1 0
    outer loop
      vertex -5 -2.5 2.5
      vertex -1.54161 -2.5 0.604181
      vertex -1.36249 -2.5 0.695446
    endloop
  endfacet
  facet normal 0 -1 0
    outer loop
      vertex -5 -2.5 2.5
      vertex -1.71465 -2.5 0.501849
      vertex -1.54161 -2.5 0.604181
    endloop
  endfacet
  facet normal 0 -1 0
    outer loop
      vertex -5 -2.5 2.5
      vertex -1.88091 -2.5 0.388854
      vertex -1.71465 -2.5 0.501849
    endloop
  endfacet
  facet normal 0 -1 0
    outer loop
      vertex -5 -2.5 2.5
      vertex -2.03976 -2.5 0.265642
      vertex -1.88091 -2.5 0.388854
    endloop
  endfacet
  facet normal 0 -1 0
    outer loop
      vertex -5 -2.5 2.5
      vertex -2.19055 -2.5 0.132699
      vertex -2.03976 -2.5 0.265642
    endloop
  endfacet
  facet normal 0 -1 0
    outer loop
      vertex -5 -2.5 2.5
      vertex -2.3327 -2.5 -0.00944901
      vertex -2.19055 -2.5 0.132699
    endloop
  endfacet
  facet normal 0 -1 0
    outer loop
      vertex -5 -2.5 2.5
      vertex -2.46564 -2.5 -0.160243
      vertex -2.3327 -2.5 -0.00944901
    endloop
  endfacet
  facet normal 0 -1 0
    outer loop
      vertex -5 -2.5 2.5
      vertex -2.58885 -2.5 -0.319087
      vertex -2.46564 -2.5 -0.160243
    endloop
  endfacet
  facet normal 0 -1 0
    outer loop
      vertex -5 -2.5 2.5
      vertex -2.70185 -2.5 -0.485353
      vertex -2.58885 -2.5 -0.319087
    endloop
  endfacet
  facet normal 0 -1 0
    outer loop
      vertex -5 -2.5 2.5
      vertex -2.80418 -2.5 -0.658388
      vertex -2.70185 -2.5 -0.485353
    endloop
  endfacet
  facet normal 0 -1 0
    outer loop
      vertex -5 -2.5 2.5
      vertex -2.89545 -2.5 -0.837505
      vertex -2.80418 -2.5 -0.658388
    endloop
  endfacet
  facet normal 0 -1 0
    outer loop
      vertex -5 -2.5 2.5
      vertex -2.97528 -2.5 -1.022
      vertex -2.89545 -2.5 -0.837505
    endloop
  endfacet
  facet normal 0 -1 0
    outer loop
      vertex -5 -2.5 -2.5
      vertex -2.97528 -2.5 -1.022
      vertex -5 -2.5 2.5
    endloop
  endfacet
  facet normal 0 -1 0
    outer loop
      vertex -2.97528 -2.5 -1.022
      vertex -5 -2.5 -2.5
      vertex -3.04338 -2.5 -1.21115
    endloop
  endfacet
  facet normal 0 -1 0
    outer loop
      vertex -3.04338 -2.5 -1.21115
      vertex -5 -2.5 -2.5
      vertex -3.09947 -2.5 -1.40419
    endloop
  endfacet
  facet normal 0 -1 0
    outer loop
      vertex -3.09947 -2.5 -1.40419
      vertex -5 -2.5 -2.5
      vertex -3.14332 -2.5 -1.60038
    endloop
  endfacet
  facet normal 0 -1 0
    outer loop
      vertex -3.14332 -2.5 -1.60038
      vertex -5 -2.5 -2.5
      vertex -3.17477 -2.5 -1.79893
    endloop
  endfacet
  facet normal 0 -1 0
    outer loop
      vertex -3.17477 -2.5 -1.79893
      vertex -5 -2.5 -2.5
      vertex -3.19368 -2.5 -1.99907
    endloop
  endfacet
  facet normal 0 -1 0
    outer loop
      vertex -3.19368 -2.5 -1.99907
      vertex -5 -2.5 -2.5
      vertex -3.2 -2.5 -2.2
    endloop
  endfacet
  facet normal 0 -1 -0
    outer loop
      vertex -3.2 -2.5 -2.2
      vertex -5 -2.5 -2.5
      vertex -3.19368 -2.5 -2.40093
    endloop
  endfacet
  facet normal 0 -1 -0
    outer loop
      vertex -3.19368 -2.5 -2.40093
      vertex -5 -2.5 -2.5
      vertex -3.18432 -2.5 -2.5
    endloop
  endfacet
  facet normal 0 -1 0
    outer loop
      vertex 0.0502324 -2.5 0.998421
      vertex 5 -2.5 2.5
      vertex 0 -2.5 1
    endloop
  endfacet
  facet normal 0 -1 0
    outer loop
      vertex 0.20093 -2.5 0.993685
      vertex 5 -2.5 2.5
      vertex 0.0502324 -2.5 0.998421
    endloop
  endfacet
  facet normal 0 -1 0
    outer loop
      vertex 0.401066 -2.5 0.974767
      vertex 5 -2.5 2.5
      vertex 0.20093 -2.5 0.993685
    endloop
  endfacet
  facet normal 0 -1 0
    outer loop
      vertex 0.59962 -2.5 0.943318
      vertex 5 -2.5 2.5
      vertex 0.401066 -2.5 0.974767
    endloop
  endfacet
  facet normal 0 -1 0
    outer loop
      vertex 0.795807 -2.5 0.899466
      vertex 5 -2.5 2.5
      vertex 0.59962 -2.5 0.943318
    endloop
  endfacet
  facet normal 0 -1 0
    outer loop
      vertex 0.988853 -2.5 0.84338
      vertex 5 -2.5 2.5
      vertex 0.795807 -2.5 0.899466
    endloop
  endfacet
  facet normal 0 -1 0
    outer loop
      vertex 1.178 -2.5 0.775284
      vertex 5 -2.5 2.5
      vertex 0.988853 -2.5 0.84338
    endloop
  endfacet
  facet normal 0 -1 0
    outer loop
      vertex 1.36249 -2.5 0.695446
      vertex 5 -2.5 2.5
      vertex 1.178 -2.5 0.775284
    endloop
  endfacet
  facet normal 0 -1 0
    outer loop
      vertex 1.54161 -2.5 0.604181
      vertex 5 -2.5 2.5
      vertex 1.36249 -2.5 0.695446
    endloop
  endfacet
  facet normal 0 -1 0
    outer loop
      vertex 1.71465 -2.5 0.501849
      vertex 5 -2.5 2.5
      vertex 1.54161 -2.5 0.604181
    endloop
  endfacet
  facet normal 0 -1 0
    outer loop
      vertex 1.88091 -2.5 0.388854
      vertex 5 -2.5 2.5
      vertex 1.71465 -2.5 0.501849
    endloop
  endfacet
  facet normal 0 -1 0
    outer loop
      vertex 2.03976 -2.5 0.265642
      vertex 5 -2.5 2.5
      vertex 1.88091 -2.5 0.388854
    endloop
  endfacet
  facet normal 0 -1 0
    outer loop
      vertex 2.19055 -2.5 0.132699
      vertex 5 -2.5 2.5
      vertex 2.03976 -2.5 0.265642
    endloop
  endfacet
  facet normal 0 -1 0
    outer loop
      vertex 2.3327 -2.5 -0.00944901
      vertex 5 -2.5 2.5
      vertex 2.19055 -2.5 0.132699
    endloop
  endfacet
  facet normal 0 -1 0
    outer loop
      vertex 2.46564 -2.5 -0.160243
      vertex 5 -2.5 2.5
      vertex 2.3327 -2.5 -0.00944901
    endloop
  endfacet
  facet normal 0 -1 0
    outer loop
      vertex 2.58885 -2.5 -0.319087
      vertex 5 -2.5 2.5
      vertex 2.46564 -2.5 -0.160243
    endloop
  endfacet
  facet normal 0 -1 0
    outer loop
      vertex 2.70185 -2.5 -0.485353
      vertex 5 -2.5 2.5
      vertex 2.58885 -2.5 -0.319087
    endloop
  endfacet
  facet normal 0 -1 0
    outer loop
      vertex 2.80418 -2.5 -0.658388
      vertex 5 -2.5 2.5
      vertex 2.70185 -2.5 -0.485353
    endloop
  endfacet
  facet normal 0 -1 0
    outer loop
      vertex 2.89545 -2.5 -0.837505
      vertex 5 -2.5 2.5
      vertex 2.80418 -2.5 -0.658388
    endloop
  endfacet
  facet normal 0 -1 0
    outer loop
      vertex 2.97528 -2.5 -1.022
      vertex 5 -2.5 2.5
      vertex 2.89545 -2.5 -0.837505
    endloop
  endfacet
  facet normal 0 -1 0
    outer loop
      vertex 5 -2.5 -2.5
      vertex 2.97528 -2.5 -1.022
      vertex 3.04338 -2.5 -1.21115
    endloop
  endfacet
  facet normal 0 -1 0
    outer loop
      vertex 5 -2.5 -2.5
      vertex 3.04338 -2.5 -1.21115
      vertex 3.09947 -2.5 -1.40419
    endloop
  endfacet
  facet normal 0 -1 0
    outer loop
      vertex 5 -2.5 -2.5
      vertex 3.09947 -2.5 -1.40419
      vertex 3.14332 -2.5 -1.60038
    endloop
  endfacet
  facet normal 0 -1 0
    outer loop
      vertex 5 -2.5 -2.5
      vertex 3.14332 -2.5 -1.60038
      vertex 3.17477 -2.5 -1.79893
    endloop
  endfacet
  facet normal 0 -1 0
    outer loop
      vertex 5 -2.5 -2.5
      vertex 3.17477 -2.5 -1.79893
      vertex 3.19368 -2.5 -1.99907
    endloop
  endfacet
  facet normal 0 -1 0
    outer loop
      vertex 5 -2.5 -2.5
      vertex 3.19368 -2.5 -1.99907
      vertex 3.2 -2.5 -2.2
    endloop
  endfacet
  facet normal 0 -1 0
    outer loop
      vertex 5 -2.5 -2.5
      vertex 3.2 -2.5 -2.2
      vertex 3.19368 -2.5 -2.40093
    endloop
  endfacet
  facet normal 0 -1 0
    outer loop
      vertex 5 -2.5 -2.5
      vertex 3.19368 -2.5 -2.40093
      vertex 3.18432 -2.5 -2.5
    endloop
  endfacet
  facet normal 0 -1 0
    outer loop
      vertex 2.97528 -2.5 -1.022
      vertex 5 -2.5 -2.5
      vertex 5 -2.5 2.5
    endloop
  endfacet
  facet normal -0.999506 0 -0.0314146
    outer loop
      vertex 3.2 -2.5 -2.2
      vertex 3.19368 2.5 -1.99907
      vertex 3.2 2.5 -2.2
    endloop
  endfacet
  facet normal -0.999506 -0 -0.0314146
    outer loop
      vertex 3.19368 2.5 -1.99907
      vertex 3.2 -2.5 -2.2
      vertex 3.19368 -2.5 -1.99907
    endloop
  endfacet
  facet normal 0.0314146 0 -0.999506
    outer loop
      vertex -0.20093 -2.5 0.993685
      vertex -0.150697 2.5 0.995264
      vertex -0.0502324 -2.5 0.998421
    endloop
  endfacet
  facet normal 0.0314146 0 -0.999506
    outer loop
      vertex -0.150697 2.5 0.995264
      vertex -0.20093 -2.5 0.993685
      vertex -0.20093 2.5 0.993685
    endloop
  endfacet
  facet normal -0.661313 0 -0.75011
    outer loop
      vertex 2.03976 -2.5 0.265642
      vertex 2.19055 2.5 0.132699
      vertex 2.19055 -2.5 0.132699
    endloop
  endfacet
  facet normal -0.661313 0 -0.75011
    outer loop
      vertex 2.19055 2.5 0.132699
      vertex 2.03976 -2.5 0.265642
      vertex 2.03976 2.5 0.265642
    endloop
  endfacet
  facet normal -0.891007 0 -0.45399
    outer loop
      vertex 2.89545 -2.5 -0.837505
      vertex 2.80418 2.5 -0.658388
      vertex 2.89545 2.5 -0.837505
    endloop
  endfacet
  facet normal -0.891007 -0 -0.45399
    outer loop
      vertex 2.80418 2.5 -0.658388
      vertex 2.89545 -2.5 -0.837505
      vertex 2.80418 -2.5 -0.658388
    endloop
  endfacet
  facet normal -0.960294 0 -0.278988
    outer loop
      vertex 3.09947 -2.5 -1.40419
      vertex 3.04338 2.5 -1.21115
      vertex 3.09947 2.5 -1.40419
    endloop
  endfacet
  facet normal -0.960294 -0 -0.278988
    outer loop
      vertex 3.04338 2.5 -1.21115
      vertex 3.09947 -2.5 -1.40419
      vertex 3.04338 -2.5 -1.21115
    endloop
  endfacet
  facet normal 0.995562 0 -0.0941059
    outer loop
      vertex -3.17477 -2.5 -1.79893
      vertex -3.19368 2.5 -1.99907
      vertex -3.17477 2.5 -1.79893
    endloop
  endfacet
  facet normal 0.995562 0 -0.0941059
    outer loop
      vertex -3.19368 2.5 -1.99907
      vertex -3.17477 -2.5 -1.79893
      vertex -3.19368 -2.5 -1.99907
    endloop
  endfacet
  facet normal -0.156437 0 -0.987688
    outer loop
      vertex 0.401066 -2.5 0.974767
      vertex 0.59962 2.5 0.943318
      vertex 0.59962 -2.5 0.943318
    endloop
  endfacet
  facet normal -0.156437 0 -0.987688
    outer loop
      vertex 0.59962 2.5 0.943318
      vertex 0.401066 -2.5 0.974767
      vertex 0.401066 2.5 0.974767
    endloop
  endfacet
  facet normal -0.975916 0 -0.218147
    outer loop
      vertex 3.14332 -2.5 -1.60038
      vertex 3.09947 2.5 -1.40419
      vertex 3.14332 2.5 -1.60038
    endloop
  endfacet
  facet normal -0.975916 -0 -0.218147
    outer loop
      vertex 3.09947 2.5 -1.40419
      vertex 3.14332 -2.5 -1.60038
      vertex 3.09947 -2.5 -1.40419
    endloop
  endfacet
  facet normal -0.0314098 -9.53204e-08 -0.999507
    outer loop
      vertex 0 2.5 0.999999
      vertex 0.0502324 -2.5 0.998421
      vertex 0 -2.5 1
    endloop
  endfacet
  facet normal -0.0314098 -9.53204e-08 -0.999507
    outer loop
      vertex 0.0502324 -2.5 0.998421
      vertex 0 2.5 0.999999
      vertex 0.150697 2.5 0.995264
    endloop
  endfacet
  facet normal -0.707104 0 -0.707109
    outer loop
      vertex 2.19055 -2.5 0.132699
      vertex 2.3327 2.5 -0.00944901
      vertex 2.3327 -2.5 -0.00944901
    endloop
  endfacet
  facet normal -0.707104 0 -0.707109
    outer loop
      vertex 2.3327 2.5 -0.00944901
      vertex 2.19055 -2.5 0.132699
      vertex 2.19055 2.5 0.132699
    endloop
  endfacet
  facet normal -0.917754 0 -0.397149
    outer loop
      vertex 2.97528 -2.5 -1.022
      vertex 2.89545 2.5 -0.837505
      vertex 2.97528 2.5 -1.022
    endloop
  endfacet
  facet normal -0.917754 -0 -0.397149
    outer loop
      vertex 2.89545 2.5 -0.837505
      vertex 2.97528 -2.5 -1.022
      vertex 2.89545 -2.5 -0.837505
    endloop
  endfacet
  facet normal -0.987689 0 -0.156432
    outer loop
      vertex 3.17477 -2.5 -1.79893
      vertex 3.14332 2.5 -1.60038
      vertex 3.17477 2.5 -1.79893
    endloop
  endfacet
  facet normal -0.987689 -0 -0.156432
    outer loop
      vertex 3.14332 2.5 -1.60038
      vertex 3.17477 -2.5 -1.79893
      vertex 3.14332 -2.5 -1.60038
    endloop
  endfacet
  facet normal 0.707104 0 -0.707109
    outer loop
      vertex -2.3327 -2.5 -0.00944901
      vertex -2.19055 2.5 0.132699
      vertex -2.19055 -2.5 0.132699
    endloop
  endfacet
  facet normal 0.707104 0 -0.707109
    outer loop
      vertex -2.19055 2.5 0.132699
      vertex -2.3327 -2.5 -0.00944901
      vertex -2.3327 2.5 -0.00944901
    endloop
  endfacet
  facet normal 0.995562 -0 0.0941075
    outer loop
      vertex -3.19368 -2.5 -2.40093
      vertex -3.18432 2.5 -2.5
      vertex -3.19368 2.5 -2.40093
    endloop
  endfacet
  facet normal 0.995562 0 0.0941075
    outer loop
      vertex -3.18432 2.5 -2.5
      vertex -3.19368 -2.5 -2.40093
      vertex -3.18432 -2.5 -2.5
    endloop
  endfacet
  facet normal 0.0314098 -9.53204e-08 -0.999507
    outer loop
      vertex -0.0502324 -2.5 0.998421
      vertex 0 2.5 0.999999
      vertex 0 -2.5 1
    endloop
  endfacet
  facet normal 0.0314098 -9.53204e-08 -0.999507
    outer loop
      vertex 0 2.5 0.999999
      vertex -0.0502324 -2.5 0.998421
      vertex -0.150697 2.5 0.995264
    endloop
  endfacet
  facet normal -0.75011 0 -0.661313
    outer loop
      vertex 2.46564 -2.5 -0.160243
      vertex 2.3327 2.5 -0.00944901
      vertex 2.46564 2.5 -0.160243
    endloop
  endfacet
  facet normal -0.75011 -0 -0.661313
    outer loop
      vertex 2.3327 2.5 -0.00944901
      vertex 2.46564 -2.5 -0.160243
      vertex 2.3327 -2.5 -0.00944901
    endloop
  endfacet
  facet normal -0.940881 0 -0.338738
    outer loop
      vertex 3.04338 -2.5 -1.21115
      vertex 2.97528 2.5 -1.022
      vertex 3.04338 2.5 -1.21115
    endloop
  endfacet
  facet normal -0.940881 -0 -0.338738
    outer loop
      vertex 2.97528 2.5 -1.022
      vertex 3.04338 -2.5 -1.21115
      vertex 2.97528 -2.5 -1.022
    endloop
  endfacet
  facet normal -0.995562 0 -0.0941059
    outer loop
      vertex 3.19368 -2.5 -1.99907
      vertex 3.17477 2.5 -1.79893
      vertex 3.19368 2.5 -1.99907
    endloop
  endfacet
  facet normal -0.995562 -0 -0.0941059
    outer loop
      vertex 3.17477 2.5 -1.79893
      vertex 3.19368 -2.5 -1.99907
      vertex 3.17477 -2.5 -1.79893
    endloop
  endfacet
  facet normal 0.562083 0 -0.827081
    outer loop
      vertex -1.88091 -2.5 0.388854
      vertex -1.71465 2.5 0.501849
      vertex -1.71465 -2.5 0.501849
    endloop
  endfacet
  facet normal 0.562083 0 -0.827081
    outer loop
      vertex -1.71465 2.5 0.501849
      vertex -1.88091 -2.5 0.388854
      vertex -1.88091 2.5 0.388854
    endloop
  endfacet
  facet normal 0.999506 0 -0.0314146
    outer loop
      vertex -3.19368 -2.5 -1.99907
      vertex -3.2 2.5 -2.2
      vertex -3.19368 2.5 -1.99907
    endloop
  endfacet
  facet normal 0.999506 0 -0.0314146
    outer loop
      vertex -3.2 2.5 -2.2
      vertex -3.19368 -2.5 -1.99907
      vertex -3.2 -2.5 -2.2
    endloop
  endfacet
  facet normal -0.995562 0 0.0941075
    outer loop
      vertex 3.18432 -2.5 -2.5
      vertex 3.19368 2.5 -2.40093
      vertex 3.18432 2.5 -2.5
    endloop
  endfacet
  facet normal -0.995562 0 0.0941075
    outer loop
      vertex 3.19368 2.5 -2.40093
      vertex 3.18432 -2.5 -2.5
      vertex 3.19368 -2.5 -2.40093
    endloop
  endfacet
  facet normal -0.999506 0 0.0314146
    outer loop
      vertex 3.19368 -2.5 -2.40093
      vertex 3.2 2.5 -2.2
      vertex 3.19368 2.5 -2.40093
    endloop
  endfacet
  facet normal -0.999506 0 0.0314146
    outer loop
      vertex 3.2 2.5 -2.2
      vertex 3.19368 -2.5 -2.40093
      vertex 3.2 -2.5 -2.2
    endloop
  endfacet
  facet normal -0.612909 0 -0.790154
    outer loop
      vertex 1.88091 -2.5 0.388854
      vertex 2.03976 2.5 0.265642
      vertex 2.03976 -2.5 0.265642
    endloop
  endfacet
  facet normal -0.612909 0 -0.790154
    outer loop
      vertex 2.03976 2.5 0.265642
      vertex 1.88091 -2.5 0.388854
      vertex 1.88091 2.5 0.388854
    endloop
  endfacet
  facet normal -0.509042 0 -0.860741
    outer loop
      vertex 1.54161 -2.5 0.604181
      vertex 1.71465 2.5 0.501849
      vertex 1.71465 -2.5 0.501849
    endloop
  endfacet
  facet normal -0.509042 0 -0.860741
    outer loop
      vertex 1.71465 2.5 0.501849
      vertex 1.54161 -2.5 0.604181
      vertex 1.54161 2.5 0.604181
    endloop
  endfacet
  facet normal -0.562083 0 -0.827081
    outer loop
      vertex 1.71465 -2.5 0.501849
      vertex 1.88091 2.5 0.388854
      vertex 1.88091 -2.5 0.388854
    endloop
  endfacet
  facet normal -0.562083 0 -0.827081
    outer loop
      vertex 1.88091 2.5 0.388854
      vertex 1.71465 -2.5 0.501849
      vertex 1.71465 2.5 0.501849
    endloop
  endfacet
  facet normal -0.278993 0 -0.960293
    outer loop
      vertex 0.795807 -2.5 0.899466
      vertex 0.988853 2.5 0.84338
      vertex 0.988853 -2.5 0.84338
    endloop
  endfacet
  facet normal -0.278993 0 -0.960293
    outer loop
      vertex 0.988853 2.5 0.84338
      vertex 0.795807 -2.5 0.899466
      vertex 0.795807 2.5 0.899466
    endloop
  endfacet
  facet normal -0.338737 0 -0.940881
    outer loop
      vertex 0.988853 -2.5 0.84338
      vertex 1.178 2.5 0.775284
      vertex 1.178 -2.5 0.775284
    endloop
  endfacet
  facet normal -0.338737 0 -0.940881
    outer loop
      vertex 1.178 2.5 0.775284
      vertex 0.988853 -2.5 0.84338
      vertex 0.988853 2.5 0.84338
    endloop
  endfacet
  facet normal -0.0941063 0 -0.995562
    outer loop
      vertex 0.20093 -2.5 0.993685
      vertex 0.401066 2.5 0.974767
      vertex 0.401066 -2.5 0.974767
    endloop
  endfacet
  facet normal -0.0941063 0 -0.995562
    outer loop
      vertex 0.401066 2.5 0.974767
      vertex 0.20093 -2.5 0.993685
      vertex 0.20093 2.5 0.993685
    endloop
  endfacet
  facet normal -0.0314146 0 -0.999506
    outer loop
      vertex 0.20093 -2.5 0.993685
      vertex 0.150697 2.5 0.995264
      vertex 0.20093 2.5 0.993685
    endloop
  endfacet
  facet normal -0.0314146 0 -0.999506
    outer loop
      vertex 0.150697 2.5 0.995264
      vertex 0.20093 -2.5 0.993685
      vertex 0.0502324 -2.5 0.998421
    endloop
  endfacet
  facet normal -0.860743 0 -0.50904
    outer loop
      vertex 2.80418 -2.5 -0.658388
      vertex 2.70185 2.5 -0.485353
      vertex 2.80418 2.5 -0.658388
    endloop
  endfacet
  facet normal -0.860743 -0 -0.50904
    outer loop
      vertex 2.70185 2.5 -0.485353
      vertex 2.80418 -2.5 -0.658388
      vertex 2.70185 -2.5 -0.485353
    endloop
  endfacet
  facet normal -0.790155 0 -0.612907
    outer loop
      vertex 2.58885 -2.5 -0.319087
      vertex 2.46564 2.5 -0.160243
      vertex 2.58885 2.5 -0.319087
    endloop
  endfacet
  facet normal -0.790155 -0 -0.612907
    outer loop
      vertex 2.46564 2.5 -0.160243
      vertex 2.58885 -2.5 -0.319087
      vertex 2.46564 -2.5 -0.160243
    endloop
  endfacet
  facet normal 0.0941063 0 -0.995562
    outer loop
      vertex -0.401066 -2.5 0.974767
      vertex -0.20093 2.5 0.993685
      vertex -0.20093 -2.5 0.993685
    endloop
  endfacet
  facet normal 0.0941063 0 -0.995562
    outer loop
      vertex -0.20093 2.5 0.993685
      vertex -0.401066 -2.5 0.974767
      vertex -0.401066 2.5 0.974767
    endloop
  endfacet
  facet normal 0.397147 0 -0.917755
    outer loop
      vertex -1.36249 -2.5 0.695446
      vertex -1.178 2.5 0.775284
      vertex -1.178 -2.5 0.775284
    endloop
  endfacet
  facet normal 0.397147 0 -0.917755
    outer loop
      vertex -1.178 2.5 0.775284
      vertex -1.36249 -2.5 0.695446
      vertex -1.36249 2.5 0.695446
    endloop
  endfacet
  facet normal 0.218142 0 -0.975917
    outer loop
      vertex -0.795807 -2.5 0.899466
      vertex -0.59962 2.5 0.943318
      vertex -0.59962 -2.5 0.943318
    endloop
  endfacet
  facet normal 0.218142 0 -0.975917
    outer loop
      vertex -0.59962 2.5 0.943318
      vertex -0.795807 -2.5 0.899466
      vertex -0.795807 2.5 0.899466
    endloop
  endfacet
  facet normal 0.156437 0 -0.987688
    outer loop
      vertex -0.59962 -2.5 0.943318
      vertex -0.401066 2.5 0.974767
      vertex -0.401066 -2.5 0.974767
    endloop
  endfacet
  facet normal 0.156437 0 -0.987688
    outer loop
      vertex -0.401066 2.5 0.974767
      vertex -0.59962 -2.5 0.943318
      vertex -0.59962 2.5 0.943318
    endloop
  endfacet
  facet normal 0.999506 -0 0.0314146
    outer loop
      vertex -3.2 -2.5 -2.2
      vertex -3.19368 2.5 -2.40093
      vertex -3.2 2.5 -2.2
    endloop
  endfacet
  facet normal 0.999506 0 0.0314146
    outer loop
      vertex -3.19368 2.5 -2.40093
      vertex -3.2 -2.5 -2.2
      vertex -3.19368 -2.5 -2.40093
    endloop
  endfacet
  facet normal -0.218142 0 -0.975917
    outer loop
      vertex 0.59962 -2.5 0.943318
      vertex 0.795807 2.5 0.899466
      vertex 0.795807 -2.5 0.899466
    endloop
  endfacet
  facet normal -0.218142 0 -0.975917
    outer loop
      vertex 0.795807 2.5 0.899466
      vertex 0.59962 -2.5 0.943318
      vertex 0.59962 2.5 0.943318
    endloop
  endfacet
  facet normal -0.827079 0 -0.562085
    outer loop
      vertex 2.70185 -2.5 -0.485353
      vertex 2.58885 2.5 -0.319087
      vertex 2.70185 2.5 -0.485353
    endloop
  endfacet
  facet normal -0.827079 -0 -0.562085
    outer loop
      vertex 2.58885 2.5 -0.319087
      vertex 2.70185 -2.5 -0.485353
      vertex 2.58885 -2.5 -0.319087
    endloop
  endfacet
  facet normal 0.509042 0 -0.860741
    outer loop
      vertex -1.71465 -2.5 0.501849
      vertex -1.54161 2.5 0.604181
      vertex -1.54161 -2.5 0.604181
    endloop
  endfacet
  facet normal 0.509042 0 -0.860741
    outer loop
      vertex -1.54161 2.5 0.604181
      vertex -1.71465 -2.5 0.501849
      vertex -1.71465 2.5 0.501849
    endloop
  endfacet
  facet normal 0.453988 0 -0.891008
    outer loop
      vertex -1.54161 -2.5 0.604181
      vertex -1.36249 2.5 0.695446
      vertex -1.36249 -2.5 0.695446
    endloop
  endfacet
  facet normal 0.453988 0 -0.891008
    outer loop
      vertex -1.36249 2.5 0.695446
      vertex -1.54161 -2.5 0.604181
      vertex -1.54161 2.5 0.604181
    endloop
  endfacet
  facet normal 0.338737 0 -0.940881
    outer loop
      vertex -1.178 -2.5 0.775284
      vertex -0.988853 2.5 0.84338
      vertex -0.988853 -2.5 0.84338
    endloop
  endfacet
  facet normal 0.338737 0 -0.940881
    outer loop
      vertex -0.988853 2.5 0.84338
      vertex -1.178 -2.5 0.775284
      vertex -1.178 2.5 0.775284
    endloop
  endfacet
  facet normal 0.987689 0 -0.156432
    outer loop
      vertex -3.14332 -2.5 -1.60038
      vertex -3.17477 2.5 -1.79893
      vertex -3.14332 2.5 -1.60038
    endloop
  endfacet
  facet normal 0.987689 0 -0.156432
    outer loop
      vertex -3.17477 2.5 -1.79893
      vertex -3.14332 -2.5 -1.60038
      vertex -3.17477 -2.5 -1.79893
    endloop
  endfacet
  facet normal 0.790155 0 -0.612907
    outer loop
      vertex -2.46564 -2.5 -0.160243
      vertex -2.58885 2.5 -0.319087
      vertex -2.46564 2.5 -0.160243
    endloop
  endfacet
  facet normal 0.790155 0 -0.612907
    outer loop
      vertex -2.58885 2.5 -0.319087
      vertex -2.46564 -2.5 -0.160243
      vertex -2.58885 -2.5 -0.319087
    endloop
  endfacet
  facet normal 0.917754 0 -0.397149
    outer loop
      vertex -2.89545 -2.5 -0.837505
      vertex -2.97528 2.5 -1.022
      vertex -2.89545 2.5 -0.837505
    endloop
  endfacet
  facet normal 0.917754 0 -0.397149
    outer loop
      vertex -2.97528 2.5 -1.022
      vertex -2.89545 -2.5 -0.837505
      vertex -2.97528 -2.5 -1.022
    endloop
  endfacet
  facet normal 0.975916 0 -0.218147
    outer loop
      vertex -3.09947 -2.5 -1.40419
      vertex -3.14332 2.5 -1.60038
      vertex -3.09947 2.5 -1.40419
    endloop
  endfacet
  facet normal 0.975916 0 -0.218147
    outer loop
      vertex -3.14332 2.5 -1.60038
      vertex -3.09947 -2.5 -1.40419
      vertex -3.14332 -2.5 -1.60038
    endloop
  endfacet
  facet normal 0.940881 0 -0.338738
    outer loop
      vertex -2.97528 -2.5 -1.022
      vertex -3.04338 2.5 -1.21115
      vertex -2.97528 2.5 -1.022
    endloop
  endfacet
  facet normal 0.940881 0 -0.338738
    outer loop
      vertex -3.04338 2.5 -1.21115
      vertex -2.97528 -2.5 -1.022
      vertex -3.04338 -2.5 -1.21115
    endloop
  endfacet
  facet normal 0.612909 0 -0.790154
    outer loop
      vertex -2.03976 -2.5 0.265642
      vertex -1.88091 2.5 0.388854
      vertex -1.88091 -2.5 0.388854
    endloop
  endfacet
  facet normal 0.612909 0 -0.790154
    outer loop
      vertex -1.88091 2.5 0.388854
      vertex -2.03976 -2.5 0.265642
      vertex -2.03976 2.5 0.265642
    endloop
  endfacet
  facet normal 0.661313 0 -0.75011
    outer loop
      vertex -2.19055 -2.5 0.132699
      vertex -2.03976 2.5 0.265642
      vertex -2.03976 -2.5 0.265642
    endloop
  endfacet
  facet normal 0.661313 0 -0.75011
    outer loop
      vertex -2.03976 2.5 0.265642
      vertex -2.19055 -2.5 0.132699
      vertex -2.19055 2.5 0.132699
    endloop
  endfacet
  facet normal -0.453988 0 -0.891008
    outer loop
      vertex 1.36249 -2.5 0.695446
      vertex 1.54161 2.5 0.604181
      vertex 1.54161 -2.5 0.604181
    endloop
  endfacet
  facet normal -0.453988 0 -0.891008
    outer loop
      vertex 1.54161 2.5 0.604181
      vertex 1.36249 -2.5 0.695446
      vertex 1.36249 2.5 0.695446
    endloop
  endfacet
  facet normal -0.397147 0 -0.917755
    outer loop
      vertex 1.178 -2.5 0.775284
      vertex 1.36249 2.5 0.695446
      vertex 1.36249 -2.5 0.695446
    endloop
  endfacet
  facet normal -0.397147 0 -0.917755
    outer loop
      vertex 1.36249 2.5 0.695446
      vertex 1.178 -2.5 0.775284
      vertex 1.178 2.5 0.775284
    endloop
  endfacet
  facet normal 0.278993 0 -0.960293
    outer loop
      vertex -0.988853 -2.5 0.84338
      vertex -0.795807 2.5 0.899466
      vertex -0.795807 -2.5 0.899466
    endloop
  endfacet
  facet normal 0.278993 0 -0.960293
    outer loop
      vertex -0.795807 2.5 0.899466
      vertex -0.988853 -2.5 0.84338
      vertex -0.988853 2.5 0.84338
    endloop
  endfacet
  facet normal 0.960294 0 -0.278988
    outer loop
      vertex -3.04338 -2.5 -1.21115
      vertex -3.09947 2.5 -1.40419
      vertex -3.04338 2.5 -1.21115
    endloop
  endfacet
  facet normal 0.960294 0 -0.278988
    outer loop
      vertex -3.09947 2.5 -1.40419
      vertex -3.04338 -2.5 -1.21115
      vertex -3.09947 -2.5 -1.40419
    endloop
  endfacet
  facet normal 0.75011 0 -0.661313
    outer loop
      vertex -2.3327 -2.5 -0.00944901
      vertex -2.46564 2.5 -0.160243
      vertex -2.3327 2.5 -0.00944901
    endloop
  endfacet
  facet normal 0.75011 0 -0.661313
    outer loop
      vertex -2.46564 2.5 -0.160243
      vertex -2.3327 -2.5 -0.00944901
      vertex -2.46564 -2.5 -0.160243
    endloop
  endfacet
  facet normal 0.827079 0 -0.562085
    outer loop
      vertex -2.58885 -2.5 -0.319087
      vertex -2.70185 2.5 -0.485353
      vertex -2.58885 2.5 -0.319087
    endloop
  endfacet
  facet normal 0.827079 0 -0.562085
    outer loop
      vertex -2.70185 2.5 -0.485353
      vertex -2.58885 -2.5 -0.319087
      vertex -2.70185 -2.5 -0.485353
    endloop
  endfacet
  facet normal 0.860743 0 -0.50904
    outer loop
      vertex -2.70185 -2.5 -0.485353
      vertex -2.80418 2.5 -0.658388
      vertex -2.70185 2.5 -0.485353
    endloop
  endfacet
  facet normal 0.860743 0 -0.50904
    outer loop
      vertex -2.80418 2.5 -0.658388
      vertex -2.70185 -2.5 -0.485353
      vertex -2.80418 -2.5 -0.658388
    endloop
  endfacet
  facet normal 0.891007 0 -0.45399
    outer loop
      vertex -2.80418 -2.5 -0.658388
      vertex -2.89545 2.5 -0.837505
      vertex -2.80418 2.5 -0.658388
    endloop
  endfacet
  facet normal 0.891007 0 -0.45399
    outer loop
      vertex -2.89545 2.5 -0.837505
      vertex -2.80418 -2.5 -0.658388
      vertex -2.89545 -2.5 -0.837505
    endloop
  endfacet
endsolid OpenSCAD_Model
