solid OpenSCAD_Model
  facet normal -1 0 0
    outer loop
      vertex -5 -2.5 -2.5
      vertex -5 2.5 2.5
      vertex -5 2.5 -2.5
    endloop
  endfacet
  facet normal -1 -0 0
    outer loop
      vertex -5 2.5 2.5
      vertex -5 -2.5 -2.5
      vertex -5 -2.5 2.5
    endloop
  endfacet
  facet normal -0 0 1
    outer loop
      vertex -5 2.5 2.5
      vertex 5 -2.5 2.5
      vertex 5 2.5 2.5
    endloop
  endfacet
  facet normal 0 0 1
    outer loop
      vertex 5 -2.5 2.5
      vertex -5 2.5 2.5
      vertex -5 -2.5 2.5
    endloop
  endfacet
  facet normal 1 -0 0
    outer loop
      vertex 5 -2.5 2.5
      vertex 5 2.5 -2.5
      vertex 5 2.5 2.5
    endloop
  endfacet
  facet normal 1 0 0
    outer loop
      vertex 5 2.5 -2.5
      vertex 5 -2.5 2.5
      vertex 5 -2.5 -2.5
    endloop
  endfacet
  facet normal 0 1 0
    outer loop
      vertex 5 2.5 2.5
      vertex 0 2.5 1.5
      vertex -5 2.5 2.5
    endloop
  endfacet
  facet normal 0 1 0
    outer loop
      vertex 5 2.5 2.5
      vertex 0.178953 2.5 1.49438
      vertex 0 2.5 1.5
    endloop
  endfacet
  facet normal 0 1 0
    outer loop
      vertex 5 2.5 2.5
      vertex 0.238604 2.5 1.4925
      vertex 0.178953 2.5 1.49438
    endloop
  endfacet
  facet normal 0 1 0
    outer loop
      vertex 5 2.5 2.5
      vertex 0.476266 2.5 1.47004
      vertex 0.238604 2.5 1.4925
    endloop
  endfacet
  facet normal 0 1 0
    outer loop
      vertex 5 2.5 2.5
      vertex 0.712049 2.5 1.43269
      vertex 0.476266 2.5 1.47004
    endloop
  endfacet
  facet normal 0 1 0
    outer loop
      vertex 5 2.5 2.5
      vertex 0.945021 2.5 1.38062
      vertex 0.712049 2.5 1.43269
    endloop
  endfacet
  facet normal 0 1 0
    outer loop
      vertex 5 2.5 2.5
      vertex 1.17426 2.5 1.31401
      vertex 0.945021 2.5 1.38062
    endloop
  endfacet
  facet normal 0 1 0
    outer loop
      vertex 5 2.5 2.5
      vertex 1.39887 2.5 1.23315
      vertex 1.17426 2.5 1.31401
    endloop
  endfacet
  facet normal 0 1 0
    outer loop
      vertex 5 2.5 2.5
      vertex 1.61796 2.5 1.13834
      vertex 1.39887 2.5 1.23315
    endloop
  endfacet
  facet normal 0 1 0
    outer loop
      vertex 5 2.5 2.5
      vertex 1.83066 2.5 1.02996
      vertex 1.61796 2.5 1.13834
    endloop
  endfacet
  facet normal 0 1 0
    outer loop
      vertex 5 2.5 2.5
      vertex 2.03614 2.5 0.908445
      vertex 1.83066 2.5 1.02996
    endloop
  endfacet
  facet normal 0 1 0
    outer loop
      vertex 5 2.5 2.5
      vertex 2.23358 2.5 0.774264
      vertex 2.03614 2.5 0.908445
    endloop
  endfacet
  facet normal 0 1 0
    outer loop
      vertex 5 2.5 2.5
      vertex 2.42221 2.5 0.62795
      vertex 2.23358 2.5 0.774264
    endloop
  endfacet
  facet normal 0 1 0
    outer loop
      vertex 5 2.5 2.5
      vertex 2.60128 2.5 0.47008
      vertex 2.42221 2.5 0.62795
    endloop
  endfacet
  facet normal 0 1 0
    outer loop
      vertex 5 2.5 2.5
      vertex 2.77008 2.5 0.301278
      vertex 2.60128 2.5 0.47008
    endloop
  endfacet
  facet normal 0 1 0
    outer loop
      vertex 5 2.5 2.5
      vertex 2.92795 2.5 0.122211
      vertex 2.77008 2.5 0.301278
    endloop
  endfacet
  facet normal 0 1 0
    outer loop
      vertex 5 2.5 2.5
      vertex 3.07426 2.5 -0.0664158
      vertex 2.92795 2.5 0.122211
    endloop
  endfacet
  facet normal 0 1 0
    outer loop
      vertex 5 2.5 2.5
      vertex 3.20845 2.5 -0.263858
      vertex 3.07426 2.5 -0.0664158
    endloop
  endfacet
  facet normal 0 1 0
    outer loop
      vertex 5 2.5 2.5
      vertex 3.32996 2.5 -0.469336
      vertex 3.20845 2.5 -0.263858
    endloop
  endfacet
  facet normal 0 1 0
    outer loop
      vertex 5 2.5 2.5
      vertex 3.43834 2.5 -0.682038
      vertex 3.32996 2.5 -0.469336
    endloop
  endfacet
  facet normal 0 1 0
    outer loop
      vertex 5 2.5 2.5
      vertex 3.53315 2.5 -0.901126
      vertex 3.43834 2.5 -0.682038
    endloop
  endfacet
  facet normal 0 1 -0
    outer loop
      vertex 5 2.5 -2.5
      vertex 3.53315 2.5 -0.901126
      vertex 5 2.5 2.5
    endloop
  endfacet
  facet normal 0 1 0
    outer loop
      vertex 3.53315 2.5 -0.901126
      vertex 5 2.5 -2.5
      vertex 3.61401 2.5 -1.12574
    endloop
  endfacet
  facet normal 0 1 0
    outer loop
      vertex 3.61401 2.5 -1.12574
      vertex 5 2.5 -2.5
      vertex 3.68062 2.5 -1.35498
    endloop
  endfacet
  facet normal 0 1 0
    outer loop
      vertex 3.68062 2.5 -1.35498
      vertex 5 2.5 -2.5
      vertex 3.73269 2.5 -1.58795
    endloop
  endfacet
  facet normal 0 1 0
    outer loop
      vertex 3.73269 2.5 -1.58795
      vertex 5 2.5 -2.5
      vertex 3.77004 2.5 -1.82373
    endloop
  endfacet
  facet normal 0 1 0
    outer loop
      vertex 3.77004 2.5 -1.82373
      vertex 5 2.5 -2.5
      vertex 3.7925 2.5 -2.0614
    endloop
  endfacet
  facet normal 0 1 0
    outer loop
      vertex 3.7925 2.5 -2.0614
      vertex 5 2.5 -2.5
      vertex 3.8 2.5 -2.3
    endloop
  endfacet
  facet normal 0 1 0
    outer loop
      vertex 3.8 2.5 -2.3
      vertex 5 2.5 -2.5
      vertex 3.79371 2.5 -2.5
    endloop
  endfacet
  facet normal 0 1 -0
    outer loop
      vertex -0.178953 2.5 1.49438
      vertex -5 2.5 2.5
      vertex 0 2.5 1.5
    endloop
  endfacet
  facet normal 0 1 -0
    outer loop
      vertex -0.238604 2.5 1.4925
      vertex -5 2.5 2.5
      vertex -0.178953 2.5 1.49438
    endloop
  endfacet
  facet normal 0 1 -0
    outer loop
      vertex -0.476266 2.5 1.47004
      vertex -5 2.5 2.5
      vertex -0.238604 2.5 1.4925
    endloop
  endfacet
  facet normal 0 1 -0
    outer loop
      vertex -0.712049 2.5 1.43269
      vertex -5 2.5 2.5
      vertex -0.476266 2.5 1.47004
    endloop
  endfacet
  facet normal 0 1 -0
    outer loop
      vertex -0.945021 2.5 1.38062
      vertex -5 2.5 2.5
      vertex -0.712049 2.5 1.43269
    endloop
  endfacet
  facet normal 0 1 -0
    outer loop
      vertex -1.17426 2.5 1.31401
      vertex -5 2.5 2.5
      vertex -0.945021 2.5 1.38062
    endloop
  endfacet
  facet normal 0 1 -0
    outer loop
      vertex -1.39887 2.5 1.23315
      vertex -5 2.5 2.5
      vertex -1.17426 2.5 1.31401
    endloop
  endfacet
  facet normal 0 1 -0
    outer loop
      vertex -1.61796 2.5 1.13834
      vertex -5 2.5 2.5
      vertex -1.39887 2.5 1.23315
    endloop
  endfacet
  facet normal 0 1 -0
    outer loop
      vertex -1.83066 2.5 1.02996
      vertex -5 2.5 2.5
      vertex -1.61796 2.5 1.13834
    endloop
  endfacet
  facet normal 0 1 -0
    outer loop
      vertex -2.03614 2.5 0.908445
      vertex -5 2.5 2.5
      vertex -1.83066 2.5 1.02996
    endloop
  endfacet
  facet normal 0 1 -0
    outer loop
      vertex -2.23358 2.5 0.774264
      vertex -5 2.5 2.5
      vertex -2.03614 2.5 0.908445
    endloop
  endfacet
  facet normal 0 1 -0
    outer loop
      vertex -2.42221 2.5 0.62795
      vertex -5 2.5 2.5
      vertex -2.23358 2.5 0.774264
    endloop
  endfacet
  facet normal 0 1 -0
    outer loop
      vertex -2.60128 2.5 0.47008
      vertex -5 2.5 2.5
      vertex -2.42221 2.5 0.62795
    endloop
  endfacet
  facet normal 0 1 -0
    outer loop
      vertex -2.77008 2.5 0.301278
      vertex -5 2.5 2.5
      vertex -2.60128 2.5 0.47008
    endloop
  endfacet
  facet normal 0 1 -0
    outer loop
      vertex -2.92795 2.5 0.122211
      vertex -5 2.5 2.5
      vertex -2.77008 2.5 0.301278
    endloop
  endfacet
  facet normal 0 1 -0
    outer loop
      vertex -3.07426 2.5 -0.0664158
      vertex -5 2.5 2.5
      vertex -2.92795 2.5 0.122211
    endloop
  endfacet
  facet normal 0 1 -0
    outer loop
      vertex -3.20845 2.5 -0.263858
      vertex -5 2.5 2.5
      vertex -3.07426 2.5 -0.0664158
    endloop
  endfacet
  facet normal 0 1 -0
    outer loop
      vertex -3.32996 2.5 -0.469336
      vertex -5 2.5 2.5
      vertex -3.20845 2.5 -0.263858
    endloop
  endfacet
  facet normal 0 1 -0
    outer loop
      vertex -3.43834 2.5 -0.682038
      vertex -5 2.5 2.5
      vertex -3.32996 2.5 -0.469336
    endloop
  endfacet
  facet normal 0 1 -0
    outer loop
      vertex -3.53315 2.5 -0.901126
      vertex -5 2.5 2.5
      vertex -3.43834 2.5 -0.682038
    endloop
  endfacet
  facet normal 0 1 0
    outer loop
      vertex -5 2.5 -2.5
      vertex -3.53315 2.5 -0.901126
      vertex -3.61401 2.5 -1.12574
    endloop
  endfacet
  facet normal 0 1 0
    outer loop
      vertex -5 2.5 -2.5
      vertex -3.61401 2.5 -1.12574
      vertex -3.68062 2.5 -1.35498
    endloop
  endfacet
  facet normal 0 1 0
    outer loop
      vertex -5 2.5 -2.5
      vertex -3.68062 2.5 -1.35498
      vertex -3.73269 2.5 -1.58795
    endloop
  endfacet
  facet normal 0 1 0
    outer loop
      vertex -5 2.5 -2.5
      vertex -3.73269 2.5 -1.58795
      vertex -3.77004 2.5 -1.82373
    endloop
  endfacet
  facet normal 0 1 0
    outer loop
      vertex -5 2.5 -2.5
      vertex -3.77004 2.5 -1.82373
      vertex -3.7925 2.5 -2.0614
    endloop
  endfacet
  facet normal 0 1 0
    outer loop
      vertex -5 2.5 -2.5
      vertex -3.7925 2.5 -2.0614
      vertex -3.8 2.5 -2.3
    endloop
  endfacet
  facet normal 0 1 0
    outer loop
      vertex -5 2.5 -2.5
      vertex -3.8 2.5 -2.3
      vertex -3.79371 2.5 -2.5
    endloop
  endfacet
  facet normal 0 1 0
    outer loop
      vertex -3.53315 2.5 -0.901126
      vertex -5 2.5 -2.5
      vertex -5 2.5 2.5
    endloop
  endfacet
  facet normal 0 0 -1
    outer loop
      vertex -5 -2.5 -2.5
      vertex -3.79371 2.5 -2.5
      vertex -3.79371 -2.5 -2.5
    endloop
  endfacet
  facet normal -0 0 -1
    outer loop
      vertex -3.79371 2.5 -2.5
      vertex -5 -2.5 -2.5
      vertex -5 2.5 -2.5
    endloop
  endfacet
  facet normal 0 0 -1
    outer loop
      vertex 3.79371 -2.5 -2.5
      vertex 5 2.5 -2.5
      vertex 5 -2.5 -2.5
    endloop
  endfacet
  facet normal -0 0 -1
    outer loop
      vertex 5 2.5 -2.5
      vertex 3.79371 -2.5 -2.5
      vertex 3.79371 2.5 -2.5
    endloop
  endfacet
  facet normal 0 -1 0
    outer loop
      vertex -5 -2.5 2.5
      vertex 0 -2.5 1.5
      vertex 5 -2.5 2.5
    endloop
  endfacet
  facet normal 0 -1 0
    outer loop
      vertex -5 -2.5 2.5
      vertex -0.0596509 -2.5 1.49813
      vertex 0 -2.5 1.5
    endloop
  endfacet
  facet normal 0 -1 0
    outer loop
      vertex -5 -2.5 2.5
      vertex -0.238604 -2.5 1.4925
      vertex -0.0596509 -2.5 1.49813
    endloop
  endfacet
  facet normal 0 -1 0
    outer loop
      vertex -5 -2.5 2.5
      vertex -0.476266 -2.5 1.47004
      vertex -0.238604 -2.5 1.4925
    endloop
  endfacet
  facet normal 0 -1 0
    outer loop
      vertex -5 -2.5 2.5
      vertex -0.712049 -2.5 1.43269
      vertex -0.476266 -2.5 1.47004
    endloop
  endfacet
  facet normal 0 -1 0
    outer loop
      vertex -5 -2.5 2.5
      vertex -0.945021 -2.5 1.38062
      vertex -0.712049 -2.5 1.43269
    endloop
  endfacet
  facet normal 0 -1 0
    outer loop
      vertex -5 -2.5 2.5
      vertex -1.17426 -2.5 1.31401
      vertex -0.945021 -2.5 1.38062
    endloop
  endfacet
  facet normal 0 -1 0
    outer loop
      vertex -5 -2.5 2.5
      vertex -1.39887 -2.5 1.23315
      vertex -1.17426 -2.5 1.31401
    endloop
  endfacet
  facet normal 0 -1 0
    outer loop
      vertex -5 -2.5 2.5
      vertex -1.61796 -2.5 1.13834
      vertex -1.39887 -2.5 1.23315
    endloop
  endfacet
  facet normal 0 -1 0
    outer loop
      vertex -5 -2.5 2.5
      vertex -1.83066 -2.5 1.02996
      vertex -1.61796 -2.5 1.13834
    endloop
  endfacet
  facet normal 0 -1 0
    outer loop
      vertex -5 -2.5 2.5
      vertex -2.03614 -2.5 0.908445
      vertex -1.83066 -2.5 1.02996
    endloop
  endfacet
  facet normal 0 -1 0
    outer loop
      vertex -5 -2.5 2.5
      vertex -2.23358 -2.5 0.774264
      vertex -2.03614 -2.5 0.908445
    endloop
  endfacet
  facet normal 0 -1 0
    outer loop
      vertex -5 -2.5 2.5
      vertex -2.42221 -2.5 0.62795
      vertex -2.23358 -2.5 0.774264
    endloop
  endfacet
  facet normal 0 -1 0
    outer loop
      vertex -5 -2.5 2.5
      vertex -2.60128 -2.5 0.47008
      vertex -2.42221 -2.5 0.62795
    endloop
  endfacet
  facet normal 0 -1 0
    outer loop
      vertex -5 -2.5 2.5
      vertex -2.77008 -2.5 0.301278
      vertex -2.60128 -2.5 0.47008
    endloop
  endfacet
  facet normal 0 -1 0
    outer loop
      vertex -5 -2.5 2.5
      vertex -2.92795 -2.5 0.122211
      vertex -2.77008 -2.5 0.301278
    endloop
  endfacet
  facet normal 0 -1 0
    outer loop
      vertex -5 -2.5 2.5
      vertex -3.07426 -2.5 -0.0664158
      vertex -2.92795 -2.5 0.122211
    endloop
  endfacet
  facet normal 0 -1 0
    outer loop
      vertex -5 -2.5 2.5
      vertex -3.20845 -2.5 -0.263858
      vertex -3.07426 -2.5 -0.0664158
    endloop
  endfacet
  facet normal 0 -1 0
    outer loop
      vertex -5 -2.5 2.5
      vertex -3.32996 -2.5 -0.469336
      vertex -3.20845 -2.5 -0.263858
    endloop
  endfacet
  facet normal 0 -1 0
    outer loop
      vertex -5 -2.5 2.5
      vertex -3.43834 -2.5 -0.682038
      vertex -3.32996 -2.5 -0.469336
    endloop
  endfacet
  facet normal 0 -1 0
    outer loop
      vertex -5 -2.5 2.5
      vertex -3.53315 -2.5 -0.901126
      vertex -3.43834 -2.5 -0.682038
    endloop
  endfacet
  facet normal 0 -1 0
    outer loop
      vertex -5 -2.5 -2.5
      vertex -3.53315 -2.5 -0.901126
      vertex -5 -2.5 2.5
    endloop
  endfacet
  facet normal 0 -1 0
    outer loop
      vertex -3.53315 -2.5 -0.901126
      vertex -5 -2.5 -2.5
      vertex -3.61401 -2.5 -1.12574
    endloop
  endfacet
  facet normal 0 -1 0
    outer loop
      vertex -3.61401 -2.5 -1.12574
      vertex -5 -2.5 -2.5
      vertex -3.68062 -2.5 -1.35498
    endloop
  endfacet
  facet normal 0 -1 0
    outer loop
      vertex -3.68062 -2.5 -1.35498
      vertex -5 -2.5 -2.5
      vertex -3.73269 -2.5 -1.58795
    endloop
  endfacet
  facet normal 0 -1 0
    outer loop
      vertex -3.73269 -2.5 -1.58795
      vertex -5 -2.5 -2.5
      vertex -3.77004 -2.5 -1.82373
    endloop
  endfacet
  facet normal 0 -1 0
    outer loop
      vertex -3.77004 -2.5 -1.82373
      vertex -5 -2.5 -2.5
      vertex -3.7925 -2.5 -2.0614
    endloop
  endfacet
  facet normal 0 -1 0
    outer loop
      vertex -3.7925 -2.5 -2.0614
      vertex -5 -2.5 -2.5
      vertex -3.8 -2.5 -2.3
    endloop
  endfacet
  facet normal 0 -1 -0
    outer loop
      vertex -3.8 -2.5 -2.3
      vertex -5 -2.5 -2.5
      vertex -3.79371 -2.5 -2.5
    endloop
  endfacet
  facet normal 0 -1 0
    outer loop
      vertex 0.0596509 -2.5 1.49813
      vertex 5 -2.5 2.5
      vertex 0 -2.5 1.5
    endloop
  endfacet
  facet normal 0 -1 0
    outer loop
      vertex 0.238604 -2.5 1.4925
      vertex 5 -2.5 2.5
      vertex 0.0596509 -2.5 1.49813
    endloop
  endfacet
  facet normal 0 -1 0
    outer loop
      vertex 0.476266 -2.5 1.47004
      vertex 5 -2.5 2.5
      vertex 0.238604 -2.5 1.4925
    endloop
  endfacet
  facet normal 0 -1 0
    outer loop
      vertex 0.712049 -2.5 1.43269
      vertex 5 -2.5 2.5
      vertex 0.476266 -2.5 1.47004
    endloop
  endfacet
  facet normal 0 -1 0
    outer loop
      vertex 0.945021 -2.5 1.38062
      vertex 5 -2.5 2.5
      vertex 0.712049 -2.5 1.43269
    endloop
  endfacet
  facet normal 0 -1 0
    outer loop
      vertex 1.17426 -2.5 1.31401
      vertex 5 -2.5 2.5
      vertex 0.945021 -2.5 1.38062
    endloop
  endfacet
  facet normal 0 -1 0
    outer loop
      vertex 1.39887 -2.5 1.23315
      vertex 5 -2.5 2.5
      vertex 1.17426 -2.5 1.31401
    endloop
  endfacet
  facet normal 0 -1 0
    outer loop
      vertex 1.61796 -2.5 1.13834
      vertex 5 -2.5 2.5
      vertex 1.39887 -2.5 1.23315
    endloop
  endfacet
  facet normal 0 -1 0
    outer loop
      vertex 1.83066 -2.5 1.02996
      vertex 5 -2.5 2.5
      vertex 1.61796 -2.5 1.13834
    endloop
  endfacet
  facet normal 0 -1 0
    outer loop
      vertex 2.03614 -2.5 0.908445
      vertex 5 -2.5 2.5
      vertex 1.83066 -2.5 1.02996
    endloop
  endfacet
  facet normal 0 -1 0
    outer loop
      vertex 2.23358 -2.5 0.774264
      vertex 5 -2.5 2.5
      vertex 2.03614 -2.5 0.908445
    endloop
  endfacet
  facet normal 0 -1 0
    outer loop
      vertex 2.42221 -2.5 0.62795
      vertex 5 -2.5 2.5
      vertex 2.23358 -2.5 0.774264
    endloop
  endfacet
  facet normal 0 -1 0
    outer loop
      vertex 2.60128 -2.5 0.47008
      vertex 5 -2.5 2.5
      vertex 2.42221 -2.5 0.62795
    endloop
  endfacet
  facet normal 0 -1 0
    outer loop
      vertex 2.77008 -2.5 0.301278
      vertex 5 -2.5 2.5
      vertex 2.60128 -2.5 0.47008
    endloop
  endfacet
  facet normal 0 -1 0
    outer loop
      vertex 2.92795 -2.5 0.122211
      vertex 5 -2.5 2.5
      vertex 2.77008 -2.5 0.301278
    endloop
  endfacet
  facet normal 0 -1 0
    outer loop
      vertex 3.07426 -2.5 -0.0664158
      vertex 5 -2.5 2.5
      vertex 2.92795 -2.5 0.122211
    endloop
  endfacet
  facet normal 0 -1 0
    outer loop
      vertex 3.20845 -2.5 -0.263858
      vertex 5 -2.5 2.5
      vertex 3.07426 -2.5 -0.0664158
    endloop
  endfacet
  facet normal 0 -1 0
    outer loop
      vertex 3.32996 -2.5 -0.469336
      vertex 5 -2.5 2.5
      vertex 3.20845 -2.5 -0.263858
    endloop
  endfacet
  facet normal 0 -1 0
    outer loop
      vertex 3.43834 -2.5 -0.682038
      vertex 5 -2.5 2.5
      vertex 3.32996 -2.5 -0.469336
    endloop
  endfacet
  facet normal 0 -1 0
    outer loop
      vertex 3.53315 -2.5 -0.901126
      vertex 5 -2.5 2.5
      vertex 3.43834 -2.5 -0.682038
    endloop
  endfacet
  facet normal 0 -1 0
    outer loop
      vertex 5 -2.5 -2.5
      vertex 3.53315 -2.5 -0.901126
      vertex 3.61401 -2.5 -1.12574
    endloop
  endfacet
  facet normal 0 -1 0
    outer loop
      vertex 5 -2.5 -2.5
      vertex 3.61401 -2.5 -1.12574
      vertex 3.68062 -2.5 -1.35498
    endloop
  endfacet
  facet normal 0 -1 0
    outer loop
      vertex 5 -2.5 -2.5
      vertex 3.68062 -2.5 -1.35498
      vertex 3.73269 -2.5 -1.58795
    endloop
  endfacet
  facet normal 0 -1 0
    outer loop
      vertex 5 -2.5 -2.5
      vertex 3.73269 -2.5 -1.58795
      vertex 3.77004 -2.5 -1.82373
    endloop
  endfacet
  facet normal 0 -1 0
    outer loop
      vertex 5 -2.5 -2.5
      vertex 3.77004 -2.5 -1.82373
      vertex 3.7925 -2.5 -2.0614
    endloop
  endfacet
  facet normal 0 -1 0
    outer loop
      vertex 5 -2.5 -2.5
      vertex 3.7925 -2.5 -2.0614
      vertex 3.8 -2.5 -2.3
    endloop
  endfacet
  facet normal 0 -1 0
    outer loop
      vertex 5 -2.5 -2.5
      vertex 3.8 -2.5 -2.3
      vertex 3.79371 -2.5 -2.5
    endloop
  endfacet
  facet normal 0 -1 0
    outer loop
      vertex 3.53315 -2.5 -0.901126
      vertex 5 -2.5 -2.5
      vertex 5 -2.5 2.5
    endloop
  endfacet
  facet normal -0.999507 0 -0.0314081
    outer loop
      vertex 3.8 -2.5 -2.3
      vertex 3.7925 2.5 -2.0614
      vertex 3.8 2.5 -2.3
    endloop
  endfacet
  facet normal -0.999507 -0 -0.0314081
    outer loop
      vertex 3.7925 2.5 -2.0614
      vertex 3.8 -2.5 -2.3
      vertex 3.7925 -2.5 -2.0614
    endloop
  endfacet
  facet normal 0.0314121 0 -0.999507
    outer loop
      vertex -0.238604 -2.5 1.4925
      vertex -0.178953 2.5 1.49438
      vertex -0.0596509 -2.5 1.49813
    endloop
  endfacet
  facet normal 0.0314121 0 -0.999507
    outer loop
      vertex -0.178953 2.5 1.49438
      vertex -0.238604 -2.5 1.4925
      vertex -0.238604 2.5 1.4925
    endloop
  endfacet
  facet normal 0.0941083 0 -0.995562
    outer loop
      vertex -0.476266 -2.5 1.47004
      vertex -0.238604 2.5 1.4925
      vertex -0.238604 -2.5 1.4925
    endloop
  endfacet
  facet normal 0.0941083 0 -0.995562
    outer loop
      vertex -0.238604 2.5 1.4925
      vertex -0.476266 -2.5 1.47004
      vertex -0.476266 2.5 1.47004
    endloop
  endfacet
  facet normal 0.0314081 -9.53204e-08 -0.999507
    outer loop
      vertex -0.0596509 -2.5 1.49813
      vertex 0 2.5 1.5
      vertex 0 -2.5 1.5
    endloop
  endfacet
  facet normal 0.0314081 -9.53204e-08 -0.999507
    outer loop
      vertex 0 2.5 1.5
      vertex -0.0596509 -2.5 1.49813
      vertex -0.178953 2.5 1.49438
    endloop
  endfacet
  facet normal -0.995562 0 -0.0941083
    outer loop
      vertex 3.7925 -2.5 -2.0614
      vertex 3.77004 2.5 -1.82373
      vertex 3.7925 2.5 -2.0614
    endloop
  endfacet
  facet normal -0.995562 -0 -0.0941083
    outer loop
      vertex 3.77004 2.5 -1.82373
      vertex 3.7925 -2.5 -2.0614
      vertex 3.77004 -2.5 -1.82373
    endloop
  endfacet
  facet normal 0.999507 0 -0.0314081
    outer loop
      vertex -3.7925 -2.5 -2.0614
      vertex -3.8 2.5 -2.3
      vertex -3.7925 2.5 -2.0614
    endloop
  endfacet
  facet normal 0.999507 0 -0.0314081
    outer loop
      vertex -3.8 2.5 -2.3
      vertex -3.7925 -2.5 -2.0614
      vertex -3.8 -2.5 -2.3
    endloop
  endfacet
  facet normal 0.999507 -0 0.0314079
    outer loop
      vertex -3.8 -2.5 -2.3
      vertex -3.79371 2.5 -2.5
      vertex -3.8 2.5 -2.3
    endloop
  endfacet
  facet normal 0.999507 0 0.0314079
    outer loop
      vertex -3.79371 2.5 -2.5
      vertex -3.8 -2.5 -2.3
      vertex -3.79371 -2.5 -2.5
    endloop
  endfacet
  facet normal 0.987688 0 -0.156437
    outer loop
      vertex -3.73269 -2.5 -1.58795
      vertex -3.77004 2.5 -1.82373
      vertex -3.73269 2.5 -1.58795
    endloop
  endfacet
  facet normal 0.987688 0 -0.156437
    outer loop
      vertex -3.77004 2.5 -1.82373
      vertex -3.73269 -2.5 -1.58795
      vertex -3.77004 -2.5 -1.82373
    endloop
  endfacet
  facet normal 0.995562 0 -0.0941083
    outer loop
      vertex -3.77004 -2.5 -1.82373
      vertex -3.7925 2.5 -2.0614
      vertex -3.77004 2.5 -1.82373
    endloop
  endfacet
  facet normal 0.995562 0 -0.0941083
    outer loop
      vertex -3.7925 2.5 -2.0614
      vertex -3.77004 -2.5 -1.82373
      vertex -3.7925 -2.5 -2.0614
    endloop
  endfacet
  facet normal 0.917755 0 -0.397148
    outer loop
      vertex -3.43834 -2.5 -0.682038
      vertex -3.53315 2.5 -0.901126
      vertex -3.43834 2.5 -0.682038
    endloop
  endfacet
  facet normal 0.917755 0 -0.397148
    outer loop
      vertex -3.53315 2.5 -0.901126
      vertex -3.43834 -2.5 -0.682038
      vertex -3.53315 -2.5 -0.901126
    endloop
  endfacet
  facet normal 0.156437 0 -0.987688
    outer loop
      vertex -0.712049 -2.5 1.43269
      vertex -0.476266 2.5 1.47004
      vertex -0.476266 -2.5 1.47004
    endloop
  endfacet
  facet normal 0.156437 0 -0.987688
    outer loop
      vertex -0.476266 2.5 1.47004
      vertex -0.712049 -2.5 1.43269
      vertex -0.712049 2.5 1.43269
    endloop
  endfacet
  facet normal -0.891007 0 -0.45399
    outer loop
      vertex 3.43834 -2.5 -0.682038
      vertex 3.32996 2.5 -0.469336
      vertex 3.43834 2.5 -0.682038
    endloop
  endfacet
  facet normal -0.891007 -0 -0.45399
    outer loop
      vertex 3.32996 2.5 -0.469336
      vertex 3.43834 -2.5 -0.682038
      vertex 3.32996 -2.5 -0.469336
    endloop
  endfacet
  facet normal -0.0941083 0 -0.995562
    outer loop
      vertex 0.238604 -2.5 1.4925
      vertex 0.476266 2.5 1.47004
      vertex 0.476266 -2.5 1.47004
    endloop
  endfacet
  facet normal -0.0941083 0 -0.995562
    outer loop
      vertex 0.476266 2.5 1.47004
      vertex 0.238604 -2.5 1.4925
      vertex 0.238604 2.5 1.4925
    endloop
  endfacet
  facet normal -0.999507 0 0.0314079
    outer loop
      vertex 3.79371 -2.5 -2.5
      vertex 3.8 2.5 -2.3
      vertex 3.79371 2.5 -2.5
    endloop
  endfacet
  facet normal -0.999507 0 0.0314079
    outer loop
      vertex 3.8 2.5 -2.3
      vertex 3.79371 -2.5 -2.5
      vertex 3.8 -2.5 -2.3
    endloop
  endfacet
  facet normal 0.891007 0 -0.45399
    outer loop
      vertex -3.32996 -2.5 -0.469336
      vertex -3.43834 2.5 -0.682038
      vertex -3.32996 2.5 -0.469336
    endloop
  endfacet
  facet normal 0.891007 0 -0.45399
    outer loop
      vertex -3.43834 2.5 -0.682038
      vertex -3.32996 -2.5 -0.469336
      vertex -3.43834 -2.5 -0.682038
    endloop
  endfacet
  facet normal -0.338738 0 -0.940881
    outer loop
      vertex 1.17426 -2.5 1.31401
      vertex 1.39887 2.5 1.23315
      vertex 1.39887 -2.5 1.23315
    endloop
  endfacet
  facet normal -0.338738 0 -0.940881
    outer loop
      vertex 1.39887 2.5 1.23315
      vertex 1.17426 -2.5 1.31401
      vertex 1.17426 2.5 1.31401
    endloop
  endfacet
  facet normal -0.790153 0 -0.61291
    outer loop
      vertex 3.07426 -2.5 -0.0664158
      vertex 2.92795 2.5 0.122211
      vertex 3.07426 2.5 -0.0664158
    endloop
  endfacet
  facet normal -0.790153 -0 -0.61291
    outer loop
      vertex 2.92795 2.5 0.122211
      vertex 3.07426 -2.5 -0.0664158
      vertex 2.92795 -2.5 0.122211
    endloop
  endfacet
  facet normal 0.750111 0 -0.661312
    outer loop
      vertex -2.77008 -2.5 0.301278
      vertex -2.92795 2.5 0.122211
      vertex -2.77008 2.5 0.301278
    endloop
  endfacet
  facet normal 0.750111 0 -0.661312
    outer loop
      vertex -2.92795 2.5 0.122211
      vertex -2.77008 -2.5 0.301278
      vertex -2.92795 -2.5 0.122211
    endloop
  endfacet
  facet normal 0.790153 0 -0.61291
    outer loop
      vertex -2.92795 -2.5 0.122211
      vertex -3.07426 2.5 -0.0664158
      vertex -2.92795 2.5 0.122211
    endloop
  endfacet
  facet normal 0.790153 0 -0.61291
    outer loop
      vertex -3.07426 2.5 -0.0664158
      vertex -2.92795 -2.5 0.122211
      vertex -3.07426 -2.5 -0.0664158
    endloop
  endfacet
  facet normal -0.278989 0 -0.960294
    outer loop
      vertex 0.945021 -2.5 1.38062
      vertex 1.17426 2.5 1.31401
      vertex 1.17426 -2.5 1.31401
    endloop
  endfacet
  facet normal -0.278989 0 -0.960294
    outer loop
      vertex 1.17426 2.5 1.31401
      vertex 0.945021 -2.5 1.38062
      vertex 0.945021 2.5 1.38062
    endloop
  endfacet
  facet normal -0.156437 0 -0.987688
    outer loop
      vertex 0.476266 -2.5 1.47004
      vertex 0.712049 2.5 1.43269
      vertex 0.712049 -2.5 1.43269
    endloop
  endfacet
  facet normal -0.156437 0 -0.987688
    outer loop
      vertex 0.712049 2.5 1.43269
      vertex 0.476266 -2.5 1.47004
      vertex 0.476266 2.5 1.47004
    endloop
  endfacet
  facet normal -0.509041 0 -0.860742
    outer loop
      vertex 1.83066 -2.5 1.02996
      vertex 2.03614 2.5 0.908445
      vertex 2.03614 -2.5 0.908445
    endloop
  endfacet
  facet normal -0.509041 0 -0.860742
    outer loop
      vertex 2.03614 2.5 0.908445
      vertex 1.83066 -2.5 1.02996
      vertex 1.83066 2.5 1.02996
    endloop
  endfacet
  facet normal -0.612908 0 -0.790154
    outer loop
      vertex 2.23358 -2.5 0.774264
      vertex 2.42221 2.5 0.62795
      vertex 2.42221 -2.5 0.62795
    endloop
  endfacet
  facet normal -0.612908 0 -0.790154
    outer loop
      vertex 2.42221 2.5 0.62795
      vertex 2.23358 -2.5 0.774264
      vertex 2.23358 2.5 0.774264
    endloop
  endfacet
  facet normal -0.39715 0 -0.917754
    outer loop
      vertex 1.39887 -2.5 1.23315
      vertex 1.61796 2.5 1.13834
      vertex 1.61796 -2.5 1.13834
    endloop
  endfacet
  facet normal -0.39715 0 -0.917754
    outer loop
      vertex 1.61796 2.5 1.13834
      vertex 1.39887 -2.5 1.23315
      vertex 1.39887 2.5 1.23315
    endloop
  endfacet
  facet normal -0.960294 0 -0.27899
    outer loop
      vertex 3.68062 -2.5 -1.35498
      vertex 3.61401 2.5 -1.12574
      vertex 3.68062 2.5 -1.35498
    endloop
  endfacet
  facet normal -0.960294 -0 -0.27899
    outer loop
      vertex 3.61401 2.5 -1.12574
      vertex 3.68062 -2.5 -1.35498
      vertex 3.61401 -2.5 -1.12574
    endloop
  endfacet
  facet normal -0.987688 0 -0.156437
    outer loop
      vertex 3.77004 -2.5 -1.82373
      vertex 3.73269 2.5 -1.58795
      vertex 3.77004 2.5 -1.82373
    endloop
  endfacet
  facet normal -0.987688 -0 -0.156437
    outer loop
      vertex 3.73269 2.5 -1.58795
      vertex 3.77004 -2.5 -1.82373
      vertex 3.73269 -2.5 -1.58795
    endloop
  endfacet
  facet normal -0.827081 0 -0.562082
    outer loop
      vertex 3.20845 -2.5 -0.263858
      vertex 3.07426 2.5 -0.0664158
      vertex 3.20845 2.5 -0.263858
    endloop
  endfacet
  facet normal -0.827081 -0 -0.562082
    outer loop
      vertex 3.07426 2.5 -0.0664158
      vertex 3.20845 -2.5 -0.263858
      vertex 3.07426 -2.5 -0.0664158
    endloop
  endfacet
  facet normal -0.750111 0 -0.661312
    outer loop
      vertex 2.92795 -2.5 0.122211
      vertex 2.77008 2.5 0.301278
      vertex 2.92795 2.5 0.122211
    endloop
  endfacet
  facet normal -0.750111 -0 -0.661312
    outer loop
      vertex 2.77008 2.5 0.301278
      vertex 2.92795 -2.5 0.122211
      vertex 2.77008 -2.5 0.301278
    endloop
  endfacet
  facet normal -0.661312 0 -0.750111
    outer loop
      vertex 2.42221 -2.5 0.62795
      vertex 2.60128 2.5 0.47008
      vertex 2.60128 -2.5 0.47008
    endloop
  endfacet
  facet normal -0.661312 0 -0.750111
    outer loop
      vertex 2.60128 2.5 0.47008
      vertex 2.42221 -2.5 0.62795
      vertex 2.42221 2.5 0.62795
    endloop
  endfacet
  facet normal 0.218143 0 -0.975917
    outer loop
      vertex -0.945021 -2.5 1.38062
      vertex -0.712049 2.5 1.43269
      vertex -0.712049 -2.5 1.43269
    endloop
  endfacet
  facet normal 0.218143 0 -0.975917
    outer loop
      vertex -0.712049 2.5 1.43269
      vertex -0.945021 -2.5 1.38062
      vertex -0.945021 2.5 1.38062
    endloop
  endfacet
  facet normal 0.562082 0 -0.827081
    outer loop
      vertex -2.23358 -2.5 0.774264
      vertex -2.03614 2.5 0.908445
      vertex -2.03614 -2.5 0.908445
    endloop
  endfacet
  facet normal 0.562082 0 -0.827081
    outer loop
      vertex -2.03614 2.5 0.908445
      vertex -2.23358 -2.5 0.774264
      vertex -2.23358 2.5 0.774264
    endloop
  endfacet
  facet normal 0.509041 0 -0.860742
    outer loop
      vertex -2.03614 -2.5 0.908445
      vertex -1.83066 2.5 1.02996
      vertex -1.83066 -2.5 1.02996
    endloop
  endfacet
  facet normal 0.509041 0 -0.860742
    outer loop
      vertex -1.83066 2.5 1.02996
      vertex -2.03614 -2.5 0.908445
      vertex -2.03614 2.5 0.908445
    endloop
  endfacet
  facet normal 0.94088 0 -0.33874
    outer loop
      vertex -3.53315 -2.5 -0.901126
      vertex -3.61401 2.5 -1.12574
      vertex -3.53315 2.5 -0.901126
    endloop
  endfacet
  facet normal 0.94088 0 -0.33874
    outer loop
      vertex -3.61401 2.5 -1.12574
      vertex -3.53315 -2.5 -0.901126
      vertex -3.61401 -2.5 -1.12574
    endloop
  endfacet
  facet normal 0.661312 0 -0.750111
    outer loop
      vertex -2.60128 -2.5 0.47008
      vertex -2.42221 2.5 0.62795
      vertex -2.42221 -2.5 0.62795
    endloop
  endfacet
  facet normal 0.661312 0 -0.750111
    outer loop
      vertex -2.42221 2.5 0.62795
      vertex -2.60128 -2.5 0.47008
      vertex -2.60128 2.5 0.47008
    endloop
  endfacet
  facet normal -0.0314081 -9.53204e-08 -0.999507
    outer loop
      vertex 0 2.5 1.5
      vertex 0.0596509 -2.5 1.49813
      vertex 0 -2.5 1.5
    endloop
  endfacet
  facet normal -0.0314081 -9.53204e-08 -0.999507
    outer loop
      vertex 0.0596509 -2.5 1.49813
      vertex 0 2.5 1.5
      vertex 0.178953 2.5 1.49438
    endloop
  endfacet
  facet normal -0.0314121 0 -0.999507
    outer loop
      vertex 0.238604 -2.5 1.4925
      vertex 0.178953 2.5 1.49438
      vertex 0.238604 2.5 1.4925
    endloop
  endfacet
  facet normal -0.0314121 0 -0.999507
    outer loop
      vertex 0.178953 2.5 1.49438
      vertex 0.238604 -2.5 1.4925
      vertex 0.0596509 -2.5 1.49813
    endloop
  endfacet
  facet normal -0.218143 0 -0.975917
    outer loop
      vertex 0.712049 -2.5 1.43269
      vertex 0.945021 2.5 1.38062
      vertex 0.945021 -2.5 1.38062
    endloop
  endfacet
  facet normal -0.218143 0 -0.975917
    outer loop
      vertex 0.945021 2.5 1.38062
      vertex 0.712049 -2.5 1.43269
      vertex 0.712049 2.5 1.43269
    endloop
  endfacet
  facet normal -0.562082 0 -0.827081
    outer loop
      vertex 2.03614 -2.5 0.908445
      vertex 2.23358 2.5 0.774264
      vertex 2.23358 -2.5 0.774264
    endloop
  endfacet
  facet normal -0.562082 0 -0.827081
    outer loop
      vertex 2.23358 2.5 0.774264
      vertex 2.03614 -2.5 0.908445
      vertex 2.03614 2.5 0.908445
    endloop
  endfacet
  facet normal -0.45399 0 -0.891007
    outer loop
      vertex 1.61796 -2.5 1.13834
      vertex 1.83066 2.5 1.02996
      vertex 1.83066 -2.5 1.02996
    endloop
  endfacet
  facet normal -0.45399 0 -0.891007
    outer loop
      vertex 1.83066 2.5 1.02996
      vertex 1.61796 -2.5 1.13834
      vertex 1.61796 2.5 1.13834
    endloop
  endfacet
  facet normal -0.917755 0 -0.397148
    outer loop
      vertex 3.53315 -2.5 -0.901126
      vertex 3.43834 2.5 -0.682038
      vertex 3.53315 2.5 -0.901126
    endloop
  endfacet
  facet normal -0.917755 -0 -0.397148
    outer loop
      vertex 3.43834 2.5 -0.682038
      vertex 3.53315 -2.5 -0.901126
      vertex 3.43834 -2.5 -0.682038
    endloop
  endfacet
  facet normal -0.94088 0 -0.33874
    outer loop
      vertex 3.61401 -2.5 -1.12574
      vertex 3.53315 2.5 -0.901126
      vertex 3.61401 2.5 -1.12574
    endloop
  endfacet
  facet normal -0.94088 -0 -0.33874
    outer loop
      vertex 3.53315 2.5 -0.901126
      vertex 3.61401 -2.5 -1.12574
      vertex 3.53315 -2.5 -0.901126
    endloop
  endfacet
  facet normal -0.860742 0 -0.509041
    outer loop
      vertex 3.32996 -2.5 -0.469336
      vertex 3.20845 2.5 -0.263858
      vertex 3.32996 2.5 -0.469336
    endloop
  endfacet
  facet normal -0.860742 -0 -0.509041
    outer loop
      vertex 3.20845 2.5 -0.263858
      vertex 3.32996 -2.5 -0.469336
      vertex 3.20845 -2.5 -0.263858
    endloop
  endfacet
  facet normal -0.707107 0 -0.707107
    outer loop
      vertex 2.77008 -2.5 0.301278
      vertex 2.60128 2.5 0.47008
      vertex 2.77008 2.5 0.301278
    endloop
  endfacet
  facet normal -0.707107 -0 -0.707107
    outer loop
      vertex 2.60128 2.5 0.47008
      vertex 2.77008 -2.5 0.301278
      vertex 2.60128 -2.5 0.47008
    endloop
  endfacet
  facet normal 0.612908 0 -0.790154
    outer loop
      vertex -2.42221 -2.5 0.62795
      vertex -2.23358 2.5 0.774264
      vertex -2.23358 -2.5 0.774264
    endloop
  endfacet
  facet normal 0.612908 0 -0.790154
    outer loop
      vertex -2.23358 2.5 0.774264
      vertex -2.42221 -2.5 0.62795
      vertex -2.42221 2.5 0.62795
    endloop
  endfacet
  facet normal 0.45399 0 -0.891007
    outer loop
      vertex -1.83066 -2.5 1.02996
      vertex -1.61796 2.5 1.13834
      vertex -1.61796 -2.5 1.13834
    endloop
  endfacet
  facet normal 0.45399 0 -0.891007
    outer loop
      vertex -1.61796 2.5 1.13834
      vertex -1.83066 -2.5 1.02996
      vertex -1.83066 2.5 1.02996
    endloop
  endfacet
  facet normal 0.338738 0 -0.940881
    outer loop
      vertex -1.39887 -2.5 1.23315
      vertex -1.17426 2.5 1.31401
      vertex -1.17426 -2.5 1.31401
    endloop
  endfacet
  facet normal 0.338738 0 -0.940881
    outer loop
      vertex -1.17426 2.5 1.31401
      vertex -1.39887 -2.5 1.23315
      vertex -1.39887 2.5 1.23315
    endloop
  endfacet
  facet normal 0.39715 0 -0.917754
    outer loop
      vertex -1.61796 -2.5 1.13834
      vertex -1.39887 2.5 1.23315
      vertex -1.39887 -2.5 1.23315
    endloop
  endfacet
  facet normal 0.39715 0 -0.917754
    outer loop
      vertex -1.39887 2.5 1.23315
      vertex -1.61796 -2.5 1.13834
      vertex -1.61796 2.5 1.13834
    endloop
  endfacet
  facet normal 0.278989 0 -0.960294
    outer loop
      vertex -1.17426 -2.5 1.31401
      vertex -0.945021 2.5 1.38062
      vertex -0.945021 -2.5 1.38062
    endloop
  endfacet
  facet normal 0.278989 0 -0.960294
    outer loop
      vertex -0.945021 2.5 1.38062
      vertex -1.17426 -2.5 1.31401
      vertex -1.17426 2.5 1.31401
    endloop
  endfacet
  facet normal 0.827081 0 -0.562082
    outer loop
      vertex -3.07426 -2.5 -0.0664158
      vertex -3.20845 2.5 -0.263858
      vertex -3.07426 2.5 -0.0664158
    endloop
  endfacet
  facet normal 0.827081 0 -0.562082
    outer loop
      vertex -3.20845 2.5 -0.263858
      vertex -3.07426 -2.5 -0.0664158
      vertex -3.20845 -2.5 -0.263858
    endloop
  endfacet
  facet normal 0.707107 0 -0.707107
    outer loop
      vertex -2.60128 -2.5 0.47008
      vertex -2.77008 2.5 0.301278
      vertex -2.60128 2.5 0.47008
    endloop
  endfacet
  facet normal 0.707107 0 -0.707107
    outer loop
      vertex -2.77008 2.5 0.301278
      vertex -2.60128 -2.5 0.47008
      vertex -2.77008 -2.5 0.301278
    endloop
  endfacet
  facet normal 0.860742 0 -0.509041
    outer loop
      vertex -3.20845 -2.5 -0.263858
      vertex -3.32996 2.5 -0.469336
      vertex -3.20845 2.5 -0.263858
    endloop
  endfacet
  facet normal 0.860742 0 -0.509041
    outer loop
      vertex -3.32996 2.5 -0.469336
      vertex -3.20845 -2.5 -0.263858
      vertex -3.32996 -2.5 -0.469336
    endloop
  endfacet
  facet normal -0.975917 0 -0.218142
    outer loop
      vertex 3.73269 -2.5 -1.58795
      vertex 3.68062 2.5 -1.35498
      vertex 3.73269 2.5 -1.58795
    endloop
  endfacet
  facet normal -0.975917 -0 -0.218142
    outer loop
      vertex 3.68062 2.5 -1.35498
      vertex 3.73269 -2.5 -1.58795
      vertex 3.68062 -2.5 -1.35498
    endloop
  endfacet
  facet normal 0.960294 0 -0.27899
    outer loop
      vertex -3.61401 -2.5 -1.12574
      vertex -3.68062 2.5 -1.35498
      vertex -3.61401 2.5 -1.12574
    endloop
  endfacet
  facet normal 0.960294 0 -0.27899
    outer loop
      vertex -3.68062 2.5 -1.35498
      vertex -3.61401 -2.5 -1.12574
      vertex -3.68062 -2.5 -1.35498
    endloop
  endfacet
  facet normal 0.975917 0 -0.218142
    outer loop
      vertex -3.68062 -2.5 -1.35498
      vertex -3.73269 2.5 -1.58795
      vertex -3.68062 2.5 -1.35498
    endloop
  endfacet
  facet normal 0.975917 0 -0.218142
    outer loop
      vertex -3.73269 2.5 -1.58795
      vertex -3.68062 -2.5 -1.35498
      vertex -3.73269 -2.5 -1.58795
    endloop
  endfacet
endsolid OpenSCAD_Model
