solid OpenSCAD_Model
  facet normal -1 0 0
    outer loop
      vertex -5 -2.5 -2.5
      vertex -5 2.5 2.5
      vertex -5 2.5 -2.5
    endloop
  endfacet
  facet normal -1 -0 0
    outer loop
      vertex -5 2.5 2.5
      vertex -5 -2.5 -2.5
      vertex -5 -2.5 2.5
    endloop
  endfacet
  facet normal -0 0 1
    outer loop
      vertex -5 2.5 2.5
      vertex 5 -2.5 2.5
      vertex 5 2.5 2.5
    endloop
  endfacet
  facet normal 0 0 1
    outer loop
      vertex 5 -2.5 2.5
      vertex -5 2.5 2.5
      vertex -5 -2.5 2.5
    endloop
  endfacet
  facet normal 1 -0 0
    outer loop
      vertex 5 -2.5 2.5
      vertex 5 2.5 -2.5
      vertex 5 2.5 2.5
    endloop
  endfacet
  facet normal 1 0 0
    outer loop
      vertex 5 2.5 -2.5
      vertex 5 -2.5 2.5
      vertex 5 -2.5 -2.5
    endloop
  endfacet
  facet normal 0 1 0
    outer loop
      vertex 5 2.5 2.5
      vertex 0 2.5 0.9
      vertex -5 2.5 2.5
    endloop
  endfacet
  facet normal 0 1 0
    outer loop
      vertex 5 2.5 2.5
      vertex 0.213488 2.5 0.893291
      vertex 0 2.5 0.9
    endloop
  endfacet
  facet normal 0 1 0
    outer loop
      vertex 5 2.5 2.5
      vertex 0.426132 2.5 0.87319
      vertex 0.213488 2.5 0.893291
    endloop
  endfacet
  facet normal 0 1 0
    outer loop
      vertex 5 2.5 2.5
      vertex 0.637096 2.5 0.839776
      vertex 0.426132 2.5 0.87319
    endloop
  endfacet
  facet normal 0 1 0
    outer loop
      vertex 5 2.5 2.5
      vertex 0.845545 2.5 0.793182
      vertex 0.637096 2.5 0.839776
    endloop
  endfacet
  facet normal 0 1 0
    outer loop
      vertex 5 2.5 2.5
      vertex 1.05066 2.5 0.733592
      vertex 0.845545 2.5 0.793182
    endloop
  endfacet
  facet normal 0 1 0
    outer loop
      vertex 5 2.5 2.5
      vertex 1.25162 2.5 0.66124
      vertex 1.05066 2.5 0.733592
    endloop
  endfacet
  facet normal 0 1 0
    outer loop
      vertex 5 2.5 2.5
      vertex 1.44765 2.5 0.576411
      vertex 1.25162 2.5 0.66124
    endloop
  endfacet
  facet normal 0 1 0
    outer loop
      vertex 5 2.5 2.5
      vertex 1.63796 2.5 0.479443
      vertex 1.44765 2.5 0.576411
    endloop
  endfacet
  facet normal 0 1 0
    outer loop
      vertex 5 2.5 2.5
      vertex 1.82181 2.5 0.370714
      vertex 1.63796 2.5 0.479443
    endloop
  endfacet
  facet normal 0 1 0
    outer loop
      vertex 5 2.5 2.5
      vertex 1.99847 2.5 0.250657
      vertex 1.82181 2.5 0.370714
    endloop
  endfacet
  facet normal 0 1 0
    outer loop
      vertex 5 2.5 2.5
      vertex 2.16724 2.5 0.119744
      vertex 1.99847 2.5 0.250657
    endloop
  endfacet
  facet normal 0 1 0
    outer loop
      vertex 5 2.5 2.5
      vertex 2.32746 2.5 -0.0215063
      vertex 2.16724 2.5 0.119744
    endloop
  endfacet
  facet normal 0 1 0
    outer loop
      vertex 5 2.5 2.5
      vertex 2.47849 2.5 -0.17254
      vertex 2.32746 2.5 -0.0215063
    endloop
  endfacet
  facet normal 0 1 0
    outer loop
      vertex 5 2.5 2.5
      vertex 2.61974 2.5 -0.332758
      vertex 2.47849 2.5 -0.17254
    endloop
  endfacet
  facet normal 0 1 0
    outer loop
      vertex 5 2.5 2.5
      vertex 2.75066 2.5 -0.50153
      vertex 2.61974 2.5 -0.332758
    endloop
  endfacet
  facet normal 0 1 0
    outer loop
      vertex 5 2.5 2.5
      vertex 2.87071 2.5 -0.678188
      vertex 2.75066 2.5 -0.50153
    endloop
  endfacet
  facet normal 0 1 0
    outer loop
      vertex 5 2.5 2.5
      vertex 2.97944 2.5 -0.862037
      vertex 2.87071 2.5 -0.678188
    endloop
  endfacet
  facet normal 0 1 0
    outer loop
      vertex 5 2.5 2.5
      vertex 3.07641 2.5 -1.05235
      vertex 2.97944 2.5 -0.862037
    endloop
  endfacet
  facet normal 0 1 -0
    outer loop
      vertex 5 2.5 -2.5
      vertex 3.07641 2.5 -1.05235
      vertex 5 2.5 2.5
    endloop
  endfacet
  facet normal 0 1 0
    outer loop
      vertex 3.07641 2.5 -1.05235
      vertex 5 2.5 -2.5
      vertex 3.16124 2.5 -1.24838
    endloop
  endfacet
  facet normal 0 1 0
    outer loop
      vertex 3.16124 2.5 -1.24838
      vertex 5 2.5 -2.5
      vertex 3.23359 2.5 -1.44934
    endloop
  endfacet
  facet normal 0 1 0
    outer loop
      vertex 3.23359 2.5 -1.44934
      vertex 5 2.5 -2.5
      vertex 3.29318 2.5 -1.65445
    endloop
  endfacet
  facet normal 0 1 0
    outer loop
      vertex 3.29318 2.5 -1.65445
      vertex 5 2.5 -2.5
      vertex 3.33978 2.5 -1.8629
    endloop
  endfacet
  facet normal 0 1 0
    outer loop
      vertex 3.33978 2.5 -1.8629
      vertex 5 2.5 -2.5
      vertex 3.37319 2.5 -2.07387
    endloop
  endfacet
  facet normal 0 1 0
    outer loop
      vertex 3.37319 2.5 -2.07387
      vertex 5 2.5 -2.5
      vertex 3.39329 2.5 -2.28651
    endloop
  endfacet
  facet normal 0 1 0
    outer loop
      vertex 3.39329 2.5 -2.28651
      vertex 5 2.5 -2.5
      vertex 3.39497 2.5 -2.33988
    endloop
  endfacet
  facet normal 0 1 0
    outer loop
      vertex 3.39497 2.5 -2.33988
      vertex 5 2.5 -2.5
      vertex 3.4 2.5 -2.5
    endloop
  endfacet
  facet normal 0 1 -0
    outer loop
      vertex -0.213488 2.5 0.893291
      vertex -5 2.5 2.5
      vertex 0 2.5 0.9
    endloop
  endfacet
  facet normal 0 1 -0
    outer loop
      vertex -0.426132 2.5 0.87319
      vertex -5 2.5 2.5
      vertex -0.213488 2.5 0.893291
    endloop
  endfacet
  facet normal 0 1 -0
    outer loop
      vertex -0.637096 2.5 0.839776
      vertex -5 2.5 2.5
      vertex -0.426132 2.5 0.87319
    endloop
  endfacet
  facet normal 0 1 -0
    outer loop
      vertex -0.845545 2.5 0.793182
      vertex -5 2.5 2.5
      vertex -0.637096 2.5 0.839776
    endloop
  endfacet
  facet normal 0 1 -0
    outer loop
      vertex -1.05066 2.5 0.733592
      vertex -5 2.5 2.5
      vertex -0.845545 2.5 0.793182
    endloop
  endfacet
  facet normal 0 1 -0
    outer loop
      vertex -1.25162 2.5 0.66124
      vertex -5 2.5 2.5
      vertex -1.05066 2.5 0.733592
    endloop
  endfacet
  facet normal 0 1 -0
    outer loop
      vertex -1.44765 2.5 0.576411
      vertex -5 2.5 2.5
      vertex -1.25162 2.5 0.66124
    endloop
  endfacet
  facet normal 0 1 -0
    outer loop
      vertex -1.63796 2.5 0.479443
      vertex -5 2.5 2.5
      vertex -1.44765 2.5 0.576411
    endloop
  endfacet
  facet normal 0 1 -0
    outer loop
      vertex -1.82181 2.5 0.370714
      vertex -5 2.5 2.5
      vertex -1.63796 2.5 0.479443
    endloop
  endfacet
  facet normal 0 1 -0
    outer loop
      vertex -1.99847 2.5 0.250657
      vertex -5 2.5 2.5
      vertex -1.82181 2.5 0.370714
    endloop
  endfacet
  facet normal 0 1 -0
    outer loop
      vertex -2.16724 2.5 0.119744
      vertex -5 2.5 2.5
      vertex -1.99847 2.5 0.250657
    endloop
  endfacet
  facet normal 0 1 -0
    outer loop
      vertex -2.32746 2.5 -0.0215063
      vertex -5 2.5 2.5
      vertex -2.16724 2.5 0.119744
    endloop
  endfacet
  facet normal 0 1 -0
    outer loop
      vertex -2.47849 2.5 -0.17254
      vertex -5 2.5 2.5
      vertex -2.32746 2.5 -0.0215063
    endloop
  endfacet
  facet normal 0 1 -0
    outer loop
      vertex -2.61974 2.5 -0.332758
      vertex -5 2.5 2.5
      vertex -2.47849 2.5 -0.17254
    endloop
  endfacet
  facet normal 0 1 -0
    outer loop
      vertex -2.75066 2.5 -0.50153
      vertex -5 2.5 2.5
      vertex -2.61974 2.5 -0.332758
    endloop
  endfacet
  facet normal 0 1 -0
    outer loop
      vertex -2.87071 2.5 -0.678188
      vertex -5 2.5 2.5
      vertex -2.75066 2.5 -0.50153
    endloop
  endfacet
  facet normal 0 1 -0
    outer loop
      vertex -2.97944 2.5 -0.862037
      vertex -5 2.5 2.5
      vertex -2.87071 2.5 -0.678188
    endloop
  endfacet
  facet normal 0 1 -0
    outer loop
      vertex -3.07641 2.5 -1.05235
      vertex -5 2.5 2.5
      vertex -2.97944 2.5 -0.862037
    endloop
  endfacet
  facet normal 0 1 0
    outer loop
      vertex -5 2.5 -2.5
      vertex -3.07641 2.5 -1.05235
      vertex -3.16124 2.5 -1.24838
    endloop
  endfacet
  facet normal 0 1 0
    outer loop
      vertex -5 2.5 -2.5
      vertex -3.16124 2.5 -1.24838
      vertex -3.23359 2.5 -1.44934
    endloop
  endfacet
  facet normal 0 1 0
    outer loop
      vertex -5 2.5 -2.5
      vertex -3.23359 2.5 -1.44934
      vertex -3.29318 2.5 -1.65445
    endloop
  endfacet
  facet normal 0 1 0
    outer loop
      vertex -5 2.5 -2.5
      vertex -3.29318 2.5 -1.65445
      vertex -3.33978 2.5 -1.8629
    endloop
  endfacet
  facet normal 0 1 0
    outer loop
      vertex -5 2.5 -2.5
      vertex -3.33978 2.5 -1.8629
      vertex -3.37319 2.5 -2.07387
    endloop
  endfacet
  facet normal 0 1 0
    outer loop
      vertex -5 2.5 -2.5
      vertex -3.37319 2.5 -2.07387
      vertex -3.39329 2.5 -2.28651
    endloop
  endfacet
  facet normal 0 1 0
    outer loop
      vertex -5 2.5 -2.5
      vertex -3.39329 2.5 -2.28651
      vertex -3.39497 2.5 -2.33988
    endloop
  endfacet
  facet normal 0 1 0
    outer loop
      vertex -5 2.5 -2.5
      vertex -3.39497 2.5 -2.33988
      vertex -3.4 2.5 -2.5
    endloop
  endfacet
  facet normal 0 1 0
    outer loop
      vertex -3.07641 2.5 -1.05235
      vertex -5 2.5 -2.5
      vertex -5 2.5 2.5
    endloop
  endfacet
  facet normal 0 0 -1
    outer loop
      vertex -5 -2.5 -2.5
      vertex -3.4 2.5 -2.5
      vertex -3.4 -2.5 -2.5
    endloop
  endfacet
  facet normal -0 0 -1
    outer loop
      vertex -3.4 2.5 -2.5
      vertex -5 -2.5 -2.5
      vertex -5 2.5 -2.5
    endloop
  endfacet
  facet normal 0 0 -1
    outer loop
      vertex 3.4 -2.5 -2.5
      vertex 5 2.5 -2.5
      vertex 5 -2.5 -2.5
    endloop
  endfacet
  facet normal -0 0 -1
    outer loop
      vertex 5 2.5 -2.5
      vertex 3.4 -2.5 -2.5
      vertex 3.4 2.5 -2.5
    endloop
  endfacet
  facet normal 0 -1 0
    outer loop
      vertex -5 -2.5 2.5
      vertex 0 -2.5 0.9
      vertex 5 -2.5 2.5
    endloop
  endfacet
  facet normal 0 -1 0
    outer loop
      vertex -5 -2.5 2.5
      vertex -0.213488 -2.5 0.893291
      vertex 0 -2.5 0.9
    endloop
  endfacet
  facet normal 0 -1 0
    outer loop
      vertex -5 -2.5 2.5
      vertex -0.426132 -2.5 0.87319
      vertex -0.213488 -2.5 0.893291
    endloop
  endfacet
  facet normal 0 -1 0
    outer loop
      vertex -5 -2.5 2.5
      vertex -0.637096 -2.5 0.839776
      vertex -0.426132 -2.5 0.87319
    endloop
  endfacet
  facet normal 0 -1 0
    outer loop
      vertex -5 -2.5 2.5
      vertex -0.845545 -2.5 0.793182
      vertex -0.637096 -2.5 0.839776
    endloop
  endfacet
  facet normal 0 -1 0
    outer loop
      vertex -5 -2.5 2.5
      vertex -1.05066 -2.5 0.733592
      vertex -0.845545 -2.5 0.793182
    endloop
  endfacet
  facet normal 0 -1 0
    outer loop
      vertex -5 -2.5 2.5
      vertex -1.25162 -2.5 0.66124
      vertex -1.05066 -2.5 0.733592
    endloop
  endfacet
  facet normal 0 -1 0
    outer loop
      vertex -5 -2.5 2.5
      vertex -1.44765 -2.5 0.576411
      vertex -1.25162 -2.5 0.66124
    endloop
  endfacet
  facet normal 0 -1 0
    outer loop
      vertex -5 -2.5 2.5
      vertex -1.63796 -2.5 0.479443
      vertex -1.44765 -2.5 0.576411
    endloop
  endfacet
  facet normal 0 -1 0
    outer loop
      vertex -5 -2.5 2.5
      vertex -1.82181 -2.5 0.370714
      vertex -1.63796 -2.5 0.479443
    endloop
  endfacet
  facet normal 0 -1 0
    outer loop
      vertex -5 -2.5 2.5
      vertex -1.99847 -2.5 0.250657
      vertex -1.82181 -2.5 0.370714
    endloop
  endfacet
  facet normal 0 -1 0
    outer loop
      vertex -5 -2.5 2.5
      vertex -2.16724 -2.5 0.119744
      vertex -1.99847 -2.5 0.250657
    endloop
  endfacet
  facet normal 0 -1 0
    outer loop
      vertex -5 -2.5 2.5
      vertex -2.32746 -2.5 -0.0215063
      vertex -2.16724 -2.5 0.119744
    endloop
  endfacet
  facet normal 0 -1 0
    outer loop
      vertex -5 -2.5 2.5
      vertex -2.47849 -2.5 -0.17254
      vertex -2.32746 -2.5 -0.0215063
    endloop
  endfacet
  facet normal 0 -1 0
    outer loop
      vertex -5 -2.5 2.5
      vertex -2.61974 -2.5 -0.332758
      vertex -2.47849 -2.5 -0.17254
    endloop
  endfacet
  facet normal 0 -1 0
    outer loop
      vertex -5 -2.5 2.5
      vertex -2.75066 -2.5 -0.50153
      vertex -2.61974 -2.5 -0.332758
    endloop
  endfacet
  facet normal 0 -1 0
    outer loop
      vertex -5 -2.5 2.5
      vertex -2.87071 -2.5 -0.678188
      vertex -2.75066 -2.5 -0.50153
    endloop
  endfacet
  facet normal 0 -1 0
    outer loop
      vertex -5 -2.5 2.5
      vertex -2.97944 -2.5 -0.862037
      vertex -2.87071 -2.5 -0.678188
    endloop
  endfacet
  facet normal 0 -1 0
    outer loop
      vertex -5 -2.5 2.5
      vertex -3.07641 -2.5 -1.05235
      vertex -2.97944 -2.5 -0.862037
    endloop
  endfacet
  facet normal 0 -1 0
    outer loop
      vertex -5 -2.5 -2.5
      vertex -3.07641 -2.5 -1.05235
      vertex -5 -2.5 2.5
    endloop
  endfacet
  facet normal 0 -1 0
    outer loop
      vertex -3.07641 -2.5 -1.05235
      vertex -5 -2.5 -2.5
      vertex -3.16124 -2.5 -1.24838
    endloop
  endfacet
  facet normal 0 -1 0
    outer loop
      vertex -3.16124 -2.5 -1.24838
      vertex -5 -2.5 -2.5
      vertex -3.23359 -2.5 -1.44934
    endloop
  endfacet
  facet normal 0 -1 0
    outer loop
      vertex -3.23359 -2.5 -1.44934
      vertex -5 -2.5 -2.5
      vertex -3.29318 -2.5 -1.65445
    endloop
  endfacet
  facet normal 0 -1 0
    outer loop
      vertex -3.29318 -2.5 -1.65445
      vertex -5 -2.5 -2.5
      vertex -3.33978 -2.5 -1.8629
    endloop
  endfacet
  facet normal 0 -1 0
    outer loop
      vertex -3.33978 -2.5 -1.8629
      vertex -5 -2.5 -2.5
      vertex -3.37319 -2.5 -2.07387
    endloop
  endfacet
  facet normal 0 -1 0
    outer loop
      vertex -3.37319 -2.5 -2.07387
      vertex -5 -2.5 -2.5
      vertex -3.39329 -2.5 -2.28651
    endloop
  endfacet
  facet normal 0 -1 0
    outer loop
      vertex -3.39329 -2.5 -2.28651
      vertex -5 -2.5 -2.5
      vertex -3.39832 -2.5 -2.44663
    endloop
  endfacet
  facet normal 0 -1 0
    outer loop
      vertex -3.39832 -2.5 -2.44663
      vertex -5 -2.5 -2.5
      vertex -3.4 -2.5 -2.5
    endloop
  endfacet
  facet normal 0 -1 0
    outer loop
      vertex 0.213488 -2.5 0.893291
      vertex 5 -2.5 2.5
      vertex 0 -2.5 0.9
    endloop
  endfacet
  facet normal 0 -1 0
    outer loop
      vertex 0.426132 -2.5 0.87319
      vertex 5 -2.5 2.5
      vertex 0.213488 -2.5 0.893291
    endloop
  endfacet
  facet normal 0 -1 0
    outer loop
      vertex 0.637096 -2.5 0.839776
      vertex 5 -2.5 2.5
      vertex 0.426132 -2.5 0.87319
    endloop
  endfacet
  facet normal 0 -1 0
    outer loop
      vertex 0.845545 -2.5 0.793182
      vertex 5 -2.5 2.5
      vertex 0.637096 -2.5 0.839776
    endloop
  endfacet
  facet normal 0 -1 0
    outer loop
      vertex 1.05066 -2.5 0.733592
      vertex 5 -2.5 2.5
      vertex 0.845545 -2.5 0.793182
    endloop
  endfacet
  facet normal 0 -1 0
    outer loop
      vertex 1.25162 -2.5 0.66124
      vertex 5 -2.5 2.5
      vertex 1.05066 -2.5 0.733592
    endloop
  endfacet
  facet normal 0 -1 0
    outer loop
      vertex 1.44765 -2.5 0.576411
      vertex 5 -2.5 2.5
      vertex 1.25162 -2.5 0.66124
    endloop
  endfacet
  facet normal 0 -1 0
    outer loop
      vertex 1.63796 -2.5 0.479443
      vertex 5 -2.5 2.5
      vertex 1.44765 -2.5 0.576411
    endloop
  endfacet
  facet normal 0 -1 0
    outer loop
      vertex 1.82181 -2.5 0.370714
      vertex 5 -2.5 2.5
      vertex 1.63796 -2.5 0.479443
    endloop
  endfacet
  facet normal 0 -1 0
    outer loop
      vertex 1.99847 -2.5 0.250657
      vertex 5 -2.5 2.5
      vertex 1.82181 -2.5 0.370714
    endloop
  endfacet
  facet normal 0 -1 0
    outer loop
      vertex 2.16724 -2.5 0.119744
      vertex 5 -2.5 2.5
      vertex 1.99847 -2.5 0.250657
    endloop
  endfacet
  facet normal 0 -1 0
    outer loop
      vertex 2.32746 -2.5 -0.0215063
      vertex 5 -2.5 2.5
      vertex 2.16724 -2.5 0.119744
    endloop
  endfacet
  facet normal 0 -1 0
    outer loop
      vertex 2.47849 -2.5 -0.17254
      vertex 5 -2.5 2.5
      vertex 2.32746 -2.5 -0.0215063
    endloop
  endfacet
  facet normal 0 -1 0
    outer loop
      vertex 2.61974 -2.5 -0.332758
      vertex 5 -2.5 2.5
      vertex 2.47849 -2.5 -0.17254
    endloop
  endfacet
  facet normal 0 -1 0
    outer loop
      vertex 2.75066 -2.5 -0.50153
      vertex 5 -2.5 2.5
      vertex 2.61974 -2.5 -0.332758
    endloop
  endfacet
  facet normal 0 -1 0
    outer loop
      vertex 2.87071 -2.5 -0.678188
      vertex 5 -2.5 2.5
      vertex 2.75066 -2.5 -0.50153
    endloop
  endfacet
  facet normal 0 -1 0
    outer loop
      vertex 2.97944 -2.5 -0.862037
      vertex 5 -2.5 2.5
      vertex 2.87071 -2.5 -0.678188
    endloop
  endfacet
  facet normal 0 -1 0
    outer loop
      vertex 3.07641 -2.5 -1.05235
      vertex 5 -2.5 2.5
      vertex 2.97944 -2.5 -0.862037
    endloop
  endfacet
  facet normal 0 -1 0
    outer loop
      vertex 5 -2.5 -2.5
      vertex 3.07641 -2.5 -1.05235
      vertex 3.16124 -2.5 -1.24838
    endloop
  endfacet
  facet normal 0 -1 0
    outer loop
      vertex 5 -2.5 -2.5
      vertex 3.16124 -2.5 -1.24838
      vertex 3.23359 -2.5 -1.44934
    endloop
  endfacet
  facet normal 0 -1 0
    outer loop
      vertex 5 -2.5 -2.5
      vertex 3.23359 -2.5 -1.44934
      vertex 3.29318 -2.5 -1.65445
    endloop
  endfacet
  facet normal 0 -1 0
    outer loop
      vertex 5 -2.5 -2.5
      vertex 3.29318 -2.5 -1.65445
      vertex 3.33978 -2.5 -1.8629
    endloop
  endfacet
  facet normal 0 -1 0
    outer loop
      vertex 5 -2.5 -2.5
      vertex 3.33978 -2.5 -1.8629
      vertex 3.37319 -2.5 -2.07387
    endloop
  endfacet
  facet normal 0 -1 0
    outer loop
      vertex 5 -2.5 -2.5
      vertex 3.37319 -2.5 -2.07387
      vertex 3.39329 -2.5 -2.28651
    endloop
  endfacet
  facet normal 0 -1 0
    outer loop
      vertex 5 -2.5 -2.5
      vertex 3.39329 -2.5 -2.28651
      vertex 3.39832 -2.5 -2.44663
    endloop
  endfacet
  facet normal 0 -1 0
    outer loop
      vertex 5 -2.5 -2.5
      vertex 3.39832 -2.5 -2.44663
      vertex 3.4 -2.5 -2.5
    endloop
  endfacet
  facet normal 0 -1 0
    outer loop
      vertex 3.07641 -2.5 -1.05235
      vertex 5 -2.5 -2.5
      vertex 5 -2.5 2.5
    endloop
  endfacet
  facet normal -0.999507 0 -0.0314107
    outer loop
      vertex 3.39329 -2.5 -2.28651
      vertex 3.39497 2.5 -2.33988
      vertex 3.39832 -2.5 -2.44663
    endloop
  endfacet
  facet normal -0.999507 0 -0.0314107
    outer loop
      vertex 3.39497 2.5 -2.33988
      vertex 3.39329 -2.5 -2.28651
      vertex 3.39329 2.5 -2.28651
    endloop
  endfacet
  facet normal -0.995562 0 -0.0941072
    outer loop
      vertex 3.39329 -2.5 -2.28651
      vertex 3.37319 2.5 -2.07387
      vertex 3.39329 2.5 -2.28651
    endloop
  endfacet
  facet normal -0.995562 -0 -0.0941072
    outer loop
      vertex 3.37319 2.5 -2.07387
      vertex 3.39329 -2.5 -2.28651
      vertex 3.37319 -2.5 -2.07387
    endloop
  endfacet
  facet normal -0.999507 -2.99554e-09 -0.0314105
    outer loop
      vertex 3.39832 -2.5 -2.44663
      vertex 3.4 2.5 -2.5
      vertex 3.4 -2.5 -2.5
    endloop
  endfacet
  facet normal -0.999507 -2.99554e-09 -0.0314105
    outer loop
      vertex 3.4 2.5 -2.5
      vertex 3.39832 -2.5 -2.44663
      vertex 3.39497 2.5 -2.33988
    endloop
  endfacet
  facet normal 0.0314107 0 -0.999507
    outer loop
      vertex -0.213488 -2.5 0.893291
      vertex 0 2.5 0.9
      vertex 0 -2.5 0.9
    endloop
  endfacet
  facet normal 0.0314107 0 -0.999507
    outer loop
      vertex 0 2.5 0.9
      vertex -0.213488 -2.5 0.893291
      vertex -0.213488 2.5 0.893291
    endloop
  endfacet
  facet normal 0.707107 0 -0.707107
    outer loop
      vertex -2.32746 -2.5 -0.0215063
      vertex -2.47849 2.5 -0.17254
      vertex -2.32746 2.5 -0.0215063
    endloop
  endfacet
  facet normal 0.707107 0 -0.707107
    outer loop
      vertex -2.47849 2.5 -0.17254
      vertex -2.32746 -2.5 -0.0215063
      vertex -2.47849 -2.5 -0.17254
    endloop
  endfacet
  facet normal 0.999507 -2.99554e-09 -0.0314105
    outer loop
      vertex -3.39832 -2.5 -2.44663
      vertex -3.4 2.5 -2.5
      vertex -3.39497 2.5 -2.33988
    endloop
  endfacet
  facet normal 0.999507 -2.99554e-09 -0.0314105
    outer loop
      vertex -3.4 2.5 -2.5
      vertex -3.39832 -2.5 -2.44663
      vertex -3.4 -2.5 -2.5
    endloop
  endfacet
  facet normal 0.995562 0 -0.0941072
    outer loop
      vertex -3.37319 -2.5 -2.07387
      vertex -3.39329 2.5 -2.28651
      vertex -3.37319 2.5 -2.07387
    endloop
  endfacet
  facet normal 0.995562 0 -0.0941072
    outer loop
      vertex -3.39329 2.5 -2.28651
      vertex -3.37319 -2.5 -2.07387
      vertex -3.39329 -2.5 -2.28651
    endloop
  endfacet
  facet normal 0.987688 0 -0.156436
    outer loop
      vertex -3.33978 -2.5 -1.8629
      vertex -3.37319 2.5 -2.07387
      vertex -3.33978 2.5 -1.8629
    endloop
  endfacet
  facet normal 0.987688 0 -0.156436
    outer loop
      vertex -3.37319 2.5 -2.07387
      vertex -3.33978 -2.5 -1.8629
      vertex -3.37319 -2.5 -2.07387
    endloop
  endfacet
  facet normal 0.39715 0 -0.917754
    outer loop
      vertex -1.44765 -2.5 0.576411
      vertex -1.25162 2.5 0.66124
      vertex -1.25162 -2.5 0.66124
    endloop
  endfacet
  facet normal 0.39715 0 -0.917754
    outer loop
      vertex -1.25162 2.5 0.66124
      vertex -1.44765 -2.5 0.576411
      vertex -1.44765 2.5 0.576411
    endloop
  endfacet
  facet normal -0.509044 0 -0.86074
    outer loop
      vertex 1.63796 -2.5 0.479443
      vertex 1.82181 2.5 0.370714
      vertex 1.82181 -2.5 0.370714
    endloop
  endfacet
  facet normal -0.509044 0 -0.86074
    outer loop
      vertex 1.82181 2.5 0.370714
      vertex 1.63796 -2.5 0.479443
      vertex 1.63796 2.5 0.479443
    endloop
  endfacet
  facet normal -0.338739 0 -0.94088
    outer loop
      vertex 1.05066 -2.5 0.733592
      vertex 1.25162 2.5 0.66124
      vertex 1.25162 -2.5 0.66124
    endloop
  endfacet
  facet normal -0.338739 0 -0.94088
    outer loop
      vertex 1.25162 2.5 0.66124
      vertex 1.05066 -2.5 0.733592
      vertex 1.05066 2.5 0.733592
    endloop
  endfacet
  facet normal 0.750111 0 -0.661312
    outer loop
      vertex -2.47849 -2.5 -0.17254
      vertex -2.61974 2.5 -0.332758
      vertex -2.47849 2.5 -0.17254
    endloop
  endfacet
  facet normal 0.750111 0 -0.661312
    outer loop
      vertex -2.61974 2.5 -0.332758
      vertex -2.47849 -2.5 -0.17254
      vertex -2.61974 -2.5 -0.332758
    endloop
  endfacet
  facet normal 0.960294 0 -0.27899
    outer loop
      vertex -3.23359 -2.5 -1.44934
      vertex -3.29318 2.5 -1.65445
      vertex -3.23359 2.5 -1.44934
    endloop
  endfacet
  facet normal 0.960294 0 -0.27899
    outer loop
      vertex -3.29318 2.5 -1.65445
      vertex -3.23359 -2.5 -1.44934
      vertex -3.29318 -2.5 -1.65445
    endloop
  endfacet
  facet normal 0.917754 0 -0.39715
    outer loop
      vertex -3.07641 -2.5 -1.05235
      vertex -3.16124 2.5 -1.24838
      vertex -3.07641 2.5 -1.05235
    endloop
  endfacet
  facet normal 0.917754 0 -0.39715
    outer loop
      vertex -3.16124 2.5 -1.24838
      vertex -3.07641 -2.5 -1.05235
      vertex -3.16124 -2.5 -1.24838
    endloop
  endfacet
  facet normal 0.66131 0 -0.750113
    outer loop
      vertex -2.32746 -2.5 -0.0215063
      vertex -2.16724 2.5 0.119744
      vertex -2.16724 -2.5 0.119744
    endloop
  endfacet
  facet normal 0.66131 0 -0.750113
    outer loop
      vertex -2.16724 2.5 0.119744
      vertex -2.32746 -2.5 -0.0215063
      vertex -2.32746 2.5 -0.0215063
    endloop
  endfacet
  facet normal -0.0314107 0 -0.999507
    outer loop
      vertex 0 -2.5 0.9
      vertex 0.213488 2.5 0.893291
      vertex 0.213488 -2.5 0.893291
    endloop
  endfacet
  facet normal -0.0314107 0 -0.999507
    outer loop
      vertex 0.213488 2.5 0.893291
      vertex 0 -2.5 0.9
      vertex 0 2.5 0.9
    endloop
  endfacet
  facet normal -0.27899 0 -0.960294
    outer loop
      vertex 0.845545 -2.5 0.793182
      vertex 1.05066 2.5 0.733592
      vertex 1.05066 -2.5 0.733592
    endloop
  endfacet
  facet normal -0.27899 0 -0.960294
    outer loop
      vertex 1.05066 2.5 0.733592
      vertex 0.845545 -2.5 0.793182
      vertex 0.845545 2.5 0.793182
    endloop
  endfacet
  facet normal -0.156436 0 -0.987688
    outer loop
      vertex 0.426132 -2.5 0.87319
      vertex 0.637096 2.5 0.839776
      vertex 0.637096 -2.5 0.839776
    endloop
  endfacet
  facet normal -0.156436 0 -0.987688
    outer loop
      vertex 0.637096 2.5 0.839776
      vertex 0.426132 -2.5 0.87319
      vertex 0.426132 2.5 0.87319
    endloop
  endfacet
  facet normal -0.612907 0 -0.790155
    outer loop
      vertex 1.99847 -2.5 0.250657
      vertex 2.16724 2.5 0.119744
      vertex 2.16724 -2.5 0.119744
    endloop
  endfacet
  facet normal -0.612907 0 -0.790155
    outer loop
      vertex 2.16724 2.5 0.119744
      vertex 1.99847 -2.5 0.250657
      vertex 1.99847 2.5 0.250657
    endloop
  endfacet
  facet normal -0.39715 0 -0.917754
    outer loop
      vertex 1.25162 -2.5 0.66124
      vertex 1.44765 2.5 0.576411
      vertex 1.44765 -2.5 0.576411
    endloop
  endfacet
  facet normal -0.39715 0 -0.917754
    outer loop
      vertex 1.44765 2.5 0.576411
      vertex 1.25162 -2.5 0.66124
      vertex 1.25162 2.5 0.66124
    endloop
  endfacet
  facet normal -0.987688 0 -0.156436
    outer loop
      vertex 3.37319 -2.5 -2.07387
      vertex 3.33978 2.5 -1.8629
      vertex 3.37319 2.5 -2.07387
    endloop
  endfacet
  facet normal -0.987688 -0 -0.156436
    outer loop
      vertex 3.33978 2.5 -1.8629
      vertex 3.37319 -2.5 -2.07387
      vertex 3.33978 -2.5 -1.8629
    endloop
  endfacet
  facet normal -0.960294 0 -0.27899
    outer loop
      vertex 3.29318 -2.5 -1.65445
      vertex 3.23359 2.5 -1.44934
      vertex 3.29318 2.5 -1.65445
    endloop
  endfacet
  facet normal -0.960294 -0 -0.27899
    outer loop
      vertex 3.23359 2.5 -1.44934
      vertex 3.29318 -2.5 -1.65445
      vertex 3.23359 -2.5 -1.44934
    endloop
  endfacet
  facet normal -0.975917 0 -0.218143
    outer loop
      vertex 3.33978 -2.5 -1.8629
      vertex 3.29318 2.5 -1.65445
      vertex 3.33978 2.5 -1.8629
    endloop
  endfacet
  facet normal -0.975917 -0 -0.218143
    outer loop
      vertex 3.29318 2.5 -1.65445
      vertex 3.33978 -2.5 -1.8629
      vertex 3.29318 -2.5 -1.65445
    endloop
  endfacet
  facet normal -0.827081 0 -0.562083
    outer loop
      vertex 2.87071 -2.5 -0.678188
      vertex 2.75066 2.5 -0.50153
      vertex 2.87071 2.5 -0.678188
    endloop
  endfacet
  facet normal -0.827081 -0 -0.562083
    outer loop
      vertex 2.75066 2.5 -0.50153
      vertex 2.87071 -2.5 -0.678188
      vertex 2.75066 -2.5 -0.50153
    endloop
  endfacet
  facet normal 0.827081 0 -0.562083
    outer loop
      vertex -2.75066 -2.5 -0.50153
      vertex -2.87071 2.5 -0.678188
      vertex -2.75066 2.5 -0.50153
    endloop
  endfacet
  facet normal 0.827081 0 -0.562083
    outer loop
      vertex -2.87071 2.5 -0.678188
      vertex -2.75066 -2.5 -0.50153
      vertex -2.87071 -2.5 -0.678188
    endloop
  endfacet
  facet normal 0.999507 0 -0.0314107
    outer loop
      vertex -3.39329 -2.5 -2.28651
      vertex -3.39497 2.5 -2.33988
      vertex -3.39329 2.5 -2.28651
    endloop
  endfacet
  facet normal 0.999507 0 -0.0314107
    outer loop
      vertex -3.39497 2.5 -2.33988
      vertex -3.39329 -2.5 -2.28651
      vertex -3.39832 -2.5 -2.44663
    endloop
  endfacet
  facet normal 0.453987 0 -0.891008
    outer loop
      vertex -1.63796 -2.5 0.479443
      vertex -1.44765 2.5 0.576411
      vertex -1.44765 -2.5 0.576411
    endloop
  endfacet
  facet normal 0.453987 0 -0.891008
    outer loop
      vertex -1.44765 2.5 0.576411
      vertex -1.63796 -2.5 0.479443
      vertex -1.63796 2.5 0.479443
    endloop
  endfacet
  facet normal 0.562083 0 -0.827081
    outer loop
      vertex -1.99847 -2.5 0.250657
      vertex -1.82181 2.5 0.370714
      vertex -1.82181 -2.5 0.370714
    endloop
  endfacet
  facet normal 0.562083 0 -0.827081
    outer loop
      vertex -1.82181 2.5 0.370714
      vertex -1.99847 -2.5 0.250657
      vertex -1.99847 2.5 0.250657
    endloop
  endfacet
  facet normal 0.338739 0 -0.94088
    outer loop
      vertex -1.25162 -2.5 0.66124
      vertex -1.05066 2.5 0.733592
      vertex -1.05066 -2.5 0.733592
    endloop
  endfacet
  facet normal 0.338739 0 -0.94088
    outer loop
      vertex -1.05066 2.5 0.733592
      vertex -1.25162 -2.5 0.66124
      vertex -1.25162 2.5 0.66124
    endloop
  endfacet
  facet normal 0.27899 0 -0.960294
    outer loop
      vertex -1.05066 -2.5 0.733592
      vertex -0.845545 2.5 0.793182
      vertex -0.845545 -2.5 0.793182
    endloop
  endfacet
  facet normal 0.27899 0 -0.960294
    outer loop
      vertex -0.845545 2.5 0.793182
      vertex -1.05066 -2.5 0.733592
      vertex -1.05066 2.5 0.733592
    endloop
  endfacet
  facet normal -0.0941072 0 -0.995562
    outer loop
      vertex 0.213488 -2.5 0.893291
      vertex 0.426132 2.5 0.87319
      vertex 0.426132 -2.5 0.87319
    endloop
  endfacet
  facet normal -0.0941072 0 -0.995562
    outer loop
      vertex 0.426132 2.5 0.87319
      vertex 0.213488 -2.5 0.893291
      vertex 0.213488 2.5 0.893291
    endloop
  endfacet
  facet normal -0.218143 0 -0.975917
    outer loop
      vertex 0.637096 -2.5 0.839776
      vertex 0.845545 2.5 0.793182
      vertex 0.845545 -2.5 0.793182
    endloop
  endfacet
  facet normal -0.218143 0 -0.975917
    outer loop
      vertex 0.845545 2.5 0.793182
      vertex 0.637096 -2.5 0.839776
      vertex 0.637096 2.5 0.839776
    endloop
  endfacet
  facet normal -0.562083 0 -0.827081
    outer loop
      vertex 1.82181 -2.5 0.370714
      vertex 1.99847 2.5 0.250657
      vertex 1.99847 -2.5 0.250657
    endloop
  endfacet
  facet normal -0.562083 0 -0.827081
    outer loop
      vertex 1.99847 2.5 0.250657
      vertex 1.82181 -2.5 0.370714
      vertex 1.82181 2.5 0.370714
    endloop
  endfacet
  facet normal -0.453987 0 -0.891008
    outer loop
      vertex 1.44765 -2.5 0.576411
      vertex 1.63796 2.5 0.479443
      vertex 1.63796 -2.5 0.479443
    endloop
  endfacet
  facet normal -0.453987 0 -0.891008
    outer loop
      vertex 1.63796 2.5 0.479443
      vertex 1.44765 -2.5 0.576411
      vertex 1.44765 2.5 0.576411
    endloop
  endfacet
  facet normal -0.891008 0 -0.453987
    outer loop
      vertex 3.07641 -2.5 -1.05235
      vertex 2.97944 2.5 -0.862037
      vertex 3.07641 2.5 -1.05235
    endloop
  endfacet
  facet normal -0.891008 -0 -0.453987
    outer loop
      vertex 2.97944 2.5 -0.862037
      vertex 3.07641 -2.5 -1.05235
      vertex 2.97944 -2.5 -0.862037
    endloop
  endfacet
  facet normal -0.86074 0 -0.509044
    outer loop
      vertex 2.97944 -2.5 -0.862037
      vertex 2.87071 2.5 -0.678188
      vertex 2.97944 2.5 -0.862037
    endloop
  endfacet
  facet normal -0.86074 -0 -0.509044
    outer loop
      vertex 2.87071 2.5 -0.678188
      vertex 2.97944 -2.5 -0.862037
      vertex 2.87071 -2.5 -0.678188
    endloop
  endfacet
  facet normal -0.790155 0 -0.612907
    outer loop
      vertex 2.75066 -2.5 -0.50153
      vertex 2.61974 2.5 -0.332758
      vertex 2.75066 2.5 -0.50153
    endloop
  endfacet
  facet normal -0.790155 -0 -0.612907
    outer loop
      vertex 2.61974 2.5 -0.332758
      vertex 2.75066 -2.5 -0.50153
      vertex 2.61974 -2.5 -0.332758
    endloop
  endfacet
  facet normal -0.750111 0 -0.661312
    outer loop
      vertex 2.61974 -2.5 -0.332758
      vertex 2.47849 2.5 -0.17254
      vertex 2.61974 2.5 -0.332758
    endloop
  endfacet
  facet normal -0.750111 -0 -0.661312
    outer loop
      vertex 2.47849 2.5 -0.17254
      vertex 2.61974 -2.5 -0.332758
      vertex 2.47849 -2.5 -0.17254
    endloop
  endfacet
  facet normal -0.707107 0 -0.707107
    outer loop
      vertex 2.47849 -2.5 -0.17254
      vertex 2.32746 2.5 -0.0215063
      vertex 2.47849 2.5 -0.17254
    endloop
  endfacet
  facet normal -0.707107 -0 -0.707107
    outer loop
      vertex 2.32746 2.5 -0.0215063
      vertex 2.47849 -2.5 -0.17254
      vertex 2.32746 -2.5 -0.0215063
    endloop
  endfacet
  facet normal -0.66131 0 -0.750113
    outer loop
      vertex 2.16724 -2.5 0.119744
      vertex 2.32746 2.5 -0.0215063
      vertex 2.32746 -2.5 -0.0215063
    endloop
  endfacet
  facet normal -0.66131 0 -0.750113
    outer loop
      vertex 2.32746 2.5 -0.0215063
      vertex 2.16724 -2.5 0.119744
      vertex 2.16724 2.5 0.119744
    endloop
  endfacet
  facet normal 0.86074 0 -0.509044
    outer loop
      vertex -2.87071 -2.5 -0.678188
      vertex -2.97944 2.5 -0.862037
      vertex -2.87071 2.5 -0.678188
    endloop
  endfacet
  facet normal 0.86074 0 -0.509044
    outer loop
      vertex -2.97944 2.5 -0.862037
      vertex -2.87071 -2.5 -0.678188
      vertex -2.97944 -2.5 -0.862037
    endloop
  endfacet
  facet normal 0.975917 0 -0.218143
    outer loop
      vertex -3.29318 -2.5 -1.65445
      vertex -3.33978 2.5 -1.8629
      vertex -3.29318 2.5 -1.65445
    endloop
  endfacet
  facet normal 0.975917 0 -0.218143
    outer loop
      vertex -3.33978 2.5 -1.8629
      vertex -3.29318 -2.5 -1.65445
      vertex -3.33978 -2.5 -1.8629
    endloop
  endfacet
  facet normal 0.94088 0 -0.338739
    outer loop
      vertex -3.16124 -2.5 -1.24838
      vertex -3.23359 2.5 -1.44934
      vertex -3.16124 2.5 -1.24838
    endloop
  endfacet
  facet normal 0.94088 0 -0.338739
    outer loop
      vertex -3.23359 2.5 -1.44934
      vertex -3.16124 -2.5 -1.24838
      vertex -3.23359 -2.5 -1.44934
    endloop
  endfacet
  facet normal 0.612907 0 -0.790155
    outer loop
      vertex -2.16724 -2.5 0.119744
      vertex -1.99847 2.5 0.250657
      vertex -1.99847 -2.5 0.250657
    endloop
  endfacet
  facet normal 0.612907 0 -0.790155
    outer loop
      vertex -1.99847 2.5 0.250657
      vertex -2.16724 -2.5 0.119744
      vertex -2.16724 2.5 0.119744
    endloop
  endfacet
  facet normal 0.156436 0 -0.987688
    outer loop
      vertex -0.637096 -2.5 0.839776
      vertex -0.426132 2.5 0.87319
      vertex -0.426132 -2.5 0.87319
    endloop
  endfacet
  facet normal 0.156436 0 -0.987688
    outer loop
      vertex -0.426132 2.5 0.87319
      vertex -0.637096 -2.5 0.839776
      vertex -0.637096 2.5 0.839776
    endloop
  endfacet
  facet normal 0.218143 0 -0.975917
    outer loop
      vertex -0.845545 -2.5 0.793182
      vertex -0.637096 2.5 0.839776
      vertex -0.637096 -2.5 0.839776
    endloop
  endfacet
  facet normal 0.218143 0 -0.975917
    outer loop
      vertex -0.637096 2.5 0.839776
      vertex -0.845545 -2.5 0.793182
      vertex -0.845545 2.5 0.793182
    endloop
  endfacet
  facet normal 0.0941072 0 -0.995562
    outer loop
      vertex -0.426132 -2.5 0.87319
      vertex -0.213488 2.5 0.893291
      vertex -0.213488 -2.5 0.893291
    endloop
  endfacet
  facet normal 0.0941072 0 -0.995562
    outer loop
      vertex -0.213488 2.5 0.893291
      vertex -0.426132 -2.5 0.87319
      vertex -0.426132 2.5 0.87319
    endloop
  endfacet
  facet normal -0.94088 0 -0.338739
    outer loop
      vertex 3.23359 -2.5 -1.44934
      vertex 3.16124 2.5 -1.24838
      vertex 3.23359 2.5 -1.44934
    endloop
  endfacet
  facet normal -0.94088 -0 -0.338739
    outer loop
      vertex 3.16124 2.5 -1.24838
      vertex 3.23359 -2.5 -1.44934
      vertex 3.16124 -2.5 -1.24838
    endloop
  endfacet
  facet normal -0.917754 0 -0.39715
    outer loop
      vertex 3.16124 -2.5 -1.24838
      vertex 3.07641 2.5 -1.05235
      vertex 3.16124 2.5 -1.24838
    endloop
  endfacet
  facet normal -0.917754 -0 -0.39715
    outer loop
      vertex 3.07641 2.5 -1.05235
      vertex 3.16124 -2.5 -1.24838
      vertex 3.07641 -2.5 -1.05235
    endloop
  endfacet
  facet normal 0.790155 0 -0.612907
    outer loop
      vertex -2.61974 -2.5 -0.332758
      vertex -2.75066 2.5 -0.50153
      vertex -2.61974 2.5 -0.332758
    endloop
  endfacet
  facet normal 0.790155 0 -0.612907
    outer loop
      vertex -2.75066 2.5 -0.50153
      vertex -2.61974 -2.5 -0.332758
      vertex -2.75066 -2.5 -0.50153
    endloop
  endfacet
  facet normal 0.891008 0 -0.453987
    outer loop
      vertex -2.97944 -2.5 -0.862037
      vertex -3.07641 2.5 -1.05235
      vertex -2.97944 2.5 -0.862037
    endloop
  endfacet
  facet normal 0.891008 0 -0.453987
    outer loop
      vertex -3.07641 2.5 -1.05235
      vertex -2.97944 -2.5 -0.862037
      vertex -3.07641 -2.5 -1.05235
    endloop
  endfacet
  facet normal 0.509044 0 -0.86074
    outer loop
      vertex -1.82181 -2.5 0.370714
      vertex -1.63796 2.5 0.479443
      vertex -1.63796 -2.5 0.479443
    endloop
  endfacet
  facet normal 0.509044 0 -0.86074
    outer loop
      vertex -1.63796 2.5 0.479443
      vertex -1.82181 -2.5 0.370714
      vertex -1.82181 2.5 0.370714
    endloop
  endfacet
endsolid OpenSCAD_Model
