solid OpenSCAD_Model
  facet normal -1 0 0
    outer loop
      vertex -5 -2.5 -2.5
      vertex -5 2.5 2.5
      vertex -5 2.5 -2.5
    endloop
  endfacet
  facet normal -1 -0 0
    outer loop
      vertex -5 2.5 2.5
      vertex -5 -2.5 -2.5
      vertex -5 -2.5 2.5
    endloop
  endfacet
  facet normal -0 0 1
    outer loop
      vertex -5 2.5 2.5
      vertex 5 -2.5 2.5
      vertex 5 2.5 2.5
    endloop
  endfacet
  facet normal 0 0 1
    outer loop
      vertex 5 -2.5 2.5
      vertex -5 2.5 2.5
      vertex -5 -2.5 2.5
    endloop
  endfacet
  facet normal 1 -0 0
    outer loop
      vertex 5 -2.5 2.5
      vertex 5 2.5 -2.5
      vertex 5 2.5 2.5
    endloop
  endfacet
  facet normal 1 0 0
    outer loop
      vertex 5 2.5 -2.5
      vertex 5 -2.5 2.5
      vertex 5 -2.5 -2.5
    endloop
  endfacet
  facet normal 0 1 0
    outer loop
      vertex 5 2.5 2.5
      vertex 0 2.5 0.299999
      vertex -5 2.5 2.5
    endloop
  endfacet
  facet normal 0 1 0
    outer loop
      vertex 5 2.5 2.5
      vertex 0.20093 2.5 0.293685
      vertex 0 2.5 0.299999
    endloop
  endfacet
  facet normal 0 1 0
    outer loop
      vertex 5 2.5 2.5
      vertex 0.401066 2.5 0.274767
      vertex 0.20093 2.5 0.293685
    endloop
  endfacet
  facet normal 0 1 0
    outer loop
      vertex 5 2.5 2.5
      vertex 0.59962 2.5 0.243319
      vertex 0.401066 2.5 0.274767
    endloop
  endfacet
  facet normal 0 1 0
    outer loop
      vertex 5 2.5 2.5
      vertex 0.795807 2.5 0.199466
      vertex 0.59962 2.5 0.243319
    endloop
  endfacet
  facet normal 0 1 0
    outer loop
      vertex 5 2.5 2.5
      vertex 0.988853 2.5 0.14338
      vertex 0.795807 2.5 0.199466
    endloop
  endfacet
  facet normal 0 1 0
    outer loop
      vertex 5 2.5 2.5
      vertex 1.178 2.5 0.075284
      vertex 0.988853 2.5 0.14338
    endloop
  endfacet
  facet normal 0 1 0
    outer loop
      vertex 5 2.5 2.5
      vertex 1.36249 2.5 -0.00455284
      vertex 1.178 2.5 0.075284
    endloop
  endfacet
  facet normal 0 1 0
    outer loop
      vertex 5 2.5 2.5
      vertex 1.54161 2.5 -0.0958185
      vertex 1.36249 2.5 -0.00455284
    endloop
  endfacet
  facet normal 0 1 0
    outer loop
      vertex 5 2.5 2.5
      vertex 1.71465 2.5 -0.198151
      vertex 1.54161 2.5 -0.0958185
    endloop
  endfacet
  facet normal 0 1 0
    outer loop
      vertex 5 2.5 2.5
      vertex 1.88091 2.5 -0.311145
      vertex 1.71465 2.5 -0.198151
    endloop
  endfacet
  facet normal 0 1 0
    outer loop
      vertex 5 2.5 2.5
      vertex 2.03976 2.5 -0.434357
      vertex 1.88091 2.5 -0.311145
    endloop
  endfacet
  facet normal 0 1 0
    outer loop
      vertex 5 2.5 2.5
      vertex 2.19055 2.5 -0.5673
      vertex 2.03976 2.5 -0.434357
    endloop
  endfacet
  facet normal 0 1 0
    outer loop
      vertex 5 2.5 2.5
      vertex 2.3327 2.5 -0.709449
      vertex 2.19055 2.5 -0.5673
    endloop
  endfacet
  facet normal 0 1 0
    outer loop
      vertex 5 2.5 2.5
      vertex 2.46564 2.5 -0.860243
      vertex 2.3327 2.5 -0.709449
    endloop
  endfacet
  facet normal 0 1 0
    outer loop
      vertex 5 2.5 2.5
      vertex 2.58885 2.5 -1.01909
      vertex 2.46564 2.5 -0.860243
    endloop
  endfacet
  facet normal 0 1 0
    outer loop
      vertex 5 2.5 2.5
      vertex 2.70185 2.5 -1.18535
      vertex 2.58885 2.5 -1.01909
    endloop
  endfacet
  facet normal 0 1 0
    outer loop
      vertex 5 2.5 2.5
      vertex 2.80418 2.5 -1.35839
      vertex 2.70185 2.5 -1.18535
    endloop
  endfacet
  facet normal 0 1 -0
    outer loop
      vertex 5 2.5 -2.5
      vertex 2.80418 2.5 -1.35839
      vertex 5 2.5 2.5
    endloop
  endfacet
  facet normal 0 1 0
    outer loop
      vertex 2.80418 2.5 -1.35839
      vertex 5 2.5 -2.5
      vertex 2.89545 2.5 -1.53751
    endloop
  endfacet
  facet normal 0 1 0
    outer loop
      vertex 2.89545 2.5 -1.53751
      vertex 5 2.5 -2.5
      vertex 2.97528 2.5 -1.722
    endloop
  endfacet
  facet normal 0 1 0
    outer loop
      vertex 2.97528 2.5 -1.722
      vertex 5 2.5 -2.5
      vertex 3.04338 2.5 -1.91115
    endloop
  endfacet
  facet normal 0 1 0
    outer loop
      vertex 3.04338 2.5 -1.91115
      vertex 5 2.5 -2.5
      vertex 3.09947 2.5 -2.10419
    endloop
  endfacet
  facet normal 0 1 0
    outer loop
      vertex 3.09947 2.5 -2.10419
      vertex 5 2.5 -2.5
      vertex 3.14332 2.5 -2.30038
    endloop
  endfacet
  facet normal 0 1 0
    outer loop
      vertex 3.14332 2.5 -2.30038
      vertex 5 2.5 -2.5
      vertex 3.17477 2.5 -2.49893
    endloop
  endfacet
  facet normal 0 1 0
    outer loop
      vertex 3.17477 2.5 -2.49893
      vertex 5 2.5 -2.5
      vertex 3.17487 2.5 -2.5
    endloop
  endfacet
  facet normal 0 1 -0
    outer loop
      vertex -0.20093 2.5 0.293685
      vertex -5 2.5 2.5
      vertex 0 2.5 0.299999
    endloop
  endfacet
  facet normal 0 1 -0
    outer loop
      vertex -0.401066 2.5 0.274767
      vertex -5 2.5 2.5
      vertex -0.20093 2.5 0.293685
    endloop
  endfacet
  facet normal 0 1 -0
    outer loop
      vertex -0.59962 2.5 0.243319
      vertex -5 2.5 2.5
      vertex -0.401066 2.5 0.274767
    endloop
  endfacet
  facet normal 0 1 -0
    outer loop
      vertex -0.795807 2.5 0.199466
      vertex -5 2.5 2.5
      vertex -0.59962 2.5 0.243319
    endloop
  endfacet
  facet normal 0 1 -0
    outer loop
      vertex -0.988853 2.5 0.14338
      vertex -5 2.5 2.5
      vertex -0.795807 2.5 0.199466
    endloop
  endfacet
  facet normal 0 1 -0
    outer loop
      vertex -1.178 2.5 0.075284
      vertex -5 2.5 2.5
      vertex -0.988853 2.5 0.14338
    endloop
  endfacet
  facet normal 0 1 -0
    outer loop
      vertex -1.36249 2.5 -0.00455284
      vertex -5 2.5 2.5
      vertex -1.178 2.5 0.075284
    endloop
  endfacet
  facet normal 0 1 -0
    outer loop
      vertex -1.54161 2.5 -0.0958185
      vertex -5 2.5 2.5
      vertex -1.36249 2.5 -0.00455284
    endloop
  endfacet
  facet normal 0 1 -0
    outer loop
      vertex -1.71465 2.5 -0.198151
      vertex -5 2.5 2.5
      vertex -1.54161 2.5 -0.0958185
    endloop
  endfacet
  facet normal 0 1 -0
    outer loop
      vertex -1.88091 2.5 -0.311145
      vertex -5 2.5 2.5
      vertex -1.71465 2.5 -0.198151
    endloop
  endfacet
  facet normal 0 1 -0
    outer loop
      vertex -2.03976 2.5 -0.434357
      vertex -5 2.5 2.5
      vertex -1.88091 2.5 -0.311145
    endloop
  endfacet
  facet normal 0 1 -0
    outer loop
      vertex -2.19055 2.5 -0.5673
      vertex -5 2.5 2.5
      vertex -2.03976 2.5 -0.434357
    endloop
  endfacet
  facet normal 0 1 -0
    outer loop
      vertex -2.3327 2.5 -0.709449
      vertex -5 2.5 2.5
      vertex -2.19055 2.5 -0.5673
    endloop
  endfacet
  facet normal 0 1 -0
    outer loop
      vertex -2.46564 2.5 -0.860243
      vertex -5 2.5 2.5
      vertex -2.3327 2.5 -0.709449
    endloop
  endfacet
  facet normal 0 1 -0
    outer loop
      vertex -2.58885 2.5 -1.01909
      vertex -5 2.5 2.5
      vertex -2.46564 2.5 -0.860243
    endloop
  endfacet
  facet normal 0 1 -0
    outer loop
      vertex -2.70185 2.5 -1.18535
      vertex -5 2.5 2.5
      vertex -2.58885 2.5 -1.01909
    endloop
  endfacet
  facet normal 0 1 -0
    outer loop
      vertex -2.80418 2.5 -1.35839
      vertex -5 2.5 2.5
      vertex -2.70185 2.5 -1.18535
    endloop
  endfacet
  facet normal 0 1 0
    outer loop
      vertex -5 2.5 -2.5
      vertex -2.80418 2.5 -1.35839
      vertex -2.89545 2.5 -1.53751
    endloop
  endfacet
  facet normal 0 1 0
    outer loop
      vertex -5 2.5 -2.5
      vertex -2.89545 2.5 -1.53751
      vertex -2.97528 2.5 -1.722
    endloop
  endfacet
  facet normal 0 1 0
    outer loop
      vertex -5 2.5 -2.5
      vertex -2.97528 2.5 -1.722
      vertex -3.04338 2.5 -1.91115
    endloop
  endfacet
  facet normal 0 1 0
    outer loop
      vertex -5 2.5 -2.5
      vertex -3.04338 2.5 -1.91115
      vertex -3.09947 2.5 -2.10419
    endloop
  endfacet
  facet normal 0 1 0
    outer loop
      vertex -5 2.5 -2.5
      vertex -3.09947 2.5 -2.10419
      vertex -3.14332 2.5 -2.30038
    endloop
  endfacet
  facet normal 0 1 0
    outer loop
      vertex -5 2.5 -2.5
      vertex -3.14332 2.5 -2.30038
      vertex -3.17477 2.5 -2.49893
    endloop
  endfacet
  facet normal 0 1 0
    outer loop
      vertex -5 2.5 -2.5
      vertex -3.17477 2.5 -2.49893
      vertex -3.17487 2.5 -2.5
    endloop
  endfacet
  facet normal 0 1 0
    outer loop
      vertex -2.80418 2.5 -1.35839
      vertex -5 2.5 -2.5
      vertex -5 2.5 2.5
    endloop
  endfacet
  facet normal 0 0 -1
    outer loop
      vertex -5 -2.5 -2.5
      vertex -3.17487 2.5 -2.5
      vertex -3.17487 -2.5 -2.5
    endloop
  endfacet
  facet normal -0 0 -1
    outer loop
      vertex -3.17487 2.5 -2.5
      vertex -5 -2.5 -2.5
      vertex -5 2.5 -2.5
    endloop
  endfacet
  facet normal 0 0 -1
    outer loop
      vertex 3.17487 -2.5 -2.5
      vertex 5 2.5 -2.5
      vertex 5 -2.5 -2.5
    endloop
  endfacet
  facet normal -0 0 -1
    outer loop
      vertex 5 2.5 -2.5
      vertex 3.17487 -2.5 -2.5
      vertex 3.17487 2.5 -2.5
    endloop
  endfacet
  facet normal 0 -1 0
    outer loop
      vertex -5 -2.5 2.5
      vertex 0 -2.5 0.299999
      vertex 5 -2.5 2.5
    endloop
  endfacet
  facet normal 0 -1 0
    outer loop
      vertex -5 -2.5 2.5
      vertex -0.20093 -2.5 0.293685
      vertex 0 -2.5 0.299999
    endloop
  endfacet
  facet normal 0 -1 0
    outer loop
      vertex -5 -2.5 2.5
      vertex -0.401066 -2.5 0.274767
      vertex -0.20093 -2.5 0.293685
    endloop
  endfacet
  facet normal 0 -1 0
    outer loop
      vertex -5 -2.5 2.5
      vertex -0.59962 -2.5 0.243319
      vertex -0.401066 -2.5 0.274767
    endloop
  endfacet
  facet normal 0 -1 0
    outer loop
      vertex -5 -2.5 2.5
      vertex -0.795807 -2.5 0.199466
      vertex -0.59962 -2.5 0.243319
    endloop
  endfacet
  facet normal 0 -1 0
    outer loop
      vertex -5 -2.5 2.5
      vertex -0.988853 -2.5 0.14338
      vertex -0.795807 -2.5 0.199466
    endloop
  endfacet
  facet normal 0 -1 0
    outer loop
      vertex -5 -2.5 2.5
      vertex -1.178 -2.5 0.075284
      vertex -0.988853 -2.5 0.14338
    endloop
  endfacet
  facet normal 0 -1 0
    outer loop
      vertex -5 -2.5 2.5
      vertex -1.36249 -2.5 -0.00455284
      vertex -1.178 -2.5 0.075284
    endloop
  endfacet
  facet normal 0 -1 0
    outer loop
      vertex -5 -2.5 2.5
      vertex -1.54161 -2.5 -0.0958185
      vertex -1.36249 -2.5 -0.00455284
    endloop
  endfacet
  facet normal 0 -1 0
    outer loop
      vertex -5 -2.5 2.5
      vertex -1.71465 -2.5 -0.198151
      vertex -1.54161 -2.5 -0.0958185
    endloop
  endfacet
  facet normal 0 -1 0
    outer loop
      vertex -5 -2.5 2.5
      vertex -1.88091 -2.5 -0.311145
      vertex -1.71465 -2.5 -0.198151
    endloop
  endfacet
  facet normal 0 -1 0
    outer loop
      vertex -5 -2.5 2.5
      vertex -2.03976 -2.5 -0.434357
      vertex -1.88091 -2.5 -0.311145
    endloop
  endfacet
  facet normal 0 -1 0
    outer loop
      vertex -5 -2.5 2.5
      vertex -2.19055 -2.5 -0.5673
      vertex -2.03976 -2.5 -0.434357
    endloop
  endfacet
  facet normal 0 -1 0
    outer loop
      vertex -5 -2.5 2.5
      vertex -2.3327 -2.5 -0.709449
      vertex -2.19055 -2.5 -0.5673
    endloop
  endfacet
  facet normal 0 -1 0
    outer loop
      vertex -5 -2.5 2.5
      vertex -2.46564 -2.5 -0.860243
      vertex -2.3327 -2.5 -0.709449
    endloop
  endfacet
  facet normal 0 -1 0
    outer loop
      vertex -5 -2.5 2.5
      vertex -2.58885 -2.5 -1.01909
      vertex -2.46564 -2.5 -0.860243
    endloop
  endfacet
  facet normal 0 -1 0
    outer loop
      vertex -5 -2.5 2.5
      vertex -2.70185 -2.5 -1.18535
      vertex -2.58885 -2.5 -1.01909
    endloop
  endfacet
  facet normal 0 -1 0
    outer loop
      vertex -5 -2.5 2.5
      vertex -2.80418 -2.5 -1.35839
      vertex -2.70185 -2.5 -1.18535
    endloop
  endfacet
  facet normal 0 -1 0
    outer loop
      vertex -5 -2.5 -2.5
      vertex -2.80418 -2.5 -1.35839
      vertex -5 -2.5 2.5
    endloop
  endfacet
  facet normal 0 -1 0
    outer loop
      vertex -2.80418 -2.5 -1.35839
      vertex -5 -2.5 -2.5
      vertex -2.89545 -2.5 -1.53751
    endloop
  endfacet
  facet normal 0 -1 0
    outer loop
      vertex -2.89545 -2.5 -1.53751
      vertex -5 -2.5 -2.5
      vertex -2.97528 -2.5 -1.722
    endloop
  endfacet
  facet normal 0 -1 0
    outer loop
      vertex -2.97528 -2.5 -1.722
      vertex -5 -2.5 -2.5
      vertex -3.04338 -2.5 -1.91115
    endloop
  endfacet
  facet normal 0 -1 0
    outer loop
      vertex -3.04338 -2.5 -1.91115
      vertex -5 -2.5 -2.5
      vertex -3.09947 -2.5 -2.10419
    endloop
  endfacet
  facet normal 0 -1 0
    outer loop
      vertex -3.09947 -2.5 -2.10419
      vertex -5 -2.5 -2.5
      vertex -3.14332 -2.5 -2.30038
    endloop
  endfacet
  facet normal 0 -1 0
    outer loop
      vertex -3.14332 -2.5 -2.30038
      vertex -5 -2.5 -2.5
      vertex -3.17477 -2.5 -2.49893
    endloop
  endfacet
  facet normal 0 -1 0
    outer loop
      vertex -3.17477 -2.5 -2.49893
      vertex -5 -2.5 -2.5
      vertex -3.17487 -2.5 -2.5
    endloop
  endfacet
  facet normal 0 -1 0
    outer loop
      vertex 0.20093 -2.5 0.293685
      vertex 5 -2.5 2.5
      vertex 0 -2.5 0.299999
    endloop
  endfacet
  facet normal 0 -1 0
    outer loop
      vertex 0.401066 -2.5 0.274767
      vertex 5 -2.5 2.5
      vertex 0.20093 -2.5 0.293685
    endloop
  endfacet
  facet normal 0 -1 0
    outer loop
      vertex 0.59962 -2.5 0.243319
      vertex 5 -2.5 2.5
      vertex 0.401066 -2.5 0.274767
    endloop
  endfacet
  facet normal 0 -1 0
    outer loop
      vertex 0.795807 -2.5 0.199466
      vertex 5 -2.5 2.5
      vertex 0.59962 -2.5 0.243319
    endloop
  endfacet
  facet normal 0 -1 0
    outer loop
      vertex 0.988853 -2.5 0.14338
      vertex 5 -2.5 2.5
      vertex 0.795807 -2.5 0.199466
    endloop
  endfacet
  facet normal 0 -1 0
    outer loop
      vertex 1.178 -2.5 0.075284
      vertex 5 -2.5 2.5
      vertex 0.988853 -2.5 0.14338
    endloop
  endfacet
  facet normal 0 -1 0
    outer loop
      vertex 1.36249 -2.5 -0.00455284
      vertex 5 -2.5 2.5
      vertex 1.178 -2.5 0.075284
    endloop
  endfacet
  facet normal 0 -1 0
    outer loop
      vertex 1.54161 -2.5 -0.0958185
      vertex 5 -2.5 2.5
      vertex 1.36249 -2.5 -0.00455284
    endloop
  endfacet
  facet normal 0 -1 0
    outer loop
      vertex 1.71465 -2.5 -0.198151
      vertex 5 -2.5 2.5
      vertex 1.54161 -2.5 -0.0958185
    endloop
  endfacet
  facet normal 0 -1 0
    outer loop
      vertex 1.88091 -2.5 -0.311145
      vertex 5 -2.5 2.5
      vertex 1.71465 -2.5 -0.198151
    endloop
  endfacet
  facet normal 0 -1 0
    outer loop
      vertex 2.03976 -2.5 -0.434357
      vertex 5 -2.5 2.5
      vertex 1.88091 -2.5 -0.311145
    endloop
  endfacet
  facet normal 0 -1 0
    outer loop
      vertex 2.19055 -2.5 -0.5673
      vertex 5 -2.5 2.5
      vertex 2.03976 -2.5 -0.434357
    endloop
  endfacet
  facet normal 0 -1 0
    outer loop
      vertex 2.3327 -2.5 -0.709449
      vertex 5 -2.5 2.5
      vertex 2.19055 -2.5 -0.5673
    endloop
  endfacet
  facet normal 0 -1 0
    outer loop
      vertex 2.46564 -2.5 -0.860243
      vertex 5 -2.5 2.5
      vertex 2.3327 -2.5 -0.709449
    endloop
  endfacet
  facet normal 0 -1 0
    outer loop
      vertex 2.58885 -2.5 -1.01909
      vertex 5 -2.5 2.5
      vertex 2.46564 -2.5 -0.860243
    endloop
  endfacet
  facet normal 0 -1 0
    outer loop
      vertex 2.70185 -2.5 -1.18535
      vertex 5 -2.5 2.5
      vertex 2.58885 -2.5 -1.01909
    endloop
  endfacet
  facet normal 0 -1 0
    outer loop
      vertex 2.80418 -2.5 -1.35839
      vertex 5 -2.5 2.5
      vertex 2.70185 -2.5 -1.18535
    endloop
  endfacet
  facet normal 0 -1 0
    outer loop
      vertex 5 -2.5 -2.5
      vertex 2.80418 -2.5 -1.35839
      vertex 2.89545 -2.5 -1.53751
    endloop
  endfacet
  facet normal 0 -1 0
    outer loop
      vertex 5 -2.5 -2.5
      vertex 2.89545 -2.5 -1.53751
      vertex 2.97528 -2.5 -1.722
    endloop
  endfacet
  facet normal 0 -1 0
    outer loop
      vertex 5 -2.5 -2.5
      vertex 2.97528 -2.5 -1.722
      vertex 3.04338 -2.5 -1.91115
    endloop
  endfacet
  facet normal 0 -1 0
    outer loop
      vertex 5 -2.5 -2.5
      vertex 3.04338 -2.5 -1.91115
      vertex 3.09947 -2.5 -2.10419
    endloop
  endfacet
  facet normal 0 -1 0
    outer loop
      vertex 5 -2.5 -2.5
      vertex 3.09947 -2.5 -2.10419
      vertex 3.14332 -2.5 -2.30038
    endloop
  endfacet
  facet normal 0 -1 0
    outer loop
      vertex 5 -2.5 -2.5
      vertex 3.14332 -2.5 -2.30038
      vertex 3.17477 -2.5 -2.49893
    endloop
  endfacet
  facet normal 0 -1 0
    outer loop
      vertex 5 -2.5 -2.5
      vertex 3.17477 -2.5 -2.49893
      vertex 3.17487 -2.5 -2.5
    endloop
  endfacet
  facet normal 0 -1 0
    outer loop
      vertex 2.80418 -2.5 -1.35839
      vertex 5 -2.5 -2.5
      vertex 5 -2.5 2.5
    endloop
  endfacet
  facet normal -0.987689 0 -0.156433
    outer loop
      vertex 3.17477 -2.5 -2.49893
      vertex 3.14332 2.5 -2.30038
      vertex 3.17477 2.5 -2.49893
    endloop
  endfacet
  facet normal -0.987689 -0 -0.156433
    outer loop
      vertex 3.14332 2.5 -2.30038
      vertex 3.17477 -2.5 -2.49893
      vertex 3.14332 -2.5 -2.30038
    endloop
  endfacet
  facet normal -0.995564 0 -0.0940848
    outer loop
      vertex 3.17487 -2.5 -2.5
      vertex 3.17477 2.5 -2.49893
      vertex 3.17487 2.5 -2.5
    endloop
  endfacet
  facet normal -0.995564 -0 -0.0940848
    outer loop
      vertex 3.17477 2.5 -2.49893
      vertex 3.17487 -2.5 -2.5
      vertex 3.17477 -2.5 -2.49893
    endloop
  endfacet
  facet normal 0.0941063 0 -0.995562
    outer loop
      vertex -0.401066 -2.5 0.274767
      vertex -0.20093 2.5 0.293685
      vertex -0.20093 -2.5 0.293685
    endloop
  endfacet
  facet normal 0.0941063 0 -0.995562
    outer loop
      vertex -0.20093 2.5 0.293685
      vertex -0.401066 -2.5 0.274767
      vertex -0.401066 2.5 0.274767
    endloop
  endfacet
  facet normal -0.960294 0 -0.278988
    outer loop
      vertex 3.09947 -2.5 -2.10419
      vertex 3.04338 2.5 -1.91115
      vertex 3.09947 2.5 -2.10419
    endloop
  endfacet
  facet normal -0.960294 -0 -0.278988
    outer loop
      vertex 3.04338 2.5 -1.91115
      vertex 3.09947 -2.5 -2.10419
      vertex 3.04338 -2.5 -1.91115
    endloop
  endfacet
  facet normal 0.0314098 0 -0.999507
    outer loop
      vertex -0.20093 -2.5 0.293685
      vertex 0 2.5 0.299999
      vertex 0 -2.5 0.299999
    endloop
  endfacet
  facet normal 0.0314098 0 -0.999507
    outer loop
      vertex 0 2.5 0.299999
      vertex -0.20093 -2.5 0.293685
      vertex -0.20093 2.5 0.293685
    endloop
  endfacet
  facet normal 0.975916 0 -0.218146
    outer loop
      vertex -3.09947 -2.5 -2.10419
      vertex -3.14332 2.5 -2.30038
      vertex -3.09947 2.5 -2.10419
    endloop
  endfacet
  facet normal 0.975916 0 -0.218146
    outer loop
      vertex -3.14332 2.5 -2.30038
      vertex -3.09947 -2.5 -2.10419
      vertex -3.14332 -2.5 -2.30038
    endloop
  endfacet
  facet normal -0.612909 0 -0.790154
    outer loop
      vertex 1.88091 -2.5 -0.311145
      vertex 2.03976 2.5 -0.434357
      vertex 2.03976 -2.5 -0.434357
    endloop
  endfacet
  facet normal -0.612909 0 -0.790154
    outer loop
      vertex 2.03976 2.5 -0.434357
      vertex 1.88091 -2.5 -0.311145
      vertex 1.88091 2.5 -0.311145
    endloop
  endfacet
  facet normal 0.940881 0 -0.338738
    outer loop
      vertex -2.97528 -2.5 -1.722
      vertex -3.04338 2.5 -1.91115
      vertex -2.97528 2.5 -1.722
    endloop
  endfacet
  facet normal 0.940881 0 -0.338738
    outer loop
      vertex -3.04338 2.5 -1.91115
      vertex -2.97528 -2.5 -1.722
      vertex -3.04338 -2.5 -1.91115
    endloop
  endfacet
  facet normal 0.338737 0 -0.940881
    outer loop
      vertex -1.178 -2.5 0.075284
      vertex -0.988853 2.5 0.14338
      vertex -0.988853 -2.5 0.14338
    endloop
  endfacet
  facet normal 0.338737 0 -0.940881
    outer loop
      vertex -0.988853 2.5 0.14338
      vertex -1.178 -2.5 0.075284
      vertex -1.178 2.5 0.075284
    endloop
  endfacet
  facet normal -0.278993 0 -0.960293
    outer loop
      vertex 0.795807 -2.5 0.199466
      vertex 0.988853 2.5 0.14338
      vertex 0.988853 -2.5 0.14338
    endloop
  endfacet
  facet normal -0.278993 0 -0.960293
    outer loop
      vertex 0.988853 2.5 0.14338
      vertex 0.795807 -2.5 0.199466
      vertex 0.795807 2.5 0.199466
    endloop
  endfacet
  facet normal 0.995564 0 -0.0940848
    outer loop
      vertex -3.17477 -2.5 -2.49893
      vertex -3.17487 2.5 -2.5
      vertex -3.17477 2.5 -2.49893
    endloop
  endfacet
  facet normal 0.995564 0 -0.0940848
    outer loop
      vertex -3.17487 2.5 -2.5
      vertex -3.17477 -2.5 -2.49893
      vertex -3.17487 -2.5 -2.5
    endloop
  endfacet
  facet normal 0.960294 0 -0.278988
    outer loop
      vertex -3.04338 -2.5 -1.91115
      vertex -3.09947 2.5 -2.10419
      vertex -3.04338 2.5 -1.91115
    endloop
  endfacet
  facet normal 0.960294 0 -0.278988
    outer loop
      vertex -3.09947 2.5 -2.10419
      vertex -3.04338 -2.5 -1.91115
      vertex -3.09947 -2.5 -2.10419
    endloop
  endfacet
  facet normal 0.987689 0 -0.156433
    outer loop
      vertex -3.14332 -2.5 -2.30038
      vertex -3.17477 2.5 -2.49893
      vertex -3.14332 2.5 -2.30038
    endloop
  endfacet
  facet normal 0.987689 0 -0.156433
    outer loop
      vertex -3.17477 2.5 -2.49893
      vertex -3.14332 -2.5 -2.30038
      vertex -3.17477 -2.5 -2.49893
    endloop
  endfacet
  facet normal 0.218142 0 -0.975917
    outer loop
      vertex -0.795807 -2.5 0.199466
      vertex -0.59962 2.5 0.243319
      vertex -0.59962 -2.5 0.243319
    endloop
  endfacet
  facet normal 0.218142 0 -0.975917
    outer loop
      vertex -0.59962 2.5 0.243319
      vertex -0.795807 -2.5 0.199466
      vertex -0.795807 2.5 0.199466
    endloop
  endfacet
  facet normal 0.453992 0 -0.891006
    outer loop
      vertex -1.54161 -2.5 -0.0958185
      vertex -1.36249 2.5 -0.00455284
      vertex -1.36249 -2.5 -0.00455284
    endloop
  endfacet
  facet normal 0.453992 0 -0.891006
    outer loop
      vertex -1.36249 2.5 -0.00455284
      vertex -1.54161 -2.5 -0.0958185
      vertex -1.54161 2.5 -0.0958185
    endloop
  endfacet
  facet normal 0.661313 0 -0.75011
    outer loop
      vertex -2.19055 -2.5 -0.5673
      vertex -2.03976 2.5 -0.434357
      vertex -2.03976 -2.5 -0.434357
    endloop
  endfacet
  facet normal 0.661313 0 -0.75011
    outer loop
      vertex -2.03976 2.5 -0.434357
      vertex -2.19055 -2.5 -0.5673
      vertex -2.19055 2.5 -0.5673
    endloop
  endfacet
  facet normal -0.0941063 0 -0.995562
    outer loop
      vertex 0.20093 -2.5 0.293685
      vertex 0.401066 2.5 0.274767
      vertex 0.401066 -2.5 0.274767
    endloop
  endfacet
  facet normal -0.0941063 0 -0.995562
    outer loop
      vertex 0.401066 2.5 0.274767
      vertex 0.20093 -2.5 0.293685
      vertex 0.20093 2.5 0.293685
    endloop
  endfacet
  facet normal -0.453992 0 -0.891006
    outer loop
      vertex 1.36249 -2.5 -0.00455284
      vertex 1.54161 2.5 -0.0958185
      vertex 1.54161 -2.5 -0.0958185
    endloop
  endfacet
  facet normal -0.453992 0 -0.891006
    outer loop
      vertex 1.54161 2.5 -0.0958185
      vertex 1.36249 -2.5 -0.00455284
      vertex 1.36249 2.5 -0.00455284
    endloop
  endfacet
  facet normal -0.509042 0 -0.860741
    outer loop
      vertex 1.54161 -2.5 -0.0958185
      vertex 1.71465 2.5 -0.198151
      vertex 1.71465 -2.5 -0.198151
    endloop
  endfacet
  facet normal -0.509042 0 -0.860741
    outer loop
      vertex 1.71465 2.5 -0.198151
      vertex 1.54161 -2.5 -0.0958185
      vertex 1.54161 2.5 -0.0958185
    endloop
  endfacet
  facet normal -0.975916 0 -0.218146
    outer loop
      vertex 3.14332 -2.5 -2.30038
      vertex 3.09947 2.5 -2.10419
      vertex 3.14332 2.5 -2.30038
    endloop
  endfacet
  facet normal -0.975916 -0 -0.218146
    outer loop
      vertex 3.09947 2.5 -2.10419
      vertex 3.14332 -2.5 -2.30038
      vertex 3.09947 -2.5 -2.10419
    endloop
  endfacet
  facet normal -0.790155 0 -0.612907
    outer loop
      vertex 2.58885 -2.5 -1.01909
      vertex 2.46564 2.5 -0.860243
      vertex 2.58885 2.5 -1.01909
    endloop
  endfacet
  facet normal -0.790155 -0 -0.612907
    outer loop
      vertex 2.46564 2.5 -0.860243
      vertex 2.58885 -2.5 -1.01909
      vertex 2.46564 -2.5 -0.860243
    endloop
  endfacet
  facet normal -0.827081 0 -0.562083
    outer loop
      vertex 2.70185 -2.5 -1.18535
      vertex 2.58885 2.5 -1.01909
      vertex 2.70185 2.5 -1.18535
    endloop
  endfacet
  facet normal -0.827081 -0 -0.562083
    outer loop
      vertex 2.58885 2.5 -1.01909
      vertex 2.70185 -2.5 -1.18535
      vertex 2.58885 -2.5 -1.01909
    endloop
  endfacet
  facet normal -0.860741 0 -0.509042
    outer loop
      vertex 2.80418 -2.5 -1.35839
      vertex 2.70185 2.5 -1.18535
      vertex 2.80418 2.5 -1.35839
    endloop
  endfacet
  facet normal -0.860741 -0 -0.509042
    outer loop
      vertex 2.70185 2.5 -1.18535
      vertex 2.80418 -2.5 -1.35839
      vertex 2.70185 -2.5 -1.18535
    endloop
  endfacet
  facet normal 0.278993 0 -0.960293
    outer loop
      vertex -0.988853 -2.5 0.14338
      vertex -0.795807 2.5 0.199466
      vertex -0.795807 -2.5 0.199466
    endloop
  endfacet
  facet normal 0.278993 0 -0.960293
    outer loop
      vertex -0.795807 2.5 0.199466
      vertex -0.988853 -2.5 0.14338
      vertex -0.988853 2.5 0.14338
    endloop
  endfacet
  facet normal 0.56208 0 -0.827083
    outer loop
      vertex -1.88091 -2.5 -0.311145
      vertex -1.71465 2.5 -0.198151
      vertex -1.71465 -2.5 -0.198151
    endloop
  endfacet
  facet normal 0.56208 0 -0.827083
    outer loop
      vertex -1.71465 2.5 -0.198151
      vertex -1.88091 -2.5 -0.311145
      vertex -1.88091 2.5 -0.311145
    endloop
  endfacet
  facet normal 0.707107 0 -0.707107
    outer loop
      vertex -2.19055 -2.5 -0.5673
      vertex -2.3327 2.5 -0.709449
      vertex -2.19055 2.5 -0.5673
    endloop
  endfacet
  facet normal 0.707107 0 -0.707107
    outer loop
      vertex -2.3327 2.5 -0.709449
      vertex -2.19055 -2.5 -0.5673
      vertex -2.3327 -2.5 -0.709449
    endloop
  endfacet
  facet normal 0.860741 0 -0.509042
    outer loop
      vertex -2.70185 -2.5 -1.18535
      vertex -2.80418 2.5 -1.35839
      vertex -2.70185 2.5 -1.18535
    endloop
  endfacet
  facet normal 0.860741 0 -0.509042
    outer loop
      vertex -2.80418 2.5 -1.35839
      vertex -2.70185 -2.5 -1.18535
      vertex -2.80418 -2.5 -1.35839
    endloop
  endfacet
  facet normal 0.917753 0 -0.397151
    outer loop
      vertex -2.89545 -2.5 -1.53751
      vertex -2.97528 2.5 -1.722
      vertex -2.89545 2.5 -1.53751
    endloop
  endfacet
  facet normal 0.917753 0 -0.397151
    outer loop
      vertex -2.97528 2.5 -1.722
      vertex -2.89545 -2.5 -1.53751
      vertex -2.97528 -2.5 -1.722
    endloop
  endfacet
  facet normal 0.891008 0 -0.453988
    outer loop
      vertex -2.80418 -2.5 -1.35839
      vertex -2.89545 2.5 -1.53751
      vertex -2.80418 2.5 -1.35839
    endloop
  endfacet
  facet normal 0.891008 0 -0.453988
    outer loop
      vertex -2.89545 2.5 -1.53751
      vertex -2.80418 -2.5 -1.35839
      vertex -2.89545 -2.5 -1.53751
    endloop
  endfacet
  facet normal -0.0314098 0 -0.999507
    outer loop
      vertex 0 -2.5 0.299999
      vertex 0.20093 2.5 0.293685
      vertex 0.20093 -2.5 0.293685
    endloop
  endfacet
  facet normal -0.0314098 0 -0.999507
    outer loop
      vertex 0.20093 2.5 0.293685
      vertex 0 -2.5 0.299999
      vertex 0 2.5 0.299999
    endloop
  endfacet
  facet normal -0.218142 0 -0.975917
    outer loop
      vertex 0.59962 -2.5 0.243319
      vertex 0.795807 2.5 0.199466
      vertex 0.795807 -2.5 0.199466
    endloop
  endfacet
  facet normal -0.218142 0 -0.975917
    outer loop
      vertex 0.795807 2.5 0.199466
      vertex 0.59962 -2.5 0.243319
      vertex 0.59962 2.5 0.243319
    endloop
  endfacet
  facet normal -0.156437 0 -0.987688
    outer loop
      vertex 0.401066 -2.5 0.274767
      vertex 0.59962 2.5 0.243319
      vertex 0.59962 -2.5 0.243319
    endloop
  endfacet
  facet normal -0.156437 0 -0.987688
    outer loop
      vertex 0.59962 2.5 0.243319
      vertex 0.401066 -2.5 0.274767
      vertex 0.401066 2.5 0.274767
    endloop
  endfacet
  facet normal -0.397143 0 -0.917757
    outer loop
      vertex 1.178 -2.5 0.075284
      vertex 1.36249 2.5 -0.00455284
      vertex 1.36249 -2.5 -0.00455284
    endloop
  endfacet
  facet normal -0.397143 0 -0.917757
    outer loop
      vertex 1.36249 2.5 -0.00455284
      vertex 1.178 -2.5 0.075284
      vertex 1.178 2.5 0.075284
    endloop
  endfacet
  facet normal -0.338737 0 -0.940881
    outer loop
      vertex 0.988853 -2.5 0.14338
      vertex 1.178 2.5 0.075284
      vertex 1.178 -2.5 0.075284
    endloop
  endfacet
  facet normal -0.338737 0 -0.940881
    outer loop
      vertex 1.178 2.5 0.075284
      vertex 0.988853 -2.5 0.14338
      vertex 0.988853 2.5 0.14338
    endloop
  endfacet
  facet normal -0.56208 0 -0.827083
    outer loop
      vertex 1.71465 -2.5 -0.198151
      vertex 1.88091 2.5 -0.311145
      vertex 1.88091 -2.5 -0.311145
    endloop
  endfacet
  facet normal -0.56208 0 -0.827083
    outer loop
      vertex 1.88091 2.5 -0.311145
      vertex 1.71465 -2.5 -0.198151
      vertex 1.71465 2.5 -0.198151
    endloop
  endfacet
  facet normal -0.75011 0 -0.661313
    outer loop
      vertex 2.46564 -2.5 -0.860243
      vertex 2.3327 2.5 -0.709449
      vertex 2.46564 2.5 -0.860243
    endloop
  endfacet
  facet normal -0.75011 -0 -0.661313
    outer loop
      vertex 2.3327 2.5 -0.709449
      vertex 2.46564 -2.5 -0.860243
      vertex 2.3327 -2.5 -0.709449
    endloop
  endfacet
  facet normal -0.707107 0 -0.707107
    outer loop
      vertex 2.3327 -2.5 -0.709449
      vertex 2.19055 2.5 -0.5673
      vertex 2.3327 2.5 -0.709449
    endloop
  endfacet
  facet normal -0.707107 -0 -0.707107
    outer loop
      vertex 2.19055 2.5 -0.5673
      vertex 2.3327 -2.5 -0.709449
      vertex 2.19055 -2.5 -0.5673
    endloop
  endfacet
  facet normal -0.917753 0 -0.397151
    outer loop
      vertex 2.97528 -2.5 -1.722
      vertex 2.89545 2.5 -1.53751
      vertex 2.97528 2.5 -1.722
    endloop
  endfacet
  facet normal -0.917753 -0 -0.397151
    outer loop
      vertex 2.89545 2.5 -1.53751
      vertex 2.97528 -2.5 -1.722
      vertex 2.89545 -2.5 -1.53751
    endloop
  endfacet
  facet normal -0.891008 0 -0.453988
    outer loop
      vertex 2.89545 -2.5 -1.53751
      vertex 2.80418 2.5 -1.35839
      vertex 2.89545 2.5 -1.53751
    endloop
  endfacet
  facet normal -0.891008 -0 -0.453988
    outer loop
      vertex 2.80418 2.5 -1.35839
      vertex 2.89545 -2.5 -1.53751
      vertex 2.80418 -2.5 -1.35839
    endloop
  endfacet
  facet normal -0.940881 0 -0.338738
    outer loop
      vertex 3.04338 -2.5 -1.91115
      vertex 2.97528 2.5 -1.722
      vertex 3.04338 2.5 -1.91115
    endloop
  endfacet
  facet normal -0.940881 -0 -0.338738
    outer loop
      vertex 2.97528 2.5 -1.722
      vertex 3.04338 -2.5 -1.91115
      vertex 2.97528 -2.5 -1.722
    endloop
  endfacet
  facet normal 0.156437 0 -0.987688
    outer loop
      vertex -0.59962 -2.5 0.243319
      vertex -0.401066 2.5 0.274767
      vertex -0.401066 -2.5 0.274767
    endloop
  endfacet
  facet normal 0.156437 0 -0.987688
    outer loop
      vertex -0.401066 2.5 0.274767
      vertex -0.59962 -2.5 0.243319
      vertex -0.59962 2.5 0.243319
    endloop
  endfacet
  facet normal 0.509042 0 -0.860741
    outer loop
      vertex -1.71465 -2.5 -0.198151
      vertex -1.54161 2.5 -0.0958185
      vertex -1.54161 -2.5 -0.0958185
    endloop
  endfacet
  facet normal 0.509042 0 -0.860741
    outer loop
      vertex -1.54161 2.5 -0.0958185
      vertex -1.71465 -2.5 -0.198151
      vertex -1.71465 2.5 -0.198151
    endloop
  endfacet
  facet normal 0.397143 0 -0.917757
    outer loop
      vertex -1.36249 -2.5 -0.00455284
      vertex -1.178 2.5 0.075284
      vertex -1.178 -2.5 0.075284
    endloop
  endfacet
  facet normal 0.397143 0 -0.917757
    outer loop
      vertex -1.178 2.5 0.075284
      vertex -1.36249 -2.5 -0.00455284
      vertex -1.36249 2.5 -0.00455284
    endloop
  endfacet
  facet normal 0.75011 0 -0.661313
    outer loop
      vertex -2.3327 -2.5 -0.709449
      vertex -2.46564 2.5 -0.860243
      vertex -2.3327 2.5 -0.709449
    endloop
  endfacet
  facet normal 0.75011 0 -0.661313
    outer loop
      vertex -2.46564 2.5 -0.860243
      vertex -2.3327 -2.5 -0.709449
      vertex -2.46564 -2.5 -0.860243
    endloop
  endfacet
  facet normal 0.612909 0 -0.790154
    outer loop
      vertex -2.03976 -2.5 -0.434357
      vertex -1.88091 2.5 -0.311145
      vertex -1.88091 -2.5 -0.311145
    endloop
  endfacet
  facet normal 0.612909 0 -0.790154
    outer loop
      vertex -1.88091 2.5 -0.311145
      vertex -2.03976 -2.5 -0.434357
      vertex -2.03976 2.5 -0.434357
    endloop
  endfacet
  facet normal -0.661313 0 -0.75011
    outer loop
      vertex 2.03976 -2.5 -0.434357
      vertex 2.19055 2.5 -0.5673
      vertex 2.19055 -2.5 -0.5673
    endloop
  endfacet
  facet normal -0.661313 0 -0.75011
    outer loop
      vertex 2.19055 2.5 -0.5673
      vertex 2.03976 -2.5 -0.434357
      vertex 2.03976 2.5 -0.434357
    endloop
  endfacet
  facet normal 0.827081 0 -0.562083
    outer loop
      vertex -2.58885 -2.5 -1.01909
      vertex -2.70185 2.5 -1.18535
      vertex -2.58885 2.5 -1.01909
    endloop
  endfacet
  facet normal 0.827081 0 -0.562083
    outer loop
      vertex -2.70185 2.5 -1.18535
      vertex -2.58885 -2.5 -1.01909
      vertex -2.70185 -2.5 -1.18535
    endloop
  endfacet
  facet normal 0.790155 0 -0.612907
    outer loop
      vertex -2.46564 -2.5 -0.860243
      vertex -2.58885 2.5 -1.01909
      vertex -2.46564 2.5 -0.860243
    endloop
  endfacet
  facet normal 0.790155 0 -0.612907
    outer loop
      vertex -2.58885 2.5 -1.01909
      vertex -2.46564 -2.5 -0.860243
      vertex -2.58885 -2.5 -1.01909
    endloop
  endfacet
endsolid OpenSCAD_Model
