solid OpenSCAD_Model
  facet normal -1 0 0
    outer loop
      vertex -5 -2.5 -2.5
      vertex -5 2.5 2.5
      vertex -5 2.5 -2.5
    endloop
  endfacet
  facet normal -1 -0 0
    outer loop
      vertex -5 2.5 2.5
      vertex -5 -2.5 -2.5
      vertex -5 -2.5 2.5
    endloop
  endfacet
  facet normal -0 0 1
    outer loop
      vertex -5 2.5 2.5
      vertex 5 -2.5 2.5
      vertex 5 2.5 2.5
    endloop
  endfacet
  facet normal 0 0 1
    outer loop
      vertex 5 -2.5 2.5
      vertex -5 2.5 2.5
      vertex -5 -2.5 2.5
    endloop
  endfacet
  facet normal 1 -0 0
    outer loop
      vertex 5 -2.5 2.5
      vertex 5 2.5 -2.5
      vertex 5 2.5 2.5
    endloop
  endfacet
  facet normal 1 0 0
    outer loop
      vertex 5 2.5 -2.5
      vertex 5 -2.5 2.5
      vertex 5 -2.5 -2.5
    endloop
  endfacet
  facet normal 0 1 0
    outer loop
      vertex 5 2.5 2.5
      vertex 0 2.5 0.599999
      vertex -5 2.5 2.5
    endloop
  endfacet
  facet normal 0 1 0
    outer loop
      vertex 5 2.5 2.5
      vertex 0.207209 2.5 0.593488
      vertex 0 2.5 0.599999
    endloop
  endfacet
  facet normal 0 1 0
    outer loop
      vertex 5 2.5 2.5
      vertex 0.413599 2.5 0.573978
      vertex 0.207209 2.5 0.593488
    endloop
  endfacet
  facet normal 0 1 0
    outer loop
      vertex 5 2.5 2.5
      vertex 0.618358 2.5 0.541548
      vertex 0.413599 2.5 0.573978
    endloop
  endfacet
  facet normal 0 1 0
    outer loop
      vertex 5 2.5 2.5
      vertex 0.820676 2.5 0.496324
      vertex 0.618358 2.5 0.541548
    endloop
  endfacet
  facet normal 0 1 0
    outer loop
      vertex 5 2.5 2.5
      vertex 1.01976 2.5 0.438486
      vertex 0.820676 2.5 0.496324
    endloop
  endfacet
  facet normal 0 1 0
    outer loop
      vertex 5 2.5 2.5
      vertex 1.21481 2.5 0.368262
      vertex 1.01976 2.5 0.438486
    endloop
  endfacet
  facet normal 0 1 0
    outer loop
      vertex 5 2.5 2.5
      vertex 1.40507 2.5 0.285929
      vertex 1.21481 2.5 0.368262
    endloop
  endfacet
  facet normal 0 1 0
    outer loop
      vertex 5 2.5 2.5
      vertex 1.58979 2.5 0.191812
      vertex 1.40507 2.5 0.285929
    endloop
  endfacet
  facet normal 0 1 0
    outer loop
      vertex 5 2.5 2.5
      vertex 1.76823 2.5 0.0862818
      vertex 1.58979 2.5 0.191812
    endloop
  endfacet
  facet normal 0 1 0
    outer loop
      vertex 5 2.5 2.5
      vertex 1.93969 2.5 -0.0302439
      vertex 1.76823 2.5 0.0862818
    endloop
  endfacet
  facet normal 0 1 0
    outer loop
      vertex 5 2.5 2.5
      vertex 2.1035 2.5 -0.157306
      vertex 1.93969 2.5 -0.0302439
    endloop
  endfacet
  facet normal 0 1 0
    outer loop
      vertex 5 2.5 2.5
      vertex 2.259 2.5 -0.294403
      vertex 2.1035 2.5 -0.157306
    endloop
  endfacet
  facet normal 0 1 0
    outer loop
      vertex 5 2.5 2.5
      vertex 2.4056 2.5 -0.440994
      vertex 2.259 2.5 -0.294403
    endloop
  endfacet
  facet normal 0 1 0
    outer loop
      vertex 5 2.5 2.5
      vertex 2.54269 2.5 -0.5965
      vertex 2.4056 2.5 -0.440994
    endloop
  endfacet
  facet normal 0 1 0
    outer loop
      vertex 5 2.5 2.5
      vertex 2.66976 2.5 -0.760308
      vertex 2.54269 2.5 -0.5965
    endloop
  endfacet
  facet normal 0 1 0
    outer loop
      vertex 5 2.5 2.5
      vertex 2.78628 2.5 -0.931771
      vertex 2.66976 2.5 -0.760308
    endloop
  endfacet
  facet normal 0 1 0
    outer loop
      vertex 5 2.5 2.5
      vertex 2.89181 2.5 -1.11021
      vertex 2.78628 2.5 -0.931771
    endloop
  endfacet
  facet normal 0 1 -0
    outer loop
      vertex 5 2.5 -2.5
      vertex 2.89181 2.5 -1.11021
      vertex 5 2.5 2.5
    endloop
  endfacet
  facet normal 0 1 0
    outer loop
      vertex 2.89181 2.5 -1.11021
      vertex 5 2.5 -2.5
      vertex 2.98593 2.5 -1.29493
    endloop
  endfacet
  facet normal 0 1 0
    outer loop
      vertex 2.98593 2.5 -1.29493
      vertex 5 2.5 -2.5
      vertex 3.06826 2.5 -1.48519
    endloop
  endfacet
  facet normal 0 1 0
    outer loop
      vertex 3.06826 2.5 -1.48519
      vertex 5 2.5 -2.5
      vertex 3.13849 2.5 -1.68024
    endloop
  endfacet
  facet normal 0 1 0
    outer loop
      vertex 3.13849 2.5 -1.68024
      vertex 5 2.5 -2.5
      vertex 3.19632 2.5 -1.87932
    endloop
  endfacet
  facet normal 0 1 0
    outer loop
      vertex 3.19632 2.5 -1.87932
      vertex 5 2.5 -2.5
      vertex 3.24155 2.5 -2.08164
    endloop
  endfacet
  facet normal 0 1 0
    outer loop
      vertex 3.24155 2.5 -2.08164
      vertex 5 2.5 -2.5
      vertex 3.27398 2.5 -2.2864
    endloop
  endfacet
  facet normal 0 1 0
    outer loop
      vertex 3.27398 2.5 -2.2864
      vertex 5 2.5 -2.5
      vertex 3.29349 2.5 -2.49279
    endloop
  endfacet
  facet normal 0 1 0
    outer loop
      vertex 3.29349 2.5 -2.49279
      vertex 5 2.5 -2.5
      vertex 3.29371 2.5 -2.5
    endloop
  endfacet
  facet normal 0 1 -0
    outer loop
      vertex -0.207209 2.5 0.593488
      vertex -5 2.5 2.5
      vertex 0 2.5 0.599999
    endloop
  endfacet
  facet normal 0 1 -0
    outer loop
      vertex -0.413599 2.5 0.573978
      vertex -5 2.5 2.5
      vertex -0.207209 2.5 0.593488
    endloop
  endfacet
  facet normal 0 1 -0
    outer loop
      vertex -0.618358 2.5 0.541548
      vertex -5 2.5 2.5
      vertex -0.413599 2.5 0.573978
    endloop
  endfacet
  facet normal 0 1 -0
    outer loop
      vertex -0.820676 2.5 0.496324
      vertex -5 2.5 2.5
      vertex -0.618358 2.5 0.541548
    endloop
  endfacet
  facet normal 0 1 -0
    outer loop
      vertex -1.01976 2.5 0.438486
      vertex -5 2.5 2.5
      vertex -0.820676 2.5 0.496324
    endloop
  endfacet
  facet normal 0 1 -0
    outer loop
      vertex -1.21481 2.5 0.368262
      vertex -5 2.5 2.5
      vertex -1.01976 2.5 0.438486
    endloop
  endfacet
  facet normal 0 1 -0
    outer loop
      vertex -1.40507 2.5 0.285929
      vertex -5 2.5 2.5
      vertex -1.21481 2.5 0.368262
    endloop
  endfacet
  facet normal 0 1 -0
    outer loop
      vertex -1.58979 2.5 0.191812
      vertex -5 2.5 2.5
      vertex -1.40507 2.5 0.285929
    endloop
  endfacet
  facet normal 0 1 -0
    outer loop
      vertex -1.76823 2.5 0.0862818
      vertex -5 2.5 2.5
      vertex -1.58979 2.5 0.191812
    endloop
  endfacet
  facet normal 0 1 -0
    outer loop
      vertex -1.93969 2.5 -0.0302439
      vertex -5 2.5 2.5
      vertex -1.76823 2.5 0.0862818
    endloop
  endfacet
  facet normal 0 1 -0
    outer loop
      vertex -2.1035 2.5 -0.157306
      vertex -5 2.5 2.5
      vertex -1.93969 2.5 -0.0302439
    endloop
  endfacet
  facet normal 0 1 -0
    outer loop
      vertex -2.259 2.5 -0.294403
      vertex -5 2.5 2.5
      vertex -2.1035 2.5 -0.157306
    endloop
  endfacet
  facet normal 0 1 -0
    outer loop
      vertex -2.4056 2.5 -0.440994
      vertex -5 2.5 2.5
      vertex -2.259 2.5 -0.294403
    endloop
  endfacet
  facet normal 0 1 -0
    outer loop
      vertex -2.54269 2.5 -0.5965
      vertex -5 2.5 2.5
      vertex -2.4056 2.5 -0.440994
    endloop
  endfacet
  facet normal 0 1 -0
    outer loop
      vertex -2.66976 2.5 -0.760308
      vertex -5 2.5 2.5
      vertex -2.54269 2.5 -0.5965
    endloop
  endfacet
  facet normal 0 1 -0
    outer loop
      vertex -2.78628 2.5 -0.931771
      vertex -5 2.5 2.5
      vertex -2.66976 2.5 -0.760308
    endloop
  endfacet
  facet normal 0 1 -0
    outer loop
      vertex -2.89181 2.5 -1.11021
      vertex -5 2.5 2.5
      vertex -2.78628 2.5 -0.931771
    endloop
  endfacet
  facet normal 0 1 0
    outer loop
      vertex -5 2.5 -2.5
      vertex -2.89181 2.5 -1.11021
      vertex -2.98593 2.5 -1.29493
    endloop
  endfacet
  facet normal 0 1 0
    outer loop
      vertex -5 2.5 -2.5
      vertex -2.98593 2.5 -1.29493
      vertex -3.06826 2.5 -1.48519
    endloop
  endfacet
  facet normal 0 1 0
    outer loop
      vertex -5 2.5 -2.5
      vertex -3.06826 2.5 -1.48519
      vertex -3.13849 2.5 -1.68024
    endloop
  endfacet
  facet normal 0 1 0
    outer loop
      vertex -5 2.5 -2.5
      vertex -3.13849 2.5 -1.68024
      vertex -3.19632 2.5 -1.87932
    endloop
  endfacet
  facet normal 0 1 0
    outer loop
      vertex -5 2.5 -2.5
      vertex -3.19632 2.5 -1.87932
      vertex -3.24155 2.5 -2.08164
    endloop
  endfacet
  facet normal 0 1 0
    outer loop
      vertex -5 2.5 -2.5
      vertex -3.24155 2.5 -2.08164
      vertex -3.27398 2.5 -2.2864
    endloop
  endfacet
  facet normal 0 1 0
    outer loop
      vertex -5 2.5 -2.5
      vertex -3.27398 2.5 -2.2864
      vertex -3.29349 2.5 -2.49279
    endloop
  endfacet
  facet normal 0 1 0
    outer loop
      vertex -5 2.5 -2.5
      vertex -3.29349 2.5 -2.49279
      vertex -3.29371 2.5 -2.5
    endloop
  endfacet
  facet normal 0 1 0
    outer loop
      vertex -2.89181 2.5 -1.11021
      vertex -5 2.5 -2.5
      vertex -5 2.5 2.5
    endloop
  endfacet
  facet normal 0 0 -1
    outer loop
      vertex -5 -2.5 -2.5
      vertex -3.29371 2.5 -2.5
      vertex -3.29371 -2.5 -2.5
    endloop
  endfacet
  facet normal -0 0 -1
    outer loop
      vertex -3.29371 2.5 -2.5
      vertex -5 -2.5 -2.5
      vertex -5 2.5 -2.5
    endloop
  endfacet
  facet normal 0 0 -1
    outer loop
      vertex 3.29371 -2.5 -2.5
      vertex 5 2.5 -2.5
      vertex 5 -2.5 -2.5
    endloop
  endfacet
  facet normal -0 0 -1
    outer loop
      vertex 5 2.5 -2.5
      vertex 3.29371 -2.5 -2.5
      vertex 3.29371 2.5 -2.5
    endloop
  endfacet
  facet normal 0 -1 0
    outer loop
      vertex -5 -2.5 2.5
      vertex 0 -2.5 0.599999
      vertex 5 -2.5 2.5
    endloop
  endfacet
  facet normal 0 -1 0
    outer loop
      vertex -5 -2.5 2.5
      vertex -0.207209 -2.5 0.593488
      vertex 0 -2.5 0.599999
    endloop
  endfacet
  facet normal 0 -1 0
    outer loop
      vertex -5 -2.5 2.5
      vertex -0.413599 -2.5 0.573978
      vertex -0.207209 -2.5 0.593488
    endloop
  endfacet
  facet normal 0 -1 0
    outer loop
      vertex -5 -2.5 2.5
      vertex -0.618358 -2.5 0.541548
      vertex -0.413599 -2.5 0.573978
    endloop
  endfacet
  facet normal 0 -1 0
    outer loop
      vertex -5 -2.5 2.5
      vertex -0.820676 -2.5 0.496324
      vertex -0.618358 -2.5 0.541548
    endloop
  endfacet
  facet normal 0 -1 0
    outer loop
      vertex -5 -2.5 2.5
      vertex -1.01976 -2.5 0.438486
      vertex -0.820676 -2.5 0.496324
    endloop
  endfacet
  facet normal 0 -1 0
    outer loop
      vertex -5 -2.5 2.5
      vertex -1.21481 -2.5 0.368262
      vertex -1.01976 -2.5 0.438486
    endloop
  endfacet
  facet normal 0 -1 0
    outer loop
      vertex -5 -2.5 2.5
      vertex -1.40507 -2.5 0.285929
      vertex -1.21481 -2.5 0.368262
    endloop
  endfacet
  facet normal 0 -1 0
    outer loop
      vertex -5 -2.5 2.5
      vertex -1.58979 -2.5 0.191812
      vertex -1.40507 -2.5 0.285929
    endloop
  endfacet
  facet normal 0 -1 0
    outer loop
      vertex -5 -2.5 2.5
      vertex -1.76823 -2.5 0.0862818
      vertex -1.58979 -2.5 0.191812
    endloop
  endfacet
  facet normal 0 -1 0
    outer loop
      vertex -5 -2.5 2.5
      vertex -1.93969 -2.5 -0.0302439
      vertex -1.76823 -2.5 0.0862818
    endloop
  endfacet
  facet normal 0 -1 0
    outer loop
      vertex -5 -2.5 2.5
      vertex -2.1035 -2.5 -0.157306
      vertex -1.93969 -2.5 -0.0302439
    endloop
  endfacet
  facet normal 0 -1 0
    outer loop
      vertex -5 -2.5 2.5
      vertex -2.259 -2.5 -0.294403
      vertex -2.1035 -2.5 -0.157306
    endloop
  endfacet
  facet normal 0 -1 0
    outer loop
      vertex -5 -2.5 2.5
      vertex -2.4056 -2.5 -0.440994
      vertex -2.259 -2.5 -0.294403
    endloop
  endfacet
  facet normal 0 -1 0
    outer loop
      vertex -5 -2.5 2.5
      vertex -2.54269 -2.5 -0.5965
      vertex -2.4056 -2.5 -0.440994
    endloop
  endfacet
  facet normal 0 -1 0
    outer loop
      vertex -5 -2.5 2.5
      vertex -2.66976 -2.5 -0.760308
      vertex -2.54269 -2.5 -0.5965
    endloop
  endfacet
  facet normal 0 -1 0
    outer loop
      vertex -5 -2.5 2.5
      vertex -2.78628 -2.5 -0.931771
      vertex -2.66976 -2.5 -0.760308
    endloop
  endfacet
  facet normal 0 -1 0
    outer loop
      vertex -5 -2.5 2.5
      vertex -2.89181 -2.5 -1.11021
      vertex -2.78628 -2.5 -0.931771
    endloop
  endfacet
  facet normal 0 -1 0
    outer loop
      vertex -5 -2.5 -2.5
      vertex -2.89181 -2.5 -1.11021
      vertex -5 -2.5 2.5
    endloop
  endfacet
  facet normal 0 -1 0
    outer loop
      vertex -2.89181 -2.5 -1.11021
      vertex -5 -2.5 -2.5
      vertex -2.98593 -2.5 -1.29493
    endloop
  endfacet
  facet normal 0 -1 0
    outer loop
      vertex -2.98593 -2.5 -1.29493
      vertex -5 -2.5 -2.5
      vertex -3.06826 -2.5 -1.48519
    endloop
  endfacet
  facet normal 0 -1 0
    outer loop
      vertex -3.06826 -2.5 -1.48519
      vertex -5 -2.5 -2.5
      vertex -3.13849 -2.5 -1.68024
    endloop
  endfacet
  facet normal 0 -1 0
    outer loop
      vertex -3.13849 -2.5 -1.68024
      vertex -5 -2.5 -2.5
      vertex -3.19632 -2.5 -1.87932
    endloop
  endfacet
  facet normal 0 -1 0
    outer loop
      vertex -3.19632 -2.5 -1.87932
      vertex -5 -2.5 -2.5
      vertex -3.24155 -2.5 -2.08164
    endloop
  endfacet
  facet normal 0 -1 0
    outer loop
      vertex -3.24155 -2.5 -2.08164
      vertex -5 -2.5 -2.5
      vertex -3.27398 -2.5 -2.2864
    endloop
  endfacet
  facet normal 0 -1 0
    outer loop
      vertex -3.27398 -2.5 -2.2864
      vertex -5 -2.5 -2.5
      vertex -3.29349 -2.5 -2.49279
    endloop
  endfacet
  facet normal 0 -1 0
    outer loop
      vertex -3.29349 -2.5 -2.49279
      vertex -5 -2.5 -2.5
      vertex -3.29371 -2.5 -2.5
    endloop
  endfacet
  facet normal 0 -1 0
    outer loop
      vertex 0.207209 -2.5 0.593488
      vertex 5 -2.5 2.5
      vertex 0 -2.5 0.599999
    endloop
  endfacet
  facet normal 0 -1 0
    outer loop
      vertex 0.413599 -2.5 0.573978
      vertex 5 -2.5 2.5
      vertex 0.207209 -2.5 0.593488
    endloop
  endfacet
  facet normal 0 -1 0
    outer loop
      vertex 0.618358 -2.5 0.541548
      vertex 5 -2.5 2.5
      vertex 0.413599 -2.5 0.573978
    endloop
  endfacet
  facet normal 0 -1 0
    outer loop
      vertex 0.820676 -2.5 0.496324
      vertex 5 -2.5 2.5
      vertex 0.618358 -2.5 0.541548
    endloop
  endfacet
  facet normal 0 -1 0
    outer loop
      vertex 1.01976 -2.5 0.438486
      vertex 5 -2.5 2.5
      vertex 0.820676 -2.5 0.496324
    endloop
  endfacet
  facet normal 0 -1 0
    outer loop
      vertex 1.21481 -2.5 0.368262
      vertex 5 -2.5 2.5
      vertex 1.01976 -2.5 0.438486
    endloop
  endfacet
  facet normal 0 -1 0
    outer loop
      vertex 1.40507 -2.5 0.285929
      vertex 5 -2.5 2.5
      vertex 1.21481 -2.5 0.368262
    endloop
  endfacet
  facet normal 0 -1 0
    outer loop
      vertex 1.58979 -2.5 0.191812
      vertex 5 -2.5 2.5
      vertex 1.40507 -2.5 0.285929
    endloop
  endfacet
  facet normal 0 -1 0
    outer loop
      vertex 1.76823 -2.5 0.0862818
      vertex 5 -2.5 2.5
      vertex 1.58979 -2.5 0.191812
    endloop
  endfacet
  facet normal 0 -1 0
    outer loop
      vertex 1.93969 -2.5 -0.0302439
      vertex 5 -2.5 2.5
      vertex 1.76823 -2.5 0.0862818
    endloop
  endfacet
  facet normal 0 -1 0
    outer loop
      vertex 2.1035 -2.5 -0.157306
      vertex 5 -2.5 2.5
      vertex 1.93969 -2.5 -0.0302439
    endloop
  endfacet
  facet normal 0 -1 0
    outer loop
      vertex 2.259 -2.5 -0.294403
      vertex 5 -2.5 2.5
      vertex 2.1035 -2.5 -0.157306
    endloop
  endfacet
  facet normal 0 -1 0
    outer loop
      vertex 2.4056 -2.5 -0.440994
      vertex 5 -2.5 2.5
      vertex 2.259 -2.5 -0.294403
    endloop
  endfacet
  facet normal 0 -1 0
    outer loop
      vertex 2.54269 -2.5 -0.5965
      vertex 5 -2.5 2.5
      vertex 2.4056 -2.5 -0.440994
    endloop
  endfacet
  facet normal 0 -1 0
    outer loop
      vertex 2.66976 -2.5 -0.760308
      vertex 5 -2.5 2.5
      vertex 2.54269 -2.5 -0.5965
    endloop
  endfacet
  facet normal 0 -1 0
    outer loop
      vertex 2.78628 -2.5 -0.931771
      vertex 5 -2.5 2.5
      vertex 2.66976 -2.5 -0.760308
    endloop
  endfacet
  facet normal 0 -1 0
    outer loop
      vertex 2.89181 -2.5 -1.11021
      vertex 5 -2.5 2.5
      vertex 2.78628 -2.5 -0.931771
    endloop
  endfacet
  facet normal 0 -1 0
    outer loop
      vertex 5 -2.5 -2.5
      vertex 2.89181 -2.5 -1.11021
      vertex 2.98593 -2.5 -1.29493
    endloop
  endfacet
  facet normal 0 -1 0
    outer loop
      vertex 5 -2.5 -2.5
      vertex 2.98593 -2.5 -1.29493
      vertex 3.06826 -2.5 -1.48519
    endloop
  endfacet
  facet normal 0 -1 0
    outer loop
      vertex 5 -2.5 -2.5
      vertex 3.06826 -2.5 -1.48519
      vertex 3.13849 -2.5 -1.68024
    endloop
  endfacet
  facet normal 0 -1 0
    outer loop
      vertex 5 -2.5 -2.5
      vertex 3.13849 -2.5 -1.68024
      vertex 3.19632 -2.5 -1.87932
    endloop
  endfacet
  facet normal 0 -1 0
    outer loop
      vertex 5 -2.5 -2.5
      vertex 3.19632 -2.5 -1.87932
      vertex 3.24155 -2.5 -2.08164
    endloop
  endfacet
  facet normal 0 -1 0
    outer loop
      vertex 5 -2.5 -2.5
      vertex 3.24155 -2.5 -2.08164
      vertex 3.27398 -2.5 -2.2864
    endloop
  endfacet
  facet normal 0 -1 0
    outer loop
      vertex 5 -2.5 -2.5
      vertex 3.27398 -2.5 -2.2864
      vertex 3.29349 -2.5 -2.49279
    endloop
  endfacet
  facet normal 0 -1 0
    outer loop
      vertex 5 -2.5 -2.5
      vertex 3.29349 -2.5 -2.49279
      vertex 3.29371 -2.5 -2.5
    endloop
  endfacet
  facet normal 0 -1 0
    outer loop
      vertex 2.89181 -2.5 -1.11021
      vertex 5 -2.5 -2.5
      vertex 5 -2.5 2.5
    endloop
  endfacet
  facet normal -0.999507 0 -0.031404
    outer loop
      vertex 3.29371 -2.5 -2.5
      vertex 3.29349 2.5 -2.49279
      vertex 3.29371 2.5 -2.5
    endloop
  endfacet
  facet normal -0.999507 -0 -0.031404
    outer loop
      vertex 3.29349 2.5 -2.49279
      vertex 3.29371 -2.5 -2.5
      vertex 3.29349 -2.5 -2.49279
    endloop
  endfacet
  facet normal 0.999507 0 -0.031404
    outer loop
      vertex -3.29349 -2.5 -2.49279
      vertex -3.29371 2.5 -2.5
      vertex -3.29349 2.5 -2.49279
    endloop
  endfacet
  facet normal 0.999507 0 -0.031404
    outer loop
      vertex -3.29371 2.5 -2.5
      vertex -3.29349 -2.5 -2.49279
      vertex -3.29371 -2.5 -2.5
    endloop
  endfacet
  facet normal -0.995562 0 -0.0941064
    outer loop
      vertex 3.29349 -2.5 -2.49279
      vertex 3.27398 2.5 -2.2864
      vertex 3.29349 2.5 -2.49279
    endloop
  endfacet
  facet normal -0.995562 -0 -0.0941064
    outer loop
      vertex 3.27398 2.5 -2.2864
      vertex 3.29349 -2.5 -2.49279
      vertex 3.27398 -2.5 -2.2864
    endloop
  endfacet
  facet normal -0.975917 0 -0.218142
    outer loop
      vertex 3.24155 -2.5 -2.08164
      vertex 3.19632 2.5 -1.87932
      vertex 3.24155 2.5 -2.08164
    endloop
  endfacet
  facet normal -0.975917 -0 -0.218142
    outer loop
      vertex 3.19632 2.5 -1.87932
      vertex 3.24155 -2.5 -2.08164
      vertex 3.19632 -2.5 -1.87932
    endloop
  endfacet
  facet normal 0.0314103 0 -0.999507
    outer loop
      vertex -0.207209 -2.5 0.593488
      vertex 0 2.5 0.599999
      vertex 0 -2.5 0.599999
    endloop
  endfacet
  facet normal 0.0314103 0 -0.999507
    outer loop
      vertex 0 2.5 0.599999
      vertex -0.207209 -2.5 0.593488
      vertex -0.207209 2.5 0.593488
    endloop
  endfacet
  facet normal 0.987688 0 -0.156435
    outer loop
      vertex -3.24155 -2.5 -2.08164
      vertex -3.27398 2.5 -2.2864
      vertex -3.24155 2.5 -2.08164
    endloop
  endfacet
  facet normal 0.987688 0 -0.156435
    outer loop
      vertex -3.27398 2.5 -2.2864
      vertex -3.24155 -2.5 -2.08164
      vertex -3.27398 -2.5 -2.2864
    endloop
  endfacet
  facet normal -0.612905 0 -0.790156
    outer loop
      vertex 1.93969 -2.5 -0.0302439
      vertex 2.1035 2.5 -0.157306
      vertex 2.1035 -2.5 -0.157306
    endloop
  endfacet
  facet normal -0.612905 0 -0.790156
    outer loop
      vertex 2.1035 2.5 -0.157306
      vertex 1.93969 -2.5 -0.0302439
      vertex 1.93969 2.5 -0.0302439
    endloop
  endfacet
  facet normal 0.995562 0 -0.0941064
    outer loop
      vertex -3.27398 -2.5 -2.2864
      vertex -3.29349 2.5 -2.49279
      vertex -3.27398 2.5 -2.2864
    endloop
  endfacet
  facet normal 0.995562 0 -0.0941064
    outer loop
      vertex -3.29349 2.5 -2.49279
      vertex -3.27398 -2.5 -2.2864
      vertex -3.29349 -2.5 -2.49279
    endloop
  endfacet
  facet normal 0.397149 0 -0.917754
    outer loop
      vertex -1.40507 -2.5 0.285929
      vertex -1.21481 2.5 0.368262
      vertex -1.21481 -2.5 0.368262
    endloop
  endfacet
  facet normal 0.397149 0 -0.917754
    outer loop
      vertex -1.21481 2.5 0.368262
      vertex -1.40507 -2.5 0.285929
      vertex -1.40507 2.5 0.285929
    endloop
  endfacet
  facet normal 0.960293 0 -0.278993
    outer loop
      vertex -3.13849 -2.5 -1.68024
      vertex -3.19632 2.5 -1.87932
      vertex -3.13849 2.5 -1.68024
    endloop
  endfacet
  facet normal 0.960293 0 -0.278993
    outer loop
      vertex -3.19632 2.5 -1.87932
      vertex -3.13849 -2.5 -1.68024
      vertex -3.19632 -2.5 -1.87932
    endloop
  endfacet
  facet normal -0.156435 0 -0.987688
    outer loop
      vertex 0.413599 -2.5 0.573978
      vertex 0.618358 2.5 0.541548
      vertex 0.618358 -2.5 0.541548
    endloop
  endfacet
  facet normal -0.156435 0 -0.987688
    outer loop
      vertex 0.618358 2.5 0.541548
      vertex 0.413599 -2.5 0.573978
      vertex 0.413599 2.5 0.573978
    endloop
  endfacet
  facet normal -0.453991 0 -0.891006
    outer loop
      vertex 1.40507 -2.5 0.285929
      vertex 1.58979 2.5 0.191812
      vertex 1.58979 -2.5 0.191812
    endloop
  endfacet
  facet normal -0.453991 0 -0.891006
    outer loop
      vertex 1.58979 2.5 0.191812
      vertex 1.40507 -2.5 0.285929
      vertex 1.40507 2.5 0.285929
    endloop
  endfacet
  facet normal -0.917754 0 -0.397149
    outer loop
      vertex 3.06826 -2.5 -1.48519
      vertex 2.98593 2.5 -1.29493
      vertex 3.06826 2.5 -1.48519
    endloop
  endfacet
  facet normal -0.917754 -0 -0.397149
    outer loop
      vertex 2.98593 2.5 -1.29493
      vertex 3.06826 -2.5 -1.48519
      vertex 2.98593 -2.5 -1.29493
    endloop
  endfacet
  facet normal 0.612905 0 -0.790156
    outer loop
      vertex -2.1035 -2.5 -0.157306
      vertex -1.93969 2.5 -0.0302439
      vertex -1.93969 -2.5 -0.0302439
    endloop
  endfacet
  facet normal 0.612905 0 -0.790156
    outer loop
      vertex -1.93969 2.5 -0.0302439
      vertex -2.1035 -2.5 -0.157306
      vertex -2.1035 2.5 -0.157306
    endloop
  endfacet
  facet normal 0.218147 0 -0.975916
    outer loop
      vertex -0.820676 -2.5 0.496324
      vertex -0.618358 2.5 0.541548
      vertex -0.618358 -2.5 0.541548
    endloop
  endfacet
  facet normal 0.218147 0 -0.975916
    outer loop
      vertex -0.618358 2.5 0.541548
      vertex -0.820676 -2.5 0.496324
      vertex -0.820676 2.5 0.496324
    endloop
  endfacet
  facet normal 0.975917 0 -0.218142
    outer loop
      vertex -3.19632 -2.5 -1.87932
      vertex -3.24155 2.5 -2.08164
      vertex -3.19632 2.5 -1.87932
    endloop
  endfacet
  facet normal 0.975917 0 -0.218142
    outer loop
      vertex -3.24155 2.5 -2.08164
      vertex -3.19632 -2.5 -1.87932
      vertex -3.24155 -2.5 -2.08164
    endloop
  endfacet
  facet normal 0.156435 0 -0.987688
    outer loop
      vertex -0.618358 -2.5 0.541548
      vertex -0.413599 2.5 0.573978
      vertex -0.413599 -2.5 0.573978
    endloop
  endfacet
  facet normal 0.156435 0 -0.987688
    outer loop
      vertex -0.413599 2.5 0.573978
      vertex -0.618358 -2.5 0.541548
      vertex -0.618358 2.5 0.541548
    endloop
  endfacet
  facet normal 0.0941068 0 -0.995562
    outer loop
      vertex -0.413599 -2.5 0.573978
      vertex -0.207209 2.5 0.593488
      vertex -0.207209 -2.5 0.593488
    endloop
  endfacet
  facet normal 0.0941068 0 -0.995562
    outer loop
      vertex -0.207209 2.5 0.593488
      vertex -0.413599 -2.5 0.573978
      vertex -0.413599 2.5 0.573978
    endloop
  endfacet
  facet normal -0.0314103 0 -0.999507
    outer loop
      vertex 0 -2.5 0.599999
      vertex 0.207209 2.5 0.593488
      vertex 0.207209 -2.5 0.593488
    endloop
  endfacet
  facet normal -0.0314103 0 -0.999507
    outer loop
      vertex 0.207209 2.5 0.593488
      vertex 0 -2.5 0.599999
      vertex 0 2.5 0.599999
    endloop
  endfacet
  facet normal -0.218147 0 -0.975916
    outer loop
      vertex 0.618358 -2.5 0.541548
      vertex 0.820676 2.5 0.496324
      vertex 0.820676 -2.5 0.496324
    endloop
  endfacet
  facet normal -0.218147 0 -0.975916
    outer loop
      vertex 0.820676 2.5 0.496324
      vertex 0.618358 -2.5 0.541548
      vertex 0.618358 2.5 0.541548
    endloop
  endfacet
  facet normal -0.562082 0 -0.827082
    outer loop
      vertex 1.76823 -2.5 0.0862818
      vertex 1.93969 2.5 -0.0302439
      vertex 1.93969 -2.5 -0.0302439
    endloop
  endfacet
  facet normal -0.562082 0 -0.827082
    outer loop
      vertex 1.93969 2.5 -0.0302439
      vertex 1.76823 -2.5 0.0862818
      vertex 1.76823 2.5 0.0862818
    endloop
  endfacet
  facet normal -0.338737 0 -0.940881
    outer loop
      vertex 1.01976 -2.5 0.438486
      vertex 1.21481 2.5 0.368262
      vertex 1.21481 -2.5 0.368262
    endloop
  endfacet
  facet normal -0.338737 0 -0.940881
    outer loop
      vertex 1.21481 2.5 0.368262
      vertex 1.01976 -2.5 0.438486
      vertex 1.01976 2.5 0.438486
    endloop
  endfacet
  facet normal -0.509042 0 -0.860742
    outer loop
      vertex 1.58979 -2.5 0.191812
      vertex 1.76823 2.5 0.0862818
      vertex 1.76823 -2.5 0.0862818
    endloop
  endfacet
  facet normal -0.509042 0 -0.860742
    outer loop
      vertex 1.76823 2.5 0.0862818
      vertex 1.58979 -2.5 0.191812
      vertex 1.58979 2.5 0.191812
    endloop
  endfacet
  facet normal -0.987688 0 -0.156435
    outer loop
      vertex 3.27398 -2.5 -2.2864
      vertex 3.24155 2.5 -2.08164
      vertex 3.27398 2.5 -2.2864
    endloop
  endfacet
  facet normal -0.987688 -0 -0.156435
    outer loop
      vertex 3.24155 2.5 -2.08164
      vertex 3.27398 -2.5 -2.2864
      vertex 3.24155 -2.5 -2.08164
    endloop
  endfacet
  facet normal -0.827082 0 -0.562082
    outer loop
      vertex 2.78628 -2.5 -0.931771
      vertex 2.66976 2.5 -0.760308
      vertex 2.78628 2.5 -0.931771
    endloop
  endfacet
  facet normal -0.827082 -0 -0.562082
    outer loop
      vertex 2.66976 2.5 -0.760308
      vertex 2.78628 -2.5 -0.931771
      vertex 2.66976 -2.5 -0.760308
    endloop
  endfacet
  facet normal -0.940881 0 -0.338737
    outer loop
      vertex 3.13849 -2.5 -1.68024
      vertex 3.06826 2.5 -1.48519
      vertex 3.13849 2.5 -1.68024
    endloop
  endfacet
  facet normal -0.940881 -0 -0.338737
    outer loop
      vertex 3.06826 2.5 -1.48519
      vertex 3.13849 -2.5 -1.68024
      vertex 3.06826 -2.5 -1.48519
    endloop
  endfacet
  facet normal 0.453991 0 -0.891006
    outer loop
      vertex -1.58979 -2.5 0.191812
      vertex -1.40507 2.5 0.285929
      vertex -1.40507 -2.5 0.285929
    endloop
  endfacet
  facet normal 0.453991 0 -0.891006
    outer loop
      vertex -1.40507 2.5 0.285929
      vertex -1.58979 -2.5 0.191812
      vertex -1.58979 2.5 0.191812
    endloop
  endfacet
  facet normal 0.707107 0 -0.707107
    outer loop
      vertex -2.259 -2.5 -0.294403
      vertex -2.4056 2.5 -0.440994
      vertex -2.259 2.5 -0.294403
    endloop
  endfacet
  facet normal 0.707107 0 -0.707107
    outer loop
      vertex -2.4056 2.5 -0.440994
      vertex -2.259 -2.5 -0.294403
      vertex -2.4056 -2.5 -0.440994
    endloop
  endfacet
  facet normal 0.338737 0 -0.940881
    outer loop
      vertex -1.21481 -2.5 0.368262
      vertex -1.01976 2.5 0.438486
      vertex -1.01976 -2.5 0.438486
    endloop
  endfacet
  facet normal 0.338737 0 -0.940881
    outer loop
      vertex -1.01976 2.5 0.438486
      vertex -1.21481 -2.5 0.368262
      vertex -1.21481 2.5 0.368262
    endloop
  endfacet
  facet normal 0.790154 0 -0.612908
    outer loop
      vertex -2.54269 -2.5 -0.5965
      vertex -2.66976 2.5 -0.760308
      vertex -2.54269 2.5 -0.5965
    endloop
  endfacet
  facet normal 0.790154 0 -0.612908
    outer loop
      vertex -2.66976 2.5 -0.760308
      vertex -2.54269 -2.5 -0.5965
      vertex -2.66976 -2.5 -0.760308
    endloop
  endfacet
  facet normal 0.75011 0 -0.661313
    outer loop
      vertex -2.4056 -2.5 -0.440994
      vertex -2.54269 2.5 -0.5965
      vertex -2.4056 2.5 -0.440994
    endloop
  endfacet
  facet normal 0.75011 0 -0.661313
    outer loop
      vertex -2.54269 2.5 -0.5965
      vertex -2.4056 -2.5 -0.440994
      vertex -2.54269 -2.5 -0.5965
    endloop
  endfacet
  facet normal 0.917754 0 -0.397149
    outer loop
      vertex -2.98593 -2.5 -1.29493
      vertex -3.06826 2.5 -1.48519
      vertex -2.98593 2.5 -1.29493
    endloop
  endfacet
  facet normal 0.917754 0 -0.397149
    outer loop
      vertex -3.06826 2.5 -1.48519
      vertex -2.98593 -2.5 -1.29493
      vertex -3.06826 -2.5 -1.48519
    endloop
  endfacet
  facet normal -0.0941068 0 -0.995562
    outer loop
      vertex 0.207209 -2.5 0.593488
      vertex 0.413599 2.5 0.573978
      vertex 0.413599 -2.5 0.573978
    endloop
  endfacet
  facet normal -0.0941068 0 -0.995562
    outer loop
      vertex 0.413599 2.5 0.573978
      vertex 0.207209 -2.5 0.593488
      vertex 0.207209 2.5 0.593488
    endloop
  endfacet
  facet normal -0.278989 0 -0.960294
    outer loop
      vertex 0.820676 -2.5 0.496324
      vertex 1.01976 2.5 0.438486
      vertex 1.01976 -2.5 0.438486
    endloop
  endfacet
  facet normal -0.278989 0 -0.960294
    outer loop
      vertex 1.01976 2.5 0.438486
      vertex 0.820676 -2.5 0.496324
      vertex 0.820676 2.5 0.496324
    endloop
  endfacet
  facet normal -0.397149 0 -0.917754
    outer loop
      vertex 1.21481 -2.5 0.368262
      vertex 1.40507 2.5 0.285929
      vertex 1.40507 -2.5 0.285929
    endloop
  endfacet
  facet normal -0.397149 0 -0.917754
    outer loop
      vertex 1.40507 2.5 0.285929
      vertex 1.21481 -2.5 0.368262
      vertex 1.21481 2.5 0.368262
    endloop
  endfacet
  facet normal -0.891006 0 -0.453991
    outer loop
      vertex 2.98593 -2.5 -1.29493
      vertex 2.89181 2.5 -1.11021
      vertex 2.98593 2.5 -1.29493
    endloop
  endfacet
  facet normal -0.891006 -0 -0.453991
    outer loop
      vertex 2.89181 2.5 -1.11021
      vertex 2.98593 -2.5 -1.29493
      vertex 2.89181 -2.5 -1.11021
    endloop
  endfacet
  facet normal -0.960293 0 -0.278993
    outer loop
      vertex 3.19632 -2.5 -1.87932
      vertex 3.13849 2.5 -1.68024
      vertex 3.19632 2.5 -1.87932
    endloop
  endfacet
  facet normal -0.960293 -0 -0.278993
    outer loop
      vertex 3.13849 2.5 -1.68024
      vertex 3.19632 -2.5 -1.87932
      vertex 3.13849 -2.5 -1.68024
    endloop
  endfacet
  facet normal -0.790154 0 -0.612908
    outer loop
      vertex 2.66976 -2.5 -0.760308
      vertex 2.54269 2.5 -0.5965
      vertex 2.66976 2.5 -0.760308
    endloop
  endfacet
  facet normal -0.790154 -0 -0.612908
    outer loop
      vertex 2.54269 2.5 -0.5965
      vertex 2.66976 -2.5 -0.760308
      vertex 2.54269 -2.5 -0.5965
    endloop
  endfacet
  facet normal -0.707107 0 -0.707107
    outer loop
      vertex 2.4056 -2.5 -0.440994
      vertex 2.259 2.5 -0.294403
      vertex 2.4056 2.5 -0.440994
    endloop
  endfacet
  facet normal -0.707107 -0 -0.707107
    outer loop
      vertex 2.259 2.5 -0.294403
      vertex 2.4056 -2.5 -0.440994
      vertex 2.259 -2.5 -0.294403
    endloop
  endfacet
  facet normal -0.661313 0 -0.75011
    outer loop
      vertex 2.1035 -2.5 -0.157306
      vertex 2.259 2.5 -0.294403
      vertex 2.259 -2.5 -0.294403
    endloop
  endfacet
  facet normal -0.661313 0 -0.75011
    outer loop
      vertex 2.259 2.5 -0.294403
      vertex 2.1035 -2.5 -0.157306
      vertex 2.1035 2.5 -0.157306
    endloop
  endfacet
  facet normal 0.562082 0 -0.827082
    outer loop
      vertex -1.93969 -2.5 -0.0302439
      vertex -1.76823 2.5 0.0862818
      vertex -1.76823 -2.5 0.0862818
    endloop
  endfacet
  facet normal 0.562082 0 -0.827082
    outer loop
      vertex -1.76823 2.5 0.0862818
      vertex -1.93969 -2.5 -0.0302439
      vertex -1.93969 2.5 -0.0302439
    endloop
  endfacet
  facet normal 0.661313 0 -0.75011
    outer loop
      vertex -2.259 -2.5 -0.294403
      vertex -2.1035 2.5 -0.157306
      vertex -2.1035 -2.5 -0.157306
    endloop
  endfacet
  facet normal 0.661313 0 -0.75011
    outer loop
      vertex -2.1035 2.5 -0.157306
      vertex -2.259 -2.5 -0.294403
      vertex -2.259 2.5 -0.294403
    endloop
  endfacet
  facet normal 0.860742 0 -0.509042
    outer loop
      vertex -2.78628 -2.5 -0.931771
      vertex -2.89181 2.5 -1.11021
      vertex -2.78628 2.5 -0.931771
    endloop
  endfacet
  facet normal 0.860742 0 -0.509042
    outer loop
      vertex -2.89181 2.5 -1.11021
      vertex -2.78628 -2.5 -0.931771
      vertex -2.89181 -2.5 -1.11021
    endloop
  endfacet
  facet normal 0.891006 0 -0.453991
    outer loop
      vertex -2.89181 -2.5 -1.11021
      vertex -2.98593 2.5 -1.29493
      vertex -2.89181 2.5 -1.11021
    endloop
  endfacet
  facet normal 0.891006 0 -0.453991
    outer loop
      vertex -2.98593 2.5 -1.29493
      vertex -2.89181 -2.5 -1.11021
      vertex -2.98593 -2.5 -1.29493
    endloop
  endfacet
  facet normal 0.827082 0 -0.562082
    outer loop
      vertex -2.66976 -2.5 -0.760308
      vertex -2.78628 2.5 -0.931771
      vertex -2.66976 2.5 -0.760308
    endloop
  endfacet
  facet normal 0.827082 0 -0.562082
    outer loop
      vertex -2.78628 2.5 -0.931771
      vertex -2.66976 -2.5 -0.760308
      vertex -2.78628 -2.5 -0.931771
    endloop
  endfacet
  facet normal 0.940881 0 -0.338737
    outer loop
      vertex -3.06826 -2.5 -1.48519
      vertex -3.13849 2.5 -1.68024
      vertex -3.06826 2.5 -1.48519
    endloop
  endfacet
  facet normal 0.940881 0 -0.338737
    outer loop
      vertex -3.13849 2.5 -1.68024
      vertex -3.06826 -2.5 -1.48519
      vertex -3.13849 -2.5 -1.68024
    endloop
  endfacet
  facet normal -0.860742 0 -0.509042
    outer loop
      vertex 2.89181 -2.5 -1.11021
      vertex 2.78628 2.5 -0.931771
      vertex 2.89181 2.5 -1.11021
    endloop
  endfacet
  facet normal -0.860742 -0 -0.509042
    outer loop
      vertex 2.78628 2.5 -0.931771
      vertex 2.89181 -2.5 -1.11021
      vertex 2.78628 -2.5 -0.931771
    endloop
  endfacet
  facet normal -0.75011 0 -0.661313
    outer loop
      vertex 2.54269 -2.5 -0.5965
      vertex 2.4056 2.5 -0.440994
      vertex 2.54269 2.5 -0.5965
    endloop
  endfacet
  facet normal -0.75011 -0 -0.661313
    outer loop
      vertex 2.4056 2.5 -0.440994
      vertex 2.54269 -2.5 -0.5965
      vertex 2.4056 -2.5 -0.440994
    endloop
  endfacet
  facet normal 0.509042 0 -0.860742
    outer loop
      vertex -1.76823 -2.5 0.0862818
      vertex -1.58979 2.5 0.191812
      vertex -1.58979 -2.5 0.191812
    endloop
  endfacet
  facet normal 0.509042 0 -0.860742
    outer loop
      vertex -1.58979 2.5 0.191812
      vertex -1.76823 -2.5 0.0862818
      vertex -1.76823 2.5 0.0862818
    endloop
  endfacet
  facet normal 0.278989 0 -0.960294
    outer loop
      vertex -1.01976 -2.5 0.438486
      vertex -0.820676 2.5 0.496324
      vertex -0.820676 -2.5 0.496324
    endloop
  endfacet
  facet normal 0.278989 0 -0.960294
    outer loop
      vertex -0.820676 2.5 0.496324
      vertex -1.01976 -2.5 0.438486
      vertex -1.01976 2.5 0.438486
    endloop
  endfacet
endsolid OpenSCAD_Model
