solid OpenSCAD_Model
  facet normal -1 0 0
    outer loop
      vertex -5 -2.5 -2.5
      vertex -5 2.5 2.5
      vertex -5 2.5 -2.5
    endloop
  endfacet
  facet normal -1 -0 0
    outer loop
      vertex -5 2.5 2.5
      vertex -5 -2.5 -2.5
      vertex -5 -2.5 2.5
    endloop
  endfacet
  facet normal -0 0 1
    outer loop
      vertex -5 2.5 2.5
      vertex 5 -2.5 2.5
      vertex 5 2.5 2.5
    endloop
  endfacet
  facet normal 0 0 1
    outer loop
      vertex 5 -2.5 2.5
      vertex -5 2.5 2.5
      vertex -5 -2.5 2.5
    endloop
  endfacet
  facet normal 1 -0 0
    outer loop
      vertex 5 -2.5 2.5
      vertex 5 2.5 -2.5
      vertex 5 2.5 2.5
    endloop
  endfacet
  facet normal 1 0 0
    outer loop
      vertex 5 2.5 -2.5
      vertex 5 -2.5 2.5
      vertex 5 -2.5 -2.5
    endloop
  endfacet
  facet normal 0 1 0
    outer loop
      vertex 5 2.5 2.5
      vertex 0 2.5 0.299999
      vertex -5 2.5 2.5
    endloop
  endfacet
  facet normal 0 1 0
    outer loop
      vertex 5 2.5 2.5
      vertex 0.207209 2.5 0.293488
      vertex 0 2.5 0.299999
    endloop
  endfacet
  facet normal 0 1 0
    outer loop
      vertex 5 2.5 2.5
      vertex 0.413599 2.5 0.273978
      vertex 0.207209 2.5 0.293488
    endloop
  endfacet
  facet normal 0 1 0
    outer loop
      vertex 5 2.5 2.5
      vertex 0.618358 2.5 0.241548
      vertex 0.413599 2.5 0.273978
    endloop
  endfacet
  facet normal 0 1 0
    outer loop
      vertex 5 2.5 2.5
      vertex 0.820676 2.5 0.196324
      vertex 0.618358 2.5 0.241548
    endloop
  endfacet
  facet normal 0 1 0
    outer loop
      vertex 5 2.5 2.5
      vertex 1.01976 2.5 0.138486
      vertex 0.820676 2.5 0.196324
    endloop
  endfacet
  facet normal 0 1 0
    outer loop
      vertex 5 2.5 2.5
      vertex 1.21481 2.5 0.0682621
      vertex 1.01976 2.5 0.138486
    endloop
  endfacet
  facet normal 0 1 0
    outer loop
      vertex 5 2.5 2.5
      vertex 1.40507 2.5 -0.0140705
      vertex 1.21481 2.5 0.0682621
    endloop
  endfacet
  facet normal 0 1 0
    outer loop
      vertex 5 2.5 2.5
      vertex 1.58979 2.5 -0.108188
      vertex 1.40507 2.5 -0.0140705
    endloop
  endfacet
  facet normal 0 1 0
    outer loop
      vertex 5 2.5 2.5
      vertex 1.76823 2.5 -0.213717
      vertex 1.58979 2.5 -0.108188
    endloop
  endfacet
  facet normal 0 1 0
    outer loop
      vertex 5 2.5 2.5
      vertex 1.93969 2.5 -0.330243
      vertex 1.76823 2.5 -0.213717
    endloop
  endfacet
  facet normal 0 1 0
    outer loop
      vertex 5 2.5 2.5
      vertex 2.1035 2.5 -0.457306
      vertex 1.93969 2.5 -0.330243
    endloop
  endfacet
  facet normal 0 1 0
    outer loop
      vertex 5 2.5 2.5
      vertex 2.259 2.5 -0.594403
      vertex 2.1035 2.5 -0.457306
    endloop
  endfacet
  facet normal 0 1 0
    outer loop
      vertex 5 2.5 2.5
      vertex 2.4056 2.5 -0.740994
      vertex 2.259 2.5 -0.594403
    endloop
  endfacet
  facet normal 0 1 0
    outer loop
      vertex 5 2.5 2.5
      vertex 2.54269 2.5 -0.896501
      vertex 2.4056 2.5 -0.740994
    endloop
  endfacet
  facet normal 0 1 0
    outer loop
      vertex 5 2.5 2.5
      vertex 2.66976 2.5 -1.06031
      vertex 2.54269 2.5 -0.896501
    endloop
  endfacet
  facet normal 0 1 0
    outer loop
      vertex 5 2.5 2.5
      vertex 2.78628 2.5 -1.23177
      vertex 2.66976 2.5 -1.06031
    endloop
  endfacet
  facet normal 0 1 -0
    outer loop
      vertex 5 2.5 -2.5
      vertex 2.78628 2.5 -1.23177
      vertex 5 2.5 2.5
    endloop
  endfacet
  facet normal 0 1 0
    outer loop
      vertex 2.78628 2.5 -1.23177
      vertex 5 2.5 -2.5
      vertex 2.89181 2.5 -1.41021
    endloop
  endfacet
  facet normal 0 1 0
    outer loop
      vertex 2.89181 2.5 -1.41021
      vertex 5 2.5 -2.5
      vertex 2.98593 2.5 -1.59493
    endloop
  endfacet
  facet normal 0 1 0
    outer loop
      vertex 2.98593 2.5 -1.59493
      vertex 5 2.5 -2.5
      vertex 3.06826 2.5 -1.78519
    endloop
  endfacet
  facet normal 0 1 0
    outer loop
      vertex 3.06826 2.5 -1.78519
      vertex 5 2.5 -2.5
      vertex 3.13849 2.5 -1.98024
    endloop
  endfacet
  facet normal 0 1 0
    outer loop
      vertex 3.13849 2.5 -1.98024
      vertex 5 2.5 -2.5
      vertex 3.19632 2.5 -2.17932
    endloop
  endfacet
  facet normal 0 1 0
    outer loop
      vertex 3.19632 2.5 -2.17932
      vertex 5 2.5 -2.5
      vertex 3.24155 2.5 -2.38164
    endloop
  endfacet
  facet normal 0 1 0
    outer loop
      vertex 3.24155 2.5 -2.38164
      vertex 5 2.5 -2.5
      vertex 3.26029 2.5 -2.5
    endloop
  endfacet
  facet normal 0 1 -0
    outer loop
      vertex -0.207209 2.5 0.293488
      vertex -5 2.5 2.5
      vertex 0 2.5 0.299999
    endloop
  endfacet
  facet normal 0 1 -0
    outer loop
      vertex -0.413599 2.5 0.273978
      vertex -5 2.5 2.5
      vertex -0.207209 2.5 0.293488
    endloop
  endfacet
  facet normal 0 1 -0
    outer loop
      vertex -0.618358 2.5 0.241548
      vertex -5 2.5 2.5
      vertex -0.413599 2.5 0.273978
    endloop
  endfacet
  facet normal 0 1 -0
    outer loop
      vertex -0.820676 2.5 0.196324
      vertex -5 2.5 2.5
      vertex -0.618358 2.5 0.241548
    endloop
  endfacet
  facet normal 0 1 -0
    outer loop
      vertex -1.01976 2.5 0.138486
      vertex -5 2.5 2.5
      vertex -0.820676 2.5 0.196324
    endloop
  endfacet
  facet normal 0 1 -0
    outer loop
      vertex -1.21481 2.5 0.0682621
      vertex -5 2.5 2.5
      vertex -1.01976 2.5 0.138486
    endloop
  endfacet
  facet normal 0 1 -0
    outer loop
      vertex -1.40507 2.5 -0.0140705
      vertex -5 2.5 2.5
      vertex -1.21481 2.5 0.0682621
    endloop
  endfacet
  facet normal 0 1 -0
    outer loop
      vertex -1.58979 2.5 -0.108188
      vertex -5 2.5 2.5
      vertex -1.40507 2.5 -0.0140705
    endloop
  endfacet
  facet normal 0 1 -0
    outer loop
      vertex -1.76823 2.5 -0.213717
      vertex -5 2.5 2.5
      vertex -1.58979 2.5 -0.108188
    endloop
  endfacet
  facet normal 0 1 -0
    outer loop
      vertex -1.93969 2.5 -0.330243
      vertex -5 2.5 2.5
      vertex -1.76823 2.5 -0.213717
    endloop
  endfacet
  facet normal 0 1 -0
    outer loop
      vertex -2.1035 2.5 -0.457306
      vertex -5 2.5 2.5
      vertex -1.93969 2.5 -0.330243
    endloop
  endfacet
  facet normal 0 1 -0
    outer loop
      vertex -2.259 2.5 -0.594403
      vertex -5 2.5 2.5
      vertex -2.1035 2.5 -0.457306
    endloop
  endfacet
  facet normal 0 1 -0
    outer loop
      vertex -2.4056 2.5 -0.740994
      vertex -5 2.5 2.5
      vertex -2.259 2.5 -0.594403
    endloop
  endfacet
  facet normal 0 1 -0
    outer loop
      vertex -2.54269 2.5 -0.896501
      vertex -5 2.5 2.5
      vertex -2.4056 2.5 -0.740994
    endloop
  endfacet
  facet normal 0 1 -0
    outer loop
      vertex -2.66976 2.5 -1.06031
      vertex -5 2.5 2.5
      vertex -2.54269 2.5 -0.896501
    endloop
  endfacet
  facet normal 0 1 -0
    outer loop
      vertex -2.78628 2.5 -1.23177
      vertex -5 2.5 2.5
      vertex -2.66976 2.5 -1.06031
    endloop
  endfacet
  facet normal 0 1 0
    outer loop
      vertex -5 2.5 -2.5
      vertex -2.78628 2.5 -1.23177
      vertex -2.89181 2.5 -1.41021
    endloop
  endfacet
  facet normal 0 1 0
    outer loop
      vertex -5 2.5 -2.5
      vertex -2.89181 2.5 -1.41021
      vertex -2.98593 2.5 -1.59493
    endloop
  endfacet
  facet normal 0 1 0
    outer loop
      vertex -5 2.5 -2.5
      vertex -2.98593 2.5 -1.59493
      vertex -3.06826 2.5 -1.78519
    endloop
  endfacet
  facet normal 0 1 0
    outer loop
      vertex -5 2.5 -2.5
      vertex -3.06826 2.5 -1.78519
      vertex -3.13849 2.5 -1.98024
    endloop
  endfacet
  facet normal 0 1 0
    outer loop
      vertex -5 2.5 -2.5
      vertex -3.13849 2.5 -1.98024
      vertex -3.19632 2.5 -2.17932
    endloop
  endfacet
  facet normal 0 1 0
    outer loop
      vertex -5 2.5 -2.5
      vertex -3.19632 2.5 -2.17932
      vertex -3.24155 2.5 -2.38164
    endloop
  endfacet
  facet normal 0 1 0
    outer loop
      vertex -5 2.5 -2.5
      vertex -3.24155 2.5 -2.38164
      vertex -3.26029 2.5 -2.5
    endloop
  endfacet
  facet normal 0 1 0
    outer loop
      vertex -2.78628 2.5 -1.23177
      vertex -5 2.5 -2.5
      vertex -5 2.5 2.5
    endloop
  endfacet
  facet normal 0 0 -1
    outer loop
      vertex -5 -2.5 -2.5
      vertex -3.26029 2.5 -2.5
      vertex -3.26029 -2.5 -2.5
    endloop
  endfacet
  facet normal -0 0 -1
    outer loop
      vertex -3.26029 2.5 -2.5
      vertex -5 -2.5 -2.5
      vertex -5 2.5 -2.5
    endloop
  endfacet
  facet normal 0 0 -1
    outer loop
      vertex 3.26029 -2.5 -2.5
      vertex 5 2.5 -2.5
      vertex 5 -2.5 -2.5
    endloop
  endfacet
  facet normal -0 0 -1
    outer loop
      vertex 5 2.5 -2.5
      vertex 3.26029 -2.5 -2.5
      vertex 3.26029 2.5 -2.5
    endloop
  endfacet
  facet normal 0 -1 0
    outer loop
      vertex -5 -2.5 2.5
      vertex 0 -2.5 0.299999
      vertex 5 -2.5 2.5
    endloop
  endfacet
  facet normal 0 -1 0
    outer loop
      vertex -5 -2.5 2.5
      vertex -0.207209 -2.5 0.293488
      vertex 0 -2.5 0.299999
    endloop
  endfacet
  facet normal 0 -1 0
    outer loop
      vertex -5 -2.5 2.5
      vertex -0.413599 -2.5 0.273978
      vertex -0.207209 -2.5 0.293488
    endloop
  endfacet
  facet normal 0 -1 0
    outer loop
      vertex -5 -2.5 2.5
      vertex -0.618358 -2.5 0.241548
      vertex -0.413599 -2.5 0.273978
    endloop
  endfacet
  facet normal 0 -1 0
    outer loop
      vertex -5 -2.5 2.5
      vertex -0.820676 -2.5 0.196324
      vertex -0.618358 -2.5 0.241548
    endloop
  endfacet
  facet normal 0 -1 0
    outer loop
      vertex -5 -2.5 2.5
      vertex -1.01976 -2.5 0.138486
      vertex -0.820676 -2.5 0.196324
    endloop
  endfacet
  facet normal 0 -1 0
    outer loop
      vertex -5 -2.5 2.5
      vertex -1.21481 -2.5 0.0682621
      vertex -1.01976 -2.5 0.138486
    endloop
  endfacet
  facet normal 0 -1 0
    outer loop
      vertex -5 -2.5 2.5
      vertex -1.40507 -2.5 -0.0140705
      vertex -1.21481 -2.5 0.0682621
    endloop
  endfacet
  facet normal 0 -1 0
    outer loop
      vertex -5 -2.5 2.5
      vertex -1.58979 -2.5 -0.108188
      vertex -1.40507 -2.5 -0.0140705
    endloop
  endfacet
  facet normal 0 -1 0
    outer loop
      vertex -5 -2.5 2.5
      vertex -1.76823 -2.5 -0.213717
      vertex -1.58979 -2.5 -0.108188
    endloop
  endfacet
  facet normal 0 -1 0
    outer loop
      vertex -5 -2.5 2.5
      vertex -1.93969 -2.5 -0.330243
      vertex -1.76823 -2.5 -0.213717
    endloop
  endfacet
  facet normal 0 -1 0
    outer loop
      vertex -5 -2.5 2.5
      vertex -2.1035 -2.5 -0.457306
      vertex -1.93969 -2.5 -0.330243
    endloop
  endfacet
  facet normal 0 -1 0
    outer loop
      vertex -5 -2.5 2.5
      vertex -2.259 -2.5 -0.594403
      vertex -2.1035 -2.5 -0.457306
    endloop
  endfacet
  facet normal 0 -1 0
    outer loop
      vertex -5 -2.5 2.5
      vertex -2.4056 -2.5 -0.740994
      vertex -2.259 -2.5 -0.594403
    endloop
  endfacet
  facet normal 0 -1 0
    outer loop
      vertex -5 -2.5 2.5
      vertex -2.54269 -2.5 -0.896501
      vertex -2.4056 -2.5 -0.740994
    endloop
  endfacet
  facet normal 0 -1 0
    outer loop
      vertex -5 -2.5 2.5
      vertex -2.66976 -2.5 -1.06031
      vertex -2.54269 -2.5 -0.896501
    endloop
  endfacet
  facet normal 0 -1 0
    outer loop
      vertex -5 -2.5 2.5
      vertex -2.78628 -2.5 -1.23177
      vertex -2.66976 -2.5 -1.06031
    endloop
  endfacet
  facet normal 0 -1 0
    outer loop
      vertex -5 -2.5 -2.5
      vertex -2.78628 -2.5 -1.23177
      vertex -5 -2.5 2.5
    endloop
  endfacet
  facet normal 0 -1 0
    outer loop
      vertex -2.78628 -2.5 -1.23177
      vertex -5 -2.5 -2.5
      vertex -2.89181 -2.5 -1.41021
    endloop
  endfacet
  facet normal 0 -1 0
    outer loop
      vertex -2.89181 -2.5 -1.41021
      vertex -5 -2.5 -2.5
      vertex -2.98593 -2.5 -1.59493
    endloop
  endfacet
  facet normal 0 -1 0
    outer loop
      vertex -2.98593 -2.5 -1.59493
      vertex -5 -2.5 -2.5
      vertex -3.06826 -2.5 -1.78519
    endloop
  endfacet
  facet normal 0 -1 0
    outer loop
      vertex -3.06826 -2.5 -1.78519
      vertex -5 -2.5 -2.5
      vertex -3.13849 -2.5 -1.98024
    endloop
  endfacet
  facet normal 0 -1 0
    outer loop
      vertex -3.13849 -2.5 -1.98024
      vertex -5 -2.5 -2.5
      vertex -3.19632 -2.5 -2.17932
    endloop
  endfacet
  facet normal 0 -1 0
    outer loop
      vertex -3.19632 -2.5 -2.17932
      vertex -5 -2.5 -2.5
      vertex -3.24155 -2.5 -2.38164
    endloop
  endfacet
  facet normal 0 -1 0
    outer loop
      vertex -3.24155 -2.5 -2.38164
      vertex -5 -2.5 -2.5
      vertex -3.26029 -2.5 -2.5
    endloop
  endfacet
  facet normal 0 -1 0
    outer loop
      vertex 0.207209 -2.5 0.293488
      vertex 5 -2.5 2.5
      vertex 0 -2.5 0.299999
    endloop
  endfacet
  facet normal 0 -1 0
    outer loop
      vertex 0.413599 -2.5 0.273978
      vertex 5 -2.5 2.5
      vertex 0.207209 -2.5 0.293488
    endloop
  endfacet
  facet normal 0 -1 0
    outer loop
      vertex 0.618358 -2.5 0.241548
      vertex 5 -2.5 2.5
      vertex 0.413599 -2.5 0.273978
    endloop
  endfacet
  facet normal 0 -1 0
    outer loop
      vertex 0.820676 -2.5 0.196324
      vertex 5 -2.5 2.5
      vertex 0.618358 -2.5 0.241548
    endloop
  endfacet
  facet normal 0 -1 0
    outer loop
      vertex 1.01976 -2.5 0.138486
      vertex 5 -2.5 2.5
      vertex 0.820676 -2.5 0.196324
    endloop
  endfacet
  facet normal 0 -1 0
    outer loop
      vertex 1.21481 -2.5 0.0682621
      vertex 5 -2.5 2.5
      vertex 1.01976 -2.5 0.138486
    endloop
  endfacet
  facet normal 0 -1 0
    outer loop
      vertex 1.40507 -2.5 -0.0140705
      vertex 5 -2.5 2.5
      vertex 1.21481 -2.5 0.0682621
    endloop
  endfacet
  facet normal 0 -1 0
    outer loop
      vertex 1.58979 -2.5 -0.108188
      vertex 5 -2.5 2.5
      vertex 1.40507 -2.5 -0.0140705
    endloop
  endfacet
  facet normal 0 -1 0
    outer loop
      vertex 1.76823 -2.5 -0.213717
      vertex 5 -2.5 2.5
      vertex 1.58979 -2.5 -0.108188
    endloop
  endfacet
  facet normal 0 -1 0
    outer loop
      vertex 1.93969 -2.5 -0.330243
      vertex 5 -2.5 2.5
      vertex 1.76823 -2.5 -0.213717
    endloop
  endfacet
  facet normal 0 -1 0
    outer loop
      vertex 2.1035 -2.5 -0.457306
      vertex 5 -2.5 2.5
      vertex 1.93969 -2.5 -0.330243
    endloop
  endfacet
  facet normal 0 -1 0
    outer loop
      vertex 2.259 -2.5 -0.594403
      vertex 5 -2.5 2.5
      vertex 2.1035 -2.5 -0.457306
    endloop
  endfacet
  facet normal 0 -1 0
    outer loop
      vertex 2.4056 -2.5 -0.740994
      vertex 5 -2.5 2.5
      vertex 2.259 -2.5 -0.594403
    endloop
  endfacet
  facet normal 0 -1 0
    outer loop
      vertex 2.54269 -2.5 -0.896501
      vertex 5 -2.5 2.5
      vertex 2.4056 -2.5 -0.740994
    endloop
  endfacet
  facet normal 0 -1 0
    outer loop
      vertex 2.66976 -2.5 -1.06031
      vertex 5 -2.5 2.5
      vertex 2.54269 -2.5 -0.896501
    endloop
  endfacet
  facet normal 0 -1 0
    outer loop
      vertex 2.78628 -2.5 -1.23177
      vertex 5 -2.5 2.5
      vertex 2.66976 -2.5 -1.06031
    endloop
  endfacet
  facet normal 0 -1 0
    outer loop
      vertex 5 -2.5 -2.5
      vertex 2.78628 -2.5 -1.23177
      vertex 2.89181 -2.5 -1.41021
    endloop
  endfacet
  facet normal 0 -1 0
    outer loop
      vertex 5 -2.5 -2.5
      vertex 2.89181 -2.5 -1.41021
      vertex 2.98593 -2.5 -1.59493
    endloop
  endfacet
  facet normal 0 -1 0
    outer loop
      vertex 5 -2.5 -2.5
      vertex 2.98593 -2.5 -1.59493
      vertex 3.06826 -2.5 -1.78519
    endloop
  endfacet
  facet normal 0 -1 0
    outer loop
      vertex 5 -2.5 -2.5
      vertex 3.06826 -2.5 -1.78519
      vertex 3.13849 -2.5 -1.98024
    endloop
  endfacet
  facet normal 0 -1 0
    outer loop
      vertex 5 -2.5 -2.5
      vertex 3.13849 -2.5 -1.98024
      vertex 3.19632 -2.5 -2.17932
    endloop
  endfacet
  facet normal 0 -1 0
    outer loop
      vertex 5 -2.5 -2.5
      vertex 3.19632 -2.5 -2.17932
      vertex 3.24155 -2.5 -2.38164
    endloop
  endfacet
  facet normal 0 -1 0
    outer loop
      vertex 5 -2.5 -2.5
      vertex 3.24155 -2.5 -2.38164
      vertex 3.26029 -2.5 -2.5
    endloop
  endfacet
  facet normal 0 -1 0
    outer loop
      vertex 2.78628 -2.5 -1.23177
      vertex 5 -2.5 -2.5
      vertex 5 -2.5 2.5
    endloop
  endfacet
  facet normal -0.278993 0 -0.960293
    outer loop
      vertex 0.820676 -2.5 0.196324
      vertex 1.01976 2.5 0.138486
      vertex 1.01976 -2.5 0.138486
    endloop
  endfacet
  facet normal -0.278993 0 -0.960293
    outer loop
      vertex 1.01976 2.5 0.138486
      vertex 0.820676 -2.5 0.196324
      vertex 0.820676 2.5 0.196324
    endloop
  endfacet
  facet normal -0.975917 0 -0.218142
    outer loop
      vertex 3.24155 -2.5 -2.38164
      vertex 3.19632 2.5 -2.17932
      vertex 3.24155 2.5 -2.38164
    endloop
  endfacet
  facet normal -0.975917 -0 -0.218142
    outer loop
      vertex 3.19632 2.5 -2.17932
      vertex 3.24155 -2.5 -2.38164
      vertex 3.19632 -2.5 -2.17932
    endloop
  endfacet
  facet normal 0.397145 0 -0.917756
    outer loop
      vertex -1.40507 -2.5 -0.0140705
      vertex -1.21481 2.5 0.0682621
      vertex -1.21481 -2.5 0.0682621
    endloop
  endfacet
  facet normal 0.397145 0 -0.917756
    outer loop
      vertex -1.21481 2.5 0.0682621
      vertex -1.40507 -2.5 -0.0140705
      vertex -1.40507 2.5 -0.0140705
    endloop
  endfacet
  facet normal 0.0314103 0 -0.999507
    outer loop
      vertex -0.207209 -2.5 0.293488
      vertex 0 2.5 0.299999
      vertex 0 -2.5 0.299999
    endloop
  endfacet
  facet normal 0.0314103 0 -0.999507
    outer loop
      vertex 0 2.5 0.299999
      vertex -0.207209 -2.5 0.293488
      vertex -0.207209 2.5 0.293488
    endloop
  endfacet
  facet normal -0.612908 0 -0.790154
    outer loop
      vertex 1.93969 -2.5 -0.330243
      vertex 2.1035 2.5 -0.457306
      vertex 2.1035 -2.5 -0.457306
    endloop
  endfacet
  facet normal -0.612908 0 -0.790154
    outer loop
      vertex 2.1035 2.5 -0.457306
      vertex 1.93969 -2.5 -0.330243
      vertex 1.93969 2.5 -0.330243
    endloop
  endfacet
  facet normal -0.917754 0 -0.397149
    outer loop
      vertex 3.06826 -2.5 -1.78519
      vertex 2.98593 2.5 -1.59493
      vertex 3.06826 2.5 -1.78519
    endloop
  endfacet
  facet normal -0.917754 -0 -0.397149
    outer loop
      vertex 2.98593 2.5 -1.59493
      vertex 3.06826 -2.5 -1.78519
      vertex 2.98593 -2.5 -1.59493
    endloop
  endfacet
  facet normal 0.562082 0 -0.827082
    outer loop
      vertex -1.93969 -2.5 -0.330243
      vertex -1.76823 2.5 -0.213717
      vertex -1.76823 -2.5 -0.213717
    endloop
  endfacet
  facet normal 0.562082 0 -0.827082
    outer loop
      vertex -1.76823 2.5 -0.213717
      vertex -1.93969 -2.5 -0.330243
      vertex -1.93969 2.5 -0.330243
    endloop
  endfacet
  facet normal 0.707107 0 -0.707107
    outer loop
      vertex -2.259 -2.5 -0.594403
      vertex -2.4056 2.5 -0.740994
      vertex -2.259 2.5 -0.594403
    endloop
  endfacet
  facet normal 0.707107 0 -0.707107
    outer loop
      vertex -2.4056 2.5 -0.740994
      vertex -2.259 -2.5 -0.594403
      vertex -2.4056 -2.5 -0.740994
    endloop
  endfacet
  facet normal 0.891006 0 -0.453991
    outer loop
      vertex -2.89181 -2.5 -1.41021
      vertex -2.98593 2.5 -1.59493
      vertex -2.89181 2.5 -1.41021
    endloop
  endfacet
  facet normal 0.891006 0 -0.453991
    outer loop
      vertex -2.98593 2.5 -1.59493
      vertex -2.89181 -2.5 -1.41021
      vertex -2.98593 -2.5 -1.59493
    endloop
  endfacet
  facet normal -0.0314103 0 -0.999507
    outer loop
      vertex 0 -2.5 0.299999
      vertex 0.207209 2.5 0.293488
      vertex 0.207209 -2.5 0.293488
    endloop
  endfacet
  facet normal -0.0314103 0 -0.999507
    outer loop
      vertex 0.207209 2.5 0.293488
      vertex 0 -2.5 0.299999
      vertex 0 2.5 0.299999
    endloop
  endfacet
  facet normal -0.562082 0 -0.827082
    outer loop
      vertex 1.76823 -2.5 -0.213717
      vertex 1.93969 2.5 -0.330243
      vertex 1.93969 -2.5 -0.330243
    endloop
  endfacet
  facet normal -0.562082 0 -0.827082
    outer loop
      vertex 1.93969 2.5 -0.330243
      vertex 1.76823 -2.5 -0.213717
      vertex 1.76823 2.5 -0.213717
    endloop
  endfacet
  facet normal -0.453991 0 -0.891006
    outer loop
      vertex 1.40507 -2.5 -0.0140705
      vertex 1.58979 2.5 -0.108188
      vertex 1.58979 -2.5 -0.108188
    endloop
  endfacet
  facet normal -0.453991 0 -0.891006
    outer loop
      vertex 1.58979 2.5 -0.108188
      vertex 1.40507 -2.5 -0.0140705
      vertex 1.40507 2.5 -0.0140705
    endloop
  endfacet
  facet normal -0.509042 0 -0.860742
    outer loop
      vertex 1.58979 -2.5 -0.108188
      vertex 1.76823 2.5 -0.213717
      vertex 1.76823 -2.5 -0.213717
    endloop
  endfacet
  facet normal -0.509042 0 -0.860742
    outer loop
      vertex 1.76823 2.5 -0.213717
      vertex 1.58979 -2.5 -0.108188
      vertex 1.58979 2.5 -0.108188
    endloop
  endfacet
  facet normal -0.338737 0 -0.940881
    outer loop
      vertex 1.01976 -2.5 0.138486
      vertex 1.21481 2.5 0.0682621
      vertex 1.21481 -2.5 0.0682621
    endloop
  endfacet
  facet normal -0.338737 0 -0.940881
    outer loop
      vertex 1.21481 2.5 0.0682621
      vertex 1.01976 -2.5 0.138486
      vertex 1.01976 2.5 0.138486
    endloop
  endfacet
  facet normal -0.75011 0 -0.661313
    outer loop
      vertex 2.54269 -2.5 -0.896501
      vertex 2.4056 2.5 -0.740994
      vertex 2.54269 2.5 -0.896501
    endloop
  endfacet
  facet normal -0.75011 -0 -0.661313
    outer loop
      vertex 2.4056 2.5 -0.740994
      vertex 2.54269 -2.5 -0.896501
      vertex 2.4056 -2.5 -0.740994
    endloop
  endfacet
  facet normal -0.827082 0 -0.562082
    outer loop
      vertex 2.78628 -2.5 -1.23177
      vertex 2.66976 2.5 -1.06031
      vertex 2.78628 2.5 -1.23177
    endloop
  endfacet
  facet normal -0.827082 -0 -0.562082
    outer loop
      vertex 2.66976 2.5 -1.06031
      vertex 2.78628 -2.5 -1.23177
      vertex 2.66976 -2.5 -1.06031
    endloop
  endfacet
  facet normal -0.940881 0 -0.338737
    outer loop
      vertex 3.13849 -2.5 -1.98024
      vertex 3.06826 2.5 -1.78519
      vertex 3.13849 2.5 -1.98024
    endloop
  endfacet
  facet normal -0.940881 -0 -0.338737
    outer loop
      vertex 3.06826 2.5 -1.78519
      vertex 3.13849 -2.5 -1.98024
      vertex 3.06826 -2.5 -1.78519
    endloop
  endfacet
  facet normal -0.960293 0 -0.278993
    outer loop
      vertex 3.19632 -2.5 -2.17932
      vertex 3.13849 2.5 -1.98024
      vertex 3.19632 2.5 -2.17932
    endloop
  endfacet
  facet normal -0.960293 -0 -0.278993
    outer loop
      vertex 3.13849 2.5 -1.98024
      vertex 3.19632 -2.5 -2.17932
      vertex 3.13849 -2.5 -1.98024
    endloop
  endfacet
  facet normal -0.987688 0 -0.156434
    outer loop
      vertex 3.26029 -2.5 -2.5
      vertex 3.24155 2.5 -2.38164
      vertex 3.26029 2.5 -2.5
    endloop
  endfacet
  facet normal -0.987688 -0 -0.156434
    outer loop
      vertex 3.24155 2.5 -2.38164
      vertex 3.26029 -2.5 -2.5
      vertex 3.24155 -2.5 -2.38164
    endloop
  endfacet
  facet normal 0.338737 0 -0.940881
    outer loop
      vertex -1.21481 -2.5 0.0682621
      vertex -1.01976 2.5 0.138486
      vertex -1.01976 -2.5 0.138486
    endloop
  endfacet
  facet normal 0.338737 0 -0.940881
    outer loop
      vertex -1.01976 2.5 0.138486
      vertex -1.21481 -2.5 0.0682621
      vertex -1.21481 2.5 0.0682621
    endloop
  endfacet
  facet normal 0.661313 0 -0.75011
    outer loop
      vertex -2.259 -2.5 -0.594403
      vertex -2.1035 2.5 -0.457306
      vertex -2.1035 -2.5 -0.457306
    endloop
  endfacet
  facet normal 0.661313 0 -0.75011
    outer loop
      vertex -2.1035 2.5 -0.457306
      vertex -2.259 -2.5 -0.594403
      vertex -2.259 2.5 -0.594403
    endloop
  endfacet
  facet normal 0.612908 0 -0.790154
    outer loop
      vertex -2.1035 -2.5 -0.457306
      vertex -1.93969 2.5 -0.330243
      vertex -1.93969 -2.5 -0.330243
    endloop
  endfacet
  facet normal 0.612908 0 -0.790154
    outer loop
      vertex -1.93969 2.5 -0.330243
      vertex -2.1035 -2.5 -0.457306
      vertex -2.1035 2.5 -0.457306
    endloop
  endfacet
  facet normal 0.790154 0 -0.612908
    outer loop
      vertex -2.54269 -2.5 -0.896501
      vertex -2.66976 2.5 -1.06031
      vertex -2.54269 2.5 -0.896501
    endloop
  endfacet
  facet normal 0.790154 0 -0.612908
    outer loop
      vertex -2.66976 2.5 -1.06031
      vertex -2.54269 -2.5 -0.896501
      vertex -2.66976 -2.5 -1.06031
    endloop
  endfacet
  facet normal 0.75011 0 -0.661313
    outer loop
      vertex -2.4056 -2.5 -0.740994
      vertex -2.54269 2.5 -0.896501
      vertex -2.4056 2.5 -0.740994
    endloop
  endfacet
  facet normal 0.75011 0 -0.661313
    outer loop
      vertex -2.54269 2.5 -0.896501
      vertex -2.4056 -2.5 -0.740994
      vertex -2.54269 -2.5 -0.896501
    endloop
  endfacet
  facet normal 0.960293 0 -0.278993
    outer loop
      vertex -3.13849 -2.5 -1.98024
      vertex -3.19632 2.5 -2.17932
      vertex -3.13849 2.5 -1.98024
    endloop
  endfacet
  facet normal 0.960293 0 -0.278993
    outer loop
      vertex -3.19632 2.5 -2.17932
      vertex -3.13849 -2.5 -1.98024
      vertex -3.19632 -2.5 -2.17932
    endloop
  endfacet
  facet normal 0.987688 0 -0.156434
    outer loop
      vertex -3.24155 -2.5 -2.38164
      vertex -3.26029 2.5 -2.5
      vertex -3.24155 2.5 -2.38164
    endloop
  endfacet
  facet normal 0.987688 0 -0.156434
    outer loop
      vertex -3.26029 2.5 -2.5
      vertex -3.24155 -2.5 -2.38164
      vertex -3.26029 -2.5 -2.5
    endloop
  endfacet
  facet normal -0.218142 0 -0.975917
    outer loop
      vertex 0.618358 -2.5 0.241548
      vertex 0.820676 2.5 0.196324
      vertex 0.820676 -2.5 0.196324
    endloop
  endfacet
  facet normal -0.218142 0 -0.975917
    outer loop
      vertex 0.820676 2.5 0.196324
      vertex 0.618358 -2.5 0.241548
      vertex 0.618358 2.5 0.241548
    endloop
  endfacet
  facet normal -0.156435 0 -0.987688
    outer loop
      vertex 0.413599 -2.5 0.273978
      vertex 0.618358 2.5 0.241548
      vertex 0.618358 -2.5 0.241548
    endloop
  endfacet
  facet normal -0.156435 0 -0.987688
    outer loop
      vertex 0.618358 2.5 0.241548
      vertex 0.413599 -2.5 0.273978
      vertex 0.413599 2.5 0.273978
    endloop
  endfacet
  facet normal -0.0941068 0 -0.995562
    outer loop
      vertex 0.207209 -2.5 0.293488
      vertex 0.413599 2.5 0.273978
      vertex 0.413599 -2.5 0.273978
    endloop
  endfacet
  facet normal -0.0941068 0 -0.995562
    outer loop
      vertex 0.413599 2.5 0.273978
      vertex 0.207209 -2.5 0.293488
      vertex 0.207209 2.5 0.293488
    endloop
  endfacet
  facet normal -0.397145 0 -0.917756
    outer loop
      vertex 1.21481 -2.5 0.0682621
      vertex 1.40507 2.5 -0.0140705
      vertex 1.40507 -2.5 -0.0140705
    endloop
  endfacet
  facet normal -0.397145 0 -0.917756
    outer loop
      vertex 1.40507 2.5 -0.0140705
      vertex 1.21481 -2.5 0.0682621
      vertex 1.21481 2.5 0.0682621
    endloop
  endfacet
  facet normal -0.891006 0 -0.453991
    outer loop
      vertex 2.98593 -2.5 -1.59493
      vertex 2.89181 2.5 -1.41021
      vertex 2.98593 2.5 -1.59493
    endloop
  endfacet
  facet normal -0.891006 -0 -0.453991
    outer loop
      vertex 2.89181 2.5 -1.41021
      vertex 2.98593 -2.5 -1.59493
      vertex 2.89181 -2.5 -1.41021
    endloop
  endfacet
  facet normal -0.790154 0 -0.612908
    outer loop
      vertex 2.66976 -2.5 -1.06031
      vertex 2.54269 2.5 -0.896501
      vertex 2.66976 2.5 -1.06031
    endloop
  endfacet
  facet normal -0.790154 -0 -0.612908
    outer loop
      vertex 2.54269 2.5 -0.896501
      vertex 2.66976 -2.5 -1.06031
      vertex 2.54269 -2.5 -0.896501
    endloop
  endfacet
  facet normal 0.453991 0 -0.891006
    outer loop
      vertex -1.58979 -2.5 -0.108188
      vertex -1.40507 2.5 -0.0140705
      vertex -1.40507 -2.5 -0.0140705
    endloop
  endfacet
  facet normal 0.453991 0 -0.891006
    outer loop
      vertex -1.40507 2.5 -0.0140705
      vertex -1.58979 -2.5 -0.108188
      vertex -1.58979 2.5 -0.108188
    endloop
  endfacet
  facet normal 0.278993 0 -0.960293
    outer loop
      vertex -1.01976 -2.5 0.138486
      vertex -0.820676 2.5 0.196324
      vertex -0.820676 -2.5 0.196324
    endloop
  endfacet
  facet normal 0.278993 0 -0.960293
    outer loop
      vertex -0.820676 2.5 0.196324
      vertex -1.01976 -2.5 0.138486
      vertex -1.01976 2.5 0.138486
    endloop
  endfacet
  facet normal 0.156435 0 -0.987688
    outer loop
      vertex -0.618358 -2.5 0.241548
      vertex -0.413599 2.5 0.273978
      vertex -0.413599 -2.5 0.273978
    endloop
  endfacet
  facet normal 0.156435 0 -0.987688
    outer loop
      vertex -0.413599 2.5 0.273978
      vertex -0.618358 -2.5 0.241548
      vertex -0.618358 2.5 0.241548
    endloop
  endfacet
  facet normal 0.218142 0 -0.975917
    outer loop
      vertex -0.820676 -2.5 0.196324
      vertex -0.618358 2.5 0.241548
      vertex -0.618358 -2.5 0.241548
    endloop
  endfacet
  facet normal 0.218142 0 -0.975917
    outer loop
      vertex -0.618358 2.5 0.241548
      vertex -0.820676 -2.5 0.196324
      vertex -0.820676 2.5 0.196324
    endloop
  endfacet
  facet normal 0.0941068 0 -0.995562
    outer loop
      vertex -0.413599 -2.5 0.273978
      vertex -0.207209 2.5 0.293488
      vertex -0.207209 -2.5 0.293488
    endloop
  endfacet
  facet normal 0.0941068 0 -0.995562
    outer loop
      vertex -0.207209 2.5 0.293488
      vertex -0.413599 -2.5 0.273978
      vertex -0.413599 2.5 0.273978
    endloop
  endfacet
  facet normal 0.860742 0 -0.509042
    outer loop
      vertex -2.78628 -2.5 -1.23177
      vertex -2.89181 2.5 -1.41021
      vertex -2.78628 2.5 -1.23177
    endloop
  endfacet
  facet normal 0.860742 0 -0.509042
    outer loop
      vertex -2.89181 2.5 -1.41021
      vertex -2.78628 -2.5 -1.23177
      vertex -2.89181 -2.5 -1.41021
    endloop
  endfacet
  facet normal 0.827082 0 -0.562082
    outer loop
      vertex -2.66976 -2.5 -1.06031
      vertex -2.78628 2.5 -1.23177
      vertex -2.66976 2.5 -1.06031
    endloop
  endfacet
  facet normal 0.827082 0 -0.562082
    outer loop
      vertex -2.78628 2.5 -1.23177
      vertex -2.66976 -2.5 -1.06031
      vertex -2.78628 -2.5 -1.23177
    endloop
  endfacet
  facet normal 0.917754 0 -0.397149
    outer loop
      vertex -2.98593 -2.5 -1.59493
      vertex -3.06826 2.5 -1.78519
      vertex -2.98593 2.5 -1.59493
    endloop
  endfacet
  facet normal 0.917754 0 -0.397149
    outer loop
      vertex -3.06826 2.5 -1.78519
      vertex -2.98593 -2.5 -1.59493
      vertex -3.06826 -2.5 -1.78519
    endloop
  endfacet
  facet normal 0.975917 0 -0.218142
    outer loop
      vertex -3.19632 -2.5 -2.17932
      vertex -3.24155 2.5 -2.38164
      vertex -3.19632 2.5 -2.17932
    endloop
  endfacet
  facet normal 0.975917 0 -0.218142
    outer loop
      vertex -3.24155 2.5 -2.38164
      vertex -3.19632 -2.5 -2.17932
      vertex -3.24155 -2.5 -2.38164
    endloop
  endfacet
  facet normal -0.860742 0 -0.509042
    outer loop
      vertex 2.89181 -2.5 -1.41021
      vertex 2.78628 2.5 -1.23177
      vertex 2.89181 2.5 -1.41021
    endloop
  endfacet
  facet normal -0.860742 -0 -0.509042
    outer loop
      vertex 2.78628 2.5 -1.23177
      vertex 2.89181 -2.5 -1.41021
      vertex 2.78628 -2.5 -1.23177
    endloop
  endfacet
  facet normal -0.707107 0 -0.707107
    outer loop
      vertex 2.4056 -2.5 -0.740994
      vertex 2.259 2.5 -0.594403
      vertex 2.4056 2.5 -0.740994
    endloop
  endfacet
  facet normal -0.707107 -0 -0.707107
    outer loop
      vertex 2.259 2.5 -0.594403
      vertex 2.4056 -2.5 -0.740994
      vertex 2.259 -2.5 -0.594403
    endloop
  endfacet
  facet normal -0.661313 0 -0.75011
    outer loop
      vertex 2.1035 -2.5 -0.457306
      vertex 2.259 2.5 -0.594403
      vertex 2.259 -2.5 -0.594403
    endloop
  endfacet
  facet normal -0.661313 0 -0.75011
    outer loop
      vertex 2.259 2.5 -0.594403
      vertex 2.1035 -2.5 -0.457306
      vertex 2.1035 2.5 -0.457306
    endloop
  endfacet
  facet normal 0.509042 0 -0.860742
    outer loop
      vertex -1.76823 -2.5 -0.213717
      vertex -1.58979 2.5 -0.108188
      vertex -1.58979 -2.5 -0.108188
    endloop
  endfacet
  facet normal 0.509042 0 -0.860742
    outer loop
      vertex -1.58979 2.5 -0.108188
      vertex -1.76823 -2.5 -0.213717
      vertex -1.76823 2.5 -0.213717
    endloop
  endfacet
  facet normal 0.940881 0 -0.338737
    outer loop
      vertex -3.06826 -2.5 -1.78519
      vertex -3.13849 2.5 -1.98024
      vertex -3.06826 2.5 -1.78519
    endloop
  endfacet
  facet normal 0.940881 0 -0.338737
    outer loop
      vertex -3.13849 2.5 -1.98024
      vertex -3.06826 -2.5 -1.78519
      vertex -3.13849 -2.5 -1.98024
    endloop
  endfacet
endsolid OpenSCAD_Model
