solid OpenSCAD_Model
  facet normal -1 0 0
    outer loop
      vertex -5 -2.5 -2.5
      vertex -5 2.5 2.5
      vertex -5 2.5 -2.5
    endloop
  endfacet
  facet normal -1 -0 0
    outer loop
      vertex -5 2.5 2.5
      vertex -5 -2.5 -2.5
      vertex -5 -2.5 2.5
    endloop
  endfacet
  facet normal -0 0 1
    outer loop
      vertex -5 2.5 2.5
      vertex 5 -2.5 2.5
      vertex 5 2.5 2.5
    endloop
  endfacet
  facet normal 0 0 1
    outer loop
      vertex 5 -2.5 2.5
      vertex -5 2.5 2.5
      vertex -5 -2.5 2.5
    endloop
  endfacet
  facet normal 1 -0 0
    outer loop
      vertex 5 -2.5 2.5
      vertex 5 2.5 -2.5
      vertex 5 2.5 2.5
    endloop
  endfacet
  facet normal 1 0 0
    outer loop
      vertex 5 2.5 -2.5
      vertex 5 -2.5 2.5
      vertex 5 -2.5 -2.5
    endloop
  endfacet
  facet normal 0 1 0
    outer loop
      vertex 5 2.5 2.5
      vertex 0 2.5 0.999999
      vertex -5 2.5 2.5
    endloop
  endfacet
  facet normal 0 1 0
    outer loop
      vertex 5 2.5 2.5
      vertex 0.178953 2.5 0.994376
      vertex 0 2.5 0.999999
    endloop
  endfacet
  facet normal 0 1 0
    outer loop
      vertex 5 2.5 2.5
      vertex 0.238604 2.5 0.992501
      vertex 0.178953 2.5 0.994376
    endloop
  endfacet
  facet normal 0 1 0
    outer loop
      vertex 5 2.5 2.5
      vertex 0.476266 2.5 0.970036
      vertex 0.238604 2.5 0.992501
    endloop
  endfacet
  facet normal 0 1 0
    outer loop
      vertex 5 2.5 2.5
      vertex 0.712049 2.5 0.932691
      vertex 0.476266 2.5 0.970036
    endloop
  endfacet
  facet normal 0 1 0
    outer loop
      vertex 5 2.5 2.5
      vertex 0.945021 2.5 0.880615
      vertex 0.712049 2.5 0.932691
    endloop
  endfacet
  facet normal 0 1 0
    outer loop
      vertex 5 2.5 2.5
      vertex 1.17426 2.5 0.814014
      vertex 0.945021 2.5 0.880615
    endloop
  endfacet
  facet normal 0 1 0
    outer loop
      vertex 5 2.5 2.5
      vertex 1.39887 2.5 0.73315
      vertex 1.17426 2.5 0.814014
    endloop
  endfacet
  facet normal 0 1 0
    outer loop
      vertex 5 2.5 2.5
      vertex 1.61796 2.5 0.638342
      vertex 1.39887 2.5 0.73315
    endloop
  endfacet
  facet normal 0 1 0
    outer loop
      vertex 5 2.5 2.5
      vertex 1.83066 2.5 0.529964
      vertex 1.61796 2.5 0.638342
    endloop
  endfacet
  facet normal 0 1 0
    outer loop
      vertex 5 2.5 2.5
      vertex 2.03614 2.5 0.408445
      vertex 1.83066 2.5 0.529964
    endloop
  endfacet
  facet normal 0 1 0
    outer loop
      vertex 5 2.5 2.5
      vertex 2.23358 2.5 0.274264
      vertex 2.03614 2.5 0.408445
    endloop
  endfacet
  facet normal 0 1 0
    outer loop
      vertex 5 2.5 2.5
      vertex 2.42221 2.5 0.12795
      vertex 2.23358 2.5 0.274264
    endloop
  endfacet
  facet normal 0 1 0
    outer loop
      vertex 5 2.5 2.5
      vertex 2.60128 2.5 -0.0299187
      vertex 2.42221 2.5 0.12795
    endloop
  endfacet
  facet normal 0 1 0
    outer loop
      vertex 5 2.5 2.5
      vertex 2.77008 2.5 -0.198721
      vertex 2.60128 2.5 -0.0299187
    endloop
  endfacet
  facet normal 0 1 0
    outer loop
      vertex 5 2.5 2.5
      vertex 2.92795 2.5 -0.377789
      vertex 2.77008 2.5 -0.198721
    endloop
  endfacet
  facet normal 0 1 0
    outer loop
      vertex 5 2.5 2.5
      vertex 3.07426 2.5 -0.566416
      vertex 2.92795 2.5 -0.377789
    endloop
  endfacet
  facet normal 0 1 0
    outer loop
      vertex 5 2.5 2.5
      vertex 3.20845 2.5 -0.763858
      vertex 3.07426 2.5 -0.566416
    endloop
  endfacet
  facet normal 0 1 0
    outer loop
      vertex 5 2.5 2.5
      vertex 3.32996 2.5 -0.969336
      vertex 3.20845 2.5 -0.763858
    endloop
  endfacet
  facet normal 0 1 0
    outer loop
      vertex 5 2.5 2.5
      vertex 3.43834 2.5 -1.18204
      vertex 3.32996 2.5 -0.969336
    endloop
  endfacet
  facet normal 0 1 -0
    outer loop
      vertex 5 2.5 -2.5
      vertex 3.43834 2.5 -1.18204
      vertex 5 2.5 2.5
    endloop
  endfacet
  facet normal 0 1 0
    outer loop
      vertex 3.43834 2.5 -1.18204
      vertex 5 2.5 -2.5
      vertex 3.53315 2.5 -1.40113
    endloop
  endfacet
  facet normal 0 1 0
    outer loop
      vertex 3.53315 2.5 -1.40113
      vertex 5 2.5 -2.5
      vertex 3.61401 2.5 -1.62574
    endloop
  endfacet
  facet normal 0 1 0
    outer loop
      vertex 3.61401 2.5 -1.62574
      vertex 5 2.5 -2.5
      vertex 3.68062 2.5 -1.85498
    endloop
  endfacet
  facet normal 0 1 0
    outer loop
      vertex 3.68062 2.5 -1.85498
      vertex 5 2.5 -2.5
      vertex 3.73269 2.5 -2.08795
    endloop
  endfacet
  facet normal 0 1 0
    outer loop
      vertex 3.73269 2.5 -2.08795
      vertex 5 2.5 -2.5
      vertex 3.77004 2.5 -2.32373
    endloop
  endfacet
  facet normal 0 1 0
    outer loop
      vertex 3.77004 2.5 -2.32373
      vertex 5 2.5 -2.5
      vertex 3.7867 2.5 -2.5
    endloop
  endfacet
  facet normal 0 1 -0
    outer loop
      vertex -0.178953 2.5 0.994376
      vertex -5 2.5 2.5
      vertex 0 2.5 0.999999
    endloop
  endfacet
  facet normal 0 1 -0
    outer loop
      vertex -0.238604 2.5 0.992501
      vertex -5 2.5 2.5
      vertex -0.178953 2.5 0.994376
    endloop
  endfacet
  facet normal 0 1 -0
    outer loop
      vertex -0.476266 2.5 0.970036
      vertex -5 2.5 2.5
      vertex -0.238604 2.5 0.992501
    endloop
  endfacet
  facet normal 0 1 -0
    outer loop
      vertex -0.712049 2.5 0.932691
      vertex -5 2.5 2.5
      vertex -0.476266 2.5 0.970036
    endloop
  endfacet
  facet normal 0 1 -0
    outer loop
      vertex -0.945021 2.5 0.880615
      vertex -5 2.5 2.5
      vertex -0.712049 2.5 0.932691
    endloop
  endfacet
  facet normal 0 1 -0
    outer loop
      vertex -1.17426 2.5 0.814014
      vertex -5 2.5 2.5
      vertex -0.945021 2.5 0.880615
    endloop
  endfacet
  facet normal 0 1 -0
    outer loop
      vertex -1.39887 2.5 0.73315
      vertex -5 2.5 2.5
      vertex -1.17426 2.5 0.814014
    endloop
  endfacet
  facet normal 0 1 -0
    outer loop
      vertex -1.61796 2.5 0.638342
      vertex -5 2.5 2.5
      vertex -1.39887 2.5 0.73315
    endloop
  endfacet
  facet normal 0 1 -0
    outer loop
      vertex -1.83066 2.5 0.529964
      vertex -5 2.5 2.5
      vertex -1.61796 2.5 0.638342
    endloop
  endfacet
  facet normal 0 1 -0
    outer loop
      vertex -2.03614 2.5 0.408445
      vertex -5 2.5 2.5
      vertex -1.83066 2.5 0.529964
    endloop
  endfacet
  facet normal 0 1 -0
    outer loop
      vertex -2.23358 2.5 0.274264
      vertex -5 2.5 2.5
      vertex -2.03614 2.5 0.408445
    endloop
  endfacet
  facet normal 0 1 -0
    outer loop
      vertex -2.42221 2.5 0.12795
      vertex -5 2.5 2.5
      vertex -2.23358 2.5 0.274264
    endloop
  endfacet
  facet normal 0 1 -0
    outer loop
      vertex -2.60128 2.5 -0.0299187
      vertex -5 2.5 2.5
      vertex -2.42221 2.5 0.12795
    endloop
  endfacet
  facet normal 0 1 -0
    outer loop
      vertex -2.77008 2.5 -0.198721
      vertex -5 2.5 2.5
      vertex -2.60128 2.5 -0.0299187
    endloop
  endfacet
  facet normal 0 1 -0
    outer loop
      vertex -2.92795 2.5 -0.377789
      vertex -5 2.5 2.5
      vertex -2.77008 2.5 -0.198721
    endloop
  endfacet
  facet normal 0 1 -0
    outer loop
      vertex -3.07426 2.5 -0.566416
      vertex -5 2.5 2.5
      vertex -2.92795 2.5 -0.377789
    endloop
  endfacet
  facet normal 0 1 -0
    outer loop
      vertex -3.20845 2.5 -0.763858
      vertex -5 2.5 2.5
      vertex -3.07426 2.5 -0.566416
    endloop
  endfacet
  facet normal 0 1 -0
    outer loop
      vertex -3.32996 2.5 -0.969336
      vertex -5 2.5 2.5
      vertex -3.20845 2.5 -0.763858
    endloop
  endfacet
  facet normal 0 1 -0
    outer loop
      vertex -3.43834 2.5 -1.18204
      vertex -5 2.5 2.5
      vertex -3.32996 2.5 -0.969336
    endloop
  endfacet
  facet normal 0 1 0
    outer loop
      vertex -5 2.5 -2.5
      vertex -3.43834 2.5 -1.18204
      vertex -3.53315 2.5 -1.40113
    endloop
  endfacet
  facet normal 0 1 0
    outer loop
      vertex -5 2.5 -2.5
      vertex -3.53315 2.5 -1.40113
      vertex -3.61401 2.5 -1.62574
    endloop
  endfacet
  facet normal 0 1 0
    outer loop
      vertex -5 2.5 -2.5
      vertex -3.61401 2.5 -1.62574
      vertex -3.68062 2.5 -1.85498
    endloop
  endfacet
  facet normal 0 1 0
    outer loop
      vertex -5 2.5 -2.5
      vertex -3.68062 2.5 -1.85498
      vertex -3.73269 2.5 -2.08795
    endloop
  endfacet
  facet normal 0 1 0
    outer loop
      vertex -5 2.5 -2.5
      vertex -3.73269 2.5 -2.08795
      vertex -3.77004 2.5 -2.32373
    endloop
  endfacet
  facet normal 0 1 0
    outer loop
      vertex -5 2.5 -2.5
      vertex -3.77004 2.5 -2.32373
      vertex -3.7867 2.5 -2.5
    endloop
  endfacet
  facet normal 0 1 0
    outer loop
      vertex -3.43834 2.5 -1.18204
      vertex -5 2.5 -2.5
      vertex -5 2.5 2.5
    endloop
  endfacet
  facet normal 0 0 -1
    outer loop
      vertex -5 -2.5 -2.5
      vertex -3.7867 2.5 -2.5
      vertex -3.7867 -2.5 -2.5
    endloop
  endfacet
  facet normal -0 0 -1
    outer loop
      vertex -3.7867 2.5 -2.5
      vertex -5 -2.5 -2.5
      vertex -5 2.5 -2.5
    endloop
  endfacet
  facet normal 0 0 -1
    outer loop
      vertex 3.7867 -2.5 -2.5
      vertex 5 2.5 -2.5
      vertex 5 -2.5 -2.5
    endloop
  endfacet
  facet normal -0 0 -1
    outer loop
      vertex 5 2.5 -2.5
      vertex 3.7867 -2.5 -2.5
      vertex 3.7867 2.5 -2.5
    endloop
  endfacet
  facet normal 0 -1 0
    outer loop
      vertex -5 -2.5 2.5
      vertex 0 -2.5 1
      vertex 5 -2.5 2.5
    endloop
  endfacet
  facet normal 0 -1 0
    outer loop
      vertex -5 -2.5 2.5
      vertex -0.0596509 -2.5 0.998125
      vertex 0 -2.5 1
    endloop
  endfacet
  facet normal 0 -1 0
    outer loop
      vertex -5 -2.5 2.5
      vertex -0.238604 -2.5 0.992501
      vertex -0.0596509 -2.5 0.998125
    endloop
  endfacet
  facet normal 0 -1 0
    outer loop
      vertex -5 -2.5 2.5
      vertex -0.476266 -2.5 0.970036
      vertex -0.238604 -2.5 0.992501
    endloop
  endfacet
  facet normal 0 -1 0
    outer loop
      vertex -5 -2.5 2.5
      vertex -0.712049 -2.5 0.932691
      vertex -0.476266 -2.5 0.970036
    endloop
  endfacet
  facet normal 0 -1 0
    outer loop
      vertex -5 -2.5 2.5
      vertex -0.945021 -2.5 0.880615
      vertex -0.712049 -2.5 0.932691
    endloop
  endfacet
  facet normal 0 -1 0
    outer loop
      vertex -5 -2.5 2.5
      vertex -1.17426 -2.5 0.814014
      vertex -0.945021 -2.5 0.880615
    endloop
  endfacet
  facet normal 0 -1 0
    outer loop
      vertex -5 -2.5 2.5
      vertex -1.39887 -2.5 0.73315
      vertex -1.17426 -2.5 0.814014
    endloop
  endfacet
  facet normal 0 -1 0
    outer loop
      vertex -5 -2.5 2.5
      vertex -1.61796 -2.5 0.638342
      vertex -1.39887 -2.5 0.73315
    endloop
  endfacet
  facet normal 0 -1 0
    outer loop
      vertex -5 -2.5 2.5
      vertex -1.83066 -2.5 0.529964
      vertex -1.61796 -2.5 0.638342
    endloop
  endfacet
  facet normal 0 -1 0
    outer loop
      vertex -5 -2.5 2.5
      vertex -2.03614 -2.5 0.408445
      vertex -1.83066 -2.5 0.529964
    endloop
  endfacet
  facet normal 0 -1 0
    outer loop
      vertex -5 -2.5 2.5
      vertex -2.23358 -2.5 0.274264
      vertex -2.03614 -2.5 0.408445
    endloop
  endfacet
  facet normal 0 -1 0
    outer loop
      vertex -5 -2.5 2.5
      vertex -2.42221 -2.5 0.12795
      vertex -2.23358 -2.5 0.274264
    endloop
  endfacet
  facet normal 0 -1 0
    outer loop
      vertex -5 -2.5 2.5
      vertex -2.60128 -2.5 -0.0299187
      vertex -2.42221 -2.5 0.12795
    endloop
  endfacet
  facet normal 0 -1 0
    outer loop
      vertex -5 -2.5 2.5
      vertex -2.77008 -2.5 -0.198721
      vertex -2.60128 -2.5 -0.0299187
    endloop
  endfacet
  facet normal 0 -1 0
    outer loop
      vertex -5 -2.5 2.5
      vertex -2.92795 -2.5 -0.377789
      vertex -2.77008 -2.5 -0.198721
    endloop
  endfacet
  facet normal 0 -1 0
    outer loop
      vertex -5 -2.5 2.5
      vertex -3.07426 -2.5 -0.566416
      vertex -2.92795 -2.5 -0.377789
    endloop
  endfacet
  facet normal 0 -1 0
    outer loop
      vertex -5 -2.5 2.5
      vertex -3.20845 -2.5 -0.763858
      vertex -3.07426 -2.5 -0.566416
    endloop
  endfacet
  facet normal 0 -1 0
    outer loop
      vertex -5 -2.5 2.5
      vertex -3.32996 -2.5 -0.969336
      vertex -3.20845 -2.5 -0.763858
    endloop
  endfacet
  facet normal 0 -1 0
    outer loop
      vertex -5 -2.5 2.5
      vertex -3.43834 -2.5 -1.18204
      vertex -3.32996 -2.5 -0.969336
    endloop
  endfacet
  facet normal 0 -1 0
    outer loop
      vertex -5 -2.5 -2.5
      vertex -3.43834 -2.5 -1.18204
      vertex -5 -2.5 2.5
    endloop
  endfacet
  facet normal 0 -1 0
    outer loop
      vertex -3.43834 -2.5 -1.18204
      vertex -5 -2.5 -2.5
      vertex -3.53315 -2.5 -1.40113
    endloop
  endfacet
  facet normal 0 -1 0
    outer loop
      vertex -3.53315 -2.5 -1.40113
      vertex -5 -2.5 -2.5
      vertex -3.61401 -2.5 -1.62574
    endloop
  endfacet
  facet normal 0 -1 0
    outer loop
      vertex -3.61401 -2.5 -1.62574
      vertex -5 -2.5 -2.5
      vertex -3.68062 -2.5 -1.85498
    endloop
  endfacet
  facet normal 0 -1 0
    outer loop
      vertex -3.68062 -2.5 -1.85498
      vertex -5 -2.5 -2.5
      vertex -3.73269 -2.5 -2.08795
    endloop
  endfacet
  facet normal 0 -1 0
    outer loop
      vertex -3.73269 -2.5 -2.08795
      vertex -5 -2.5 -2.5
      vertex -3.77004 -2.5 -2.32373
    endloop
  endfacet
  facet normal 0 -1 0
    outer loop
      vertex -3.77004 -2.5 -2.32373
      vertex -5 -2.5 -2.5
      vertex -3.7867 -2.5 -2.5
    endloop
  endfacet
  facet normal 0 -1 0
    outer loop
      vertex 0.0596509 -2.5 0.998125
      vertex 5 -2.5 2.5
      vertex 0 -2.5 1
    endloop
  endfacet
  facet normal 0 -1 0
    outer loop
      vertex 0.238604 -2.5 0.992501
      vertex 5 -2.5 2.5
      vertex 0.0596509 -2.5 0.998125
    endloop
  endfacet
  facet normal 0 -1 0
    outer loop
      vertex 0.476266 -2.5 0.970036
      vertex 5 -2.5 2.5
      vertex 0.238604 -2.5 0.992501
    endloop
  endfacet
  facet normal 0 -1 0
    outer loop
      vertex 0.712049 -2.5 0.932691
      vertex 5 -2.5 2.5
      vertex 0.476266 -2.5 0.970036
    endloop
  endfacet
  facet normal 0 -1 0
    outer loop
      vertex 0.945021 -2.5 0.880615
      vertex 5 -2.5 2.5
      vertex 0.712049 -2.5 0.932691
    endloop
  endfacet
  facet normal 0 -1 0
    outer loop
      vertex 1.17426 -2.5 0.814014
      vertex 5 -2.5 2.5
      vertex 0.945021 -2.5 0.880615
    endloop
  endfacet
  facet normal 0 -1 0
    outer loop
      vertex 1.39887 -2.5 0.73315
      vertex 5 -2.5 2.5
      vertex 1.17426 -2.5 0.814014
    endloop
  endfacet
  facet normal 0 -1 0
    outer loop
      vertex 1.61796 -2.5 0.638342
      vertex 5 -2.5 2.5
      vertex 1.39887 -2.5 0.73315
    endloop
  endfacet
  facet normal 0 -1 0
    outer loop
      vertex 1.83066 -2.5 0.529964
      vertex 5 -2.5 2.5
      vertex 1.61796 -2.5 0.638342
    endloop
  endfacet
  facet normal 0 -1 0
    outer loop
      vertex 2.03614 -2.5 0.408445
      vertex 5 -2.5 2.5
      vertex 1.83066 -2.5 0.529964
    endloop
  endfacet
  facet normal 0 -1 0
    outer loop
      vertex 2.23358 -2.5 0.274264
      vertex 5 -2.5 2.5
      vertex 2.03614 -2.5 0.408445
    endloop
  endfacet
  facet normal 0 -1 0
    outer loop
      vertex 2.42221 -2.5 0.12795
      vertex 5 -2.5 2.5
      vertex 2.23358 -2.5 0.274264
    endloop
  endfacet
  facet normal 0 -1 0
    outer loop
      vertex 2.60128 -2.5 -0.0299187
      vertex 5 -2.5 2.5
      vertex 2.42221 -2.5 0.12795
    endloop
  endfacet
  facet normal 0 -1 0
    outer loop
      vertex 2.77008 -2.5 -0.198721
      vertex 5 -2.5 2.5
      vertex 2.60128 -2.5 -0.0299187
    endloop
  endfacet
  facet normal 0 -1 0
    outer loop
      vertex 2.92795 -2.5 -0.377789
      vertex 5 -2.5 2.5
      vertex 2.77008 -2.5 -0.198721
    endloop
  endfacet
  facet normal 0 -1 0
    outer loop
      vertex 3.07426 -2.5 -0.566416
      vertex 5 -2.5 2.5
      vertex 2.92795 -2.5 -0.377789
    endloop
  endfacet
  facet normal 0 -1 0
    outer loop
      vertex 3.20845 -2.5 -0.763858
      vertex 5 -2.5 2.5
      vertex 3.07426 -2.5 -0.566416
    endloop
  endfacet
  facet normal 0 -1 0
    outer loop
      vertex 3.32996 -2.5 -0.969336
      vertex 5 -2.5 2.5
      vertex 3.20845 -2.5 -0.763858
    endloop
  endfacet
  facet normal 0 -1 0
    outer loop
      vertex 3.43834 -2.5 -1.18204
      vertex 5 -2.5 2.5
      vertex 3.32996 -2.5 -0.969336
    endloop
  endfacet
  facet normal 0 -1 0
    outer loop
      vertex 5 -2.5 -2.5
      vertex 3.43834 -2.5 -1.18204
      vertex 3.53315 -2.5 -1.40113
    endloop
  endfacet
  facet normal 0 -1 0
    outer loop
      vertex 5 -2.5 -2.5
      vertex 3.53315 -2.5 -1.40113
      vertex 3.61401 -2.5 -1.62574
    endloop
  endfacet
  facet normal 0 -1 0
    outer loop
      vertex 5 -2.5 -2.5
      vertex 3.61401 -2.5 -1.62574
      vertex 3.68062 -2.5 -1.85498
    endloop
  endfacet
  facet normal 0 -1 0
    outer loop
      vertex 5 -2.5 -2.5
      vertex 3.68062 -2.5 -1.85498
      vertex 3.73269 -2.5 -2.08795
    endloop
  endfacet
  facet normal 0 -1 0
    outer loop
      vertex 5 -2.5 -2.5
      vertex 3.73269 -2.5 -2.08795
      vertex 3.77004 -2.5 -2.32373
    endloop
  endfacet
  facet normal 0 -1 0
    outer loop
      vertex 5 -2.5 -2.5
      vertex 3.77004 -2.5 -2.32373
      vertex 3.7867 -2.5 -2.5
    endloop
  endfacet
  facet normal 0 -1 0
    outer loop
      vertex 3.43834 -2.5 -1.18204
      vertex 5 -2.5 -2.5
      vertex 5 -2.5 2.5
    endloop
  endfacet
  facet normal -0.995562 0 -0.0941084
    outer loop
      vertex 3.7867 -2.5 -2.5
      vertex 3.77004 2.5 -2.32373
      vertex 3.7867 2.5 -2.5
    endloop
  endfacet
  facet normal -0.995562 -0 -0.0941084
    outer loop
      vertex 3.77004 2.5 -2.32373
      vertex 3.7867 -2.5 -2.5
      vertex 3.77004 -2.5 -2.32373
    endloop
  endfacet
  facet normal 0.0314081 -9.53204e-08 -0.999507
    outer loop
      vertex -0.0596509 -2.5 0.998125
      vertex 0 2.5 0.999999
      vertex 0 -2.5 1
    endloop
  endfacet
  facet normal 0.0314081 -9.53204e-08 -0.999507
    outer loop
      vertex 0 2.5 0.999999
      vertex -0.0596509 -2.5 0.998125
      vertex -0.178953 2.5 0.994376
    endloop
  endfacet
  facet normal 0.0941083 0 -0.995562
    outer loop
      vertex -0.476266 -2.5 0.970036
      vertex -0.238604 2.5 0.992501
      vertex -0.238604 -2.5 0.992501
    endloop
  endfacet
  facet normal 0.0941083 0 -0.995562
    outer loop
      vertex -0.238604 2.5 0.992501
      vertex -0.476266 -2.5 0.970036
      vertex -0.476266 2.5 0.970036
    endloop
  endfacet
  facet normal -0.975917 0 -0.218142
    outer loop
      vertex 3.73269 -2.5 -2.08795
      vertex 3.68062 2.5 -1.85498
      vertex 3.73269 2.5 -2.08795
    endloop
  endfacet
  facet normal -0.975917 -0 -0.218142
    outer loop
      vertex 3.68062 2.5 -1.85498
      vertex 3.73269 -2.5 -2.08795
      vertex 3.68062 -2.5 -1.85498
    endloop
  endfacet
  facet normal 0.0314121 0 -0.999507
    outer loop
      vertex -0.238604 -2.5 0.992501
      vertex -0.178953 2.5 0.994376
      vertex -0.0596509 -2.5 0.998125
    endloop
  endfacet
  facet normal 0.0314121 0 -0.999507
    outer loop
      vertex -0.178953 2.5 0.994376
      vertex -0.238604 -2.5 0.992501
      vertex -0.238604 2.5 0.992501
    endloop
  endfacet
  facet normal 0.987688 0 -0.156437
    outer loop
      vertex -3.73269 -2.5 -2.08795
      vertex -3.77004 2.5 -2.32373
      vertex -3.73269 2.5 -2.08795
    endloop
  endfacet
  facet normal 0.987688 0 -0.156437
    outer loop
      vertex -3.77004 2.5 -2.32373
      vertex -3.73269 -2.5 -2.08795
      vertex -3.77004 -2.5 -2.32373
    endloop
  endfacet
  facet normal 0.960294 0 -0.27899
    outer loop
      vertex -3.61401 -2.5 -1.62574
      vertex -3.68062 2.5 -1.85498
      vertex -3.61401 2.5 -1.62574
    endloop
  endfacet
  facet normal 0.960294 0 -0.27899
    outer loop
      vertex -3.68062 2.5 -1.85498
      vertex -3.61401 -2.5 -1.62574
      vertex -3.68062 -2.5 -1.85498
    endloop
  endfacet
  facet normal 0.338738 0 -0.940881
    outer loop
      vertex -1.39887 -2.5 0.73315
      vertex -1.17426 2.5 0.814014
      vertex -1.17426 -2.5 0.814014
    endloop
  endfacet
  facet normal 0.338738 0 -0.940881
    outer loop
      vertex -1.17426 2.5 0.814014
      vertex -1.39887 -2.5 0.73315
      vertex -1.39887 2.5 0.73315
    endloop
  endfacet
  facet normal -0.338738 0 -0.940881
    outer loop
      vertex 1.17426 -2.5 0.814014
      vertex 1.39887 2.5 0.73315
      vertex 1.39887 -2.5 0.73315
    endloop
  endfacet
  facet normal -0.338738 0 -0.940881
    outer loop
      vertex 1.39887 2.5 0.73315
      vertex 1.17426 -2.5 0.814014
      vertex 1.17426 2.5 0.814014
    endloop
  endfacet
  facet normal 0.975917 0 -0.218142
    outer loop
      vertex -3.68062 -2.5 -1.85498
      vertex -3.73269 2.5 -2.08795
      vertex -3.68062 2.5 -1.85498
    endloop
  endfacet
  facet normal 0.975917 0 -0.218142
    outer loop
      vertex -3.73269 2.5 -2.08795
      vertex -3.68062 -2.5 -1.85498
      vertex -3.73269 -2.5 -2.08795
    endloop
  endfacet
  facet normal -0.827081 0 -0.562082
    outer loop
      vertex 3.20845 -2.5 -0.763858
      vertex 3.07426 2.5 -0.566416
      vertex 3.20845 2.5 -0.763858
    endloop
  endfacet
  facet normal -0.827081 -0 -0.562082
    outer loop
      vertex 3.07426 2.5 -0.566416
      vertex 3.20845 -2.5 -0.763858
      vertex 3.07426 -2.5 -0.566416
    endloop
  endfacet
  facet normal -0.0941083 0 -0.995562
    outer loop
      vertex 0.238604 -2.5 0.992501
      vertex 0.476266 2.5 0.970036
      vertex 0.476266 -2.5 0.970036
    endloop
  endfacet
  facet normal -0.0941083 0 -0.995562
    outer loop
      vertex 0.476266 2.5 0.970036
      vertex 0.238604 -2.5 0.992501
      vertex 0.238604 2.5 0.992501
    endloop
  endfacet
  facet normal 0.995562 0 -0.0941084
    outer loop
      vertex -3.77004 -2.5 -2.32373
      vertex -3.7867 2.5 -2.5
      vertex -3.77004 2.5 -2.32373
    endloop
  endfacet
  facet normal 0.995562 0 -0.0941084
    outer loop
      vertex -3.7867 2.5 -2.5
      vertex -3.77004 -2.5 -2.32373
      vertex -3.7867 -2.5 -2.5
    endloop
  endfacet
  facet normal 0.218143 0 -0.975917
    outer loop
      vertex -0.945021 -2.5 0.880615
      vertex -0.712049 2.5 0.932691
      vertex -0.712049 -2.5 0.932691
    endloop
  endfacet
  facet normal 0.218143 0 -0.975917
    outer loop
      vertex -0.712049 2.5 0.932691
      vertex -0.945021 -2.5 0.880615
      vertex -0.945021 2.5 0.880615
    endloop
  endfacet
  facet normal 0.45399 0 -0.891007
    outer loop
      vertex -1.83066 -2.5 0.529964
      vertex -1.61796 2.5 0.638342
      vertex -1.61796 -2.5 0.638342
    endloop
  endfacet
  facet normal 0.45399 0 -0.891007
    outer loop
      vertex -1.61796 2.5 0.638342
      vertex -1.83066 -2.5 0.529964
      vertex -1.83066 2.5 0.529964
    endloop
  endfacet
  facet normal 0.66131 0 -0.750113
    outer loop
      vertex -2.60128 -2.5 -0.0299187
      vertex -2.42221 2.5 0.12795
      vertex -2.42221 -2.5 0.12795
    endloop
  endfacet
  facet normal 0.66131 0 -0.750113
    outer loop
      vertex -2.42221 2.5 0.12795
      vertex -2.60128 -2.5 -0.0299187
      vertex -2.60128 2.5 -0.0299187
    endloop
  endfacet
  facet normal -0.278989 0 -0.960294
    outer loop
      vertex 0.945021 -2.5 0.880615
      vertex 1.17426 2.5 0.814014
      vertex 1.17426 -2.5 0.814014
    endloop
  endfacet
  facet normal -0.278989 0 -0.960294
    outer loop
      vertex 1.17426 2.5 0.814014
      vertex 0.945021 -2.5 0.880615
      vertex 0.945021 2.5 0.880615
    endloop
  endfacet
  facet normal -0.156437 0 -0.987688
    outer loop
      vertex 0.476266 -2.5 0.970036
      vertex 0.712049 2.5 0.932691
      vertex 0.712049 -2.5 0.932691
    endloop
  endfacet
  facet normal -0.156437 0 -0.987688
    outer loop
      vertex 0.712049 2.5 0.932691
      vertex 0.476266 -2.5 0.970036
      vertex 0.476266 2.5 0.970036
    endloop
  endfacet
  facet normal -0.612908 0 -0.790154
    outer loop
      vertex 2.23358 -2.5 0.274264
      vertex 2.42221 2.5 0.12795
      vertex 2.42221 -2.5 0.12795
    endloop
  endfacet
  facet normal -0.612908 0 -0.790154
    outer loop
      vertex 2.42221 2.5 0.12795
      vertex 2.23358 -2.5 0.274264
      vertex 2.23358 2.5 0.274264
    endloop
  endfacet
  facet normal -0.987688 0 -0.156437
    outer loop
      vertex 3.77004 -2.5 -2.32373
      vertex 3.73269 2.5 -2.08795
      vertex 3.77004 2.5 -2.32373
    endloop
  endfacet
  facet normal -0.987688 -0 -0.156437
    outer loop
      vertex 3.73269 2.5 -2.08795
      vertex 3.77004 -2.5 -2.32373
      vertex 3.73269 -2.5 -2.08795
    endloop
  endfacet
  facet normal -0.790154 0 -0.612908
    outer loop
      vertex 3.07426 -2.5 -0.566416
      vertex 2.92795 2.5 -0.377789
      vertex 3.07426 2.5 -0.566416
    endloop
  endfacet
  facet normal -0.790154 -0 -0.612908
    outer loop
      vertex 2.92795 2.5 -0.377789
      vertex 3.07426 -2.5 -0.566416
      vertex 2.92795 -2.5 -0.377789
    endloop
  endfacet
  facet normal -0.707107 0 -0.707107
    outer loop
      vertex 2.77008 -2.5 -0.198721
      vertex 2.60128 2.5 -0.0299187
      vertex 2.77008 2.5 -0.198721
    endloop
  endfacet
  facet normal -0.707107 -0 -0.707107
    outer loop
      vertex 2.60128 2.5 -0.0299187
      vertex 2.77008 -2.5 -0.198721
      vertex 2.60128 -2.5 -0.0299187
    endloop
  endfacet
  facet normal 0.278989 0 -0.960294
    outer loop
      vertex -1.17426 -2.5 0.814014
      vertex -0.945021 2.5 0.880615
      vertex -0.945021 -2.5 0.880615
    endloop
  endfacet
  facet normal 0.278989 0 -0.960294
    outer loop
      vertex -0.945021 2.5 0.880615
      vertex -1.17426 -2.5 0.814014
      vertex -1.17426 2.5 0.814014
    endloop
  endfacet
  facet normal 0.562082 0 -0.827081
    outer loop
      vertex -2.23358 -2.5 0.274264
      vertex -2.03614 2.5 0.408445
      vertex -2.03614 -2.5 0.408445
    endloop
  endfacet
  facet normal 0.562082 0 -0.827081
    outer loop
      vertex -2.03614 2.5 0.408445
      vertex -2.23358 -2.5 0.274264
      vertex -2.23358 2.5 0.274264
    endloop
  endfacet
  facet normal 0.707107 0 -0.707107
    outer loop
      vertex -2.60128 -2.5 -0.0299187
      vertex -2.77008 2.5 -0.198721
      vertex -2.60128 2.5 -0.0299187
    endloop
  endfacet
  facet normal 0.707107 0 -0.707107
    outer loop
      vertex -2.77008 2.5 -0.198721
      vertex -2.60128 -2.5 -0.0299187
      vertex -2.77008 -2.5 -0.198721
    endloop
  endfacet
  facet normal 0.790154 0 -0.612908
    outer loop
      vertex -2.92795 -2.5 -0.377789
      vertex -3.07426 2.5 -0.566416
      vertex -2.92795 2.5 -0.377789
    endloop
  endfacet
  facet normal 0.790154 0 -0.612908
    outer loop
      vertex -3.07426 2.5 -0.566416
      vertex -2.92795 -2.5 -0.377789
      vertex -3.07426 -2.5 -0.566416
    endloop
  endfacet
  facet normal 0.94088 0 -0.33874
    outer loop
      vertex -3.53315 -2.5 -1.40113
      vertex -3.61401 2.5 -1.62574
      vertex -3.53315 2.5 -1.40113
    endloop
  endfacet
  facet normal 0.94088 0 -0.33874
    outer loop
      vertex -3.61401 2.5 -1.62574
      vertex -3.53315 -2.5 -1.40113
      vertex -3.61401 -2.5 -1.62574
    endloop
  endfacet
  facet normal 0.917755 0 -0.397148
    outer loop
      vertex -3.43834 -2.5 -1.18204
      vertex -3.53315 2.5 -1.40113
      vertex -3.43834 2.5 -1.18204
    endloop
  endfacet
  facet normal 0.917755 0 -0.397148
    outer loop
      vertex -3.53315 2.5 -1.40113
      vertex -3.43834 -2.5 -1.18204
      vertex -3.53315 -2.5 -1.40113
    endloop
  endfacet
  facet normal 0.891007 0 -0.45399
    outer loop
      vertex -3.32996 -2.5 -0.969336
      vertex -3.43834 2.5 -1.18204
      vertex -3.32996 2.5 -0.969336
    endloop
  endfacet
  facet normal 0.891007 0 -0.45399
    outer loop
      vertex -3.43834 2.5 -1.18204
      vertex -3.32996 -2.5 -0.969336
      vertex -3.43834 -2.5 -1.18204
    endloop
  endfacet
  facet normal -0.0314081 -9.53204e-08 -0.999507
    outer loop
      vertex 0 2.5 0.999999
      vertex 0.0596509 -2.5 0.998125
      vertex 0 -2.5 1
    endloop
  endfacet
  facet normal -0.0314081 -9.53204e-08 -0.999507
    outer loop
      vertex 0.0596509 -2.5 0.998125
      vertex 0 2.5 0.999999
      vertex 0.178953 2.5 0.994376
    endloop
  endfacet
  facet normal -0.0314121 0 -0.999507
    outer loop
      vertex 0.238604 -2.5 0.992501
      vertex 0.178953 2.5 0.994376
      vertex 0.238604 2.5 0.992501
    endloop
  endfacet
  facet normal -0.0314121 0 -0.999507
    outer loop
      vertex 0.178953 2.5 0.994376
      vertex 0.238604 -2.5 0.992501
      vertex 0.0596509 -2.5 0.998125
    endloop
  endfacet
  facet normal -0.218143 0 -0.975917
    outer loop
      vertex 0.712049 -2.5 0.932691
      vertex 0.945021 2.5 0.880615
      vertex 0.945021 -2.5 0.880615
    endloop
  endfacet
  facet normal -0.218143 0 -0.975917
    outer loop
      vertex 0.945021 2.5 0.880615
      vertex 0.712049 -2.5 0.932691
      vertex 0.712049 2.5 0.932691
    endloop
  endfacet
  facet normal -0.509041 0 -0.860742
    outer loop
      vertex 1.83066 -2.5 0.529964
      vertex 2.03614 2.5 0.408445
      vertex 2.03614 -2.5 0.408445
    endloop
  endfacet
  facet normal -0.509041 0 -0.860742
    outer loop
      vertex 2.03614 2.5 0.408445
      vertex 1.83066 -2.5 0.529964
      vertex 1.83066 2.5 0.529964
    endloop
  endfacet
  facet normal -0.45399 0 -0.891007
    outer loop
      vertex 1.61796 -2.5 0.638342
      vertex 1.83066 2.5 0.529964
      vertex 1.83066 -2.5 0.529964
    endloop
  endfacet
  facet normal -0.45399 0 -0.891007
    outer loop
      vertex 1.83066 2.5 0.529964
      vertex 1.61796 -2.5 0.638342
      vertex 1.61796 2.5 0.638342
    endloop
  endfacet
  facet normal -0.39715 0 -0.917754
    outer loop
      vertex 1.39887 -2.5 0.73315
      vertex 1.61796 2.5 0.638342
      vertex 1.61796 -2.5 0.638342
    endloop
  endfacet
  facet normal -0.39715 0 -0.917754
    outer loop
      vertex 1.61796 2.5 0.638342
      vertex 1.39887 -2.5 0.73315
      vertex 1.39887 2.5 0.73315
    endloop
  endfacet
  facet normal -0.66131 0 -0.750113
    outer loop
      vertex 2.42221 -2.5 0.12795
      vertex 2.60128 2.5 -0.0299187
      vertex 2.60128 -2.5 -0.0299187
    endloop
  endfacet
  facet normal -0.66131 0 -0.750113
    outer loop
      vertex 2.60128 2.5 -0.0299187
      vertex 2.42221 -2.5 0.12795
      vertex 2.42221 2.5 0.12795
    endloop
  endfacet
  facet normal -0.891007 0 -0.45399
    outer loop
      vertex 3.43834 -2.5 -1.18204
      vertex 3.32996 2.5 -0.969336
      vertex 3.43834 2.5 -1.18204
    endloop
  endfacet
  facet normal -0.891007 -0 -0.45399
    outer loop
      vertex 3.32996 2.5 -0.969336
      vertex 3.43834 -2.5 -1.18204
      vertex 3.32996 -2.5 -0.969336
    endloop
  endfacet
  facet normal -0.860742 0 -0.509041
    outer loop
      vertex 3.32996 -2.5 -0.969336
      vertex 3.20845 2.5 -0.763858
      vertex 3.32996 2.5 -0.969336
    endloop
  endfacet
  facet normal -0.860742 -0 -0.509041
    outer loop
      vertex 3.20845 2.5 -0.763858
      vertex 3.32996 -2.5 -0.969336
      vertex 3.20845 -2.5 -0.763858
    endloop
  endfacet
  facet normal -0.750111 0 -0.661312
    outer loop
      vertex 2.92795 -2.5 -0.377789
      vertex 2.77008 2.5 -0.198721
      vertex 2.92795 2.5 -0.377789
    endloop
  endfacet
  facet normal -0.750111 -0 -0.661312
    outer loop
      vertex 2.77008 2.5 -0.198721
      vertex 2.92795 -2.5 -0.377789
      vertex 2.77008 -2.5 -0.198721
    endloop
  endfacet
  facet normal -0.94088 0 -0.33874
    outer loop
      vertex 3.61401 -2.5 -1.62574
      vertex 3.53315 2.5 -1.40113
      vertex 3.61401 2.5 -1.62574
    endloop
  endfacet
  facet normal -0.94088 -0 -0.33874
    outer loop
      vertex 3.53315 2.5 -1.40113
      vertex 3.61401 -2.5 -1.62574
      vertex 3.53315 -2.5 -1.40113
    endloop
  endfacet
  facet normal -0.917755 0 -0.397148
    outer loop
      vertex 3.53315 -2.5 -1.40113
      vertex 3.43834 2.5 -1.18204
      vertex 3.53315 2.5 -1.40113
    endloop
  endfacet
  facet normal -0.917755 -0 -0.397148
    outer loop
      vertex 3.43834 2.5 -1.18204
      vertex 3.53315 -2.5 -1.40113
      vertex 3.43834 -2.5 -1.18204
    endloop
  endfacet
  facet normal -0.960294 0 -0.27899
    outer loop
      vertex 3.68062 -2.5 -1.85498
      vertex 3.61401 2.5 -1.62574
      vertex 3.68062 2.5 -1.85498
    endloop
  endfacet
  facet normal -0.960294 -0 -0.27899
    outer loop
      vertex 3.61401 2.5 -1.62574
      vertex 3.68062 -2.5 -1.85498
      vertex 3.61401 -2.5 -1.62574
    endloop
  endfacet
  facet normal 0.156437 0 -0.987688
    outer loop
      vertex -0.712049 -2.5 0.932691
      vertex -0.476266 2.5 0.970036
      vertex -0.476266 -2.5 0.970036
    endloop
  endfacet
  facet normal 0.156437 0 -0.987688
    outer loop
      vertex -0.476266 2.5 0.970036
      vertex -0.712049 -2.5 0.932691
      vertex -0.712049 2.5 0.932691
    endloop
  endfacet
  facet normal 0.509041 0 -0.860742
    outer loop
      vertex -2.03614 -2.5 0.408445
      vertex -1.83066 2.5 0.529964
      vertex -1.83066 -2.5 0.529964
    endloop
  endfacet
  facet normal 0.509041 0 -0.860742
    outer loop
      vertex -1.83066 2.5 0.529964
      vertex -2.03614 -2.5 0.408445
      vertex -2.03614 2.5 0.408445
    endloop
  endfacet
  facet normal 0.39715 0 -0.917754
    outer loop
      vertex -1.61796 -2.5 0.638342
      vertex -1.39887 2.5 0.73315
      vertex -1.39887 -2.5 0.73315
    endloop
  endfacet
  facet normal 0.39715 0 -0.917754
    outer loop
      vertex -1.39887 2.5 0.73315
      vertex -1.61796 -2.5 0.638342
      vertex -1.61796 2.5 0.638342
    endloop
  endfacet
  facet normal 0.612908 0 -0.790154
    outer loop
      vertex -2.42221 -2.5 0.12795
      vertex -2.23358 2.5 0.274264
      vertex -2.23358 -2.5 0.274264
    endloop
  endfacet
  facet normal 0.612908 0 -0.790154
    outer loop
      vertex -2.23358 2.5 0.274264
      vertex -2.42221 -2.5 0.12795
      vertex -2.42221 2.5 0.12795
    endloop
  endfacet
  facet normal -0.562082 0 -0.827081
    outer loop
      vertex 2.03614 -2.5 0.408445
      vertex 2.23358 2.5 0.274264
      vertex 2.23358 -2.5 0.274264
    endloop
  endfacet
  facet normal -0.562082 0 -0.827081
    outer loop
      vertex 2.23358 2.5 0.274264
      vertex 2.03614 -2.5 0.408445
      vertex 2.03614 2.5 0.408445
    endloop
  endfacet
  facet normal 0.827081 0 -0.562082
    outer loop
      vertex -3.07426 -2.5 -0.566416
      vertex -3.20845 2.5 -0.763858
      vertex -3.07426 2.5 -0.566416
    endloop
  endfacet
  facet normal 0.827081 0 -0.562082
    outer loop
      vertex -3.20845 2.5 -0.763858
      vertex -3.07426 -2.5 -0.566416
      vertex -3.20845 -2.5 -0.763858
    endloop
  endfacet
  facet normal 0.860742 0 -0.509041
    outer loop
      vertex -3.20845 -2.5 -0.763858
      vertex -3.32996 2.5 -0.969336
      vertex -3.20845 2.5 -0.763858
    endloop
  endfacet
  facet normal 0.860742 0 -0.509041
    outer loop
      vertex -3.32996 2.5 -0.969336
      vertex -3.20845 -2.5 -0.763858
      vertex -3.32996 -2.5 -0.969336
    endloop
  endfacet
  facet normal 0.750111 0 -0.661312
    outer loop
      vertex -2.77008 -2.5 -0.198721
      vertex -2.92795 2.5 -0.377789
      vertex -2.77008 2.5 -0.198721
    endloop
  endfacet
  facet normal 0.750111 0 -0.661312
    outer loop
      vertex -2.92795 2.5 -0.377789
      vertex -2.77008 -2.5 -0.198721
      vertex -2.92795 -2.5 -0.377789
    endloop
  endfacet
endsolid OpenSCAD_Model
