solid OpenSCAD_Model
  facet normal -1 0 0
    outer loop
      vertex -5 -2.5 -2.5
      vertex -5 2.5 2.5
      vertex -5 2.5 -2.5
    endloop
  endfacet
  facet normal -1 -0 0
    outer loop
      vertex -5 2.5 2.5
      vertex -5 -2.5 -2.5
      vertex -5 -2.5 2.5
    endloop
  endfacet
  facet normal -0 0 1
    outer loop
      vertex -5 2.5 2.5
      vertex 5 -2.5 2.5
      vertex 5 2.5 2.5
    endloop
  endfacet
  facet normal 0 0 1
    outer loop
      vertex 5 -2.5 2.5
      vertex -5 2.5 2.5
      vertex -5 -2.5 2.5
    endloop
  endfacet
  facet normal 1 -0 0
    outer loop
      vertex 5 -2.5 2.5
      vertex 5 2.5 -2.5
      vertex 5 2.5 2.5
    endloop
  endfacet
  facet normal 1 0 0
    outer loop
      vertex 5 2.5 -2.5
      vertex 5 -2.5 2.5
      vertex 5 -2.5 -2.5
    endloop
  endfacet
  facet normal 0 1 0
    outer loop
      vertex 5 2.5 2.5
      vertex 0 2.5 1.2
      vertex -5 2.5 2.5
    endloop
  endfacet
  facet normal 0 1 0
    outer loop
      vertex 5 2.5 2.5
      vertex 0.232325 2.5 1.1927
      vertex 0 2.5 1.2
    endloop
  endfacet
  facet normal 0 1 0
    outer loop
      vertex 5 2.5 2.5
      vertex 0.463733 2.5 1.17082
      vertex 0.232325 2.5 1.1927
    endloop
  endfacet
  facet normal 0 1 0
    outer loop
      vertex 5 2.5 2.5
      vertex 0.693311 2.5 1.13446
      vertex 0.463733 2.5 1.17082
    endloop
  endfacet
  facet normal 0 1 0
    outer loop
      vertex 5 2.5 2.5
      vertex 0.920152 2.5 1.08376
      vertex 0.693311 2.5 1.13446
    endloop
  endfacet
  facet normal 0 1 0
    outer loop
      vertex 5 2.5 2.5
      vertex 1.14336 2.5 1.01891
      vertex 0.920152 2.5 1.08376
    endloop
  endfacet
  facet normal 0 1 0
    outer loop
      vertex 5 2.5 2.5
      vertex 1.36206 2.5 0.940172
      vertex 1.14336 2.5 1.01891
    endloop
  endfacet
  facet normal 0 1 0
    outer loop
      vertex 5 2.5 2.5
      vertex 1.57538 2.5 0.847859
      vertex 1.36206 2.5 0.940172
    endloop
  endfacet
  facet normal 0 1 0
    outer loop
      vertex 5 2.5 2.5
      vertex 1.78249 2.5 0.742334
      vertex 1.57538 2.5 0.847859
    endloop
  endfacet
  facet normal 0 1 0
    outer loop
      vertex 5 2.5 2.5
      vertex 1.98256 2.5 0.624013
      vertex 1.78249 2.5 0.742334
    endloop
  endfacet
  facet normal 0 1 0
    outer loop
      vertex 5 2.5 2.5
      vertex 2.1748 2.5 0.493362
      vertex 1.98256 2.5 0.624013
    endloop
  endfacet
  facet normal 0 1 0
    outer loop
      vertex 5 2.5 2.5
      vertex 2.35847 2.5 0.350899
      vertex 2.1748 2.5 0.493362
    endloop
  endfacet
  facet normal 0 1 0
    outer loop
      vertex 5 2.5 2.5
      vertex 2.53282 2.5 0.197184
      vertex 2.35847 2.5 0.350899
    endloop
  endfacet
  facet normal 0 1 0
    outer loop
      vertex 5 2.5 2.5
      vertex 2.69718 2.5 0.0328236
      vertex 2.53282 2.5 0.197184
    endloop
  endfacet
  facet normal 0 1 0
    outer loop
      vertex 5 2.5 2.5
      vertex 2.8509 2.5 -0.141531
      vertex 2.69718 2.5 0.0328236
    endloop
  endfacet
  facet normal 0 1 0
    outer loop
      vertex 5 2.5 2.5
      vertex 2.99336 2.5 -0.325194
      vertex 2.8509 2.5 -0.141531
    endloop
  endfacet
  facet normal 0 1 0
    outer loop
      vertex 5 2.5 2.5
      vertex 3.12401 2.5 -0.517441
      vertex 2.99336 2.5 -0.325194
    endloop
  endfacet
  facet normal 0 1 0
    outer loop
      vertex 5 2.5 2.5
      vertex 3.24233 2.5 -0.717511
      vertex 3.12401 2.5 -0.517441
    endloop
  endfacet
  facet normal 0 1 0
    outer loop
      vertex 5 2.5 2.5
      vertex 3.34786 2.5 -0.924616
      vertex 3.24233 2.5 -0.717511
    endloop
  endfacet
  facet normal 0 1 0
    outer loop
      vertex 5 2.5 2.5
      vertex 3.44017 2.5 -1.13794
      vertex 3.34786 2.5 -0.924616
    endloop
  endfacet
  facet normal 0 1 -0
    outer loop
      vertex 5 2.5 -2.5
      vertex 3.44017 2.5 -1.13794
      vertex 5 2.5 2.5
    endloop
  endfacet
  facet normal 0 1 0
    outer loop
      vertex 3.44017 2.5 -1.13794
      vertex 5 2.5 -2.5
      vertex 3.51891 2.5 -1.35664
    endloop
  endfacet
  facet normal 0 1 0
    outer loop
      vertex 3.51891 2.5 -1.35664
      vertex 5 2.5 -2.5
      vertex 3.58376 2.5 -1.57985
    endloop
  endfacet
  facet normal 0 1 0
    outer loop
      vertex 3.58376 2.5 -1.57985
      vertex 5 2.5 -2.5
      vertex 3.63446 2.5 -1.80669
    endloop
  endfacet
  facet normal 0 1 0
    outer loop
      vertex 3.63446 2.5 -1.80669
      vertex 5 2.5 -2.5
      vertex 3.67082 2.5 -2.03627
    endloop
  endfacet
  facet normal 0 1 0
    outer loop
      vertex 3.67082 2.5 -2.03627
      vertex 5 2.5 -2.5
      vertex 3.6927 2.5 -2.26767
    endloop
  endfacet
  facet normal 0 1 0
    outer loop
      vertex 3.6927 2.5 -2.26767
      vertex 5 2.5 -2.5
      vertex 3.69452 2.5 -2.32576
    endloop
  endfacet
  facet normal 0 1 0
    outer loop
      vertex 3.69452 2.5 -2.32576
      vertex 5 2.5 -2.5
      vertex 3.7 2.5 -2.5
    endloop
  endfacet
  facet normal 0 1 -0
    outer loop
      vertex -0.232325 2.5 1.1927
      vertex -5 2.5 2.5
      vertex 0 2.5 1.2
    endloop
  endfacet
  facet normal 0 1 -0
    outer loop
      vertex -0.463733 2.5 1.17082
      vertex -5 2.5 2.5
      vertex -0.232325 2.5 1.1927
    endloop
  endfacet
  facet normal 0 1 -0
    outer loop
      vertex -0.693311 2.5 1.13446
      vertex -5 2.5 2.5
      vertex -0.463733 2.5 1.17082
    endloop
  endfacet
  facet normal 0 1 -0
    outer loop
      vertex -0.920152 2.5 1.08376
      vertex -5 2.5 2.5
      vertex -0.693311 2.5 1.13446
    endloop
  endfacet
  facet normal 0 1 -0
    outer loop
      vertex -1.14336 2.5 1.01891
      vertex -5 2.5 2.5
      vertex -0.920152 2.5 1.08376
    endloop
  endfacet
  facet normal 0 1 -0
    outer loop
      vertex -1.36206 2.5 0.940172
      vertex -5 2.5 2.5
      vertex -1.14336 2.5 1.01891
    endloop
  endfacet
  facet normal 0 1 -0
    outer loop
      vertex -1.57538 2.5 0.847859
      vertex -5 2.5 2.5
      vertex -1.36206 2.5 0.940172
    endloop
  endfacet
  facet normal 0 1 -0
    outer loop
      vertex -1.78249 2.5 0.742334
      vertex -5 2.5 2.5
      vertex -1.57538 2.5 0.847859
    endloop
  endfacet
  facet normal 0 1 -0
    outer loop
      vertex -1.98256 2.5 0.624013
      vertex -5 2.5 2.5
      vertex -1.78249 2.5 0.742334
    endloop
  endfacet
  facet normal 0 1 -0
    outer loop
      vertex -2.1748 2.5 0.493362
      vertex -5 2.5 2.5
      vertex -1.98256 2.5 0.624013
    endloop
  endfacet
  facet normal 0 1 -0
    outer loop
      vertex -2.35847 2.5 0.350899
      vertex -5 2.5 2.5
      vertex -2.1748 2.5 0.493362
    endloop
  endfacet
  facet normal 0 1 -0
    outer loop
      vertex -2.53282 2.5 0.197184
      vertex -5 2.5 2.5
      vertex -2.35847 2.5 0.350899
    endloop
  endfacet
  facet normal 0 1 -0
    outer loop
      vertex -2.69718 2.5 0.0328236
      vertex -5 2.5 2.5
      vertex -2.53282 2.5 0.197184
    endloop
  endfacet
  facet normal 0 1 -0
    outer loop
      vertex -2.8509 2.5 -0.141531
      vertex -5 2.5 2.5
      vertex -2.69718 2.5 0.0328236
    endloop
  endfacet
  facet normal 0 1 -0
    outer loop
      vertex -2.99336 2.5 -0.325194
      vertex -5 2.5 2.5
      vertex -2.8509 2.5 -0.141531
    endloop
  endfacet
  facet normal 0 1 -0
    outer loop
      vertex -3.12401 2.5 -0.517441
      vertex -5 2.5 2.5
      vertex -2.99336 2.5 -0.325194
    endloop
  endfacet
  facet normal 0 1 -0
    outer loop
      vertex -3.24233 2.5 -0.717511
      vertex -5 2.5 2.5
      vertex -3.12401 2.5 -0.517441
    endloop
  endfacet
  facet normal 0 1 -0
    outer loop
      vertex -3.34786 2.5 -0.924616
      vertex -5 2.5 2.5
      vertex -3.24233 2.5 -0.717511
    endloop
  endfacet
  facet normal 0 1 -0
    outer loop
      vertex -3.44017 2.5 -1.13794
      vertex -5 2.5 2.5
      vertex -3.34786 2.5 -0.924616
    endloop
  endfacet
  facet normal 0 1 0
    outer loop
      vertex -5 2.5 -2.5
      vertex -3.44017 2.5 -1.13794
      vertex -3.51891 2.5 -1.35664
    endloop
  endfacet
  facet normal 0 1 0
    outer loop
      vertex -5 2.5 -2.5
      vertex -3.51891 2.5 -1.35664
      vertex -3.58376 2.5 -1.57985
    endloop
  endfacet
  facet normal 0 1 0
    outer loop
      vertex -5 2.5 -2.5
      vertex -3.58376 2.5 -1.57985
      vertex -3.63446 2.5 -1.80669
    endloop
  endfacet
  facet normal 0 1 0
    outer loop
      vertex -5 2.5 -2.5
      vertex -3.63446 2.5 -1.80669
      vertex -3.67082 2.5 -2.03627
    endloop
  endfacet
  facet normal 0 1 0
    outer loop
      vertex -5 2.5 -2.5
      vertex -3.67082 2.5 -2.03627
      vertex -3.6927 2.5 -2.26767
    endloop
  endfacet
  facet normal 0 1 0
    outer loop
      vertex -5 2.5 -2.5
      vertex -3.6927 2.5 -2.26767
      vertex -3.69452 2.5 -2.32576
    endloop
  endfacet
  facet normal 0 1 0
    outer loop
      vertex -5 2.5 -2.5
      vertex -3.69452 2.5 -2.32576
      vertex -3.7 2.5 -2.5
    endloop
  endfacet
  facet normal 0 1 0
    outer loop
      vertex -3.44017 2.5 -1.13794
      vertex -5 2.5 -2.5
      vertex -5 2.5 2.5
    endloop
  endfacet
  facet normal 0 0 -1
    outer loop
      vertex -5 -2.5 -2.5
      vertex -3.7 2.5 -2.5
      vertex -3.7 -2.5 -2.5
    endloop
  endfacet
  facet normal -0 0 -1
    outer loop
      vertex -3.7 2.5 -2.5
      vertex -5 -2.5 -2.5
      vertex -5 2.5 -2.5
    endloop
  endfacet
  facet normal 0 0 -1
    outer loop
      vertex 3.7 -2.5 -2.5
      vertex 5 2.5 -2.5
      vertex 5 -2.5 -2.5
    endloop
  endfacet
  facet normal -0 0 -1
    outer loop
      vertex 5 2.5 -2.5
      vertex 3.7 -2.5 -2.5
      vertex 3.7 2.5 -2.5
    endloop
  endfacet
  facet normal 0 -1 0
    outer loop
      vertex -5 -2.5 2.5
      vertex 0 -2.5 1.2
      vertex 5 -2.5 2.5
    endloop
  endfacet
  facet normal 0 -1 0
    outer loop
      vertex -5 -2.5 2.5
      vertex -0.232325 -2.5 1.1927
      vertex 0 -2.5 1.2
    endloop
  endfacet
  facet normal 0 -1 0
    outer loop
      vertex -5 -2.5 2.5
      vertex -0.463733 -2.5 1.17082
      vertex -0.232325 -2.5 1.1927
    endloop
  endfacet
  facet normal 0 -1 0
    outer loop
      vertex -5 -2.5 2.5
      vertex -0.693311 -2.5 1.13446
      vertex -0.463733 -2.5 1.17082
    endloop
  endfacet
  facet normal 0 -1 0
    outer loop
      vertex -5 -2.5 2.5
      vertex -0.920152 -2.5 1.08376
      vertex -0.693311 -2.5 1.13446
    endloop
  endfacet
  facet normal 0 -1 0
    outer loop
      vertex -5 -2.5 2.5
      vertex -1.14336 -2.5 1.01891
      vertex -0.920152 -2.5 1.08376
    endloop
  endfacet
  facet normal 0 -1 0
    outer loop
      vertex -5 -2.5 2.5
      vertex -1.36206 -2.5 0.940172
      vertex -1.14336 -2.5 1.01891
    endloop
  endfacet
  facet normal 0 -1 0
    outer loop
      vertex -5 -2.5 2.5
      vertex -1.57538 -2.5 0.847859
      vertex -1.36206 -2.5 0.940172
    endloop
  endfacet
  facet normal 0 -1 0
    outer loop
      vertex -5 -2.5 2.5
      vertex -1.78249 -2.5 0.742334
      vertex -1.57538 -2.5 0.847859
    endloop
  endfacet
  facet normal 0 -1 0
    outer loop
      vertex -5 -2.5 2.5
      vertex -1.98256 -2.5 0.624013
      vertex -1.78249 -2.5 0.742334
    endloop
  endfacet
  facet normal 0 -1 0
    outer loop
      vertex -5 -2.5 2.5
      vertex -2.1748 -2.5 0.493362
      vertex -1.98256 -2.5 0.624013
    endloop
  endfacet
  facet normal 0 -1 0
    outer loop
      vertex -5 -2.5 2.5
      vertex -2.35847 -2.5 0.350899
      vertex -2.1748 -2.5 0.493362
    endloop
  endfacet
  facet normal 0 -1 0
    outer loop
      vertex -5 -2.5 2.5
      vertex -2.53282 -2.5 0.197184
      vertex -2.35847 -2.5 0.350899
    endloop
  endfacet
  facet normal 0 -1 0
    outer loop
      vertex -5 -2.5 2.5
      vertex -2.69718 -2.5 0.0328236
      vertex -2.53282 -2.5 0.197184
    endloop
  endfacet
  facet normal 0 -1 0
    outer loop
      vertex -5 -2.5 2.5
      vertex -2.8509 -2.5 -0.141531
      vertex -2.69718 -2.5 0.0328236
    endloop
  endfacet
  facet normal 0 -1 0
    outer loop
      vertex -5 -2.5 2.5
      vertex -2.99336 -2.5 -0.325194
      vertex -2.8509 -2.5 -0.141531
    endloop
  endfacet
  facet normal 0 -1 0
    outer loop
      vertex -5 -2.5 2.5
      vertex -3.12401 -2.5 -0.517441
      vertex -2.99336 -2.5 -0.325194
    endloop
  endfacet
  facet normal 0 -1 0
    outer loop
      vertex -5 -2.5 2.5
      vertex -3.24233 -2.5 -0.717511
      vertex -3.12401 -2.5 -0.517441
    endloop
  endfacet
  facet normal 0 -1 0
    outer loop
      vertex -5 -2.5 2.5
      vertex -3.34786 -2.5 -0.924616
      vertex -3.24233 -2.5 -0.717511
    endloop
  endfacet
  facet normal 0 -1 0
    outer loop
      vertex -5 -2.5 2.5
      vertex -3.44017 -2.5 -1.13794
      vertex -3.34786 -2.5 -0.924616
    endloop
  endfacet
  facet normal 0 -1 0
    outer loop
      vertex -5 -2.5 -2.5
      vertex -3.44017 -2.5 -1.13794
      vertex -5 -2.5 2.5
    endloop
  endfacet
  facet normal 0 -1 0
    outer loop
      vertex -3.44017 -2.5 -1.13794
      vertex -5 -2.5 -2.5
      vertex -3.51891 -2.5 -1.35664
    endloop
  endfacet
  facet normal 0 -1 0
    outer loop
      vertex -3.51891 -2.5 -1.35664
      vertex -5 -2.5 -2.5
      vertex -3.58376 -2.5 -1.57985
    endloop
  endfacet
  facet normal 0 -1 0
    outer loop
      vertex -3.58376 -2.5 -1.57985
      vertex -5 -2.5 -2.5
      vertex -3.63446 -2.5 -1.80669
    endloop
  endfacet
  facet normal 0 -1 0
    outer loop
      vertex -3.63446 -2.5 -1.80669
      vertex -5 -2.5 -2.5
      vertex -3.67082 -2.5 -2.03627
    endloop
  endfacet
  facet normal 0 -1 0
    outer loop
      vertex -3.67082 -2.5 -2.03627
      vertex -5 -2.5 -2.5
      vertex -3.6927 -2.5 -2.26767
    endloop
  endfacet
  facet normal 0 -1 0
    outer loop
      vertex -3.6927 -2.5 -2.26767
      vertex -5 -2.5 -2.5
      vertex -3.69817 -2.5 -2.44192
    endloop
  endfacet
  facet normal 0 -1 0
    outer loop
      vertex -3.69817 -2.5 -2.44192
      vertex -5 -2.5 -2.5
      vertex -3.7 -2.5 -2.5
    endloop
  endfacet
  facet normal 0 -1 0
    outer loop
      vertex 0.232325 -2.5 1.1927
      vertex 5 -2.5 2.5
      vertex 0 -2.5 1.2
    endloop
  endfacet
  facet normal 0 -1 0
    outer loop
      vertex 0.463733 -2.5 1.17082
      vertex 5 -2.5 2.5
      vertex 0.232325 -2.5 1.1927
    endloop
  endfacet
  facet normal 0 -1 0
    outer loop
      vertex 0.693311 -2.5 1.13446
      vertex 5 -2.5 2.5
      vertex 0.463733 -2.5 1.17082
    endloop
  endfacet
  facet normal 0 -1 0
    outer loop
      vertex 0.920152 -2.5 1.08376
      vertex 5 -2.5 2.5
      vertex 0.693311 -2.5 1.13446
    endloop
  endfacet
  facet normal 0 -1 0
    outer loop
      vertex 1.14336 -2.5 1.01891
      vertex 5 -2.5 2.5
      vertex 0.920152 -2.5 1.08376
    endloop
  endfacet
  facet normal 0 -1 0
    outer loop
      vertex 1.36206 -2.5 0.940172
      vertex 5 -2.5 2.5
      vertex 1.14336 -2.5 1.01891
    endloop
  endfacet
  facet normal 0 -1 0
    outer loop
      vertex 1.57538 -2.5 0.847859
      vertex 5 -2.5 2.5
      vertex 1.36206 -2.5 0.940172
    endloop
  endfacet
  facet normal 0 -1 0
    outer loop
      vertex 1.78249 -2.5 0.742334
      vertex 5 -2.5 2.5
      vertex 1.57538 -2.5 0.847859
    endloop
  endfacet
  facet normal 0 -1 0
    outer loop
      vertex 1.98256 -2.5 0.624013
      vertex 5 -2.5 2.5
      vertex 1.78249 -2.5 0.742334
    endloop
  endfacet
  facet normal 0 -1 0
    outer loop
      vertex 2.1748 -2.5 0.493362
      vertex 5 -2.5 2.5
      vertex 1.98256 -2.5 0.624013
    endloop
  endfacet
  facet normal 0 -1 0
    outer loop
      vertex 2.35847 -2.5 0.350899
      vertex 5 -2.5 2.5
      vertex 2.1748 -2.5 0.493362
    endloop
  endfacet
  facet normal 0 -1 0
    outer loop
      vertex 2.53282 -2.5 0.197184
      vertex 5 -2.5 2.5
      vertex 2.35847 -2.5 0.350899
    endloop
  endfacet
  facet normal 0 -1 0
    outer loop
      vertex 2.69718 -2.5 0.0328236
      vertex 5 -2.5 2.5
      vertex 2.53282 -2.5 0.197184
    endloop
  endfacet
  facet normal 0 -1 0
    outer loop
      vertex 2.8509 -2.5 -0.141531
      vertex 5 -2.5 2.5
      vertex 2.69718 -2.5 0.0328236
    endloop
  endfacet
  facet normal 0 -1 0
    outer loop
      vertex 2.99336 -2.5 -0.325194
      vertex 5 -2.5 2.5
      vertex 2.8509 -2.5 -0.141531
    endloop
  endfacet
  facet normal 0 -1 0
    outer loop
      vertex 3.12401 -2.5 -0.517441
      vertex 5 -2.5 2.5
      vertex 2.99336 -2.5 -0.325194
    endloop
  endfacet
  facet normal 0 -1 0
    outer loop
      vertex 3.24233 -2.5 -0.717511
      vertex 5 -2.5 2.5
      vertex 3.12401 -2.5 -0.517441
    endloop
  endfacet
  facet normal 0 -1 0
    outer loop
      vertex 3.34786 -2.5 -0.924616
      vertex 5 -2.5 2.5
      vertex 3.24233 -2.5 -0.717511
    endloop
  endfacet
  facet normal 0 -1 0
    outer loop
      vertex 3.44017 -2.5 -1.13794
      vertex 5 -2.5 2.5
      vertex 3.34786 -2.5 -0.924616
    endloop
  endfacet
  facet normal 0 -1 0
    outer loop
      vertex 5 -2.5 -2.5
      vertex 3.44017 -2.5 -1.13794
      vertex 3.51891 -2.5 -1.35664
    endloop
  endfacet
  facet normal 0 -1 0
    outer loop
      vertex 5 -2.5 -2.5
      vertex 3.51891 -2.5 -1.35664
      vertex 3.58376 -2.5 -1.57985
    endloop
  endfacet
  facet normal 0 -1 0
    outer loop
      vertex 5 -2.5 -2.5
      vertex 3.58376 -2.5 -1.57985
      vertex 3.63446 -2.5 -1.80669
    endloop
  endfacet
  facet normal 0 -1 0
    outer loop
      vertex 5 -2.5 -2.5
      vertex 3.63446 -2.5 -1.80669
      vertex 3.67082 -2.5 -2.03627
    endloop
  endfacet
  facet normal 0 -1 0
    outer loop
      vertex 5 -2.5 -2.5
      vertex 3.67082 -2.5 -2.03627
      vertex 3.6927 -2.5 -2.26767
    endloop
  endfacet
  facet normal 0 -1 0
    outer loop
      vertex 5 -2.5 -2.5
      vertex 3.6927 -2.5 -2.26767
      vertex 3.69817 -2.5 -2.44192
    endloop
  endfacet
  facet normal 0 -1 0
    outer loop
      vertex 5 -2.5 -2.5
      vertex 3.69817 -2.5 -2.44192
      vertex 3.7 -2.5 -2.5
    endloop
  endfacet
  facet normal 0 -1 0
    outer loop
      vertex 3.44017 -2.5 -1.13794
      vertex 5 -2.5 -2.5
      vertex 5 -2.5 2.5
    endloop
  endfacet
  facet normal -0.999507 0 -0.0314118
    outer loop
      vertex 3.6927 -2.5 -2.26767
      vertex 3.69452 2.5 -2.32576
      vertex 3.69817 -2.5 -2.44192
    endloop
  endfacet
  facet normal -0.999507 0 -0.0314118
    outer loop
      vertex 3.69452 2.5 -2.32576
      vertex 3.6927 -2.5 -2.26767
      vertex 3.6927 2.5 -2.26767
    endloop
  endfacet
  facet normal -0.995562 0 -0.094108
    outer loop
      vertex 3.6927 -2.5 -2.26767
      vertex 3.67082 2.5 -2.03627
      vertex 3.6927 2.5 -2.26767
    endloop
  endfacet
  facet normal -0.995562 -0 -0.094108
    outer loop
      vertex 3.67082 2.5 -2.03627
      vertex 3.6927 -2.5 -2.26767
      vertex 3.67082 -2.5 -2.03627
    endloop
  endfacet
  facet normal -0.999507 -2.99565e-09 -0.0314116
    outer loop
      vertex 3.69817 -2.5 -2.44192
      vertex 3.7 2.5 -2.5
      vertex 3.7 -2.5 -2.5
    endloop
  endfacet
  facet normal -0.999507 -2.99565e-09 -0.0314116
    outer loop
      vertex 3.7 2.5 -2.5
      vertex 3.69817 -2.5 -2.44192
      vertex 3.69452 2.5 -2.32576
    endloop
  endfacet
  facet normal -0.338738 0 -0.940881
    outer loop
      vertex 1.14336 -2.5 1.01891
      vertex 1.36206 2.5 0.940172
      vertex 1.36206 -2.5 0.940172
    endloop
  endfacet
  facet normal -0.338738 0 -0.940881
    outer loop
      vertex 1.36206 2.5 0.940172
      vertex 1.14336 -2.5 1.01891
      vertex 1.14336 2.5 1.01891
    endloop
  endfacet
  facet normal 0.999507 -2.99565e-09 -0.0314116
    outer loop
      vertex -3.69817 -2.5 -2.44192
      vertex -3.7 2.5 -2.5
      vertex -3.69452 2.5 -2.32576
    endloop
  endfacet
  facet normal 0.999507 -2.99565e-09 -0.0314116
    outer loop
      vertex -3.7 2.5 -2.5
      vertex -3.69817 -2.5 -2.44192
      vertex -3.7 -2.5 -2.5
    endloop
  endfacet
  facet normal -0.612906 0 -0.790155
    outer loop
      vertex 2.1748 -2.5 0.493362
      vertex 2.35847 2.5 0.350899
      vertex 2.35847 -2.5 0.350899
    endloop
  endfacet
  facet normal -0.612906 0 -0.790155
    outer loop
      vertex 2.35847 2.5 0.350899
      vertex 2.1748 -2.5 0.493362
      vertex 2.1748 2.5 0.493362
    endloop
  endfacet
  facet normal -0.750109 0 -0.661314
    outer loop
      vertex 2.8509 -2.5 -0.141531
      vertex 2.69718 2.5 0.0328236
      vertex 2.8509 2.5 -0.141531
    endloop
  endfacet
  facet normal -0.750109 -0 -0.661314
    outer loop
      vertex 2.69718 2.5 0.0328236
      vertex 2.8509 -2.5 -0.141531
      vertex 2.69718 -2.5 0.0328236
    endloop
  endfacet
  facet normal 0.995562 0 -0.094108
    outer loop
      vertex -3.67082 -2.5 -2.03627
      vertex -3.6927 2.5 -2.26767
      vertex -3.67082 2.5 -2.03627
    endloop
  endfacet
  facet normal 0.995562 0 -0.094108
    outer loop
      vertex -3.6927 2.5 -2.26767
      vertex -3.67082 -2.5 -2.03627
      vertex -3.6927 -2.5 -2.26767
    endloop
  endfacet
  facet normal 0.987688 0 -0.156435
    outer loop
      vertex -3.63446 -2.5 -1.80669
      vertex -3.67082 2.5 -2.03627
      vertex -3.63446 2.5 -1.80669
    endloop
  endfacet
  facet normal 0.987688 0 -0.156435
    outer loop
      vertex -3.67082 2.5 -2.03627
      vertex -3.63446 -2.5 -1.80669
      vertex -3.67082 -2.5 -2.03627
    endloop
  endfacet
  facet normal 0.397147 0 -0.917755
    outer loop
      vertex -1.57538 -2.5 0.847859
      vertex -1.36206 2.5 0.940172
      vertex -1.36206 -2.5 0.940172
    endloop
  endfacet
  facet normal 0.397147 0 -0.917755
    outer loop
      vertex -1.36206 2.5 0.940172
      vertex -1.57538 -2.5 0.847859
      vertex -1.57538 2.5 0.847859
    endloop
  endfacet
  facet normal -0.0314118 0 -0.999507
    outer loop
      vertex 0 -2.5 1.2
      vertex 0.232325 2.5 1.1927
      vertex 0.232325 -2.5 1.1927
    endloop
  endfacet
  facet normal -0.0314118 0 -0.999507
    outer loop
      vertex 0.232325 2.5 1.1927
      vertex 0 -2.5 1.2
      vertex 0 2.5 1.2
    endloop
  endfacet
  facet normal -0.661312 0 -0.750111
    outer loop
      vertex 2.35847 -2.5 0.350899
      vertex 2.53282 2.5 0.197184
      vertex 2.53282 -2.5 0.197184
    endloop
  endfacet
  facet normal -0.661312 0 -0.750111
    outer loop
      vertex 2.53282 2.5 0.197184
      vertex 2.35847 -2.5 0.350899
      vertex 2.35847 2.5 0.350899
    endloop
  endfacet
  facet normal 0.917755 0 -0.397147
    outer loop
      vertex -3.34786 -2.5 -0.924616
      vertex -3.44017 2.5 -1.13794
      vertex -3.34786 2.5 -0.924616
    endloop
  endfacet
  facet normal 0.917755 0 -0.397147
    outer loop
      vertex -3.44017 2.5 -1.13794
      vertex -3.34786 -2.5 -0.924616
      vertex -3.44017 -2.5 -1.13794
    endloop
  endfacet
  facet normal 0.612906 0 -0.790155
    outer loop
      vertex -2.35847 -2.5 0.350899
      vertex -2.1748 2.5 0.493362
      vertex -2.1748 -2.5 0.493362
    endloop
  endfacet
  facet normal 0.612906 0 -0.790155
    outer loop
      vertex -2.1748 2.5 0.493362
      vertex -2.35847 -2.5 0.350899
      vertex -2.35847 2.5 0.350899
    endloop
  endfacet
  facet normal -0.156435 0 -0.987688
    outer loop
      vertex 0.463733 -2.5 1.17082
      vertex 0.693311 2.5 1.13446
      vertex 0.693311 -2.5 1.13446
    endloop
  endfacet
  facet normal -0.156435 0 -0.987688
    outer loop
      vertex 0.693311 2.5 1.13446
      vertex 0.463733 -2.5 1.17082
      vertex 0.463733 2.5 1.17082
    endloop
  endfacet
  facet normal -0.987688 0 -0.156435
    outer loop
      vertex 3.67082 -2.5 -2.03627
      vertex 3.63446 2.5 -1.80669
      vertex 3.67082 2.5 -2.03627
    endloop
  endfacet
  facet normal -0.987688 -0 -0.156435
    outer loop
      vertex 3.63446 2.5 -1.80669
      vertex 3.67082 -2.5 -2.03627
      vertex 3.63446 -2.5 -1.80669
    endloop
  endfacet
  facet normal -0.975917 0 -0.218143
    outer loop
      vertex 3.63446 -2.5 -1.80669
      vertex 3.58376 2.5 -1.57985
      vertex 3.63446 2.5 -1.80669
    endloop
  endfacet
  facet normal -0.975917 -0 -0.218143
    outer loop
      vertex 3.58376 2.5 -1.57985
      vertex 3.63446 -2.5 -1.80669
      vertex 3.58376 -2.5 -1.57985
    endloop
  endfacet
  facet normal -0.790155 0 -0.612906
    outer loop
      vertex 2.99336 -2.5 -0.325194
      vertex 2.8509 2.5 -0.141531
      vertex 2.99336 2.5 -0.325194
    endloop
  endfacet
  facet normal -0.790155 -0 -0.612906
    outer loop
      vertex 2.8509 2.5 -0.141531
      vertex 2.99336 -2.5 -0.325194
      vertex 2.8509 -2.5 -0.141531
    endloop
  endfacet
  facet normal -0.860742 0 -0.509042
    outer loop
      vertex 3.24233 -2.5 -0.717511
      vertex 3.12401 2.5 -0.517441
      vertex 3.24233 2.5 -0.717511
    endloop
  endfacet
  facet normal -0.860742 -0 -0.509042
    outer loop
      vertex 3.12401 2.5 -0.517441
      vertex 3.24233 -2.5 -0.717511
      vertex 3.12401 -2.5 -0.517441
    endloop
  endfacet
  facet normal -0.707107 0 -0.707107
    outer loop
      vertex 2.69718 -2.5 0.0328236
      vertex 2.53282 2.5 0.197184
      vertex 2.69718 2.5 0.0328236
    endloop
  endfacet
  facet normal -0.707107 -0 -0.707107
    outer loop
      vertex 2.53282 2.5 0.197184
      vertex 2.69718 -2.5 0.0328236
      vertex 2.53282 -2.5 0.197184
    endloop
  endfacet
  facet normal 0.975917 0 -0.218143
    outer loop
      vertex -3.58376 -2.5 -1.57985
      vertex -3.63446 2.5 -1.80669
      vertex -3.58376 2.5 -1.57985
    endloop
  endfacet
  facet normal 0.975917 0 -0.218143
    outer loop
      vertex -3.63446 2.5 -1.80669
      vertex -3.58376 -2.5 -1.57985
      vertex -3.63446 -2.5 -1.80669
    endloop
  endfacet
  facet normal 0.999507 0 -0.0314118
    outer loop
      vertex -3.6927 -2.5 -2.26767
      vertex -3.69452 2.5 -2.32576
      vertex -3.6927 2.5 -2.26767
    endloop
  endfacet
  facet normal 0.999507 0 -0.0314118
    outer loop
      vertex -3.69452 2.5 -2.32576
      vertex -3.6927 -2.5 -2.26767
      vertex -3.69817 -2.5 -2.44192
    endloop
  endfacet
  facet normal 0.45399 0 -0.891007
    outer loop
      vertex -1.78249 -2.5 0.742334
      vertex -1.57538 2.5 0.847859
      vertex -1.57538 -2.5 0.847859
    endloop
  endfacet
  facet normal 0.45399 0 -0.891007
    outer loop
      vertex -1.57538 2.5 0.847859
      vertex -1.78249 -2.5 0.742334
      vertex -1.78249 2.5 0.742334
    endloop
  endfacet
  facet normal 0.707107 0 -0.707107
    outer loop
      vertex -2.53282 -2.5 0.197184
      vertex -2.69718 2.5 0.0328236
      vertex -2.53282 2.5 0.197184
    endloop
  endfacet
  facet normal 0.707107 0 -0.707107
    outer loop
      vertex -2.69718 2.5 0.0328236
      vertex -2.53282 -2.5 0.197184
      vertex -2.69718 -2.5 0.0328236
    endloop
  endfacet
  facet normal 0.338738 0 -0.940881
    outer loop
      vertex -1.36206 -2.5 0.940172
      vertex -1.14336 2.5 1.01891
      vertex -1.14336 -2.5 1.01891
    endloop
  endfacet
  facet normal 0.338738 0 -0.940881
    outer loop
      vertex -1.14336 2.5 1.01891
      vertex -1.36206 -2.5 0.940172
      vertex -1.36206 2.5 0.940172
    endloop
  endfacet
  facet normal 0.156435 0 -0.987688
    outer loop
      vertex -0.693311 -2.5 1.13446
      vertex -0.463733 2.5 1.17082
      vertex -0.463733 -2.5 1.17082
    endloop
  endfacet
  facet normal 0.156435 0 -0.987688
    outer loop
      vertex -0.463733 2.5 1.17082
      vertex -0.693311 -2.5 1.13446
      vertex -0.693311 2.5 1.13446
    endloop
  endfacet
  facet normal 0.218143 0 -0.975917
    outer loop
      vertex -0.920152 -2.5 1.08376
      vertex -0.693311 2.5 1.13446
      vertex -0.693311 -2.5 1.13446
    endloop
  endfacet
  facet normal 0.218143 0 -0.975917
    outer loop
      vertex -0.693311 2.5 1.13446
      vertex -0.920152 -2.5 1.08376
      vertex -0.920152 2.5 1.08376
    endloop
  endfacet
  facet normal 0.094108 0 -0.995562
    outer loop
      vertex -0.463733 -2.5 1.17082
      vertex -0.232325 2.5 1.1927
      vertex -0.232325 -2.5 1.1927
    endloop
  endfacet
  facet normal 0.094108 0 -0.995562
    outer loop
      vertex -0.232325 2.5 1.1927
      vertex -0.463733 -2.5 1.17082
      vertex -0.463733 2.5 1.17082
    endloop
  endfacet
  facet normal -0.094108 0 -0.995562
    outer loop
      vertex 0.232325 -2.5 1.1927
      vertex 0.463733 2.5 1.17082
      vertex 0.463733 -2.5 1.17082
    endloop
  endfacet
  facet normal -0.094108 0 -0.995562
    outer loop
      vertex 0.463733 2.5 1.17082
      vertex 0.232325 -2.5 1.1927
      vertex 0.232325 2.5 1.1927
    endloop
  endfacet
  facet normal -0.278992 0 -0.960293
    outer loop
      vertex 0.920152 -2.5 1.08376
      vertex 1.14336 2.5 1.01891
      vertex 1.14336 -2.5 1.01891
    endloop
  endfacet
  facet normal -0.278992 0 -0.960293
    outer loop
      vertex 1.14336 2.5 1.01891
      vertex 0.920152 -2.5 1.08376
      vertex 0.920152 2.5 1.08376
    endloop
  endfacet
  facet normal -0.218143 0 -0.975917
    outer loop
      vertex 0.693311 -2.5 1.13446
      vertex 0.920152 2.5 1.08376
      vertex 0.920152 -2.5 1.08376
    endloop
  endfacet
  facet normal -0.218143 0 -0.975917
    outer loop
      vertex 0.920152 2.5 1.08376
      vertex 0.693311 -2.5 1.13446
      vertex 0.693311 2.5 1.13446
    endloop
  endfacet
  facet normal -0.397147 0 -0.917755
    outer loop
      vertex 1.36206 -2.5 0.940172
      vertex 1.57538 2.5 0.847859
      vertex 1.57538 -2.5 0.847859
    endloop
  endfacet
  facet normal -0.397147 0 -0.917755
    outer loop
      vertex 1.57538 2.5 0.847859
      vertex 1.36206 -2.5 0.940172
      vertex 1.36206 2.5 0.940172
    endloop
  endfacet
  facet normal -0.940881 0 -0.338738
    outer loop
      vertex 3.51891 -2.5 -1.35664
      vertex 3.44017 2.5 -1.13794
      vertex 3.51891 2.5 -1.35664
    endloop
  endfacet
  facet normal -0.940881 -0 -0.338738
    outer loop
      vertex 3.44017 2.5 -1.13794
      vertex 3.51891 -2.5 -1.35664
      vertex 3.44017 -2.5 -1.13794
    endloop
  endfacet
  facet normal -0.917755 0 -0.397147
    outer loop
      vertex 3.44017 -2.5 -1.13794
      vertex 3.34786 2.5 -0.924616
      vertex 3.44017 2.5 -1.13794
    endloop
  endfacet
  facet normal -0.917755 -0 -0.397147
    outer loop
      vertex 3.34786 2.5 -0.924616
      vertex 3.44017 -2.5 -1.13794
      vertex 3.34786 -2.5 -0.924616
    endloop
  endfacet
  facet normal -0.891007 0 -0.45399
    outer loop
      vertex 3.34786 -2.5 -0.924616
      vertex 3.24233 2.5 -0.717511
      vertex 3.34786 2.5 -0.924616
    endloop
  endfacet
  facet normal -0.891007 -0 -0.45399
    outer loop
      vertex 3.24233 2.5 -0.717511
      vertex 3.34786 -2.5 -0.924616
      vertex 3.24233 -2.5 -0.717511
    endloop
  endfacet
  facet normal -0.827081 0 -0.562083
    outer loop
      vertex 3.12401 -2.5 -0.517441
      vertex 2.99336 2.5 -0.325194
      vertex 3.12401 2.5 -0.517441
    endloop
  endfacet
  facet normal -0.827081 -0 -0.562083
    outer loop
      vertex 2.99336 2.5 -0.325194
      vertex 3.12401 -2.5 -0.517441
      vertex 2.99336 -2.5 -0.325194
    endloop
  endfacet
  facet normal 0.790155 0 -0.612906
    outer loop
      vertex -2.8509 -2.5 -0.141531
      vertex -2.99336 2.5 -0.325194
      vertex -2.8509 2.5 -0.141531
    endloop
  endfacet
  facet normal 0.790155 0 -0.612906
    outer loop
      vertex -2.99336 2.5 -0.325194
      vertex -2.8509 -2.5 -0.141531
      vertex -2.99336 -2.5 -0.325194
    endloop
  endfacet
  facet normal 0.750109 0 -0.661314
    outer loop
      vertex -2.69718 -2.5 0.0328236
      vertex -2.8509 2.5 -0.141531
      vertex -2.69718 2.5 0.0328236
    endloop
  endfacet
  facet normal 0.750109 0 -0.661314
    outer loop
      vertex -2.8509 2.5 -0.141531
      vertex -2.69718 -2.5 0.0328236
      vertex -2.8509 -2.5 -0.141531
    endloop
  endfacet
  facet normal 0.562083 0 -0.827081
    outer loop
      vertex -2.1748 -2.5 0.493362
      vertex -1.98256 2.5 0.624013
      vertex -1.98256 -2.5 0.624013
    endloop
  endfacet
  facet normal 0.562083 0 -0.827081
    outer loop
      vertex -1.98256 2.5 0.624013
      vertex -2.1748 -2.5 0.493362
      vertex -2.1748 2.5 0.493362
    endloop
  endfacet
  facet normal 0.661312 0 -0.750111
    outer loop
      vertex -2.53282 -2.5 0.197184
      vertex -2.35847 2.5 0.350899
      vertex -2.35847 -2.5 0.350899
    endloop
  endfacet
  facet normal 0.661312 0 -0.750111
    outer loop
      vertex -2.35847 2.5 0.350899
      vertex -2.53282 -2.5 0.197184
      vertex -2.53282 2.5 0.197184
    endloop
  endfacet
  facet normal 0.278992 0 -0.960293
    outer loop
      vertex -1.14336 -2.5 1.01891
      vertex -0.920152 2.5 1.08376
      vertex -0.920152 -2.5 1.08376
    endloop
  endfacet
  facet normal 0.278992 0 -0.960293
    outer loop
      vertex -0.920152 2.5 1.08376
      vertex -1.14336 -2.5 1.01891
      vertex -1.14336 2.5 1.01891
    endloop
  endfacet
  facet normal 0.0314118 0 -0.999507
    outer loop
      vertex -0.232325 -2.5 1.1927
      vertex 0 2.5 1.2
      vertex 0 -2.5 1.2
    endloop
  endfacet
  facet normal 0.0314118 0 -0.999507
    outer loop
      vertex 0 2.5 1.2
      vertex -0.232325 -2.5 1.1927
      vertex -0.232325 2.5 1.1927
    endloop
  endfacet
  facet normal -0.562083 0 -0.827081
    outer loop
      vertex 1.98256 -2.5 0.624013
      vertex 2.1748 2.5 0.493362
      vertex 2.1748 -2.5 0.493362
    endloop
  endfacet
  facet normal -0.562083 0 -0.827081
    outer loop
      vertex 2.1748 2.5 0.493362
      vertex 1.98256 -2.5 0.624013
      vertex 1.98256 2.5 0.624013
    endloop
  endfacet
  facet normal -0.509042 0 -0.860742
    outer loop
      vertex 1.78249 -2.5 0.742334
      vertex 1.98256 2.5 0.624013
      vertex 1.98256 -2.5 0.624013
    endloop
  endfacet
  facet normal -0.509042 0 -0.860742
    outer loop
      vertex 1.98256 2.5 0.624013
      vertex 1.78249 -2.5 0.742334
      vertex 1.78249 2.5 0.742334
    endloop
  endfacet
  facet normal -0.45399 0 -0.891007
    outer loop
      vertex 1.57538 -2.5 0.847859
      vertex 1.78249 2.5 0.742334
      vertex 1.78249 -2.5 0.742334
    endloop
  endfacet
  facet normal -0.45399 0 -0.891007
    outer loop
      vertex 1.78249 2.5 0.742334
      vertex 1.57538 -2.5 0.847859
      vertex 1.57538 2.5 0.847859
    endloop
  endfacet
  facet normal -0.960293 0 -0.278992
    outer loop
      vertex 3.58376 -2.5 -1.57985
      vertex 3.51891 2.5 -1.35664
      vertex 3.58376 2.5 -1.57985
    endloop
  endfacet
  facet normal -0.960293 -0 -0.278992
    outer loop
      vertex 3.51891 2.5 -1.35664
      vertex 3.58376 -2.5 -1.57985
      vertex 3.51891 -2.5 -1.35664
    endloop
  endfacet
  facet normal 0.960293 0 -0.278992
    outer loop
      vertex -3.51891 -2.5 -1.35664
      vertex -3.58376 2.5 -1.57985
      vertex -3.51891 2.5 -1.35664
    endloop
  endfacet
  facet normal 0.960293 0 -0.278992
    outer loop
      vertex -3.58376 2.5 -1.57985
      vertex -3.51891 -2.5 -1.35664
      vertex -3.58376 -2.5 -1.57985
    endloop
  endfacet
  facet normal 0.860742 0 -0.509042
    outer loop
      vertex -3.12401 -2.5 -0.517441
      vertex -3.24233 2.5 -0.717511
      vertex -3.12401 2.5 -0.517441
    endloop
  endfacet
  facet normal 0.860742 0 -0.509042
    outer loop
      vertex -3.24233 2.5 -0.717511
      vertex -3.12401 -2.5 -0.517441
      vertex -3.24233 -2.5 -0.717511
    endloop
  endfacet
  facet normal 0.891007 0 -0.45399
    outer loop
      vertex -3.24233 -2.5 -0.717511
      vertex -3.34786 2.5 -0.924616
      vertex -3.24233 2.5 -0.717511
    endloop
  endfacet
  facet normal 0.891007 0 -0.45399
    outer loop
      vertex -3.34786 2.5 -0.924616
      vertex -3.24233 -2.5 -0.717511
      vertex -3.34786 -2.5 -0.924616
    endloop
  endfacet
  facet normal 0.827081 0 -0.562083
    outer loop
      vertex -2.99336 -2.5 -0.325194
      vertex -3.12401 2.5 -0.517441
      vertex -2.99336 2.5 -0.325194
    endloop
  endfacet
  facet normal 0.827081 0 -0.562083
    outer loop
      vertex -3.12401 2.5 -0.517441
      vertex -2.99336 -2.5 -0.325194
      vertex -3.12401 -2.5 -0.517441
    endloop
  endfacet
  facet normal 0.509042 0 -0.860742
    outer loop
      vertex -1.98256 -2.5 0.624013
      vertex -1.78249 2.5 0.742334
      vertex -1.78249 -2.5 0.742334
    endloop
  endfacet
  facet normal 0.509042 0 -0.860742
    outer loop
      vertex -1.78249 2.5 0.742334
      vertex -1.98256 -2.5 0.624013
      vertex -1.98256 2.5 0.624013
    endloop
  endfacet
  facet normal 0.940881 0 -0.338738
    outer loop
      vertex -3.44017 -2.5 -1.13794
      vertex -3.51891 2.5 -1.35664
      vertex -3.44017 2.5 -1.13794
    endloop
  endfacet
  facet normal 0.940881 0 -0.338738
    outer loop
      vertex -3.51891 2.5 -1.35664
      vertex -3.44017 -2.5 -1.13794
      vertex -3.51891 -2.5 -1.35664
    endloop
  endfacet
endsolid OpenSCAD_Model
