solid OpenSCAD_Model
  facet normal -1 0 0
    outer loop
      vertex -5 -2.5 -2.5
      vertex -5 2.5 2.5
      vertex -5 2.5 -2.5
    endloop
  endfacet
  facet normal -1 -0 0
    outer loop
      vertex -5 2.5 2.5
      vertex -5 -2.5 -2.5
      vertex -5 -2.5 2.5
    endloop
  endfacet
  facet normal -0 0 1
    outer loop
      vertex -5 2.5 2.5
      vertex 5 -2.5 2.5
      vertex 5 2.5 2.5
    endloop
  endfacet
  facet normal 0 0 1
    outer loop
      vertex 5 -2.5 2.5
      vertex -5 2.5 2.5
      vertex -5 -2.5 2.5
    endloop
  endfacet
  facet normal 1 -0 0
    outer loop
      vertex 5 -2.5 2.5
      vertex 5 2.5 -2.5
      vertex 5 2.5 2.5
    endloop
  endfacet
  facet normal 1 0 0
    outer loop
      vertex 5 2.5 -2.5
      vertex 5 -2.5 2.5
      vertex 5 -2.5 -2.5
    endloop
  endfacet
  facet normal 0 1 0
    outer loop
      vertex 5 2.5 2.5
      vertex 0 2.5 0.2
      vertex -5 2.5 2.5
    endloop
  endfacet
  facet normal 0 1 0
    outer loop
      vertex 5 2.5 2.5
      vertex 0.19465 2.5 0.193882
      vertex 0 2.5 0.2
    endloop
  endfacet
  facet normal 0 1 0
    outer loop
      vertex 5 2.5 2.5
      vertex 0.388533 2.5 0.175555
      vertex 0.19465 2.5 0.193882
    endloop
  endfacet
  facet normal 0 1 0
    outer loop
      vertex 5 2.5 2.5
      vertex 0.580882 2.5 0.14509
      vertex 0.388533 2.5 0.175555
    endloop
  endfacet
  facet normal 0 1 0
    outer loop
      vertex 5 2.5 2.5
      vertex 0.770938 2.5 0.102608
      vertex 0.580882 2.5 0.14509
    endloop
  endfacet
  facet normal 0 1 0
    outer loop
      vertex 5 2.5 2.5
      vertex 0.957952 2.5 0.048275
      vertex 0.770938 2.5 0.102608
    endloop
  endfacet
  facet normal 0 1 0
    outer loop
      vertex 5 2.5 2.5
      vertex 1.14119 2.5 -0.0176926
      vertex 0.957952 2.5 0.048275
    endloop
  endfacet
  facet normal 0 1 0
    outer loop
      vertex 5 2.5 2.5
      vertex 1.31992 2.5 -0.0950356
      vertex 1.14119 2.5 -0.0176926
    endloop
  endfacet
  facet normal 0 1 0
    outer loop
      vertex 5 2.5 2.5
      vertex 1.49344 2.5 -0.183449
      vertex 1.31992 2.5 -0.0950356
    endloop
  endfacet
  facet normal 0 1 0
    outer loop
      vertex 5 2.5 2.5
      vertex 1.66106 2.5 -0.282583
      vertex 1.49344 2.5 -0.183449
    endloop
  endfacet
  facet normal 0 1 0
    outer loop
      vertex 5 2.5 2.5
      vertex 1.82213 2.5 -0.392047
      vertex 1.66106 2.5 -0.282583
    endloop
  endfacet
  facet normal 0 1 0
    outer loop
      vertex 5 2.5 2.5
      vertex 1.97601 2.5 -0.511409
      vertex 1.82213 2.5 -0.392047
    endloop
  endfacet
  facet normal 0 1 0
    outer loop
      vertex 5 2.5 2.5
      vertex 2.1221 2.5 -0.640197
      vertex 1.97601 2.5 -0.511409
    endloop
  endfacet
  facet normal 0 1 0
    outer loop
      vertex 5 2.5 2.5
      vertex 2.2598 2.5 -0.777904
      vertex 2.1221 2.5 -0.640197
    endloop
  endfacet
  facet normal 0 1 0
    outer loop
      vertex 5 2.5 2.5
      vertex 2.38859 2.5 -0.923985
      vertex 2.2598 2.5 -0.777904
    endloop
  endfacet
  facet normal 0 1 0
    outer loop
      vertex 5 2.5 2.5
      vertex 2.50795 2.5 -1.07787
      vertex 2.38859 2.5 -0.923985
    endloop
  endfacet
  facet normal 0 1 0
    outer loop
      vertex 5 2.5 2.5
      vertex 2.61742 2.5 -1.23894
      vertex 2.50795 2.5 -1.07787
    endloop
  endfacet
  facet normal 0 1 -0
    outer loop
      vertex 5 2.5 -2.5
      vertex 2.61742 2.5 -1.23894
      vertex 5 2.5 2.5
    endloop
  endfacet
  facet normal 0 1 0
    outer loop
      vertex 2.61742 2.5 -1.23894
      vertex 5 2.5 -2.5
      vertex 2.71655 2.5 -1.40656
    endloop
  endfacet
  facet normal 0 1 0
    outer loop
      vertex 2.71655 2.5 -1.40656
      vertex 5 2.5 -2.5
      vertex 2.80496 2.5 -1.58008
    endloop
  endfacet
  facet normal 0 1 0
    outer loop
      vertex 2.80496 2.5 -1.58008
      vertex 5 2.5 -2.5
      vertex 2.88231 2.5 -1.75881
    endloop
  endfacet
  facet normal 0 1 0
    outer loop
      vertex 2.88231 2.5 -1.75881
      vertex 5 2.5 -2.5
      vertex 2.94827 2.5 -1.94205
    endloop
  endfacet
  facet normal 0 1 0
    outer loop
      vertex 2.94827 2.5 -1.94205
      vertex 5 2.5 -2.5
      vertex 3.00261 2.5 -2.12906
    endloop
  endfacet
  facet normal 0 1 0
    outer loop
      vertex 3.00261 2.5 -2.12906
      vertex 5 2.5 -2.5
      vertex 3.04509 2.5 -2.31912
    endloop
  endfacet
  facet normal 0 1 0
    outer loop
      vertex 3.04509 2.5 -2.31912
      vertex 5 2.5 -2.5
      vertex 3.07374 2.5 -2.5
    endloop
  endfacet
  facet normal 0 1 -0
    outer loop
      vertex -0.19465 2.5 0.193882
      vertex -5 2.5 2.5
      vertex 0 2.5 0.2
    endloop
  endfacet
  facet normal 0 1 -0
    outer loop
      vertex -0.388533 2.5 0.175555
      vertex -5 2.5 2.5
      vertex -0.19465 2.5 0.193882
    endloop
  endfacet
  facet normal 0 1 -0
    outer loop
      vertex -0.580882 2.5 0.14509
      vertex -5 2.5 2.5
      vertex -0.388533 2.5 0.175555
    endloop
  endfacet
  facet normal 0 1 -0
    outer loop
      vertex -0.770938 2.5 0.102608
      vertex -5 2.5 2.5
      vertex -0.580882 2.5 0.14509
    endloop
  endfacet
  facet normal 0 1 -0
    outer loop
      vertex -0.957952 2.5 0.048275
      vertex -5 2.5 2.5
      vertex -0.770938 2.5 0.102608
    endloop
  endfacet
  facet normal 0 1 -0
    outer loop
      vertex -1.14119 2.5 -0.0176926
      vertex -5 2.5 2.5
      vertex -0.957952 2.5 0.048275
    endloop
  endfacet
  facet normal 0 1 -0
    outer loop
      vertex -1.31992 2.5 -0.0950356
      vertex -5 2.5 2.5
      vertex -1.14119 2.5 -0.0176926
    endloop
  endfacet
  facet normal 0 1 -0
    outer loop
      vertex -1.49344 2.5 -0.183449
      vertex -5 2.5 2.5
      vertex -1.31992 2.5 -0.0950356
    endloop
  endfacet
  facet normal 0 1 -0
    outer loop
      vertex -1.66106 2.5 -0.282583
      vertex -5 2.5 2.5
      vertex -1.49344 2.5 -0.183449
    endloop
  endfacet
  facet normal 0 1 -0
    outer loop
      vertex -1.82213 2.5 -0.392047
      vertex -5 2.5 2.5
      vertex -1.66106 2.5 -0.282583
    endloop
  endfacet
  facet normal 0 1 -0
    outer loop
      vertex -1.97601 2.5 -0.511409
      vertex -5 2.5 2.5
      vertex -1.82213 2.5 -0.392047
    endloop
  endfacet
  facet normal 0 1 -0
    outer loop
      vertex -2.1221 2.5 -0.640197
      vertex -5 2.5 2.5
      vertex -1.97601 2.5 -0.511409
    endloop
  endfacet
  facet normal 0 1 -0
    outer loop
      vertex -2.2598 2.5 -0.777904
      vertex -5 2.5 2.5
      vertex -2.1221 2.5 -0.640197
    endloop
  endfacet
  facet normal 0 1 -0
    outer loop
      vertex -2.38859 2.5 -0.923985
      vertex -5 2.5 2.5
      vertex -2.2598 2.5 -0.777904
    endloop
  endfacet
  facet normal 0 1 -0
    outer loop
      vertex -2.50795 2.5 -1.07787
      vertex -5 2.5 2.5
      vertex -2.38859 2.5 -0.923985
    endloop
  endfacet
  facet normal 0 1 -0
    outer loop
      vertex -2.61742 2.5 -1.23894
      vertex -5 2.5 2.5
      vertex -2.50795 2.5 -1.07787
    endloop
  endfacet
  facet normal 0 1 0
    outer loop
      vertex -5 2.5 -2.5
      vertex -2.61742 2.5 -1.23894
      vertex -2.71655 2.5 -1.40656
    endloop
  endfacet
  facet normal 0 1 0
    outer loop
      vertex -5 2.5 -2.5
      vertex -2.71655 2.5 -1.40656
      vertex -2.80496 2.5 -1.58008
    endloop
  endfacet
  facet normal 0 1 0
    outer loop
      vertex -5 2.5 -2.5
      vertex -2.80496 2.5 -1.58008
      vertex -2.88231 2.5 -1.75881
    endloop
  endfacet
  facet normal 0 1 0
    outer loop
      vertex -5 2.5 -2.5
      vertex -2.88231 2.5 -1.75881
      vertex -2.94827 2.5 -1.94205
    endloop
  endfacet
  facet normal 0 1 0
    outer loop
      vertex -5 2.5 -2.5
      vertex -2.94827 2.5 -1.94205
      vertex -3.00261 2.5 -2.12906
    endloop
  endfacet
  facet normal 0 1 0
    outer loop
      vertex -5 2.5 -2.5
      vertex -3.00261 2.5 -2.12906
      vertex -3.04509 2.5 -2.31912
    endloop
  endfacet
  facet normal 0 1 0
    outer loop
      vertex -5 2.5 -2.5
      vertex -3.04509 2.5 -2.31912
      vertex -3.07374 2.5 -2.5
    endloop
  endfacet
  facet normal 0 1 0
    outer loop
      vertex -2.61742 2.5 -1.23894
      vertex -5 2.5 -2.5
      vertex -5 2.5 2.5
    endloop
  endfacet
  facet normal 0 0 -1
    outer loop
      vertex -5 -2.5 -2.5
      vertex -3.07374 2.5 -2.5
      vertex -3.07374 -2.5 -2.5
    endloop
  endfacet
  facet normal -0 0 -1
    outer loop
      vertex -3.07374 2.5 -2.5
      vertex -5 -2.5 -2.5
      vertex -5 2.5 -2.5
    endloop
  endfacet
  facet normal 0 0 -1
    outer loop
      vertex 3.07374 -2.5 -2.5
      vertex 5 2.5 -2.5
      vertex 5 -2.5 -2.5
    endloop
  endfacet
  facet normal -0 0 -1
    outer loop
      vertex 5 2.5 -2.5
      vertex 3.07374 -2.5 -2.5
      vertex 3.07374 2.5 -2.5
    endloop
  endfacet
  facet normal 0 -1 0
    outer loop
      vertex -5 -2.5 2.5
      vertex 0 -2.5 0.2
      vertex 5 -2.5 2.5
    endloop
  endfacet
  facet normal 0 -1 0
    outer loop
      vertex -5 -2.5 2.5
      vertex -0.19465 -2.5 0.193882
      vertex 0 -2.5 0.2
    endloop
  endfacet
  facet normal 0 -1 0
    outer loop
      vertex -5 -2.5 2.5
      vertex -0.388533 -2.5 0.175555
      vertex -0.19465 -2.5 0.193882
    endloop
  endfacet
  facet normal 0 -1 0
    outer loop
      vertex -5 -2.5 2.5
      vertex -0.580882 -2.5 0.14509
      vertex -0.388533 -2.5 0.175555
    endloop
  endfacet
  facet normal 0 -1 0
    outer loop
      vertex -5 -2.5 2.5
      vertex -0.770938 -2.5 0.102608
      vertex -0.580882 -2.5 0.14509
    endloop
  endfacet
  facet normal 0 -1 0
    outer loop
      vertex -5 -2.5 2.5
      vertex -0.957952 -2.5 0.048275
      vertex -0.770938 -2.5 0.102608
    endloop
  endfacet
  facet normal 0 -1 0
    outer loop
      vertex -5 -2.5 2.5
      vertex -1.14119 -2.5 -0.0176926
      vertex -0.957952 -2.5 0.048275
    endloop
  endfacet
  facet normal 0 -1 0
    outer loop
      vertex -5 -2.5 2.5
      vertex -1.31992 -2.5 -0.0950356
      vertex -1.14119 -2.5 -0.0176926
    endloop
  endfacet
  facet normal 0 -1 0
    outer loop
      vertex -5 -2.5 2.5
      vertex -1.49344 -2.5 -0.183449
      vertex -1.31992 -2.5 -0.0950356
    endloop
  endfacet
  facet normal 0 -1 0
    outer loop
      vertex -5 -2.5 2.5
      vertex -1.66106 -2.5 -0.282583
      vertex -1.49344 -2.5 -0.183449
    endloop
  endfacet
  facet normal 0 -1 0
    outer loop
      vertex -5 -2.5 2.5
      vertex -1.82213 -2.5 -0.392047
      vertex -1.66106 -2.5 -0.282583
    endloop
  endfacet
  facet normal 0 -1 0
    outer loop
      vertex -5 -2.5 2.5
      vertex -1.97601 -2.5 -0.511409
      vertex -1.82213 -2.5 -0.392047
    endloop
  endfacet
  facet normal 0 -1 0
    outer loop
      vertex -5 -2.5 2.5
      vertex -2.1221 -2.5 -0.640197
      vertex -1.97601 -2.5 -0.511409
    endloop
  endfacet
  facet normal 0 -1 0
    outer loop
      vertex -5 -2.5 2.5
      vertex -2.2598 -2.5 -0.777904
      vertex -2.1221 -2.5 -0.640197
    endloop
  endfacet
  facet normal 0 -1 0
    outer loop
      vertex -5 -2.5 2.5
      vertex -2.38859 -2.5 -0.923985
      vertex -2.2598 -2.5 -0.777904
    endloop
  endfacet
  facet normal 0 -1 0
    outer loop
      vertex -5 -2.5 2.5
      vertex -2.50795 -2.5 -1.07787
      vertex -2.38859 -2.5 -0.923985
    endloop
  endfacet
  facet normal 0 -1 0
    outer loop
      vertex -5 -2.5 2.5
      vertex -2.61742 -2.5 -1.23894
      vertex -2.50795 -2.5 -1.07787
    endloop
  endfacet
  facet normal 0 -1 0
    outer loop
      vertex -5 -2.5 -2.5
      vertex -2.61742 -2.5 -1.23894
      vertex -5 -2.5 2.5
    endloop
  endfacet
  facet normal 0 -1 0
    outer loop
      vertex -2.61742 -2.5 -1.23894
      vertex -5 -2.5 -2.5
      vertex -2.71655 -2.5 -1.40656
    endloop
  endfacet
  facet normal 0 -1 0
    outer loop
      vertex -2.71655 -2.5 -1.40656
      vertex -5 -2.5 -2.5
      vertex -2.80496 -2.5 -1.58008
    endloop
  endfacet
  facet normal 0 -1 0
    outer loop
      vertex -2.80496 -2.5 -1.58008
      vertex -5 -2.5 -2.5
      vertex -2.88231 -2.5 -1.75881
    endloop
  endfacet
  facet normal 0 -1 0
    outer loop
      vertex -2.88231 -2.5 -1.75881
      vertex -5 -2.5 -2.5
      vertex -2.94827 -2.5 -1.94205
    endloop
  endfacet
  facet normal 0 -1 0
    outer loop
      vertex -2.94827 -2.5 -1.94205
      vertex -5 -2.5 -2.5
      vertex -3.00261 -2.5 -2.12906
    endloop
  endfacet
  facet normal 0 -1 0
    outer loop
      vertex -3.00261 -2.5 -2.12906
      vertex -5 -2.5 -2.5
      vertex -3.04509 -2.5 -2.31912
    endloop
  endfacet
  facet normal 0 -1 0
    outer loop
      vertex -3.04509 -2.5 -2.31912
      vertex -5 -2.5 -2.5
      vertex -3.07374 -2.5 -2.5
    endloop
  endfacet
  facet normal 0 -1 0
    outer loop
      vertex 0.19465 -2.5 0.193882
      vertex 5 -2.5 2.5
      vertex 0 -2.5 0.2
    endloop
  endfacet
  facet normal 0 -1 0
    outer loop
      vertex 0.388533 -2.5 0.175555
      vertex 5 -2.5 2.5
      vertex 0.19465 -2.5 0.193882
    endloop
  endfacet
  facet normal 0 -1 0
    outer loop
      vertex 0.580882 -2.5 0.14509
      vertex 5 -2.5 2.5
      vertex 0.388533 -2.5 0.175555
    endloop
  endfacet
  facet normal 0 -1 0
    outer loop
      vertex 0.770938 -2.5 0.102608
      vertex 5 -2.5 2.5
      vertex 0.580882 -2.5 0.14509
    endloop
  endfacet
  facet normal 0 -1 0
    outer loop
      vertex 0.957952 -2.5 0.048275
      vertex 5 -2.5 2.5
      vertex 0.770938 -2.5 0.102608
    endloop
  endfacet
  facet normal 0 -1 0
    outer loop
      vertex 1.14119 -2.5 -0.0176926
      vertex 5 -2.5 2.5
      vertex 0.957952 -2.5 0.048275
    endloop
  endfacet
  facet normal 0 -1 0
    outer loop
      vertex 1.31992 -2.5 -0.0950356
      vertex 5 -2.5 2.5
      vertex 1.14119 -2.5 -0.0176926
    endloop
  endfacet
  facet normal 0 -1 0
    outer loop
      vertex 1.49344 -2.5 -0.183449
      vertex 5 -2.5 2.5
      vertex 1.31992 -2.5 -0.0950356
    endloop
  endfacet
  facet normal 0 -1 0
    outer loop
      vertex 1.66106 -2.5 -0.282583
      vertex 5 -2.5 2.5
      vertex 1.49344 -2.5 -0.183449
    endloop
  endfacet
  facet normal 0 -1 0
    outer loop
      vertex 1.82213 -2.5 -0.392047
      vertex 5 -2.5 2.5
      vertex 1.66106 -2.5 -0.282583
    endloop
  endfacet
  facet normal 0 -1 0
    outer loop
      vertex 1.97601 -2.5 -0.511409
      vertex 5 -2.5 2.5
      vertex 1.82213 -2.5 -0.392047
    endloop
  endfacet
  facet normal 0 -1 0
    outer loop
      vertex 2.1221 -2.5 -0.640197
      vertex 5 -2.5 2.5
      vertex 1.97601 -2.5 -0.511409
    endloop
  endfacet
  facet normal 0 -1 0
    outer loop
      vertex 2.2598 -2.5 -0.777904
      vertex 5 -2.5 2.5
      vertex 2.1221 -2.5 -0.640197
    endloop
  endfacet
  facet normal 0 -1 0
    outer loop
      vertex 2.38859 -2.5 -0.923985
      vertex 5 -2.5 2.5
      vertex 2.2598 -2.5 -0.777904
    endloop
  endfacet
  facet normal 0 -1 0
    outer loop
      vertex 2.50795 -2.5 -1.07787
      vertex 5 -2.5 2.5
      vertex 2.38859 -2.5 -0.923985
    endloop
  endfacet
  facet normal 0 -1 0
    outer loop
      vertex 2.61742 -2.5 -1.23894
      vertex 5 -2.5 2.5
      vertex 2.50795 -2.5 -1.07787
    endloop
  endfacet
  facet normal 0 -1 0
    outer loop
      vertex 5 -2.5 -2.5
      vertex 2.61742 -2.5 -1.23894
      vertex 2.71655 -2.5 -1.40656
    endloop
  endfacet
  facet normal 0 -1 0
    outer loop
      vertex 5 -2.5 -2.5
      vertex 2.71655 -2.5 -1.40656
      vertex 2.80496 -2.5 -1.58008
    endloop
  endfacet
  facet normal 0 -1 0
    outer loop
      vertex 5 -2.5 -2.5
      vertex 2.80496 -2.5 -1.58008
      vertex 2.88231 -2.5 -1.75881
    endloop
  endfacet
  facet normal 0 -1 0
    outer loop
      vertex 5 -2.5 -2.5
      vertex 2.88231 -2.5 -1.75881
      vertex 2.94827 -2.5 -1.94205
    endloop
  endfacet
  facet normal 0 -1 0
    outer loop
      vertex 5 -2.5 -2.5
      vertex 2.94827 -2.5 -1.94205
      vertex 3.00261 -2.5 -2.12906
    endloop
  endfacet
  facet normal 0 -1 0
    outer loop
      vertex 5 -2.5 -2.5
      vertex 3.00261 -2.5 -2.12906
      vertex 3.04509 -2.5 -2.31912
    endloop
  endfacet
  facet normal 0 -1 0
    outer loop
      vertex 5 -2.5 -2.5
      vertex 3.04509 -2.5 -2.31912
      vertex 3.07374 -2.5 -2.5
    endloop
  endfacet
  facet normal 0 -1 0
    outer loop
      vertex 2.61742 -2.5 -1.23894
      vertex 5 -2.5 -2.5
      vertex 5 -2.5 2.5
    endloop
  endfacet
  facet normal -0.0314144 0 -0.999506
    outer loop
      vertex 0 -2.5 0.2
      vertex 0.19465 2.5 0.193882
      vertex 0.19465 -2.5 0.193882
    endloop
  endfacet
  facet normal -0.0314144 0 -0.999506
    outer loop
      vertex 0.19465 2.5 0.193882
      vertex 0 -2.5 0.2
      vertex 0 2.5 0.2
    endloop
  endfacet
  facet normal -0.707107 0 -0.707107
    outer loop
      vertex 2.2598 -2.5 -0.777904
      vertex 2.1221 2.5 -0.640197
      vertex 2.2598 2.5 -0.777904
    endloop
  endfacet
  facet normal -0.707107 -0 -0.707107
    outer loop
      vertex 2.1221 2.5 -0.640197
      vertex 2.2598 -2.5 -0.777904
      vertex 2.1221 -2.5 -0.640197
    endloop
  endfacet
  facet normal 0.987688 0 -0.156435
    outer loop
      vertex -3.04509 -2.5 -2.31912
      vertex -3.07374 2.5 -2.5
      vertex -3.04509 2.5 -2.31912
    endloop
  endfacet
  facet normal 0.987688 0 -0.156435
    outer loop
      vertex -3.07374 2.5 -2.5
      vertex -3.04509 -2.5 -2.31912
      vertex -3.07374 -2.5 -2.5
    endloop
  endfacet
  facet normal -0.975917 0 -0.218142
    outer loop
      vertex 3.04509 -2.5 -2.31912
      vertex 3.00261 2.5 -2.12906
      vertex 3.04509 2.5 -2.31912
    endloop
  endfacet
  facet normal -0.975917 -0 -0.218142
    outer loop
      vertex 3.00261 2.5 -2.12906
      vertex 3.04509 -2.5 -2.31912
      vertex 3.00261 -2.5 -2.12906
    endloop
  endfacet
  facet normal -0.338736 0 -0.940882
    outer loop
      vertex 0.957952 -2.5 0.048275
      vertex 1.14119 2.5 -0.0176926
      vertex 1.14119 -2.5 -0.0176926
    endloop
  endfacet
  facet normal -0.338736 0 -0.940882
    outer loop
      vertex 1.14119 2.5 -0.0176926
      vertex 0.957952 -2.5 0.048275
      vertex 0.957952 2.5 0.048275
    endloop
  endfacet
  facet normal 0.975917 0 -0.218142
    outer loop
      vertex -3.00261 -2.5 -2.12906
      vertex -3.04509 2.5 -2.31912
      vertex -3.00261 2.5 -2.12906
    endloop
  endfacet
  facet normal 0.975917 0 -0.218142
    outer loop
      vertex -3.04509 2.5 -2.31912
      vertex -3.00261 -2.5 -2.12906
      vertex -3.04509 -2.5 -2.31912
    endloop
  endfacet
  facet normal 0.338736 0 -0.940882
    outer loop
      vertex -1.14119 -2.5 -0.0176926
      vertex -0.957952 2.5 0.048275
      vertex -0.957952 -2.5 0.048275
    endloop
  endfacet
  facet normal 0.338736 0 -0.940882
    outer loop
      vertex -0.957952 2.5 0.048275
      vertex -1.14119 -2.5 -0.0176926
      vertex -1.14119 2.5 -0.0176926
    endloop
  endfacet
  facet normal -0.218143 0 -0.975917
    outer loop
      vertex 0.580882 -2.5 0.14509
      vertex 0.770938 2.5 0.102608
      vertex 0.770938 -2.5 0.102608
    endloop
  endfacet
  facet normal -0.218143 0 -0.975917
    outer loop
      vertex 0.770938 2.5 0.102608
      vertex 0.580882 -2.5 0.14509
      vertex 0.580882 2.5 0.14509
    endloop
  endfacet
  facet normal -0.397146 0 -0.917755
    outer loop
      vertex 1.14119 -2.5 -0.0176926
      vertex 1.31992 2.5 -0.0950356
      vertex 1.31992 -2.5 -0.0950356
    endloop
  endfacet
  facet normal -0.397146 0 -0.917755
    outer loop
      vertex 1.31992 2.5 -0.0950356
      vertex 1.14119 -2.5 -0.0176926
      vertex 1.14119 2.5 -0.0176926
    endloop
  endfacet
  facet normal -0.891007 0 -0.45399
    outer loop
      vertex 2.80496 -2.5 -1.58008
      vertex 2.71655 2.5 -1.40656
      vertex 2.80496 2.5 -1.58008
    endloop
  endfacet
  facet normal -0.891007 -0 -0.45399
    outer loop
      vertex 2.71655 2.5 -1.40656
      vertex 2.80496 -2.5 -1.58008
      vertex 2.71655 -2.5 -1.40656
    endloop
  endfacet
  facet normal -0.790157 0 -0.612905
    outer loop
      vertex 2.50795 -2.5 -1.07787
      vertex 2.38859 2.5 -0.923985
      vertex 2.50795 2.5 -1.07787
    endloop
  endfacet
  facet normal -0.790157 -0 -0.612905
    outer loop
      vertex 2.38859 2.5 -0.923985
      vertex 2.50795 -2.5 -1.07787
      vertex 2.38859 -2.5 -0.923985
    endloop
  endfacet
  facet normal -0.917754 0 -0.39715
    outer loop
      vertex 2.88231 -2.5 -1.75881
      vertex 2.80496 2.5 -1.58008
      vertex 2.88231 2.5 -1.75881
    endloop
  endfacet
  facet normal -0.917754 -0 -0.39715
    outer loop
      vertex 2.80496 2.5 -1.58008
      vertex 2.88231 -2.5 -1.75881
      vertex 2.80496 -2.5 -1.58008
    endloop
  endfacet
  facet normal 0.562081 0 -0.827082
    outer loop
      vertex -1.82213 -2.5 -0.392047
      vertex -1.66106 2.5 -0.282583
      vertex -1.66106 -2.5 -0.282583
    endloop
  endfacet
  facet normal 0.562081 0 -0.827082
    outer loop
      vertex -1.66106 2.5 -0.282583
      vertex -1.82213 -2.5 -0.392047
      vertex -1.82213 2.5 -0.392047
    endloop
  endfacet
  facet normal 0.156434 0 -0.987688
    outer loop
      vertex -0.580882 -2.5 0.14509
      vertex -0.388533 2.5 0.175555
      vertex -0.388533 -2.5 0.175555
    endloop
  endfacet
  facet normal 0.156434 0 -0.987688
    outer loop
      vertex -0.388533 2.5 0.175555
      vertex -0.580882 -2.5 0.14509
      vertex -0.580882 2.5 0.14509
    endloop
  endfacet
  facet normal 0.960293 0 -0.278992
    outer loop
      vertex -2.94827 -2.5 -1.94205
      vertex -3.00261 2.5 -2.12906
      vertex -2.94827 2.5 -1.94205
    endloop
  endfacet
  facet normal 0.960293 0 -0.278992
    outer loop
      vertex -3.00261 2.5 -2.12906
      vertex -2.94827 -2.5 -1.94205
      vertex -3.00261 -2.5 -2.12906
    endloop
  endfacet
  facet normal 0.0314144 0 -0.999506
    outer loop
      vertex -0.19465 -2.5 0.193882
      vertex 0 2.5 0.2
      vertex 0 -2.5 0.2
    endloop
  endfacet
  facet normal 0.0314144 0 -0.999506
    outer loop
      vertex 0 2.5 0.2
      vertex -0.19465 -2.5 0.193882
      vertex -0.19465 2.5 0.193882
    endloop
  endfacet
  facet normal -0.156434 0 -0.987688
    outer loop
      vertex 0.388533 -2.5 0.175555
      vertex 0.580882 2.5 0.14509
      vertex 0.580882 -2.5 0.14509
    endloop
  endfacet
  facet normal -0.156434 0 -0.987688
    outer loop
      vertex 0.580882 2.5 0.14509
      vertex 0.388533 -2.5 0.175555
      vertex 0.388533 2.5 0.175555
    endloop
  endfacet
  facet normal -0.278991 0 -0.960294
    outer loop
      vertex 0.770938 -2.5 0.102608
      vertex 0.957952 2.5 0.048275
      vertex 0.957952 -2.5 0.048275
    endloop
  endfacet
  facet normal -0.278991 0 -0.960294
    outer loop
      vertex 0.957952 2.5 0.048275
      vertex 0.770938 -2.5 0.102608
      vertex 0.770938 2.5 0.102608
    endloop
  endfacet
  facet normal -0.453992 0 -0.891006
    outer loop
      vertex 1.31992 -2.5 -0.0950356
      vertex 1.49344 2.5 -0.183449
      vertex 1.49344 -2.5 -0.183449
    endloop
  endfacet
  facet normal -0.453992 0 -0.891006
    outer loop
      vertex 1.49344 2.5 -0.183449
      vertex 1.31992 -2.5 -0.0950356
      vertex 1.31992 2.5 -0.0950356
    endloop
  endfacet
  facet normal -0.509043 0 -0.860741
    outer loop
      vertex 1.49344 -2.5 -0.183449
      vertex 1.66106 2.5 -0.282583
      vertex 1.66106 -2.5 -0.282583
    endloop
  endfacet
  facet normal -0.509043 0 -0.860741
    outer loop
      vertex 1.66106 2.5 -0.282583
      vertex 1.49344 -2.5 -0.183449
      vertex 1.49344 2.5 -0.183449
    endloop
  endfacet
  facet normal -0.612908 0 -0.790154
    outer loop
      vertex 1.82213 -2.5 -0.392047
      vertex 1.97601 2.5 -0.511409
      vertex 1.97601 -2.5 -0.511409
    endloop
  endfacet
  facet normal -0.612908 0 -0.790154
    outer loop
      vertex 1.97601 2.5 -0.511409
      vertex 1.82213 -2.5 -0.392047
      vertex 1.82213 2.5 -0.392047
    endloop
  endfacet
  facet normal -0.987688 0 -0.156435
    outer loop
      vertex 3.07374 -2.5 -2.5
      vertex 3.04509 2.5 -2.31912
      vertex 3.07374 2.5 -2.5
    endloop
  endfacet
  facet normal -0.987688 -0 -0.156435
    outer loop
      vertex 3.04509 2.5 -2.31912
      vertex 3.07374 -2.5 -2.5
      vertex 3.04509 -2.5 -2.31912
    endloop
  endfacet
  facet normal -0.960293 0 -0.278992
    outer loop
      vertex 3.00261 -2.5 -2.12906
      vertex 2.94827 2.5 -1.94205
      vertex 3.00261 2.5 -2.12906
    endloop
  endfacet
  facet normal -0.960293 -0 -0.278992
    outer loop
      vertex 2.94827 2.5 -1.94205
      vertex 3.00261 -2.5 -2.12906
      vertex 2.94827 -2.5 -1.94205
    endloop
  endfacet
  facet normal -0.827078 0 -0.562087
    outer loop
      vertex 2.61742 -2.5 -1.23894
      vertex 2.50795 2.5 -1.07787
      vertex 2.61742 2.5 -1.23894
    endloop
  endfacet
  facet normal -0.827078 -0 -0.562087
    outer loop
      vertex 2.50795 2.5 -1.07787
      vertex 2.61742 -2.5 -1.23894
      vertex 2.50795 -2.5 -1.07787
    endloop
  endfacet
  facet normal -0.860743 0 -0.50904
    outer loop
      vertex 2.71655 -2.5 -1.40656
      vertex 2.61742 2.5 -1.23894
      vertex 2.71655 2.5 -1.40656
    endloop
  endfacet
  facet normal -0.860743 -0 -0.50904
    outer loop
      vertex 2.61742 2.5 -1.23894
      vertex 2.71655 -2.5 -1.40656
      vertex 2.61742 -2.5 -1.23894
    endloop
  endfacet
  facet normal -0.940882 0 -0.338736
    outer loop
      vertex 2.94827 -2.5 -1.94205
      vertex 2.88231 2.5 -1.75881
      vertex 2.94827 2.5 -1.94205
    endloop
  endfacet
  facet normal -0.940882 -0 -0.338736
    outer loop
      vertex 2.88231 2.5 -1.75881
      vertex 2.94827 -2.5 -1.94205
      vertex 2.88231 -2.5 -1.75881
    endloop
  endfacet
  facet normal 0.397146 0 -0.917755
    outer loop
      vertex -1.31992 -2.5 -0.0950356
      vertex -1.14119 2.5 -0.0176926
      vertex -1.14119 -2.5 -0.0176926
    endloop
  endfacet
  facet normal 0.397146 0 -0.917755
    outer loop
      vertex -1.14119 2.5 -0.0176926
      vertex -1.31992 -2.5 -0.0950356
      vertex -1.31992 2.5 -0.0950356
    endloop
  endfacet
  facet normal 0.661313 0 -0.75011
    outer loop
      vertex -2.1221 -2.5 -0.640197
      vertex -1.97601 2.5 -0.511409
      vertex -1.97601 -2.5 -0.511409
    endloop
  endfacet
  facet normal 0.661313 0 -0.75011
    outer loop
      vertex -1.97601 2.5 -0.511409
      vertex -2.1221 -2.5 -0.640197
      vertex -2.1221 2.5 -0.640197
    endloop
  endfacet
  facet normal 0.278991 0 -0.960294
    outer loop
      vertex -0.957952 -2.5 0.048275
      vertex -0.770938 2.5 0.102608
      vertex -0.770938 -2.5 0.102608
    endloop
  endfacet
  facet normal 0.278991 0 -0.960294
    outer loop
      vertex -0.770938 2.5 0.102608
      vertex -0.957952 -2.5 0.048275
      vertex -0.957952 2.5 0.048275
    endloop
  endfacet
  facet normal 0.218143 0 -0.975917
    outer loop
      vertex -0.770938 -2.5 0.102608
      vertex -0.580882 2.5 0.14509
      vertex -0.580882 -2.5 0.14509
    endloop
  endfacet
  facet normal 0.218143 0 -0.975917
    outer loop
      vertex -0.580882 2.5 0.14509
      vertex -0.770938 -2.5 0.102608
      vertex -0.770938 2.5 0.102608
    endloop
  endfacet
  facet normal 0.0941054 0 -0.995562
    outer loop
      vertex -0.388533 -2.5 0.175555
      vertex -0.19465 2.5 0.193882
      vertex -0.19465 -2.5 0.193882
    endloop
  endfacet
  facet normal 0.0941054 0 -0.995562
    outer loop
      vertex -0.19465 2.5 0.193882
      vertex -0.388533 -2.5 0.175555
      vertex -0.388533 2.5 0.175555
    endloop
  endfacet
  facet normal 0.75011 0 -0.661313
    outer loop
      vertex -2.2598 -2.5 -0.777904
      vertex -2.38859 2.5 -0.923985
      vertex -2.2598 2.5 -0.777904
    endloop
  endfacet
  facet normal 0.75011 0 -0.661313
    outer loop
      vertex -2.38859 2.5 -0.923985
      vertex -2.2598 -2.5 -0.777904
      vertex -2.38859 -2.5 -0.923985
    endloop
  endfacet
  facet normal 0.707107 0 -0.707107
    outer loop
      vertex -2.1221 -2.5 -0.640197
      vertex -2.2598 2.5 -0.777904
      vertex -2.1221 2.5 -0.640197
    endloop
  endfacet
  facet normal 0.707107 0 -0.707107
    outer loop
      vertex -2.2598 2.5 -0.777904
      vertex -2.1221 -2.5 -0.640197
      vertex -2.2598 -2.5 -0.777904
    endloop
  endfacet
  facet normal 0.917754 0 -0.39715
    outer loop
      vertex -2.80496 -2.5 -1.58008
      vertex -2.88231 2.5 -1.75881
      vertex -2.80496 2.5 -1.58008
    endloop
  endfacet
  facet normal 0.917754 0 -0.39715
    outer loop
      vertex -2.88231 2.5 -1.75881
      vertex -2.80496 -2.5 -1.58008
      vertex -2.88231 -2.5 -1.75881
    endloop
  endfacet
  facet normal 0.940882 0 -0.338736
    outer loop
      vertex -2.88231 -2.5 -1.75881
      vertex -2.94827 2.5 -1.94205
      vertex -2.88231 2.5 -1.75881
    endloop
  endfacet
  facet normal 0.940882 0 -0.338736
    outer loop
      vertex -2.94827 2.5 -1.94205
      vertex -2.88231 -2.5 -1.75881
      vertex -2.94827 -2.5 -1.94205
    endloop
  endfacet
  facet normal -0.0941054 0 -0.995562
    outer loop
      vertex 0.19465 -2.5 0.193882
      vertex 0.388533 2.5 0.175555
      vertex 0.388533 -2.5 0.175555
    endloop
  endfacet
  facet normal -0.0941054 0 -0.995562
    outer loop
      vertex 0.388533 2.5 0.175555
      vertex 0.19465 -2.5 0.193882
      vertex 0.19465 2.5 0.193882
    endloop
  endfacet
  facet normal -0.562081 0 -0.827082
    outer loop
      vertex 1.66106 -2.5 -0.282583
      vertex 1.82213 2.5 -0.392047
      vertex 1.82213 -2.5 -0.392047
    endloop
  endfacet
  facet normal -0.562081 0 -0.827082
    outer loop
      vertex 1.82213 2.5 -0.392047
      vertex 1.66106 -2.5 -0.282583
      vertex 1.66106 2.5 -0.282583
    endloop
  endfacet
  facet normal -0.75011 0 -0.661313
    outer loop
      vertex 2.38859 -2.5 -0.923985
      vertex 2.2598 2.5 -0.777904
      vertex 2.38859 2.5 -0.923985
    endloop
  endfacet
  facet normal -0.75011 -0 -0.661313
    outer loop
      vertex 2.2598 2.5 -0.777904
      vertex 2.38859 -2.5 -0.923985
      vertex 2.2598 -2.5 -0.777904
    endloop
  endfacet
  facet normal 0.509043 0 -0.860741
    outer loop
      vertex -1.66106 -2.5 -0.282583
      vertex -1.49344 2.5 -0.183449
      vertex -1.49344 -2.5 -0.183449
    endloop
  endfacet
  facet normal 0.509043 0 -0.860741
    outer loop
      vertex -1.49344 2.5 -0.183449
      vertex -1.66106 -2.5 -0.282583
      vertex -1.66106 2.5 -0.282583
    endloop
  endfacet
  facet normal 0.612908 0 -0.790154
    outer loop
      vertex -1.97601 -2.5 -0.511409
      vertex -1.82213 2.5 -0.392047
      vertex -1.82213 -2.5 -0.392047
    endloop
  endfacet
  facet normal 0.612908 0 -0.790154
    outer loop
      vertex -1.82213 2.5 -0.392047
      vertex -1.97601 -2.5 -0.511409
      vertex -1.97601 2.5 -0.511409
    endloop
  endfacet
  facet normal 0.891007 0 -0.45399
    outer loop
      vertex -2.71655 -2.5 -1.40656
      vertex -2.80496 2.5 -1.58008
      vertex -2.71655 2.5 -1.40656
    endloop
  endfacet
  facet normal 0.891007 0 -0.45399
    outer loop
      vertex -2.80496 2.5 -1.58008
      vertex -2.71655 -2.5 -1.40656
      vertex -2.80496 -2.5 -1.58008
    endloop
  endfacet
  facet normal 0.827078 0 -0.562087
    outer loop
      vertex -2.50795 -2.5 -1.07787
      vertex -2.61742 2.5 -1.23894
      vertex -2.50795 2.5 -1.07787
    endloop
  endfacet
  facet normal 0.827078 0 -0.562087
    outer loop
      vertex -2.61742 2.5 -1.23894
      vertex -2.50795 -2.5 -1.07787
      vertex -2.61742 -2.5 -1.23894
    endloop
  endfacet
  facet normal 0.860743 0 -0.50904
    outer loop
      vertex -2.61742 -2.5 -1.23894
      vertex -2.71655 2.5 -1.40656
      vertex -2.61742 2.5 -1.23894
    endloop
  endfacet
  facet normal 0.860743 0 -0.50904
    outer loop
      vertex -2.71655 2.5 -1.40656
      vertex -2.61742 -2.5 -1.23894
      vertex -2.71655 -2.5 -1.40656
    endloop
  endfacet
  facet normal 0.790157 0 -0.612905
    outer loop
      vertex -2.38859 -2.5 -0.923985
      vertex -2.50795 2.5 -1.07787
      vertex -2.38859 2.5 -0.923985
    endloop
  endfacet
  facet normal 0.790157 0 -0.612905
    outer loop
      vertex -2.50795 2.5 -1.07787
      vertex -2.38859 -2.5 -0.923985
      vertex -2.50795 -2.5 -1.07787
    endloop
  endfacet
  facet normal -0.661313 0 -0.75011
    outer loop
      vertex 1.97601 -2.5 -0.511409
      vertex 2.1221 2.5 -0.640197
      vertex 2.1221 -2.5 -0.640197
    endloop
  endfacet
  facet normal -0.661313 0 -0.75011
    outer loop
      vertex 2.1221 2.5 -0.640197
      vertex 1.97601 -2.5 -0.511409
      vertex 1.97601 2.5 -0.511409
    endloop
  endfacet
  facet normal 0.453992 0 -0.891006
    outer loop
      vertex -1.49344 -2.5 -0.183449
      vertex -1.31992 2.5 -0.0950356
      vertex -1.31992 -2.5 -0.0950356
    endloop
  endfacet
  facet normal 0.453992 0 -0.891006
    outer loop
      vertex -1.31992 2.5 -0.0950356
      vertex -1.49344 -2.5 -0.183449
      vertex -1.49344 2.5 -0.183449
    endloop
  endfacet
endsolid OpenSCAD_Model
