solid OpenSCAD_Model
  facet normal -1 0 0
    outer loop
      vertex -5 -2.5 -2.5
      vertex -5 2.5 2.5
      vertex -5 2.5 -2.5
    endloop
  endfacet
  facet normal -1 -0 0
    outer loop
      vertex -5 2.5 2.5
      vertex -5 -2.5 -2.5
      vertex -5 -2.5 2.5
    endloop
  endfacet
  facet normal -0 0 1
    outer loop
      vertex -5 2.5 2.5
      vertex 5 -2.5 2.5
      vertex 5 2.5 2.5
    endloop
  endfacet
  facet normal 0 0 1
    outer loop
      vertex 5 -2.5 2.5
      vertex -5 2.5 2.5
      vertex -5 -2.5 2.5
    endloop
  endfacet
  facet normal 1 -0 0
    outer loop
      vertex 5 -2.5 2.5
      vertex 5 2.5 -2.5
      vertex 5 2.5 2.5
    endloop
  endfacet
  facet normal 1 0 0
    outer loop
      vertex 5 2.5 -2.5
      vertex 5 -2.5 2.5
      vertex 5 -2.5 -2.5
    endloop
  endfacet
  facet normal 0 1 0
    outer loop
      vertex 5 2.5 2.5
      vertex 0 2.5 0.799999
      vertex -5 2.5 2.5
    endloop
  endfacet
  facet normal 0 1 0
    outer loop
      vertex 5 2.5 2.5
      vertex 0.232325 2.5 0.792699
      vertex 0 2.5 0.799999
    endloop
  endfacet
  facet normal 0 1 0
    outer loop
      vertex 5 2.5 2.5
      vertex 0.463733 2.5 0.770823
      vertex 0.232325 2.5 0.792699
    endloop
  endfacet
  facet normal 0 1 0
    outer loop
      vertex 5 2.5 2.5
      vertex 0.693311 2.5 0.734463
      vertex 0.463733 2.5 0.770823
    endloop
  endfacet
  facet normal 0 1 0
    outer loop
      vertex 5 2.5 2.5
      vertex 0.920152 2.5 0.683757
      vertex 0.693311 2.5 0.734463
    endloop
  endfacet
  facet normal 0 1 0
    outer loop
      vertex 5 2.5 2.5
      vertex 1.14336 2.5 0.618909
      vertex 0.920152 2.5 0.683757
    endloop
  endfacet
  facet normal 0 1 0
    outer loop
      vertex 5 2.5 2.5
      vertex 1.36206 2.5 0.540173
      vertex 1.14336 2.5 0.618909
    endloop
  endfacet
  facet normal 0 1 0
    outer loop
      vertex 5 2.5 2.5
      vertex 1.57538 2.5 0.44786
      vertex 1.36206 2.5 0.540173
    endloop
  endfacet
  facet normal 0 1 0
    outer loop
      vertex 5 2.5 2.5
      vertex 1.78249 2.5 0.342334
      vertex 1.57538 2.5 0.44786
    endloop
  endfacet
  facet normal 0 1 0
    outer loop
      vertex 5 2.5 2.5
      vertex 1.98256 2.5 0.224012
      vertex 1.78249 2.5 0.342334
    endloop
  endfacet
  facet normal 0 1 0
    outer loop
      vertex 5 2.5 2.5
      vertex 2.1748 2.5 0.0933628
      vertex 1.98256 2.5 0.224012
    endloop
  endfacet
  facet normal 0 1 0
    outer loop
      vertex 5 2.5 2.5
      vertex 2.35847 2.5 -0.0491009
      vertex 2.1748 2.5 0.0933628
    endloop
  endfacet
  facet normal 0 1 0
    outer loop
      vertex 5 2.5 2.5
      vertex 2.53282 2.5 -0.202816
      vertex 2.35847 2.5 -0.0491009
    endloop
  endfacet
  facet normal 0 1 0
    outer loop
      vertex 5 2.5 2.5
      vertex 2.69718 2.5 -0.367175
      vertex 2.53282 2.5 -0.202816
    endloop
  endfacet
  facet normal 0 1 0
    outer loop
      vertex 5 2.5 2.5
      vertex 2.8509 2.5 -0.541531
      vertex 2.69718 2.5 -0.367175
    endloop
  endfacet
  facet normal 0 1 0
    outer loop
      vertex 5 2.5 2.5
      vertex 2.99336 2.5 -0.725194
      vertex 2.8509 2.5 -0.541531
    endloop
  endfacet
  facet normal 0 1 0
    outer loop
      vertex 5 2.5 2.5
      vertex 3.12401 2.5 -0.91744
      vertex 2.99336 2.5 -0.725194
    endloop
  endfacet
  facet normal 0 1 0
    outer loop
      vertex 5 2.5 2.5
      vertex 3.24233 2.5 -1.11751
      vertex 3.12401 2.5 -0.91744
    endloop
  endfacet
  facet normal 0 1 -0
    outer loop
      vertex 5 2.5 -2.5
      vertex 3.24233 2.5 -1.11751
      vertex 5 2.5 2.5
    endloop
  endfacet
  facet normal 0 1 0
    outer loop
      vertex 3.24233 2.5 -1.11751
      vertex 5 2.5 -2.5
      vertex 3.34786 2.5 -1.32462
    endloop
  endfacet
  facet normal 0 1 0
    outer loop
      vertex 3.34786 2.5 -1.32462
      vertex 5 2.5 -2.5
      vertex 3.44017 2.5 -1.53794
    endloop
  endfacet
  facet normal 0 1 0
    outer loop
      vertex 3.44017 2.5 -1.53794
      vertex 5 2.5 -2.5
      vertex 3.51891 2.5 -1.75664
    endloop
  endfacet
  facet normal 0 1 0
    outer loop
      vertex 3.51891 2.5 -1.75664
      vertex 5 2.5 -2.5
      vertex 3.58376 2.5 -1.97985
    endloop
  endfacet
  facet normal 0 1 0
    outer loop
      vertex 3.58376 2.5 -1.97985
      vertex 5 2.5 -2.5
      vertex 3.63446 2.5 -2.20669
    endloop
  endfacet
  facet normal 0 1 0
    outer loop
      vertex 3.63446 2.5 -2.20669
      vertex 5 2.5 -2.5
      vertex 3.67082 2.5 -2.43627
    endloop
  endfacet
  facet normal 0 1 0
    outer loop
      vertex 3.67082 2.5 -2.43627
      vertex 5 2.5 -2.5
      vertex 3.67685 2.5 -2.5
    endloop
  endfacet
  facet normal 0 1 -0
    outer loop
      vertex -0.232325 2.5 0.792699
      vertex -5 2.5 2.5
      vertex 0 2.5 0.799999
    endloop
  endfacet
  facet normal 0 1 -0
    outer loop
      vertex -0.463733 2.5 0.770823
      vertex -5 2.5 2.5
      vertex -0.232325 2.5 0.792699
    endloop
  endfacet
  facet normal 0 1 -0
    outer loop
      vertex -0.693311 2.5 0.734463
      vertex -5 2.5 2.5
      vertex -0.463733 2.5 0.770823
    endloop
  endfacet
  facet normal 0 1 -0
    outer loop
      vertex -0.920152 2.5 0.683757
      vertex -5 2.5 2.5
      vertex -0.693311 2.5 0.734463
    endloop
  endfacet
  facet normal 0 1 -0
    outer loop
      vertex -1.14336 2.5 0.618909
      vertex -5 2.5 2.5
      vertex -0.920152 2.5 0.683757
    endloop
  endfacet
  facet normal 0 1 -0
    outer loop
      vertex -1.36206 2.5 0.540173
      vertex -5 2.5 2.5
      vertex -1.14336 2.5 0.618909
    endloop
  endfacet
  facet normal 0 1 -0
    outer loop
      vertex -1.57538 2.5 0.44786
      vertex -5 2.5 2.5
      vertex -1.36206 2.5 0.540173
    endloop
  endfacet
  facet normal 0 1 -0
    outer loop
      vertex -1.78249 2.5 0.342334
      vertex -5 2.5 2.5
      vertex -1.57538 2.5 0.44786
    endloop
  endfacet
  facet normal 0 1 -0
    outer loop
      vertex -1.98256 2.5 0.224012
      vertex -5 2.5 2.5
      vertex -1.78249 2.5 0.342334
    endloop
  endfacet
  facet normal 0 1 -0
    outer loop
      vertex -2.1748 2.5 0.0933628
      vertex -5 2.5 2.5
      vertex -1.98256 2.5 0.224012
    endloop
  endfacet
  facet normal 0 1 -0
    outer loop
      vertex -2.35847 2.5 -0.0491009
      vertex -5 2.5 2.5
      vertex -2.1748 2.5 0.0933628
    endloop
  endfacet
  facet normal 0 1 -0
    outer loop
      vertex -2.53282 2.5 -0.202816
      vertex -5 2.5 2.5
      vertex -2.35847 2.5 -0.0491009
    endloop
  endfacet
  facet normal 0 1 -0
    outer loop
      vertex -2.69718 2.5 -0.367175
      vertex -5 2.5 2.5
      vertex -2.53282 2.5 -0.202816
    endloop
  endfacet
  facet normal 0 1 -0
    outer loop
      vertex -2.8509 2.5 -0.541531
      vertex -5 2.5 2.5
      vertex -2.69718 2.5 -0.367175
    endloop
  endfacet
  facet normal 0 1 -0
    outer loop
      vertex -2.99336 2.5 -0.725194
      vertex -5 2.5 2.5
      vertex -2.8509 2.5 -0.541531
    endloop
  endfacet
  facet normal 0 1 -0
    outer loop
      vertex -3.12401 2.5 -0.91744
      vertex -5 2.5 2.5
      vertex -2.99336 2.5 -0.725194
    endloop
  endfacet
  facet normal 0 1 -0
    outer loop
      vertex -3.24233 2.5 -1.11751
      vertex -5 2.5 2.5
      vertex -3.12401 2.5 -0.91744
    endloop
  endfacet
  facet normal 0 1 0
    outer loop
      vertex -5 2.5 -2.5
      vertex -3.24233 2.5 -1.11751
      vertex -3.34786 2.5 -1.32462
    endloop
  endfacet
  facet normal 0 1 0
    outer loop
      vertex -5 2.5 -2.5
      vertex -3.34786 2.5 -1.32462
      vertex -3.44017 2.5 -1.53794
    endloop
  endfacet
  facet normal 0 1 0
    outer loop
      vertex -5 2.5 -2.5
      vertex -3.44017 2.5 -1.53794
      vertex -3.51891 2.5 -1.75664
    endloop
  endfacet
  facet normal 0 1 0
    outer loop
      vertex -5 2.5 -2.5
      vertex -3.51891 2.5 -1.75664
      vertex -3.58376 2.5 -1.97985
    endloop
  endfacet
  facet normal 0 1 0
    outer loop
      vertex -5 2.5 -2.5
      vertex -3.58376 2.5 -1.97985
      vertex -3.63446 2.5 -2.20669
    endloop
  endfacet
  facet normal 0 1 0
    outer loop
      vertex -5 2.5 -2.5
      vertex -3.63446 2.5 -2.20669
      vertex -3.67082 2.5 -2.43627
    endloop
  endfacet
  facet normal 0 1 0
    outer loop
      vertex -5 2.5 -2.5
      vertex -3.67082 2.5 -2.43627
      vertex -3.67685 2.5 -2.5
    endloop
  endfacet
  facet normal 0 1 0
    outer loop
      vertex -3.24233 2.5 -1.11751
      vertex -5 2.5 -2.5
      vertex -5 2.5 2.5
    endloop
  endfacet
  facet normal 0 0 -1
    outer loop
      vertex -5 -2.5 -2.5
      vertex -3.67685 2.5 -2.5
      vertex -3.67685 -2.5 -2.5
    endloop
  endfacet
  facet normal -0 0 -1
    outer loop
      vertex -3.67685 2.5 -2.5
      vertex -5 -2.5 -2.5
      vertex -5 2.5 -2.5
    endloop
  endfacet
  facet normal 0 0 -1
    outer loop
      vertex 3.67685 -2.5 -2.5
      vertex 5 2.5 -2.5
      vertex 5 -2.5 -2.5
    endloop
  endfacet
  facet normal -0 0 -1
    outer loop
      vertex 5 2.5 -2.5
      vertex 3.67685 -2.5 -2.5
      vertex 3.67685 2.5 -2.5
    endloop
  endfacet
  facet normal 0 -1 0
    outer loop
      vertex -5 -2.5 2.5
      vertex 0 -2.5 0.799999
      vertex 5 -2.5 2.5
    endloop
  endfacet
  facet normal 0 -1 0
    outer loop
      vertex -5 -2.5 2.5
      vertex -0.232325 -2.5 0.792699
      vertex 0 -2.5 0.799999
    endloop
  endfacet
  facet normal 0 -1 0
    outer loop
      vertex -5 -2.5 2.5
      vertex -0.463733 -2.5 0.770823
      vertex -0.232325 -2.5 0.792699
    endloop
  endfacet
  facet normal 0 -1 0
    outer loop
      vertex -5 -2.5 2.5
      vertex -0.693311 -2.5 0.734463
      vertex -0.463733 -2.5 0.770823
    endloop
  endfacet
  facet normal 0 -1 0
    outer loop
      vertex -5 -2.5 2.5
      vertex -0.920152 -2.5 0.683757
      vertex -0.693311 -2.5 0.734463
    endloop
  endfacet
  facet normal 0 -1 0
    outer loop
      vertex -5 -2.5 2.5
      vertex -1.14336 -2.5 0.618909
      vertex -0.920152 -2.5 0.683757
    endloop
  endfacet
  facet normal 0 -1 0
    outer loop
      vertex -5 -2.5 2.5
      vertex -1.36206 -2.5 0.540173
      vertex -1.14336 -2.5 0.618909
    endloop
  endfacet
  facet normal 0 -1 0
    outer loop
      vertex -5 -2.5 2.5
      vertex -1.57538 -2.5 0.44786
      vertex -1.36206 -2.5 0.540173
    endloop
  endfacet
  facet normal 0 -1 0
    outer loop
      vertex -5 -2.5 2.5
      vertex -1.78249 -2.5 0.342334
      vertex -1.57538 -2.5 0.44786
    endloop
  endfacet
  facet normal 0 -1 0
    outer loop
      vertex -5 -2.5 2.5
      vertex -1.98256 -2.5 0.224012
      vertex -1.78249 -2.5 0.342334
    endloop
  endfacet
  facet normal 0 -1 0
    outer loop
      vertex -5 -2.5 2.5
      vertex -2.1748 -2.5 0.0933628
      vertex -1.98256 -2.5 0.224012
    endloop
  endfacet
  facet normal 0 -1 0
    outer loop
      vertex -5 -2.5 2.5
      vertex -2.35847 -2.5 -0.0491009
      vertex -2.1748 -2.5 0.0933628
    endloop
  endfacet
  facet normal 0 -1 0
    outer loop
      vertex -5 -2.5 2.5
      vertex -2.53282 -2.5 -0.202816
      vertex -2.35847 -2.5 -0.0491009
    endloop
  endfacet
  facet normal 0 -1 0
    outer loop
      vertex -5 -2.5 2.5
      vertex -2.69718 -2.5 -0.367175
      vertex -2.53282 -2.5 -0.202816
    endloop
  endfacet
  facet normal 0 -1 0
    outer loop
      vertex -5 -2.5 2.5
      vertex -2.8509 -2.5 -0.541531
      vertex -2.69718 -2.5 -0.367175
    endloop
  endfacet
  facet normal 0 -1 0
    outer loop
      vertex -5 -2.5 2.5
      vertex -2.99336 -2.5 -0.725194
      vertex -2.8509 -2.5 -0.541531
    endloop
  endfacet
  facet normal 0 -1 0
    outer loop
      vertex -5 -2.5 2.5
      vertex -3.12401 -2.5 -0.91744
      vertex -2.99336 -2.5 -0.725194
    endloop
  endfacet
  facet normal 0 -1 0
    outer loop
      vertex -5 -2.5 2.5
      vertex -3.24233 -2.5 -1.11751
      vertex -3.12401 -2.5 -0.91744
    endloop
  endfacet
  facet normal 0 -1 0
    outer loop
      vertex -5 -2.5 -2.5
      vertex -3.24233 -2.5 -1.11751
      vertex -5 -2.5 2.5
    endloop
  endfacet
  facet normal 0 -1 0
    outer loop
      vertex -3.24233 -2.5 -1.11751
      vertex -5 -2.5 -2.5
      vertex -3.34786 -2.5 -1.32462
    endloop
  endfacet
  facet normal 0 -1 0
    outer loop
      vertex -3.34786 -2.5 -1.32462
      vertex -5 -2.5 -2.5
      vertex -3.44017 -2.5 -1.53794
    endloop
  endfacet
  facet normal 0 -1 0
    outer loop
      vertex -3.44017 -2.5 -1.53794
      vertex -5 -2.5 -2.5
      vertex -3.51891 -2.5 -1.75664
    endloop
  endfacet
  facet normal 0 -1 0
    outer loop
      vertex -3.51891 -2.5 -1.75664
      vertex -5 -2.5 -2.5
      vertex -3.58376 -2.5 -1.97985
    endloop
  endfacet
  facet normal 0 -1 0
    outer loop
      vertex -3.58376 -2.5 -1.97985
      vertex -5 -2.5 -2.5
      vertex -3.63446 -2.5 -2.20669
    endloop
  endfacet
  facet normal 0 -1 0
    outer loop
      vertex -3.63446 -2.5 -2.20669
      vertex -5 -2.5 -2.5
      vertex -3.67082 -2.5 -2.43627
    endloop
  endfacet
  facet normal 0 -1 0
    outer loop
      vertex -3.67082 -2.5 -2.43627
      vertex -5 -2.5 -2.5
      vertex -3.67685 -2.5 -2.5
    endloop
  endfacet
  facet normal 0 -1 0
    outer loop
      vertex 0.232325 -2.5 0.792699
      vertex 5 -2.5 2.5
      vertex 0 -2.5 0.799999
    endloop
  endfacet
  facet normal 0 -1 0
    outer loop
      vertex 0.463733 -2.5 0.770823
      vertex 5 -2.5 2.5
      vertex 0.232325 -2.5 0.792699
    endloop
  endfacet
  facet normal 0 -1 0
    outer loop
      vertex 0.693311 -2.5 0.734463
      vertex 5 -2.5 2.5
      vertex 0.463733 -2.5 0.770823
    endloop
  endfacet
  facet normal 0 -1 0
    outer loop
      vertex 0.920152 -2.5 0.683757
      vertex 5 -2.5 2.5
      vertex 0.693311 -2.5 0.734463
    endloop
  endfacet
  facet normal 0 -1 0
    outer loop
      vertex 1.14336 -2.5 0.618909
      vertex 5 -2.5 2.5
      vertex 0.920152 -2.5 0.683757
    endloop
  endfacet
  facet normal 0 -1 0
    outer loop
      vertex 1.36206 -2.5 0.540173
      vertex 5 -2.5 2.5
      vertex 1.14336 -2.5 0.618909
    endloop
  endfacet
  facet normal 0 -1 0
    outer loop
      vertex 1.57538 -2.5 0.44786
      vertex 5 -2.5 2.5
      vertex 1.36206 -2.5 0.540173
    endloop
  endfacet
  facet normal 0 -1 0
    outer loop
      vertex 1.78249 -2.5 0.342334
      vertex 5 -2.5 2.5
      vertex 1.57538 -2.5 0.44786
    endloop
  endfacet
  facet normal 0 -1 0
    outer loop
      vertex 1.98256 -2.5 0.224012
      vertex 5 -2.5 2.5
      vertex 1.78249 -2.5 0.342334
    endloop
  endfacet
  facet normal 0 -1 0
    outer loop
      vertex 2.1748 -2.5 0.0933628
      vertex 5 -2.5 2.5
      vertex 1.98256 -2.5 0.224012
    endloop
  endfacet
  facet normal 0 -1 0
    outer loop
      vertex 2.35847 -2.5 -0.0491009
      vertex 5 -2.5 2.5
      vertex 2.1748 -2.5 0.0933628
    endloop
  endfacet
  facet normal 0 -1 0
    outer loop
      vertex 2.53282 -2.5 -0.202816
      vertex 5 -2.5 2.5
      vertex 2.35847 -2.5 -0.0491009
    endloop
  endfacet
  facet normal 0 -1 0
    outer loop
      vertex 2.69718 -2.5 -0.367175
      vertex 5 -2.5 2.5
      vertex 2.53282 -2.5 -0.202816
    endloop
  endfacet
  facet normal 0 -1 0
    outer loop
      vertex 2.8509 -2.5 -0.541531
      vertex 5 -2.5 2.5
      vertex 2.69718 -2.5 -0.367175
    endloop
  endfacet
  facet normal 0 -1 0
    outer loop
      vertex 2.99336 -2.5 -0.725194
      vertex 5 -2.5 2.5
      vertex 2.8509 -2.5 -0.541531
    endloop
  endfacet
  facet normal 0 -1 0
    outer loop
      vertex 3.12401 -2.5 -0.91744
      vertex 5 -2.5 2.5
      vertex 2.99336 -2.5 -0.725194
    endloop
  endfacet
  facet normal 0 -1 0
    outer loop
      vertex 3.24233 -2.5 -1.11751
      vertex 5 -2.5 2.5
      vertex 3.12401 -2.5 -0.91744
    endloop
  endfacet
  facet normal 0 -1 0
    outer loop
      vertex 5 -2.5 -2.5
      vertex 3.24233 -2.5 -1.11751
      vertex 3.34786 -2.5 -1.32462
    endloop
  endfacet
  facet normal 0 -1 0
    outer loop
      vertex 5 -2.5 -2.5
      vertex 3.34786 -2.5 -1.32462
      vertex 3.44017 -2.5 -1.53794
    endloop
  endfacet
  facet normal 0 -1 0
    outer loop
      vertex 5 -2.5 -2.5
      vertex 3.44017 -2.5 -1.53794
      vertex 3.51891 -2.5 -1.75664
    endloop
  endfacet
  facet normal 0 -1 0
    outer loop
      vertex 5 -2.5 -2.5
      vertex 3.51891 -2.5 -1.75664
      vertex 3.58376 -2.5 -1.97985
    endloop
  endfacet
  facet normal 0 -1 0
    outer loop
      vertex 5 -2.5 -2.5
      vertex 3.58376 -2.5 -1.97985
      vertex 3.63446 -2.5 -2.20669
    endloop
  endfacet
  facet normal 0 -1 0
    outer loop
      vertex 5 -2.5 -2.5
      vertex 3.63446 -2.5 -2.20669
      vertex 3.67082 -2.5 -2.43627
    endloop
  endfacet
  facet normal 0 -1 0
    outer loop
      vertex 5 -2.5 -2.5
      vertex 3.67082 -2.5 -2.43627
      vertex 3.67685 -2.5 -2.5
    endloop
  endfacet
  facet normal 0 -1 0
    outer loop
      vertex 3.24233 -2.5 -1.11751
      vertex 5 -2.5 -2.5
      vertex 5 -2.5 2.5
    endloop
  endfacet
  facet normal -0.995562 0 -0.094109
    outer loop
      vertex 3.67685 -2.5 -2.5
      vertex 3.67082 2.5 -2.43627
      vertex 3.67685 2.5 -2.5
    endloop
  endfacet
  facet normal -0.995562 -0 -0.094109
    outer loop
      vertex 3.67082 2.5 -2.43627
      vertex 3.67685 -2.5 -2.5
      vertex 3.67082 -2.5 -2.43627
    endloop
  endfacet
  facet normal -0.975917 0 -0.218142
    outer loop
      vertex 3.63446 -2.5 -2.20669
      vertex 3.58376 2.5 -1.97985
      vertex 3.63446 2.5 -2.20669
    endloop
  endfacet
  facet normal -0.975917 -0 -0.218142
    outer loop
      vertex 3.58376 2.5 -1.97985
      vertex 3.63446 -2.5 -2.20669
      vertex 3.58376 -2.5 -1.97985
    endloop
  endfacet
  facet normal 0.0314077 0 -0.999507
    outer loop
      vertex -0.232325 -2.5 0.792699
      vertex 0 2.5 0.799999
      vertex 0 -2.5 0.799999
    endloop
  endfacet
  facet normal 0.0314077 0 -0.999507
    outer loop
      vertex 0 2.5 0.799999
      vertex -0.232325 -2.5 0.792699
      vertex -0.232325 2.5 0.792699
    endloop
  endfacet
  facet normal 0.987688 0 -0.156435
    outer loop
      vertex -3.63446 -2.5 -2.20669
      vertex -3.67082 2.5 -2.43627
      vertex -3.63446 2.5 -2.20669
    endloop
  endfacet
  facet normal 0.987688 0 -0.156435
    outer loop
      vertex -3.67082 2.5 -2.43627
      vertex -3.63446 -2.5 -2.20669
      vertex -3.67082 -2.5 -2.43627
    endloop
  endfacet
  facet normal -0.612906 0 -0.790155
    outer loop
      vertex 2.1748 -2.5 0.0933628
      vertex 2.35847 2.5 -0.0491009
      vertex 2.35847 -2.5 -0.0491009
    endloop
  endfacet
  facet normal -0.612906 0 -0.790155
    outer loop
      vertex 2.35847 2.5 -0.0491009
      vertex 2.1748 -2.5 0.0933628
      vertex 2.1748 2.5 0.0933628
    endloop
  endfacet
  facet normal 0.995562 0 -0.094109
    outer loop
      vertex -3.67082 -2.5 -2.43627
      vertex -3.67685 2.5 -2.5
      vertex -3.67082 2.5 -2.43627
    endloop
  endfacet
  facet normal 0.995562 0 -0.094109
    outer loop
      vertex -3.67685 2.5 -2.5
      vertex -3.67082 -2.5 -2.43627
      vertex -3.67685 -2.5 -2.5
    endloop
  endfacet
  facet normal 0.397147 0 -0.917755
    outer loop
      vertex -1.57538 -2.5 0.44786
      vertex -1.36206 2.5 0.540173
      vertex -1.36206 -2.5 0.540173
    endloop
  endfacet
  facet normal 0.397147 0 -0.917755
    outer loop
      vertex -1.36206 2.5 0.540173
      vertex -1.57538 -2.5 0.44786
      vertex -1.57538 2.5 0.44786
    endloop
  endfacet
  facet normal 0.218147 0 -0.975916
    outer loop
      vertex -0.920152 -2.5 0.683757
      vertex -0.693311 2.5 0.734463
      vertex -0.693311 -2.5 0.734463
    endloop
  endfacet
  facet normal 0.218147 0 -0.975916
    outer loop
      vertex -0.693311 2.5 0.734463
      vertex -0.920152 -2.5 0.683757
      vertex -0.920152 2.5 0.683757
    endloop
  endfacet
  facet normal 0.960293 0 -0.278992
    outer loop
      vertex -3.51891 -2.5 -1.75664
      vertex -3.58376 2.5 -1.97985
      vertex -3.51891 2.5 -1.75664
    endloop
  endfacet
  facet normal 0.960293 0 -0.278992
    outer loop
      vertex -3.58376 2.5 -1.97985
      vertex -3.51891 -2.5 -1.75664
      vertex -3.58376 -2.5 -1.97985
    endloop
  endfacet
  facet normal -0.156431 0 -0.987689
    outer loop
      vertex 0.463733 -2.5 0.770823
      vertex 0.693311 2.5 0.734463
      vertex 0.693311 -2.5 0.734463
    endloop
  endfacet
  facet normal -0.156431 0 -0.987689
    outer loop
      vertex 0.693311 2.5 0.734463
      vertex 0.463733 -2.5 0.770823
      vertex 0.463733 2.5 0.770823
    endloop
  endfacet
  facet normal -0.94088 0 -0.338739
    outer loop
      vertex 3.51891 -2.5 -1.75664
      vertex 3.44017 2.5 -1.53794
      vertex 3.51891 2.5 -1.75664
    endloop
  endfacet
  facet normal -0.94088 -0 -0.338739
    outer loop
      vertex 3.44017 2.5 -1.53794
      vertex 3.51891 -2.5 -1.75664
      vertex 3.44017 -2.5 -1.53794
    endloop
  endfacet
  facet normal 0.612906 0 -0.790155
    outer loop
      vertex -2.35847 -2.5 -0.0491009
      vertex -2.1748 2.5 0.0933628
      vertex -2.1748 -2.5 0.0933628
    endloop
  endfacet
  facet normal 0.612906 0 -0.790155
    outer loop
      vertex -2.1748 2.5 0.0933628
      vertex -2.35847 -2.5 -0.0491009
      vertex -2.35847 2.5 -0.0491009
    endloop
  endfacet
  facet normal 0.975917 0 -0.218142
    outer loop
      vertex -3.58376 -2.5 -1.97985
      vertex -3.63446 2.5 -2.20669
      vertex -3.58376 2.5 -1.97985
    endloop
  endfacet
  facet normal 0.975917 0 -0.218142
    outer loop
      vertex -3.63446 2.5 -2.20669
      vertex -3.58376 -2.5 -1.97985
      vertex -3.63446 -2.5 -2.20669
    endloop
  endfacet
  facet normal 0.156431 0 -0.987689
    outer loop
      vertex -0.693311 -2.5 0.734463
      vertex -0.463733 2.5 0.770823
      vertex -0.463733 -2.5 0.770823
    endloop
  endfacet
  facet normal 0.156431 0 -0.987689
    outer loop
      vertex -0.463733 2.5 0.770823
      vertex -0.693311 -2.5 0.734463
      vertex -0.693311 2.5 0.734463
    endloop
  endfacet
  facet normal -0.094112 0 -0.995562
    outer loop
      vertex 0.232325 -2.5 0.792699
      vertex 0.463733 2.5 0.770823
      vertex 0.463733 -2.5 0.770823
    endloop
  endfacet
  facet normal -0.094112 0 -0.995562
    outer loop
      vertex 0.463733 2.5 0.770823
      vertex 0.232325 -2.5 0.792699
      vertex 0.232325 2.5 0.792699
    endloop
  endfacet
  facet normal -0.218147 0 -0.975916
    outer loop
      vertex 0.693311 -2.5 0.734463
      vertex 0.920152 2.5 0.683757
      vertex 0.920152 -2.5 0.683757
    endloop
  endfacet
  facet normal -0.218147 0 -0.975916
    outer loop
      vertex 0.920152 2.5 0.683757
      vertex 0.693311 -2.5 0.734463
      vertex 0.693311 2.5 0.734463
    endloop
  endfacet
  facet normal -0.453993 0 -0.891005
    outer loop
      vertex 1.57538 -2.5 0.44786
      vertex 1.78249 2.5 0.342334
      vertex 1.78249 -2.5 0.342334
    endloop
  endfacet
  facet normal -0.453993 0 -0.891005
    outer loop
      vertex 1.78249 2.5 0.342334
      vertex 1.57538 -2.5 0.44786
      vertex 1.57538 2.5 0.44786
    endloop
  endfacet
  facet normal -0.509042 0 -0.860742
    outer loop
      vertex 1.78249 -2.5 0.342334
      vertex 1.98256 2.5 0.224012
      vertex 1.98256 -2.5 0.224012
    endloop
  endfacet
  facet normal -0.509042 0 -0.860742
    outer loop
      vertex 1.98256 2.5 0.224012
      vertex 1.78249 -2.5 0.342334
      vertex 1.78249 2.5 0.342334
    endloop
  endfacet
  facet normal -0.987688 0 -0.156435
    outer loop
      vertex 3.67082 -2.5 -2.43627
      vertex 3.63446 2.5 -2.20669
      vertex 3.67082 2.5 -2.43627
    endloop
  endfacet
  facet normal -0.987688 -0 -0.156435
    outer loop
      vertex 3.63446 2.5 -2.20669
      vertex 3.67082 -2.5 -2.43627
      vertex 3.63446 -2.5 -2.20669
    endloop
  endfacet
  facet normal -0.960293 0 -0.278992
    outer loop
      vertex 3.58376 -2.5 -1.97985
      vertex 3.51891 2.5 -1.75664
      vertex 3.58376 2.5 -1.97985
    endloop
  endfacet
  facet normal -0.960293 -0 -0.278992
    outer loop
      vertex 3.51891 2.5 -1.75664
      vertex 3.58376 -2.5 -1.97985
      vertex 3.51891 -2.5 -1.75664
    endloop
  endfacet
  facet normal -0.917755 0 -0.397147
    outer loop
      vertex 3.44017 -2.5 -1.53794
      vertex 3.34786 2.5 -1.32462
      vertex 3.44017 2.5 -1.53794
    endloop
  endfacet
  facet normal -0.917755 -0 -0.397147
    outer loop
      vertex 3.34786 2.5 -1.32462
      vertex 3.44017 -2.5 -1.53794
      vertex 3.34786 -2.5 -1.32462
    endloop
  endfacet
  facet normal -0.891008 0 -0.453989
    outer loop
      vertex 3.34786 -2.5 -1.32462
      vertex 3.24233 2.5 -1.11751
      vertex 3.34786 2.5 -1.32462
    endloop
  endfacet
  facet normal -0.891008 -0 -0.453989
    outer loop
      vertex 3.24233 2.5 -1.11751
      vertex 3.34786 -2.5 -1.32462
      vertex 3.24233 -2.5 -1.11751
    endloop
  endfacet
  facet normal 0.453993 0 -0.891005
    outer loop
      vertex -1.78249 -2.5 0.342334
      vertex -1.57538 2.5 0.44786
      vertex -1.57538 -2.5 0.44786
    endloop
  endfacet
  facet normal 0.453993 0 -0.891005
    outer loop
      vertex -1.57538 2.5 0.44786
      vertex -1.78249 -2.5 0.342334
      vertex -1.78249 2.5 0.342334
    endloop
  endfacet
  facet normal 0.707105 0 -0.707109
    outer loop
      vertex -2.69718 -2.5 -0.367175
      vertex -2.53282 2.5 -0.202816
      vertex -2.53282 -2.5 -0.202816
    endloop
  endfacet
  facet normal 0.707105 0 -0.707109
    outer loop
      vertex -2.53282 2.5 -0.202816
      vertex -2.69718 -2.5 -0.367175
      vertex -2.69718 2.5 -0.367175
    endloop
  endfacet
  facet normal 0.338738 0 -0.940881
    outer loop
      vertex -1.36206 -2.5 0.540173
      vertex -1.14336 2.5 0.618909
      vertex -1.14336 -2.5 0.618909
    endloop
  endfacet
  facet normal 0.338738 0 -0.940881
    outer loop
      vertex -1.14336 2.5 0.618909
      vertex -1.36206 -2.5 0.540173
      vertex -1.36206 2.5 0.540173
    endloop
  endfacet
  facet normal 0.827081 0 -0.562083
    outer loop
      vertex -2.99336 -2.5 -0.725194
      vertex -3.12401 2.5 -0.91744
      vertex -2.99336 2.5 -0.725194
    endloop
  endfacet
  facet normal 0.827081 0 -0.562083
    outer loop
      vertex -3.12401 2.5 -0.91744
      vertex -2.99336 -2.5 -0.725194
      vertex -3.12401 -2.5 -0.91744
    endloop
  endfacet
  facet normal 0.750111 0 -0.661312
    outer loop
      vertex -2.69718 -2.5 -0.367175
      vertex -2.8509 2.5 -0.541531
      vertex -2.69718 2.5 -0.367175
    endloop
  endfacet
  facet normal 0.750111 0 -0.661312
    outer loop
      vertex -2.8509 2.5 -0.541531
      vertex -2.69718 -2.5 -0.367175
      vertex -2.8509 -2.5 -0.541531
    endloop
  endfacet
  facet normal 0.94088 0 -0.338739
    outer loop
      vertex -3.44017 -2.5 -1.53794
      vertex -3.51891 2.5 -1.75664
      vertex -3.44017 2.5 -1.53794
    endloop
  endfacet
  facet normal 0.94088 0 -0.338739
    outer loop
      vertex -3.51891 2.5 -1.75664
      vertex -3.44017 -2.5 -1.53794
      vertex -3.51891 -2.5 -1.75664
    endloop
  endfacet
  facet normal 0.278989 0 -0.960294
    outer loop
      vertex -1.14336 -2.5 0.618909
      vertex -0.920152 2.5 0.683757
      vertex -0.920152 -2.5 0.683757
    endloop
  endfacet
  facet normal 0.278989 0 -0.960294
    outer loop
      vertex -0.920152 2.5 0.683757
      vertex -1.14336 -2.5 0.618909
      vertex -1.14336 2.5 0.618909
    endloop
  endfacet
  facet normal 0.094112 0 -0.995562
    outer loop
      vertex -0.463733 -2.5 0.770823
      vertex -0.232325 2.5 0.792699
      vertex -0.232325 -2.5 0.792699
    endloop
  endfacet
  facet normal 0.094112 0 -0.995562
    outer loop
      vertex -0.232325 2.5 0.792699
      vertex -0.463733 -2.5 0.770823
      vertex -0.463733 2.5 0.770823
    endloop
  endfacet
  facet normal -0.0314077 0 -0.999507
    outer loop
      vertex 0 -2.5 0.799999
      vertex 0.232325 2.5 0.792699
      vertex 0.232325 -2.5 0.792699
    endloop
  endfacet
  facet normal -0.0314077 0 -0.999507
    outer loop
      vertex 0.232325 2.5 0.792699
      vertex 0 -2.5 0.799999
      vertex 0 2.5 0.799999
    endloop
  endfacet
  facet normal -0.278989 0 -0.960294
    outer loop
      vertex 0.920152 -2.5 0.683757
      vertex 1.14336 2.5 0.618909
      vertex 1.14336 -2.5 0.618909
    endloop
  endfacet
  facet normal -0.278989 0 -0.960294
    outer loop
      vertex 1.14336 2.5 0.618909
      vertex 0.920152 -2.5 0.683757
      vertex 0.920152 2.5 0.683757
    endloop
  endfacet
  facet normal -0.562081 0 -0.827083
    outer loop
      vertex 1.98256 -2.5 0.224012
      vertex 2.1748 2.5 0.0933628
      vertex 2.1748 -2.5 0.0933628
    endloop
  endfacet
  facet normal -0.562081 0 -0.827083
    outer loop
      vertex 2.1748 2.5 0.0933628
      vertex 1.98256 -2.5 0.224012
      vertex 1.98256 2.5 0.224012
    endloop
  endfacet
  facet normal -0.397147 0 -0.917755
    outer loop
      vertex 1.36206 -2.5 0.540173
      vertex 1.57538 2.5 0.44786
      vertex 1.57538 -2.5 0.44786
    endloop
  endfacet
  facet normal -0.397147 0 -0.917755
    outer loop
      vertex 1.57538 2.5 0.44786
      vertex 1.36206 -2.5 0.540173
      vertex 1.36206 2.5 0.540173
    endloop
  endfacet
  facet normal -0.338738 0 -0.940881
    outer loop
      vertex 1.14336 -2.5 0.618909
      vertex 1.36206 2.5 0.540173
      vertex 1.36206 -2.5 0.540173
    endloop
  endfacet
  facet normal -0.338738 0 -0.940881
    outer loop
      vertex 1.36206 2.5 0.540173
      vertex 1.14336 -2.5 0.618909
      vertex 1.14336 2.5 0.618909
    endloop
  endfacet
  facet normal -0.827081 0 -0.562083
    outer loop
      vertex 3.12401 -2.5 -0.91744
      vertex 2.99336 2.5 -0.725194
      vertex 3.12401 2.5 -0.91744
    endloop
  endfacet
  facet normal -0.827081 -0 -0.562083
    outer loop
      vertex 2.99336 2.5 -0.725194
      vertex 3.12401 -2.5 -0.91744
      vertex 2.99336 -2.5 -0.725194
    endloop
  endfacet
  facet normal -0.750111 0 -0.661312
    outer loop
      vertex 2.8509 -2.5 -0.541531
      vertex 2.69718 2.5 -0.367175
      vertex 2.8509 2.5 -0.541531
    endloop
  endfacet
  facet normal -0.750111 -0 -0.661312
    outer loop
      vertex 2.69718 2.5 -0.367175
      vertex 2.8509 -2.5 -0.541531
      vertex 2.69718 -2.5 -0.367175
    endloop
  endfacet
  facet normal -0.790155 0 -0.612906
    outer loop
      vertex 2.99336 -2.5 -0.725194
      vertex 2.8509 2.5 -0.541531
      vertex 2.99336 2.5 -0.725194
    endloop
  endfacet
  facet normal -0.790155 -0 -0.612906
    outer loop
      vertex 2.8509 2.5 -0.541531
      vertex 2.99336 -2.5 -0.725194
      vertex 2.8509 -2.5 -0.541531
    endloop
  endfacet
  facet normal -0.860742 0 -0.509042
    outer loop
      vertex 3.24233 -2.5 -1.11751
      vertex 3.12401 2.5 -0.91744
      vertex 3.24233 2.5 -1.11751
    endloop
  endfacet
  facet normal -0.860742 -0 -0.509042
    outer loop
      vertex 3.12401 2.5 -0.91744
      vertex 3.24233 -2.5 -1.11751
      vertex 3.12401 -2.5 -0.91744
    endloop
  endfacet
  facet normal 0.562081 0 -0.827083
    outer loop
      vertex -2.1748 -2.5 0.0933628
      vertex -1.98256 2.5 0.224012
      vertex -1.98256 -2.5 0.224012
    endloop
  endfacet
  facet normal 0.562081 0 -0.827083
    outer loop
      vertex -1.98256 2.5 0.224012
      vertex -2.1748 -2.5 0.0933628
      vertex -2.1748 2.5 0.0933628
    endloop
  endfacet
  facet normal 0.661312 0 -0.750111
    outer loop
      vertex -2.53282 -2.5 -0.202816
      vertex -2.35847 2.5 -0.0491009
      vertex -2.35847 -2.5 -0.0491009
    endloop
  endfacet
  facet normal 0.661312 0 -0.750111
    outer loop
      vertex -2.35847 2.5 -0.0491009
      vertex -2.53282 -2.5 -0.202816
      vertex -2.53282 2.5 -0.202816
    endloop
  endfacet
  facet normal 0.860742 0 -0.509042
    outer loop
      vertex -3.12401 -2.5 -0.91744
      vertex -3.24233 2.5 -1.11751
      vertex -3.12401 2.5 -0.91744
    endloop
  endfacet
  facet normal 0.860742 0 -0.509042
    outer loop
      vertex -3.24233 2.5 -1.11751
      vertex -3.12401 -2.5 -0.91744
      vertex -3.24233 -2.5 -1.11751
    endloop
  endfacet
  facet normal 0.891008 0 -0.453989
    outer loop
      vertex -3.24233 -2.5 -1.11751
      vertex -3.34786 2.5 -1.32462
      vertex -3.24233 2.5 -1.11751
    endloop
  endfacet
  facet normal 0.891008 0 -0.453989
    outer loop
      vertex -3.34786 2.5 -1.32462
      vertex -3.24233 -2.5 -1.11751
      vertex -3.34786 -2.5 -1.32462
    endloop
  endfacet
  facet normal 0.917755 0 -0.397147
    outer loop
      vertex -3.34786 -2.5 -1.32462
      vertex -3.44017 2.5 -1.53794
      vertex -3.34786 2.5 -1.32462
    endloop
  endfacet
  facet normal 0.917755 0 -0.397147
    outer loop
      vertex -3.44017 2.5 -1.53794
      vertex -3.34786 -2.5 -1.32462
      vertex -3.44017 -2.5 -1.53794
    endloop
  endfacet
  facet normal -0.661312 0 -0.750111
    outer loop
      vertex 2.35847 -2.5 -0.0491009
      vertex 2.53282 2.5 -0.202816
      vertex 2.53282 -2.5 -0.202816
    endloop
  endfacet
  facet normal -0.661312 0 -0.750111
    outer loop
      vertex 2.53282 2.5 -0.202816
      vertex 2.35847 -2.5 -0.0491009
      vertex 2.35847 2.5 -0.0491009
    endloop
  endfacet
  facet normal 0.509042 0 -0.860742
    outer loop
      vertex -1.98256 -2.5 0.224012
      vertex -1.78249 2.5 0.342334
      vertex -1.78249 -2.5 0.342334
    endloop
  endfacet
  facet normal 0.509042 0 -0.860742
    outer loop
      vertex -1.78249 2.5 0.342334
      vertex -1.98256 -2.5 0.224012
      vertex -1.98256 2.5 0.224012
    endloop
  endfacet
  facet normal 0.790155 0 -0.612906
    outer loop
      vertex -2.8509 -2.5 -0.541531
      vertex -2.99336 2.5 -0.725194
      vertex -2.8509 2.5 -0.541531
    endloop
  endfacet
  facet normal 0.790155 0 -0.612906
    outer loop
      vertex -2.99336 2.5 -0.725194
      vertex -2.8509 -2.5 -0.541531
      vertex -2.99336 -2.5 -0.725194
    endloop
  endfacet
  facet normal -0.707105 0 -0.707109
    outer loop
      vertex 2.53282 -2.5 -0.202816
      vertex 2.69718 2.5 -0.367175
      vertex 2.69718 -2.5 -0.367175
    endloop
  endfacet
  facet normal -0.707105 0 -0.707109
    outer loop
      vertex 2.69718 2.5 -0.367175
      vertex 2.53282 -2.5 -0.202816
      vertex 2.53282 2.5 -0.202816
    endloop
  endfacet
endsolid OpenSCAD_Model
