solid OpenSCAD_Model
  facet normal -1 0 0
    outer loop
      vertex -5 -2.5 -2.5
      vertex -5 2.5 2.5
      vertex -5 2.5 -2.5
    endloop
  endfacet
  facet normal -1 -0 0
    outer loop
      vertex -5 2.5 2.5
      vertex -5 -2.5 -2.5
      vertex -5 -2.5 2.5
    endloop
  endfacet
  facet normal -0 0 1
    outer loop
      vertex -5 2.5 2.5
      vertex 5 -2.5 2.5
      vertex 5 2.5 2.5
    endloop
  endfacet
  facet normal 0 0 1
    outer loop
      vertex 5 -2.5 2.5
      vertex -5 2.5 2.5
      vertex -5 -2.5 2.5
    endloop
  endfacet
  facet normal 1 -0 0
    outer loop
      vertex 5 -2.5 2.5
      vertex 5 2.5 -2.5
      vertex 5 2.5 2.5
    endloop
  endfacet
  facet normal 1 0 0
    outer loop
      vertex 5 2.5 -2.5
      vertex 5 -2.5 2.5
      vertex 5 -2.5 -2.5
    endloop
  endfacet
  facet normal 0 1 0
    outer loop
      vertex 5 2.5 2.5
      vertex 0 2.5 0.799999
      vertex -5 2.5 2.5
    endloop
  endfacet
  facet normal 0 1 0
    outer loop
      vertex 5 2.5 2.5
      vertex 0.226046 2.5 0.792895
      vertex 0 2.5 0.799999
    endloop
  endfacet
  facet normal 0 1 0
    outer loop
      vertex 5 2.5 2.5
      vertex 0.4512 2.5 0.771612
      vertex 0.226046 2.5 0.792895
    endloop
  endfacet
  facet normal 0 1 0
    outer loop
      vertex 5 2.5 2.5
      vertex 0.674572 2.5 0.736234
      vertex 0.4512 2.5 0.771612
    endloop
  endfacet
  facet normal 0 1 0
    outer loop
      vertex 5 2.5 2.5
      vertex 0.895283 2.5 0.686899
      vertex 0.674572 2.5 0.736234
    endloop
  endfacet
  facet normal 0 1 0
    outer loop
      vertex 5 2.5 2.5
      vertex 1.11246 2.5 0.623803
      vertex 0.895283 2.5 0.686899
    endloop
  endfacet
  facet normal 0 1 0
    outer loop
      vertex 5 2.5 2.5
      vertex 1.32525 2.5 0.547194
      vertex 1.11246 2.5 0.623803
    endloop
  endfacet
  facet normal 0 1 0
    outer loop
      vertex 5 2.5 2.5
      vertex 1.53281 2.5 0.457376
      vertex 1.32525 2.5 0.547194
    endloop
  endfacet
  facet normal 0 1 0
    outer loop
      vertex 5 2.5 2.5
      vertex 1.73431 2.5 0.354704
      vertex 1.53281 2.5 0.457376
    endloop
  endfacet
  facet normal 0 1 0
    outer loop
      vertex 5 2.5 2.5
      vertex 1.92898 2.5 0.23958
      vertex 1.73431 2.5 0.354704
    endloop
  endfacet
  facet normal 0 1 0
    outer loop
      vertex 5 2.5 2.5
      vertex 2.11603 2.5 0.112461
      vertex 1.92898 2.5 0.23958
    endloop
  endfacet
  facet normal 0 1 0
    outer loop
      vertex 5 2.5 2.5
      vertex 2.29473 2.5 -0.0261517
      vertex 2.11603 2.5 0.112461
    endloop
  endfacet
  facet normal 0 1 0
    outer loop
      vertex 5 2.5 2.5
      vertex 2.46437 2.5 -0.175713
      vertex 2.29473 2.5 -0.0261517
    endloop
  endfacet
  facet normal 0 1 0
    outer loop
      vertex 5 2.5 2.5
      vertex 2.62429 2.5 -0.33563
      vertex 2.46437 2.5 -0.175713
    endloop
  endfacet
  facet normal 0 1 0
    outer loop
      vertex 5 2.5 2.5
      vertex 2.77385 2.5 -0.505273
      vertex 2.62429 2.5 -0.33563
    endloop
  endfacet
  facet normal 0 1 0
    outer loop
      vertex 5 2.5 2.5
      vertex 2.91246 2.5 -0.683972
      vertex 2.77385 2.5 -0.505273
    endloop
  endfacet
  facet normal 0 1 0
    outer loop
      vertex 5 2.5 2.5
      vertex 3.03958 2.5 -0.871023
      vertex 2.91246 2.5 -0.683972
    endloop
  endfacet
  facet normal 0 1 0
    outer loop
      vertex 5 2.5 2.5
      vertex 3.1547 2.5 -1.06569
      vertex 3.03958 2.5 -0.871023
    endloop
  endfacet
  facet normal 0 1 0
    outer loop
      vertex 5 2.5 2.5
      vertex 3.25738 2.5 -1.26719
      vertex 3.1547 2.5 -1.06569
    endloop
  endfacet
  facet normal 0 1 -0
    outer loop
      vertex 5 2.5 -2.5
      vertex 3.25738 2.5 -1.26719
      vertex 5 2.5 2.5
    endloop
  endfacet
  facet normal 0 1 0
    outer loop
      vertex 3.25738 2.5 -1.26719
      vertex 5 2.5 -2.5
      vertex 3.34719 2.5 -1.47475
    endloop
  endfacet
  facet normal 0 1 0
    outer loop
      vertex 3.34719 2.5 -1.47475
      vertex 5 2.5 -2.5
      vertex 3.4238 2.5 -1.68754
    endloop
  endfacet
  facet normal 0 1 0
    outer loop
      vertex 3.4238 2.5 -1.68754
      vertex 5 2.5 -2.5
      vertex 3.4869 2.5 -1.90472
    endloop
  endfacet
  facet normal 0 1 0
    outer loop
      vertex 3.4869 2.5 -1.90472
      vertex 5 2.5 -2.5
      vertex 3.53623 2.5 -2.12543
    endloop
  endfacet
  facet normal 0 1 0
    outer loop
      vertex 3.53623 2.5 -2.12543
      vertex 5 2.5 -2.5
      vertex 3.57161 2.5 -2.3488
    endloop
  endfacet
  facet normal 0 1 0
    outer loop
      vertex 3.57161 2.5 -2.3488
      vertex 5 2.5 -2.5
      vertex 3.5859 2.5 -2.5
    endloop
  endfacet
  facet normal 0 1 -0
    outer loop
      vertex -0.226046 2.5 0.792895
      vertex -5 2.5 2.5
      vertex 0 2.5 0.799999
    endloop
  endfacet
  facet normal 0 1 -0
    outer loop
      vertex -0.4512 2.5 0.771612
      vertex -5 2.5 2.5
      vertex -0.226046 2.5 0.792895
    endloop
  endfacet
  facet normal 0 1 -0
    outer loop
      vertex -0.674572 2.5 0.736234
      vertex -5 2.5 2.5
      vertex -0.4512 2.5 0.771612
    endloop
  endfacet
  facet normal 0 1 -0
    outer loop
      vertex -0.895283 2.5 0.686899
      vertex -5 2.5 2.5
      vertex -0.674572 2.5 0.736234
    endloop
  endfacet
  facet normal 0 1 -0
    outer loop
      vertex -1.11246 2.5 0.623803
      vertex -5 2.5 2.5
      vertex -0.895283 2.5 0.686899
    endloop
  endfacet
  facet normal 0 1 -0
    outer loop
      vertex -1.32525 2.5 0.547194
      vertex -5 2.5 2.5
      vertex -1.11246 2.5 0.623803
    endloop
  endfacet
  facet normal 0 1 -0
    outer loop
      vertex -1.53281 2.5 0.457376
      vertex -5 2.5 2.5
      vertex -1.32525 2.5 0.547194
    endloop
  endfacet
  facet normal 0 1 -0
    outer loop
      vertex -1.73431 2.5 0.354704
      vertex -5 2.5 2.5
      vertex -1.53281 2.5 0.457376
    endloop
  endfacet
  facet normal 0 1 -0
    outer loop
      vertex -1.92898 2.5 0.23958
      vertex -5 2.5 2.5
      vertex -1.73431 2.5 0.354704
    endloop
  endfacet
  facet normal 0 1 -0
    outer loop
      vertex -2.11603 2.5 0.112461
      vertex -5 2.5 2.5
      vertex -1.92898 2.5 0.23958
    endloop
  endfacet
  facet normal 0 1 -0
    outer loop
      vertex -2.29473 2.5 -0.0261517
      vertex -5 2.5 2.5
      vertex -2.11603 2.5 0.112461
    endloop
  endfacet
  facet normal 0 1 -0
    outer loop
      vertex -2.46437 2.5 -0.175713
      vertex -5 2.5 2.5
      vertex -2.29473 2.5 -0.0261517
    endloop
  endfacet
  facet normal 0 1 -0
    outer loop
      vertex -2.62429 2.5 -0.33563
      vertex -5 2.5 2.5
      vertex -2.46437 2.5 -0.175713
    endloop
  endfacet
  facet normal 0 1 -0
    outer loop
      vertex -2.77385 2.5 -0.505273
      vertex -5 2.5 2.5
      vertex -2.62429 2.5 -0.33563
    endloop
  endfacet
  facet normal 0 1 -0
    outer loop
      vertex -2.91246 2.5 -0.683972
      vertex -5 2.5 2.5
      vertex -2.77385 2.5 -0.505273
    endloop
  endfacet
  facet normal 0 1 -0
    outer loop
      vertex -3.03958 2.5 -0.871023
      vertex -5 2.5 2.5
      vertex -2.91246 2.5 -0.683972
    endloop
  endfacet
  facet normal 0 1 -0
    outer loop
      vertex -3.1547 2.5 -1.06569
      vertex -5 2.5 2.5
      vertex -3.03958 2.5 -0.871023
    endloop
  endfacet
  facet normal 0 1 -0
    outer loop
      vertex -3.25738 2.5 -1.26719
      vertex -5 2.5 2.5
      vertex -3.1547 2.5 -1.06569
    endloop
  endfacet
  facet normal 0 1 0
    outer loop
      vertex -5 2.5 -2.5
      vertex -3.25738 2.5 -1.26719
      vertex -3.34719 2.5 -1.47475
    endloop
  endfacet
  facet normal 0 1 0
    outer loop
      vertex -5 2.5 -2.5
      vertex -3.34719 2.5 -1.47475
      vertex -3.4238 2.5 -1.68754
    endloop
  endfacet
  facet normal 0 1 0
    outer loop
      vertex -5 2.5 -2.5
      vertex -3.4238 2.5 -1.68754
      vertex -3.4869 2.5 -1.90472
    endloop
  endfacet
  facet normal 0 1 0
    outer loop
      vertex -5 2.5 -2.5
      vertex -3.4869 2.5 -1.90472
      vertex -3.53623 2.5 -2.12543
    endloop
  endfacet
  facet normal 0 1 0
    outer loop
      vertex -5 2.5 -2.5
      vertex -3.53623 2.5 -2.12543
      vertex -3.57161 2.5 -2.3488
    endloop
  endfacet
  facet normal 0 1 0
    outer loop
      vertex -5 2.5 -2.5
      vertex -3.57161 2.5 -2.3488
      vertex -3.5859 2.5 -2.5
    endloop
  endfacet
  facet normal 0 1 0
    outer loop
      vertex -3.25738 2.5 -1.26719
      vertex -5 2.5 -2.5
      vertex -5 2.5 2.5
    endloop
  endfacet
  facet normal 0 0 -1
    outer loop
      vertex -5 -2.5 -2.5
      vertex -3.5859 2.5 -2.5
      vertex -3.5859 -2.5 -2.5
    endloop
  endfacet
  facet normal -0 0 -1
    outer loop
      vertex -3.5859 2.5 -2.5
      vertex -5 -2.5 -2.5
      vertex -5 2.5 -2.5
    endloop
  endfacet
  facet normal 0 0 -1
    outer loop
      vertex 3.5859 -2.5 -2.5
      vertex 5 2.5 -2.5
      vertex 5 -2.5 -2.5
    endloop
  endfacet
  facet normal -0 0 -1
    outer loop
      vertex 5 2.5 -2.5
      vertex 3.5859 -2.5 -2.5
      vertex 3.5859 2.5 -2.5
    endloop
  endfacet
  facet normal 0 -1 0
    outer loop
      vertex -5 -2.5 2.5
      vertex 0 -2.5 0.799999
      vertex 5 -2.5 2.5
    endloop
  endfacet
  facet normal 0 -1 0
    outer loop
      vertex -5 -2.5 2.5
      vertex -0.226046 -2.5 0.792895
      vertex 0 -2.5 0.799999
    endloop
  endfacet
  facet normal 0 -1 0
    outer loop
      vertex -5 -2.5 2.5
      vertex -0.4512 -2.5 0.771612
      vertex -0.226046 -2.5 0.792895
    endloop
  endfacet
  facet normal 0 -1 0
    outer loop
      vertex -5 -2.5 2.5
      vertex -0.674572 -2.5 0.736234
      vertex -0.4512 -2.5 0.771612
    endloop
  endfacet
  facet normal 0 -1 0
    outer loop
      vertex -5 -2.5 2.5
      vertex -0.895283 -2.5 0.686899
      vertex -0.674572 -2.5 0.736234
    endloop
  endfacet
  facet normal 0 -1 0
    outer loop
      vertex -5 -2.5 2.5
      vertex -1.11246 -2.5 0.623803
      vertex -0.895283 -2.5 0.686899
    endloop
  endfacet
  facet normal 0 -1 0
    outer loop
      vertex -5 -2.5 2.5
      vertex -1.32525 -2.5 0.547194
      vertex -1.11246 -2.5 0.623803
    endloop
  endfacet
  facet normal 0 -1 0
    outer loop
      vertex -5 -2.5 2.5
      vertex -1.53281 -2.5 0.457376
      vertex -1.32525 -2.5 0.547194
    endloop
  endfacet
  facet normal 0 -1 0
    outer loop
      vertex -5 -2.5 2.5
      vertex -1.73431 -2.5 0.354704
      vertex -1.53281 -2.5 0.457376
    endloop
  endfacet
  facet normal 0 -1 0
    outer loop
      vertex -5 -2.5 2.5
      vertex -1.92898 -2.5 0.23958
      vertex -1.73431 -2.5 0.354704
    endloop
  endfacet
  facet normal 0 -1 0
    outer loop
      vertex -5 -2.5 2.5
      vertex -2.11603 -2.5 0.112461
      vertex -1.92898 -2.5 0.23958
    endloop
  endfacet
  facet normal 0 -1 0
    outer loop
      vertex -5 -2.5 2.5
      vertex -2.29473 -2.5 -0.0261517
      vertex -2.11603 -2.5 0.112461
    endloop
  endfacet
  facet normal 0 -1 0
    outer loop
      vertex -5 -2.5 2.5
      vertex -2.46437 -2.5 -0.175713
      vertex -2.29473 -2.5 -0.0261517
    endloop
  endfacet
  facet normal 0 -1 0
    outer loop
      vertex -5 -2.5 2.5
      vertex -2.62429 -2.5 -0.33563
      vertex -2.46437 -2.5 -0.175713
    endloop
  endfacet
  facet normal 0 -1 0
    outer loop
      vertex -5 -2.5 2.5
      vertex -2.77385 -2.5 -0.505273
      vertex -2.62429 -2.5 -0.33563
    endloop
  endfacet
  facet normal 0 -1 0
    outer loop
      vertex -5 -2.5 2.5
      vertex -2.91246 -2.5 -0.683972
      vertex -2.77385 -2.5 -0.505273
    endloop
  endfacet
  facet normal 0 -1 0
    outer loop
      vertex -5 -2.5 2.5
      vertex -3.03958 -2.5 -0.871023
      vertex -2.91246 -2.5 -0.683972
    endloop
  endfacet
  facet normal 0 -1 0
    outer loop
      vertex -5 -2.5 2.5
      vertex -3.1547 -2.5 -1.06569
      vertex -3.03958 -2.5 -0.871023
    endloop
  endfacet
  facet normal 0 -1 0
    outer loop
      vertex -5 -2.5 2.5
      vertex -3.25738 -2.5 -1.26719
      vertex -3.1547 -2.5 -1.06569
    endloop
  endfacet
  facet normal 0 -1 0
    outer loop
      vertex -5 -2.5 -2.5
      vertex -3.25738 -2.5 -1.26719
      vertex -5 -2.5 2.5
    endloop
  endfacet
  facet normal 0 -1 0
    outer loop
      vertex -3.25738 -2.5 -1.26719
      vertex -5 -2.5 -2.5
      vertex -3.34719 -2.5 -1.47475
    endloop
  endfacet
  facet normal 0 -1 0
    outer loop
      vertex -3.34719 -2.5 -1.47475
      vertex -5 -2.5 -2.5
      vertex -3.4238 -2.5 -1.68754
    endloop
  endfacet
  facet normal 0 -1 0
    outer loop
      vertex -3.4238 -2.5 -1.68754
      vertex -5 -2.5 -2.5
      vertex -3.4869 -2.5 -1.90472
    endloop
  endfacet
  facet normal 0 -1 0
    outer loop
      vertex -3.4869 -2.5 -1.90472
      vertex -5 -2.5 -2.5
      vertex -3.53623 -2.5 -2.12543
    endloop
  endfacet
  facet normal 0 -1 0
    outer loop
      vertex -3.53623 -2.5 -2.12543
      vertex -5 -2.5 -2.5
      vertex -3.57161 -2.5 -2.3488
    endloop
  endfacet
  facet normal 0 -1 0
    outer loop
      vertex -3.57161 -2.5 -2.3488
      vertex -5 -2.5 -2.5
      vertex -3.5859 -2.5 -2.5
    endloop
  endfacet
  facet normal 0 -1 0
    outer loop
      vertex 0.226046 -2.5 0.792895
      vertex 5 -2.5 2.5
      vertex 0 -2.5 0.799999
    endloop
  endfacet
  facet normal 0 -1 0
    outer loop
      vertex 0.4512 -2.5 0.771612
      vertex 5 -2.5 2.5
      vertex 0.226046 -2.5 0.792895
    endloop
  endfacet
  facet normal 0 -1 0
    outer loop
      vertex 0.674572 -2.5 0.736234
      vertex 5 -2.5 2.5
      vertex 0.4512 -2.5 0.771612
    endloop
  endfacet
  facet normal 0 -1 0
    outer loop
      vertex 0.895283 -2.5 0.686899
      vertex 5 -2.5 2.5
      vertex 0.674572 -2.5 0.736234
    endloop
  endfacet
  facet normal 0 -1 0
    outer loop
      vertex 1.11246 -2.5 0.623803
      vertex 5 -2.5 2.5
      vertex 0.895283 -2.5 0.686899
    endloop
  endfacet
  facet normal 0 -1 0
    outer loop
      vertex 1.32525 -2.5 0.547194
      vertex 5 -2.5 2.5
      vertex 1.11246 -2.5 0.623803
    endloop
  endfacet
  facet normal 0 -1 0
    outer loop
      vertex 1.53281 -2.5 0.457376
      vertex 5 -2.5 2.5
      vertex 1.32525 -2.5 0.547194
    endloop
  endfacet
  facet normal 0 -1 0
    outer loop
      vertex 1.73431 -2.5 0.354704
      vertex 5 -2.5 2.5
      vertex 1.53281 -2.5 0.457376
    endloop
  endfacet
  facet normal 0 -1 0
    outer loop
      vertex 1.92898 -2.5 0.23958
      vertex 5 -2.5 2.5
      vertex 1.73431 -2.5 0.354704
    endloop
  endfacet
  facet normal 0 -1 0
    outer loop
      vertex 2.11603 -2.5 0.112461
      vertex 5 -2.5 2.5
      vertex 1.92898 -2.5 0.23958
    endloop
  endfacet
  facet normal 0 -1 0
    outer loop
      vertex 2.29473 -2.5 -0.0261517
      vertex 5 -2.5 2.5
      vertex 2.11603 -2.5 0.112461
    endloop
  endfacet
  facet normal 0 -1 0
    outer loop
      vertex 2.46437 -2.5 -0.175713
      vertex 5 -2.5 2.5
      vertex 2.29473 -2.5 -0.0261517
    endloop
  endfacet
  facet normal 0 -1 0
    outer loop
      vertex 2.62429 -2.5 -0.33563
      vertex 5 -2.5 2.5
      vertex 2.46437 -2.5 -0.175713
    endloop
  endfacet
  facet normal 0 -1 0
    outer loop
      vertex 2.77385 -2.5 -0.505273
      vertex 5 -2.5 2.5
      vertex 2.62429 -2.5 -0.33563
    endloop
  endfacet
  facet normal 0 -1 0
    outer loop
      vertex 2.91246 -2.5 -0.683972
      vertex 5 -2.5 2.5
      vertex 2.77385 -2.5 -0.505273
    endloop
  endfacet
  facet normal 0 -1 0
    outer loop
      vertex 3.03958 -2.5 -0.871023
      vertex 5 -2.5 2.5
      vertex 2.91246 -2.5 -0.683972
    endloop
  endfacet
  facet normal 0 -1 0
    outer loop
      vertex 3.1547 -2.5 -1.06569
      vertex 5 -2.5 2.5
      vertex 3.03958 -2.5 -0.871023
    endloop
  endfacet
  facet normal 0 -1 0
    outer loop
      vertex 3.25738 -2.5 -1.26719
      vertex 5 -2.5 2.5
      vertex 3.1547 -2.5 -1.06569
    endloop
  endfacet
  facet normal 0 -1 0
    outer loop
      vertex 5 -2.5 -2.5
      vertex 3.25738 -2.5 -1.26719
      vertex 3.34719 -2.5 -1.47475
    endloop
  endfacet
  facet normal 0 -1 0
    outer loop
      vertex 5 -2.5 -2.5
      vertex 3.34719 -2.5 -1.47475
      vertex 3.4238 -2.5 -1.68754
    endloop
  endfacet
  facet normal 0 -1 0
    outer loop
      vertex 5 -2.5 -2.5
      vertex 3.4238 -2.5 -1.68754
      vertex 3.4869 -2.5 -1.90472
    endloop
  endfacet
  facet normal 0 -1 0
    outer loop
      vertex 5 -2.5 -2.5
      vertex 3.4869 -2.5 -1.90472
      vertex 3.53623 -2.5 -2.12543
    endloop
  endfacet
  facet normal 0 -1 0
    outer loop
      vertex 5 -2.5 -2.5
      vertex 3.53623 -2.5 -2.12543
      vertex 3.57161 -2.5 -2.3488
    endloop
  endfacet
  facet normal 0 -1 0
    outer loop
      vertex 5 -2.5 -2.5
      vertex 3.57161 -2.5 -2.3488
      vertex 3.5859 -2.5 -2.5
    endloop
  endfacet
  facet normal 0 -1 0
    outer loop
      vertex 3.25738 -2.5 -1.26719
      vertex 5 -2.5 -2.5
      vertex 5 -2.5 2.5
    endloop
  endfacet
  facet normal -0.975917 0 -0.218142
    outer loop
      vertex 3.53623 -2.5 -2.12543
      vertex 3.4869 2.5 -1.90472
      vertex 3.53623 2.5 -2.12543
    endloop
  endfacet
  facet normal -0.975917 -0 -0.218142
    outer loop
      vertex 3.4869 2.5 -1.90472
      vertex 3.53623 -2.5 -2.12543
      vertex 3.4869 -2.5 -1.90472
    endloop
  endfacet
  facet normal -0.995562 0 -0.0941073
    outer loop
      vertex 3.5859 -2.5 -2.5
      vertex 3.57161 2.5 -2.3488
      vertex 3.5859 2.5 -2.5
    endloop
  endfacet
  facet normal -0.995562 -0 -0.0941073
    outer loop
      vertex 3.57161 2.5 -2.3488
      vertex 3.5859 -2.5 -2.5
      vertex 3.57161 -2.5 -2.3488
    endloop
  endfacet
  facet normal -0.987689 0 -0.156433
    outer loop
      vertex 3.57161 -2.5 -2.3488
      vertex 3.53623 2.5 -2.12543
      vertex 3.57161 2.5 -2.3488
    endloop
  endfacet
  facet normal -0.987689 -0 -0.156433
    outer loop
      vertex 3.53623 2.5 -2.12543
      vertex 3.57161 -2.5 -2.3488
      vertex 3.53623 -2.5 -2.12543
    endloop
  endfacet
  facet normal 0.0314114 0 -0.999507
    outer loop
      vertex -0.226046 -2.5 0.792895
      vertex 0 2.5 0.799999
      vertex 0 -2.5 0.799999
    endloop
  endfacet
  facet normal 0.0314114 0 -0.999507
    outer loop
      vertex 0 2.5 0.799999
      vertex -0.226046 -2.5 0.792895
      vertex -0.226046 2.5 0.792895
    endloop
  endfacet
  facet normal 0.987689 0 -0.156433
    outer loop
      vertex -3.53623 -2.5 -2.12543
      vertex -3.57161 2.5 -2.3488
      vertex -3.53623 2.5 -2.12543
    endloop
  endfacet
  facet normal 0.987689 0 -0.156433
    outer loop
      vertex -3.57161 2.5 -2.3488
      vertex -3.53623 -2.5 -2.12543
      vertex -3.57161 -2.5 -2.3488
    endloop
  endfacet
  facet normal -0.612907 0 -0.790155
    outer loop
      vertex 2.11603 -2.5 0.112461
      vertex 2.29473 2.5 -0.0261517
      vertex 2.29473 -2.5 -0.0261517
    endloop
  endfacet
  facet normal -0.612907 0 -0.790155
    outer loop
      vertex 2.29473 2.5 -0.0261517
      vertex 2.11603 -2.5 0.112461
      vertex 2.11603 2.5 0.112461
    endloop
  endfacet
  facet normal 0.995562 0 -0.0941073
    outer loop
      vertex -3.57161 -2.5 -2.3488
      vertex -3.5859 2.5 -2.5
      vertex -3.57161 2.5 -2.3488
    endloop
  endfacet
  facet normal 0.995562 0 -0.0941073
    outer loop
      vertex -3.5859 2.5 -2.5
      vertex -3.57161 -2.5 -2.3488
      vertex -3.5859 -2.5 -2.5
    endloop
  endfacet
  facet normal 0.960293 0 -0.278992
    outer loop
      vertex -3.4238 -2.5 -1.68754
      vertex -3.4869 2.5 -1.90472
      vertex -3.4238 2.5 -1.68754
    endloop
  endfacet
  facet normal 0.960293 0 -0.278992
    outer loop
      vertex -3.4869 2.5 -1.90472
      vertex -3.4238 -2.5 -1.68754
      vertex -3.4869 -2.5 -1.90472
    endloop
  endfacet
  facet normal 0.0941076 0 -0.995562
    outer loop
      vertex -0.4512 -2.5 0.771612
      vertex -0.226046 2.5 0.792895
      vertex -0.226046 -2.5 0.792895
    endloop
  endfacet
  facet normal 0.0941076 0 -0.995562
    outer loop
      vertex -0.226046 2.5 0.792895
      vertex -0.4512 -2.5 0.771612
      vertex -0.4512 2.5 0.771612
    endloop
  endfacet
  facet normal 0.975917 0 -0.218142
    outer loop
      vertex -3.4869 -2.5 -1.90472
      vertex -3.53623 2.5 -2.12543
      vertex -3.4869 2.5 -1.90472
    endloop
  endfacet
  facet normal 0.975917 0 -0.218142
    outer loop
      vertex -3.53623 2.5 -2.12543
      vertex -3.4869 -2.5 -1.90472
      vertex -3.53623 -2.5 -2.12543
    endloop
  endfacet
  facet normal 0.82708 0 -0.562085
    outer loop
      vertex -2.91246 -2.5 -0.683972
      vertex -3.03958 2.5 -0.871023
      vertex -2.91246 2.5 -0.683972
    endloop
  endfacet
  facet normal 0.82708 0 -0.562085
    outer loop
      vertex -3.03958 2.5 -0.871023
      vertex -2.91246 -2.5 -0.683972
      vertex -3.03958 -2.5 -0.871023
    endloop
  endfacet
  facet normal 0.218143 0 -0.975917
    outer loop
      vertex -0.895283 -2.5 0.686899
      vertex -0.674572 2.5 0.736234
      vertex -0.674572 -2.5 0.736234
    endloop
  endfacet
  facet normal 0.218143 0 -0.975917
    outer loop
      vertex -0.674572 2.5 0.736234
      vertex -0.895283 -2.5 0.686899
      vertex -0.895283 2.5 0.686899
    endloop
  endfacet
  facet normal 0.156433 0 -0.987689
    outer loop
      vertex -0.674572 -2.5 0.736234
      vertex -0.4512 2.5 0.771612
      vertex -0.4512 -2.5 0.771612
    endloop
  endfacet
  facet normal 0.156433 0 -0.987689
    outer loop
      vertex -0.4512 2.5 0.771612
      vertex -0.674572 -2.5 0.736234
      vertex -0.674572 2.5 0.736234
    endloop
  endfacet
  facet normal -0.509043 0 -0.860741
    outer loop
      vertex 1.73431 -2.5 0.354704
      vertex 1.92898 2.5 0.23958
      vertex 1.92898 -2.5 0.23958
    endloop
  endfacet
  facet normal -0.509043 0 -0.860741
    outer loop
      vertex 1.92898 2.5 0.23958
      vertex 1.73431 -2.5 0.354704
      vertex 1.73431 2.5 0.354704
    endloop
  endfacet
  facet normal 0.891006 0 -0.453992
    outer loop
      vertex -3.1547 -2.5 -1.06569
      vertex -3.25738 2.5 -1.26719
      vertex -3.1547 2.5 -1.06569
    endloop
  endfacet
  facet normal 0.891006 0 -0.453992
    outer loop
      vertex -3.25738 2.5 -1.26719
      vertex -3.1547 -2.5 -1.06569
      vertex -3.25738 -2.5 -1.26719
    endloop
  endfacet
  facet normal 0.860743 0 -0.509039
    outer loop
      vertex -3.03958 -2.5 -0.871023
      vertex -3.1547 2.5 -1.06569
      vertex -3.03958 2.5 -0.871023
    endloop
  endfacet
  facet normal 0.860743 0 -0.509039
    outer loop
      vertex -3.1547 2.5 -1.06569
      vertex -3.03958 -2.5 -0.871023
      vertex -3.1547 -2.5 -1.06569
    endloop
  endfacet
  facet normal 0.94088 0 -0.338741
    outer loop
      vertex -3.34719 -2.5 -1.47475
      vertex -3.4238 2.5 -1.68754
      vertex -3.34719 2.5 -1.47475
    endloop
  endfacet
  facet normal 0.94088 0 -0.338741
    outer loop
      vertex -3.4238 2.5 -1.68754
      vertex -3.34719 -2.5 -1.47475
      vertex -3.4238 -2.5 -1.68754
    endloop
  endfacet
  facet normal 0.278991 0 -0.960294
    outer loop
      vertex -1.11246 -2.5 0.623803
      vertex -0.895283 2.5 0.686899
      vertex -0.895283 -2.5 0.686899
    endloop
  endfacet
  facet normal 0.278991 0 -0.960294
    outer loop
      vertex -0.895283 2.5 0.686899
      vertex -1.11246 -2.5 0.623803
      vertex -1.11246 2.5 0.623803
    endloop
  endfacet
  facet normal -0.0314114 0 -0.999507
    outer loop
      vertex 0 -2.5 0.799999
      vertex 0.226046 2.5 0.792895
      vertex 0.226046 -2.5 0.792895
    endloop
  endfacet
  facet normal -0.0314114 0 -0.999507
    outer loop
      vertex 0.226046 2.5 0.792895
      vertex 0 -2.5 0.799999
      vertex 0 2.5 0.799999
    endloop
  endfacet
  facet normal -0.278991 0 -0.960294
    outer loop
      vertex 0.895283 -2.5 0.686899
      vertex 1.11246 2.5 0.623803
      vertex 1.11246 -2.5 0.623803
    endloop
  endfacet
  facet normal -0.278991 0 -0.960294
    outer loop
      vertex 1.11246 2.5 0.623803
      vertex 0.895283 -2.5 0.686899
      vertex 0.895283 2.5 0.686899
    endloop
  endfacet
  facet normal -0.156433 0 -0.987689
    outer loop
      vertex 0.4512 -2.5 0.771612
      vertex 0.674572 2.5 0.736234
      vertex 0.674572 -2.5 0.736234
    endloop
  endfacet
  facet normal -0.156433 0 -0.987689
    outer loop
      vertex 0.674572 2.5 0.736234
      vertex 0.4512 -2.5 0.771612
      vertex 0.4512 2.5 0.771612
    endloop
  endfacet
  facet normal -0.453988 0 -0.891008
    outer loop
      vertex 1.53281 -2.5 0.457376
      vertex 1.73431 2.5 0.354704
      vertex 1.73431 -2.5 0.354704
    endloop
  endfacet
  facet normal -0.453988 0 -0.891008
    outer loop
      vertex 1.73431 2.5 0.354704
      vertex 1.53281 -2.5 0.457376
      vertex 1.53281 2.5 0.457376
    endloop
  endfacet
  facet normal -0.338741 0 -0.94088
    outer loop
      vertex 1.11246 -2.5 0.623803
      vertex 1.32525 2.5 0.547194
      vertex 1.32525 -2.5 0.547194
    endloop
  endfacet
  facet normal -0.338741 0 -0.94088
    outer loop
      vertex 1.32525 2.5 0.547194
      vertex 1.11246 -2.5 0.623803
      vertex 1.11246 2.5 0.623803
    endloop
  endfacet
  facet normal -0.661312 0 -0.750111
    outer loop
      vertex 2.29473 -2.5 -0.0261517
      vertex 2.46437 2.5 -0.175713
      vertex 2.46437 -2.5 -0.175713
    endloop
  endfacet
  facet normal -0.661312 0 -0.750111
    outer loop
      vertex 2.46437 2.5 -0.175713
      vertex 2.29473 -2.5 -0.0261517
      vertex 2.29473 2.5 -0.0261517
    endloop
  endfacet
  facet normal -0.860743 0 -0.509039
    outer loop
      vertex 3.1547 -2.5 -1.06569
      vertex 3.03958 2.5 -0.871023
      vertex 3.1547 2.5 -1.06569
    endloop
  endfacet
  facet normal -0.860743 -0 -0.509039
    outer loop
      vertex 3.03958 2.5 -0.871023
      vertex 3.1547 -2.5 -1.06569
      vertex 3.03958 -2.5 -0.871023
    endloop
  endfacet
  facet normal -0.891006 0 -0.453992
    outer loop
      vertex 3.25738 -2.5 -1.26719
      vertex 3.1547 2.5 -1.06569
      vertex 3.25738 2.5 -1.26719
    endloop
  endfacet
  facet normal -0.891006 -0 -0.453992
    outer loop
      vertex 3.1547 2.5 -1.06569
      vertex 3.25738 -2.5 -1.26719
      vertex 3.1547 -2.5 -1.06569
    endloop
  endfacet
  facet normal 0.612907 0 -0.790155
    outer loop
      vertex -2.29473 -2.5 -0.0261517
      vertex -2.11603 2.5 0.112461
      vertex -2.11603 -2.5 0.112461
    endloop
  endfacet
  facet normal 0.612907 0 -0.790155
    outer loop
      vertex -2.11603 2.5 0.112461
      vertex -2.29473 -2.5 -0.0261517
      vertex -2.29473 2.5 -0.0261517
    endloop
  endfacet
  facet normal 0.750109 0 -0.661314
    outer loop
      vertex -2.62429 -2.5 -0.33563
      vertex -2.77385 2.5 -0.505273
      vertex -2.62429 2.5 -0.33563
    endloop
  endfacet
  facet normal 0.750109 0 -0.661314
    outer loop
      vertex -2.77385 2.5 -0.505273
      vertex -2.62429 -2.5 -0.33563
      vertex -2.77385 -2.5 -0.505273
    endloop
  endfacet
  facet normal 0.707107 0 -0.707107
    outer loop
      vertex -2.46437 -2.5 -0.175713
      vertex -2.62429 2.5 -0.33563
      vertex -2.46437 2.5 -0.175713
    endloop
  endfacet
  facet normal 0.707107 0 -0.707107
    outer loop
      vertex -2.62429 2.5 -0.33563
      vertex -2.46437 -2.5 -0.175713
      vertex -2.62429 -2.5 -0.33563
    endloop
  endfacet
  facet normal 0.917755 0 -0.397147
    outer loop
      vertex -3.25738 -2.5 -1.26719
      vertex -3.34719 2.5 -1.47475
      vertex -3.25738 2.5 -1.26719
    endloop
  endfacet
  facet normal 0.917755 0 -0.397147
    outer loop
      vertex -3.34719 2.5 -1.47475
      vertex -3.25738 -2.5 -1.26719
      vertex -3.34719 -2.5 -1.47475
    endloop
  endfacet
  facet normal -0.0941076 0 -0.995562
    outer loop
      vertex 0.226046 -2.5 0.792895
      vertex 0.4512 2.5 0.771612
      vertex 0.4512 -2.5 0.771612
    endloop
  endfacet
  facet normal -0.0941076 0 -0.995562
    outer loop
      vertex 0.4512 2.5 0.771612
      vertex 0.226046 -2.5 0.792895
      vertex 0.226046 2.5 0.792895
    endloop
  endfacet
  facet normal -0.218143 0 -0.975917
    outer loop
      vertex 0.674572 -2.5 0.736234
      vertex 0.895283 2.5 0.686899
      vertex 0.895283 -2.5 0.686899
    endloop
  endfacet
  facet normal -0.218143 0 -0.975917
    outer loop
      vertex 0.895283 2.5 0.686899
      vertex 0.674572 -2.5 0.736234
      vertex 0.674572 2.5 0.736234
    endloop
  endfacet
  facet normal -0.562082 0 -0.827082
    outer loop
      vertex 1.92898 -2.5 0.23958
      vertex 2.11603 2.5 0.112461
      vertex 2.11603 -2.5 0.112461
    endloop
  endfacet
  facet normal -0.562082 0 -0.827082
    outer loop
      vertex 2.11603 2.5 0.112461
      vertex 1.92898 -2.5 0.23958
      vertex 1.92898 2.5 0.23958
    endloop
  endfacet
  facet normal -0.397147 0 -0.917755
    outer loop
      vertex 1.32525 -2.5 0.547194
      vertex 1.53281 2.5 0.457376
      vertex 1.53281 -2.5 0.457376
    endloop
  endfacet
  facet normal -0.397147 0 -0.917755
    outer loop
      vertex 1.53281 2.5 0.457376
      vertex 1.32525 -2.5 0.547194
      vertex 1.32525 2.5 0.547194
    endloop
  endfacet
  facet normal -0.82708 0 -0.562085
    outer loop
      vertex 3.03958 -2.5 -0.871023
      vertex 2.91246 2.5 -0.683972
      vertex 3.03958 2.5 -0.871023
    endloop
  endfacet
  facet normal -0.82708 -0 -0.562085
    outer loop
      vertex 2.91246 2.5 -0.683972
      vertex 3.03958 -2.5 -0.871023
      vertex 2.91246 -2.5 -0.683972
    endloop
  endfacet
  facet normal -0.750109 0 -0.661314
    outer loop
      vertex 2.77385 -2.5 -0.505273
      vertex 2.62429 2.5 -0.33563
      vertex 2.77385 2.5 -0.505273
    endloop
  endfacet
  facet normal -0.750109 -0 -0.661314
    outer loop
      vertex 2.62429 2.5 -0.33563
      vertex 2.77385 -2.5 -0.505273
      vertex 2.62429 -2.5 -0.33563
    endloop
  endfacet
  facet normal -0.790157 0 -0.612905
    outer loop
      vertex 2.91246 -2.5 -0.683972
      vertex 2.77385 2.5 -0.505273
      vertex 2.91246 2.5 -0.683972
    endloop
  endfacet
  facet normal -0.790157 -0 -0.612905
    outer loop
      vertex 2.77385 2.5 -0.505273
      vertex 2.91246 -2.5 -0.683972
      vertex 2.77385 -2.5 -0.505273
    endloop
  endfacet
  facet normal -0.94088 0 -0.338741
    outer loop
      vertex 3.4238 -2.5 -1.68754
      vertex 3.34719 2.5 -1.47475
      vertex 3.4238 2.5 -1.68754
    endloop
  endfacet
  facet normal -0.94088 -0 -0.338741
    outer loop
      vertex 3.34719 2.5 -1.47475
      vertex 3.4238 -2.5 -1.68754
      vertex 3.34719 -2.5 -1.47475
    endloop
  endfacet
  facet normal -0.917755 0 -0.397147
    outer loop
      vertex 3.34719 -2.5 -1.47475
      vertex 3.25738 2.5 -1.26719
      vertex 3.34719 2.5 -1.47475
    endloop
  endfacet
  facet normal -0.917755 -0 -0.397147
    outer loop
      vertex 3.25738 2.5 -1.26719
      vertex 3.34719 -2.5 -1.47475
      vertex 3.25738 -2.5 -1.26719
    endloop
  endfacet
  facet normal -0.960293 0 -0.278992
    outer loop
      vertex 3.4869 -2.5 -1.90472
      vertex 3.4238 2.5 -1.68754
      vertex 3.4869 2.5 -1.90472
    endloop
  endfacet
  facet normal -0.960293 -0 -0.278992
    outer loop
      vertex 3.4238 2.5 -1.68754
      vertex 3.4869 -2.5 -1.90472
      vertex 3.4238 -2.5 -1.68754
    endloop
  endfacet
  facet normal 0.509043 0 -0.860741
    outer loop
      vertex -1.92898 -2.5 0.23958
      vertex -1.73431 2.5 0.354704
      vertex -1.73431 -2.5 0.354704
    endloop
  endfacet
  facet normal 0.509043 0 -0.860741
    outer loop
      vertex -1.73431 2.5 0.354704
      vertex -1.92898 -2.5 0.23958
      vertex -1.92898 2.5 0.23958
    endloop
  endfacet
  facet normal 0.562082 0 -0.827082
    outer loop
      vertex -2.11603 -2.5 0.112461
      vertex -1.92898 2.5 0.23958
      vertex -1.92898 -2.5 0.23958
    endloop
  endfacet
  facet normal 0.562082 0 -0.827082
    outer loop
      vertex -1.92898 2.5 0.23958
      vertex -2.11603 -2.5 0.112461
      vertex -2.11603 2.5 0.112461
    endloop
  endfacet
  facet normal 0.790157 0 -0.612905
    outer loop
      vertex -2.77385 -2.5 -0.505273
      vertex -2.91246 2.5 -0.683972
      vertex -2.77385 2.5 -0.505273
    endloop
  endfacet
  facet normal 0.790157 0 -0.612905
    outer loop
      vertex -2.91246 2.5 -0.683972
      vertex -2.77385 -2.5 -0.505273
      vertex -2.91246 -2.5 -0.683972
    endloop
  endfacet
  facet normal 0.397147 0 -0.917755
    outer loop
      vertex -1.53281 -2.5 0.457376
      vertex -1.32525 2.5 0.547194
      vertex -1.32525 -2.5 0.547194
    endloop
  endfacet
  facet normal 0.397147 0 -0.917755
    outer loop
      vertex -1.32525 2.5 0.547194
      vertex -1.53281 -2.5 0.457376
      vertex -1.53281 2.5 0.457376
    endloop
  endfacet
  facet normal 0.338741 0 -0.94088
    outer loop
      vertex -1.32525 -2.5 0.547194
      vertex -1.11246 2.5 0.623803
      vertex -1.11246 -2.5 0.623803
    endloop
  endfacet
  facet normal 0.338741 0 -0.94088
    outer loop
      vertex -1.11246 2.5 0.623803
      vertex -1.32525 -2.5 0.547194
      vertex -1.32525 2.5 0.547194
    endloop
  endfacet
  facet normal -0.707107 0 -0.707107
    outer loop
      vertex 2.62429 -2.5 -0.33563
      vertex 2.46437 2.5 -0.175713
      vertex 2.62429 2.5 -0.33563
    endloop
  endfacet
  facet normal -0.707107 -0 -0.707107
    outer loop
      vertex 2.46437 2.5 -0.175713
      vertex 2.62429 -2.5 -0.33563
      vertex 2.46437 -2.5 -0.175713
    endloop
  endfacet
  facet normal 0.661312 0 -0.750111
    outer loop
      vertex -2.46437 -2.5 -0.175713
      vertex -2.29473 2.5 -0.0261517
      vertex -2.29473 -2.5 -0.0261517
    endloop
  endfacet
  facet normal 0.661312 0 -0.750111
    outer loop
      vertex -2.29473 2.5 -0.0261517
      vertex -2.46437 -2.5 -0.175713
      vertex -2.46437 2.5 -0.175713
    endloop
  endfacet
  facet normal 0.453988 0 -0.891008
    outer loop
      vertex -1.73431 -2.5 0.354704
      vertex -1.53281 2.5 0.457376
      vertex -1.53281 -2.5 0.457376
    endloop
  endfacet
  facet normal 0.453988 0 -0.891008
    outer loop
      vertex -1.53281 2.5 0.457376
      vertex -1.73431 -2.5 0.354704
      vertex -1.73431 2.5 0.354704
    endloop
  endfacet
endsolid OpenSCAD_Model
