solid OpenSCAD_Model
  facet normal -1 0 0
    outer loop
      vertex -5 -2.5 -2.5
      vertex -5 2.5 2.5
      vertex -5 2.5 -2.5
    endloop
  endfacet
  facet normal -1 -0 0
    outer loop
      vertex -5 2.5 2.5
      vertex -5 -2.5 -2.5
      vertex -5 -2.5 2.5
    endloop
  endfacet
  facet normal -0 0 1
    outer loop
      vertex -5 2.5 2.5
      vertex 5 -2.5 2.5
      vertex 5 2.5 2.5
    endloop
  endfacet
  facet normal 0 0 1
    outer loop
      vertex 5 -2.5 2.5
      vertex -5 2.5 2.5
      vertex -5 -2.5 2.5
    endloop
  endfacet
  facet normal 1 -0 0
    outer loop
      vertex 5 -2.5 2.5
      vertex 5 2.5 -2.5
      vertex 5 2.5 2.5
    endloop
  endfacet
  facet normal 1 0 0
    outer loop
      vertex 5 2.5 -2.5
      vertex 5 -2.5 2.5
      vertex 5 -2.5 -2.5
    endloop
  endfacet
  facet normal 0 1 0
    outer loop
      vertex 5 2.5 2.5
      vertex 0 2.5 0.799999
      vertex -5 2.5 2.5
    endloop
  endfacet
  facet normal 0 1 0
    outer loop
      vertex 5 2.5 2.5
      vertex 0.19465 2.5 0.793882
      vertex 0 2.5 0.799999
    endloop
  endfacet
  facet normal 0 1 0
    outer loop
      vertex 5 2.5 2.5
      vertex 0.388533 2.5 0.775555
      vertex 0.19465 2.5 0.793882
    endloop
  endfacet
  facet normal 0 1 0
    outer loop
      vertex 5 2.5 2.5
      vertex 0.580882 2.5 0.74509
      vertex 0.388533 2.5 0.775555
    endloop
  endfacet
  facet normal 0 1 0
    outer loop
      vertex 5 2.5 2.5
      vertex 0.770938 2.5 0.702607
      vertex 0.580882 2.5 0.74509
    endloop
  endfacet
  facet normal 0 1 0
    outer loop
      vertex 5 2.5 2.5
      vertex 0.957952 2.5 0.648274
      vertex 0.770938 2.5 0.702607
    endloop
  endfacet
  facet normal 0 1 0
    outer loop
      vertex 5 2.5 2.5
      vertex 1.14119 2.5 0.582307
      vertex 0.957952 2.5 0.648274
    endloop
  endfacet
  facet normal 0 1 0
    outer loop
      vertex 5 2.5 2.5
      vertex 1.31992 2.5 0.504963
      vertex 1.14119 2.5 0.582307
    endloop
  endfacet
  facet normal 0 1 0
    outer loop
      vertex 5 2.5 2.5
      vertex 1.49344 2.5 0.416551
      vertex 1.31992 2.5 0.504963
    endloop
  endfacet
  facet normal 0 1 0
    outer loop
      vertex 5 2.5 2.5
      vertex 1.66106 2.5 0.317416
      vertex 1.49344 2.5 0.416551
    endloop
  endfacet
  facet normal 0 1 0
    outer loop
      vertex 5 2.5 2.5
      vertex 1.82213 2.5 0.207952
      vertex 1.66106 2.5 0.317416
    endloop
  endfacet
  facet normal 0 1 0
    outer loop
      vertex 5 2.5 2.5
      vertex 1.97601 2.5 0.0885906
      vertex 1.82213 2.5 0.207952
    endloop
  endfacet
  facet normal 0 1 0
    outer loop
      vertex 5 2.5 2.5
      vertex 2.1221 2.5 -0.0401964
      vertex 1.97601 2.5 0.0885906
    endloop
  endfacet
  facet normal 0 1 0
    outer loop
      vertex 5 2.5 2.5
      vertex 2.2598 2.5 -0.177903
      vertex 2.1221 2.5 -0.0401964
    endloop
  endfacet
  facet normal 0 1 0
    outer loop
      vertex 5 2.5 2.5
      vertex 2.38859 2.5 -0.323985
      vertex 2.2598 2.5 -0.177903
    endloop
  endfacet
  facet normal 0 1 0
    outer loop
      vertex 5 2.5 2.5
      vertex 2.50795 2.5 -0.477865
      vertex 2.38859 2.5 -0.323985
    endloop
  endfacet
  facet normal 0 1 0
    outer loop
      vertex 5 2.5 2.5
      vertex 2.61742 2.5 -0.638936
      vertex 2.50795 2.5 -0.477865
    endloop
  endfacet
  facet normal 0 1 0
    outer loop
      vertex 5 2.5 2.5
      vertex 2.71655 2.5 -0.806563
      vertex 2.61742 2.5 -0.638936
    endloop
  endfacet
  facet normal 0 1 0
    outer loop
      vertex 5 2.5 2.5
      vertex 2.80496 2.5 -0.980083
      vertex 2.71655 2.5 -0.806563
    endloop
  endfacet
  facet normal 0 1 -0
    outer loop
      vertex 5 2.5 -2.5
      vertex 2.80496 2.5 -0.980083
      vertex 5 2.5 2.5
    endloop
  endfacet
  facet normal 0 1 0
    outer loop
      vertex 2.80496 2.5 -0.980083
      vertex 5 2.5 -2.5
      vertex 2.88231 2.5 -1.15881
    endloop
  endfacet
  facet normal 0 1 0
    outer loop
      vertex 2.88231 2.5 -1.15881
      vertex 5 2.5 -2.5
      vertex 2.94827 2.5 -1.34205
    endloop
  endfacet
  facet normal 0 1 0
    outer loop
      vertex 2.94827 2.5 -1.34205
      vertex 5 2.5 -2.5
      vertex 3.00261 2.5 -1.52906
    endloop
  endfacet
  facet normal 0 1 0
    outer loop
      vertex 3.00261 2.5 -1.52906
      vertex 5 2.5 -2.5
      vertex 3.04509 2.5 -1.71912
    endloop
  endfacet
  facet normal 0 1 0
    outer loop
      vertex 3.04509 2.5 -1.71912
      vertex 5 2.5 -2.5
      vertex 3.07555 2.5 -1.91147
    endloop
  endfacet
  facet normal 0 1 0
    outer loop
      vertex 3.07555 2.5 -1.91147
      vertex 5 2.5 -2.5
      vertex 3.09388 2.5 -2.10535
    endloop
  endfacet
  facet normal 0 1 0
    outer loop
      vertex 3.09388 2.5 -2.10535
      vertex 5 2.5 -2.5
      vertex 3.1 2.5 -2.3
    endloop
  endfacet
  facet normal 0 1 0
    outer loop
      vertex 3.1 2.5 -2.3
      vertex 5 2.5 -2.5
      vertex 3.09388 2.5 -2.49465
    endloop
  endfacet
  facet normal 0 1 0
    outer loop
      vertex 3.09388 2.5 -2.49465
      vertex 5 2.5 -2.5
      vertex 3.09338 2.5 -2.5
    endloop
  endfacet
  facet normal 0 1 -0
    outer loop
      vertex -0.19465 2.5 0.793882
      vertex -5 2.5 2.5
      vertex 0 2.5 0.799999
    endloop
  endfacet
  facet normal 0 1 -0
    outer loop
      vertex -0.388533 2.5 0.775555
      vertex -5 2.5 2.5
      vertex -0.19465 2.5 0.793882
    endloop
  endfacet
  facet normal 0 1 -0
    outer loop
      vertex -0.580882 2.5 0.74509
      vertex -5 2.5 2.5
      vertex -0.388533 2.5 0.775555
    endloop
  endfacet
  facet normal 0 1 -0
    outer loop
      vertex -0.770938 2.5 0.702607
      vertex -5 2.5 2.5
      vertex -0.580882 2.5 0.74509
    endloop
  endfacet
  facet normal 0 1 -0
    outer loop
      vertex -0.957952 2.5 0.648274
      vertex -5 2.5 2.5
      vertex -0.770938 2.5 0.702607
    endloop
  endfacet
  facet normal 0 1 -0
    outer loop
      vertex -1.14119 2.5 0.582307
      vertex -5 2.5 2.5
      vertex -0.957952 2.5 0.648274
    endloop
  endfacet
  facet normal 0 1 -0
    outer loop
      vertex -1.31992 2.5 0.504963
      vertex -5 2.5 2.5
      vertex -1.14119 2.5 0.582307
    endloop
  endfacet
  facet normal 0 1 -0
    outer loop
      vertex -1.49344 2.5 0.416551
      vertex -5 2.5 2.5
      vertex -1.31992 2.5 0.504963
    endloop
  endfacet
  facet normal 0 1 -0
    outer loop
      vertex -1.66106 2.5 0.317416
      vertex -5 2.5 2.5
      vertex -1.49344 2.5 0.416551
    endloop
  endfacet
  facet normal 0 1 -0
    outer loop
      vertex -1.82213 2.5 0.207952
      vertex -5 2.5 2.5
      vertex -1.66106 2.5 0.317416
    endloop
  endfacet
  facet normal 0 1 -0
    outer loop
      vertex -1.97601 2.5 0.0885906
      vertex -5 2.5 2.5
      vertex -1.82213 2.5 0.207952
    endloop
  endfacet
  facet normal 0 1 -0
    outer loop
      vertex -2.1221 2.5 -0.0401964
      vertex -5 2.5 2.5
      vertex -1.97601 2.5 0.0885906
    endloop
  endfacet
  facet normal 0 1 -0
    outer loop
      vertex -2.2598 2.5 -0.177903
      vertex -5 2.5 2.5
      vertex -2.1221 2.5 -0.0401964
    endloop
  endfacet
  facet normal 0 1 -0
    outer loop
      vertex -2.38859 2.5 -0.323985
      vertex -5 2.5 2.5
      vertex -2.2598 2.5 -0.177903
    endloop
  endfacet
  facet normal 0 1 -0
    outer loop
      vertex -2.50795 2.5 -0.477865
      vertex -5 2.5 2.5
      vertex -2.38859 2.5 -0.323985
    endloop
  endfacet
  facet normal 0 1 -0
    outer loop
      vertex -2.61742 2.5 -0.638936
      vertex -5 2.5 2.5
      vertex -2.50795 2.5 -0.477865
    endloop
  endfacet
  facet normal 0 1 -0
    outer loop
      vertex -2.71655 2.5 -0.806563
      vertex -5 2.5 2.5
      vertex -2.61742 2.5 -0.638936
    endloop
  endfacet
  facet normal 0 1 -0
    outer loop
      vertex -2.80496 2.5 -0.980083
      vertex -5 2.5 2.5
      vertex -2.71655 2.5 -0.806563
    endloop
  endfacet
  facet normal 0 1 0
    outer loop
      vertex -5 2.5 -2.5
      vertex -2.80496 2.5 -0.980083
      vertex -2.88231 2.5 -1.15881
    endloop
  endfacet
  facet normal 0 1 0
    outer loop
      vertex -5 2.5 -2.5
      vertex -2.88231 2.5 -1.15881
      vertex -2.94827 2.5 -1.34205
    endloop
  endfacet
  facet normal 0 1 0
    outer loop
      vertex -5 2.5 -2.5
      vertex -2.94827 2.5 -1.34205
      vertex -3.00261 2.5 -1.52906
    endloop
  endfacet
  facet normal 0 1 0
    outer loop
      vertex -5 2.5 -2.5
      vertex -3.00261 2.5 -1.52906
      vertex -3.04509 2.5 -1.71912
    endloop
  endfacet
  facet normal 0 1 0
    outer loop
      vertex -5 2.5 -2.5
      vertex -3.04509 2.5 -1.71912
      vertex -3.07555 2.5 -1.91147
    endloop
  endfacet
  facet normal 0 1 0
    outer loop
      vertex -5 2.5 -2.5
      vertex -3.07555 2.5 -1.91147
      vertex -3.09388 2.5 -2.10535
    endloop
  endfacet
  facet normal 0 1 0
    outer loop
      vertex -5 2.5 -2.5
      vertex -3.09388 2.5 -2.10535
      vertex -3.1 2.5 -2.3
    endloop
  endfacet
  facet normal 0 1 0
    outer loop
      vertex -5 2.5 -2.5
      vertex -3.1 2.5 -2.3
      vertex -3.09388 2.5 -2.49465
    endloop
  endfacet
  facet normal 0 1 0
    outer loop
      vertex -5 2.5 -2.5
      vertex -3.09388 2.5 -2.49465
      vertex -3.09338 2.5 -2.5
    endloop
  endfacet
  facet normal 0 1 0
    outer loop
      vertex -2.80496 2.5 -0.980083
      vertex -5 2.5 -2.5
      vertex -5 2.5 2.5
    endloop
  endfacet
  facet normal 0 0 -1
    outer loop
      vertex -5 -2.5 -2.5
      vertex -3.09338 2.5 -2.5
      vertex -3.09338 -2.5 -2.5
    endloop
  endfacet
  facet normal -0 0 -1
    outer loop
      vertex -3.09338 2.5 -2.5
      vertex -5 -2.5 -2.5
      vertex -5 2.5 -2.5
    endloop
  endfacet
  facet normal 0 0 -1
    outer loop
      vertex 3.09338 -2.5 -2.5
      vertex 5 2.5 -2.5
      vertex 5 -2.5 -2.5
    endloop
  endfacet
  facet normal -0 0 -1
    outer loop
      vertex 5 2.5 -2.5
      vertex 3.09338 -2.5 -2.5
      vertex 3.09338 2.5 -2.5
    endloop
  endfacet
  facet normal 0 -1 0
    outer loop
      vertex -5 -2.5 2.5
      vertex 0 -2.5 0.799999
      vertex 5 -2.5 2.5
    endloop
  endfacet
  facet normal 0 -1 0
    outer loop
      vertex -5 -2.5 2.5
      vertex -0.19465 -2.5 0.793882
      vertex 0 -2.5 0.799999
    endloop
  endfacet
  facet normal 0 -1 0
    outer loop
      vertex -5 -2.5 2.5
      vertex -0.388533 -2.5 0.775555
      vertex -0.19465 -2.5 0.793882
    endloop
  endfacet
  facet normal 0 -1 0
    outer loop
      vertex -5 -2.5 2.5
      vertex -0.580882 -2.5 0.74509
      vertex -0.388533 -2.5 0.775555
    endloop
  endfacet
  facet normal 0 -1 0
    outer loop
      vertex -5 -2.5 2.5
      vertex -0.770938 -2.5 0.702607
      vertex -0.580882 -2.5 0.74509
    endloop
  endfacet
  facet normal 0 -1 0
    outer loop
      vertex -5 -2.5 2.5
      vertex -0.957952 -2.5 0.648274
      vertex -0.770938 -2.5 0.702607
    endloop
  endfacet
  facet normal 0 -1 0
    outer loop
      vertex -5 -2.5 2.5
      vertex -1.14119 -2.5 0.582307
      vertex -0.957952 -2.5 0.648274
    endloop
  endfacet
  facet normal 0 -1 0
    outer loop
      vertex -5 -2.5 2.5
      vertex -1.31992 -2.5 0.504963
      vertex -1.14119 -2.5 0.582307
    endloop
  endfacet
  facet normal 0 -1 0
    outer loop
      vertex -5 -2.5 2.5
      vertex -1.49344 -2.5 0.416551
      vertex -1.31992 -2.5 0.504963
    endloop
  endfacet
  facet normal 0 -1 0
    outer loop
      vertex -5 -2.5 2.5
      vertex -1.66106 -2.5 0.317416
      vertex -1.49344 -2.5 0.416551
    endloop
  endfacet
  facet normal 0 -1 0
    outer loop
      vertex -5 -2.5 2.5
      vertex -1.82213 -2.5 0.207952
      vertex -1.66106 -2.5 0.317416
    endloop
  endfacet
  facet normal 0 -1 0
    outer loop
      vertex -5 -2.5 2.5
      vertex -1.97601 -2.5 0.0885906
      vertex -1.82213 -2.5 0.207952
    endloop
  endfacet
  facet normal 0 -1 0
    outer loop
      vertex -5 -2.5 2.5
      vertex -2.1221 -2.5 -0.0401964
      vertex -1.97601 -2.5 0.0885906
    endloop
  endfacet
  facet normal 0 -1 0
    outer loop
      vertex -5 -2.5 2.5
      vertex -2.2598 -2.5 -0.177903
      vertex -2.1221 -2.5 -0.0401964
    endloop
  endfacet
  facet normal 0 -1 0
    outer loop
      vertex -5 -2.5 2.5
      vertex -2.38859 -2.5 -0.323985
      vertex -2.2598 -2.5 -0.177903
    endloop
  endfacet
  facet normal 0 -1 0
    outer loop
      vertex -5 -2.5 2.5
      vertex -2.50795 -2.5 -0.477865
      vertex -2.38859 -2.5 -0.323985
    endloop
  endfacet
  facet normal 0 -1 0
    outer loop
      vertex -5 -2.5 2.5
      vertex -2.61742 -2.5 -0.638936
      vertex -2.50795 -2.5 -0.477865
    endloop
  endfacet
  facet normal 0 -1 0
    outer loop
      vertex -5 -2.5 2.5
      vertex -2.71655 -2.5 -0.806563
      vertex -2.61742 -2.5 -0.638936
    endloop
  endfacet
  facet normal 0 -1 0
    outer loop
      vertex -5 -2.5 2.5
      vertex -2.80496 -2.5 -0.980083
      vertex -2.71655 -2.5 -0.806563
    endloop
  endfacet
  facet normal 0 -1 0
    outer loop
      vertex -5 -2.5 -2.5
      vertex -2.80496 -2.5 -0.980083
      vertex -5 -2.5 2.5
    endloop
  endfacet
  facet normal 0 -1 0
    outer loop
      vertex -2.80496 -2.5 -0.980083
      vertex -5 -2.5 -2.5
      vertex -2.88231 -2.5 -1.15881
    endloop
  endfacet
  facet normal 0 -1 0
    outer loop
      vertex -2.88231 -2.5 -1.15881
      vertex -5 -2.5 -2.5
      vertex -2.94827 -2.5 -1.34205
    endloop
  endfacet
  facet normal 0 -1 0
    outer loop
      vertex -2.94827 -2.5 -1.34205
      vertex -5 -2.5 -2.5
      vertex -3.00261 -2.5 -1.52906
    endloop
  endfacet
  facet normal 0 -1 0
    outer loop
      vertex -3.00261 -2.5 -1.52906
      vertex -5 -2.5 -2.5
      vertex -3.04509 -2.5 -1.71912
    endloop
  endfacet
  facet normal 0 -1 0
    outer loop
      vertex -3.04509 -2.5 -1.71912
      vertex -5 -2.5 -2.5
      vertex -3.07555 -2.5 -1.91147
    endloop
  endfacet
  facet normal 0 -1 0
    outer loop
      vertex -3.07555 -2.5 -1.91147
      vertex -5 -2.5 -2.5
      vertex -3.09388 -2.5 -2.10535
    endloop
  endfacet
  facet normal 0 -1 0
    outer loop
      vertex -3.09388 -2.5 -2.10535
      vertex -5 -2.5 -2.5
      vertex -3.1 -2.5 -2.3
    endloop
  endfacet
  facet normal 0 -1 -0
    outer loop
      vertex -3.1 -2.5 -2.3
      vertex -5 -2.5 -2.5
      vertex -3.09388 -2.5 -2.49465
    endloop
  endfacet
  facet normal 0 -1 -0
    outer loop
      vertex -3.09388 -2.5 -2.49465
      vertex -5 -2.5 -2.5
      vertex -3.09338 -2.5 -2.5
    endloop
  endfacet
  facet normal 0 -1 0
    outer loop
      vertex 0.19465 -2.5 0.793882
      vertex 5 -2.5 2.5
      vertex 0 -2.5 0.799999
    endloop
  endfacet
  facet normal 0 -1 0
    outer loop
      vertex 0.388533 -2.5 0.775555
      vertex 5 -2.5 2.5
      vertex 0.19465 -2.5 0.793882
    endloop
  endfacet
  facet normal 0 -1 0
    outer loop
      vertex 0.580882 -2.5 0.74509
      vertex 5 -2.5 2.5
      vertex 0.388533 -2.5 0.775555
    endloop
  endfacet
  facet normal 0 -1 0
    outer loop
      vertex 0.770938 -2.5 0.702607
      vertex 5 -2.5 2.5
      vertex 0.580882 -2.5 0.74509
    endloop
  endfacet
  facet normal 0 -1 0
    outer loop
      vertex 0.957952 -2.5 0.648274
      vertex 5 -2.5 2.5
      vertex 0.770938 -2.5 0.702607
    endloop
  endfacet
  facet normal 0 -1 0
    outer loop
      vertex 1.14119 -2.5 0.582307
      vertex 5 -2.5 2.5
      vertex 0.957952 -2.5 0.648274
    endloop
  endfacet
  facet normal 0 -1 0
    outer loop
      vertex 1.31992 -2.5 0.504963
      vertex 5 -2.5 2.5
      vertex 1.14119 -2.5 0.582307
    endloop
  endfacet
  facet normal 0 -1 0
    outer loop
      vertex 1.49344 -2.5 0.416551
      vertex 5 -2.5 2.5
      vertex 1.31992 -2.5 0.504963
    endloop
  endfacet
  facet normal 0 -1 0
    outer loop
      vertex 1.66106 -2.5 0.317416
      vertex 5 -2.5 2.5
      vertex 1.49344 -2.5 0.416551
    endloop
  endfacet
  facet normal 0 -1 0
    outer loop
      vertex 1.82213 -2.5 0.207952
      vertex 5 -2.5 2.5
      vertex 1.66106 -2.5 0.317416
    endloop
  endfacet
  facet normal 0 -1 0
    outer loop
      vertex 1.97601 -2.5 0.0885906
      vertex 5 -2.5 2.5
      vertex 1.82213 -2.5 0.207952
    endloop
  endfacet
  facet normal 0 -1 0
    outer loop
      vertex 2.1221 -2.5 -0.0401964
      vertex 5 -2.5 2.5
      vertex 1.97601 -2.5 0.0885906
    endloop
  endfacet
  facet normal 0 -1 0
    outer loop
      vertex 2.2598 -2.5 -0.177903
      vertex 5 -2.5 2.5
      vertex 2.1221 -2.5 -0.0401964
    endloop
  endfacet
  facet normal 0 -1 0
    outer loop
      vertex 2.38859 -2.5 -0.323985
      vertex 5 -2.5 2.5
      vertex 2.2598 -2.5 -0.177903
    endloop
  endfacet
  facet normal 0 -1 0
    outer loop
      vertex 2.50795 -2.5 -0.477865
      vertex 5 -2.5 2.5
      vertex 2.38859 -2.5 -0.323985
    endloop
  endfacet
  facet normal 0 -1 0
    outer loop
      vertex 2.61742 -2.5 -0.638936
      vertex 5 -2.5 2.5
      vertex 2.50795 -2.5 -0.477865
    endloop
  endfacet
  facet normal 0 -1 0
    outer loop
      vertex 2.71655 -2.5 -0.806563
      vertex 5 -2.5 2.5
      vertex 2.61742 -2.5 -0.638936
    endloop
  endfacet
  facet normal 0 -1 0
    outer loop
      vertex 2.80496 -2.5 -0.980083
      vertex 5 -2.5 2.5
      vertex 2.71655 -2.5 -0.806563
    endloop
  endfacet
  facet normal 0 -1 0
    outer loop
      vertex 5 -2.5 -2.5
      vertex 2.80496 -2.5 -0.980083
      vertex 2.88231 -2.5 -1.15881
    endloop
  endfacet
  facet normal 0 -1 0
    outer loop
      vertex 5 -2.5 -2.5
      vertex 2.88231 -2.5 -1.15881
      vertex 2.94827 -2.5 -1.34205
    endloop
  endfacet
  facet normal 0 -1 0
    outer loop
      vertex 5 -2.5 -2.5
      vertex 2.94827 -2.5 -1.34205
      vertex 3.00261 -2.5 -1.52906
    endloop
  endfacet
  facet normal 0 -1 0
    outer loop
      vertex 5 -2.5 -2.5
      vertex 3.00261 -2.5 -1.52906
      vertex 3.04509 -2.5 -1.71912
    endloop
  endfacet
  facet normal 0 -1 0
    outer loop
      vertex 5 -2.5 -2.5
      vertex 3.04509 -2.5 -1.71912
      vertex 3.07555 -2.5 -1.91147
    endloop
  endfacet
  facet normal 0 -1 0
    outer loop
      vertex 5 -2.5 -2.5
      vertex 3.07555 -2.5 -1.91147
      vertex 3.09388 -2.5 -2.10535
    endloop
  endfacet
  facet normal 0 -1 0
    outer loop
      vertex 5 -2.5 -2.5
      vertex 3.09388 -2.5 -2.10535
      vertex 3.1 -2.5 -2.3
    endloop
  endfacet
  facet normal 0 -1 0
    outer loop
      vertex 5 -2.5 -2.5
      vertex 3.1 -2.5 -2.3
      vertex 3.09388 -2.5 -2.49465
    endloop
  endfacet
  facet normal 0 -1 0
    outer loop
      vertex 5 -2.5 -2.5
      vertex 3.09388 -2.5 -2.49465
      vertex 3.09338 -2.5 -2.5
    endloop
  endfacet
  facet normal 0 -1 0
    outer loop
      vertex 2.80496 -2.5 -0.980083
      vertex 5 -2.5 -2.5
      vertex 5 -2.5 2.5
    endloop
  endfacet
  facet normal -0.999507 0 -0.0314093
    outer loop
      vertex 3.1 -2.5 -2.3
      vertex 3.09388 2.5 -2.10535
      vertex 3.1 2.5 -2.3
    endloop
  endfacet
  facet normal -0.999507 -0 -0.0314093
    outer loop
      vertex 3.09388 2.5 -2.10535
      vertex 3.1 -2.5 -2.3
      vertex 3.09388 -2.5 -2.10535
    endloop
  endfacet
  facet normal 0.999507 0 -0.0314093
    outer loop
      vertex -3.09388 -2.5 -2.10535
      vertex -3.1 2.5 -2.3
      vertex -3.09388 2.5 -2.10535
    endloop
  endfacet
  facet normal 0.999507 0 -0.0314093
    outer loop
      vertex -3.1 2.5 -2.3
      vertex -3.09388 -2.5 -2.10535
      vertex -3.1 -2.5 -2.3
    endloop
  endfacet
  facet normal 0.0314095 0 -0.999507
    outer loop
      vertex -0.19465 -2.5 0.793882
      vertex 0 2.5 0.799999
      vertex 0 -2.5 0.799999
    endloop
  endfacet
  facet normal 0.0314095 0 -0.999507
    outer loop
      vertex 0 2.5 0.799999
      vertex -0.19465 -2.5 0.793882
      vertex -0.19465 2.5 0.793882
    endloop
  endfacet
  facet normal 0.0941102 0 -0.995562
    outer loop
      vertex -0.388533 -2.5 0.775555
      vertex -0.19465 2.5 0.793882
      vertex -0.19465 -2.5 0.793882
    endloop
  endfacet
  facet normal 0.0941102 0 -0.995562
    outer loop
      vertex -0.19465 2.5 0.793882
      vertex -0.388533 -2.5 0.775555
      vertex -0.388533 2.5 0.775555
    endloop
  endfacet
  facet normal -0.995562 0 -0.0941107
    outer loop
      vertex 3.09388 -2.5 -2.10535
      vertex 3.07555 2.5 -1.91147
      vertex 3.09388 2.5 -2.10535
    endloop
  endfacet
  facet normal -0.995562 -0 -0.0941107
    outer loop
      vertex 3.07555 2.5 -1.91147
      vertex 3.09388 -2.5 -2.10535
      vertex 3.07555 -2.5 -1.91147
    endloop
  endfacet
  facet normal -0.66131 0 -0.750113
    outer loop
      vertex 1.97601 -2.5 0.0885906
      vertex 2.1221 2.5 -0.0401964
      vertex 2.1221 -2.5 -0.0401964
    endloop
  endfacet
  facet normal -0.66131 0 -0.750113
    outer loop
      vertex 2.1221 2.5 -0.0401964
      vertex 1.97601 -2.5 0.0885906
      vertex 1.97601 2.5 0.0885906
    endloop
  endfacet
  facet normal 0.995562 0 -0.0941107
    outer loop
      vertex -3.07555 -2.5 -1.91147
      vertex -3.09388 2.5 -2.10535
      vertex -3.07555 2.5 -1.91147
    endloop
  endfacet
  facet normal 0.995562 0 -0.0941107
    outer loop
      vertex -3.09388 2.5 -2.10535
      vertex -3.07555 -2.5 -1.91147
      vertex -3.09388 -2.5 -2.10535
    endloop
  endfacet
  facet normal 0.987688 0 -0.156434
    outer loop
      vertex -3.04509 -2.5 -1.71912
      vertex -3.07555 2.5 -1.91147
      vertex -3.04509 2.5 -1.71912
    endloop
  endfacet
  facet normal 0.987688 0 -0.156434
    outer loop
      vertex -3.07555 2.5 -1.91147
      vertex -3.04509 -2.5 -1.71912
      vertex -3.07555 -2.5 -1.91147
    endloop
  endfacet
  facet normal -0.338736 0 -0.940882
    outer loop
      vertex 0.957952 -2.5 0.648274
      vertex 1.14119 2.5 0.582307
      vertex 1.14119 -2.5 0.582307
    endloop
  endfacet
  facet normal -0.338736 0 -0.940882
    outer loop
      vertex 1.14119 2.5 0.582307
      vertex 0.957952 -2.5 0.648274
      vertex 0.957952 2.5 0.648274
    endloop
  endfacet
  facet normal -0.995563 0 0.0940993
    outer loop
      vertex 3.09338 -2.5 -2.5
      vertex 3.09388 2.5 -2.49465
      vertex 3.09338 2.5 -2.5
    endloop
  endfacet
  facet normal -0.995563 0 0.0940993
    outer loop
      vertex 3.09388 2.5 -2.49465
      vertex 3.09338 -2.5 -2.5
      vertex 3.09388 -2.5 -2.49465
    endloop
  endfacet
  facet normal -0.917754 0 -0.39715
    outer loop
      vertex 2.88231 -2.5 -1.15881
      vertex 2.80496 2.5 -0.980083
      vertex 2.88231 2.5 -1.15881
    endloop
  endfacet
  facet normal -0.917754 -0 -0.39715
    outer loop
      vertex 2.80496 2.5 -0.980083
      vertex 2.88231 -2.5 -1.15881
      vertex 2.80496 -2.5 -0.980083
    endloop
  endfacet
  facet normal -0.891006 0 -0.453992
    outer loop
      vertex 2.80496 -2.5 -0.980083
      vertex 2.71655 2.5 -0.806563
      vertex 2.80496 2.5 -0.980083
    endloop
  endfacet
  facet normal -0.891006 -0 -0.453992
    outer loop
      vertex 2.71655 2.5 -0.806563
      vertex 2.80496 -2.5 -0.980083
      vertex 2.71655 -2.5 -0.806563
    endloop
  endfacet
  facet normal -0.0314095 0 -0.999507
    outer loop
      vertex 0 -2.5 0.799999
      vertex 0.19465 2.5 0.793882
      vertex 0.19465 -2.5 0.793882
    endloop
  endfacet
  facet normal -0.0314095 0 -0.999507
    outer loop
      vertex 0.19465 2.5 0.793882
      vertex 0 -2.5 0.799999
      vertex 0 2.5 0.799999
    endloop
  endfacet
  facet normal -0.156434 0 -0.987688
    outer loop
      vertex 0.388533 -2.5 0.775555
      vertex 0.580882 2.5 0.74509
      vertex 0.580882 -2.5 0.74509
    endloop
  endfacet
  facet normal -0.156434 0 -0.987688
    outer loop
      vertex 0.580882 2.5 0.74509
      vertex 0.388533 -2.5 0.775555
      vertex 0.388533 2.5 0.775555
    endloop
  endfacet
  facet normal -0.999507 0 0.0314093
    outer loop
      vertex 3.09388 -2.5 -2.49465
      vertex 3.1 2.5 -2.3
      vertex 3.09388 2.5 -2.49465
    endloop
  endfacet
  facet normal -0.999507 0 0.0314093
    outer loop
      vertex 3.1 2.5 -2.3
      vertex 3.09388 -2.5 -2.49465
      vertex 3.1 -2.5 -2.3
    endloop
  endfacet
  facet normal 0.999507 -0 0.0314093
    outer loop
      vertex -3.1 -2.5 -2.3
      vertex -3.09388 2.5 -2.49465
      vertex -3.1 2.5 -2.3
    endloop
  endfacet
  facet normal 0.999507 0 0.0314093
    outer loop
      vertex -3.09388 2.5 -2.49465
      vertex -3.1 -2.5 -2.3
      vertex -3.09388 -2.5 -2.49465
    endloop
  endfacet
  facet normal 0.66131 0 -0.750113
    outer loop
      vertex -2.1221 -2.5 -0.0401964
      vertex -1.97601 2.5 0.0885906
      vertex -1.97601 -2.5 0.0885906
    endloop
  endfacet
  facet normal 0.66131 0 -0.750113
    outer loop
      vertex -1.97601 2.5 0.0885906
      vertex -2.1221 -2.5 -0.0401964
      vertex -2.1221 2.5 -0.0401964
    endloop
  endfacet
  facet normal 0.39715 0 -0.917754
    outer loop
      vertex -1.31992 -2.5 0.504963
      vertex -1.14119 2.5 0.582307
      vertex -1.14119 -2.5 0.582307
    endloop
  endfacet
  facet normal 0.39715 0 -0.917754
    outer loop
      vertex -1.14119 2.5 0.582307
      vertex -1.31992 -2.5 0.504963
      vertex -1.31992 2.5 0.504963
    endloop
  endfacet
  facet normal 0.891006 0 -0.453992
    outer loop
      vertex -2.71655 -2.5 -0.806563
      vertex -2.80496 2.5 -0.980083
      vertex -2.71655 2.5 -0.806563
    endloop
  endfacet
  facet normal 0.891006 0 -0.453992
    outer loop
      vertex -2.80496 2.5 -0.980083
      vertex -2.71655 -2.5 -0.806563
      vertex -2.80496 -2.5 -0.980083
    endloop
  endfacet
  facet normal -0.975917 0 -0.218143
    outer loop
      vertex 3.04509 -2.5 -1.71912
      vertex 3.00261 2.5 -1.52906
      vertex 3.04509 2.5 -1.71912
    endloop
  endfacet
  facet normal -0.975917 -0 -0.218143
    outer loop
      vertex 3.00261 2.5 -1.52906
      vertex 3.04509 -2.5 -1.71912
      vertex 3.00261 -2.5 -1.52906
    endloop
  endfacet
  facet normal -0.278991 0 -0.960294
    outer loop
      vertex 0.770938 -2.5 0.702607
      vertex 0.957952 2.5 0.648274
      vertex 0.957952 -2.5 0.648274
    endloop
  endfacet
  facet normal -0.278991 0 -0.960294
    outer loop
      vertex 0.957952 2.5 0.648274
      vertex 0.770938 -2.5 0.702607
      vertex 0.770938 2.5 0.702607
    endloop
  endfacet
  facet normal 0.995563 -0 0.0940993
    outer loop
      vertex -3.09388 -2.5 -2.49465
      vertex -3.09338 2.5 -2.5
      vertex -3.09388 2.5 -2.49465
    endloop
  endfacet
  facet normal 0.995563 0 0.0940993
    outer loop
      vertex -3.09338 2.5 -2.5
      vertex -3.09388 -2.5 -2.49465
      vertex -3.09338 -2.5 -2.5
    endloop
  endfacet
  facet normal 0.218143 0 -0.975917
    outer loop
      vertex -0.770938 -2.5 0.702607
      vertex -0.580882 2.5 0.74509
      vertex -0.580882 -2.5 0.74509
    endloop
  endfacet
  facet normal 0.218143 0 -0.975917
    outer loop
      vertex -0.580882 2.5 0.74509
      vertex -0.770938 -2.5 0.702607
      vertex -0.770938 2.5 0.702607
    endloop
  endfacet
  facet normal 0.707107 0 -0.707107
    outer loop
      vertex -2.1221 -2.5 -0.0401964
      vertex -2.2598 2.5 -0.177903
      vertex -2.1221 2.5 -0.0401964
    endloop
  endfacet
  facet normal 0.707107 0 -0.707107
    outer loop
      vertex -2.2598 2.5 -0.177903
      vertex -2.1221 -2.5 -0.0401964
      vertex -2.2598 -2.5 -0.177903
    endloop
  endfacet
  facet normal 0.940882 0 -0.338736
    outer loop
      vertex -2.88231 -2.5 -1.15881
      vertex -2.94827 2.5 -1.34205
      vertex -2.88231 2.5 -1.15881
    endloop
  endfacet
  facet normal 0.940882 0 -0.338736
    outer loop
      vertex -2.94827 2.5 -1.34205
      vertex -2.88231 -2.5 -1.15881
      vertex -2.94827 -2.5 -1.34205
    endloop
  endfacet
  facet normal -0.509043 0 -0.860741
    outer loop
      vertex 1.49344 -2.5 0.416551
      vertex 1.66106 2.5 0.317416
      vertex 1.66106 -2.5 0.317416
    endloop
  endfacet
  facet normal -0.509043 0 -0.860741
    outer loop
      vertex 1.66106 2.5 0.317416
      vertex 1.49344 -2.5 0.416551
      vertex 1.49344 2.5 0.416551
    endloop
  endfacet
  facet normal -0.562081 0 -0.827082
    outer loop
      vertex 1.66106 -2.5 0.317416
      vertex 1.82213 2.5 0.207952
      vertex 1.82213 -2.5 0.207952
    endloop
  endfacet
  facet normal -0.562081 0 -0.827082
    outer loop
      vertex 1.82213 2.5 0.207952
      vertex 1.66106 -2.5 0.317416
      vertex 1.66106 2.5 0.317416
    endloop
  endfacet
  facet normal -0.987688 0 -0.156434
    outer loop
      vertex 3.07555 -2.5 -1.91147
      vertex 3.04509 2.5 -1.71912
      vertex 3.07555 2.5 -1.91147
    endloop
  endfacet
  facet normal -0.987688 -0 -0.156434
    outer loop
      vertex 3.04509 2.5 -1.71912
      vertex 3.07555 -2.5 -1.91147
      vertex 3.04509 -2.5 -1.71912
    endloop
  endfacet
  facet normal -0.0941102 0 -0.995562
    outer loop
      vertex 0.19465 -2.5 0.793882
      vertex 0.388533 2.5 0.775555
      vertex 0.388533 -2.5 0.775555
    endloop
  endfacet
  facet normal -0.0941102 0 -0.995562
    outer loop
      vertex 0.388533 2.5 0.775555
      vertex 0.19465 -2.5 0.793882
      vertex 0.19465 2.5 0.793882
    endloop
  endfacet
  facet normal -0.218143 0 -0.975917
    outer loop
      vertex 0.580882 -2.5 0.74509
      vertex 0.770938 2.5 0.702607
      vertex 0.770938 -2.5 0.702607
    endloop
  endfacet
  facet normal -0.218143 0 -0.975917
    outer loop
      vertex 0.770938 2.5 0.702607
      vertex 0.580882 -2.5 0.74509
      vertex 0.580882 2.5 0.74509
    endloop
  endfacet
  facet normal 0.156434 0 -0.987688
    outer loop
      vertex -0.580882 -2.5 0.74509
      vertex -0.388533 2.5 0.775555
      vertex -0.388533 -2.5 0.775555
    endloop
  endfacet
  facet normal 0.156434 0 -0.987688
    outer loop
      vertex -0.388533 2.5 0.775555
      vertex -0.580882 -2.5 0.74509
      vertex -0.580882 2.5 0.74509
    endloop
  endfacet
  facet normal 0.562081 0 -0.827082
    outer loop
      vertex -1.82213 -2.5 0.207952
      vertex -1.66106 2.5 0.317416
      vertex -1.66106 -2.5 0.317416
    endloop
  endfacet
  facet normal 0.562081 0 -0.827082
    outer loop
      vertex -1.66106 2.5 0.317416
      vertex -1.82213 -2.5 0.207952
      vertex -1.82213 2.5 0.207952
    endloop
  endfacet
  facet normal 0.453988 0 -0.891008
    outer loop
      vertex -1.49344 -2.5 0.416551
      vertex -1.31992 2.5 0.504963
      vertex -1.31992 -2.5 0.504963
    endloop
  endfacet
  facet normal 0.453988 0 -0.891008
    outer loop
      vertex -1.31992 2.5 0.504963
      vertex -1.49344 -2.5 0.416551
      vertex -1.49344 2.5 0.416551
    endloop
  endfacet
  facet normal 0.790157 0 -0.612905
    outer loop
      vertex -2.38859 -2.5 -0.323985
      vertex -2.50795 2.5 -0.477865
      vertex -2.38859 2.5 -0.323985
    endloop
  endfacet
  facet normal 0.790157 0 -0.612905
    outer loop
      vertex -2.50795 2.5 -0.477865
      vertex -2.38859 -2.5 -0.323985
      vertex -2.50795 -2.5 -0.477865
    endloop
  endfacet
  facet normal 0.917754 0 -0.39715
    outer loop
      vertex -2.80496 -2.5 -0.980083
      vertex -2.88231 2.5 -1.15881
      vertex -2.80496 2.5 -0.980083
    endloop
  endfacet
  facet normal 0.917754 0 -0.39715
    outer loop
      vertex -2.88231 2.5 -1.15881
      vertex -2.80496 -2.5 -0.980083
      vertex -2.88231 -2.5 -1.15881
    endloop
  endfacet
  facet normal -0.39715 0 -0.917754
    outer loop
      vertex 1.14119 -2.5 0.582307
      vertex 1.31992 2.5 0.504963
      vertex 1.31992 -2.5 0.504963
    endloop
  endfacet
  facet normal -0.39715 0 -0.917754
    outer loop
      vertex 1.31992 2.5 0.504963
      vertex 1.14119 -2.5 0.582307
      vertex 1.14119 2.5 0.582307
    endloop
  endfacet
  facet normal -0.612908 0 -0.790154
    outer loop
      vertex 1.82213 -2.5 0.207952
      vertex 1.97601 2.5 0.0885906
      vertex 1.97601 -2.5 0.0885906
    endloop
  endfacet
  facet normal -0.612908 0 -0.790154
    outer loop
      vertex 1.97601 2.5 0.0885906
      vertex 1.82213 -2.5 0.207952
      vertex 1.82213 2.5 0.207952
    endloop
  endfacet
  facet normal -0.860744 0 -0.509037
    outer loop
      vertex 2.71655 -2.5 -0.806563
      vertex 2.61742 2.5 -0.638936
      vertex 2.71655 2.5 -0.806563
    endloop
  endfacet
  facet normal -0.860744 -0 -0.509037
    outer loop
      vertex 2.61742 2.5 -0.638936
      vertex 2.71655 -2.5 -0.806563
      vertex 2.61742 -2.5 -0.638936
    endloop
  endfacet
  facet normal -0.790157 0 -0.612905
    outer loop
      vertex 2.50795 -2.5 -0.477865
      vertex 2.38859 2.5 -0.323985
      vertex 2.50795 2.5 -0.477865
    endloop
  endfacet
  facet normal -0.790157 -0 -0.612905
    outer loop
      vertex 2.38859 2.5 -0.323985
      vertex 2.50795 -2.5 -0.477865
      vertex 2.38859 -2.5 -0.323985
    endloop
  endfacet
  facet normal -0.827078 0 -0.562087
    outer loop
      vertex 2.61742 -2.5 -0.638936
      vertex 2.50795 2.5 -0.477865
      vertex 2.61742 2.5 -0.638936
    endloop
  endfacet
  facet normal -0.827078 -0 -0.562087
    outer loop
      vertex 2.50795 2.5 -0.477865
      vertex 2.61742 -2.5 -0.638936
      vertex 2.50795 -2.5 -0.477865
    endloop
  endfacet
  facet normal -0.940882 0 -0.338736
    outer loop
      vertex 2.94827 -2.5 -1.34205
      vertex 2.88231 2.5 -1.15881
      vertex 2.94827 2.5 -1.34205
    endloop
  endfacet
  facet normal -0.940882 -0 -0.338736
    outer loop
      vertex 2.88231 2.5 -1.15881
      vertex 2.94827 -2.5 -1.34205
      vertex 2.88231 -2.5 -1.15881
    endloop
  endfacet
  facet normal 0.612908 0 -0.790154
    outer loop
      vertex -1.97601 -2.5 0.0885906
      vertex -1.82213 2.5 0.207952
      vertex -1.82213 -2.5 0.207952
    endloop
  endfacet
  facet normal 0.612908 0 -0.790154
    outer loop
      vertex -1.82213 2.5 0.207952
      vertex -1.97601 -2.5 0.0885906
      vertex -1.97601 2.5 0.0885906
    endloop
  endfacet
  facet normal 0.338736 0 -0.940882
    outer loop
      vertex -1.14119 -2.5 0.582307
      vertex -0.957952 2.5 0.648274
      vertex -0.957952 -2.5 0.648274
    endloop
  endfacet
  facet normal 0.338736 0 -0.940882
    outer loop
      vertex -0.957952 2.5 0.648274
      vertex -1.14119 -2.5 0.582307
      vertex -1.14119 2.5 0.582307
    endloop
  endfacet
  facet normal 0.75011 0 -0.661313
    outer loop
      vertex -2.2598 -2.5 -0.177903
      vertex -2.38859 2.5 -0.323985
      vertex -2.2598 2.5 -0.177903
    endloop
  endfacet
  facet normal 0.75011 0 -0.661313
    outer loop
      vertex -2.38859 2.5 -0.323985
      vertex -2.2598 -2.5 -0.177903
      vertex -2.38859 -2.5 -0.323985
    endloop
  endfacet
  facet normal 0.827078 0 -0.562087
    outer loop
      vertex -2.50795 -2.5 -0.477865
      vertex -2.61742 2.5 -0.638936
      vertex -2.50795 2.5 -0.477865
    endloop
  endfacet
  facet normal 0.827078 0 -0.562087
    outer loop
      vertex -2.61742 2.5 -0.638936
      vertex -2.50795 -2.5 -0.477865
      vertex -2.61742 -2.5 -0.638936
    endloop
  endfacet
  facet normal 0.960294 0 -0.278991
    outer loop
      vertex -2.94827 -2.5 -1.34205
      vertex -3.00261 2.5 -1.52906
      vertex -2.94827 2.5 -1.34205
    endloop
  endfacet
  facet normal 0.960294 0 -0.278991
    outer loop
      vertex -3.00261 2.5 -1.52906
      vertex -2.94827 -2.5 -1.34205
      vertex -3.00261 -2.5 -1.52906
    endloop
  endfacet
  facet normal 0.975917 0 -0.218143
    outer loop
      vertex -3.00261 -2.5 -1.52906
      vertex -3.04509 2.5 -1.71912
      vertex -3.00261 2.5 -1.52906
    endloop
  endfacet
  facet normal 0.975917 0 -0.218143
    outer loop
      vertex -3.04509 2.5 -1.71912
      vertex -3.00261 -2.5 -1.52906
      vertex -3.04509 -2.5 -1.71912
    endloop
  endfacet
  facet normal -0.453988 0 -0.891008
    outer loop
      vertex 1.31992 -2.5 0.504963
      vertex 1.49344 2.5 0.416551
      vertex 1.49344 -2.5 0.416551
    endloop
  endfacet
  facet normal -0.453988 0 -0.891008
    outer loop
      vertex 1.49344 2.5 0.416551
      vertex 1.31992 -2.5 0.504963
      vertex 1.31992 2.5 0.504963
    endloop
  endfacet
  facet normal -0.707107 0 -0.707107
    outer loop
      vertex 2.2598 -2.5 -0.177903
      vertex 2.1221 2.5 -0.0401964
      vertex 2.2598 2.5 -0.177903
    endloop
  endfacet
  facet normal -0.707107 -0 -0.707107
    outer loop
      vertex 2.1221 2.5 -0.0401964
      vertex 2.2598 -2.5 -0.177903
      vertex 2.1221 -2.5 -0.0401964
    endloop
  endfacet
  facet normal -0.960294 0 -0.278991
    outer loop
      vertex 3.00261 -2.5 -1.52906
      vertex 2.94827 2.5 -1.34205
      vertex 3.00261 2.5 -1.52906
    endloop
  endfacet
  facet normal -0.960294 -0 -0.278991
    outer loop
      vertex 2.94827 2.5 -1.34205
      vertex 3.00261 -2.5 -1.52906
      vertex 2.94827 -2.5 -1.34205
    endloop
  endfacet
  facet normal 0.509043 0 -0.860741
    outer loop
      vertex -1.66106 -2.5 0.317416
      vertex -1.49344 2.5 0.416551
      vertex -1.49344 -2.5 0.416551
    endloop
  endfacet
  facet normal 0.509043 0 -0.860741
    outer loop
      vertex -1.49344 2.5 0.416551
      vertex -1.66106 -2.5 0.317416
      vertex -1.66106 2.5 0.317416
    endloop
  endfacet
  facet normal 0.278991 0 -0.960294
    outer loop
      vertex -0.957952 -2.5 0.648274
      vertex -0.770938 2.5 0.702607
      vertex -0.770938 -2.5 0.702607
    endloop
  endfacet
  facet normal 0.278991 0 -0.960294
    outer loop
      vertex -0.770938 2.5 0.702607
      vertex -0.957952 -2.5 0.648274
      vertex -0.957952 2.5 0.648274
    endloop
  endfacet
  facet normal 0.860744 0 -0.509037
    outer loop
      vertex -2.61742 -2.5 -0.638936
      vertex -2.71655 2.5 -0.806563
      vertex -2.61742 2.5 -0.638936
    endloop
  endfacet
  facet normal 0.860744 0 -0.509037
    outer loop
      vertex -2.71655 2.5 -0.806563
      vertex -2.61742 -2.5 -0.638936
      vertex -2.71655 -2.5 -0.806563
    endloop
  endfacet
  facet normal -0.75011 0 -0.661313
    outer loop
      vertex 2.38859 -2.5 -0.323985
      vertex 2.2598 2.5 -0.177903
      vertex 2.38859 2.5 -0.323985
    endloop
  endfacet
  facet normal -0.75011 -0 -0.661313
    outer loop
      vertex 2.2598 2.5 -0.177903
      vertex 2.38859 -2.5 -0.323985
      vertex 2.2598 -2.5 -0.177903
    endloop
  endfacet
endsolid OpenSCAD_Model
