solid OpenSCAD_Model
  facet normal -1 0 0
    outer loop
      vertex -5 -2.5 -2.5
      vertex -5 2.5 2.5
      vertex -5 2.5 -2.5
    endloop
  endfacet
  facet normal -1 -0 0
    outer loop
      vertex -5 2.5 2.5
      vertex -5 -2.5 -2.5
      vertex -5 -2.5 2.5
    endloop
  endfacet
  facet normal -0 0 1
    outer loop
      vertex -5 2.5 2.5
      vertex 5 -2.5 2.5
      vertex 5 2.5 2.5
    endloop
  endfacet
  facet normal 0 0 1
    outer loop
      vertex 5 -2.5 2.5
      vertex -5 2.5 2.5
      vertex -5 -2.5 2.5
    endloop
  endfacet
  facet normal 1 -0 0
    outer loop
      vertex 5 -2.5 2.5
      vertex 5 2.5 -2.5
      vertex 5 2.5 2.5
    endloop
  endfacet
  facet normal 1 0 0
    outer loop
      vertex 5 2.5 -2.5
      vertex 5 -2.5 2.5
      vertex 5 -2.5 -2.5
    endloop
  endfacet
  facet normal 0 1 0
    outer loop
      vertex 5 2.5 2.5
      vertex 0 2.5 0.7
      vertex -5 2.5 2.5
    endloop
  endfacet
  facet normal 0 1 0
    outer loop
      vertex 5 2.5 2.5
      vertex 0.213488 2.5 0.693291
      vertex 0 2.5 0.7
    endloop
  endfacet
  facet normal 0 1 0
    outer loop
      vertex 5 2.5 2.5
      vertex 0.426132 2.5 0.673189
      vertex 0.213488 2.5 0.693291
    endloop
  endfacet
  facet normal 0 1 0
    outer loop
      vertex 5 2.5 2.5
      vertex 0.637096 2.5 0.639776
      vertex 0.426132 2.5 0.673189
    endloop
  endfacet
  facet normal 0 1 0
    outer loop
      vertex 5 2.5 2.5
      vertex 0.845545 2.5 0.593183
      vertex 0.637096 2.5 0.639776
    endloop
  endfacet
  facet normal 0 1 0
    outer loop
      vertex 5 2.5 2.5
      vertex 1.05066 2.5 0.533591
      vertex 0.845545 2.5 0.593183
    endloop
  endfacet
  facet normal 0 1 0
    outer loop
      vertex 5 2.5 2.5
      vertex 1.25162 2.5 0.46124
      vertex 1.05066 2.5 0.533591
    endloop
  endfacet
  facet normal 0 1 0
    outer loop
      vertex 5 2.5 2.5
      vertex 1.44765 2.5 0.376411
      vertex 1.25162 2.5 0.46124
    endloop
  endfacet
  facet normal 0 1 0
    outer loop
      vertex 5 2.5 2.5
      vertex 1.63796 2.5 0.279442
      vertex 1.44765 2.5 0.376411
    endloop
  endfacet
  facet normal 0 1 0
    outer loop
      vertex 5 2.5 2.5
      vertex 1.82181 2.5 0.170714
      vertex 1.63796 2.5 0.279442
    endloop
  endfacet
  facet normal 0 1 0
    outer loop
      vertex 5 2.5 2.5
      vertex 1.99847 2.5 0.0506573
      vertex 1.82181 2.5 0.170714
    endloop
  endfacet
  facet normal 0 1 0
    outer loop
      vertex 5 2.5 2.5
      vertex 2.16724 2.5 -0.0802546
      vertex 1.99847 2.5 0.0506573
    endloop
  endfacet
  facet normal 0 1 0
    outer loop
      vertex 5 2.5 2.5
      vertex 2.32746 2.5 -0.221506
      vertex 2.16724 2.5 -0.0802546
    endloop
  endfacet
  facet normal 0 1 0
    outer loop
      vertex 5 2.5 2.5
      vertex 2.47849 2.5 -0.37254
      vertex 2.32746 2.5 -0.221506
    endloop
  endfacet
  facet normal 0 1 0
    outer loop
      vertex 5 2.5 2.5
      vertex 2.61974 2.5 -0.532758
      vertex 2.47849 2.5 -0.37254
    endloop
  endfacet
  facet normal 0 1 0
    outer loop
      vertex 5 2.5 2.5
      vertex 2.75066 2.5 -0.70153
      vertex 2.61974 2.5 -0.532758
    endloop
  endfacet
  facet normal 0 1 0
    outer loop
      vertex 5 2.5 2.5
      vertex 2.87071 2.5 -0.878188
      vertex 2.75066 2.5 -0.70153
    endloop
  endfacet
  facet normal 0 1 0
    outer loop
      vertex 5 2.5 2.5
      vertex 2.97944 2.5 -1.06204
      vertex 2.87071 2.5 -0.878188
    endloop
  endfacet
  facet normal 0 1 0
    outer loop
      vertex 5 2.5 2.5
      vertex 3.07641 2.5 -1.25235
      vertex 2.97944 2.5 -1.06204
    endloop
  endfacet
  facet normal 0 1 -0
    outer loop
      vertex 5 2.5 -2.5
      vertex 3.07641 2.5 -1.25235
      vertex 5 2.5 2.5
    endloop
  endfacet
  facet normal 0 1 0
    outer loop
      vertex 3.07641 2.5 -1.25235
      vertex 5 2.5 -2.5
      vertex 3.16124 2.5 -1.44838
    endloop
  endfacet
  facet normal 0 1 0
    outer loop
      vertex 3.16124 2.5 -1.44838
      vertex 5 2.5 -2.5
      vertex 3.23359 2.5 -1.64934
    endloop
  endfacet
  facet normal 0 1 0
    outer loop
      vertex 3.23359 2.5 -1.64934
      vertex 5 2.5 -2.5
      vertex 3.29318 2.5 -1.85445
    endloop
  endfacet
  facet normal 0 1 0
    outer loop
      vertex 3.29318 2.5 -1.85445
      vertex 5 2.5 -2.5
      vertex 3.33978 2.5 -2.0629
    endloop
  endfacet
  facet normal 0 1 0
    outer loop
      vertex 3.33978 2.5 -2.0629
      vertex 5 2.5 -2.5
      vertex 3.37319 2.5 -2.27387
    endloop
  endfacet
  facet normal 0 1 0
    outer loop
      vertex 3.37319 2.5 -2.27387
      vertex 5 2.5 -2.5
      vertex 3.39329 2.5 -2.48651
    endloop
  endfacet
  facet normal 0 1 0
    outer loop
      vertex 3.39329 2.5 -2.48651
      vertex 5 2.5 -2.5
      vertex 3.39371 2.5 -2.5
    endloop
  endfacet
  facet normal 0 1 -0
    outer loop
      vertex -0.213488 2.5 0.693291
      vertex -5 2.5 2.5
      vertex 0 2.5 0.7
    endloop
  endfacet
  facet normal 0 1 -0
    outer loop
      vertex -0.426132 2.5 0.673189
      vertex -5 2.5 2.5
      vertex -0.213488 2.5 0.693291
    endloop
  endfacet
  facet normal 0 1 -0
    outer loop
      vertex -0.637096 2.5 0.639776
      vertex -5 2.5 2.5
      vertex -0.426132 2.5 0.673189
    endloop
  endfacet
  facet normal 0 1 -0
    outer loop
      vertex -0.845545 2.5 0.593183
      vertex -5 2.5 2.5
      vertex -0.637096 2.5 0.639776
    endloop
  endfacet
  facet normal 0 1 -0
    outer loop
      vertex -1.05066 2.5 0.533591
      vertex -5 2.5 2.5
      vertex -0.845545 2.5 0.593183
    endloop
  endfacet
  facet normal 0 1 -0
    outer loop
      vertex -1.25162 2.5 0.46124
      vertex -5 2.5 2.5
      vertex -1.05066 2.5 0.533591
    endloop
  endfacet
  facet normal 0 1 -0
    outer loop
      vertex -1.44765 2.5 0.376411
      vertex -5 2.5 2.5
      vertex -1.25162 2.5 0.46124
    endloop
  endfacet
  facet normal 0 1 -0
    outer loop
      vertex -1.63796 2.5 0.279442
      vertex -5 2.5 2.5
      vertex -1.44765 2.5 0.376411
    endloop
  endfacet
  facet normal 0 1 -0
    outer loop
      vertex -1.82181 2.5 0.170714
      vertex -5 2.5 2.5
      vertex -1.63796 2.5 0.279442
    endloop
  endfacet
  facet normal 0 1 -0
    outer loop
      vertex -1.99847 2.5 0.0506573
      vertex -5 2.5 2.5
      vertex -1.82181 2.5 0.170714
    endloop
  endfacet
  facet normal 0 1 -0
    outer loop
      vertex -2.16724 2.5 -0.0802546
      vertex -5 2.5 2.5
      vertex -1.99847 2.5 0.0506573
    endloop
  endfacet
  facet normal 0 1 -0
    outer loop
      vertex -2.32746 2.5 -0.221506
      vertex -5 2.5 2.5
      vertex -2.16724 2.5 -0.0802546
    endloop
  endfacet
  facet normal 0 1 -0
    outer loop
      vertex -2.47849 2.5 -0.37254
      vertex -5 2.5 2.5
      vertex -2.32746 2.5 -0.221506
    endloop
  endfacet
  facet normal 0 1 -0
    outer loop
      vertex -2.61974 2.5 -0.532758
      vertex -5 2.5 2.5
      vertex -2.47849 2.5 -0.37254
    endloop
  endfacet
  facet normal 0 1 -0
    outer loop
      vertex -2.75066 2.5 -0.70153
      vertex -5 2.5 2.5
      vertex -2.61974 2.5 -0.532758
    endloop
  endfacet
  facet normal 0 1 -0
    outer loop
      vertex -2.87071 2.5 -0.878188
      vertex -5 2.5 2.5
      vertex -2.75066 2.5 -0.70153
    endloop
  endfacet
  facet normal 0 1 -0
    outer loop
      vertex -2.97944 2.5 -1.06204
      vertex -5 2.5 2.5
      vertex -2.87071 2.5 -0.878188
    endloop
  endfacet
  facet normal 0 1 -0
    outer loop
      vertex -3.07641 2.5 -1.25235
      vertex -5 2.5 2.5
      vertex -2.97944 2.5 -1.06204
    endloop
  endfacet
  facet normal 0 1 0
    outer loop
      vertex -5 2.5 -2.5
      vertex -3.07641 2.5 -1.25235
      vertex -3.16124 2.5 -1.44838
    endloop
  endfacet
  facet normal 0 1 0
    outer loop
      vertex -5 2.5 -2.5
      vertex -3.16124 2.5 -1.44838
      vertex -3.23359 2.5 -1.64934
    endloop
  endfacet
  facet normal 0 1 0
    outer loop
      vertex -5 2.5 -2.5
      vertex -3.23359 2.5 -1.64934
      vertex -3.29318 2.5 -1.85445
    endloop
  endfacet
  facet normal 0 1 0
    outer loop
      vertex -5 2.5 -2.5
      vertex -3.29318 2.5 -1.85445
      vertex -3.33978 2.5 -2.0629
    endloop
  endfacet
  facet normal 0 1 0
    outer loop
      vertex -5 2.5 -2.5
      vertex -3.33978 2.5 -2.0629
      vertex -3.37319 2.5 -2.27387
    endloop
  endfacet
  facet normal 0 1 0
    outer loop
      vertex -5 2.5 -2.5
      vertex -3.37319 2.5 -2.27387
      vertex -3.39329 2.5 -2.48651
    endloop
  endfacet
  facet normal 0 1 0
    outer loop
      vertex -5 2.5 -2.5
      vertex -3.39329 2.5 -2.48651
      vertex -3.39371 2.5 -2.5
    endloop
  endfacet
  facet normal 0 1 0
    outer loop
      vertex -3.07641 2.5 -1.25235
      vertex -5 2.5 -2.5
      vertex -5 2.5 2.5
    endloop
  endfacet
  facet normal 0 0 -1
    outer loop
      vertex -5 -2.5 -2.5
      vertex -3.39371 2.5 -2.5
      vertex -3.39371 -2.5 -2.5
    endloop
  endfacet
  facet normal -0 0 -1
    outer loop
      vertex -3.39371 2.5 -2.5
      vertex -5 -2.5 -2.5
      vertex -5 2.5 -2.5
    endloop
  endfacet
  facet normal 0 0 -1
    outer loop
      vertex 3.39371 -2.5 -2.5
      vertex 5 2.5 -2.5
      vertex 5 -2.5 -2.5
    endloop
  endfacet
  facet normal -0 0 -1
    outer loop
      vertex 5 2.5 -2.5
      vertex 3.39371 -2.5 -2.5
      vertex 3.39371 2.5 -2.5
    endloop
  endfacet
  facet normal 0 -1 0
    outer loop
      vertex -5 -2.5 2.5
      vertex 0 -2.5 0.7
      vertex 5 -2.5 2.5
    endloop
  endfacet
  facet normal 0 -1 0
    outer loop
      vertex -5 -2.5 2.5
      vertex -0.213488 -2.5 0.693291
      vertex 0 -2.5 0.7
    endloop
  endfacet
  facet normal 0 -1 0
    outer loop
      vertex -5 -2.5 2.5
      vertex -0.426132 -2.5 0.673189
      vertex -0.213488 -2.5 0.693291
    endloop
  endfacet
  facet normal 0 -1 0
    outer loop
      vertex -5 -2.5 2.5
      vertex -0.637096 -2.5 0.639776
      vertex -0.426132 -2.5 0.673189
    endloop
  endfacet
  facet normal 0 -1 0
    outer loop
      vertex -5 -2.5 2.5
      vertex -0.845545 -2.5 0.593183
      vertex -0.637096 -2.5 0.639776
    endloop
  endfacet
  facet normal 0 -1 0
    outer loop
      vertex -5 -2.5 2.5
      vertex -1.05066 -2.5 0.533591
      vertex -0.845545 -2.5 0.593183
    endloop
  endfacet
  facet normal 0 -1 0
    outer loop
      vertex -5 -2.5 2.5
      vertex -1.25162 -2.5 0.46124
      vertex -1.05066 -2.5 0.533591
    endloop
  endfacet
  facet normal 0 -1 0
    outer loop
      vertex -5 -2.5 2.5
      vertex -1.44765 -2.5 0.376411
      vertex -1.25162 -2.5 0.46124
    endloop
  endfacet
  facet normal 0 -1 0
    outer loop
      vertex -5 -2.5 2.5
      vertex -1.63796 -2.5 0.279442
      vertex -1.44765 -2.5 0.376411
    endloop
  endfacet
  facet normal 0 -1 0
    outer loop
      vertex -5 -2.5 2.5
      vertex -1.82181 -2.5 0.170714
      vertex -1.63796 -2.5 0.279442
    endloop
  endfacet
  facet normal 0 -1 0
    outer loop
      vertex -5 -2.5 2.5
      vertex -1.99847 -2.5 0.0506573
      vertex -1.82181 -2.5 0.170714
    endloop
  endfacet
  facet normal 0 -1 0
    outer loop
      vertex -5 -2.5 2.5
      vertex -2.16724 -2.5 -0.0802546
      vertex -1.99847 -2.5 0.0506573
    endloop
  endfacet
  facet normal 0 -1 0
    outer loop
      vertex -5 -2.5 2.5
      vertex -2.32746 -2.5 -0.221506
      vertex -2.16724 -2.5 -0.0802546
    endloop
  endfacet
  facet normal 0 -1 0
    outer loop
      vertex -5 -2.5 2.5
      vertex -2.47849 -2.5 -0.37254
      vertex -2.32746 -2.5 -0.221506
    endloop
  endfacet
  facet normal 0 -1 0
    outer loop
      vertex -5 -2.5 2.5
      vertex -2.61974 -2.5 -0.532758
      vertex -2.47849 -2.5 -0.37254
    endloop
  endfacet
  facet normal 0 -1 0
    outer loop
      vertex -5 -2.5 2.5
      vertex -2.75066 -2.5 -0.70153
      vertex -2.61974 -2.5 -0.532758
    endloop
  endfacet
  facet normal 0 -1 0
    outer loop
      vertex -5 -2.5 2.5
      vertex -2.87071 -2.5 -0.878188
      vertex -2.75066 -2.5 -0.70153
    endloop
  endfacet
  facet normal 0 -1 0
    outer loop
      vertex -5 -2.5 2.5
      vertex -2.97944 -2.5 -1.06204
      vertex -2.87071 -2.5 -0.878188
    endloop
  endfacet
  facet normal 0 -1 0
    outer loop
      vertex -5 -2.5 2.5
      vertex -3.07641 -2.5 -1.25235
      vertex -2.97944 -2.5 -1.06204
    endloop
  endfacet
  facet normal 0 -1 0
    outer loop
      vertex -5 -2.5 -2.5
      vertex -3.07641 -2.5 -1.25235
      vertex -5 -2.5 2.5
    endloop
  endfacet
  facet normal 0 -1 0
    outer loop
      vertex -3.07641 -2.5 -1.25235
      vertex -5 -2.5 -2.5
      vertex -3.16124 -2.5 -1.44838
    endloop
  endfacet
  facet normal 0 -1 0
    outer loop
      vertex -3.16124 -2.5 -1.44838
      vertex -5 -2.5 -2.5
      vertex -3.23359 -2.5 -1.64934
    endloop
  endfacet
  facet normal 0 -1 0
    outer loop
      vertex -3.23359 -2.5 -1.64934
      vertex -5 -2.5 -2.5
      vertex -3.29318 -2.5 -1.85445
    endloop
  endfacet
  facet normal 0 -1 0
    outer loop
      vertex -3.29318 -2.5 -1.85445
      vertex -5 -2.5 -2.5
      vertex -3.33978 -2.5 -2.0629
    endloop
  endfacet
  facet normal 0 -1 0
    outer loop
      vertex -3.33978 -2.5 -2.0629
      vertex -5 -2.5 -2.5
      vertex -3.37319 -2.5 -2.27387
    endloop
  endfacet
  facet normal 0 -1 0
    outer loop
      vertex -3.37319 -2.5 -2.27387
      vertex -5 -2.5 -2.5
      vertex -3.39329 -2.5 -2.48651
    endloop
  endfacet
  facet normal 0 -1 0
    outer loop
      vertex -3.39329 -2.5 -2.48651
      vertex -5 -2.5 -2.5
      vertex -3.39371 -2.5 -2.5
    endloop
  endfacet
  facet normal 0 -1 0
    outer loop
      vertex 0.213488 -2.5 0.693291
      vertex 5 -2.5 2.5
      vertex 0 -2.5 0.7
    endloop
  endfacet
  facet normal 0 -1 0
    outer loop
      vertex 0.426132 -2.5 0.673189
      vertex 5 -2.5 2.5
      vertex 0.213488 -2.5 0.693291
    endloop
  endfacet
  facet normal 0 -1 0
    outer loop
      vertex 0.637096 -2.5 0.639776
      vertex 5 -2.5 2.5
      vertex 0.426132 -2.5 0.673189
    endloop
  endfacet
  facet normal 0 -1 0
    outer loop
      vertex 0.845545 -2.5 0.593183
      vertex 5 -2.5 2.5
      vertex 0.637096 -2.5 0.639776
    endloop
  endfacet
  facet normal 0 -1 0
    outer loop
      vertex 1.05066 -2.5 0.533591
      vertex 5 -2.5 2.5
      vertex 0.845545 -2.5 0.593183
    endloop
  endfacet
  facet normal 0 -1 0
    outer loop
      vertex 1.25162 -2.5 0.46124
      vertex 5 -2.5 2.5
      vertex 1.05066 -2.5 0.533591
    endloop
  endfacet
  facet normal 0 -1 0
    outer loop
      vertex 1.44765 -2.5 0.376411
      vertex 5 -2.5 2.5
      vertex 1.25162 -2.5 0.46124
    endloop
  endfacet
  facet normal 0 -1 0
    outer loop
      vertex 1.63796 -2.5 0.279442
      vertex 5 -2.5 2.5
      vertex 1.44765 -2.5 0.376411
    endloop
  endfacet
  facet normal 0 -1 0
    outer loop
      vertex 1.82181 -2.5 0.170714
      vertex 5 -2.5 2.5
      vertex 1.63796 -2.5 0.279442
    endloop
  endfacet
  facet normal 0 -1 0
    outer loop
      vertex 1.99847 -2.5 0.0506573
      vertex 5 -2.5 2.5
      vertex 1.82181 -2.5 0.170714
    endloop
  endfacet
  facet normal 0 -1 0
    outer loop
      vertex 2.16724 -2.5 -0.0802546
      vertex 5 -2.5 2.5
      vertex 1.99847 -2.5 0.0506573
    endloop
  endfacet
  facet normal 0 -1 0
    outer loop
      vertex 2.32746 -2.5 -0.221506
      vertex 5 -2.5 2.5
      vertex 2.16724 -2.5 -0.0802546
    endloop
  endfacet
  facet normal 0 -1 0
    outer loop
      vertex 2.47849 -2.5 -0.37254
      vertex 5 -2.5 2.5
      vertex 2.32746 -2.5 -0.221506
    endloop
  endfacet
  facet normal 0 -1 0
    outer loop
      vertex 2.61974 -2.5 -0.532758
      vertex 5 -2.5 2.5
      vertex 2.47849 -2.5 -0.37254
    endloop
  endfacet
  facet normal 0 -1 0
    outer loop
      vertex 2.75066 -2.5 -0.70153
      vertex 5 -2.5 2.5
      vertex 2.61974 -2.5 -0.532758
    endloop
  endfacet
  facet normal 0 -1 0
    outer loop
      vertex 2.87071 -2.5 -0.878188
      vertex 5 -2.5 2.5
      vertex 2.75066 -2.5 -0.70153
    endloop
  endfacet
  facet normal 0 -1 0
    outer loop
      vertex 2.97944 -2.5 -1.06204
      vertex 5 -2.5 2.5
      vertex 2.87071 -2.5 -0.878188
    endloop
  endfacet
  facet normal 0 -1 0
    outer loop
      vertex 3.07641 -2.5 -1.25235
      vertex 5 -2.5 2.5
      vertex 2.97944 -2.5 -1.06204
    endloop
  endfacet
  facet normal 0 -1 0
    outer loop
      vertex 5 -2.5 -2.5
      vertex 3.07641 -2.5 -1.25235
      vertex 3.16124 -2.5 -1.44838
    endloop
  endfacet
  facet normal 0 -1 0
    outer loop
      vertex 5 -2.5 -2.5
      vertex 3.16124 -2.5 -1.44838
      vertex 3.23359 -2.5 -1.64934
    endloop
  endfacet
  facet normal 0 -1 0
    outer loop
      vertex 5 -2.5 -2.5
      vertex 3.23359 -2.5 -1.64934
      vertex 3.29318 -2.5 -1.85445
    endloop
  endfacet
  facet normal 0 -1 0
    outer loop
      vertex 5 -2.5 -2.5
      vertex 3.29318 -2.5 -1.85445
      vertex 3.33978 -2.5 -2.0629
    endloop
  endfacet
  facet normal 0 -1 0
    outer loop
      vertex 5 -2.5 -2.5
      vertex 3.33978 -2.5 -2.0629
      vertex 3.37319 -2.5 -2.27387
    endloop
  endfacet
  facet normal 0 -1 0
    outer loop
      vertex 5 -2.5 -2.5
      vertex 3.37319 -2.5 -2.27387
      vertex 3.39329 -2.5 -2.48651
    endloop
  endfacet
  facet normal 0 -1 0
    outer loop
      vertex 5 -2.5 -2.5
      vertex 3.39329 -2.5 -2.48651
      vertex 3.39371 -2.5 -2.5
    endloop
  endfacet
  facet normal 0 -1 0
    outer loop
      vertex 3.07641 -2.5 -1.25235
      vertex 5 -2.5 -2.5
      vertex 5 -2.5 2.5
    endloop
  endfacet
  facet normal -0.999506 0 -0.0314135
    outer loop
      vertex 3.39371 -2.5 -2.5
      vertex 3.39329 2.5 -2.48651
      vertex 3.39371 2.5 -2.5
    endloop
  endfacet
  facet normal -0.999506 -0 -0.0314135
    outer loop
      vertex 3.39329 2.5 -2.48651
      vertex 3.39371 -2.5 -2.5
      vertex 3.39329 -2.5 -2.48651
    endloop
  endfacet
  facet normal -0.987688 0 -0.156437
    outer loop
      vertex 3.37319 -2.5 -2.27387
      vertex 3.33978 2.5 -2.0629
      vertex 3.37319 2.5 -2.27387
    endloop
  endfacet
  facet normal -0.987688 -0 -0.156437
    outer loop
      vertex 3.33978 2.5 -2.0629
      vertex 3.37319 -2.5 -2.27387
      vertex 3.33978 -2.5 -2.0629
    endloop
  endfacet
  facet normal 0.999506 0 -0.0314135
    outer loop
      vertex -3.39329 -2.5 -2.48651
      vertex -3.39371 2.5 -2.5
      vertex -3.39329 2.5 -2.48651
    endloop
  endfacet
  facet normal 0.999506 0 -0.0314135
    outer loop
      vertex -3.39371 2.5 -2.5
      vertex -3.39329 -2.5 -2.48651
      vertex -3.39371 -2.5 -2.5
    endloop
  endfacet
  facet normal -0.995562 0 -0.0941068
    outer loop
      vertex 3.39329 -2.5 -2.48651
      vertex 3.37319 2.5 -2.27387
      vertex 3.39329 2.5 -2.48651
    endloop
  endfacet
  facet normal -0.995562 -0 -0.0941068
    outer loop
      vertex 3.37319 2.5 -2.27387
      vertex 3.39329 -2.5 -2.48651
      vertex 3.37319 -2.5 -2.27387
    endloop
  endfacet
  facet normal 0.0941116 0 -0.995562
    outer loop
      vertex -0.426132 -2.5 0.673189
      vertex -0.213488 2.5 0.693291
      vertex -0.213488 -2.5 0.693291
    endloop
  endfacet
  facet normal 0.0941116 0 -0.995562
    outer loop
      vertex -0.213488 2.5 0.693291
      vertex -0.426132 -2.5 0.673189
      vertex -0.426132 2.5 0.673189
    endloop
  endfacet
  facet normal 0.0314107 0 -0.999507
    outer loop
      vertex -0.213488 -2.5 0.693291
      vertex 0 2.5 0.7
      vertex 0 -2.5 0.7
    endloop
  endfacet
  facet normal 0.0314107 0 -0.999507
    outer loop
      vertex 0 2.5 0.7
      vertex -0.213488 -2.5 0.693291
      vertex -0.213488 2.5 0.693291
    endloop
  endfacet
  facet normal 0.975917 0 -0.218142
    outer loop
      vertex -3.29318 -2.5 -1.85445
      vertex -3.33978 2.5 -2.0629
      vertex -3.29318 2.5 -1.85445
    endloop
  endfacet
  facet normal 0.975917 0 -0.218142
    outer loop
      vertex -3.33978 2.5 -2.0629
      vertex -3.29318 -2.5 -1.85445
      vertex -3.33978 -2.5 -2.0629
    endloop
  endfacet
  facet normal -0.612904 0 -0.790157
    outer loop
      vertex 1.99847 -2.5 0.0506573
      vertex 2.16724 2.5 -0.0802546
      vertex 2.16724 -2.5 -0.0802546
    endloop
  endfacet
  facet normal -0.612904 0 -0.790157
    outer loop
      vertex 2.16724 2.5 -0.0802546
      vertex 1.99847 -2.5 0.0506573
      vertex 1.99847 2.5 0.0506573
    endloop
  endfacet
  facet normal 0.960294 0 -0.27899
    outer loop
      vertex -3.23359 -2.5 -1.64934
      vertex -3.29318 2.5 -1.85445
      vertex -3.23359 2.5 -1.64934
    endloop
  endfacet
  facet normal 0.960294 0 -0.27899
    outer loop
      vertex -3.29318 2.5 -1.85445
      vertex -3.23359 -2.5 -1.64934
      vertex -3.29318 -2.5 -1.85445
    endloop
  endfacet
  facet normal 0.278994 0 -0.960293
    outer loop
      vertex -1.05066 -2.5 0.533591
      vertex -0.845545 2.5 0.593183
      vertex -0.845545 -2.5 0.593183
    endloop
  endfacet
  facet normal 0.278994 0 -0.960293
    outer loop
      vertex -0.845545 2.5 0.593183
      vertex -1.05066 -2.5 0.533591
      vertex -1.05066 2.5 0.533591
    endloop
  endfacet
  facet normal -0.94088 0 -0.338739
    outer loop
      vertex 3.23359 -2.5 -1.64934
      vertex 3.16124 2.5 -1.44838
      vertex 3.23359 2.5 -1.64934
    endloop
  endfacet
  facet normal -0.94088 -0 -0.338739
    outer loop
      vertex 3.16124 2.5 -1.44838
      vertex 3.23359 -2.5 -1.64934
      vertex 3.16124 -2.5 -1.44838
    endloop
  endfacet
  facet normal -0.278994 0 -0.960293
    outer loop
      vertex 0.845545 -2.5 0.593183
      vertex 1.05066 2.5 0.533591
      vertex 1.05066 -2.5 0.533591
    endloop
  endfacet
  facet normal -0.278994 0 -0.960293
    outer loop
      vertex 1.05066 2.5 0.533591
      vertex 0.845545 -2.5 0.593183
      vertex 0.845545 2.5 0.593183
    endloop
  endfacet
  facet normal 0.995562 0 -0.0941068
    outer loop
      vertex -3.37319 -2.5 -2.27387
      vertex -3.39329 2.5 -2.48651
      vertex -3.37319 2.5 -2.27387
    endloop
  endfacet
  facet normal 0.995562 0 -0.0941068
    outer loop
      vertex -3.39329 2.5 -2.48651
      vertex -3.37319 -2.5 -2.27387
      vertex -3.39329 -2.5 -2.48651
    endloop
  endfacet
  facet normal 0.156432 0 -0.987689
    outer loop
      vertex -0.637096 -2.5 0.639776
      vertex -0.426132 2.5 0.673189
      vertex -0.426132 -2.5 0.673189
    endloop
  endfacet
  facet normal 0.156432 0 -0.987689
    outer loop
      vertex -0.426132 2.5 0.673189
      vertex -0.637096 -2.5 0.639776
      vertex -0.637096 2.5 0.639776
    endloop
  endfacet
  facet normal -0.0314107 0 -0.999507
    outer loop
      vertex 0 -2.5 0.7
      vertex 0.213488 2.5 0.693291
      vertex 0.213488 -2.5 0.693291
    endloop
  endfacet
  facet normal -0.0314107 0 -0.999507
    outer loop
      vertex 0.213488 2.5 0.693291
      vertex 0 -2.5 0.7
      vertex 0 2.5 0.7
    endloop
  endfacet
  facet normal 0.987688 0 -0.156437
    outer loop
      vertex -3.33978 -2.5 -2.0629
      vertex -3.37319 2.5 -2.27387
      vertex -3.33978 2.5 -2.0629
    endloop
  endfacet
  facet normal 0.987688 0 -0.156437
    outer loop
      vertex -3.37319 2.5 -2.27387
      vertex -3.33978 -2.5 -2.0629
      vertex -3.37319 -2.5 -2.27387
    endloop
  endfacet
  facet normal 0.917754 0 -0.39715
    outer loop
      vertex -3.07641 -2.5 -1.25235
      vertex -3.16124 2.5 -1.44838
      vertex -3.07641 2.5 -1.25235
    endloop
  endfacet
  facet normal 0.917754 0 -0.39715
    outer loop
      vertex -3.16124 2.5 -1.44838
      vertex -3.07641 -2.5 -1.25235
      vertex -3.16124 -2.5 -1.44838
    endloop
  endfacet
  facet normal -0.453991 0 -0.891006
    outer loop
      vertex 1.44765 -2.5 0.376411
      vertex 1.63796 2.5 0.279442
      vertex 1.63796 -2.5 0.279442
    endloop
  endfacet
  facet normal -0.453991 0 -0.891006
    outer loop
      vertex 1.63796 2.5 0.279442
      vertex 1.44765 -2.5 0.376411
      vertex 1.44765 2.5 0.376411
    endloop
  endfacet
  facet normal -0.960294 0 -0.27899
    outer loop
      vertex 3.29318 -2.5 -1.85445
      vertex 3.23359 2.5 -1.64934
      vertex 3.29318 2.5 -1.85445
    endloop
  endfacet
  facet normal -0.960294 -0 -0.27899
    outer loop
      vertex 3.23359 2.5 -1.64934
      vertex 3.29318 -2.5 -1.85445
      vertex 3.23359 -2.5 -1.64934
    endloop
  endfacet
  facet normal -0.156432 0 -0.987689
    outer loop
      vertex 0.426132 -2.5 0.673189
      vertex 0.637096 2.5 0.639776
      vertex 0.637096 -2.5 0.639776
    endloop
  endfacet
  facet normal -0.156432 0 -0.987689
    outer loop
      vertex 0.637096 2.5 0.639776
      vertex 0.426132 -2.5 0.673189
      vertex 0.426132 2.5 0.673189
    endloop
  endfacet
  facet normal -0.562083 0 -0.827081
    outer loop
      vertex 1.82181 -2.5 0.170714
      vertex 1.99847 2.5 0.0506573
      vertex 1.99847 -2.5 0.0506573
    endloop
  endfacet
  facet normal -0.562083 0 -0.827081
    outer loop
      vertex 1.99847 2.5 0.0506573
      vertex 1.82181 -2.5 0.170714
      vertex 1.82181 2.5 0.170714
    endloop
  endfacet
  facet normal -0.39715 0 -0.917754
    outer loop
      vertex 1.25162 -2.5 0.46124
      vertex 1.44765 2.5 0.376411
      vertex 1.44765 -2.5 0.376411
    endloop
  endfacet
  facet normal -0.39715 0 -0.917754
    outer loop
      vertex 1.44765 2.5 0.376411
      vertex 1.25162 -2.5 0.46124
      vertex 1.25162 2.5 0.46124
    endloop
  endfacet
  facet normal -0.509041 0 -0.860742
    outer loop
      vertex 1.63796 -2.5 0.279442
      vertex 1.82181 2.5 0.170714
      vertex 1.82181 -2.5 0.170714
    endloop
  endfacet
  facet normal -0.509041 0 -0.860742
    outer loop
      vertex 1.82181 2.5 0.170714
      vertex 1.63796 -2.5 0.279442
      vertex 1.63796 2.5 0.279442
    endloop
  endfacet
  facet normal -0.975917 0 -0.218142
    outer loop
      vertex 3.33978 -2.5 -2.0629
      vertex 3.29318 2.5 -1.85445
      vertex 3.33978 2.5 -2.0629
    endloop
  endfacet
  facet normal -0.975917 -0 -0.218142
    outer loop
      vertex 3.29318 2.5 -1.85445
      vertex 3.33978 -2.5 -2.0629
      vertex 3.29318 -2.5 -1.85445
    endloop
  endfacet
  facet normal -0.790155 0 -0.612907
    outer loop
      vertex 2.75066 -2.5 -0.70153
      vertex 2.61974 2.5 -0.532758
      vertex 2.75066 2.5 -0.70153
    endloop
  endfacet
  facet normal -0.790155 -0 -0.612907
    outer loop
      vertex 2.61974 2.5 -0.532758
      vertex 2.75066 -2.5 -0.70153
      vertex 2.61974 -2.5 -0.532758
    endloop
  endfacet
  facet normal -0.0941116 0 -0.995562
    outer loop
      vertex 0.213488 -2.5 0.693291
      vertex 0.426132 2.5 0.673189
      vertex 0.426132 -2.5 0.673189
    endloop
  endfacet
  facet normal -0.0941116 0 -0.995562
    outer loop
      vertex 0.426132 2.5 0.673189
      vertex 0.213488 -2.5 0.693291
      vertex 0.213488 2.5 0.693291
    endloop
  endfacet
  facet normal 0.218143 0 -0.975917
    outer loop
      vertex -0.845545 -2.5 0.593183
      vertex -0.637096 2.5 0.639776
      vertex -0.637096 -2.5 0.639776
    endloop
  endfacet
  facet normal 0.218143 0 -0.975917
    outer loop
      vertex -0.637096 2.5 0.639776
      vertex -0.845545 -2.5 0.593183
      vertex -0.845545 2.5 0.593183
    endloop
  endfacet
  facet normal 0.39715 0 -0.917754
    outer loop
      vertex -1.44765 -2.5 0.376411
      vertex -1.25162 2.5 0.46124
      vertex -1.25162 -2.5 0.46124
    endloop
  endfacet
  facet normal 0.39715 0 -0.917754
    outer loop
      vertex -1.25162 2.5 0.46124
      vertex -1.44765 -2.5 0.376411
      vertex -1.44765 2.5 0.376411
    endloop
  endfacet
  facet normal 0.509041 0 -0.860742
    outer loop
      vertex -1.82181 -2.5 0.170714
      vertex -1.63796 2.5 0.279442
      vertex -1.63796 -2.5 0.279442
    endloop
  endfacet
  facet normal 0.509041 0 -0.860742
    outer loop
      vertex -1.63796 2.5 0.279442
      vertex -1.82181 -2.5 0.170714
      vertex -1.82181 2.5 0.170714
    endloop
  endfacet
  facet normal 0.338735 0 -0.940882
    outer loop
      vertex -1.25162 -2.5 0.46124
      vertex -1.05066 2.5 0.533591
      vertex -1.05066 -2.5 0.533591
    endloop
  endfacet
  facet normal 0.338735 0 -0.940882
    outer loop
      vertex -1.05066 2.5 0.533591
      vertex -1.25162 -2.5 0.46124
      vertex -1.25162 2.5 0.46124
    endloop
  endfacet
  facet normal 0.562083 0 -0.827081
    outer loop
      vertex -1.99847 -2.5 0.0506573
      vertex -1.82181 2.5 0.170714
      vertex -1.82181 -2.5 0.170714
    endloop
  endfacet
  facet normal 0.562083 0 -0.827081
    outer loop
      vertex -1.82181 2.5 0.170714
      vertex -1.99847 -2.5 0.0506573
      vertex -1.99847 2.5 0.0506573
    endloop
  endfacet
  facet normal 0.790155 0 -0.612907
    outer loop
      vertex -2.61974 -2.5 -0.532758
      vertex -2.75066 2.5 -0.70153
      vertex -2.61974 2.5 -0.532758
    endloop
  endfacet
  facet normal 0.790155 0 -0.612907
    outer loop
      vertex -2.75066 2.5 -0.70153
      vertex -2.61974 -2.5 -0.532758
      vertex -2.75066 -2.5 -0.70153
    endloop
  endfacet
  facet normal 0.860742 0 -0.509042
    outer loop
      vertex -2.87071 -2.5 -0.878188
      vertex -2.97944 2.5 -1.06204
      vertex -2.87071 2.5 -0.878188
    endloop
  endfacet
  facet normal 0.860742 0 -0.509042
    outer loop
      vertex -2.97944 2.5 -1.06204
      vertex -2.87071 -2.5 -0.878188
      vertex -2.97944 -2.5 -1.06204
    endloop
  endfacet
  facet normal 0.612904 0 -0.790157
    outer loop
      vertex -2.16724 -2.5 -0.0802546
      vertex -1.99847 2.5 0.0506573
      vertex -1.99847 -2.5 0.0506573
    endloop
  endfacet
  facet normal 0.612904 0 -0.790157
    outer loop
      vertex -1.99847 2.5 0.0506573
      vertex -2.16724 -2.5 -0.0802546
      vertex -2.16724 2.5 -0.0802546
    endloop
  endfacet
  facet normal 0.94088 0 -0.338739
    outer loop
      vertex -3.16124 -2.5 -1.44838
      vertex -3.23359 2.5 -1.64934
      vertex -3.16124 2.5 -1.44838
    endloop
  endfacet
  facet normal 0.94088 0 -0.338739
    outer loop
      vertex -3.23359 2.5 -1.64934
      vertex -3.16124 -2.5 -1.44838
      vertex -3.23359 -2.5 -1.64934
    endloop
  endfacet
  facet normal -0.218143 0 -0.975917
    outer loop
      vertex 0.637096 -2.5 0.639776
      vertex 0.845545 2.5 0.593183
      vertex 0.845545 -2.5 0.593183
    endloop
  endfacet
  facet normal -0.218143 0 -0.975917
    outer loop
      vertex 0.845545 2.5 0.593183
      vertex 0.637096 -2.5 0.639776
      vertex 0.637096 2.5 0.639776
    endloop
  endfacet
  facet normal -0.338735 0 -0.940882
    outer loop
      vertex 1.05066 -2.5 0.533591
      vertex 1.25162 2.5 0.46124
      vertex 1.25162 -2.5 0.46124
    endloop
  endfacet
  facet normal -0.338735 0 -0.940882
    outer loop
      vertex 1.25162 2.5 0.46124
      vertex 1.05066 -2.5 0.533591
      vertex 1.05066 2.5 0.533591
    endloop
  endfacet
  facet normal -0.827081 0 -0.562083
    outer loop
      vertex 2.87071 -2.5 -0.878188
      vertex 2.75066 2.5 -0.70153
      vertex 2.87071 2.5 -0.878188
    endloop
  endfacet
  facet normal -0.827081 -0 -0.562083
    outer loop
      vertex 2.75066 2.5 -0.70153
      vertex 2.87071 -2.5 -0.878188
      vertex 2.75066 -2.5 -0.70153
    endloop
  endfacet
  facet normal -0.860742 0 -0.509042
    outer loop
      vertex 2.97944 -2.5 -1.06204
      vertex 2.87071 2.5 -0.878188
      vertex 2.97944 2.5 -1.06204
    endloop
  endfacet
  facet normal -0.860742 -0 -0.509042
    outer loop
      vertex 2.87071 2.5 -0.878188
      vertex 2.97944 -2.5 -1.06204
      vertex 2.87071 -2.5 -0.878188
    endloop
  endfacet
  facet normal -0.891007 0 -0.453989
    outer loop
      vertex 3.07641 -2.5 -1.25235
      vertex 2.97944 2.5 -1.06204
      vertex 3.07641 2.5 -1.25235
    endloop
  endfacet
  facet normal -0.891007 -0 -0.453989
    outer loop
      vertex 2.97944 2.5 -1.06204
      vertex 3.07641 -2.5 -1.25235
      vertex 2.97944 -2.5 -1.06204
    endloop
  endfacet
  facet normal -0.707107 0 -0.707107
    outer loop
      vertex 2.47849 -2.5 -0.37254
      vertex 2.32746 2.5 -0.221506
      vertex 2.47849 2.5 -0.37254
    endloop
  endfacet
  facet normal -0.707107 -0 -0.707107
    outer loop
      vertex 2.32746 2.5 -0.221506
      vertex 2.47849 -2.5 -0.37254
      vertex 2.32746 -2.5 -0.221506
    endloop
  endfacet
  facet normal -0.661312 0 -0.750111
    outer loop
      vertex 2.16724 -2.5 -0.0802546
      vertex 2.32746 2.5 -0.221506
      vertex 2.32746 -2.5 -0.221506
    endloop
  endfacet
  facet normal -0.661312 0 -0.750111
    outer loop
      vertex 2.32746 2.5 -0.221506
      vertex 2.16724 -2.5 -0.0802546
      vertex 2.16724 2.5 -0.0802546
    endloop
  endfacet
  facet normal -0.750111 0 -0.661312
    outer loop
      vertex 2.61974 -2.5 -0.532758
      vertex 2.47849 2.5 -0.37254
      vertex 2.61974 2.5 -0.532758
    endloop
  endfacet
  facet normal -0.750111 -0 -0.661312
    outer loop
      vertex 2.47849 2.5 -0.37254
      vertex 2.61974 -2.5 -0.532758
      vertex 2.47849 -2.5 -0.37254
    endloop
  endfacet
  facet normal 0.453991 0 -0.891006
    outer loop
      vertex -1.63796 -2.5 0.279442
      vertex -1.44765 2.5 0.376411
      vertex -1.44765 -2.5 0.376411
    endloop
  endfacet
  facet normal 0.453991 0 -0.891006
    outer loop
      vertex -1.44765 2.5 0.376411
      vertex -1.63796 -2.5 0.279442
      vertex -1.63796 2.5 0.279442
    endloop
  endfacet
  facet normal 0.750111 0 -0.661312
    outer loop
      vertex -2.47849 -2.5 -0.37254
      vertex -2.61974 2.5 -0.532758
      vertex -2.47849 2.5 -0.37254
    endloop
  endfacet
  facet normal 0.750111 0 -0.661312
    outer loop
      vertex -2.61974 2.5 -0.532758
      vertex -2.47849 -2.5 -0.37254
      vertex -2.61974 -2.5 -0.532758
    endloop
  endfacet
  facet normal 0.891007 0 -0.453989
    outer loop
      vertex -2.97944 -2.5 -1.06204
      vertex -3.07641 2.5 -1.25235
      vertex -2.97944 2.5 -1.06204
    endloop
  endfacet
  facet normal 0.891007 0 -0.453989
    outer loop
      vertex -3.07641 2.5 -1.25235
      vertex -2.97944 -2.5 -1.06204
      vertex -3.07641 -2.5 -1.25235
    endloop
  endfacet
  facet normal -0.917754 0 -0.39715
    outer loop
      vertex 3.16124 -2.5 -1.44838
      vertex 3.07641 2.5 -1.25235
      vertex 3.16124 2.5 -1.44838
    endloop
  endfacet
  facet normal -0.917754 -0 -0.39715
    outer loop
      vertex 3.07641 2.5 -1.25235
      vertex 3.16124 -2.5 -1.44838
      vertex 3.07641 -2.5 -1.25235
    endloop
  endfacet
  facet normal 0.827081 0 -0.562083
    outer loop
      vertex -2.75066 -2.5 -0.70153
      vertex -2.87071 2.5 -0.878188
      vertex -2.75066 2.5 -0.70153
    endloop
  endfacet
  facet normal 0.827081 0 -0.562083
    outer loop
      vertex -2.87071 2.5 -0.878188
      vertex -2.75066 -2.5 -0.70153
      vertex -2.87071 -2.5 -0.878188
    endloop
  endfacet
  facet normal 0.707107 0 -0.707107
    outer loop
      vertex -2.32746 -2.5 -0.221506
      vertex -2.47849 2.5 -0.37254
      vertex -2.32746 2.5 -0.221506
    endloop
  endfacet
  facet normal 0.707107 0 -0.707107
    outer loop
      vertex -2.47849 2.5 -0.37254
      vertex -2.32746 -2.5 -0.221506
      vertex -2.47849 -2.5 -0.37254
    endloop
  endfacet
  facet normal 0.661312 0 -0.750111
    outer loop
      vertex -2.32746 -2.5 -0.221506
      vertex -2.16724 2.5 -0.0802546
      vertex -2.16724 -2.5 -0.0802546
    endloop
  endfacet
  facet normal 0.661312 0 -0.750111
    outer loop
      vertex -2.16724 2.5 -0.0802546
      vertex -2.32746 -2.5 -0.221506
      vertex -2.32746 2.5 -0.221506
    endloop
  endfacet
endsolid OpenSCAD_Model
