solid OpenSCAD_Model
  facet normal -1 0 0
    outer loop
      vertex -5 -2.5 -2.5
      vertex -5 2.5 2.5
      vertex -5 2.5 -2.5
    endloop
  endfacet
  facet normal -1 -0 0
    outer loop
      vertex -5 2.5 2.5
      vertex -5 -2.5 -2.5
      vertex -5 -2.5 2.5
    endloop
  endfacet
  facet normal -0 0 1
    outer loop
      vertex -5 2.5 2.5
      vertex 5 -2.5 2.5
      vertex 5 2.5 2.5
    endloop
  endfacet
  facet normal 0 0 1
    outer loop
      vertex 5 -2.5 2.5
      vertex -5 2.5 2.5
      vertex -5 -2.5 2.5
    endloop
  endfacet
  facet normal 1 -0 0
    outer loop
      vertex 5 -2.5 2.5
      vertex 5 2.5 -2.5
      vertex 5 2.5 2.5
    endloop
  endfacet
  facet normal 1 0 0
    outer loop
      vertex 5 2.5 -2.5
      vertex 5 -2.5 2.5
      vertex 5 -2.5 -2.5
    endloop
  endfacet
  facet normal 0 1 0
    outer loop
      vertex 5 2.5 2.5
      vertex 0 2.5 0.299999
      vertex -5 2.5 2.5
    endloop
  endfacet
  facet normal 0 1 0
    outer loop
      vertex 5 2.5 2.5
      vertex 0.19465 2.5 0.293882
      vertex 0 2.5 0.299999
    endloop
  endfacet
  facet normal 0 1 0
    outer loop
      vertex 5 2.5 2.5
      vertex 0.388533 2.5 0.275555
      vertex 0.19465 2.5 0.293882
    endloop
  endfacet
  facet normal 0 1 0
    outer loop
      vertex 5 2.5 2.5
      vertex 0.580882 2.5 0.24509
      vertex 0.388533 2.5 0.275555
    endloop
  endfacet
  facet normal 0 1 0
    outer loop
      vertex 5 2.5 2.5
      vertex 0.770938 2.5 0.202607
      vertex 0.580882 2.5 0.24509
    endloop
  endfacet
  facet normal 0 1 0
    outer loop
      vertex 5 2.5 2.5
      vertex 0.957952 2.5 0.148274
      vertex 0.770938 2.5 0.202607
    endloop
  endfacet
  facet normal 0 1 0
    outer loop
      vertex 5 2.5 2.5
      vertex 1.14119 2.5 0.0823069
      vertex 0.957952 2.5 0.148274
    endloop
  endfacet
  facet normal 0 1 0
    outer loop
      vertex 5 2.5 2.5
      vertex 1.31992 2.5 0.00496292
      vertex 1.14119 2.5 0.0823069
    endloop
  endfacet
  facet normal 0 1 0
    outer loop
      vertex 5 2.5 2.5
      vertex 1.49344 2.5 -0.0834484
      vertex 1.31992 2.5 0.00496292
    endloop
  endfacet
  facet normal 0 1 0
    outer loop
      vertex 5 2.5 2.5
      vertex 1.66106 2.5 -0.182583
      vertex 1.49344 2.5 -0.0834484
    endloop
  endfacet
  facet normal 0 1 0
    outer loop
      vertex 5 2.5 2.5
      vertex 1.82213 2.5 -0.292047
      vertex 1.66106 2.5 -0.182583
    endloop
  endfacet
  facet normal 0 1 0
    outer loop
      vertex 5 2.5 2.5
      vertex 1.97601 2.5 -0.411408
      vertex 1.82213 2.5 -0.292047
    endloop
  endfacet
  facet normal 0 1 0
    outer loop
      vertex 5 2.5 2.5
      vertex 2.1221 2.5 -0.540196
      vertex 1.97601 2.5 -0.411408
    endloop
  endfacet
  facet normal 0 1 0
    outer loop
      vertex 5 2.5 2.5
      vertex 2.2598 2.5 -0.677903
      vertex 2.1221 2.5 -0.540196
    endloop
  endfacet
  facet normal 0 1 0
    outer loop
      vertex 5 2.5 2.5
      vertex 2.38859 2.5 -0.823985
      vertex 2.2598 2.5 -0.677903
    endloop
  endfacet
  facet normal 0 1 0
    outer loop
      vertex 5 2.5 2.5
      vertex 2.50795 2.5 -0.977865
      vertex 2.38859 2.5 -0.823985
    endloop
  endfacet
  facet normal 0 1 0
    outer loop
      vertex 5 2.5 2.5
      vertex 2.61742 2.5 -1.13894
      vertex 2.50795 2.5 -0.977865
    endloop
  endfacet
  facet normal 0 1 0
    outer loop
      vertex 5 2.5 2.5
      vertex 2.71655 2.5 -1.30656
      vertex 2.61742 2.5 -1.13894
    endloop
  endfacet
  facet normal 0 1 -0
    outer loop
      vertex 5 2.5 -2.5
      vertex 2.71655 2.5 -1.30656
      vertex 5 2.5 2.5
    endloop
  endfacet
  facet normal 0 1 0
    outer loop
      vertex 2.71655 2.5 -1.30656
      vertex 5 2.5 -2.5
      vertex 2.80496 2.5 -1.48008
    endloop
  endfacet
  facet normal 0 1 0
    outer loop
      vertex 2.80496 2.5 -1.48008
      vertex 5 2.5 -2.5
      vertex 2.88231 2.5 -1.65881
    endloop
  endfacet
  facet normal 0 1 0
    outer loop
      vertex 2.88231 2.5 -1.65881
      vertex 5 2.5 -2.5
      vertex 2.94827 2.5 -1.84205
    endloop
  endfacet
  facet normal 0 1 0
    outer loop
      vertex 2.94827 2.5 -1.84205
      vertex 5 2.5 -2.5
      vertex 3.00261 2.5 -2.02906
    endloop
  endfacet
  facet normal 0 1 0
    outer loop
      vertex 3.00261 2.5 -2.02906
      vertex 5 2.5 -2.5
      vertex 3.04509 2.5 -2.21912
    endloop
  endfacet
  facet normal 0 1 0
    outer loop
      vertex 3.04509 2.5 -2.21912
      vertex 5 2.5 -2.5
      vertex 3.07555 2.5 -2.41147
    endloop
  endfacet
  facet normal 0 1 0
    outer loop
      vertex 3.07555 2.5 -2.41147
      vertex 5 2.5 -2.5
      vertex 3.08392 2.5 -2.5
    endloop
  endfacet
  facet normal 0 1 -0
    outer loop
      vertex -0.19465 2.5 0.293882
      vertex -5 2.5 2.5
      vertex 0 2.5 0.299999
    endloop
  endfacet
  facet normal 0 1 -0
    outer loop
      vertex -0.388533 2.5 0.275555
      vertex -5 2.5 2.5
      vertex -0.19465 2.5 0.293882
    endloop
  endfacet
  facet normal 0 1 -0
    outer loop
      vertex -0.580882 2.5 0.24509
      vertex -5 2.5 2.5
      vertex -0.388533 2.5 0.275555
    endloop
  endfacet
  facet normal 0 1 -0
    outer loop
      vertex -0.770938 2.5 0.202607
      vertex -5 2.5 2.5
      vertex -0.580882 2.5 0.24509
    endloop
  endfacet
  facet normal 0 1 -0
    outer loop
      vertex -0.957952 2.5 0.148274
      vertex -5 2.5 2.5
      vertex -0.770938 2.5 0.202607
    endloop
  endfacet
  facet normal 0 1 -0
    outer loop
      vertex -1.14119 2.5 0.0823069
      vertex -5 2.5 2.5
      vertex -0.957952 2.5 0.148274
    endloop
  endfacet
  facet normal 0 1 -0
    outer loop
      vertex -1.31992 2.5 0.00496292
      vertex -5 2.5 2.5
      vertex -1.14119 2.5 0.0823069
    endloop
  endfacet
  facet normal 0 1 -0
    outer loop
      vertex -1.49344 2.5 -0.0834484
      vertex -5 2.5 2.5
      vertex -1.31992 2.5 0.00496292
    endloop
  endfacet
  facet normal 0 1 -0
    outer loop
      vertex -1.66106 2.5 -0.182583
      vertex -5 2.5 2.5
      vertex -1.49344 2.5 -0.0834484
    endloop
  endfacet
  facet normal 0 1 -0
    outer loop
      vertex -1.82213 2.5 -0.292047
      vertex -5 2.5 2.5
      vertex -1.66106 2.5 -0.182583
    endloop
  endfacet
  facet normal 0 1 -0
    outer loop
      vertex -1.97601 2.5 -0.411408
      vertex -5 2.5 2.5
      vertex -1.82213 2.5 -0.292047
    endloop
  endfacet
  facet normal 0 1 -0
    outer loop
      vertex -2.1221 2.5 -0.540196
      vertex -5 2.5 2.5
      vertex -1.97601 2.5 -0.411408
    endloop
  endfacet
  facet normal 0 1 -0
    outer loop
      vertex -2.2598 2.5 -0.677903
      vertex -5 2.5 2.5
      vertex -2.1221 2.5 -0.540196
    endloop
  endfacet
  facet normal 0 1 -0
    outer loop
      vertex -2.38859 2.5 -0.823985
      vertex -5 2.5 2.5
      vertex -2.2598 2.5 -0.677903
    endloop
  endfacet
  facet normal 0 1 -0
    outer loop
      vertex -2.50795 2.5 -0.977865
      vertex -5 2.5 2.5
      vertex -2.38859 2.5 -0.823985
    endloop
  endfacet
  facet normal 0 1 -0
    outer loop
      vertex -2.61742 2.5 -1.13894
      vertex -5 2.5 2.5
      vertex -2.50795 2.5 -0.977865
    endloop
  endfacet
  facet normal 0 1 -0
    outer loop
      vertex -2.71655 2.5 -1.30656
      vertex -5 2.5 2.5
      vertex -2.61742 2.5 -1.13894
    endloop
  endfacet
  facet normal 0 1 0
    outer loop
      vertex -5 2.5 -2.5
      vertex -2.71655 2.5 -1.30656
      vertex -2.80496 2.5 -1.48008
    endloop
  endfacet
  facet normal 0 1 0
    outer loop
      vertex -5 2.5 -2.5
      vertex -2.80496 2.5 -1.48008
      vertex -2.88231 2.5 -1.65881
    endloop
  endfacet
  facet normal 0 1 0
    outer loop
      vertex -5 2.5 -2.5
      vertex -2.88231 2.5 -1.65881
      vertex -2.94827 2.5 -1.84205
    endloop
  endfacet
  facet normal 0 1 0
    outer loop
      vertex -5 2.5 -2.5
      vertex -2.94827 2.5 -1.84205
      vertex -3.00261 2.5 -2.02906
    endloop
  endfacet
  facet normal 0 1 0
    outer loop
      vertex -5 2.5 -2.5
      vertex -3.00261 2.5 -2.02906
      vertex -3.04509 2.5 -2.21912
    endloop
  endfacet
  facet normal 0 1 0
    outer loop
      vertex -5 2.5 -2.5
      vertex -3.04509 2.5 -2.21912
      vertex -3.07555 2.5 -2.41147
    endloop
  endfacet
  facet normal 0 1 0
    outer loop
      vertex -5 2.5 -2.5
      vertex -3.07555 2.5 -2.41147
      vertex -3.08392 2.5 -2.5
    endloop
  endfacet
  facet normal 0 1 0
    outer loop
      vertex -2.71655 2.5 -1.30656
      vertex -5 2.5 -2.5
      vertex -5 2.5 2.5
    endloop
  endfacet
  facet normal 0 0 -1
    outer loop
      vertex -5 -2.5 -2.5
      vertex -3.08392 2.5 -2.5
      vertex -3.08392 -2.5 -2.5
    endloop
  endfacet
  facet normal -0 0 -1
    outer loop
      vertex -3.08392 2.5 -2.5
      vertex -5 -2.5 -2.5
      vertex -5 2.5 -2.5
    endloop
  endfacet
  facet normal 0 0 -1
    outer loop
      vertex 3.08392 -2.5 -2.5
      vertex 5 2.5 -2.5
      vertex 5 -2.5 -2.5
    endloop
  endfacet
  facet normal -0 0 -1
    outer loop
      vertex 5 2.5 -2.5
      vertex 3.08392 -2.5 -2.5
      vertex 3.08392 2.5 -2.5
    endloop
  endfacet
  facet normal 0 -1 0
    outer loop
      vertex -5 -2.5 2.5
      vertex 0 -2.5 0.299999
      vertex 5 -2.5 2.5
    endloop
  endfacet
  facet normal 0 -1 0
    outer loop
      vertex -5 -2.5 2.5
      vertex -0.19465 -2.5 0.293882
      vertex 0 -2.5 0.299999
    endloop
  endfacet
  facet normal 0 -1 0
    outer loop
      vertex -5 -2.5 2.5
      vertex -0.388533 -2.5 0.275555
      vertex -0.19465 -2.5 0.293882
    endloop
  endfacet
  facet normal 0 -1 0
    outer loop
      vertex -5 -2.5 2.5
      vertex -0.580882 -2.5 0.24509
      vertex -0.388533 -2.5 0.275555
    endloop
  endfacet
  facet normal 0 -1 0
    outer loop
      vertex -5 -2.5 2.5
      vertex -0.770938 -2.5 0.202607
      vertex -0.580882 -2.5 0.24509
    endloop
  endfacet
  facet normal 0 -1 0
    outer loop
      vertex -5 -2.5 2.5
      vertex -0.957952 -2.5 0.148274
      vertex -0.770938 -2.5 0.202607
    endloop
  endfacet
  facet normal 0 -1 0
    outer loop
      vertex -5 -2.5 2.5
      vertex -1.14119 -2.5 0.0823069
      vertex -0.957952 -2.5 0.148274
    endloop
  endfacet
  facet normal 0 -1 0
    outer loop
      vertex -5 -2.5 2.5
      vertex -1.31992 -2.5 0.00496292
      vertex -1.14119 -2.5 0.0823069
    endloop
  endfacet
  facet normal 0 -1 0
    outer loop
      vertex -5 -2.5 2.5
      vertex -1.49344 -2.5 -0.0834484
      vertex -1.31992 -2.5 0.00496292
    endloop
  endfacet
  facet normal 0 -1 0
    outer loop
      vertex -5 -2.5 2.5
      vertex -1.66106 -2.5 -0.182583
      vertex -1.49344 -2.5 -0.0834484
    endloop
  endfacet
  facet normal 0 -1 0
    outer loop
      vertex -5 -2.5 2.5
      vertex -1.82213 -2.5 -0.292047
      vertex -1.66106 -2.5 -0.182583
    endloop
  endfacet
  facet normal 0 -1 0
    outer loop
      vertex -5 -2.5 2.5
      vertex -1.97601 -2.5 -0.411408
      vertex -1.82213 -2.5 -0.292047
    endloop
  endfacet
  facet normal 0 -1 0
    outer loop
      vertex -5 -2.5 2.5
      vertex -2.1221 -2.5 -0.540196
      vertex -1.97601 -2.5 -0.411408
    endloop
  endfacet
  facet normal 0 -1 0
    outer loop
      vertex -5 -2.5 2.5
      vertex -2.2598 -2.5 -0.677903
      vertex -2.1221 -2.5 -0.540196
    endloop
  endfacet
  facet normal 0 -1 0
    outer loop
      vertex -5 -2.5 2.5
      vertex -2.38859 -2.5 -0.823985
      vertex -2.2598 -2.5 -0.677903
    endloop
  endfacet
  facet normal 0 -1 0
    outer loop
      vertex -5 -2.5 2.5
      vertex -2.50795 -2.5 -0.977865
      vertex -2.38859 -2.5 -0.823985
    endloop
  endfacet
  facet normal 0 -1 0
    outer loop
      vertex -5 -2.5 2.5
      vertex -2.61742 -2.5 -1.13894
      vertex -2.50795 -2.5 -0.977865
    endloop
  endfacet
  facet normal 0 -1 0
    outer loop
      vertex -5 -2.5 2.5
      vertex -2.71655 -2.5 -1.30656
      vertex -2.61742 -2.5 -1.13894
    endloop
  endfacet
  facet normal 0 -1 0
    outer loop
      vertex -5 -2.5 -2.5
      vertex -2.71655 -2.5 -1.30656
      vertex -5 -2.5 2.5
    endloop
  endfacet
  facet normal 0 -1 0
    outer loop
      vertex -2.71655 -2.5 -1.30656
      vertex -5 -2.5 -2.5
      vertex -2.80496 -2.5 -1.48008
    endloop
  endfacet
  facet normal 0 -1 0
    outer loop
      vertex -2.80496 -2.5 -1.48008
      vertex -5 -2.5 -2.5
      vertex -2.88231 -2.5 -1.65881
    endloop
  endfacet
  facet normal 0 -1 0
    outer loop
      vertex -2.88231 -2.5 -1.65881
      vertex -5 -2.5 -2.5
      vertex -2.94827 -2.5 -1.84205
    endloop
  endfacet
  facet normal 0 -1 0
    outer loop
      vertex -2.94827 -2.5 -1.84205
      vertex -5 -2.5 -2.5
      vertex -3.00261 -2.5 -2.02906
    endloop
  endfacet
  facet normal 0 -1 0
    outer loop
      vertex -3.00261 -2.5 -2.02906
      vertex -5 -2.5 -2.5
      vertex -3.04509 -2.5 -2.21912
    endloop
  endfacet
  facet normal 0 -1 0
    outer loop
      vertex -3.04509 -2.5 -2.21912
      vertex -5 -2.5 -2.5
      vertex -3.07555 -2.5 -2.41147
    endloop
  endfacet
  facet normal 0 -1 0
    outer loop
      vertex -3.07555 -2.5 -2.41147
      vertex -5 -2.5 -2.5
      vertex -3.08392 -2.5 -2.5
    endloop
  endfacet
  facet normal 0 -1 0
    outer loop
      vertex 0.19465 -2.5 0.293882
      vertex 5 -2.5 2.5
      vertex 0 -2.5 0.299999
    endloop
  endfacet
  facet normal 0 -1 0
    outer loop
      vertex 0.388533 -2.5 0.275555
      vertex 5 -2.5 2.5
      vertex 0.19465 -2.5 0.293882
    endloop
  endfacet
  facet normal 0 -1 0
    outer loop
      vertex 0.580882 -2.5 0.24509
      vertex 5 -2.5 2.5
      vertex 0.388533 -2.5 0.275555
    endloop
  endfacet
  facet normal 0 -1 0
    outer loop
      vertex 0.770938 -2.5 0.202607
      vertex 5 -2.5 2.5
      vertex 0.580882 -2.5 0.24509
    endloop
  endfacet
  facet normal 0 -1 0
    outer loop
      vertex 0.957952 -2.5 0.148274
      vertex 5 -2.5 2.5
      vertex 0.770938 -2.5 0.202607
    endloop
  endfacet
  facet normal 0 -1 0
    outer loop
      vertex 1.14119 -2.5 0.0823069
      vertex 5 -2.5 2.5
      vertex 0.957952 -2.5 0.148274
    endloop
  endfacet
  facet normal 0 -1 0
    outer loop
      vertex 1.31992 -2.5 0.00496292
      vertex 5 -2.5 2.5
      vertex 1.14119 -2.5 0.0823069
    endloop
  endfacet
  facet normal 0 -1 0
    outer loop
      vertex 1.49344 -2.5 -0.0834484
      vertex 5 -2.5 2.5
      vertex 1.31992 -2.5 0.00496292
    endloop
  endfacet
  facet normal 0 -1 0
    outer loop
      vertex 1.66106 -2.5 -0.182583
      vertex 5 -2.5 2.5
      vertex 1.49344 -2.5 -0.0834484
    endloop
  endfacet
  facet normal 0 -1 0
    outer loop
      vertex 1.82213 -2.5 -0.292047
      vertex 5 -2.5 2.5
      vertex 1.66106 -2.5 -0.182583
    endloop
  endfacet
  facet normal 0 -1 0
    outer loop
      vertex 1.97601 -2.5 -0.411408
      vertex 5 -2.5 2.5
      vertex 1.82213 -2.5 -0.292047
    endloop
  endfacet
  facet normal 0 -1 0
    outer loop
      vertex 2.1221 -2.5 -0.540196
      vertex 5 -2.5 2.5
      vertex 1.97601 -2.5 -0.411408
    endloop
  endfacet
  facet normal 0 -1 0
    outer loop
      vertex 2.2598 -2.5 -0.677903
      vertex 5 -2.5 2.5
      vertex 2.1221 -2.5 -0.540196
    endloop
  endfacet
  facet normal 0 -1 0
    outer loop
      vertex 2.38859 -2.5 -0.823985
      vertex 5 -2.5 2.5
      vertex 2.2598 -2.5 -0.677903
    endloop
  endfacet
  facet normal 0 -1 0
    outer loop
      vertex 2.50795 -2.5 -0.977865
      vertex 5 -2.5 2.5
      vertex 2.38859 -2.5 -0.823985
    endloop
  endfacet
  facet normal 0 -1 0
    outer loop
      vertex 2.61742 -2.5 -1.13894
      vertex 5 -2.5 2.5
      vertex 2.50795 -2.5 -0.977865
    endloop
  endfacet
  facet normal 0 -1 0
    outer loop
      vertex 2.71655 -2.5 -1.30656
      vertex 5 -2.5 2.5
      vertex 2.61742 -2.5 -1.13894
    endloop
  endfacet
  facet normal 0 -1 0
    outer loop
      vertex 5 -2.5 -2.5
      vertex 2.71655 -2.5 -1.30656
      vertex 2.80496 -2.5 -1.48008
    endloop
  endfacet
  facet normal 0 -1 0
    outer loop
      vertex 5 -2.5 -2.5
      vertex 2.80496 -2.5 -1.48008
      vertex 2.88231 -2.5 -1.65881
    endloop
  endfacet
  facet normal 0 -1 0
    outer loop
      vertex 5 -2.5 -2.5
      vertex 2.88231 -2.5 -1.65881
      vertex 2.94827 -2.5 -1.84205
    endloop
  endfacet
  facet normal 0 -1 0
    outer loop
      vertex 5 -2.5 -2.5
      vertex 2.94827 -2.5 -1.84205
      vertex 3.00261 -2.5 -2.02906
    endloop
  endfacet
  facet normal 0 -1 0
    outer loop
      vertex 5 -2.5 -2.5
      vertex 3.00261 -2.5 -2.02906
      vertex 3.04509 -2.5 -2.21912
    endloop
  endfacet
  facet normal 0 -1 0
    outer loop
      vertex 5 -2.5 -2.5
      vertex 3.04509 -2.5 -2.21912
      vertex 3.07555 -2.5 -2.41147
    endloop
  endfacet
  facet normal 0 -1 0
    outer loop
      vertex 5 -2.5 -2.5
      vertex 3.07555 -2.5 -2.41147
      vertex 3.08392 -2.5 -2.5
    endloop
  endfacet
  facet normal 0 -1 0
    outer loop
      vertex 2.71655 -2.5 -1.30656
      vertex 5 -2.5 -2.5
      vertex 5 -2.5 2.5
    endloop
  endfacet
  facet normal -0.975917 0 -0.218143
    outer loop
      vertex 3.04509 -2.5 -2.21912
      vertex 3.00261 2.5 -2.02906
      vertex 3.04509 2.5 -2.21912
    endloop
  endfacet
  facet normal -0.975917 -0 -0.218143
    outer loop
      vertex 3.00261 2.5 -2.02906
      vertex 3.04509 -2.5 -2.21912
      vertex 3.00261 -2.5 -2.02906
    endloop
  endfacet
  facet normal -0.995562 0 -0.0941094
    outer loop
      vertex 3.08392 -2.5 -2.5
      vertex 3.07555 2.5 -2.41147
      vertex 3.08392 2.5 -2.5
    endloop
  endfacet
  facet normal -0.995562 -0 -0.0941094
    outer loop
      vertex 3.07555 2.5 -2.41147
      vertex 3.08392 -2.5 -2.5
      vertex 3.07555 -2.5 -2.41147
    endloop
  endfacet
  facet normal 0.0314095 0 -0.999507
    outer loop
      vertex -0.19465 -2.5 0.293882
      vertex 0 2.5 0.299999
      vertex 0 -2.5 0.299999
    endloop
  endfacet
  facet normal 0.0314095 0 -0.999507
    outer loop
      vertex 0 2.5 0.299999
      vertex -0.19465 -2.5 0.293882
      vertex -0.19465 2.5 0.293882
    endloop
  endfacet
  facet normal 0.975917 0 -0.218143
    outer loop
      vertex -3.00261 -2.5 -2.02906
      vertex -3.04509 2.5 -2.21912
      vertex -3.00261 2.5 -2.02906
    endloop
  endfacet
  facet normal 0.975917 0 -0.218143
    outer loop
      vertex -3.04509 2.5 -2.21912
      vertex -3.00261 -2.5 -2.02906
      vertex -3.04509 -2.5 -2.21912
    endloop
  endfacet
  facet normal -0.612908 0 -0.790154
    outer loop
      vertex 1.82213 -2.5 -0.292047
      vertex 1.97601 2.5 -0.411408
      vertex 1.97601 -2.5 -0.411408
    endloop
  endfacet
  facet normal -0.612908 0 -0.790154
    outer loop
      vertex 1.97601 2.5 -0.411408
      vertex 1.82213 -2.5 -0.292047
      vertex 1.82213 2.5 -0.292047
    endloop
  endfacet
  facet normal 0.987688 0 -0.156434
    outer loop
      vertex -3.04509 -2.5 -2.21912
      vertex -3.07555 2.5 -2.41147
      vertex -3.04509 2.5 -2.21912
    endloop
  endfacet
  facet normal 0.987688 0 -0.156434
    outer loop
      vertex -3.07555 2.5 -2.41147
      vertex -3.04509 -2.5 -2.21912
      vertex -3.07555 -2.5 -2.41147
    endloop
  endfacet
  facet normal 0.940882 0 -0.338736
    outer loop
      vertex -2.88231 -2.5 -1.65881
      vertex -2.94827 2.5 -1.84205
      vertex -2.88231 2.5 -1.65881
    endloop
  endfacet
  facet normal 0.940882 0 -0.338736
    outer loop
      vertex -2.94827 2.5 -1.84205
      vertex -2.88231 -2.5 -1.65881
      vertex -2.94827 -2.5 -1.84205
    endloop
  endfacet
  facet normal 0.0941102 0 -0.995562
    outer loop
      vertex -0.388533 -2.5 0.275555
      vertex -0.19465 2.5 0.293882
      vertex -0.19465 -2.5 0.293882
    endloop
  endfacet
  facet normal 0.0941102 0 -0.995562
    outer loop
      vertex -0.19465 2.5 0.293882
      vertex -0.388533 -2.5 0.275555
      vertex -0.388533 2.5 0.275555
    endloop
  endfacet
  facet normal -0.987688 0 -0.156434
    outer loop
      vertex 3.07555 -2.5 -2.41147
      vertex 3.04509 2.5 -2.21912
      vertex 3.07555 2.5 -2.41147
    endloop
  endfacet
  facet normal -0.987688 -0 -0.156434
    outer loop
      vertex 3.04509 2.5 -2.21912
      vertex 3.07555 -2.5 -2.41147
      vertex 3.04509 -2.5 -2.21912
    endloop
  endfacet
  facet normal -0.278991 0 -0.960294
    outer loop
      vertex 0.770938 -2.5 0.202607
      vertex 0.957952 2.5 0.148274
      vertex 0.957952 -2.5 0.148274
    endloop
  endfacet
  facet normal -0.278991 0 -0.960294
    outer loop
      vertex 0.957952 2.5 0.148274
      vertex 0.770938 -2.5 0.202607
      vertex 0.770938 2.5 0.202607
    endloop
  endfacet
  facet normal 0.960294 0 -0.278991
    outer loop
      vertex -2.94827 -2.5 -1.84205
      vertex -3.00261 2.5 -2.02906
      vertex -2.94827 2.5 -1.84205
    endloop
  endfacet
  facet normal 0.960294 0 -0.278991
    outer loop
      vertex -3.00261 2.5 -2.02906
      vertex -2.94827 -2.5 -1.84205
      vertex -3.00261 -2.5 -2.02906
    endloop
  endfacet
  facet normal 0.156434 0 -0.987688
    outer loop
      vertex -0.580882 -2.5 0.24509
      vertex -0.388533 2.5 0.275555
      vertex -0.388533 -2.5 0.275555
    endloop
  endfacet
  facet normal 0.156434 0 -0.987688
    outer loop
      vertex -0.388533 2.5 0.275555
      vertex -0.580882 -2.5 0.24509
      vertex -0.580882 2.5 0.24509
    endloop
  endfacet
  facet normal -0.0314095 0 -0.999507
    outer loop
      vertex 0 -2.5 0.299999
      vertex 0.19465 2.5 0.293882
      vertex 0.19465 -2.5 0.293882
    endloop
  endfacet
  facet normal -0.0314095 0 -0.999507
    outer loop
      vertex 0.19465 2.5 0.293882
      vertex 0 -2.5 0.299999
      vertex 0 2.5 0.299999
    endloop
  endfacet
  facet normal 0.995562 0 -0.0941094
    outer loop
      vertex -3.07555 -2.5 -2.41147
      vertex -3.08392 2.5 -2.5
      vertex -3.07555 2.5 -2.41147
    endloop
  endfacet
  facet normal 0.995562 0 -0.0941094
    outer loop
      vertex -3.08392 2.5 -2.5
      vertex -3.07555 -2.5 -2.41147
      vertex -3.08392 -2.5 -2.5
    endloop
  endfacet
  facet normal 0.661313 0 -0.75011
    outer loop
      vertex -2.1221 -2.5 -0.540196
      vertex -1.97601 2.5 -0.411408
      vertex -1.97601 -2.5 -0.411408
    endloop
  endfacet
  facet normal 0.661313 0 -0.75011
    outer loop
      vertex -1.97601 2.5 -0.411408
      vertex -2.1221 -2.5 -0.540196
      vertex -2.1221 2.5 -0.540196
    endloop
  endfacet
  facet normal -0.453984 0 -0.89101
    outer loop
      vertex 1.31992 -2.5 0.00496292
      vertex 1.49344 2.5 -0.0834484
      vertex 1.49344 -2.5 -0.0834484
    endloop
  endfacet
  facet normal -0.453984 0 -0.89101
    outer loop
      vertex 1.49344 2.5 -0.0834484
      vertex 1.31992 -2.5 0.00496292
      vertex 1.31992 2.5 0.00496292
    endloop
  endfacet
  facet normal -0.917754 0 -0.39715
    outer loop
      vertex 2.88231 -2.5 -1.65881
      vertex 2.80496 2.5 -1.48008
      vertex 2.88231 2.5 -1.65881
    endloop
  endfacet
  facet normal -0.917754 -0 -0.39715
    outer loop
      vertex 2.80496 2.5 -1.48008
      vertex 2.88231 -2.5 -1.65881
      vertex 2.80496 -2.5 -1.48008
    endloop
  endfacet
  facet normal 0.891006 0 -0.453992
    outer loop
      vertex -2.71655 -2.5 -1.30656
      vertex -2.80496 2.5 -1.48008
      vertex -2.71655 2.5 -1.30656
    endloop
  endfacet
  facet normal 0.891006 0 -0.453992
    outer loop
      vertex -2.80496 2.5 -1.48008
      vertex -2.71655 -2.5 -1.30656
      vertex -2.80496 -2.5 -1.48008
    endloop
  endfacet
  facet normal 0.218143 0 -0.975917
    outer loop
      vertex -0.770938 -2.5 0.202607
      vertex -0.580882 2.5 0.24509
      vertex -0.580882 -2.5 0.24509
    endloop
  endfacet
  facet normal 0.218143 0 -0.975917
    outer loop
      vertex -0.580882 2.5 0.24509
      vertex -0.770938 -2.5 0.202607
      vertex -0.770938 2.5 0.202607
    endloop
  endfacet
  facet normal -0.156434 0 -0.987688
    outer loop
      vertex 0.388533 -2.5 0.275555
      vertex 0.580882 2.5 0.24509
      vertex 0.580882 -2.5 0.24509
    endloop
  endfacet
  facet normal -0.156434 0 -0.987688
    outer loop
      vertex 0.580882 2.5 0.24509
      vertex 0.388533 -2.5 0.275555
      vertex 0.388533 2.5 0.275555
    endloop
  endfacet
  facet normal -0.39715 0 -0.917754
    outer loop
      vertex 1.14119 -2.5 0.0823069
      vertex 1.31992 2.5 0.00496292
      vertex 1.31992 -2.5 0.00496292
    endloop
  endfacet
  facet normal -0.39715 0 -0.917754
    outer loop
      vertex 1.31992 2.5 0.00496292
      vertex 1.14119 -2.5 0.0823069
      vertex 1.14119 2.5 0.0823069
    endloop
  endfacet
  facet normal -0.509043 0 -0.860741
    outer loop
      vertex 1.49344 -2.5 -0.0834484
      vertex 1.66106 2.5 -0.182583
      vertex 1.66106 -2.5 -0.182583
    endloop
  endfacet
  facet normal -0.509043 0 -0.860741
    outer loop
      vertex 1.66106 2.5 -0.182583
      vertex 1.49344 -2.5 -0.0834484
      vertex 1.49344 2.5 -0.0834484
    endloop
  endfacet
  facet normal -0.960294 0 -0.278991
    outer loop
      vertex 3.00261 -2.5 -2.02906
      vertex 2.94827 2.5 -1.84205
      vertex 3.00261 2.5 -2.02906
    endloop
  endfacet
  facet normal -0.960294 -0 -0.278991
    outer loop
      vertex 2.94827 2.5 -1.84205
      vertex 3.00261 -2.5 -2.02906
      vertex 2.94827 -2.5 -1.84205
    endloop
  endfacet
  facet normal -0.790157 0 -0.612905
    outer loop
      vertex 2.50795 -2.5 -0.977865
      vertex 2.38859 2.5 -0.823985
      vertex 2.50795 2.5 -0.977865
    endloop
  endfacet
  facet normal -0.790157 -0 -0.612905
    outer loop
      vertex 2.38859 2.5 -0.823985
      vertex 2.50795 -2.5 -0.977865
      vertex 2.38859 -2.5 -0.823985
    endloop
  endfacet
  facet normal -0.940882 0 -0.338736
    outer loop
      vertex 2.94827 -2.5 -1.84205
      vertex 2.88231 2.5 -1.65881
      vertex 2.94827 2.5 -1.84205
    endloop
  endfacet
  facet normal -0.940882 -0 -0.338736
    outer loop
      vertex 2.88231 2.5 -1.65881
      vertex 2.94827 -2.5 -1.84205
      vertex 2.88231 -2.5 -1.65881
    endloop
  endfacet
  facet normal -0.0941102 0 -0.995562
    outer loop
      vertex 0.19465 -2.5 0.293882
      vertex 0.388533 2.5 0.275555
      vertex 0.388533 -2.5 0.275555
    endloop
  endfacet
  facet normal -0.0941102 0 -0.995562
    outer loop
      vertex 0.388533 2.5 0.275555
      vertex 0.19465 -2.5 0.293882
      vertex 0.19465 2.5 0.293882
    endloop
  endfacet
  facet normal 0.562081 0 -0.827082
    outer loop
      vertex -1.82213 -2.5 -0.292047
      vertex -1.66106 2.5 -0.182583
      vertex -1.66106 -2.5 -0.182583
    endloop
  endfacet
  facet normal 0.562081 0 -0.827082
    outer loop
      vertex -1.66106 2.5 -0.182583
      vertex -1.82213 -2.5 -0.292047
      vertex -1.82213 2.5 -0.292047
    endloop
  endfacet
  facet normal 0.509043 0 -0.860741
    outer loop
      vertex -1.66106 -2.5 -0.182583
      vertex -1.49344 2.5 -0.0834484
      vertex -1.49344 -2.5 -0.0834484
    endloop
  endfacet
  facet normal 0.509043 0 -0.860741
    outer loop
      vertex -1.49344 2.5 -0.0834484
      vertex -1.66106 -2.5 -0.182583
      vertex -1.66106 2.5 -0.182583
    endloop
  endfacet
  facet normal 0.75011 0 -0.661313
    outer loop
      vertex -2.2598 -2.5 -0.677903
      vertex -2.38859 2.5 -0.823985
      vertex -2.2598 2.5 -0.677903
    endloop
  endfacet
  facet normal 0.75011 0 -0.661313
    outer loop
      vertex -2.38859 2.5 -0.823985
      vertex -2.2598 -2.5 -0.677903
      vertex -2.38859 -2.5 -0.823985
    endloop
  endfacet
  facet normal 0.827078 0 -0.562087
    outer loop
      vertex -2.50795 -2.5 -0.977865
      vertex -2.61742 2.5 -1.13894
      vertex -2.50795 2.5 -0.977865
    endloop
  endfacet
  facet normal 0.827078 0 -0.562087
    outer loop
      vertex -2.61742 2.5 -1.13894
      vertex -2.50795 -2.5 -0.977865
      vertex -2.61742 -2.5 -1.13894
    endloop
  endfacet
  facet normal 0.707107 0 -0.707107
    outer loop
      vertex -2.1221 -2.5 -0.540196
      vertex -2.2598 2.5 -0.677903
      vertex -2.1221 2.5 -0.540196
    endloop
  endfacet
  facet normal 0.707107 0 -0.707107
    outer loop
      vertex -2.2598 2.5 -0.677903
      vertex -2.1221 -2.5 -0.540196
      vertex -2.2598 -2.5 -0.677903
    endloop
  endfacet
  facet normal 0.917754 0 -0.39715
    outer loop
      vertex -2.80496 -2.5 -1.48008
      vertex -2.88231 2.5 -1.65881
      vertex -2.80496 2.5 -1.48008
    endloop
  endfacet
  facet normal 0.917754 0 -0.39715
    outer loop
      vertex -2.88231 2.5 -1.65881
      vertex -2.80496 -2.5 -1.48008
      vertex -2.88231 -2.5 -1.65881
    endloop
  endfacet
  facet normal 0.860744 0 -0.509037
    outer loop
      vertex -2.61742 -2.5 -1.13894
      vertex -2.71655 2.5 -1.30656
      vertex -2.61742 2.5 -1.13894
    endloop
  endfacet
  facet normal 0.860744 0 -0.509037
    outer loop
      vertex -2.71655 2.5 -1.30656
      vertex -2.61742 -2.5 -1.13894
      vertex -2.71655 -2.5 -1.30656
    endloop
  endfacet
  facet normal 0.278991 0 -0.960294
    outer loop
      vertex -0.957952 -2.5 0.148274
      vertex -0.770938 2.5 0.202607
      vertex -0.770938 -2.5 0.202607
    endloop
  endfacet
  facet normal 0.278991 0 -0.960294
    outer loop
      vertex -0.770938 2.5 0.202607
      vertex -0.957952 -2.5 0.148274
      vertex -0.957952 2.5 0.148274
    endloop
  endfacet
  facet normal -0.218143 0 -0.975917
    outer loop
      vertex 0.580882 -2.5 0.24509
      vertex 0.770938 2.5 0.202607
      vertex 0.770938 -2.5 0.202607
    endloop
  endfacet
  facet normal -0.218143 0 -0.975917
    outer loop
      vertex 0.770938 2.5 0.202607
      vertex 0.580882 -2.5 0.24509
      vertex 0.580882 2.5 0.24509
    endloop
  endfacet
  facet normal -0.338736 0 -0.940882
    outer loop
      vertex 0.957952 -2.5 0.148274
      vertex 1.14119 2.5 0.0823069
      vertex 1.14119 -2.5 0.0823069
    endloop
  endfacet
  facet normal -0.338736 0 -0.940882
    outer loop
      vertex 1.14119 2.5 0.0823069
      vertex 0.957952 -2.5 0.148274
      vertex 0.957952 2.5 0.148274
    endloop
  endfacet
  facet normal -0.562081 0 -0.827082
    outer loop
      vertex 1.66106 -2.5 -0.182583
      vertex 1.82213 2.5 -0.292047
      vertex 1.82213 -2.5 -0.292047
    endloop
  endfacet
  facet normal -0.562081 0 -0.827082
    outer loop
      vertex 1.82213 2.5 -0.292047
      vertex 1.66106 -2.5 -0.182583
      vertex 1.66106 2.5 -0.182583
    endloop
  endfacet
  facet normal -0.860744 0 -0.509037
    outer loop
      vertex 2.71655 -2.5 -1.30656
      vertex 2.61742 2.5 -1.13894
      vertex 2.71655 2.5 -1.30656
    endloop
  endfacet
  facet normal -0.860744 -0 -0.509037
    outer loop
      vertex 2.61742 2.5 -1.13894
      vertex 2.71655 -2.5 -1.30656
      vertex 2.61742 -2.5 -1.13894
    endloop
  endfacet
  facet normal -0.827078 0 -0.562087
    outer loop
      vertex 2.61742 -2.5 -1.13894
      vertex 2.50795 2.5 -0.977865
      vertex 2.61742 2.5 -1.13894
    endloop
  endfacet
  facet normal -0.827078 -0 -0.562087
    outer loop
      vertex 2.50795 2.5 -0.977865
      vertex 2.61742 -2.5 -1.13894
      vertex 2.50795 -2.5 -0.977865
    endloop
  endfacet
  facet normal -0.75011 0 -0.661313
    outer loop
      vertex 2.38859 -2.5 -0.823985
      vertex 2.2598 2.5 -0.677903
      vertex 2.38859 2.5 -0.823985
    endloop
  endfacet
  facet normal -0.75011 -0 -0.661313
    outer loop
      vertex 2.2598 2.5 -0.677903
      vertex 2.38859 -2.5 -0.823985
      vertex 2.2598 -2.5 -0.677903
    endloop
  endfacet
  facet normal 0.612908 0 -0.790154
    outer loop
      vertex -1.97601 -2.5 -0.411408
      vertex -1.82213 2.5 -0.292047
      vertex -1.82213 -2.5 -0.292047
    endloop
  endfacet
  facet normal 0.612908 0 -0.790154
    outer loop
      vertex -1.82213 2.5 -0.292047
      vertex -1.97601 -2.5 -0.411408
      vertex -1.97601 2.5 -0.411408
    endloop
  endfacet
  facet normal 0.39715 0 -0.917754
    outer loop
      vertex -1.31992 -2.5 0.00496292
      vertex -1.14119 2.5 0.0823069
      vertex -1.14119 -2.5 0.0823069
    endloop
  endfacet
  facet normal 0.39715 0 -0.917754
    outer loop
      vertex -1.14119 2.5 0.0823069
      vertex -1.31992 -2.5 0.00496292
      vertex -1.31992 2.5 0.00496292
    endloop
  endfacet
  facet normal 0.453984 0 -0.89101
    outer loop
      vertex -1.49344 -2.5 -0.0834484
      vertex -1.31992 2.5 0.00496292
      vertex -1.31992 -2.5 0.00496292
    endloop
  endfacet
  facet normal 0.453984 0 -0.89101
    outer loop
      vertex -1.31992 2.5 0.00496292
      vertex -1.49344 -2.5 -0.0834484
      vertex -1.49344 2.5 -0.0834484
    endloop
  endfacet
  facet normal 0.790157 0 -0.612905
    outer loop
      vertex -2.38859 -2.5 -0.823985
      vertex -2.50795 2.5 -0.977865
      vertex -2.38859 2.5 -0.823985
    endloop
  endfacet
  facet normal 0.790157 0 -0.612905
    outer loop
      vertex -2.50795 2.5 -0.977865
      vertex -2.38859 -2.5 -0.823985
      vertex -2.50795 -2.5 -0.977865
    endloop
  endfacet
  facet normal -0.891006 0 -0.453992
    outer loop
      vertex 2.80496 -2.5 -1.48008
      vertex 2.71655 2.5 -1.30656
      vertex 2.80496 2.5 -1.48008
    endloop
  endfacet
  facet normal -0.891006 -0 -0.453992
    outer loop
      vertex 2.71655 2.5 -1.30656
      vertex 2.80496 -2.5 -1.48008
      vertex 2.71655 -2.5 -1.30656
    endloop
  endfacet
  facet normal -0.661313 0 -0.75011
    outer loop
      vertex 1.97601 -2.5 -0.411408
      vertex 2.1221 2.5 -0.540196
      vertex 2.1221 -2.5 -0.540196
    endloop
  endfacet
  facet normal -0.661313 0 -0.75011
    outer loop
      vertex 2.1221 2.5 -0.540196
      vertex 1.97601 -2.5 -0.411408
      vertex 1.97601 2.5 -0.411408
    endloop
  endfacet
  facet normal 0.338736 0 -0.940882
    outer loop
      vertex -1.14119 -2.5 0.0823069
      vertex -0.957952 2.5 0.148274
      vertex -0.957952 -2.5 0.148274
    endloop
  endfacet
  facet normal 0.338736 0 -0.940882
    outer loop
      vertex -0.957952 2.5 0.148274
      vertex -1.14119 -2.5 0.0823069
      vertex -1.14119 2.5 0.0823069
    endloop
  endfacet
  facet normal -0.707107 0 -0.707107
    outer loop
      vertex 2.2598 -2.5 -0.677903
      vertex 2.1221 2.5 -0.540196
      vertex 2.2598 2.5 -0.677903
    endloop
  endfacet
  facet normal -0.707107 -0 -0.707107
    outer loop
      vertex 2.1221 2.5 -0.540196
      vertex 2.2598 -2.5 -0.677903
      vertex 2.1221 -2.5 -0.540196
    endloop
  endfacet
endsolid OpenSCAD_Model
