solid OpenSCAD_Model
  facet normal -1 0 0
    outer loop
      vertex -5 -2.5 -2.5
      vertex -5 2.5 2.5
      vertex -5 2.5 -2.5
    endloop
  endfacet
  facet normal -1 -0 0
    outer loop
      vertex -5 2.5 2.5
      vertex -5 -2.5 -2.5
      vertex -5 -2.5 2.5
    endloop
  endfacet
  facet normal -0 0 1
    outer loop
      vertex -5 2.5 2.5
      vertex 5 -2.5 2.5
      vertex 5 2.5 2.5
    endloop
  endfacet
  facet normal 0 0 1
    outer loop
      vertex 5 -2.5 2.5
      vertex -5 2.5 2.5
      vertex -5 -2.5 2.5
    endloop
  endfacet
  facet normal 1 -0 0
    outer loop
      vertex 5 -2.5 2.5
      vertex 5 2.5 -2.5
      vertex 5 2.5 2.5
    endloop
  endfacet
  facet normal 1 0 0
    outer loop
      vertex 5 2.5 -2.5
      vertex 5 -2.5 2.5
      vertex 5 -2.5 -2.5
    endloop
  endfacet
  facet normal 0 1 0
    outer loop
      vertex 5 2.5 2.5
      vertex 0 2.5 0.4
      vertex -5 2.5 2.5
    endloop
  endfacet
  facet normal 0 1 0
    outer loop
      vertex 5 2.5 2.5
      vertex 0.213488 2.5 0.393291
      vertex 0 2.5 0.4
    endloop
  endfacet
  facet normal 0 1 0
    outer loop
      vertex 5 2.5 2.5
      vertex 0.426132 2.5 0.37319
      vertex 0.213488 2.5 0.393291
    endloop
  endfacet
  facet normal 0 1 0
    outer loop
      vertex 5 2.5 2.5
      vertex 0.637096 2.5 0.339776
      vertex 0.426132 2.5 0.37319
    endloop
  endfacet
  facet normal 0 1 0
    outer loop
      vertex 5 2.5 2.5
      vertex 0.845545 2.5 0.293182
      vertex 0.637096 2.5 0.339776
    endloop
  endfacet
  facet normal 0 1 0
    outer loop
      vertex 5 2.5 2.5
      vertex 1.05066 2.5 0.233592
      vertex 0.845545 2.5 0.293182
    endloop
  endfacet
  facet normal 0 1 0
    outer loop
      vertex 5 2.5 2.5
      vertex 1.25162 2.5 0.16124
      vertex 1.05066 2.5 0.233592
    endloop
  endfacet
  facet normal 0 1 0
    outer loop
      vertex 5 2.5 2.5
      vertex 1.44765 2.5 0.0764112
      vertex 1.25162 2.5 0.16124
    endloop
  endfacet
  facet normal 0 1 0
    outer loop
      vertex 5 2.5 2.5
      vertex 1.63796 2.5 -0.0205564
      vertex 1.44765 2.5 0.0764112
    endloop
  endfacet
  facet normal 0 1 0
    outer loop
      vertex 5 2.5 2.5
      vertex 1.82181 2.5 -0.129285
      vertex 1.63796 2.5 -0.0205564
    endloop
  endfacet
  facet normal 0 1 0
    outer loop
      vertex 5 2.5 2.5
      vertex 1.99847 2.5 -0.249342
      vertex 1.82181 2.5 -0.129285
    endloop
  endfacet
  facet normal 0 1 0
    outer loop
      vertex 5 2.5 2.5
      vertex 2.16724 2.5 -0.380255
      vertex 1.99847 2.5 -0.249342
    endloop
  endfacet
  facet normal 0 1 0
    outer loop
      vertex 5 2.5 2.5
      vertex 2.32746 2.5 -0.521506
      vertex 2.16724 2.5 -0.380255
    endloop
  endfacet
  facet normal 0 1 0
    outer loop
      vertex 5 2.5 2.5
      vertex 2.47849 2.5 -0.67254
      vertex 2.32746 2.5 -0.521506
    endloop
  endfacet
  facet normal 0 1 0
    outer loop
      vertex 5 2.5 2.5
      vertex 2.61974 2.5 -0.832758
      vertex 2.47849 2.5 -0.67254
    endloop
  endfacet
  facet normal 0 1 0
    outer loop
      vertex 5 2.5 2.5
      vertex 2.75066 2.5 -1.00153
      vertex 2.61974 2.5 -0.832758
    endloop
  endfacet
  facet normal 0 1 0
    outer loop
      vertex 5 2.5 2.5
      vertex 2.87071 2.5 -1.17819
      vertex 2.75066 2.5 -1.00153
    endloop
  endfacet
  facet normal 0 1 0
    outer loop
      vertex 5 2.5 2.5
      vertex 2.97944 2.5 -1.36204
      vertex 2.87071 2.5 -1.17819
    endloop
  endfacet
  facet normal 0 1 -0
    outer loop
      vertex 5 2.5 -2.5
      vertex 2.97944 2.5 -1.36204
      vertex 5 2.5 2.5
    endloop
  endfacet
  facet normal 0 1 0
    outer loop
      vertex 2.97944 2.5 -1.36204
      vertex 5 2.5 -2.5
      vertex 3.07641 2.5 -1.55235
    endloop
  endfacet
  facet normal 0 1 0
    outer loop
      vertex 3.07641 2.5 -1.55235
      vertex 5 2.5 -2.5
      vertex 3.16124 2.5 -1.74838
    endloop
  endfacet
  facet normal 0 1 0
    outer loop
      vertex 3.16124 2.5 -1.74838
      vertex 5 2.5 -2.5
      vertex 3.23359 2.5 -1.94934
    endloop
  endfacet
  facet normal 0 1 0
    outer loop
      vertex 3.23359 2.5 -1.94934
      vertex 5 2.5 -2.5
      vertex 3.29318 2.5 -2.15445
    endloop
  endfacet
  facet normal 0 1 0
    outer loop
      vertex 3.29318 2.5 -2.15445
      vertex 5 2.5 -2.5
      vertex 3.33978 2.5 -2.3629
    endloop
  endfacet
  facet normal 0 1 0
    outer loop
      vertex 3.33978 2.5 -2.3629
      vertex 5 2.5 -2.5
      vertex 3.36149 2.5 -2.5
    endloop
  endfacet
  facet normal 0 1 -0
    outer loop
      vertex -0.213488 2.5 0.393291
      vertex -5 2.5 2.5
      vertex 0 2.5 0.4
    endloop
  endfacet
  facet normal 0 1 -0
    outer loop
      vertex -0.426132 2.5 0.37319
      vertex -5 2.5 2.5
      vertex -0.213488 2.5 0.393291
    endloop
  endfacet
  facet normal 0 1 -0
    outer loop
      vertex -0.637096 2.5 0.339776
      vertex -5 2.5 2.5
      vertex -0.426132 2.5 0.37319
    endloop
  endfacet
  facet normal 0 1 -0
    outer loop
      vertex -0.845545 2.5 0.293182
      vertex -5 2.5 2.5
      vertex -0.637096 2.5 0.339776
    endloop
  endfacet
  facet normal 0 1 -0
    outer loop
      vertex -1.05066 2.5 0.233592
      vertex -5 2.5 2.5
      vertex -0.845545 2.5 0.293182
    endloop
  endfacet
  facet normal 0 1 -0
    outer loop
      vertex -1.25162 2.5 0.16124
      vertex -5 2.5 2.5
      vertex -1.05066 2.5 0.233592
    endloop
  endfacet
  facet normal 0 1 -0
    outer loop
      vertex -1.44765 2.5 0.0764112
      vertex -5 2.5 2.5
      vertex -1.25162 2.5 0.16124
    endloop
  endfacet
  facet normal 0 1 -0
    outer loop
      vertex -1.63796 2.5 -0.0205564
      vertex -5 2.5 2.5
      vertex -1.44765 2.5 0.0764112
    endloop
  endfacet
  facet normal 0 1 -0
    outer loop
      vertex -1.82181 2.5 -0.129285
      vertex -5 2.5 2.5
      vertex -1.63796 2.5 -0.0205564
    endloop
  endfacet
  facet normal 0 1 -0
    outer loop
      vertex -1.99847 2.5 -0.249342
      vertex -5 2.5 2.5
      vertex -1.82181 2.5 -0.129285
    endloop
  endfacet
  facet normal 0 1 -0
    outer loop
      vertex -2.16724 2.5 -0.380255
      vertex -5 2.5 2.5
      vertex -1.99847 2.5 -0.249342
    endloop
  endfacet
  facet normal 0 1 -0
    outer loop
      vertex -2.32746 2.5 -0.521506
      vertex -5 2.5 2.5
      vertex -2.16724 2.5 -0.380255
    endloop
  endfacet
  facet normal 0 1 -0
    outer loop
      vertex -2.47849 2.5 -0.67254
      vertex -5 2.5 2.5
      vertex -2.32746 2.5 -0.521506
    endloop
  endfacet
  facet normal 0 1 -0
    outer loop
      vertex -2.61974 2.5 -0.832758
      vertex -5 2.5 2.5
      vertex -2.47849 2.5 -0.67254
    endloop
  endfacet
  facet normal 0 1 -0
    outer loop
      vertex -2.75066 2.5 -1.00153
      vertex -5 2.5 2.5
      vertex -2.61974 2.5 -0.832758
    endloop
  endfacet
  facet normal 0 1 -0
    outer loop
      vertex -2.87071 2.5 -1.17819
      vertex -5 2.5 2.5
      vertex -2.75066 2.5 -1.00153
    endloop
  endfacet
  facet normal 0 1 -0
    outer loop
      vertex -2.97944 2.5 -1.36204
      vertex -5 2.5 2.5
      vertex -2.87071 2.5 -1.17819
    endloop
  endfacet
  facet normal 0 1 0
    outer loop
      vertex -5 2.5 -2.5
      vertex -2.97944 2.5 -1.36204
      vertex -3.07641 2.5 -1.55235
    endloop
  endfacet
  facet normal 0 1 0
    outer loop
      vertex -5 2.5 -2.5
      vertex -3.07641 2.5 -1.55235
      vertex -3.16124 2.5 -1.74838
    endloop
  endfacet
  facet normal 0 1 0
    outer loop
      vertex -5 2.5 -2.5
      vertex -3.16124 2.5 -1.74838
      vertex -3.23359 2.5 -1.94934
    endloop
  endfacet
  facet normal 0 1 0
    outer loop
      vertex -5 2.5 -2.5
      vertex -3.23359 2.5 -1.94934
      vertex -3.29318 2.5 -2.15445
    endloop
  endfacet
  facet normal 0 1 0
    outer loop
      vertex -5 2.5 -2.5
      vertex -3.29318 2.5 -2.15445
      vertex -3.33978 2.5 -2.3629
    endloop
  endfacet
  facet normal 0 1 0
    outer loop
      vertex -5 2.5 -2.5
      vertex -3.33978 2.5 -2.3629
      vertex -3.36149 2.5 -2.5
    endloop
  endfacet
  facet normal 0 1 0
    outer loop
      vertex -2.97944 2.5 -1.36204
      vertex -5 2.5 -2.5
      vertex -5 2.5 2.5
    endloop
  endfacet
  facet normal 0 0 -1
    outer loop
      vertex -5 -2.5 -2.5
      vertex -3.36149 2.5 -2.5
      vertex -3.36149 -2.5 -2.5
    endloop
  endfacet
  facet normal -0 0 -1
    outer loop
      vertex -3.36149 2.5 -2.5
      vertex -5 -2.5 -2.5
      vertex -5 2.5 -2.5
    endloop
  endfacet
  facet normal 0 0 -1
    outer loop
      vertex 3.36149 -2.5 -2.5
      vertex 5 2.5 -2.5
      vertex 5 -2.5 -2.5
    endloop
  endfacet
  facet normal -0 0 -1
    outer loop
      vertex 5 2.5 -2.5
      vertex 3.36149 -2.5 -2.5
      vertex 3.36149 2.5 -2.5
    endloop
  endfacet
  facet normal 0 -1 0
    outer loop
      vertex -5 -2.5 2.5
      vertex 0 -2.5 0.4
      vertex 5 -2.5 2.5
    endloop
  endfacet
  facet normal 0 -1 0
    outer loop
      vertex -5 -2.5 2.5
      vertex -0.213488 -2.5 0.393291
      vertex 0 -2.5 0.4
    endloop
  endfacet
  facet normal 0 -1 0
    outer loop
      vertex -5 -2.5 2.5
      vertex -0.426132 -2.5 0.37319
      vertex -0.213488 -2.5 0.393291
    endloop
  endfacet
  facet normal 0 -1 0
    outer loop
      vertex -5 -2.5 2.5
      vertex -0.637096 -2.5 0.339776
      vertex -0.426132 -2.5 0.37319
    endloop
  endfacet
  facet normal 0 -1 0
    outer loop
      vertex -5 -2.5 2.5
      vertex -0.845545 -2.5 0.293182
      vertex -0.637096 -2.5 0.339776
    endloop
  endfacet
  facet normal 0 -1 0
    outer loop
      vertex -5 -2.5 2.5
      vertex -1.05066 -2.5 0.233592
      vertex -0.845545 -2.5 0.293182
    endloop
  endfacet
  facet normal 0 -1 0
    outer loop
      vertex -5 -2.5 2.5
      vertex -1.25162 -2.5 0.16124
      vertex -1.05066 -2.5 0.233592
    endloop
  endfacet
  facet normal 0 -1 0
    outer loop
      vertex -5 -2.5 2.5
      vertex -1.44765 -2.5 0.0764112
      vertex -1.25162 -2.5 0.16124
    endloop
  endfacet
  facet normal 0 -1 0
    outer loop
      vertex -5 -2.5 2.5
      vertex -1.63796 -2.5 -0.0205564
      vertex -1.44765 -2.5 0.0764112
    endloop
  endfacet
  facet normal 0 -1 0
    outer loop
      vertex -5 -2.5 2.5
      vertex -1.82181 -2.5 -0.129285
      vertex -1.63796 -2.5 -0.0205564
    endloop
  endfacet
  facet normal 0 -1 0
    outer loop
      vertex -5 -2.5 2.5
      vertex -1.99847 -2.5 -0.249342
      vertex -1.82181 -2.5 -0.129285
    endloop
  endfacet
  facet normal 0 -1 0
    outer loop
      vertex -5 -2.5 2.5
      vertex -2.16724 -2.5 -0.380255
      vertex -1.99847 -2.5 -0.249342
    endloop
  endfacet
  facet normal 0 -1 0
    outer loop
      vertex -5 -2.5 2.5
      vertex -2.32746 -2.5 -0.521506
      vertex -2.16724 -2.5 -0.380255
    endloop
  endfacet
  facet normal 0 -1 0
    outer loop
      vertex -5 -2.5 2.5
      vertex -2.47849 -2.5 -0.67254
      vertex -2.32746 -2.5 -0.521506
    endloop
  endfacet
  facet normal 0 -1 0
    outer loop
      vertex -5 -2.5 2.5
      vertex -2.61974 -2.5 -0.832758
      vertex -2.47849 -2.5 -0.67254
    endloop
  endfacet
  facet normal 0 -1 0
    outer loop
      vertex -5 -2.5 2.5
      vertex -2.75066 -2.5 -1.00153
      vertex -2.61974 -2.5 -0.832758
    endloop
  endfacet
  facet normal 0 -1 0
    outer loop
      vertex -5 -2.5 2.5
      vertex -2.87071 -2.5 -1.17819
      vertex -2.75066 -2.5 -1.00153
    endloop
  endfacet
  facet normal 0 -1 0
    outer loop
      vertex -5 -2.5 2.5
      vertex -2.97944 -2.5 -1.36204
      vertex -2.87071 -2.5 -1.17819
    endloop
  endfacet
  facet normal 0 -1 0
    outer loop
      vertex -5 -2.5 -2.5
      vertex -2.97944 -2.5 -1.36204
      vertex -5 -2.5 2.5
    endloop
  endfacet
  facet normal 0 -1 0
    outer loop
      vertex -2.97944 -2.5 -1.36204
      vertex -5 -2.5 -2.5
      vertex -3.07641 -2.5 -1.55235
    endloop
  endfacet
  facet normal 0 -1 0
    outer loop
      vertex -3.07641 -2.5 -1.55235
      vertex -5 -2.5 -2.5
      vertex -3.16124 -2.5 -1.74838
    endloop
  endfacet
  facet normal 0 -1 0
    outer loop
      vertex -3.16124 -2.5 -1.74838
      vertex -5 -2.5 -2.5
      vertex -3.23359 -2.5 -1.94934
    endloop
  endfacet
  facet normal 0 -1 0
    outer loop
      vertex -3.23359 -2.5 -1.94934
      vertex -5 -2.5 -2.5
      vertex -3.29318 -2.5 -2.15445
    endloop
  endfacet
  facet normal 0 -1 0
    outer loop
      vertex -3.29318 -2.5 -2.15445
      vertex -5 -2.5 -2.5
      vertex -3.33978 -2.5 -2.3629
    endloop
  endfacet
  facet normal 0 -1 0
    outer loop
      vertex -3.33978 -2.5 -2.3629
      vertex -5 -2.5 -2.5
      vertex -3.36149 -2.5 -2.5
    endloop
  endfacet
  facet normal 0 -1 0
    outer loop
      vertex 0.213488 -2.5 0.393291
      vertex 5 -2.5 2.5
      vertex 0 -2.5 0.4
    endloop
  endfacet
  facet normal 0 -1 0
    outer loop
      vertex 0.426132 -2.5 0.37319
      vertex 5 -2.5 2.5
      vertex 0.213488 -2.5 0.393291
    endloop
  endfacet
  facet normal 0 -1 0
    outer loop
      vertex 0.637096 -2.5 0.339776
      vertex 5 -2.5 2.5
      vertex 0.426132 -2.5 0.37319
    endloop
  endfacet
  facet normal 0 -1 0
    outer loop
      vertex 0.845545 -2.5 0.293182
      vertex 5 -2.5 2.5
      vertex 0.637096 -2.5 0.339776
    endloop
  endfacet
  facet normal 0 -1 0
    outer loop
      vertex 1.05066 -2.5 0.233592
      vertex 5 -2.5 2.5
      vertex 0.845545 -2.5 0.293182
    endloop
  endfacet
  facet normal 0 -1 0
    outer loop
      vertex 1.25162 -2.5 0.16124
      vertex 5 -2.5 2.5
      vertex 1.05066 -2.5 0.233592
    endloop
  endfacet
  facet normal 0 -1 0
    outer loop
      vertex 1.44765 -2.5 0.0764112
      vertex 5 -2.5 2.5
      vertex 1.25162 -2.5 0.16124
    endloop
  endfacet
  facet normal 0 -1 0
    outer loop
      vertex 1.63796 -2.5 -0.0205564
      vertex 5 -2.5 2.5
      vertex 1.44765 -2.5 0.0764112
    endloop
  endfacet
  facet normal 0 -1 0
    outer loop
      vertex 1.82181 -2.5 -0.129285
      vertex 5 -2.5 2.5
      vertex 1.63796 -2.5 -0.0205564
    endloop
  endfacet
  facet normal 0 -1 0
    outer loop
      vertex 1.99847 -2.5 -0.249342
      vertex 5 -2.5 2.5
      vertex 1.82181 -2.5 -0.129285
    endloop
  endfacet
  facet normal 0 -1 0
    outer loop
      vertex 2.16724 -2.5 -0.380255
      vertex 5 -2.5 2.5
      vertex 1.99847 -2.5 -0.249342
    endloop
  endfacet
  facet normal 0 -1 0
    outer loop
      vertex 2.32746 -2.5 -0.521506
      vertex 5 -2.5 2.5
      vertex 2.16724 -2.5 -0.380255
    endloop
  endfacet
  facet normal 0 -1 0
    outer loop
      vertex 2.47849 -2.5 -0.67254
      vertex 5 -2.5 2.5
      vertex 2.32746 -2.5 -0.521506
    endloop
  endfacet
  facet normal 0 -1 0
    outer loop
      vertex 2.61974 -2.5 -0.832758
      vertex 5 -2.5 2.5
      vertex 2.47849 -2.5 -0.67254
    endloop
  endfacet
  facet normal 0 -1 0
    outer loop
      vertex 2.75066 -2.5 -1.00153
      vertex 5 -2.5 2.5
      vertex 2.61974 -2.5 -0.832758
    endloop
  endfacet
  facet normal 0 -1 0
    outer loop
      vertex 2.87071 -2.5 -1.17819
      vertex 5 -2.5 2.5
      vertex 2.75066 -2.5 -1.00153
    endloop
  endfacet
  facet normal 0 -1 0
    outer loop
      vertex 2.97944 -2.5 -1.36204
      vertex 5 -2.5 2.5
      vertex 2.87071 -2.5 -1.17819
    endloop
  endfacet
  facet normal 0 -1 0
    outer loop
      vertex 5 -2.5 -2.5
      vertex 2.97944 -2.5 -1.36204
      vertex 3.07641 -2.5 -1.55235
    endloop
  endfacet
  facet normal 0 -1 0
    outer loop
      vertex 5 -2.5 -2.5
      vertex 3.07641 -2.5 -1.55235
      vertex 3.16124 -2.5 -1.74838
    endloop
  endfacet
  facet normal 0 -1 0
    outer loop
      vertex 5 -2.5 -2.5
      vertex 3.16124 -2.5 -1.74838
      vertex 3.23359 -2.5 -1.94934
    endloop
  endfacet
  facet normal 0 -1 0
    outer loop
      vertex 5 -2.5 -2.5
      vertex 3.23359 -2.5 -1.94934
      vertex 3.29318 -2.5 -2.15445
    endloop
  endfacet
  facet normal 0 -1 0
    outer loop
      vertex 5 -2.5 -2.5
      vertex 3.29318 -2.5 -2.15445
      vertex 3.33978 -2.5 -2.3629
    endloop
  endfacet
  facet normal 0 -1 0
    outer loop
      vertex 5 -2.5 -2.5
      vertex 3.33978 -2.5 -2.3629
      vertex 3.36149 -2.5 -2.5
    endloop
  endfacet
  facet normal 0 -1 0
    outer loop
      vertex 2.97944 -2.5 -1.36204
      vertex 5 -2.5 -2.5
      vertex 5 -2.5 2.5
    endloop
  endfacet
  facet normal -0.27899 0 -0.960294
    outer loop
      vertex 0.845545 -2.5 0.293182
      vertex 1.05066 2.5 0.233592
      vertex 1.05066 -2.5 0.233592
    endloop
  endfacet
  facet normal -0.27899 0 -0.960294
    outer loop
      vertex 1.05066 2.5 0.233592
      vertex 0.845545 -2.5 0.293182
      vertex 0.845545 2.5 0.293182
    endloop
  endfacet
  facet normal -0.960294 0 -0.27899
    outer loop
      vertex 3.29318 -2.5 -2.15445
      vertex 3.23359 2.5 -1.94934
      vertex 3.29318 2.5 -2.15445
    endloop
  endfacet
  facet normal -0.960294 -0 -0.27899
    outer loop
      vertex 3.23359 2.5 -1.94934
      vertex 3.29318 -2.5 -2.15445
      vertex 3.23359 -2.5 -1.94934
    endloop
  endfacet
  facet normal 0.94088 0 -0.338739
    outer loop
      vertex -3.16124 -2.5 -1.74838
      vertex -3.23359 2.5 -1.94934
      vertex -3.16124 2.5 -1.74838
    endloop
  endfacet
  facet normal 0.94088 0 -0.338739
    outer loop
      vertex -3.23359 2.5 -1.94934
      vertex -3.16124 -2.5 -1.74838
      vertex -3.23359 -2.5 -1.94934
    endloop
  endfacet
  facet normal 0.987688 0 -0.156437
    outer loop
      vertex -3.33978 -2.5 -2.3629
      vertex -3.36149 2.5 -2.5
      vertex -3.33978 2.5 -2.3629
    endloop
  endfacet
  facet normal 0.987688 0 -0.156437
    outer loop
      vertex -3.36149 2.5 -2.5
      vertex -3.33978 -2.5 -2.3629
      vertex -3.36149 -2.5 -2.5
    endloop
  endfacet
  facet normal 0.0314107 0 -0.999507
    outer loop
      vertex -0.213488 -2.5 0.393291
      vertex 0 2.5 0.4
      vertex 0 -2.5 0.4
    endloop
  endfacet
  facet normal 0.0314107 0 -0.999507
    outer loop
      vertex 0 2.5 0.4
      vertex -0.213488 -2.5 0.393291
      vertex -0.213488 2.5 0.393291
    endloop
  endfacet
  facet normal -0.0941072 0 -0.995562
    outer loop
      vertex 0.213488 -2.5 0.393291
      vertex 0.426132 2.5 0.37319
      vertex 0.426132 -2.5 0.37319
    endloop
  endfacet
  facet normal -0.0941072 0 -0.995562
    outer loop
      vertex 0.426132 2.5 0.37319
      vertex 0.213488 -2.5 0.393291
      vertex 0.213488 2.5 0.393291
    endloop
  endfacet
  facet normal -0.338739 0 -0.94088
    outer loop
      vertex 1.05066 -2.5 0.233592
      vertex 1.25162 2.5 0.16124
      vertex 1.25162 -2.5 0.16124
    endloop
  endfacet
  facet normal -0.338739 0 -0.94088
    outer loop
      vertex 1.25162 2.5 0.16124
      vertex 1.05066 -2.5 0.233592
      vertex 1.05066 2.5 0.233592
    endloop
  endfacet
  facet normal -0.750111 0 -0.661312
    outer loop
      vertex 2.61974 -2.5 -0.832758
      vertex 2.47849 2.5 -0.67254
      vertex 2.61974 2.5 -0.832758
    endloop
  endfacet
  facet normal -0.750111 -0 -0.661312
    outer loop
      vertex 2.47849 2.5 -0.67254
      vertex 2.61974 -2.5 -0.832758
      vertex 2.47849 -2.5 -0.67254
    endloop
  endfacet
  facet normal -0.987688 0 -0.156437
    outer loop
      vertex 3.36149 -2.5 -2.5
      vertex 3.33978 2.5 -2.3629
      vertex 3.36149 2.5 -2.5
    endloop
  endfacet
  facet normal -0.987688 -0 -0.156437
    outer loop
      vertex 3.33978 2.5 -2.3629
      vertex 3.36149 -2.5 -2.5
      vertex 3.33978 -2.5 -2.3629
    endloop
  endfacet
  facet normal 0.562083 0 -0.827081
    outer loop
      vertex -1.99847 -2.5 -0.249342
      vertex -1.82181 2.5 -0.129285
      vertex -1.82181 -2.5 -0.129285
    endloop
  endfacet
  facet normal 0.562083 0 -0.827081
    outer loop
      vertex -1.82181 2.5 -0.129285
      vertex -1.99847 -2.5 -0.249342
      vertex -1.99847 2.5 -0.249342
    endloop
  endfacet
  facet normal 0.707107 0 -0.707107
    outer loop
      vertex -2.32746 -2.5 -0.521506
      vertex -2.47849 2.5 -0.67254
      vertex -2.32746 2.5 -0.521506
    endloop
  endfacet
  facet normal 0.707107 0 -0.707107
    outer loop
      vertex -2.47849 2.5 -0.67254
      vertex -2.32746 -2.5 -0.521506
      vertex -2.47849 -2.5 -0.67254
    endloop
  endfacet
  facet normal 0.917754 0 -0.39715
    outer loop
      vertex -3.07641 -2.5 -1.55235
      vertex -3.16124 2.5 -1.74838
      vertex -3.07641 2.5 -1.55235
    endloop
  endfacet
  facet normal 0.917754 0 -0.39715
    outer loop
      vertex -3.16124 2.5 -1.74838
      vertex -3.07641 -2.5 -1.55235
      vertex -3.16124 -2.5 -1.74838
    endloop
  endfacet
  facet normal 0.27899 0 -0.960294
    outer loop
      vertex -1.05066 -2.5 0.233592
      vertex -0.845545 2.5 0.293182
      vertex -0.845545 -2.5 0.293182
    endloop
  endfacet
  facet normal 0.27899 0 -0.960294
    outer loop
      vertex -0.845545 2.5 0.293182
      vertex -1.05066 -2.5 0.233592
      vertex -1.05066 2.5 0.233592
    endloop
  endfacet
  facet normal 0.218143 0 -0.975917
    outer loop
      vertex -0.845545 -2.5 0.293182
      vertex -0.637096 2.5 0.339776
      vertex -0.637096 -2.5 0.339776
    endloop
  endfacet
  facet normal 0.218143 0 -0.975917
    outer loop
      vertex -0.637096 2.5 0.339776
      vertex -0.845545 -2.5 0.293182
      vertex -0.845545 2.5 0.293182
    endloop
  endfacet
  facet normal -0.156436 0 -0.987688
    outer loop
      vertex 0.426132 -2.5 0.37319
      vertex 0.637096 2.5 0.339776
      vertex 0.637096 -2.5 0.339776
    endloop
  endfacet
  facet normal -0.156436 0 -0.987688
    outer loop
      vertex 0.637096 2.5 0.339776
      vertex 0.426132 -2.5 0.37319
      vertex 0.426132 2.5 0.37319
    endloop
  endfacet
  facet normal -0.0314107 0 -0.999507
    outer loop
      vertex 0 -2.5 0.4
      vertex 0.213488 2.5 0.393291
      vertex 0.213488 -2.5 0.393291
    endloop
  endfacet
  facet normal -0.0314107 0 -0.999507
    outer loop
      vertex 0.213488 2.5 0.393291
      vertex 0 -2.5 0.4
      vertex 0 2.5 0.4
    endloop
  endfacet
  facet normal -0.562083 0 -0.827081
    outer loop
      vertex 1.82181 -2.5 -0.129285
      vertex 1.99847 2.5 -0.249342
      vertex 1.99847 -2.5 -0.249342
    endloop
  endfacet
  facet normal -0.562083 0 -0.827081
    outer loop
      vertex 1.99847 2.5 -0.249342
      vertex 1.82181 -2.5 -0.129285
      vertex 1.82181 2.5 -0.129285
    endloop
  endfacet
  facet normal -0.509044 0 -0.86074
    outer loop
      vertex 1.63796 -2.5 -0.0205564
      vertex 1.82181 2.5 -0.129285
      vertex 1.82181 -2.5 -0.129285
    endloop
  endfacet
  facet normal -0.509044 0 -0.86074
    outer loop
      vertex 1.82181 2.5 -0.129285
      vertex 1.63796 -2.5 -0.0205564
      vertex 1.63796 2.5 -0.0205564
    endloop
  endfacet
  facet normal -0.612907 0 -0.790155
    outer loop
      vertex 1.99847 -2.5 -0.249342
      vertex 2.16724 2.5 -0.380255
      vertex 2.16724 -2.5 -0.380255
    endloop
  endfacet
  facet normal -0.612907 0 -0.790155
    outer loop
      vertex 2.16724 2.5 -0.380255
      vertex 1.99847 -2.5 -0.249342
      vertex 1.99847 2.5 -0.249342
    endloop
  endfacet
  facet normal -0.790155 0 -0.612907
    outer loop
      vertex 2.75066 -2.5 -1.00153
      vertex 2.61974 2.5 -0.832758
      vertex 2.75066 2.5 -1.00153
    endloop
  endfacet
  facet normal -0.790155 -0 -0.612907
    outer loop
      vertex 2.61974 2.5 -0.832758
      vertex 2.75066 -2.5 -1.00153
      vertex 2.61974 -2.5 -0.832758
    endloop
  endfacet
  facet normal -0.94088 0 -0.338739
    outer loop
      vertex 3.23359 -2.5 -1.94934
      vertex 3.16124 2.5 -1.74838
      vertex 3.23359 2.5 -1.94934
    endloop
  endfacet
  facet normal -0.94088 -0 -0.338739
    outer loop
      vertex 3.16124 2.5 -1.74838
      vertex 3.23359 -2.5 -1.94934
      vertex 3.16124 -2.5 -1.74838
    endloop
  endfacet
  facet normal -0.891008 0 -0.453987
    outer loop
      vertex 3.07641 -2.5 -1.55235
      vertex 2.97944 2.5 -1.36204
      vertex 3.07641 2.5 -1.55235
    endloop
  endfacet
  facet normal -0.891008 -0 -0.453987
    outer loop
      vertex 2.97944 2.5 -1.36204
      vertex 3.07641 -2.5 -1.55235
      vertex 2.97944 -2.5 -1.36204
    endloop
  endfacet
  facet normal -0.975917 0 -0.218143
    outer loop
      vertex 3.33978 -2.5 -2.3629
      vertex 3.29318 2.5 -2.15445
      vertex 3.33978 2.5 -2.3629
    endloop
  endfacet
  facet normal -0.975917 -0 -0.218143
    outer loop
      vertex 3.29318 2.5 -2.15445
      vertex 3.33978 -2.5 -2.3629
      vertex 3.29318 -2.5 -2.15445
    endloop
  endfacet
  facet normal 0.661312 0 -0.750111
    outer loop
      vertex -2.32746 -2.5 -0.521506
      vertex -2.16724 2.5 -0.380255
      vertex -2.16724 -2.5 -0.380255
    endloop
  endfacet
  facet normal 0.661312 0 -0.750111
    outer loop
      vertex -2.16724 2.5 -0.380255
      vertex -2.32746 -2.5 -0.521506
      vertex -2.32746 2.5 -0.521506
    endloop
  endfacet
  facet normal 0.612907 0 -0.790155
    outer loop
      vertex -2.16724 -2.5 -0.380255
      vertex -1.99847 2.5 -0.249342
      vertex -1.99847 -2.5 -0.249342
    endloop
  endfacet
  facet normal 0.612907 0 -0.790155
    outer loop
      vertex -1.99847 2.5 -0.249342
      vertex -2.16724 -2.5 -0.380255
      vertex -2.16724 2.5 -0.380255
    endloop
  endfacet
  facet normal 0.750111 0 -0.661312
    outer loop
      vertex -2.47849 -2.5 -0.67254
      vertex -2.61974 2.5 -0.832758
      vertex -2.47849 2.5 -0.67254
    endloop
  endfacet
  facet normal 0.750111 0 -0.661312
    outer loop
      vertex -2.61974 2.5 -0.832758
      vertex -2.47849 -2.5 -0.67254
      vertex -2.61974 -2.5 -0.832758
    endloop
  endfacet
  facet normal 0.891008 0 -0.453987
    outer loop
      vertex -2.97944 -2.5 -1.36204
      vertex -3.07641 2.5 -1.55235
      vertex -2.97944 2.5 -1.36204
    endloop
  endfacet
  facet normal 0.891008 0 -0.453987
    outer loop
      vertex -3.07641 2.5 -1.55235
      vertex -2.97944 -2.5 -1.36204
      vertex -3.07641 -2.5 -1.55235
    endloop
  endfacet
  facet normal 0.86074 0 -0.509044
    outer loop
      vertex -2.87071 -2.5 -1.17819
      vertex -2.97944 2.5 -1.36204
      vertex -2.87071 2.5 -1.17819
    endloop
  endfacet
  facet normal 0.86074 0 -0.509044
    outer loop
      vertex -2.97944 2.5 -1.36204
      vertex -2.87071 -2.5 -1.17819
      vertex -2.97944 -2.5 -1.36204
    endloop
  endfacet
  facet normal 0.827081 0 -0.562083
    outer loop
      vertex -2.75066 -2.5 -1.00153
      vertex -2.87071 2.5 -1.17819
      vertex -2.75066 2.5 -1.00153
    endloop
  endfacet
  facet normal 0.827081 0 -0.562083
    outer loop
      vertex -2.87071 2.5 -1.17819
      vertex -2.75066 -2.5 -1.00153
      vertex -2.87071 -2.5 -1.17819
    endloop
  endfacet
  facet normal 0.960294 0 -0.27899
    outer loop
      vertex -3.23359 -2.5 -1.94934
      vertex -3.29318 2.5 -2.15445
      vertex -3.23359 2.5 -1.94934
    endloop
  endfacet
  facet normal 0.960294 0 -0.27899
    outer loop
      vertex -3.29318 2.5 -2.15445
      vertex -3.23359 -2.5 -1.94934
      vertex -3.29318 -2.5 -2.15445
    endloop
  endfacet
  facet normal 0.39715 0 -0.917754
    outer loop
      vertex -1.44765 -2.5 0.0764112
      vertex -1.25162 2.5 0.16124
      vertex -1.25162 -2.5 0.16124
    endloop
  endfacet
  facet normal 0.39715 0 -0.917754
    outer loop
      vertex -1.25162 2.5 0.16124
      vertex -1.44765 -2.5 0.0764112
      vertex -1.44765 2.5 0.0764112
    endloop
  endfacet
  facet normal 0.156436 0 -0.987688
    outer loop
      vertex -0.637096 -2.5 0.339776
      vertex -0.426132 2.5 0.37319
      vertex -0.426132 -2.5 0.37319
    endloop
  endfacet
  facet normal 0.156436 0 -0.987688
    outer loop
      vertex -0.426132 2.5 0.37319
      vertex -0.637096 -2.5 0.339776
      vertex -0.637096 2.5 0.339776
    endloop
  endfacet
  facet normal 0.0941072 0 -0.995562
    outer loop
      vertex -0.426132 -2.5 0.37319
      vertex -0.213488 2.5 0.393291
      vertex -0.213488 -2.5 0.393291
    endloop
  endfacet
  facet normal 0.0941072 0 -0.995562
    outer loop
      vertex -0.213488 2.5 0.393291
      vertex -0.426132 -2.5 0.37319
      vertex -0.426132 2.5 0.37319
    endloop
  endfacet
  facet normal -0.218143 0 -0.975917
    outer loop
      vertex 0.637096 -2.5 0.339776
      vertex 0.845545 2.5 0.293182
      vertex 0.845545 -2.5 0.293182
    endloop
  endfacet
  facet normal -0.218143 0 -0.975917
    outer loop
      vertex 0.845545 2.5 0.293182
      vertex 0.637096 -2.5 0.339776
      vertex 0.637096 2.5 0.339776
    endloop
  endfacet
  facet normal -0.39715 0 -0.917754
    outer loop
      vertex 1.25162 -2.5 0.16124
      vertex 1.44765 2.5 0.0764112
      vertex 1.44765 -2.5 0.0764112
    endloop
  endfacet
  facet normal -0.39715 0 -0.917754
    outer loop
      vertex 1.44765 2.5 0.0764112
      vertex 1.25162 -2.5 0.16124
      vertex 1.25162 2.5 0.16124
    endloop
  endfacet
  facet normal -0.827081 0 -0.562083
    outer loop
      vertex 2.87071 -2.5 -1.17819
      vertex 2.75066 2.5 -1.00153
      vertex 2.87071 2.5 -1.17819
    endloop
  endfacet
  facet normal -0.827081 -0 -0.562083
    outer loop
      vertex 2.75066 2.5 -1.00153
      vertex 2.87071 -2.5 -1.17819
      vertex 2.75066 -2.5 -1.00153
    endloop
  endfacet
  facet normal -0.917754 0 -0.39715
    outer loop
      vertex 3.16124 -2.5 -1.74838
      vertex 3.07641 2.5 -1.55235
      vertex 3.16124 2.5 -1.74838
    endloop
  endfacet
  facet normal -0.917754 -0 -0.39715
    outer loop
      vertex 3.07641 2.5 -1.55235
      vertex 3.16124 -2.5 -1.74838
      vertex 3.07641 -2.5 -1.55235
    endloop
  endfacet
  facet normal 0.453984 0 -0.89101
    outer loop
      vertex -1.63796 -2.5 -0.0205564
      vertex -1.44765 2.5 0.0764112
      vertex -1.44765 -2.5 0.0764112
    endloop
  endfacet
  facet normal 0.453984 0 -0.89101
    outer loop
      vertex -1.44765 2.5 0.0764112
      vertex -1.63796 -2.5 -0.0205564
      vertex -1.63796 2.5 -0.0205564
    endloop
  endfacet
  facet normal 0.975917 0 -0.218143
    outer loop
      vertex -3.29318 -2.5 -2.15445
      vertex -3.33978 2.5 -2.3629
      vertex -3.29318 2.5 -2.15445
    endloop
  endfacet
  facet normal 0.975917 0 -0.218143
    outer loop
      vertex -3.33978 2.5 -2.3629
      vertex -3.29318 -2.5 -2.15445
      vertex -3.33978 -2.5 -2.3629
    endloop
  endfacet
  facet normal 0.338739 0 -0.94088
    outer loop
      vertex -1.25162 -2.5 0.16124
      vertex -1.05066 2.5 0.233592
      vertex -1.05066 -2.5 0.233592
    endloop
  endfacet
  facet normal 0.338739 0 -0.94088
    outer loop
      vertex -1.05066 2.5 0.233592
      vertex -1.25162 -2.5 0.16124
      vertex -1.25162 2.5 0.16124
    endloop
  endfacet
  facet normal -0.453984 0 -0.89101
    outer loop
      vertex 1.44765 -2.5 0.0764112
      vertex 1.63796 2.5 -0.0205564
      vertex 1.63796 -2.5 -0.0205564
    endloop
  endfacet
  facet normal -0.453984 0 -0.89101
    outer loop
      vertex 1.63796 2.5 -0.0205564
      vertex 1.44765 -2.5 0.0764112
      vertex 1.44765 2.5 0.0764112
    endloop
  endfacet
  facet normal -0.707107 0 -0.707107
    outer loop
      vertex 2.47849 -2.5 -0.67254
      vertex 2.32746 2.5 -0.521506
      vertex 2.47849 2.5 -0.67254
    endloop
  endfacet
  facet normal -0.707107 -0 -0.707107
    outer loop
      vertex 2.32746 2.5 -0.521506
      vertex 2.47849 -2.5 -0.67254
      vertex 2.32746 -2.5 -0.521506
    endloop
  endfacet
  facet normal -0.661312 0 -0.750111
    outer loop
      vertex 2.16724 -2.5 -0.380255
      vertex 2.32746 2.5 -0.521506
      vertex 2.32746 -2.5 -0.521506
    endloop
  endfacet
  facet normal -0.661312 0 -0.750111
    outer loop
      vertex 2.32746 2.5 -0.521506
      vertex 2.16724 -2.5 -0.380255
      vertex 2.16724 2.5 -0.380255
    endloop
  endfacet
  facet normal -0.86074 0 -0.509044
    outer loop
      vertex 2.97944 -2.5 -1.36204
      vertex 2.87071 2.5 -1.17819
      vertex 2.97944 2.5 -1.36204
    endloop
  endfacet
  facet normal -0.86074 -0 -0.509044
    outer loop
      vertex 2.87071 2.5 -1.17819
      vertex 2.97944 -2.5 -1.36204
      vertex 2.87071 -2.5 -1.17819
    endloop
  endfacet
  facet normal 0.509044 0 -0.86074
    outer loop
      vertex -1.82181 -2.5 -0.129285
      vertex -1.63796 2.5 -0.0205564
      vertex -1.63796 -2.5 -0.0205564
    endloop
  endfacet
  facet normal 0.509044 0 -0.86074
    outer loop
      vertex -1.63796 2.5 -0.0205564
      vertex -1.82181 -2.5 -0.129285
      vertex -1.82181 2.5 -0.129285
    endloop
  endfacet
  facet normal 0.790155 0 -0.612907
    outer loop
      vertex -2.61974 -2.5 -0.832758
      vertex -2.75066 2.5 -1.00153
      vertex -2.61974 2.5 -0.832758
    endloop
  endfacet
  facet normal 0.790155 0 -0.612907
    outer loop
      vertex -2.75066 2.5 -1.00153
      vertex -2.61974 -2.5 -0.832758
      vertex -2.75066 -2.5 -1.00153
    endloop
  endfacet
endsolid OpenSCAD_Model
