solid OpenSCAD_Model
  facet normal -1 0 0
    outer loop
      vertex -5 -2.5 -2.5
      vertex -5 2.5 2.5
      vertex -5 2.5 -2.5
    endloop
  endfacet
  facet normal -1 -0 0
    outer loop
      vertex -5 2.5 2.5
      vertex -5 -2.5 -2.5
      vertex -5 -2.5 2.5
    endloop
  endfacet
  facet normal -0 0 1
    outer loop
      vertex -5 2.5 2.5
      vertex 5 -2.5 2.5
      vertex 5 2.5 2.5
    endloop
  endfacet
  facet normal 0 0 1
    outer loop
      vertex 5 -2.5 2.5
      vertex -5 2.5 2.5
      vertex -5 -2.5 2.5
    endloop
  endfacet
  facet normal 1 -0 0
    outer loop
      vertex 5 -2.5 2.5
      vertex 5 2.5 -2.5
      vertex 5 2.5 2.5
    endloop
  endfacet
  facet normal 1 0 0
    outer loop
      vertex 5 2.5 -2.5
      vertex 5 -2.5 2.5
      vertex 5 -2.5 -2.5
    endloop
  endfacet
  facet normal 0 1 0
    outer loop
      vertex 5 2.5 2.5
      vertex 0 2.5 0.499999
      vertex -5 2.5 2.5
    endloop
  endfacet
  facet normal 0 1 0
    outer loop
      vertex 5 2.5 2.5
      vertex 0.160116 2.5 0.494967
      vertex 0 2.5 0.499999
    endloop
  endfacet
  facet normal 0 1 0
    outer loop
      vertex 5 2.5 2.5
      vertex 0.213488 2.5 0.49329
      vertex 0.160116 2.5 0.494967
    endloop
  endfacet
  facet normal 0 1 0
    outer loop
      vertex 5 2.5 2.5
      vertex 0.426132 2.5 0.473189
      vertex 0.213488 2.5 0.49329
    endloop
  endfacet
  facet normal 0 1 0
    outer loop
      vertex 5 2.5 2.5
      vertex 0.637096 2.5 0.439776
      vertex 0.426132 2.5 0.473189
    endloop
  endfacet
  facet normal 0 1 0
    outer loop
      vertex 5 2.5 2.5
      vertex 0.845545 2.5 0.393182
      vertex 0.637096 2.5 0.439776
    endloop
  endfacet
  facet normal 0 1 0
    outer loop
      vertex 5 2.5 2.5
      vertex 1.05066 2.5 0.333591
      vertex 0.845545 2.5 0.393182
    endloop
  endfacet
  facet normal 0 1 0
    outer loop
      vertex 5 2.5 2.5
      vertex 1.25162 2.5 0.26124
      vertex 1.05066 2.5 0.333591
    endloop
  endfacet
  facet normal 0 1 0
    outer loop
      vertex 5 2.5 2.5
      vertex 1.44765 2.5 0.176412
      vertex 1.25162 2.5 0.26124
    endloop
  endfacet
  facet normal 0 1 0
    outer loop
      vertex 5 2.5 2.5
      vertex 1.63796 2.5 0.079442
      vertex 1.44765 2.5 0.176412
    endloop
  endfacet
  facet normal 0 1 0
    outer loop
      vertex 5 2.5 2.5
      vertex 1.82181 2.5 -0.0292845
      vertex 1.63796 2.5 0.079442
    endloop
  endfacet
  facet normal 0 1 0
    outer loop
      vertex 5 2.5 2.5
      vertex 1.99847 2.5 -0.149342
      vertex 1.82181 2.5 -0.0292845
    endloop
  endfacet
  facet normal 0 1 0
    outer loop
      vertex 5 2.5 2.5
      vertex 2.16724 2.5 -0.280254
      vertex 1.99847 2.5 -0.149342
    endloop
  endfacet
  facet normal 0 1 0
    outer loop
      vertex 5 2.5 2.5
      vertex 2.32746 2.5 -0.421506
      vertex 2.16724 2.5 -0.280254
    endloop
  endfacet
  facet normal 0 1 0
    outer loop
      vertex 5 2.5 2.5
      vertex 2.47849 2.5 -0.572539
      vertex 2.32746 2.5 -0.421506
    endloop
  endfacet
  facet normal 0 1 0
    outer loop
      vertex 5 2.5 2.5
      vertex 2.61974 2.5 -0.732758
      vertex 2.47849 2.5 -0.572539
    endloop
  endfacet
  facet normal 0 1 0
    outer loop
      vertex 5 2.5 2.5
      vertex 2.75066 2.5 -0.901529
      vertex 2.61974 2.5 -0.732758
    endloop
  endfacet
  facet normal 0 1 0
    outer loop
      vertex 5 2.5 2.5
      vertex 2.87071 2.5 -1.07819
      vertex 2.75066 2.5 -0.901529
    endloop
  endfacet
  facet normal 0 1 0
    outer loop
      vertex 5 2.5 2.5
      vertex 2.97944 2.5 -1.26204
      vertex 2.87071 2.5 -1.07819
    endloop
  endfacet
  facet normal 0 1 -0
    outer loop
      vertex 5 2.5 -2.5
      vertex 2.97944 2.5 -1.26204
      vertex 5 2.5 2.5
    endloop
  endfacet
  facet normal 0 1 0
    outer loop
      vertex 2.97944 2.5 -1.26204
      vertex 5 2.5 -2.5
      vertex 3.07641 2.5 -1.45235
    endloop
  endfacet
  facet normal 0 1 0
    outer loop
      vertex 3.07641 2.5 -1.45235
      vertex 5 2.5 -2.5
      vertex 3.16124 2.5 -1.64838
    endloop
  endfacet
  facet normal 0 1 0
    outer loop
      vertex 3.16124 2.5 -1.64838
      vertex 5 2.5 -2.5
      vertex 3.23359 2.5 -1.84934
    endloop
  endfacet
  facet normal 0 1 0
    outer loop
      vertex 3.23359 2.5 -1.84934
      vertex 5 2.5 -2.5
      vertex 3.29318 2.5 -2.05445
    endloop
  endfacet
  facet normal 0 1 0
    outer loop
      vertex 3.29318 2.5 -2.05445
      vertex 5 2.5 -2.5
      vertex 3.33978 2.5 -2.2629
    endloop
  endfacet
  facet normal 0 1 0
    outer loop
      vertex 3.33978 2.5 -2.2629
      vertex 5 2.5 -2.5
      vertex 3.37319 2.5 -2.47387
    endloop
  endfacet
  facet normal 0 1 0
    outer loop
      vertex 3.37319 2.5 -2.47387
      vertex 5 2.5 -2.5
      vertex 3.37566 2.5 -2.5
    endloop
  endfacet
  facet normal 0 1 -0
    outer loop
      vertex -0.160116 2.5 0.494967
      vertex -5 2.5 2.5
      vertex 0 2.5 0.499999
    endloop
  endfacet
  facet normal 0 1 -0
    outer loop
      vertex -0.213488 2.5 0.49329
      vertex -5 2.5 2.5
      vertex -0.160116 2.5 0.494967
    endloop
  endfacet
  facet normal 0 1 -0
    outer loop
      vertex -0.426132 2.5 0.473189
      vertex -5 2.5 2.5
      vertex -0.213488 2.5 0.49329
    endloop
  endfacet
  facet normal 0 1 -0
    outer loop
      vertex -0.637096 2.5 0.439776
      vertex -5 2.5 2.5
      vertex -0.426132 2.5 0.473189
    endloop
  endfacet
  facet normal 0 1 -0
    outer loop
      vertex -0.845545 2.5 0.393182
      vertex -5 2.5 2.5
      vertex -0.637096 2.5 0.439776
    endloop
  endfacet
  facet normal 0 1 -0
    outer loop
      vertex -1.05066 2.5 0.333591
      vertex -5 2.5 2.5
      vertex -0.845545 2.5 0.393182
    endloop
  endfacet
  facet normal 0 1 -0
    outer loop
      vertex -1.25162 2.5 0.26124
      vertex -5 2.5 2.5
      vertex -1.05066 2.5 0.333591
    endloop
  endfacet
  facet normal 0 1 -0
    outer loop
      vertex -1.44765 2.5 0.176412
      vertex -5 2.5 2.5
      vertex -1.25162 2.5 0.26124
    endloop
  endfacet
  facet normal 0 1 -0
    outer loop
      vertex -1.63796 2.5 0.079442
      vertex -5 2.5 2.5
      vertex -1.44765 2.5 0.176412
    endloop
  endfacet
  facet normal 0 1 -0
    outer loop
      vertex -1.82181 2.5 -0.0292845
      vertex -5 2.5 2.5
      vertex -1.63796 2.5 0.079442
    endloop
  endfacet
  facet normal 0 1 -0
    outer loop
      vertex -1.99847 2.5 -0.149342
      vertex -5 2.5 2.5
      vertex -1.82181 2.5 -0.0292845
    endloop
  endfacet
  facet normal 0 1 -0
    outer loop
      vertex -2.16724 2.5 -0.280254
      vertex -5 2.5 2.5
      vertex -1.99847 2.5 -0.149342
    endloop
  endfacet
  facet normal 0 1 -0
    outer loop
      vertex -2.32746 2.5 -0.421506
      vertex -5 2.5 2.5
      vertex -2.16724 2.5 -0.280254
    endloop
  endfacet
  facet normal 0 1 -0
    outer loop
      vertex -2.47849 2.5 -0.572539
      vertex -5 2.5 2.5
      vertex -2.32746 2.5 -0.421506
    endloop
  endfacet
  facet normal 0 1 -0
    outer loop
      vertex -2.61974 2.5 -0.732758
      vertex -5 2.5 2.5
      vertex -2.47849 2.5 -0.572539
    endloop
  endfacet
  facet normal 0 1 -0
    outer loop
      vertex -2.75066 2.5 -0.901529
      vertex -5 2.5 2.5
      vertex -2.61974 2.5 -0.732758
    endloop
  endfacet
  facet normal 0 1 -0
    outer loop
      vertex -2.87071 2.5 -1.07819
      vertex -5 2.5 2.5
      vertex -2.75066 2.5 -0.901529
    endloop
  endfacet
  facet normal 0 1 -0
    outer loop
      vertex -2.97944 2.5 -1.26204
      vertex -5 2.5 2.5
      vertex -2.87071 2.5 -1.07819
    endloop
  endfacet
  facet normal 0 1 0
    outer loop
      vertex -5 2.5 -2.5
      vertex -2.97944 2.5 -1.26204
      vertex -3.07641 2.5 -1.45235
    endloop
  endfacet
  facet normal 0 1 0
    outer loop
      vertex -5 2.5 -2.5
      vertex -3.07641 2.5 -1.45235
      vertex -3.16124 2.5 -1.64838
    endloop
  endfacet
  facet normal 0 1 0
    outer loop
      vertex -5 2.5 -2.5
      vertex -3.16124 2.5 -1.64838
      vertex -3.23359 2.5 -1.84934
    endloop
  endfacet
  facet normal 0 1 0
    outer loop
      vertex -5 2.5 -2.5
      vertex -3.23359 2.5 -1.84934
      vertex -3.29318 2.5 -2.05445
    endloop
  endfacet
  facet normal 0 1 0
    outer loop
      vertex -5 2.5 -2.5
      vertex -3.29318 2.5 -2.05445
      vertex -3.33978 2.5 -2.2629
    endloop
  endfacet
  facet normal 0 1 0
    outer loop
      vertex -5 2.5 -2.5
      vertex -3.33978 2.5 -2.2629
      vertex -3.37319 2.5 -2.47387
    endloop
  endfacet
  facet normal 0 1 0
    outer loop
      vertex -5 2.5 -2.5
      vertex -3.37319 2.5 -2.47387
      vertex -3.37566 2.5 -2.5
    endloop
  endfacet
  facet normal 0 1 0
    outer loop
      vertex -2.97944 2.5 -1.26204
      vertex -5 2.5 -2.5
      vertex -5 2.5 2.5
    endloop
  endfacet
  facet normal 0 0 -1
    outer loop
      vertex -5 -2.5 -2.5
      vertex -3.37566 2.5 -2.5
      vertex -3.37566 -2.5 -2.5
    endloop
  endfacet
  facet normal -0 0 -1
    outer loop
      vertex -3.37566 2.5 -2.5
      vertex -5 -2.5 -2.5
      vertex -5 2.5 -2.5
    endloop
  endfacet
  facet normal 0 0 -1
    outer loop
      vertex 3.37566 -2.5 -2.5
      vertex 5 2.5 -2.5
      vertex 5 -2.5 -2.5
    endloop
  endfacet
  facet normal -0 0 -1
    outer loop
      vertex 5 2.5 -2.5
      vertex 3.37566 -2.5 -2.5
      vertex 3.37566 2.5 -2.5
    endloop
  endfacet
  facet normal 0 -1 0
    outer loop
      vertex -5 -2.5 2.5
      vertex 0 -2.5 0.5
      vertex 5 -2.5 2.5
    endloop
  endfacet
  facet normal 0 -1 0
    outer loop
      vertex -5 -2.5 2.5
      vertex -0.0533719 -2.5 0.498322
      vertex 0 -2.5 0.5
    endloop
  endfacet
  facet normal 0 -1 0
    outer loop
      vertex -5 -2.5 2.5
      vertex -0.213488 -2.5 0.49329
      vertex -0.0533719 -2.5 0.498322
    endloop
  endfacet
  facet normal 0 -1 0
    outer loop
      vertex -5 -2.5 2.5
      vertex -0.426132 -2.5 0.473189
      vertex -0.213488 -2.5 0.49329
    endloop
  endfacet
  facet normal 0 -1 0
    outer loop
      vertex -5 -2.5 2.5
      vertex -0.637096 -2.5 0.439776
      vertex -0.426132 -2.5 0.473189
    endloop
  endfacet
  facet normal 0 -1 0
    outer loop
      vertex -5 -2.5 2.5
      vertex -0.845545 -2.5 0.393182
      vertex -0.637096 -2.5 0.439776
    endloop
  endfacet
  facet normal 0 -1 0
    outer loop
      vertex -5 -2.5 2.5
      vertex -1.05066 -2.5 0.333591
      vertex -0.845545 -2.5 0.393182
    endloop
  endfacet
  facet normal 0 -1 0
    outer loop
      vertex -5 -2.5 2.5
      vertex -1.25162 -2.5 0.26124
      vertex -1.05066 -2.5 0.333591
    endloop
  endfacet
  facet normal 0 -1 0
    outer loop
      vertex -5 -2.5 2.5
      vertex -1.44765 -2.5 0.176412
      vertex -1.25162 -2.5 0.26124
    endloop
  endfacet
  facet normal 0 -1 0
    outer loop
      vertex -5 -2.5 2.5
      vertex -1.63796 -2.5 0.079442
      vertex -1.44765 -2.5 0.176412
    endloop
  endfacet
  facet normal 0 -1 0
    outer loop
      vertex -5 -2.5 2.5
      vertex -1.82181 -2.5 -0.0292845
      vertex -1.63796 -2.5 0.079442
    endloop
  endfacet
  facet normal 0 -1 0
    outer loop
      vertex -5 -2.5 2.5
      vertex -1.99847 -2.5 -0.149342
      vertex -1.82181 -2.5 -0.0292845
    endloop
  endfacet
  facet normal 0 -1 0
    outer loop
      vertex -5 -2.5 2.5
      vertex -2.16724 -2.5 -0.280254
      vertex -1.99847 -2.5 -0.149342
    endloop
  endfacet
  facet normal 0 -1 0
    outer loop
      vertex -5 -2.5 2.5
      vertex -2.32746 -2.5 -0.421506
      vertex -2.16724 -2.5 -0.280254
    endloop
  endfacet
  facet normal 0 -1 0
    outer loop
      vertex -5 -2.5 2.5
      vertex -2.47849 -2.5 -0.572539
      vertex -2.32746 -2.5 -0.421506
    endloop
  endfacet
  facet normal 0 -1 0
    outer loop
      vertex -5 -2.5 2.5
      vertex -2.61974 -2.5 -0.732758
      vertex -2.47849 -2.5 -0.572539
    endloop
  endfacet
  facet normal 0 -1 0
    outer loop
      vertex -5 -2.5 2.5
      vertex -2.75066 -2.5 -0.901529
      vertex -2.61974 -2.5 -0.732758
    endloop
  endfacet
  facet normal 0 -1 0
    outer loop
      vertex -5 -2.5 2.5
      vertex -2.87071 -2.5 -1.07819
      vertex -2.75066 -2.5 -0.901529
    endloop
  endfacet
  facet normal 0 -1 0
    outer loop
      vertex -5 -2.5 2.5
      vertex -2.97944 -2.5 -1.26204
      vertex -2.87071 -2.5 -1.07819
    endloop
  endfacet
  facet normal 0 -1 0
    outer loop
      vertex -5 -2.5 -2.5
      vertex -2.97944 -2.5 -1.26204
      vertex -5 -2.5 2.5
    endloop
  endfacet
  facet normal 0 -1 0
    outer loop
      vertex -2.97944 -2.5 -1.26204
      vertex -5 -2.5 -2.5
      vertex -3.07641 -2.5 -1.45235
    endloop
  endfacet
  facet normal 0 -1 0
    outer loop
      vertex -3.07641 -2.5 -1.45235
      vertex -5 -2.5 -2.5
      vertex -3.16124 -2.5 -1.64838
    endloop
  endfacet
  facet normal 0 -1 0
    outer loop
      vertex -3.16124 -2.5 -1.64838
      vertex -5 -2.5 -2.5
      vertex -3.23359 -2.5 -1.84934
    endloop
  endfacet
  facet normal 0 -1 0
    outer loop
      vertex -3.23359 -2.5 -1.84934
      vertex -5 -2.5 -2.5
      vertex -3.29318 -2.5 -2.05445
    endloop
  endfacet
  facet normal 0 -1 0
    outer loop
      vertex -3.29318 -2.5 -2.05445
      vertex -5 -2.5 -2.5
      vertex -3.33978 -2.5 -2.2629
    endloop
  endfacet
  facet normal 0 -1 0
    outer loop
      vertex -3.33978 -2.5 -2.2629
      vertex -5 -2.5 -2.5
      vertex -3.37319 -2.5 -2.47387
    endloop
  endfacet
  facet normal 0 -1 0
    outer loop
      vertex -3.37319 -2.5 -2.47387
      vertex -5 -2.5 -2.5
      vertex -3.37566 -2.5 -2.5
    endloop
  endfacet
  facet normal 0 -1 0
    outer loop
      vertex 0.0533719 -2.5 0.498322
      vertex 5 -2.5 2.5
      vertex 0 -2.5 0.5
    endloop
  endfacet
  facet normal 0 -1 0
    outer loop
      vertex 0.213488 -2.5 0.49329
      vertex 5 -2.5 2.5
      vertex 0.0533719 -2.5 0.498322
    endloop
  endfacet
  facet normal 0 -1 0
    outer loop
      vertex 0.426132 -2.5 0.473189
      vertex 5 -2.5 2.5
      vertex 0.213488 -2.5 0.49329
    endloop
  endfacet
  facet normal 0 -1 0
    outer loop
      vertex 0.637096 -2.5 0.439776
      vertex 5 -2.5 2.5
      vertex 0.426132 -2.5 0.473189
    endloop
  endfacet
  facet normal 0 -1 0
    outer loop
      vertex 0.845545 -2.5 0.393182
      vertex 5 -2.5 2.5
      vertex 0.637096 -2.5 0.439776
    endloop
  endfacet
  facet normal 0 -1 0
    outer loop
      vertex 1.05066 -2.5 0.333591
      vertex 5 -2.5 2.5
      vertex 0.845545 -2.5 0.393182
    endloop
  endfacet
  facet normal 0 -1 0
    outer loop
      vertex 1.25162 -2.5 0.26124
      vertex 5 -2.5 2.5
      vertex 1.05066 -2.5 0.333591
    endloop
  endfacet
  facet normal 0 -1 0
    outer loop
      vertex 1.44765 -2.5 0.176412
      vertex 5 -2.5 2.5
      vertex 1.25162 -2.5 0.26124
    endloop
  endfacet
  facet normal 0 -1 0
    outer loop
      vertex 1.63796 -2.5 0.079442
      vertex 5 -2.5 2.5
      vertex 1.44765 -2.5 0.176412
    endloop
  endfacet
  facet normal 0 -1 0
    outer loop
      vertex 1.82181 -2.5 -0.0292845
      vertex 5 -2.5 2.5
      vertex 1.63796 -2.5 0.079442
    endloop
  endfacet
  facet normal 0 -1 0
    outer loop
      vertex 1.99847 -2.5 -0.149342
      vertex 5 -2.5 2.5
      vertex 1.82181 -2.5 -0.0292845
    endloop
  endfacet
  facet normal 0 -1 0
    outer loop
      vertex 2.16724 -2.5 -0.280254
      vertex 5 -2.5 2.5
      vertex 1.99847 -2.5 -0.149342
    endloop
  endfacet
  facet normal 0 -1 0
    outer loop
      vertex 2.32746 -2.5 -0.421506
      vertex 5 -2.5 2.5
      vertex 2.16724 -2.5 -0.280254
    endloop
  endfacet
  facet normal 0 -1 0
    outer loop
      vertex 2.47849 -2.5 -0.572539
      vertex 5 -2.5 2.5
      vertex 2.32746 -2.5 -0.421506
    endloop
  endfacet
  facet normal 0 -1 0
    outer loop
      vertex 2.61974 -2.5 -0.732758
      vertex 5 -2.5 2.5
      vertex 2.47849 -2.5 -0.572539
    endloop
  endfacet
  facet normal 0 -1 0
    outer loop
      vertex 2.75066 -2.5 -0.901529
      vertex 5 -2.5 2.5
      vertex 2.61974 -2.5 -0.732758
    endloop
  endfacet
  facet normal 0 -1 0
    outer loop
      vertex 2.87071 -2.5 -1.07819
      vertex 5 -2.5 2.5
      vertex 2.75066 -2.5 -0.901529
    endloop
  endfacet
  facet normal 0 -1 0
    outer loop
      vertex 2.97944 -2.5 -1.26204
      vertex 5 -2.5 2.5
      vertex 2.87071 -2.5 -1.07819
    endloop
  endfacet
  facet normal 0 -1 0
    outer loop
      vertex 5 -2.5 -2.5
      vertex 2.97944 -2.5 -1.26204
      vertex 3.07641 -2.5 -1.45235
    endloop
  endfacet
  facet normal 0 -1 0
    outer loop
      vertex 5 -2.5 -2.5
      vertex 3.07641 -2.5 -1.45235
      vertex 3.16124 -2.5 -1.64838
    endloop
  endfacet
  facet normal 0 -1 0
    outer loop
      vertex 5 -2.5 -2.5
      vertex 3.16124 -2.5 -1.64838
      vertex 3.23359 -2.5 -1.84934
    endloop
  endfacet
  facet normal 0 -1 0
    outer loop
      vertex 5 -2.5 -2.5
      vertex 3.23359 -2.5 -1.84934
      vertex 3.29318 -2.5 -2.05445
    endloop
  endfacet
  facet normal 0 -1 0
    outer loop
      vertex 5 -2.5 -2.5
      vertex 3.29318 -2.5 -2.05445
      vertex 3.33978 -2.5 -2.2629
    endloop
  endfacet
  facet normal 0 -1 0
    outer loop
      vertex 5 -2.5 -2.5
      vertex 3.33978 -2.5 -2.2629
      vertex 3.37319 -2.5 -2.47387
    endloop
  endfacet
  facet normal 0 -1 0
    outer loop
      vertex 5 -2.5 -2.5
      vertex 3.37319 -2.5 -2.47387
      vertex 3.37566 -2.5 -2.5
    endloop
  endfacet
  facet normal 0 -1 0
    outer loop
      vertex 2.97944 -2.5 -1.26204
      vertex 5 -2.5 -2.5
      vertex 5 -2.5 2.5
    endloop
  endfacet
  facet normal 0.0314151 0 -0.999506
    outer loop
      vertex -0.213488 -2.5 0.49329
      vertex -0.160116 2.5 0.494967
      vertex -0.0533719 -2.5 0.498322
    endloop
  endfacet
  facet normal 0.0314151 0 -0.999506
    outer loop
      vertex -0.160116 2.5 0.494967
      vertex -0.213488 -2.5 0.49329
      vertex -0.213488 2.5 0.49329
    endloop
  endfacet
  facet normal -0.995562 0 -0.0941049
    outer loop
      vertex 3.37566 -2.5 -2.5
      vertex 3.37319 2.5 -2.47387
      vertex 3.37566 2.5 -2.5
    endloop
  endfacet
  facet normal -0.995562 -0 -0.0941049
    outer loop
      vertex 3.37319 2.5 -2.47387
      vertex 3.37566 -2.5 -2.5
      vertex 3.37319 -2.5 -2.47387
    endloop
  endfacet
  facet normal -0.975917 0 -0.218142
    outer loop
      vertex 3.33978 -2.5 -2.2629
      vertex 3.29318 2.5 -2.05445
      vertex 3.33978 2.5 -2.2629
    endloop
  endfacet
  facet normal -0.975917 -0 -0.218142
    outer loop
      vertex 3.29318 2.5 -2.05445
      vertex 3.33978 -2.5 -2.2629
      vertex 3.29318 -2.5 -2.05445
    endloop
  endfacet
  facet normal -0.39715 0 -0.917754
    outer loop
      vertex 1.25162 -2.5 0.26124
      vertex 1.44765 2.5 0.176412
      vertex 1.44765 -2.5 0.176412
    endloop
  endfacet
  facet normal -0.39715 0 -0.917754
    outer loop
      vertex 1.44765 2.5 0.176412
      vertex 1.25162 -2.5 0.26124
      vertex 1.25162 2.5 0.26124
    endloop
  endfacet
  facet normal 0.987688 0 -0.156437
    outer loop
      vertex -3.33978 -2.5 -2.2629
      vertex -3.37319 2.5 -2.47387
      vertex -3.33978 2.5 -2.2629
    endloop
  endfacet
  facet normal 0.987688 0 -0.156437
    outer loop
      vertex -3.37319 2.5 -2.47387
      vertex -3.33978 -2.5 -2.2629
      vertex -3.37319 -2.5 -2.47387
    endloop
  endfacet
  facet normal 0.562083 0 -0.827081
    outer loop
      vertex -1.99847 -2.5 -0.149342
      vertex -1.82181 2.5 -0.0292845
      vertex -1.82181 -2.5 -0.0292845
    endloop
  endfacet
  facet normal 0.562083 0 -0.827081
    outer loop
      vertex -1.82181 2.5 -0.0292845
      vertex -1.99847 -2.5 -0.149342
      vertex -1.99847 2.5 -0.149342
    endloop
  endfacet
  facet normal 0.338735 0 -0.940882
    outer loop
      vertex -1.25162 -2.5 0.26124
      vertex -1.05066 2.5 0.333591
      vertex -1.05066 -2.5 0.333591
    endloop
  endfacet
  facet normal 0.338735 0 -0.940882
    outer loop
      vertex -1.05066 2.5 0.333591
      vertex -1.25162 -2.5 0.26124
      vertex -1.25162 2.5 0.26124
    endloop
  endfacet
  facet normal -0.156432 0 -0.987689
    outer loop
      vertex 0.426132 -2.5 0.473189
      vertex 0.637096 2.5 0.439776
      vertex 0.637096 -2.5 0.439776
    endloop
  endfacet
  facet normal -0.156432 0 -0.987689
    outer loop
      vertex 0.637096 2.5 0.439776
      vertex 0.426132 -2.5 0.473189
      vertex 0.426132 2.5 0.473189
    endloop
  endfacet
  facet normal -0.661312 0 -0.750111
    outer loop
      vertex 2.16724 -2.5 -0.280254
      vertex 2.32746 2.5 -0.421506
      vertex 2.32746 -2.5 -0.421506
    endloop
  endfacet
  facet normal -0.661312 0 -0.750111
    outer loop
      vertex 2.32746 2.5 -0.421506
      vertex 2.16724 -2.5 -0.280254
      vertex 2.16724 2.5 -0.280254
    endloop
  endfacet
  facet normal 0.960294 0 -0.27899
    outer loop
      vertex -3.23359 -2.5 -1.84934
      vertex -3.29318 2.5 -2.05445
      vertex -3.23359 2.5 -1.84934
    endloop
  endfacet
  facet normal 0.960294 0 -0.27899
    outer loop
      vertex -3.29318 2.5 -2.05445
      vertex -3.23359 -2.5 -1.84934
      vertex -3.29318 -2.5 -2.05445
    endloop
  endfacet
  facet normal 0.156432 0 -0.987689
    outer loop
      vertex -0.637096 -2.5 0.439776
      vertex -0.426132 2.5 0.473189
      vertex -0.426132 -2.5 0.473189
    endloop
  endfacet
  facet normal 0.156432 0 -0.987689
    outer loop
      vertex -0.426132 2.5 0.473189
      vertex -0.637096 -2.5 0.439776
      vertex -0.637096 2.5 0.439776
    endloop
  endfacet
  facet normal 0.94088 0 -0.33874
    outer loop
      vertex -3.16124 -2.5 -1.64838
      vertex -3.23359 2.5 -1.84934
      vertex -3.16124 2.5 -1.64838
    endloop
  endfacet
  facet normal 0.94088 0 -0.33874
    outer loop
      vertex -3.23359 2.5 -1.84934
      vertex -3.16124 -2.5 -1.64838
      vertex -3.23359 -2.5 -1.84934
    endloop
  endfacet
  facet normal -0.960294 0 -0.27899
    outer loop
      vertex 3.29318 -2.5 -2.05445
      vertex 3.23359 2.5 -1.84934
      vertex 3.29318 2.5 -2.05445
    endloop
  endfacet
  facet normal -0.960294 -0 -0.27899
    outer loop
      vertex 3.23359 2.5 -1.84934
      vertex 3.29318 -2.5 -2.05445
      vertex 3.23359 -2.5 -1.84934
    endloop
  endfacet
  facet normal -0.0314107 -9.53204e-08 -0.999507
    outer loop
      vertex 0 2.5 0.499999
      vertex 0.0533719 -2.5 0.498322
      vertex 0 -2.5 0.5
    endloop
  endfacet
  facet normal -0.0314107 -9.53204e-08 -0.999507
    outer loop
      vertex 0.0533719 -2.5 0.498322
      vertex 0 2.5 0.499999
      vertex 0.160116 2.5 0.494967
    endloop
  endfacet
  facet normal -0.338735 0 -0.940882
    outer loop
      vertex 1.05066 -2.5 0.333591
      vertex 1.25162 2.5 0.26124
      vertex 1.25162 -2.5 0.26124
    endloop
  endfacet
  facet normal -0.338735 0 -0.940882
    outer loop
      vertex 1.25162 2.5 0.26124
      vertex 1.05066 -2.5 0.333591
      vertex 1.05066 2.5 0.333591
    endloop
  endfacet
  facet normal -0.453991 0 -0.891006
    outer loop
      vertex 1.44765 -2.5 0.176412
      vertex 1.63796 2.5 0.079442
      vertex 1.63796 -2.5 0.079442
    endloop
  endfacet
  facet normal -0.453991 0 -0.891006
    outer loop
      vertex 1.63796 2.5 0.079442
      vertex 1.44765 -2.5 0.176412
      vertex 1.44765 2.5 0.176412
    endloop
  endfacet
  facet normal 0.0941072 0 -0.995562
    outer loop
      vertex -0.426132 -2.5 0.473189
      vertex -0.213488 2.5 0.49329
      vertex -0.213488 -2.5 0.49329
    endloop
  endfacet
  facet normal 0.0941072 0 -0.995562
    outer loop
      vertex -0.213488 2.5 0.49329
      vertex -0.426132 -2.5 0.473189
      vertex -0.426132 2.5 0.473189
    endloop
  endfacet
  facet normal 0.453991 0 -0.891006
    outer loop
      vertex -1.63796 -2.5 0.079442
      vertex -1.44765 2.5 0.176412
      vertex -1.44765 -2.5 0.176412
    endloop
  endfacet
  facet normal 0.453991 0 -0.891006
    outer loop
      vertex -1.44765 2.5 0.176412
      vertex -1.63796 -2.5 0.079442
      vertex -1.63796 2.5 0.079442
    endloop
  endfacet
  facet normal 0.39715 0 -0.917754
    outer loop
      vertex -1.44765 -2.5 0.176412
      vertex -1.25162 2.5 0.26124
      vertex -1.25162 -2.5 0.26124
    endloop
  endfacet
  facet normal 0.39715 0 -0.917754
    outer loop
      vertex -1.25162 2.5 0.26124
      vertex -1.44765 -2.5 0.176412
      vertex -1.44765 2.5 0.176412
    endloop
  endfacet
  facet normal 0.661312 0 -0.750111
    outer loop
      vertex -2.32746 -2.5 -0.421506
      vertex -2.16724 2.5 -0.280254
      vertex -2.16724 -2.5 -0.280254
    endloop
  endfacet
  facet normal 0.661312 0 -0.750111
    outer loop
      vertex -2.16724 2.5 -0.280254
      vertex -2.32746 -2.5 -0.421506
      vertex -2.32746 2.5 -0.421506
    endloop
  endfacet
  facet normal 0.790155 0 -0.612907
    outer loop
      vertex -2.61974 -2.5 -0.732758
      vertex -2.75066 2.5 -0.901529
      vertex -2.61974 2.5 -0.732758
    endloop
  endfacet
  facet normal 0.790155 0 -0.612907
    outer loop
      vertex -2.75066 2.5 -0.901529
      vertex -2.61974 -2.5 -0.732758
      vertex -2.75066 -2.5 -0.901529
    endloop
  endfacet
  facet normal 0.612907 0 -0.790155
    outer loop
      vertex -2.16724 -2.5 -0.280254
      vertex -1.99847 2.5 -0.149342
      vertex -1.99847 -2.5 -0.149342
    endloop
  endfacet
  facet normal 0.612907 0 -0.790155
    outer loop
      vertex -1.99847 2.5 -0.149342
      vertex -2.16724 -2.5 -0.280254
      vertex -2.16724 2.5 -0.280254
    endloop
  endfacet
  facet normal 0.86074 0 -0.509044
    outer loop
      vertex -2.87071 -2.5 -1.07819
      vertex -2.97944 2.5 -1.26204
      vertex -2.87071 2.5 -1.07819
    endloop
  endfacet
  facet normal 0.86074 0 -0.509044
    outer loop
      vertex -2.97944 2.5 -1.26204
      vertex -2.87071 -2.5 -1.07819
      vertex -2.97944 -2.5 -1.26204
    endloop
  endfacet
  facet normal 0.827082 0 -0.562081
    outer loop
      vertex -2.75066 -2.5 -0.901529
      vertex -2.87071 2.5 -1.07819
      vertex -2.75066 2.5 -0.901529
    endloop
  endfacet
  facet normal 0.827082 0 -0.562081
    outer loop
      vertex -2.87071 2.5 -1.07819
      vertex -2.75066 -2.5 -0.901529
      vertex -2.87071 -2.5 -1.07819
    endloop
  endfacet
  facet normal -0.987688 0 -0.156437
    outer loop
      vertex 3.37319 -2.5 -2.47387
      vertex 3.33978 2.5 -2.2629
      vertex 3.37319 2.5 -2.47387
    endloop
  endfacet
  facet normal -0.987688 -0 -0.156437
    outer loop
      vertex 3.33978 2.5 -2.2629
      vertex 3.37319 -2.5 -2.47387
      vertex 3.33978 -2.5 -2.2629
    endloop
  endfacet
  facet normal -0.0941072 0 -0.995562
    outer loop
      vertex 0.213488 -2.5 0.49329
      vertex 0.426132 2.5 0.473189
      vertex 0.426132 -2.5 0.473189
    endloop
  endfacet
  facet normal -0.0941072 0 -0.995562
    outer loop
      vertex 0.426132 2.5 0.473189
      vertex 0.213488 -2.5 0.49329
      vertex 0.213488 2.5 0.49329
    endloop
  endfacet
  facet normal -0.0314151 0 -0.999506
    outer loop
      vertex 0.213488 -2.5 0.49329
      vertex 0.160116 2.5 0.494967
      vertex 0.213488 2.5 0.49329
    endloop
  endfacet
  facet normal -0.0314151 0 -0.999506
    outer loop
      vertex 0.160116 2.5 0.494967
      vertex 0.213488 -2.5 0.49329
      vertex 0.0533719 -2.5 0.498322
    endloop
  endfacet
  facet normal 0.0314107 -9.53204e-08 -0.999507
    outer loop
      vertex -0.0533719 -2.5 0.498322
      vertex 0 2.5 0.499999
      vertex 0 -2.5 0.5
    endloop
  endfacet
  facet normal 0.0314107 -9.53204e-08 -0.999507
    outer loop
      vertex 0 2.5 0.499999
      vertex -0.0533719 -2.5 0.498322
      vertex -0.160116 2.5 0.494967
    endloop
  endfacet
  facet normal -0.218147 0 -0.975916
    outer loop
      vertex 0.637096 -2.5 0.439776
      vertex 0.845545 2.5 0.393182
      vertex 0.845545 -2.5 0.393182
    endloop
  endfacet
  facet normal -0.218147 0 -0.975916
    outer loop
      vertex 0.845545 2.5 0.393182
      vertex 0.637096 -2.5 0.439776
      vertex 0.637096 2.5 0.439776
    endloop
  endfacet
  facet normal -0.790155 0 -0.612907
    outer loop
      vertex 2.75066 -2.5 -0.901529
      vertex 2.61974 2.5 -0.732758
      vertex 2.75066 2.5 -0.901529
    endloop
  endfacet
  facet normal -0.790155 -0 -0.612907
    outer loop
      vertex 2.61974 2.5 -0.732758
      vertex 2.75066 -2.5 -0.901529
      vertex 2.61974 -2.5 -0.732758
    endloop
  endfacet
  facet normal -0.707107 0 -0.707107
    outer loop
      vertex 2.47849 -2.5 -0.572539
      vertex 2.32746 2.5 -0.421506
      vertex 2.47849 2.5 -0.572539
    endloop
  endfacet
  facet normal -0.707107 -0 -0.707107
    outer loop
      vertex 2.32746 2.5 -0.421506
      vertex 2.47849 -2.5 -0.572539
      vertex 2.32746 -2.5 -0.421506
    endloop
  endfacet
  facet normal -0.509038 0 -0.860744
    outer loop
      vertex 1.63796 -2.5 0.079442
      vertex 1.82181 2.5 -0.0292845
      vertex 1.82181 -2.5 -0.0292845
    endloop
  endfacet
  facet normal -0.509038 0 -0.860744
    outer loop
      vertex 1.82181 2.5 -0.0292845
      vertex 1.63796 -2.5 0.079442
      vertex 1.63796 2.5 0.079442
    endloop
  endfacet
  facet normal 0.509038 0 -0.860744
    outer loop
      vertex -1.82181 -2.5 -0.0292845
      vertex -1.63796 2.5 0.079442
      vertex -1.63796 -2.5 0.079442
    endloop
  endfacet
  facet normal 0.509038 0 -0.860744
    outer loop
      vertex -1.63796 2.5 0.079442
      vertex -1.82181 -2.5 -0.0292845
      vertex -1.82181 2.5 -0.0292845
    endloop
  endfacet
  facet normal 0.27899 0 -0.960294
    outer loop
      vertex -1.05066 -2.5 0.333591
      vertex -0.845545 2.5 0.393182
      vertex -0.845545 -2.5 0.393182
    endloop
  endfacet
  facet normal 0.27899 0 -0.960294
    outer loop
      vertex -0.845545 2.5 0.393182
      vertex -1.05066 -2.5 0.333591
      vertex -1.05066 2.5 0.333591
    endloop
  endfacet
  facet normal 0.975917 0 -0.218142
    outer loop
      vertex -3.29318 -2.5 -2.05445
      vertex -3.33978 2.5 -2.2629
      vertex -3.29318 2.5 -2.05445
    endloop
  endfacet
  facet normal 0.975917 0 -0.218142
    outer loop
      vertex -3.33978 2.5 -2.2629
      vertex -3.29318 -2.5 -2.05445
      vertex -3.33978 -2.5 -2.2629
    endloop
  endfacet
  facet normal 0.750111 0 -0.661312
    outer loop
      vertex -2.47849 -2.5 -0.572539
      vertex -2.61974 2.5 -0.732758
      vertex -2.47849 2.5 -0.572539
    endloop
  endfacet
  facet normal 0.750111 0 -0.661312
    outer loop
      vertex -2.61974 2.5 -0.732758
      vertex -2.47849 -2.5 -0.572539
      vertex -2.61974 -2.5 -0.732758
    endloop
  endfacet
  facet normal 0.891007 0 -0.453989
    outer loop
      vertex -2.97944 -2.5 -1.26204
      vertex -3.07641 2.5 -1.45235
      vertex -2.97944 2.5 -1.26204
    endloop
  endfacet
  facet normal 0.891007 0 -0.453989
    outer loop
      vertex -3.07641 2.5 -1.45235
      vertex -2.97944 -2.5 -1.26204
      vertex -3.07641 -2.5 -1.45235
    endloop
  endfacet
  facet normal 0.917755 0 -0.397148
    outer loop
      vertex -3.07641 -2.5 -1.45235
      vertex -3.16124 2.5 -1.64838
      vertex -3.07641 2.5 -1.45235
    endloop
  endfacet
  facet normal 0.917755 0 -0.397148
    outer loop
      vertex -3.16124 2.5 -1.64838
      vertex -3.07641 -2.5 -1.45235
      vertex -3.16124 -2.5 -1.64838
    endloop
  endfacet
  facet normal -0.27899 0 -0.960294
    outer loop
      vertex 0.845545 -2.5 0.393182
      vertex 1.05066 2.5 0.333591
      vertex 1.05066 -2.5 0.333591
    endloop
  endfacet
  facet normal -0.27899 0 -0.960294
    outer loop
      vertex 1.05066 2.5 0.333591
      vertex 0.845545 -2.5 0.393182
      vertex 0.845545 2.5 0.393182
    endloop
  endfacet
  facet normal -0.86074 0 -0.509044
    outer loop
      vertex 2.97944 -2.5 -1.26204
      vertex 2.87071 2.5 -1.07819
      vertex 2.97944 2.5 -1.26204
    endloop
  endfacet
  facet normal -0.86074 -0 -0.509044
    outer loop
      vertex 2.87071 2.5 -1.07819
      vertex 2.97944 -2.5 -1.26204
      vertex 2.87071 -2.5 -1.07819
    endloop
  endfacet
  facet normal -0.827082 0 -0.562081
    outer loop
      vertex 2.87071 -2.5 -1.07819
      vertex 2.75066 2.5 -0.901529
      vertex 2.87071 2.5 -1.07819
    endloop
  endfacet
  facet normal -0.827082 -0 -0.562081
    outer loop
      vertex 2.75066 2.5 -0.901529
      vertex 2.87071 -2.5 -1.07819
      vertex 2.75066 -2.5 -0.901529
    endloop
  endfacet
  facet normal -0.891007 0 -0.453989
    outer loop
      vertex 3.07641 -2.5 -1.45235
      vertex 2.97944 2.5 -1.26204
      vertex 3.07641 2.5 -1.45235
    endloop
  endfacet
  facet normal -0.891007 -0 -0.453989
    outer loop
      vertex 2.97944 2.5 -1.26204
      vertex 3.07641 -2.5 -1.45235
      vertex 2.97944 -2.5 -1.26204
    endloop
  endfacet
  facet normal -0.750111 0 -0.661312
    outer loop
      vertex 2.61974 -2.5 -0.732758
      vertex 2.47849 2.5 -0.572539
      vertex 2.61974 2.5 -0.732758
    endloop
  endfacet
  facet normal -0.750111 -0 -0.661312
    outer loop
      vertex 2.47849 2.5 -0.572539
      vertex 2.61974 -2.5 -0.732758
      vertex 2.47849 -2.5 -0.572539
    endloop
  endfacet
  facet normal -0.612907 0 -0.790155
    outer loop
      vertex 1.99847 -2.5 -0.149342
      vertex 2.16724 2.5 -0.280254
      vertex 2.16724 -2.5 -0.280254
    endloop
  endfacet
  facet normal -0.612907 0 -0.790155
    outer loop
      vertex 2.16724 2.5 -0.280254
      vertex 1.99847 -2.5 -0.149342
      vertex 1.99847 2.5 -0.149342
    endloop
  endfacet
  facet normal -0.562083 0 -0.827081
    outer loop
      vertex 1.82181 -2.5 -0.0292845
      vertex 1.99847 2.5 -0.149342
      vertex 1.99847 -2.5 -0.149342
    endloop
  endfacet
  facet normal -0.562083 0 -0.827081
    outer loop
      vertex 1.99847 2.5 -0.149342
      vertex 1.82181 -2.5 -0.0292845
      vertex 1.82181 2.5 -0.0292845
    endloop
  endfacet
  facet normal 0.218147 0 -0.975916
    outer loop
      vertex -0.845545 -2.5 0.393182
      vertex -0.637096 2.5 0.439776
      vertex -0.637096 -2.5 0.439776
    endloop
  endfacet
  facet normal 0.218147 0 -0.975916
    outer loop
      vertex -0.637096 2.5 0.439776
      vertex -0.845545 -2.5 0.393182
      vertex -0.845545 2.5 0.393182
    endloop
  endfacet
  facet normal 0.707107 0 -0.707107
    outer loop
      vertex -2.32746 -2.5 -0.421506
      vertex -2.47849 2.5 -0.572539
      vertex -2.32746 2.5 -0.421506
    endloop
  endfacet
  facet normal 0.707107 0 -0.707107
    outer loop
      vertex -2.47849 2.5 -0.572539
      vertex -2.32746 -2.5 -0.421506
      vertex -2.47849 -2.5 -0.572539
    endloop
  endfacet
  facet normal 0.995562 0 -0.0941049
    outer loop
      vertex -3.37319 -2.5 -2.47387
      vertex -3.37566 2.5 -2.5
      vertex -3.37319 2.5 -2.47387
    endloop
  endfacet
  facet normal 0.995562 0 -0.0941049
    outer loop
      vertex -3.37566 2.5 -2.5
      vertex -3.37319 -2.5 -2.47387
      vertex -3.37566 -2.5 -2.5
    endloop
  endfacet
  facet normal -0.917755 0 -0.397148
    outer loop
      vertex 3.16124 -2.5 -1.64838
      vertex 3.07641 2.5 -1.45235
      vertex 3.16124 2.5 -1.64838
    endloop
  endfacet
  facet normal -0.917755 -0 -0.397148
    outer loop
      vertex 3.07641 2.5 -1.45235
      vertex 3.16124 -2.5 -1.64838
      vertex 3.07641 -2.5 -1.45235
    endloop
  endfacet
  facet normal -0.94088 0 -0.33874
    outer loop
      vertex 3.23359 -2.5 -1.84934
      vertex 3.16124 2.5 -1.64838
      vertex 3.23359 2.5 -1.84934
    endloop
  endfacet
  facet normal -0.94088 -0 -0.33874
    outer loop
      vertex 3.16124 2.5 -1.64838
      vertex 3.23359 -2.5 -1.84934
      vertex 3.16124 -2.5 -1.64838
    endloop
  endfacet
endsolid OpenSCAD_Model
