solid OpenSCAD_Model
  facet normal -1 0 0
    outer loop
      vertex -5 -2.5 -2.5
      vertex -5 2.5 2.5
      vertex -5 2.5 -2.5
    endloop
  endfacet
  facet normal -1 -0 0
    outer loop
      vertex -5 2.5 2.5
      vertex -5 -2.5 -2.5
      vertex -5 -2.5 2.5
    endloop
  endfacet
  facet normal -0 0 1
    outer loop
      vertex -5 2.5 2.5
      vertex 5 -2.5 2.5
      vertex 5 2.5 2.5
    endloop
  endfacet
  facet normal 0 0 1
    outer loop
      vertex 5 -2.5 2.5
      vertex -5 2.5 2.5
      vertex -5 -2.5 2.5
    endloop
  endfacet
  facet normal 1 -0 0
    outer loop
      vertex 5 -2.5 2.5
      vertex 5 2.5 -2.5
      vertex 5 2.5 2.5
    endloop
  endfacet
  facet normal 1 0 0
    outer loop
      vertex 5 2.5 -2.5
      vertex 5 -2.5 2.5
      vertex 5 -2.5 -2.5
    endloop
  endfacet
  facet normal 0 1 0
    outer loop
      vertex 5 2.5 2.5
      vertex 0 2.5 0.9
      vertex -5 2.5 2.5
    endloop
  endfacet
  facet normal 0 1 0
    outer loop
      vertex 5 2.5 2.5
      vertex 0.226046 2.5 0.892896
      vertex 0 2.5 0.9
    endloop
  endfacet
  facet normal 0 1 0
    outer loop
      vertex 5 2.5 2.5
      vertex 0.4512 2.5 0.871613
      vertex 0.226046 2.5 0.892896
    endloop
  endfacet
  facet normal 0 1 0
    outer loop
      vertex 5 2.5 2.5
      vertex 0.674572 2.5 0.836234
      vertex 0.4512 2.5 0.871613
    endloop
  endfacet
  facet normal 0 1 0
    outer loop
      vertex 5 2.5 2.5
      vertex 0.895283 2.5 0.786899
      vertex 0.674572 2.5 0.836234
    endloop
  endfacet
  facet normal 0 1 0
    outer loop
      vertex 5 2.5 2.5
      vertex 1.11246 2.5 0.723803
      vertex 0.895283 2.5 0.786899
    endloop
  endfacet
  facet normal 0 1 0
    outer loop
      vertex 5 2.5 2.5
      vertex 1.32525 2.5 0.647195
      vertex 1.11246 2.5 0.723803
    endloop
  endfacet
  facet normal 0 1 0
    outer loop
      vertex 5 2.5 2.5
      vertex 1.53281 2.5 0.557377
      vertex 1.32525 2.5 0.647195
    endloop
  endfacet
  facet normal 0 1 0
    outer loop
      vertex 5 2.5 2.5
      vertex 1.73431 2.5 0.454703
      vertex 1.53281 2.5 0.557377
    endloop
  endfacet
  facet normal 0 1 0
    outer loop
      vertex 5 2.5 2.5
      vertex 1.92898 2.5 0.33958
      vertex 1.73431 2.5 0.454703
    endloop
  endfacet
  facet normal 0 1 0
    outer loop
      vertex 5 2.5 2.5
      vertex 2.11603 2.5 0.212461
      vertex 1.92898 2.5 0.33958
    endloop
  endfacet
  facet normal 0 1 0
    outer loop
      vertex 5 2.5 2.5
      vertex 2.29473 2.5 0.0738468
      vertex 2.11603 2.5 0.212461
    endloop
  endfacet
  facet normal 0 1 0
    outer loop
      vertex 5 2.5 2.5
      vertex 2.46437 2.5 -0.0757122
      vertex 2.29473 2.5 0.0738468
    endloop
  endfacet
  facet normal 0 1 0
    outer loop
      vertex 5 2.5 2.5
      vertex 2.62429 2.5 -0.23563
      vertex 2.46437 2.5 -0.0757122
    endloop
  endfacet
  facet normal 0 1 0
    outer loop
      vertex 5 2.5 2.5
      vertex 2.77385 2.5 -0.405273
      vertex 2.62429 2.5 -0.23563
    endloop
  endfacet
  facet normal 0 1 0
    outer loop
      vertex 5 2.5 2.5
      vertex 2.91246 2.5 -0.583973
      vertex 2.77385 2.5 -0.405273
    endloop
  endfacet
  facet normal 0 1 0
    outer loop
      vertex 5 2.5 2.5
      vertex 3.03958 2.5 -0.771023
      vertex 2.91246 2.5 -0.583973
    endloop
  endfacet
  facet normal 0 1 0
    outer loop
      vertex 5 2.5 2.5
      vertex 3.1547 2.5 -0.965686
      vertex 3.03958 2.5 -0.771023
    endloop
  endfacet
  facet normal 0 1 0
    outer loop
      vertex 5 2.5 2.5
      vertex 3.25738 2.5 -1.16719
      vertex 3.1547 2.5 -0.965686
    endloop
  endfacet
  facet normal 0 1 -0
    outer loop
      vertex 5 2.5 -2.5
      vertex 3.25738 2.5 -1.16719
      vertex 5 2.5 2.5
    endloop
  endfacet
  facet normal 0 1 0
    outer loop
      vertex 3.25738 2.5 -1.16719
      vertex 5 2.5 -2.5
      vertex 3.34719 2.5 -1.37475
    endloop
  endfacet
  facet normal 0 1 0
    outer loop
      vertex 3.34719 2.5 -1.37475
      vertex 5 2.5 -2.5
      vertex 3.4238 2.5 -1.58754
    endloop
  endfacet
  facet normal 0 1 0
    outer loop
      vertex 3.4238 2.5 -1.58754
      vertex 5 2.5 -2.5
      vertex 3.4869 2.5 -1.80472
    endloop
  endfacet
  facet normal 0 1 0
    outer loop
      vertex 3.4869 2.5 -1.80472
      vertex 5 2.5 -2.5
      vertex 3.53623 2.5 -2.02543
    endloop
  endfacet
  facet normal 0 1 0
    outer loop
      vertex 3.53623 2.5 -2.02543
      vertex 5 2.5 -2.5
      vertex 3.57161 2.5 -2.2488
    endloop
  endfacet
  facet normal 0 1 0
    outer loop
      vertex 3.57161 2.5 -2.2488
      vertex 5 2.5 -2.5
      vertex 3.5929 2.5 -2.47395
    endloop
  endfacet
  facet normal 0 1 0
    outer loop
      vertex 3.5929 2.5 -2.47395
      vertex 5 2.5 -2.5
      vertex 3.59371 2.5 -2.5
    endloop
  endfacet
  facet normal 0 1 -0
    outer loop
      vertex -0.226046 2.5 0.892896
      vertex -5 2.5 2.5
      vertex 0 2.5 0.9
    endloop
  endfacet
  facet normal 0 1 -0
    outer loop
      vertex -0.4512 2.5 0.871613
      vertex -5 2.5 2.5
      vertex -0.226046 2.5 0.892896
    endloop
  endfacet
  facet normal 0 1 -0
    outer loop
      vertex -0.674572 2.5 0.836234
      vertex -5 2.5 2.5
      vertex -0.4512 2.5 0.871613
    endloop
  endfacet
  facet normal 0 1 -0
    outer loop
      vertex -0.895283 2.5 0.786899
      vertex -5 2.5 2.5
      vertex -0.674572 2.5 0.836234
    endloop
  endfacet
  facet normal 0 1 -0
    outer loop
      vertex -1.11246 2.5 0.723803
      vertex -5 2.5 2.5
      vertex -0.895283 2.5 0.786899
    endloop
  endfacet
  facet normal 0 1 -0
    outer loop
      vertex -1.32525 2.5 0.647195
      vertex -5 2.5 2.5
      vertex -1.11246 2.5 0.723803
    endloop
  endfacet
  facet normal 0 1 -0
    outer loop
      vertex -1.53281 2.5 0.557377
      vertex -5 2.5 2.5
      vertex -1.32525 2.5 0.647195
    endloop
  endfacet
  facet normal 0 1 -0
    outer loop
      vertex -1.73431 2.5 0.454703
      vertex -5 2.5 2.5
      vertex -1.53281 2.5 0.557377
    endloop
  endfacet
  facet normal 0 1 -0
    outer loop
      vertex -1.92898 2.5 0.33958
      vertex -5 2.5 2.5
      vertex -1.73431 2.5 0.454703
    endloop
  endfacet
  facet normal 0 1 -0
    outer loop
      vertex -2.11603 2.5 0.212461
      vertex -5 2.5 2.5
      vertex -1.92898 2.5 0.33958
    endloop
  endfacet
  facet normal 0 1 -0
    outer loop
      vertex -2.29473 2.5 0.0738468
      vertex -5 2.5 2.5
      vertex -2.11603 2.5 0.212461
    endloop
  endfacet
  facet normal 0 1 -0
    outer loop
      vertex -2.46437 2.5 -0.0757122
      vertex -5 2.5 2.5
      vertex -2.29473 2.5 0.0738468
    endloop
  endfacet
  facet normal 0 1 -0
    outer loop
      vertex -2.62429 2.5 -0.23563
      vertex -5 2.5 2.5
      vertex -2.46437 2.5 -0.0757122
    endloop
  endfacet
  facet normal 0 1 -0
    outer loop
      vertex -2.77385 2.5 -0.405273
      vertex -5 2.5 2.5
      vertex -2.62429 2.5 -0.23563
    endloop
  endfacet
  facet normal 0 1 -0
    outer loop
      vertex -2.91246 2.5 -0.583973
      vertex -5 2.5 2.5
      vertex -2.77385 2.5 -0.405273
    endloop
  endfacet
  facet normal 0 1 -0
    outer loop
      vertex -3.03958 2.5 -0.771023
      vertex -5 2.5 2.5
      vertex -2.91246 2.5 -0.583973
    endloop
  endfacet
  facet normal 0 1 -0
    outer loop
      vertex -3.1547 2.5 -0.965686
      vertex -5 2.5 2.5
      vertex -3.03958 2.5 -0.771023
    endloop
  endfacet
  facet normal 0 1 -0
    outer loop
      vertex -3.25738 2.5 -1.16719
      vertex -5 2.5 2.5
      vertex -3.1547 2.5 -0.965686
    endloop
  endfacet
  facet normal 0 1 0
    outer loop
      vertex -5 2.5 -2.5
      vertex -3.25738 2.5 -1.16719
      vertex -3.34719 2.5 -1.37475
    endloop
  endfacet
  facet normal 0 1 0
    outer loop
      vertex -5 2.5 -2.5
      vertex -3.34719 2.5 -1.37475
      vertex -3.4238 2.5 -1.58754
    endloop
  endfacet
  facet normal 0 1 0
    outer loop
      vertex -5 2.5 -2.5
      vertex -3.4238 2.5 -1.58754
      vertex -3.4869 2.5 -1.80472
    endloop
  endfacet
  facet normal 0 1 0
    outer loop
      vertex -5 2.5 -2.5
      vertex -3.4869 2.5 -1.80472
      vertex -3.53623 2.5 -2.02543
    endloop
  endfacet
  facet normal 0 1 0
    outer loop
      vertex -5 2.5 -2.5
      vertex -3.53623 2.5 -2.02543
      vertex -3.57161 2.5 -2.2488
    endloop
  endfacet
  facet normal 0 1 0
    outer loop
      vertex -5 2.5 -2.5
      vertex -3.57161 2.5 -2.2488
      vertex -3.5929 2.5 -2.47395
    endloop
  endfacet
  facet normal 0 1 0
    outer loop
      vertex -5 2.5 -2.5
      vertex -3.5929 2.5 -2.47395
      vertex -3.59371 2.5 -2.5
    endloop
  endfacet
  facet normal 0 1 0
    outer loop
      vertex -3.25738 2.5 -1.16719
      vertex -5 2.5 -2.5
      vertex -5 2.5 2.5
    endloop
  endfacet
  facet normal 0 0 -1
    outer loop
      vertex -5 -2.5 -2.5
      vertex -3.59371 2.5 -2.5
      vertex -3.59371 -2.5 -2.5
    endloop
  endfacet
  facet normal -0 0 -1
    outer loop
      vertex -3.59371 2.5 -2.5
      vertex -5 -2.5 -2.5
      vertex -5 2.5 -2.5
    endloop
  endfacet
  facet normal 0 0 -1
    outer loop
      vertex 3.59371 -2.5 -2.5
      vertex 5 2.5 -2.5
      vertex 5 -2.5 -2.5
    endloop
  endfacet
  facet normal -0 0 -1
    outer loop
      vertex 5 2.5 -2.5
      vertex 3.59371 -2.5 -2.5
      vertex 3.59371 2.5 -2.5
    endloop
  endfacet
  facet normal 0 -1 0
    outer loop
      vertex -5 -2.5 2.5
      vertex 0 -2.5 0.9
      vertex 5 -2.5 2.5
    endloop
  endfacet
  facet normal 0 -1 0
    outer loop
      vertex -5 -2.5 2.5
      vertex -0.226046 -2.5 0.892896
      vertex 0 -2.5 0.9
    endloop
  endfacet
  facet normal 0 -1 0
    outer loop
      vertex -5 -2.5 2.5
      vertex -0.4512 -2.5 0.871613
      vertex -0.226046 -2.5 0.892896
    endloop
  endfacet
  facet normal 0 -1 0
    outer loop
      vertex -5 -2.5 2.5
      vertex -0.674572 -2.5 0.836234
      vertex -0.4512 -2.5 0.871613
    endloop
  endfacet
  facet normal 0 -1 0
    outer loop
      vertex -5 -2.5 2.5
      vertex -0.895283 -2.5 0.786899
      vertex -0.674572 -2.5 0.836234
    endloop
  endfacet
  facet normal 0 -1 0
    outer loop
      vertex -5 -2.5 2.5
      vertex -1.11246 -2.5 0.723803
      vertex -0.895283 -2.5 0.786899
    endloop
  endfacet
  facet normal 0 -1 0
    outer loop
      vertex -5 -2.5 2.5
      vertex -1.32525 -2.5 0.647195
      vertex -1.11246 -2.5 0.723803
    endloop
  endfacet
  facet normal 0 -1 0
    outer loop
      vertex -5 -2.5 2.5
      vertex -1.53281 -2.5 0.557377
      vertex -1.32525 -2.5 0.647195
    endloop
  endfacet
  facet normal 0 -1 0
    outer loop
      vertex -5 -2.5 2.5
      vertex -1.73431 -2.5 0.454703
      vertex -1.53281 -2.5 0.557377
    endloop
  endfacet
  facet normal 0 -1 0
    outer loop
      vertex -5 -2.5 2.5
      vertex -1.92898 -2.5 0.33958
      vertex -1.73431 -2.5 0.454703
    endloop
  endfacet
  facet normal 0 -1 0
    outer loop
      vertex -5 -2.5 2.5
      vertex -2.11603 -2.5 0.212461
      vertex -1.92898 -2.5 0.33958
    endloop
  endfacet
  facet normal 0 -1 0
    outer loop
      vertex -5 -2.5 2.5
      vertex -2.29473 -2.5 0.0738468
      vertex -2.11603 -2.5 0.212461
    endloop
  endfacet
  facet normal 0 -1 0
    outer loop
      vertex -5 -2.5 2.5
      vertex -2.46437 -2.5 -0.0757122
      vertex -2.29473 -2.5 0.0738468
    endloop
  endfacet
  facet normal 0 -1 0
    outer loop
      vertex -5 -2.5 2.5
      vertex -2.62429 -2.5 -0.23563
      vertex -2.46437 -2.5 -0.0757122
    endloop
  endfacet
  facet normal 0 -1 0
    outer loop
      vertex -5 -2.5 2.5
      vertex -2.77385 -2.5 -0.405273
      vertex -2.62429 -2.5 -0.23563
    endloop
  endfacet
  facet normal 0 -1 0
    outer loop
      vertex -5 -2.5 2.5
      vertex -2.91246 -2.5 -0.583973
      vertex -2.77385 -2.5 -0.405273
    endloop
  endfacet
  facet normal 0 -1 0
    outer loop
      vertex -5 -2.5 2.5
      vertex -3.03958 -2.5 -0.771023
      vertex -2.91246 -2.5 -0.583973
    endloop
  endfacet
  facet normal 0 -1 0
    outer loop
      vertex -5 -2.5 2.5
      vertex -3.1547 -2.5 -0.965686
      vertex -3.03958 -2.5 -0.771023
    endloop
  endfacet
  facet normal 0 -1 0
    outer loop
      vertex -5 -2.5 2.5
      vertex -3.25738 -2.5 -1.16719
      vertex -3.1547 -2.5 -0.965686
    endloop
  endfacet
  facet normal 0 -1 0
    outer loop
      vertex -5 -2.5 -2.5
      vertex -3.25738 -2.5 -1.16719
      vertex -5 -2.5 2.5
    endloop
  endfacet
  facet normal 0 -1 0
    outer loop
      vertex -3.25738 -2.5 -1.16719
      vertex -5 -2.5 -2.5
      vertex -3.34719 -2.5 -1.37475
    endloop
  endfacet
  facet normal 0 -1 0
    outer loop
      vertex -3.34719 -2.5 -1.37475
      vertex -5 -2.5 -2.5
      vertex -3.4238 -2.5 -1.58754
    endloop
  endfacet
  facet normal 0 -1 0
    outer loop
      vertex -3.4238 -2.5 -1.58754
      vertex -5 -2.5 -2.5
      vertex -3.4869 -2.5 -1.80472
    endloop
  endfacet
  facet normal 0 -1 0
    outer loop
      vertex -3.4869 -2.5 -1.80472
      vertex -5 -2.5 -2.5
      vertex -3.53623 -2.5 -2.02543
    endloop
  endfacet
  facet normal 0 -1 0
    outer loop
      vertex -3.53623 -2.5 -2.02543
      vertex -5 -2.5 -2.5
      vertex -3.57161 -2.5 -2.2488
    endloop
  endfacet
  facet normal 0 -1 0
    outer loop
      vertex -3.57161 -2.5 -2.2488
      vertex -5 -2.5 -2.5
      vertex -3.5929 -2.5 -2.47395
    endloop
  endfacet
  facet normal 0 -1 0
    outer loop
      vertex -3.5929 -2.5 -2.47395
      vertex -5 -2.5 -2.5
      vertex -3.59371 -2.5 -2.5
    endloop
  endfacet
  facet normal 0 -1 0
    outer loop
      vertex 0.226046 -2.5 0.892896
      vertex 5 -2.5 2.5
      vertex 0 -2.5 0.9
    endloop
  endfacet
  facet normal 0 -1 0
    outer loop
      vertex 0.4512 -2.5 0.871613
      vertex 5 -2.5 2.5
      vertex 0.226046 -2.5 0.892896
    endloop
  endfacet
  facet normal 0 -1 0
    outer loop
      vertex 0.674572 -2.5 0.836234
      vertex 5 -2.5 2.5
      vertex 0.4512 -2.5 0.871613
    endloop
  endfacet
  facet normal 0 -1 0
    outer loop
      vertex 0.895283 -2.5 0.786899
      vertex 5 -2.5 2.5
      vertex 0.674572 -2.5 0.836234
    endloop
  endfacet
  facet normal 0 -1 0
    outer loop
      vertex 1.11246 -2.5 0.723803
      vertex 5 -2.5 2.5
      vertex 0.895283 -2.5 0.786899
    endloop
  endfacet
  facet normal 0 -1 0
    outer loop
      vertex 1.32525 -2.5 0.647195
      vertex 5 -2.5 2.5
      vertex 1.11246 -2.5 0.723803
    endloop
  endfacet
  facet normal 0 -1 0
    outer loop
      vertex 1.53281 -2.5 0.557377
      vertex 5 -2.5 2.5
      vertex 1.32525 -2.5 0.647195
    endloop
  endfacet
  facet normal 0 -1 0
    outer loop
      vertex 1.73431 -2.5 0.454703
      vertex 5 -2.5 2.5
      vertex 1.53281 -2.5 0.557377
    endloop
  endfacet
  facet normal 0 -1 0
    outer loop
      vertex 1.92898 -2.5 0.33958
      vertex 5 -2.5 2.5
      vertex 1.73431 -2.5 0.454703
    endloop
  endfacet
  facet normal 0 -1 0
    outer loop
      vertex 2.11603 -2.5 0.212461
      vertex 5 -2.5 2.5
      vertex 1.92898 -2.5 0.33958
    endloop
  endfacet
  facet normal 0 -1 0
    outer loop
      vertex 2.29473 -2.5 0.0738468
      vertex 5 -2.5 2.5
      vertex 2.11603 -2.5 0.212461
    endloop
  endfacet
  facet normal 0 -1 0
    outer loop
      vertex 2.46437 -2.5 -0.0757122
      vertex 5 -2.5 2.5
      vertex 2.29473 -2.5 0.0738468
    endloop
  endfacet
  facet normal 0 -1 0
    outer loop
      vertex 2.62429 -2.5 -0.23563
      vertex 5 -2.5 2.5
      vertex 2.46437 -2.5 -0.0757122
    endloop
  endfacet
  facet normal 0 -1 0
    outer loop
      vertex 2.77385 -2.5 -0.405273
      vertex 5 -2.5 2.5
      vertex 2.62429 -2.5 -0.23563
    endloop
  endfacet
  facet normal 0 -1 0
    outer loop
      vertex 2.91246 -2.5 -0.583973
      vertex 5 -2.5 2.5
      vertex 2.77385 -2.5 -0.405273
    endloop
  endfacet
  facet normal 0 -1 0
    outer loop
      vertex 3.03958 -2.5 -0.771023
      vertex 5 -2.5 2.5
      vertex 2.91246 -2.5 -0.583973
    endloop
  endfacet
  facet normal 0 -1 0
    outer loop
      vertex 3.1547 -2.5 -0.965686
      vertex 5 -2.5 2.5
      vertex 3.03958 -2.5 -0.771023
    endloop
  endfacet
  facet normal 0 -1 0
    outer loop
      vertex 3.25738 -2.5 -1.16719
      vertex 5 -2.5 2.5
      vertex 3.1547 -2.5 -0.965686
    endloop
  endfacet
  facet normal 0 -1 0
    outer loop
      vertex 5 -2.5 -2.5
      vertex 3.25738 -2.5 -1.16719
      vertex 3.34719 -2.5 -1.37475
    endloop
  endfacet
  facet normal 0 -1 0
    outer loop
      vertex 5 -2.5 -2.5
      vertex 3.34719 -2.5 -1.37475
      vertex 3.4238 -2.5 -1.58754
    endloop
  endfacet
  facet normal 0 -1 0
    outer loop
      vertex 5 -2.5 -2.5
      vertex 3.4238 -2.5 -1.58754
      vertex 3.4869 -2.5 -1.80472
    endloop
  endfacet
  facet normal 0 -1 0
    outer loop
      vertex 5 -2.5 -2.5
      vertex 3.4869 -2.5 -1.80472
      vertex 3.53623 -2.5 -2.02543
    endloop
  endfacet
  facet normal 0 -1 0
    outer loop
      vertex 5 -2.5 -2.5
      vertex 3.53623 -2.5 -2.02543
      vertex 3.57161 -2.5 -2.2488
    endloop
  endfacet
  facet normal 0 -1 0
    outer loop
      vertex 5 -2.5 -2.5
      vertex 3.57161 -2.5 -2.2488
      vertex 3.5929 -2.5 -2.47395
    endloop
  endfacet
  facet normal 0 -1 0
    outer loop
      vertex 5 -2.5 -2.5
      vertex 3.5929 -2.5 -2.47395
      vertex 3.59371 -2.5 -2.5
    endloop
  endfacet
  facet normal 0 -1 0
    outer loop
      vertex 3.25738 -2.5 -1.16719
      vertex 5 -2.5 -2.5
      vertex 5 -2.5 2.5
    endloop
  endfacet
  facet normal -0.999507 0 -0.0314084
    outer loop
      vertex 3.59371 -2.5 -2.5
      vertex 3.5929 2.5 -2.47395
      vertex 3.59371 2.5 -2.5
    endloop
  endfacet
  facet normal -0.999507 -0 -0.0314084
    outer loop
      vertex 3.5929 2.5 -2.47395
      vertex 3.59371 -2.5 -2.5
      vertex 3.5929 -2.5 -2.47395
    endloop
  endfacet
  facet normal -0.975917 0 -0.218143
    outer loop
      vertex 3.53623 -2.5 -2.02543
      vertex 3.4869 2.5 -1.80472
      vertex 3.53623 2.5 -2.02543
    endloop
  endfacet
  facet normal -0.975917 -0 -0.218143
    outer loop
      vertex 3.4869 2.5 -1.80472
      vertex 3.53623 -2.5 -2.02543
      vertex 3.4869 -2.5 -1.80472
    endloop
  endfacet
  facet normal 0.999507 0 -0.0314084
    outer loop
      vertex -3.5929 -2.5 -2.47395
      vertex -3.59371 2.5 -2.5
      vertex -3.5929 2.5 -2.47395
    endloop
  endfacet
  facet normal 0.999507 0 -0.0314084
    outer loop
      vertex -3.59371 2.5 -2.5
      vertex -3.5929 -2.5 -2.47395
      vertex -3.59371 -2.5 -2.5
    endloop
  endfacet
  facet normal -0.995562 0 -0.094108
    outer loop
      vertex 3.5929 -2.5 -2.47395
      vertex 3.57161 2.5 -2.2488
      vertex 3.5929 2.5 -2.47395
    endloop
  endfacet
  facet normal -0.995562 -0 -0.094108
    outer loop
      vertex 3.57161 2.5 -2.2488
      vertex 3.5929 -2.5 -2.47395
      vertex 3.57161 -2.5 -2.2488
    endloop
  endfacet
  facet normal -0.987689 0 -0.156433
    outer loop
      vertex 3.57161 -2.5 -2.2488
      vertex 3.53623 2.5 -2.02543
      vertex 3.57161 2.5 -2.2488
    endloop
  endfacet
  facet normal -0.987689 -0 -0.156433
    outer loop
      vertex 3.53623 2.5 -2.02543
      vertex 3.57161 -2.5 -2.2488
      vertex 3.53623 -2.5 -2.02543
    endloop
  endfacet
  facet normal -0.0314114 0 -0.999507
    outer loop
      vertex 0 -2.5 0.9
      vertex 0.226046 2.5 0.892896
      vertex 0.226046 -2.5 0.892896
    endloop
  endfacet
  facet normal -0.0314114 0 -0.999507
    outer loop
      vertex 0.226046 2.5 0.892896
      vertex 0 -2.5 0.9
      vertex 0 2.5 0.9
    endloop
  endfacet
  facet normal -0.338737 0 -0.940881
    outer loop
      vertex 1.11246 -2.5 0.723803
      vertex 1.32525 2.5 0.647195
      vertex 1.32525 -2.5 0.647195
    endloop
  endfacet
  facet normal -0.338737 0 -0.940881
    outer loop
      vertex 1.32525 2.5 0.647195
      vertex 1.11246 -2.5 0.723803
      vertex 1.11246 2.5 0.723803
    endloop
  endfacet
  facet normal 0.987689 0 -0.156433
    outer loop
      vertex -3.53623 -2.5 -2.02543
      vertex -3.57161 2.5 -2.2488
      vertex -3.53623 2.5 -2.02543
    endloop
  endfacet
  facet normal 0.987689 0 -0.156433
    outer loop
      vertex -3.57161 2.5 -2.2488
      vertex -3.53623 -2.5 -2.02543
      vertex -3.57161 -2.5 -2.2488
    endloop
  endfacet
  facet normal 0.995562 0 -0.094108
    outer loop
      vertex -3.57161 -2.5 -2.2488
      vertex -3.5929 2.5 -2.47395
      vertex -3.57161 2.5 -2.2488
    endloop
  endfacet
  facet normal 0.995562 0 -0.094108
    outer loop
      vertex -3.5929 2.5 -2.47395
      vertex -3.57161 -2.5 -2.2488
      vertex -3.5929 -2.5 -2.47395
    endloop
  endfacet
  facet normal -0.917754 0 -0.397149
    outer loop
      vertex 3.34719 -2.5 -1.37475
      vertex 3.25738 2.5 -1.16719
      vertex 3.34719 2.5 -1.37475
    endloop
  endfacet
  facet normal -0.917754 -0 -0.397149
    outer loop
      vertex 3.25738 2.5 -1.16719
      vertex 3.34719 -2.5 -1.37475
      vertex 3.25738 -2.5 -1.16719
    endloop
  endfacet
  facet normal 0.338737 0 -0.940881
    outer loop
      vertex -1.32525 -2.5 0.647195
      vertex -1.11246 2.5 0.723803
      vertex -1.11246 -2.5 0.723803
    endloop
  endfacet
  facet normal 0.338737 0 -0.940881
    outer loop
      vertex -1.11246 2.5 0.723803
      vertex -1.32525 -2.5 0.647195
      vertex -1.32525 2.5 0.647195
    endloop
  endfacet
  facet normal -0.397147 0 -0.917755
    outer loop
      vertex 1.32525 -2.5 0.647195
      vertex 1.53281 2.5 0.557377
      vertex 1.53281 -2.5 0.557377
    endloop
  endfacet
  facet normal -0.397147 0 -0.917755
    outer loop
      vertex 1.53281 2.5 0.557377
      vertex 1.32525 -2.5 0.647195
      vertex 1.32525 2.5 0.647195
    endloop
  endfacet
  facet normal 0.562082 0 -0.827082
    outer loop
      vertex -2.11603 -2.5 0.212461
      vertex -1.92898 2.5 0.33958
      vertex -1.92898 -2.5 0.33958
    endloop
  endfacet
  facet normal 0.562082 0 -0.827082
    outer loop
      vertex -1.92898 2.5 0.33958
      vertex -2.11603 -2.5 0.212461
      vertex -2.11603 2.5 0.212461
    endloop
  endfacet
  facet normal 0.156433 0 -0.987689
    outer loop
      vertex -0.674572 -2.5 0.836234
      vertex -0.4512 2.5 0.871613
      vertex -0.4512 -2.5 0.871613
    endloop
  endfacet
  facet normal 0.156433 0 -0.987689
    outer loop
      vertex -0.4512 2.5 0.871613
      vertex -0.674572 -2.5 0.836234
      vertex -0.674572 2.5 0.836234
    endloop
  endfacet
  facet normal 0.960293 0 -0.278992
    outer loop
      vertex -3.4238 -2.5 -1.58754
      vertex -3.4869 2.5 -1.80472
      vertex -3.4238 2.5 -1.58754
    endloop
  endfacet
  facet normal 0.960293 0 -0.278992
    outer loop
      vertex -3.4869 2.5 -1.80472
      vertex -3.4238 -2.5 -1.58754
      vertex -3.4869 -2.5 -1.80472
    endloop
  endfacet
  facet normal 0.0314114 0 -0.999507
    outer loop
      vertex -0.226046 -2.5 0.892896
      vertex 0 2.5 0.9
      vertex 0 -2.5 0.9
    endloop
  endfacet
  facet normal 0.0314114 0 -0.999507
    outer loop
      vertex 0 2.5 0.9
      vertex -0.226046 -2.5 0.892896
      vertex -0.226046 2.5 0.892896
    endloop
  endfacet
  facet normal -0.156433 0 -0.987689
    outer loop
      vertex 0.4512 -2.5 0.871613
      vertex 0.674572 2.5 0.836234
      vertex 0.674572 -2.5 0.836234
    endloop
  endfacet
  facet normal -0.156433 0 -0.987689
    outer loop
      vertex 0.674572 2.5 0.836234
      vertex 0.4512 -2.5 0.871613
      vertex 0.4512 2.5 0.871613
    endloop
  endfacet
  facet normal -0.218147 0 -0.975916
    outer loop
      vertex 0.674572 -2.5 0.836234
      vertex 0.895283 2.5 0.786899
      vertex 0.895283 -2.5 0.786899
    endloop
  endfacet
  facet normal -0.218147 0 -0.975916
    outer loop
      vertex 0.895283 2.5 0.786899
      vertex 0.674572 -2.5 0.836234
      vertex 0.674572 2.5 0.836234
    endloop
  endfacet
  facet normal -0.453992 0 -0.891006
    outer loop
      vertex 1.53281 -2.5 0.557377
      vertex 1.73431 2.5 0.454703
      vertex 1.73431 -2.5 0.454703
    endloop
  endfacet
  facet normal -0.453992 0 -0.891006
    outer loop
      vertex 1.73431 2.5 0.454703
      vertex 1.53281 -2.5 0.557377
      vertex 1.53281 2.5 0.557377
    endloop
  endfacet
  facet normal -0.509043 0 -0.860741
    outer loop
      vertex 1.73431 -2.5 0.454703
      vertex 1.92898 2.5 0.33958
      vertex 1.92898 -2.5 0.33958
    endloop
  endfacet
  facet normal -0.509043 0 -0.860741
    outer loop
      vertex 1.92898 2.5 0.33958
      vertex 1.73431 -2.5 0.454703
      vertex 1.73431 2.5 0.454703
    endloop
  endfacet
  facet normal -0.61291 0 -0.790153
    outer loop
      vertex 2.11603 -2.5 0.212461
      vertex 2.29473 2.5 0.0738468
      vertex 2.29473 -2.5 0.0738468
    endloop
  endfacet
  facet normal -0.61291 0 -0.790153
    outer loop
      vertex 2.29473 2.5 0.0738468
      vertex 2.11603 -2.5 0.212461
      vertex 2.11603 2.5 0.212461
    endloop
  endfacet
  facet normal -0.827078 0 -0.562087
    outer loop
      vertex 3.03958 -2.5 -0.771023
      vertex 2.91246 2.5 -0.583973
      vertex 3.03958 2.5 -0.771023
    endloop
  endfacet
  facet normal -0.827078 -0 -0.562087
    outer loop
      vertex 2.91246 2.5 -0.583973
      vertex 3.03958 -2.5 -0.771023
      vertex 2.91246 -2.5 -0.583973
    endloop
  endfacet
  facet normal -0.94088 0 -0.338739
    outer loop
      vertex 3.4238 -2.5 -1.58754
      vertex 3.34719 2.5 -1.37475
      vertex 3.4238 2.5 -1.58754
    endloop
  endfacet
  facet normal -0.94088 -0 -0.338739
    outer loop
      vertex 3.34719 2.5 -1.37475
      vertex 3.4238 -2.5 -1.58754
      vertex 3.34719 -2.5 -1.37475
    endloop
  endfacet
  facet normal -0.960293 0 -0.278992
    outer loop
      vertex 3.4869 -2.5 -1.80472
      vertex 3.4238 2.5 -1.58754
      vertex 3.4869 2.5 -1.80472
    endloop
  endfacet
  facet normal -0.960293 -0 -0.278992
    outer loop
      vertex 3.4238 2.5 -1.58754
      vertex 3.4869 -2.5 -1.80472
      vertex 3.4238 -2.5 -1.58754
    endloop
  endfacet
  facet normal 0.397147 0 -0.917755
    outer loop
      vertex -1.53281 -2.5 0.557377
      vertex -1.32525 2.5 0.647195
      vertex -1.32525 -2.5 0.647195
    endloop
  endfacet
  facet normal 0.397147 0 -0.917755
    outer loop
      vertex -1.32525 2.5 0.647195
      vertex -1.53281 -2.5 0.557377
      vertex -1.53281 2.5 0.557377
    endloop
  endfacet
  facet normal 0.509043 0 -0.860741
    outer loop
      vertex -1.92898 -2.5 0.33958
      vertex -1.73431 2.5 0.454703
      vertex -1.73431 -2.5 0.454703
    endloop
  endfacet
  facet normal 0.509043 0 -0.860741
    outer loop
      vertex -1.73431 2.5 0.454703
      vertex -1.92898 -2.5 0.33958
      vertex -1.92898 2.5 0.33958
    endloop
  endfacet
  facet normal 0.661307 0 -0.750115
    outer loop
      vertex -2.46437 -2.5 -0.0757122
      vertex -2.29473 2.5 0.0738468
      vertex -2.29473 -2.5 0.0738468
    endloop
  endfacet
  facet normal 0.661307 0 -0.750115
    outer loop
      vertex -2.29473 2.5 0.0738468
      vertex -2.46437 -2.5 -0.0757122
      vertex -2.46437 2.5 -0.0757122
    endloop
  endfacet
  facet normal 0.278991 0 -0.960294
    outer loop
      vertex -1.11246 -2.5 0.723803
      vertex -0.895283 2.5 0.786899
      vertex -0.895283 -2.5 0.786899
    endloop
  endfacet
  facet normal 0.278991 0 -0.960294
    outer loop
      vertex -0.895283 2.5 0.786899
      vertex -1.11246 -2.5 0.723803
      vertex -1.11246 2.5 0.723803
    endloop
  endfacet
  facet normal 0.0941076 0 -0.995562
    outer loop
      vertex -0.4512 -2.5 0.871613
      vertex -0.226046 2.5 0.892896
      vertex -0.226046 -2.5 0.892896
    endloop
  endfacet
  facet normal 0.0941076 0 -0.995562
    outer loop
      vertex -0.226046 2.5 0.892896
      vertex -0.4512 -2.5 0.871613
      vertex -0.4512 2.5 0.871613
    endloop
  endfacet
  facet normal 0.750111 0 -0.661312
    outer loop
      vertex -2.62429 -2.5 -0.23563
      vertex -2.77385 2.5 -0.405273
      vertex -2.62429 2.5 -0.23563
    endloop
  endfacet
  facet normal 0.750111 0 -0.661312
    outer loop
      vertex -2.77385 2.5 -0.405273
      vertex -2.62429 -2.5 -0.23563
      vertex -2.77385 -2.5 -0.405273
    endloop
  endfacet
  facet normal 0.707107 0 -0.707107
    outer loop
      vertex -2.46437 -2.5 -0.0757122
      vertex -2.62429 2.5 -0.23563
      vertex -2.46437 2.5 -0.0757122
    endloop
  endfacet
  facet normal 0.707107 0 -0.707107
    outer loop
      vertex -2.62429 2.5 -0.23563
      vertex -2.46437 -2.5 -0.0757122
      vertex -2.62429 -2.5 -0.23563
    endloop
  endfacet
  facet normal 0.860743 0 -0.509039
    outer loop
      vertex -3.03958 -2.5 -0.771023
      vertex -3.1547 2.5 -0.965686
      vertex -3.03958 2.5 -0.771023
    endloop
  endfacet
  facet normal 0.860743 0 -0.509039
    outer loop
      vertex -3.1547 2.5 -0.965686
      vertex -3.03958 -2.5 -0.771023
      vertex -3.1547 -2.5 -0.965686
    endloop
  endfacet
  facet normal 0.975917 0 -0.218143
    outer loop
      vertex -3.4869 -2.5 -1.80472
      vertex -3.53623 2.5 -2.02543
      vertex -3.4869 2.5 -1.80472
    endloop
  endfacet
  facet normal 0.975917 0 -0.218143
    outer loop
      vertex -3.53623 2.5 -2.02543
      vertex -3.4869 -2.5 -1.80472
      vertex -3.53623 -2.5 -2.02543
    endloop
  endfacet
  facet normal -0.0941076 0 -0.995562
    outer loop
      vertex 0.226046 -2.5 0.892896
      vertex 0.4512 2.5 0.871613
      vertex 0.4512 -2.5 0.871613
    endloop
  endfacet
  facet normal -0.0941076 0 -0.995562
    outer loop
      vertex 0.4512 2.5 0.871613
      vertex 0.226046 -2.5 0.892896
      vertex 0.226046 2.5 0.892896
    endloop
  endfacet
  facet normal -0.278991 0 -0.960294
    outer loop
      vertex 0.895283 -2.5 0.786899
      vertex 1.11246 2.5 0.723803
      vertex 1.11246 -2.5 0.723803
    endloop
  endfacet
  facet normal -0.278991 0 -0.960294
    outer loop
      vertex 1.11246 2.5 0.723803
      vertex 0.895283 -2.5 0.786899
      vertex 0.895283 2.5 0.786899
    endloop
  endfacet
  facet normal -0.562082 0 -0.827082
    outer loop
      vertex 1.92898 -2.5 0.33958
      vertex 2.11603 2.5 0.212461
      vertex 2.11603 -2.5 0.212461
    endloop
  endfacet
  facet normal -0.562082 0 -0.827082
    outer loop
      vertex 2.11603 2.5 0.212461
      vertex 1.92898 -2.5 0.33958
      vertex 1.92898 2.5 0.33958
    endloop
  endfacet
  facet normal -0.860743 0 -0.509039
    outer loop
      vertex 3.1547 -2.5 -0.965686
      vertex 3.03958 2.5 -0.771023
      vertex 3.1547 2.5 -0.965686
    endloop
  endfacet
  facet normal -0.860743 -0 -0.509039
    outer loop
      vertex 3.03958 2.5 -0.771023
      vertex 3.1547 -2.5 -0.965686
      vertex 3.03958 -2.5 -0.771023
    endloop
  endfacet
  facet normal -0.790157 0 -0.612905
    outer loop
      vertex 2.91246 -2.5 -0.583973
      vertex 2.77385 2.5 -0.405273
      vertex 2.91246 2.5 -0.583973
    endloop
  endfacet
  facet normal -0.790157 -0 -0.612905
    outer loop
      vertex 2.77385 2.5 -0.405273
      vertex 2.91246 -2.5 -0.583973
      vertex 2.77385 -2.5 -0.405273
    endloop
  endfacet
  facet normal -0.750111 0 -0.661312
    outer loop
      vertex 2.77385 -2.5 -0.405273
      vertex 2.62429 2.5 -0.23563
      vertex 2.77385 2.5 -0.405273
    endloop
  endfacet
  facet normal -0.750111 -0 -0.661312
    outer loop
      vertex 2.62429 2.5 -0.23563
      vertex 2.77385 -2.5 -0.405273
      vertex 2.62429 -2.5 -0.23563
    endloop
  endfacet
  facet normal -0.707107 0 -0.707107
    outer loop
      vertex 2.62429 -2.5 -0.23563
      vertex 2.46437 2.5 -0.0757122
      vertex 2.62429 2.5 -0.23563
    endloop
  endfacet
  facet normal -0.707107 -0 -0.707107
    outer loop
      vertex 2.46437 2.5 -0.0757122
      vertex 2.62429 -2.5 -0.23563
      vertex 2.46437 -2.5 -0.0757122
    endloop
  endfacet
  facet normal -0.661307 0 -0.750115
    outer loop
      vertex 2.29473 -2.5 0.0738468
      vertex 2.46437 2.5 -0.0757122
      vertex 2.46437 -2.5 -0.0757122
    endloop
  endfacet
  facet normal -0.661307 0 -0.750115
    outer loop
      vertex 2.46437 2.5 -0.0757122
      vertex 2.29473 -2.5 0.0738468
      vertex 2.29473 2.5 0.0738468
    endloop
  endfacet
  facet normal 0.61291 0 -0.790153
    outer loop
      vertex -2.29473 -2.5 0.0738468
      vertex -2.11603 2.5 0.212461
      vertex -2.11603 -2.5 0.212461
    endloop
  endfacet
  facet normal 0.61291 0 -0.790153
    outer loop
      vertex -2.11603 2.5 0.212461
      vertex -2.29473 -2.5 0.0738468
      vertex -2.29473 2.5 0.0738468
    endloop
  endfacet
  facet normal 0.218147 0 -0.975916
    outer loop
      vertex -0.895283 -2.5 0.786899
      vertex -0.674572 2.5 0.836234
      vertex -0.674572 -2.5 0.836234
    endloop
  endfacet
  facet normal 0.218147 0 -0.975916
    outer loop
      vertex -0.674572 2.5 0.836234
      vertex -0.895283 -2.5 0.786899
      vertex -0.895283 2.5 0.786899
    endloop
  endfacet
  facet normal 0.94088 0 -0.338739
    outer loop
      vertex -3.34719 -2.5 -1.37475
      vertex -3.4238 2.5 -1.58754
      vertex -3.34719 2.5 -1.37475
    endloop
  endfacet
  facet normal 0.94088 0 -0.338739
    outer loop
      vertex -3.4238 2.5 -1.58754
      vertex -3.34719 -2.5 -1.37475
      vertex -3.4238 -2.5 -1.58754
    endloop
  endfacet
  facet normal 0.917754 0 -0.397149
    outer loop
      vertex -3.25738 -2.5 -1.16719
      vertex -3.34719 2.5 -1.37475
      vertex -3.25738 2.5 -1.16719
    endloop
  endfacet
  facet normal 0.917754 0 -0.397149
    outer loop
      vertex -3.34719 2.5 -1.37475
      vertex -3.25738 -2.5 -1.16719
      vertex -3.34719 -2.5 -1.37475
    endloop
  endfacet
  facet normal 0.891007 0 -0.45399
    outer loop
      vertex -3.1547 -2.5 -0.965686
      vertex -3.25738 2.5 -1.16719
      vertex -3.1547 2.5 -0.965686
    endloop
  endfacet
  facet normal 0.891007 0 -0.45399
    outer loop
      vertex -3.25738 2.5 -1.16719
      vertex -3.1547 -2.5 -0.965686
      vertex -3.25738 -2.5 -1.16719
    endloop
  endfacet
  facet normal 0.827078 0 -0.562087
    outer loop
      vertex -2.91246 -2.5 -0.583973
      vertex -3.03958 2.5 -0.771023
      vertex -2.91246 2.5 -0.583973
    endloop
  endfacet
  facet normal 0.827078 0 -0.562087
    outer loop
      vertex -3.03958 2.5 -0.771023
      vertex -2.91246 -2.5 -0.583973
      vertex -3.03958 -2.5 -0.771023
    endloop
  endfacet
  facet normal 0.790157 0 -0.612905
    outer loop
      vertex -2.77385 -2.5 -0.405273
      vertex -2.91246 2.5 -0.583973
      vertex -2.77385 2.5 -0.405273
    endloop
  endfacet
  facet normal 0.790157 0 -0.612905
    outer loop
      vertex -2.91246 2.5 -0.583973
      vertex -2.77385 -2.5 -0.405273
      vertex -2.91246 -2.5 -0.583973
    endloop
  endfacet
  facet normal -0.891007 0 -0.45399
    outer loop
      vertex 3.25738 -2.5 -1.16719
      vertex 3.1547 2.5 -0.965686
      vertex 3.25738 2.5 -1.16719
    endloop
  endfacet
  facet normal -0.891007 -0 -0.45399
    outer loop
      vertex 3.1547 2.5 -0.965686
      vertex 3.25738 -2.5 -1.16719
      vertex 3.1547 -2.5 -0.965686
    endloop
  endfacet
  facet normal 0.453992 0 -0.891006
    outer loop
      vertex -1.73431 -2.5 0.454703
      vertex -1.53281 2.5 0.557377
      vertex -1.53281 -2.5 0.557377
    endloop
  endfacet
  facet normal 0.453992 0 -0.891006
    outer loop
      vertex -1.53281 2.5 0.557377
      vertex -1.73431 -2.5 0.454703
      vertex -1.73431 2.5 0.454703
    endloop
  endfacet
endsolid OpenSCAD_Model
